<?xml version="1.0" encoding="utf-8" standalone="no"?>
<!DOCTYPE svg PUBLIC "-//W3C//DTD SVG 1.1//EN"
  "http://www.w3.org/Graphics/SVG/1.1/DTD/svg11.dtd">
<svg xmlns:xlink="http://www.w3.org/1999/xlink" width="144pt" height="576pt" viewBox="0 0 144 576" xmlns="http://www.w3.org/2000/svg" version="1.1">
 <metadata>
  <rdf:RDF xmlns:dc="http://purl.org/dc/elements/1.1/" xmlns:cc="http://creativecommons.org/ns#" xmlns:rdf="http://www.w3.org/1999/02/22-rdf-syntax-ns#">
   <cc:Work>
    <dc:type rdf:resource="http://purl.org/dc/dcmitype/StillImage"/>
    <dc:date>2022-04-01T18:31:26.513276</dc:date>
    <dc:format>image/svg+xml</dc:format>
    <dc:creator>
     <cc:Agent>
      <dc:title>Matplotlib v3.5.1, https://matplotlib.org/</dc:title>
     </cc:Agent>
    </dc:creator>
   </cc:Work>
  </rdf:RDF>
 </metadata>
 <defs>
  <style type="text/css">*{stroke-linejoin: round; stroke-linecap: butt}</style>
 </defs>
 <g id="figure_1">
  <g id="patch_1">
   <path d="M 0 576 
L 144 576 
L 144 0 
L 0 0 
L 0 576 
z
" style="fill: none"/>
  </g>
  <g id="axes_1">
   <g id="patch_2">
    <path d="M 18 286.56 
L 42.617647 286.56 
L 42.617647 69.12 
L 18 69.12 
L 18 286.56 
z
" style="fill: none"/>
   </g>
  </g>
  <g id="axes_2">
   <g id="patch_3">
    <path d="M 49.182353 286.56 
L 98.417647 286.56 
L 98.417647 69.12 
L 49.182353 69.12 
L 49.182353 286.56 
z
" style="fill: none"/>
   </g>
   <g id="text_1">
    <path d="M 21.0525 249.607125 
L 19.445625 253.960875 
L 22.663125 253.960875 
L 21.0525 249.607125 
z
M 20.383125 248.440875 
L 21.725625 248.440875 
L 25.059375 257.189625 
L 23.829375 257.189625 
L 23.0325 254.94525 
L 19.089375 254.94525 
L 18.2925 257.189625 
L 17.04375 257.189625 
L 20.383125 248.440875 
z
M 32.677734 249.115875 
L 32.677734 250.36275 
Q 32.079609 249.805875 31.402734 249.532125 
Q 30.725859 249.2565 29.964609 249.2565 
Q 28.464609 249.2565 27.667734 250.173375 
Q 26.870859 251.09025 26.870859 252.824625 
Q 26.870859 254.553375 27.667734 255.47025 
Q 28.464609 256.387125 29.964609 256.387125 
Q 30.725859 256.387125 31.402734 256.1115 
Q 32.079609 255.835875 32.677734 255.279 
L 32.677734 256.5165 
Q 32.057109 256.938375 31.361484 257.15025 
Q 30.667734 257.36025 29.895234 257.36025 
Q 27.907734 257.36025 26.763984 256.14525 
Q 25.622109 254.928375 25.622109 252.824625 
Q 25.622109 250.71525 26.763984 249.50025 
Q 27.907734 248.283375 29.895234 248.283375 
Q 30.678984 248.283375 31.372734 248.4915 
Q 32.068359 248.699625 32.677734 249.115875 
z
M 39.749766 248.72775 
L 39.749766 249.88275 
Q 39.076641 249.56025 38.478516 249.40275 
Q 37.880391 249.243375 37.323516 249.243375 
Q 36.357891 249.243375 35.832891 249.618375 
Q 35.307891 249.993375 35.307891 250.68525 
Q 35.307891 251.2665 35.656641 251.56275 
Q 36.005391 251.857125 36.978516 252.039 
L 37.692891 252.18525 
Q 39.016641 252.438375 39.646641 253.074 
Q 40.276641 253.709625 40.276641 254.774625 
Q 40.276641 256.04775 39.423516 256.704 
Q 38.572266 257.36025 36.926016 257.36025 
Q 36.305391 257.36025 35.604141 257.219625 
Q 34.904766 257.079 34.154766 256.803375 
L 34.154766 255.584625 
Q 34.874766 255.98775 35.566641 256.194 
Q 36.258516 256.398375 36.926016 256.398375 
Q 37.938516 256.398375 38.489766 256.000875 
Q 39.041016 255.6015 39.041016 254.86275 
Q 39.041016 254.219625 38.645391 253.855875 
Q 38.249766 253.492125 37.347891 253.31025 
L 36.626016 253.169625 
Q 35.302266 252.907125 34.709766 252.344625 
Q 34.119141 251.782125 34.119141 250.779 
Q 34.119141 249.618375 34.936641 248.950875 
Q 35.754141 248.283375 37.188516 248.283375 
Q 37.805391 248.283375 38.442891 248.395875 
Q 39.082266 248.5065 39.749766 248.72775 
z
M 42.240703 248.440875 
L 46.886953 248.440875 
L 46.886953 249.438375 
L 43.324453 249.438375 
L 43.324453 251.5815 
Q 43.581328 251.493375 43.838203 251.45025 
Q 44.096953 251.407125 44.355703 251.407125 
Q 45.820078 251.407125 46.675078 252.209625 
Q 47.531953 253.012125 47.531953 254.38275 
Q 47.531953 255.794625 46.652578 256.578375 
Q 45.773203 257.36025 44.173828 257.36025 
Q 43.622578 257.36025 43.050703 257.2665 
Q 42.480703 257.17275 41.871328 256.98525 
L 41.871328 255.794625 
Q 42.398203 256.0815 42.960703 256.222125 
Q 43.523203 256.36275 44.149453 256.36275 
Q 45.163828 256.36275 45.754453 255.83025 
Q 46.346953 255.29775 46.346953 254.38275 
Q 46.346953 253.469625 45.754453 252.937125 
Q 45.163828 252.40275 44.149453 252.40275 
Q 43.675078 252.40275 43.202578 252.50775 
Q 42.731953 252.61275 42.240703 252.835875 
L 42.240703 248.440875 
z
M 54.754922 249.414 
L 54.754922 252.700875 
L 56.243672 252.700875 
Q 57.070547 252.700875 57.520547 252.273375 
Q 57.972422 251.845875 57.972422 251.054625 
Q 57.972422 250.269 57.520547 249.8415 
Q 57.070547 249.414 56.243672 249.414 
L 54.754922 249.414 
z
M 53.571797 248.440875 
L 56.243672 248.440875 
Q 57.715547 248.440875 58.467422 249.1065 
Q 59.221172 249.772125 59.221172 251.054625 
Q 59.221172 252.35025 58.467422 253.012125 
Q 57.715547 253.674 56.243672 253.674 
L 54.754922 253.674 
L 54.754922 257.189625 
L 53.571797 257.189625 
L 53.571797 248.440875 
z
M 62.86875 251.38275 
Q 62.0025 251.38275 61.498125 252.059625 
Q 60.99375 252.7365 60.99375 253.914 
Q 60.99375 255.0915 61.494375 255.768375 
Q 61.996875 256.44525 62.86875 256.44525 
Q 63.73125 256.44525 64.23375 255.7665 
Q 64.738125 255.085875 64.738125 253.914 
Q 64.738125 252.74775 64.23375 252.06525 
Q 63.73125 251.38275 62.86875 251.38275 
z
M 62.86875 250.469625 
Q 64.275 250.469625 65.0775 251.384625 
Q 65.881875 252.29775 65.881875 253.914 
Q 65.881875 255.524625 65.0775 256.443375 
Q 64.275 257.36025 62.86875 257.36025 
Q 61.456875 257.36025 60.65625 256.443375 
Q 59.8575 255.524625 59.8575 253.914 
Q 59.8575 252.29775 60.65625 251.384625 
Q 61.456875 250.469625 62.86875 250.469625 
z
M 68.710547 256.20525 
L 68.710547 259.68525 
L 67.626797 259.68525 
L 67.626797 250.627125 
L 68.710547 250.627125 
L 68.710547 251.62275 
Q 69.051797 251.03775 69.569297 250.754625 
Q 70.088672 250.469625 70.808672 250.469625 
Q 72.004922 250.469625 72.751172 251.418375 
Q 73.499297 252.367125 73.499297 253.914 
Q 73.499297 255.460875 72.751172 256.4115 
Q 72.004922 257.36025 70.808672 257.36025 
Q 70.088672 257.36025 69.569297 257.07525 
Q 69.051797 256.79025 68.710547 256.20525 
z
M 72.379922 253.914 
Q 72.379922 252.72525 71.890547 252.048375 
Q 71.401172 251.3715 70.546172 251.3715 
Q 69.689297 251.3715 69.199922 252.048375 
Q 68.710547 252.72525 68.710547 253.914 
Q 68.710547 255.10275 69.199922 255.779625 
Q 69.689297 256.4565 70.546172 256.4565 
Q 71.401172 256.4565 71.890547 255.779625 
Q 72.379922 255.10275 72.379922 253.914 
z
M 75.174609 254.60025 
L 75.174609 250.627125 
L 76.252734 250.627125 
L 76.252734 254.559 
Q 76.252734 255.490875 76.614609 255.95775 
Q 76.978359 256.42275 77.705859 256.42275 
Q 78.577734 256.42275 79.083984 255.865875 
Q 79.592109 255.309 79.592109 254.347125 
L 79.592109 250.627125 
L 80.670234 250.627125 
L 80.670234 257.189625 
L 79.592109 257.189625 
L 79.592109 256.180875 
Q 79.200234 256.779 78.680859 257.069625 
Q 78.163359 257.36025 77.477109 257.36025 
Q 76.346484 257.36025 75.759609 256.657125 
Q 75.174609 255.954 75.174609 254.60025 
z
M 77.887734 250.469625 
L 77.887734 250.469625 
z
M 82.890703 248.0715 
L 83.968828 248.0715 
L 83.968828 257.189625 
L 82.890703 257.189625 
L 82.890703 248.0715 
z
M 89.207813 253.8915 
Q 87.900937 253.8915 87.396563 254.189625 
Q 86.892188 254.48775 86.892188 255.209625 
Q 86.892188 255.783375 87.270938 256.120875 
Q 87.649687 256.4565 88.298438 256.4565 
Q 89.196562 256.4565 89.738438 255.820875 
Q 90.280313 255.18525 90.280313 254.1315 
L 90.280313 253.8915 
L 89.207813 253.8915 
z
M 91.358438 253.44525 
L 91.358438 257.189625 
L 90.280313 257.189625 
L 90.280313 256.194 
Q 89.910938 256.79025 89.359688 257.07525 
Q 88.808437 257.36025 88.011562 257.36025 
Q 87.004688 257.36025 86.408438 256.794 
Q 85.814063 256.22775 85.814063 255.279 
Q 85.814063 254.17275 86.554688 253.61025 
Q 87.297188 253.04775 88.767188 253.04775 
L 90.280313 253.04775 
L 90.280313 252.940875 
Q 90.280313 252.1965 89.790938 251.789625 
Q 89.301563 251.38275 88.416562 251.38275 
Q 87.854062 251.38275 87.319688 251.51775 
Q 86.787188 251.65275 86.295938 251.92275 
L 86.295938 250.92525 
Q 86.886562 250.6965 87.443438 250.584 
Q 88.000313 250.469625 88.527187 250.469625 
Q 89.952188 250.469625 90.655313 251.208375 
Q 91.358438 251.94525 91.358438 253.44525 
z
M 94.645078 248.763375 
L 94.645078 250.627125 
L 96.865078 250.627125 
L 96.865078 251.46525 
L 94.645078 251.46525 
L 94.645078 255.02775 
Q 94.645078 255.83025 94.864453 256.059 
Q 95.083828 256.28775 95.758828 256.28775 
L 96.865078 256.28775 
L 96.865078 257.189625 
L 95.758828 257.189625 
Q 94.510078 257.189625 94.035703 256.724625 
Q 93.561328 256.25775 93.561328 255.02775 
L 93.561328 251.46525 
L 92.770078 251.46525 
L 92.770078 250.627125 
L 93.561328 250.627125 
L 93.561328 248.763375 
L 94.645078 248.763375 
z
M 98.283281 250.627125 
L 99.361406 250.627125 
L 99.361406 257.189625 
L 98.283281 257.189625 
L 98.283281 250.627125 
z
M 98.283281 248.0715 
L 99.361406 248.0715 
L 99.361406 249.438375 
L 98.283281 249.438375 
L 98.283281 248.0715 
z
M 104.159766 251.38275 
Q 103.293516 251.38275 102.789141 252.059625 
Q 102.284766 252.7365 102.284766 253.914 
Q 102.284766 255.0915 102.785391 255.768375 
Q 103.287891 256.44525 104.159766 256.44525 
Q 105.022266 256.44525 105.524766 255.7665 
Q 106.029141 255.085875 106.029141 253.914 
Q 106.029141 252.74775 105.524766 252.06525 
Q 105.022266 251.38275 104.159766 251.38275 
z
M 104.159766 250.469625 
Q 105.566016 250.469625 106.368516 251.384625 
Q 107.172891 252.29775 107.172891 253.914 
Q 107.172891 255.524625 106.368516 256.443375 
Q 105.566016 257.36025 104.159766 257.36025 
Q 102.747891 257.36025 101.947266 256.443375 
Q 101.148516 255.524625 101.148516 253.914 
Q 101.148516 252.29775 101.947266 251.384625 
Q 102.747891 250.469625 104.159766 250.469625 
z
M 114.415312 253.22775 
L 114.415312 257.189625 
L 113.337187 257.189625 
L 113.337187 253.263375 
Q 113.337187 252.3315 112.973438 251.87025 
Q 112.609688 251.407125 111.884062 251.407125 
Q 111.010312 251.407125 110.505938 251.964 
Q 110.001563 252.519 110.001563 253.480875 
L 110.001563 257.189625 
L 108.917812 257.189625 
L 108.917812 250.627125 
L 110.001563 250.627125 
L 110.001563 251.647125 
Q 110.389688 251.054625 110.912813 250.762125 
Q 111.437813 250.469625 112.124063 250.469625 
Q 113.254688 250.469625 113.834063 251.169 
Q 114.415312 251.868375 114.415312 253.22775 
z
M 127.972734 253.34025 
Q 127.462734 253.34025 127.172109 253.773375 
Q 126.883359 254.2065 126.883359 254.980875 
Q 126.883359 255.742125 127.172109 256.179 
Q 127.462734 256.615875 127.972734 256.615875 
Q 128.471484 256.615875 128.760234 256.179 
Q 129.050859 255.742125 129.050859 254.980875 
Q 129.050859 254.212125 128.760234 253.777125 
Q 128.471484 253.34025 127.972734 253.34025 
z
M 127.972734 252.595875 
Q 128.898984 252.595875 129.442734 253.240875 
Q 129.988359 253.884 129.988359 254.980875 
Q 129.988359 256.075875 129.440859 256.719 
Q 128.893359 257.36025 127.972734 257.36025 
Q 127.035234 257.36025 126.489609 256.719 
Q 125.945859 256.075875 125.945859 254.980875 
Q 125.945859 253.878375 126.493359 253.237125 
Q 127.040859 252.595875 127.972734 252.595875 
z
M 121.925859 249.02775 
Q 121.421484 249.02775 121.130859 249.464625 
Q 120.842109 249.899625 120.842109 250.66275 
Q 120.842109 251.43525 121.128984 251.87025 
Q 121.415859 252.303375 121.925859 252.303375 
Q 122.435859 252.303375 122.724609 251.87025 
Q 123.015234 251.43525 123.015234 250.66275 
Q 123.015234 249.907125 122.722734 249.468375 
Q 122.430234 249.02775 121.925859 249.02775 
z
M 127.217109 248.283375 
L 128.154609 248.283375 
L 122.681484 257.36025 
L 121.743984 257.36025 
L 127.217109 248.283375 
z
M 121.925859 248.283375 
Q 122.852109 248.283375 123.401484 248.924625 
Q 123.952734 249.565875 123.952734 250.66275 
Q 123.952734 251.769 123.405234 252.408375 
Q 122.857734 253.04775 121.925859 253.04775 
Q 120.993984 253.04775 120.452109 252.4065 
Q 119.910234 251.763375 119.910234 250.66275 
Q 119.910234 249.5715 120.453984 248.928375 
Q 120.999609 248.283375 121.925859 248.283375 
z
" style="fill: #ffffff; stroke: #000000; stroke-width: 2"/>
    <path d="M 21.0525 249.607125 
L 19.445625 253.960875 
L 22.663125 253.960875 
L 21.0525 249.607125 
z
M 20.383125 248.440875 
L 21.725625 248.440875 
L 25.059375 257.189625 
L 23.829375 257.189625 
L 23.0325 254.94525 
L 19.089375 254.94525 
L 18.2925 257.189625 
L 17.04375 257.189625 
L 20.383125 248.440875 
z
M 32.677734 249.115875 
L 32.677734 250.36275 
Q 32.079609 249.805875 31.402734 249.532125 
Q 30.725859 249.2565 29.964609 249.2565 
Q 28.464609 249.2565 27.667734 250.173375 
Q 26.870859 251.09025 26.870859 252.824625 
Q 26.870859 254.553375 27.667734 255.47025 
Q 28.464609 256.387125 29.964609 256.387125 
Q 30.725859 256.387125 31.402734 256.1115 
Q 32.079609 255.835875 32.677734 255.279 
L 32.677734 256.5165 
Q 32.057109 256.938375 31.361484 257.15025 
Q 30.667734 257.36025 29.895234 257.36025 
Q 27.907734 257.36025 26.763984 256.14525 
Q 25.622109 254.928375 25.622109 252.824625 
Q 25.622109 250.71525 26.763984 249.50025 
Q 27.907734 248.283375 29.895234 248.283375 
Q 30.678984 248.283375 31.372734 248.4915 
Q 32.068359 248.699625 32.677734 249.115875 
z
M 39.749766 248.72775 
L 39.749766 249.88275 
Q 39.076641 249.56025 38.478516 249.40275 
Q 37.880391 249.243375 37.323516 249.243375 
Q 36.357891 249.243375 35.832891 249.618375 
Q 35.307891 249.993375 35.307891 250.68525 
Q 35.307891 251.2665 35.656641 251.56275 
Q 36.005391 251.857125 36.978516 252.039 
L 37.692891 252.18525 
Q 39.016641 252.438375 39.646641 253.074 
Q 40.276641 253.709625 40.276641 254.774625 
Q 40.276641 256.04775 39.423516 256.704 
Q 38.572266 257.36025 36.926016 257.36025 
Q 36.305391 257.36025 35.604141 257.219625 
Q 34.904766 257.079 34.154766 256.803375 
L 34.154766 255.584625 
Q 34.874766 255.98775 35.566641 256.194 
Q 36.258516 256.398375 36.926016 256.398375 
Q 37.938516 256.398375 38.489766 256.000875 
Q 39.041016 255.6015 39.041016 254.86275 
Q 39.041016 254.219625 38.645391 253.855875 
Q 38.249766 253.492125 37.347891 253.31025 
L 36.626016 253.169625 
Q 35.302266 252.907125 34.709766 252.344625 
Q 34.119141 251.782125 34.119141 250.779 
Q 34.119141 249.618375 34.936641 248.950875 
Q 35.754141 248.283375 37.188516 248.283375 
Q 37.805391 248.283375 38.442891 248.395875 
Q 39.082266 248.5065 39.749766 248.72775 
z
M 42.240703 248.440875 
L 46.886953 248.440875 
L 46.886953 249.438375 
L 43.324453 249.438375 
L 43.324453 251.5815 
Q 43.581328 251.493375 43.838203 251.45025 
Q 44.096953 251.407125 44.355703 251.407125 
Q 45.820078 251.407125 46.675078 252.209625 
Q 47.531953 253.012125 47.531953 254.38275 
Q 47.531953 255.794625 46.652578 256.578375 
Q 45.773203 257.36025 44.173828 257.36025 
Q 43.622578 257.36025 43.050703 257.2665 
Q 42.480703 257.17275 41.871328 256.98525 
L 41.871328 255.794625 
Q 42.398203 256.0815 42.960703 256.222125 
Q 43.523203 256.36275 44.149453 256.36275 
Q 45.163828 256.36275 45.754453 255.83025 
Q 46.346953 255.29775 46.346953 254.38275 
Q 46.346953 253.469625 45.754453 252.937125 
Q 45.163828 252.40275 44.149453 252.40275 
Q 43.675078 252.40275 43.202578 252.50775 
Q 42.731953 252.61275 42.240703 252.835875 
L 42.240703 248.440875 
z
M 54.754922 249.414 
L 54.754922 252.700875 
L 56.243672 252.700875 
Q 57.070547 252.700875 57.520547 252.273375 
Q 57.972422 251.845875 57.972422 251.054625 
Q 57.972422 250.269 57.520547 249.8415 
Q 57.070547 249.414 56.243672 249.414 
L 54.754922 249.414 
z
M 53.571797 248.440875 
L 56.243672 248.440875 
Q 57.715547 248.440875 58.467422 249.1065 
Q 59.221172 249.772125 59.221172 251.054625 
Q 59.221172 252.35025 58.467422 253.012125 
Q 57.715547 253.674 56.243672 253.674 
L 54.754922 253.674 
L 54.754922 257.189625 
L 53.571797 257.189625 
L 53.571797 248.440875 
z
M 62.86875 251.38275 
Q 62.0025 251.38275 61.498125 252.059625 
Q 60.99375 252.7365 60.99375 253.914 
Q 60.99375 255.0915 61.494375 255.768375 
Q 61.996875 256.44525 62.86875 256.44525 
Q 63.73125 256.44525 64.23375 255.7665 
Q 64.738125 255.085875 64.738125 253.914 
Q 64.738125 252.74775 64.23375 252.06525 
Q 63.73125 251.38275 62.86875 251.38275 
z
M 62.86875 250.469625 
Q 64.275 250.469625 65.0775 251.384625 
Q 65.881875 252.29775 65.881875 253.914 
Q 65.881875 255.524625 65.0775 256.443375 
Q 64.275 257.36025 62.86875 257.36025 
Q 61.456875 257.36025 60.65625 256.443375 
Q 59.8575 255.524625 59.8575 253.914 
Q 59.8575 252.29775 60.65625 251.384625 
Q 61.456875 250.469625 62.86875 250.469625 
z
M 68.710547 256.20525 
L 68.710547 259.68525 
L 67.626797 259.68525 
L 67.626797 250.627125 
L 68.710547 250.627125 
L 68.710547 251.62275 
Q 69.051797 251.03775 69.569297 250.754625 
Q 70.088672 250.469625 70.808672 250.469625 
Q 72.004922 250.469625 72.751172 251.418375 
Q 73.499297 252.367125 73.499297 253.914 
Q 73.499297 255.460875 72.751172 256.4115 
Q 72.004922 257.36025 70.808672 257.36025 
Q 70.088672 257.36025 69.569297 257.07525 
Q 69.051797 256.79025 68.710547 256.20525 
z
M 72.379922 253.914 
Q 72.379922 252.72525 71.890547 252.048375 
Q 71.401172 251.3715 70.546172 251.3715 
Q 69.689297 251.3715 69.199922 252.048375 
Q 68.710547 252.72525 68.710547 253.914 
Q 68.710547 255.10275 69.199922 255.779625 
Q 69.689297 256.4565 70.546172 256.4565 
Q 71.401172 256.4565 71.890547 255.779625 
Q 72.379922 255.10275 72.379922 253.914 
z
M 75.174609 254.60025 
L 75.174609 250.627125 
L 76.252734 250.627125 
L 76.252734 254.559 
Q 76.252734 255.490875 76.614609 255.95775 
Q 76.978359 256.42275 77.705859 256.42275 
Q 78.577734 256.42275 79.083984 255.865875 
Q 79.592109 255.309 79.592109 254.347125 
L 79.592109 250.627125 
L 80.670234 250.627125 
L 80.670234 257.189625 
L 79.592109 257.189625 
L 79.592109 256.180875 
Q 79.200234 256.779 78.680859 257.069625 
Q 78.163359 257.36025 77.477109 257.36025 
Q 76.346484 257.36025 75.759609 256.657125 
Q 75.174609 255.954 75.174609 254.60025 
z
M 77.887734 250.469625 
L 77.887734 250.469625 
z
M 82.890703 248.0715 
L 83.968828 248.0715 
L 83.968828 257.189625 
L 82.890703 257.189625 
L 82.890703 248.0715 
z
M 89.207813 253.8915 
Q 87.900937 253.8915 87.396563 254.189625 
Q 86.892188 254.48775 86.892188 255.209625 
Q 86.892188 255.783375 87.270938 256.120875 
Q 87.649687 256.4565 88.298438 256.4565 
Q 89.196562 256.4565 89.738438 255.820875 
Q 90.280313 255.18525 90.280313 254.1315 
L 90.280313 253.8915 
L 89.207813 253.8915 
z
M 91.358438 253.44525 
L 91.358438 257.189625 
L 90.280313 257.189625 
L 90.280313 256.194 
Q 89.910938 256.79025 89.359688 257.07525 
Q 88.808437 257.36025 88.011562 257.36025 
Q 87.004688 257.36025 86.408438 256.794 
Q 85.814063 256.22775 85.814063 255.279 
Q 85.814063 254.17275 86.554688 253.61025 
Q 87.297188 253.04775 88.767188 253.04775 
L 90.280313 253.04775 
L 90.280313 252.940875 
Q 90.280313 252.1965 89.790938 251.789625 
Q 89.301563 251.38275 88.416562 251.38275 
Q 87.854062 251.38275 87.319688 251.51775 
Q 86.787188 251.65275 86.295938 251.92275 
L 86.295938 250.92525 
Q 86.886562 250.6965 87.443438 250.584 
Q 88.000313 250.469625 88.527187 250.469625 
Q 89.952188 250.469625 90.655313 251.208375 
Q 91.358438 251.94525 91.358438 253.44525 
z
M 94.645078 248.763375 
L 94.645078 250.627125 
L 96.865078 250.627125 
L 96.865078 251.46525 
L 94.645078 251.46525 
L 94.645078 255.02775 
Q 94.645078 255.83025 94.864453 256.059 
Q 95.083828 256.28775 95.758828 256.28775 
L 96.865078 256.28775 
L 96.865078 257.189625 
L 95.758828 257.189625 
Q 94.510078 257.189625 94.035703 256.724625 
Q 93.561328 256.25775 93.561328 255.02775 
L 93.561328 251.46525 
L 92.770078 251.46525 
L 92.770078 250.627125 
L 93.561328 250.627125 
L 93.561328 248.763375 
L 94.645078 248.763375 
z
M 98.283281 250.627125 
L 99.361406 250.627125 
L 99.361406 257.189625 
L 98.283281 257.189625 
L 98.283281 250.627125 
z
M 98.283281 248.0715 
L 99.361406 248.0715 
L 99.361406 249.438375 
L 98.283281 249.438375 
L 98.283281 248.0715 
z
M 104.159766 251.38275 
Q 103.293516 251.38275 102.789141 252.059625 
Q 102.284766 252.7365 102.284766 253.914 
Q 102.284766 255.0915 102.785391 255.768375 
Q 103.287891 256.44525 104.159766 256.44525 
Q 105.022266 256.44525 105.524766 255.7665 
Q 106.029141 255.085875 106.029141 253.914 
Q 106.029141 252.74775 105.524766 252.06525 
Q 105.022266 251.38275 104.159766 251.38275 
z
M 104.159766 250.469625 
Q 105.566016 250.469625 106.368516 251.384625 
Q 107.172891 252.29775 107.172891 253.914 
Q 107.172891 255.524625 106.368516 256.443375 
Q 105.566016 257.36025 104.159766 257.36025 
Q 102.747891 257.36025 101.947266 256.443375 
Q 101.148516 255.524625 101.148516 253.914 
Q 101.148516 252.29775 101.947266 251.384625 
Q 102.747891 250.469625 104.159766 250.469625 
z
M 114.415312 253.22775 
L 114.415312 257.189625 
L 113.337187 257.189625 
L 113.337187 253.263375 
Q 113.337187 252.3315 112.973438 251.87025 
Q 112.609688 251.407125 111.884062 251.407125 
Q 111.010312 251.407125 110.505938 251.964 
Q 110.001563 252.519 110.001563 253.480875 
L 110.001563 257.189625 
L 108.917812 257.189625 
L 108.917812 250.627125 
L 110.001563 250.627125 
L 110.001563 251.647125 
Q 110.389688 251.054625 110.912813 250.762125 
Q 111.437813 250.469625 112.124063 250.469625 
Q 113.254688 250.469625 113.834063 251.169 
Q 114.415312 251.868375 114.415312 253.22775 
z
M 127.972734 253.34025 
Q 127.462734 253.34025 127.172109 253.773375 
Q 126.883359 254.2065 126.883359 254.980875 
Q 126.883359 255.742125 127.172109 256.179 
Q 127.462734 256.615875 127.972734 256.615875 
Q 128.471484 256.615875 128.760234 256.179 
Q 129.050859 255.742125 129.050859 254.980875 
Q 129.050859 254.212125 128.760234 253.777125 
Q 128.471484 253.34025 127.972734 253.34025 
z
M 127.972734 252.595875 
Q 128.898984 252.595875 129.442734 253.240875 
Q 129.988359 253.884 129.988359 254.980875 
Q 129.988359 256.075875 129.440859 256.719 
Q 128.893359 257.36025 127.972734 257.36025 
Q 127.035234 257.36025 126.489609 256.719 
Q 125.945859 256.075875 125.945859 254.980875 
Q 125.945859 253.878375 126.493359 253.237125 
Q 127.040859 252.595875 127.972734 252.595875 
z
M 121.925859 249.02775 
Q 121.421484 249.02775 121.130859 249.464625 
Q 120.842109 249.899625 120.842109 250.66275 
Q 120.842109 251.43525 121.128984 251.87025 
Q 121.415859 252.303375 121.925859 252.303375 
Q 122.435859 252.303375 122.724609 251.87025 
Q 123.015234 251.43525 123.015234 250.66275 
Q 123.015234 249.907125 122.722734 249.468375 
Q 122.430234 249.02775 121.925859 249.02775 
z
M 127.217109 248.283375 
L 128.154609 248.283375 
L 122.681484 257.36025 
L 121.743984 257.36025 
L 127.217109 248.283375 
z
M 121.925859 248.283375 
Q 122.852109 248.283375 123.401484 248.924625 
Q 123.952734 249.565875 123.952734 250.66275 
Q 123.952734 251.769 123.405234 252.408375 
Q 122.857734 253.04775 121.925859 253.04775 
Q 120.993984 253.04775 120.452109 252.4065 
Q 119.910234 251.763375 119.910234 250.66275 
Q 119.910234 249.5715 120.453984 248.928375 
Q 120.999609 248.283375 121.925859 248.283375 
z
" style="fill: #ffffff"/>
    <path d="M 17.35125 269.37825 
L 17.35125 267.028875 
L 15.418125 267.028875 
L 15.418125 266.05575 
L 18.523125 266.05575 
L 18.523125 269.81325 
Q 17.83875 270.298875 17.011875 270.54825 
Q 16.186875 270.797625 15.249375 270.797625 
Q 13.198125 270.797625 12.039375 269.5995 
Q 10.8825 268.3995 10.8825 266.262 
Q 10.8825 264.117 12.039375 262.918875 
Q 13.198125 261.72075 15.249375 261.72075 
Q 16.104375 261.72075 16.875 261.932625 
Q 17.645625 262.142625 18.29625 262.55325 
L 18.29625 263.81325 
Q 17.64 263.256375 16.90125 262.975125 
Q 16.1625 262.693875 15.34875 262.693875 
Q 13.741875 262.693875 12.935625 263.590125 
Q 12.13125 264.486375 12.13125 266.262 
Q 12.13125 268.032 12.935625 268.92825 
Q 13.741875 269.8245 15.34875 269.8245 
Q 15.975 269.8245 16.46625 269.71575 
Q 16.959375 269.607 17.35125 269.37825 
z
M 24.441328 265.071375 
Q 24.259453 264.966375 24.045703 264.917625 
Q 23.831953 264.867 23.575078 264.867 
Q 22.660078 264.867 22.170703 265.461375 
Q 21.681328 266.05575 21.681328 267.1695 
L 21.681328 270.627 
L 20.597578 270.627 
L 20.597578 264.0645 
L 21.681328 264.0645 
L 21.681328 265.0845 
Q 22.022578 264.486375 22.566328 264.197625 
Q 23.111953 263.907 23.891953 263.907 
Q 24.002578 263.907 24.137578 263.922 
Q 24.272578 263.935125 24.435703 263.965125 
L 24.441328 265.071375 
z
M 27.844922 264.820125 
Q 26.978672 264.820125 26.474297 265.497 
Q 25.969922 266.173875 25.969922 267.351375 
Q 25.969922 268.528875 26.470547 269.20575 
Q 26.973047 269.882625 27.844922 269.882625 
Q 28.707422 269.882625 29.209922 269.203875 
Q 29.714297 268.52325 29.714297 267.351375 
Q 29.714297 266.185125 29.209922 265.502625 
Q 28.707422 264.820125 27.844922 264.820125 
z
M 27.844922 263.907 
Q 29.251172 263.907 30.053672 264.822 
Q 30.858047 265.735125 30.858047 267.351375 
Q 30.858047 268.962 30.053672 269.88075 
Q 29.251172 270.797625 27.844922 270.797625 
Q 26.433047 270.797625 25.632422 269.88075 
Q 24.833672 268.962 24.833672 267.351375 
Q 24.833672 265.735125 25.632422 264.822 
Q 26.433047 263.907 27.844922 263.907 
z
M 32.017969 264.0645 
L 33.096094 264.0645 
L 34.444219 269.185125 
L 35.784844 264.0645 
L 37.056094 264.0645 
L 38.404219 269.185125 
L 39.746719 264.0645 
L 40.824844 264.0645 
L 39.107344 270.627 
L 37.836094 270.627 
L 36.424219 265.247625 
L 35.006719 270.627 
L 33.733594 270.627 
L 32.017969 264.0645 
z
M 43.525547 262.20075 
L 43.525547 264.0645 
L 45.745547 264.0645 
L 45.745547 264.902625 
L 43.525547 264.902625 
L 43.525547 268.465125 
Q 43.525547 269.267625 43.744922 269.496375 
Q 43.964297 269.725125 44.639297 269.725125 
L 45.745547 269.725125 
L 45.745547 270.627 
L 44.639297 270.627 
Q 43.390547 270.627 42.916172 270.162 
Q 42.441797 269.695125 42.441797 268.465125 
L 42.441797 264.902625 
L 41.650547 264.902625 
L 41.650547 264.0645 
L 42.441797 264.0645 
L 42.441797 262.20075 
L 43.525547 262.20075 
z
M 52.62 266.665125 
L 52.62 270.627 
L 51.541875 270.627 
L 51.541875 266.70075 
Q 51.541875 265.768875 51.178125 265.307625 
Q 50.814375 264.8445 50.08875 264.8445 
Q 49.215 264.8445 48.710625 265.401375 
Q 48.20625 265.956375 48.20625 266.91825 
L 48.20625 270.627 
L 47.1225 270.627 
L 47.1225 261.508875 
L 48.20625 261.508875 
L 48.20625 265.0845 
Q 48.594375 264.492 49.1175 264.1995 
Q 49.6425 263.907 50.32875 263.907 
Q 51.459375 263.907 52.03875 264.606375 
Q 52.62 265.30575 52.62 266.665125 
z
M 58.630547 261.87825 
L 63.657422 261.87825 
L 63.657422 262.87575 
L 59.813672 262.87575 
L 59.813672 265.453875 
L 63.282422 265.453875 
L 63.282422 266.4495 
L 59.813672 266.4495 
L 59.813672 270.627 
L 58.630547 270.627 
L 58.630547 261.87825 
z
M 68.418516 265.071375 
Q 68.236641 264.966375 68.022891 264.917625 
Q 67.809141 264.867 67.552266 264.867 
Q 66.637266 264.867 66.147891 265.461375 
Q 65.658516 266.05575 65.658516 267.1695 
L 65.658516 270.627 
L 64.574766 270.627 
L 64.574766 264.0645 
L 65.658516 264.0645 
L 65.658516 265.0845 
Q 65.999766 264.486375 66.543516 264.197625 
Q 67.089141 263.907 67.869141 263.907 
Q 67.979766 263.907 68.114766 263.922 
Q 68.249766 263.935125 68.412891 263.965125 
L 68.418516 265.071375 
z
M 71.822109 264.820125 
Q 70.955859 264.820125 70.451484 265.497 
Q 69.947109 266.173875 69.947109 267.351375 
Q 69.947109 268.528875 70.447734 269.20575 
Q 70.950234 269.882625 71.822109 269.882625 
Q 72.684609 269.882625 73.187109 269.203875 
Q 73.691484 268.52325 73.691484 267.351375 
Q 73.691484 266.185125 73.187109 265.502625 
Q 72.684609 264.820125 71.822109 264.820125 
z
M 71.822109 263.907 
Q 73.228359 263.907 74.030859 264.822 
Q 74.835234 265.735125 74.835234 267.351375 
Q 74.835234 268.962 74.030859 269.88075 
Q 73.228359 270.797625 71.822109 270.797625 
Q 70.410234 270.797625 69.609609 269.88075 
Q 68.810859 268.962 68.810859 267.351375 
Q 68.810859 265.735125 69.609609 264.822 
Q 70.410234 263.907 71.822109 263.907 
z
M 81.730781 265.3245 
Q 82.135781 264.597 82.698281 264.252 
Q 83.260781 263.907 84.022031 263.907 
Q 85.047656 263.907 85.604531 264.625125 
Q 86.161406 265.341375 86.161406 266.665125 
L 86.161406 270.627 
L 85.077656 270.627 
L 85.077656 266.70075 
Q 85.077656 265.757625 84.742031 265.302 
Q 84.408281 264.8445 83.723906 264.8445 
Q 82.885781 264.8445 82.398281 265.401375 
Q 81.912656 265.956375 81.912656 266.91825 
L 81.912656 270.627 
L 80.828906 270.627 
L 80.828906 266.70075 
Q 80.828906 265.752 80.495156 265.29825 
Q 80.161406 264.8445 79.463906 264.8445 
Q 78.637031 264.8445 78.149531 265.40325 
Q 77.663906 265.962 77.663906 266.91825 
L 77.663906 270.627 
L 76.580156 270.627 
L 76.580156 264.0645 
L 77.663906 264.0645 
L 77.663906 265.0845 
Q 78.033281 264.48075 78.548906 264.193875 
Q 79.064531 263.907 79.773281 263.907 
Q 80.489531 263.907 80.990156 264.27075 
Q 81.490781 264.632625 81.730781 265.3245 
z
M 93.297188 269.631375 
L 97.427813 269.631375 
L 97.427813 270.627 
L 91.874063 270.627 
L 91.874063 269.631375 
Q 92.547188 268.933875 93.709688 267.760125 
Q 94.874063 266.5845 95.172188 266.24325 
Q 95.740313 265.60575 95.965313 265.16325 
Q 96.192188 264.72075 96.192188 264.29325 
Q 96.192188 263.59575 95.702813 263.157 
Q 95.213438 262.716375 94.427813 262.716375 
Q 93.870938 262.716375 93.252188 262.9095 
Q 92.635313 263.102625 91.932188 263.496375 
L 91.932188 262.300125 
Q 92.646563 262.01325 93.267188 261.867 
Q 93.889688 261.72075 94.405313 261.72075 
Q 95.764688 261.72075 96.572813 262.401375 
Q 97.380938 263.080125 97.380938 264.216375 
Q 97.380938 264.756375 97.178438 265.240125 
Q 96.977812 265.722 96.443438 266.37825 
Q 96.297188 266.548875 95.511563 267.36075 
Q 94.727812 268.172625 93.297188 269.631375 
z
M 102.443203 262.65825 
Q 101.530078 262.65825 101.068828 263.55825 
Q 100.609453 264.456375 100.609453 266.262 
Q 100.609453 268.060125 101.068828 268.960125 
Q 101.530078 269.860125 102.443203 269.860125 
Q 103.363828 269.860125 103.823203 268.960125 
Q 104.284453 268.060125 104.284453 266.262 
Q 104.284453 264.456375 103.823203 263.55825 
Q 103.363828 262.65825 102.443203 262.65825 
z
M 102.443203 261.72075 
Q 103.915078 261.72075 104.691328 262.885125 
Q 105.467578 264.047625 105.467578 266.262 
Q 105.467578 268.47075 104.691328 269.635125 
Q 103.915078 270.797625 102.443203 270.797625 
Q 100.973203 270.797625 100.196953 269.635125 
Q 99.420703 268.47075 99.420703 266.262 
Q 99.420703 264.047625 100.196953 262.885125 
Q 100.973203 261.72075 102.443203 261.72075 
z
M 107.752969 269.631375 
L 109.686094 269.631375 
L 109.686094 262.956375 
L 107.582344 263.37825 
L 107.582344 262.300125 
L 109.674844 261.87825 
L 110.857969 261.87825 
L 110.857969 269.631375 
L 112.791094 269.631375 
L 112.791094 270.627 
L 107.752969 270.627 
L 107.752969 269.631375 
z
M 117.712734 262.65825 
Q 116.799609 262.65825 116.338359 263.55825 
Q 115.878984 264.456375 115.878984 266.262 
Q 115.878984 268.060125 116.338359 268.960125 
Q 116.799609 269.860125 117.712734 269.860125 
Q 118.633359 269.860125 119.092734 268.960125 
Q 119.553984 268.060125 119.553984 266.262 
Q 119.553984 264.456375 119.092734 263.55825 
Q 118.633359 262.65825 117.712734 262.65825 
z
M 117.712734 261.72075 
Q 119.184609 261.72075 119.960859 262.885125 
Q 120.737109 264.047625 120.737109 266.262 
Q 120.737109 268.47075 119.960859 269.635125 
Q 119.184609 270.797625 117.712734 270.797625 
Q 116.242734 270.797625 115.466484 269.635125 
Q 114.690234 268.47075 114.690234 266.262 
Q 114.690234 264.047625 115.466484 262.885125 
Q 116.242734 261.72075 117.712734 261.72075 
z
M 127.545703 262.20075 
L 127.545703 264.0645 
L 129.765703 264.0645 
L 129.765703 264.902625 
L 127.545703 264.902625 
L 127.545703 268.465125 
Q 127.545703 269.267625 127.765078 269.496375 
Q 127.984453 269.725125 128.659453 269.725125 
L 129.765703 269.725125 
L 129.765703 270.627 
L 128.659453 270.627 
Q 127.410703 270.627 126.936328 270.162 
Q 126.461953 269.695125 126.461953 268.465125 
L 126.461953 264.902625 
L 125.670703 264.902625 
L 125.670703 264.0645 
L 126.461953 264.0645 
L 126.461953 262.20075 
L 127.545703 262.20075 
z
M 133.726406 264.820125 
Q 132.860156 264.820125 132.355781 265.497 
Q 131.851406 266.173875 131.851406 267.351375 
Q 131.851406 268.528875 132.352031 269.20575 
Q 132.854531 269.882625 133.726406 269.882625 
Q 134.588906 269.882625 135.091406 269.203875 
Q 135.595781 268.52325 135.595781 267.351375 
Q 135.595781 266.185125 135.091406 265.502625 
Q 134.588906 264.820125 133.726406 264.820125 
z
M 133.726406 263.907 
Q 135.132656 263.907 135.935156 264.822 
Q 136.739531 265.735125 136.739531 267.351375 
Q 136.739531 268.962 135.935156 269.88075 
Q 135.132656 270.797625 133.726406 270.797625 
Q 132.314531 270.797625 131.513906 269.88075 
Q 130.715156 268.962 130.715156 267.351375 
Q 130.715156 265.735125 131.513906 264.822 
Q 132.314531 263.907 133.726406 263.907 
z
" style="fill: #ffffff; stroke: #000000; stroke-width: 2"/>
    <path d="M 17.35125 269.37825 
L 17.35125 267.028875 
L 15.418125 267.028875 
L 15.418125 266.05575 
L 18.523125 266.05575 
L 18.523125 269.81325 
Q 17.83875 270.298875 17.011875 270.54825 
Q 16.186875 270.797625 15.249375 270.797625 
Q 13.198125 270.797625 12.039375 269.5995 
Q 10.8825 268.3995 10.8825 266.262 
Q 10.8825 264.117 12.039375 262.918875 
Q 13.198125 261.72075 15.249375 261.72075 
Q 16.104375 261.72075 16.875 261.932625 
Q 17.645625 262.142625 18.29625 262.55325 
L 18.29625 263.81325 
Q 17.64 263.256375 16.90125 262.975125 
Q 16.1625 262.693875 15.34875 262.693875 
Q 13.741875 262.693875 12.935625 263.590125 
Q 12.13125 264.486375 12.13125 266.262 
Q 12.13125 268.032 12.935625 268.92825 
Q 13.741875 269.8245 15.34875 269.8245 
Q 15.975 269.8245 16.46625 269.71575 
Q 16.959375 269.607 17.35125 269.37825 
z
M 24.441328 265.071375 
Q 24.259453 264.966375 24.045703 264.917625 
Q 23.831953 264.867 23.575078 264.867 
Q 22.660078 264.867 22.170703 265.461375 
Q 21.681328 266.05575 21.681328 267.1695 
L 21.681328 270.627 
L 20.597578 270.627 
L 20.597578 264.0645 
L 21.681328 264.0645 
L 21.681328 265.0845 
Q 22.022578 264.486375 22.566328 264.197625 
Q 23.111953 263.907 23.891953 263.907 
Q 24.002578 263.907 24.137578 263.922 
Q 24.272578 263.935125 24.435703 263.965125 
L 24.441328 265.071375 
z
M 27.844922 264.820125 
Q 26.978672 264.820125 26.474297 265.497 
Q 25.969922 266.173875 25.969922 267.351375 
Q 25.969922 268.528875 26.470547 269.20575 
Q 26.973047 269.882625 27.844922 269.882625 
Q 28.707422 269.882625 29.209922 269.203875 
Q 29.714297 268.52325 29.714297 267.351375 
Q 29.714297 266.185125 29.209922 265.502625 
Q 28.707422 264.820125 27.844922 264.820125 
z
M 27.844922 263.907 
Q 29.251172 263.907 30.053672 264.822 
Q 30.858047 265.735125 30.858047 267.351375 
Q 30.858047 268.962 30.053672 269.88075 
Q 29.251172 270.797625 27.844922 270.797625 
Q 26.433047 270.797625 25.632422 269.88075 
Q 24.833672 268.962 24.833672 267.351375 
Q 24.833672 265.735125 25.632422 264.822 
Q 26.433047 263.907 27.844922 263.907 
z
M 32.017969 264.0645 
L 33.096094 264.0645 
L 34.444219 269.185125 
L 35.784844 264.0645 
L 37.056094 264.0645 
L 38.404219 269.185125 
L 39.746719 264.0645 
L 40.824844 264.0645 
L 39.107344 270.627 
L 37.836094 270.627 
L 36.424219 265.247625 
L 35.006719 270.627 
L 33.733594 270.627 
L 32.017969 264.0645 
z
M 43.525547 262.20075 
L 43.525547 264.0645 
L 45.745547 264.0645 
L 45.745547 264.902625 
L 43.525547 264.902625 
L 43.525547 268.465125 
Q 43.525547 269.267625 43.744922 269.496375 
Q 43.964297 269.725125 44.639297 269.725125 
L 45.745547 269.725125 
L 45.745547 270.627 
L 44.639297 270.627 
Q 43.390547 270.627 42.916172 270.162 
Q 42.441797 269.695125 42.441797 268.465125 
L 42.441797 264.902625 
L 41.650547 264.902625 
L 41.650547 264.0645 
L 42.441797 264.0645 
L 42.441797 262.20075 
L 43.525547 262.20075 
z
M 52.62 266.665125 
L 52.62 270.627 
L 51.541875 270.627 
L 51.541875 266.70075 
Q 51.541875 265.768875 51.178125 265.307625 
Q 50.814375 264.8445 50.08875 264.8445 
Q 49.215 264.8445 48.710625 265.401375 
Q 48.20625 265.956375 48.20625 266.91825 
L 48.20625 270.627 
L 47.1225 270.627 
L 47.1225 261.508875 
L 48.20625 261.508875 
L 48.20625 265.0845 
Q 48.594375 264.492 49.1175 264.1995 
Q 49.6425 263.907 50.32875 263.907 
Q 51.459375 263.907 52.03875 264.606375 
Q 52.62 265.30575 52.62 266.665125 
z
M 58.630547 261.87825 
L 63.657422 261.87825 
L 63.657422 262.87575 
L 59.813672 262.87575 
L 59.813672 265.453875 
L 63.282422 265.453875 
L 63.282422 266.4495 
L 59.813672 266.4495 
L 59.813672 270.627 
L 58.630547 270.627 
L 58.630547 261.87825 
z
M 68.418516 265.071375 
Q 68.236641 264.966375 68.022891 264.917625 
Q 67.809141 264.867 67.552266 264.867 
Q 66.637266 264.867 66.147891 265.461375 
Q 65.658516 266.05575 65.658516 267.1695 
L 65.658516 270.627 
L 64.574766 270.627 
L 64.574766 264.0645 
L 65.658516 264.0645 
L 65.658516 265.0845 
Q 65.999766 264.486375 66.543516 264.197625 
Q 67.089141 263.907 67.869141 263.907 
Q 67.979766 263.907 68.114766 263.922 
Q 68.249766 263.935125 68.412891 263.965125 
L 68.418516 265.071375 
z
M 71.822109 264.820125 
Q 70.955859 264.820125 70.451484 265.497 
Q 69.947109 266.173875 69.947109 267.351375 
Q 69.947109 268.528875 70.447734 269.20575 
Q 70.950234 269.882625 71.822109 269.882625 
Q 72.684609 269.882625 73.187109 269.203875 
Q 73.691484 268.52325 73.691484 267.351375 
Q 73.691484 266.185125 73.187109 265.502625 
Q 72.684609 264.820125 71.822109 264.820125 
z
M 71.822109 263.907 
Q 73.228359 263.907 74.030859 264.822 
Q 74.835234 265.735125 74.835234 267.351375 
Q 74.835234 268.962 74.030859 269.88075 
Q 73.228359 270.797625 71.822109 270.797625 
Q 70.410234 270.797625 69.609609 269.88075 
Q 68.810859 268.962 68.810859 267.351375 
Q 68.810859 265.735125 69.609609 264.822 
Q 70.410234 263.907 71.822109 263.907 
z
M 81.730781 265.3245 
Q 82.135781 264.597 82.698281 264.252 
Q 83.260781 263.907 84.022031 263.907 
Q 85.047656 263.907 85.604531 264.625125 
Q 86.161406 265.341375 86.161406 266.665125 
L 86.161406 270.627 
L 85.077656 270.627 
L 85.077656 266.70075 
Q 85.077656 265.757625 84.742031 265.302 
Q 84.408281 264.8445 83.723906 264.8445 
Q 82.885781 264.8445 82.398281 265.401375 
Q 81.912656 265.956375 81.912656 266.91825 
L 81.912656 270.627 
L 80.828906 270.627 
L 80.828906 266.70075 
Q 80.828906 265.752 80.495156 265.29825 
Q 80.161406 264.8445 79.463906 264.8445 
Q 78.637031 264.8445 78.149531 265.40325 
Q 77.663906 265.962 77.663906 266.91825 
L 77.663906 270.627 
L 76.580156 270.627 
L 76.580156 264.0645 
L 77.663906 264.0645 
L 77.663906 265.0845 
Q 78.033281 264.48075 78.548906 264.193875 
Q 79.064531 263.907 79.773281 263.907 
Q 80.489531 263.907 80.990156 264.27075 
Q 81.490781 264.632625 81.730781 265.3245 
z
M 93.297188 269.631375 
L 97.427813 269.631375 
L 97.427813 270.627 
L 91.874063 270.627 
L 91.874063 269.631375 
Q 92.547188 268.933875 93.709688 267.760125 
Q 94.874063 266.5845 95.172188 266.24325 
Q 95.740313 265.60575 95.965313 265.16325 
Q 96.192188 264.72075 96.192188 264.29325 
Q 96.192188 263.59575 95.702813 263.157 
Q 95.213438 262.716375 94.427813 262.716375 
Q 93.870938 262.716375 93.252188 262.9095 
Q 92.635313 263.102625 91.932188 263.496375 
L 91.932188 262.300125 
Q 92.646563 262.01325 93.267188 261.867 
Q 93.889688 261.72075 94.405313 261.72075 
Q 95.764688 261.72075 96.572813 262.401375 
Q 97.380938 263.080125 97.380938 264.216375 
Q 97.380938 264.756375 97.178438 265.240125 
Q 96.977812 265.722 96.443438 266.37825 
Q 96.297188 266.548875 95.511563 267.36075 
Q 94.727812 268.172625 93.297188 269.631375 
z
M 102.443203 262.65825 
Q 101.530078 262.65825 101.068828 263.55825 
Q 100.609453 264.456375 100.609453 266.262 
Q 100.609453 268.060125 101.068828 268.960125 
Q 101.530078 269.860125 102.443203 269.860125 
Q 103.363828 269.860125 103.823203 268.960125 
Q 104.284453 268.060125 104.284453 266.262 
Q 104.284453 264.456375 103.823203 263.55825 
Q 103.363828 262.65825 102.443203 262.65825 
z
M 102.443203 261.72075 
Q 103.915078 261.72075 104.691328 262.885125 
Q 105.467578 264.047625 105.467578 266.262 
Q 105.467578 268.47075 104.691328 269.635125 
Q 103.915078 270.797625 102.443203 270.797625 
Q 100.973203 270.797625 100.196953 269.635125 
Q 99.420703 268.47075 99.420703 266.262 
Q 99.420703 264.047625 100.196953 262.885125 
Q 100.973203 261.72075 102.443203 261.72075 
z
M 107.752969 269.631375 
L 109.686094 269.631375 
L 109.686094 262.956375 
L 107.582344 263.37825 
L 107.582344 262.300125 
L 109.674844 261.87825 
L 110.857969 261.87825 
L 110.857969 269.631375 
L 112.791094 269.631375 
L 112.791094 270.627 
L 107.752969 270.627 
L 107.752969 269.631375 
z
M 117.712734 262.65825 
Q 116.799609 262.65825 116.338359 263.55825 
Q 115.878984 264.456375 115.878984 266.262 
Q 115.878984 268.060125 116.338359 268.960125 
Q 116.799609 269.860125 117.712734 269.860125 
Q 118.633359 269.860125 119.092734 268.960125 
Q 119.553984 268.060125 119.553984 266.262 
Q 119.553984 264.456375 119.092734 263.55825 
Q 118.633359 262.65825 117.712734 262.65825 
z
M 117.712734 261.72075 
Q 119.184609 261.72075 119.960859 262.885125 
Q 120.737109 264.047625 120.737109 266.262 
Q 120.737109 268.47075 119.960859 269.635125 
Q 119.184609 270.797625 117.712734 270.797625 
Q 116.242734 270.797625 115.466484 269.635125 
Q 114.690234 268.47075 114.690234 266.262 
Q 114.690234 264.047625 115.466484 262.885125 
Q 116.242734 261.72075 117.712734 261.72075 
z
M 127.545703 262.20075 
L 127.545703 264.0645 
L 129.765703 264.0645 
L 129.765703 264.902625 
L 127.545703 264.902625 
L 127.545703 268.465125 
Q 127.545703 269.267625 127.765078 269.496375 
Q 127.984453 269.725125 128.659453 269.725125 
L 129.765703 269.725125 
L 129.765703 270.627 
L 128.659453 270.627 
Q 127.410703 270.627 126.936328 270.162 
Q 126.461953 269.695125 126.461953 268.465125 
L 126.461953 264.902625 
L 125.670703 264.902625 
L 125.670703 264.0645 
L 126.461953 264.0645 
L 126.461953 262.20075 
L 127.545703 262.20075 
z
M 133.726406 264.820125 
Q 132.860156 264.820125 132.355781 265.497 
Q 131.851406 266.173875 131.851406 267.351375 
Q 131.851406 268.528875 132.352031 269.20575 
Q 132.854531 269.882625 133.726406 269.882625 
Q 134.588906 269.882625 135.091406 269.203875 
Q 135.595781 268.52325 135.595781 267.351375 
Q 135.595781 266.185125 135.091406 265.502625 
Q 134.588906 264.820125 133.726406 264.820125 
z
M 133.726406 263.907 
Q 135.132656 263.907 135.935156 264.822 
Q 136.739531 265.735125 136.739531 267.351375 
Q 136.739531 268.962 135.935156 269.88075 
Q 135.132656 270.797625 133.726406 270.797625 
Q 132.314531 270.797625 131.513906 269.88075 
Q 130.715156 268.962 130.715156 267.351375 
Q 130.715156 265.735125 131.513906 264.822 
Q 132.314531 263.907 133.726406 263.907 
z
" style="fill: #ffffff"/>
    <path d="M 60.8325 283.06875 
L 64.963125 283.06875 
L 64.963125 284.064375 
L 59.409375 284.064375 
L 59.409375 283.06875 
Q 60.0825 282.37125 61.245 281.1975 
Q 62.409375 280.021875 62.7075 279.680625 
Q 63.275625 279.043125 63.500625 278.600625 
Q 63.7275 278.158125 63.7275 277.730625 
Q 63.7275 277.033125 63.238125 276.594375 
Q 62.74875 276.15375 61.963125 276.15375 
Q 61.40625 276.15375 60.7875 276.346875 
Q 60.170625 276.54 59.4675 276.93375 
L 59.4675 275.7375 
Q 60.181875 275.450625 60.8025 275.304375 
Q 61.425 275.158125 61.940625 275.158125 
Q 63.3 275.158125 64.108125 275.83875 
Q 64.91625 276.5175 64.91625 277.65375 
Q 64.91625 278.19375 64.71375 278.6775 
Q 64.513125 279.159375 63.97875 279.815625 
Q 63.8325 279.98625 63.046875 280.798125 
Q 62.263125 281.61 60.8325 283.06875 
z
M 69.978516 276.095625 
Q 69.065391 276.095625 68.604141 276.995625 
Q 68.144766 277.89375 68.144766 279.699375 
Q 68.144766 281.4975 68.604141 282.3975 
Q 69.065391 283.2975 69.978516 283.2975 
Q 70.899141 283.2975 71.358516 282.3975 
Q 71.819766 281.4975 71.819766 279.699375 
Q 71.819766 277.89375 71.358516 276.995625 
Q 70.899141 276.095625 69.978516 276.095625 
z
M 69.978516 275.158125 
Q 71.450391 275.158125 72.226641 276.3225 
Q 73.002891 277.485 73.002891 279.699375 
Q 73.002891 281.908125 72.226641 283.0725 
Q 71.450391 284.235 69.978516 284.235 
Q 68.508516 284.235 67.732266 283.0725 
Q 66.956016 281.908125 66.956016 279.699375 
Q 66.956016 277.485 67.732266 276.3225 
Q 68.508516 275.158125 69.978516 275.158125 
z
M 76.102031 283.06875 
L 80.232656 283.06875 
L 80.232656 284.064375 
L 74.678906 284.064375 
L 74.678906 283.06875 
Q 75.352031 282.37125 76.514531 281.1975 
Q 77.678906 280.021875 77.977031 279.680625 
Q 78.545156 279.043125 78.770156 278.600625 
Q 78.997031 278.158125 78.997031 277.730625 
Q 78.997031 277.033125 78.507656 276.594375 
Q 78.018281 276.15375 77.232656 276.15375 
Q 76.675781 276.15375 76.057031 276.346875 
Q 75.440156 276.54 74.737031 276.93375 
L 74.737031 275.7375 
Q 75.451406 275.450625 76.072031 275.304375 
Q 76.694531 275.158125 77.210156 275.158125 
Q 78.569531 275.158125 79.377656 275.83875 
Q 80.185781 276.5175 80.185781 277.65375 
Q 80.185781 278.19375 79.983281 278.6775 
Q 79.782656 279.159375 79.248281 279.815625 
Q 79.102031 279.98625 78.316406 280.798125 
Q 77.532656 281.61 76.102031 283.06875 
z
M 85.248047 276.095625 
Q 84.334922 276.095625 83.873672 276.995625 
Q 83.414297 277.89375 83.414297 279.699375 
Q 83.414297 281.4975 83.873672 282.3975 
Q 84.334922 283.2975 85.248047 283.2975 
Q 86.168672 283.2975 86.628047 282.3975 
Q 87.089297 281.4975 87.089297 279.699375 
Q 87.089297 277.89375 86.628047 276.995625 
Q 86.168672 276.095625 85.248047 276.095625 
z
M 85.248047 275.158125 
Q 86.719922 275.158125 87.496172 276.3225 
Q 88.272422 277.485 88.272422 279.699375 
Q 88.272422 281.908125 87.496172 283.0725 
Q 86.719922 284.235 85.248047 284.235 
Q 83.778047 284.235 83.001797 283.0725 
Q 82.225547 281.908125 82.225547 279.699375 
Q 82.225547 277.485 83.001797 276.3225 
Q 83.778047 275.158125 85.248047 275.158125 
z
" style="fill: #ffffff; stroke: #000000; stroke-width: 2"/>
    <path d="M 60.8325 283.06875 
L 64.963125 283.06875 
L 64.963125 284.064375 
L 59.409375 284.064375 
L 59.409375 283.06875 
Q 60.0825 282.37125 61.245 281.1975 
Q 62.409375 280.021875 62.7075 279.680625 
Q 63.275625 279.043125 63.500625 278.600625 
Q 63.7275 278.158125 63.7275 277.730625 
Q 63.7275 277.033125 63.238125 276.594375 
Q 62.74875 276.15375 61.963125 276.15375 
Q 61.40625 276.15375 60.7875 276.346875 
Q 60.170625 276.54 59.4675 276.93375 
L 59.4675 275.7375 
Q 60.181875 275.450625 60.8025 275.304375 
Q 61.425 275.158125 61.940625 275.158125 
Q 63.3 275.158125 64.108125 275.83875 
Q 64.91625 276.5175 64.91625 277.65375 
Q 64.91625 278.19375 64.71375 278.6775 
Q 64.513125 279.159375 63.97875 279.815625 
Q 63.8325 279.98625 63.046875 280.798125 
Q 62.263125 281.61 60.8325 283.06875 
z
M 69.978516 276.095625 
Q 69.065391 276.095625 68.604141 276.995625 
Q 68.144766 277.89375 68.144766 279.699375 
Q 68.144766 281.4975 68.604141 282.3975 
Q 69.065391 283.2975 69.978516 283.2975 
Q 70.899141 283.2975 71.358516 282.3975 
Q 71.819766 281.4975 71.819766 279.699375 
Q 71.819766 277.89375 71.358516 276.995625 
Q 70.899141 276.095625 69.978516 276.095625 
z
M 69.978516 275.158125 
Q 71.450391 275.158125 72.226641 276.3225 
Q 73.002891 277.485 73.002891 279.699375 
Q 73.002891 281.908125 72.226641 283.0725 
Q 71.450391 284.235 69.978516 284.235 
Q 68.508516 284.235 67.732266 283.0725 
Q 66.956016 281.908125 66.956016 279.699375 
Q 66.956016 277.485 67.732266 276.3225 
Q 68.508516 275.158125 69.978516 275.158125 
z
M 76.102031 283.06875 
L 80.232656 283.06875 
L 80.232656 284.064375 
L 74.678906 284.064375 
L 74.678906 283.06875 
Q 75.352031 282.37125 76.514531 281.1975 
Q 77.678906 280.021875 77.977031 279.680625 
Q 78.545156 279.043125 78.770156 278.600625 
Q 78.997031 278.158125 78.997031 277.730625 
Q 78.997031 277.033125 78.507656 276.594375 
Q 78.018281 276.15375 77.232656 276.15375 
Q 76.675781 276.15375 76.057031 276.346875 
Q 75.440156 276.54 74.737031 276.93375 
L 74.737031 275.7375 
Q 75.451406 275.450625 76.072031 275.304375 
Q 76.694531 275.158125 77.210156 275.158125 
Q 78.569531 275.158125 79.377656 275.83875 
Q 80.185781 276.5175 80.185781 277.65375 
Q 80.185781 278.19375 79.983281 278.6775 
Q 79.782656 279.159375 79.248281 279.815625 
Q 79.102031 279.98625 78.316406 280.798125 
Q 77.532656 281.61 76.102031 283.06875 
z
M 85.248047 276.095625 
Q 84.334922 276.095625 83.873672 276.995625 
Q 83.414297 277.89375 83.414297 279.699375 
Q 83.414297 281.4975 83.873672 282.3975 
Q 84.334922 283.2975 85.248047 283.2975 
Q 86.168672 283.2975 86.628047 282.3975 
Q 87.089297 281.4975 87.089297 279.699375 
Q 87.089297 277.89375 86.628047 276.995625 
Q 86.168672 276.095625 85.248047 276.095625 
z
M 85.248047 275.158125 
Q 86.719922 275.158125 87.496172 276.3225 
Q 88.272422 277.485 88.272422 279.699375 
Q 88.272422 281.908125 87.496172 283.0725 
Q 86.719922 284.235 85.248047 284.235 
Q 83.778047 284.235 83.001797 283.0725 
Q 82.225547 281.908125 82.225547 279.699375 
Q 82.225547 277.485 83.001797 276.3225 
Q 83.778047 275.158125 85.248047 275.158125 
z
" style="fill: #ffffff"/>
   </g>
  </g>
  <g id="axes_3">
   <g id="patch_4">
    <path d="M 104.982353 286.56 
L 129.6 286.56 
L 129.6 69.12 
L 104.982353 69.12 
L 104.982353 286.56 
z
" style="fill: none"/>
   </g>
  </g>
  <g id="axes_4">
   <g id="patch_5">
    <path d="M 18 504 
L 42.617647 504 
L 42.617647 286.56 
L 18 286.56 
L 18 504 
z
" style="fill: none"/>
   </g>
  </g>
  <g id="axes_5">
   <g id="patch_6">
    <path d="M 49.182353 504 
L 98.417647 504 
L 98.417647 286.56 
L 49.182353 286.56 
L 49.182353 504 
z
" style="fill: none"/>
   </g>
   <g id="patch_7">
    <path d="M 49.182353 494.116364 
L 96.073109 494.116364 
L 96.073109 469.407273 
L 49.182353 469.407273 
z
" clip-path="url(#p9f6fc1b119)" style="fill: #d73027"/>
   </g>
   <g id="patch_8">
    <path d="M 49.182353 469.407273 
L 96.073109 469.407273 
L 96.073109 444.698182 
L 49.182353 444.698182 
z
" clip-path="url(#p9f6fc1b119)" style="fill: #f46d43"/>
   </g>
   <g id="patch_9">
    <path d="M 49.182353 444.698182 
L 96.073109 444.698182 
L 96.073109 419.989091 
L 49.182353 419.989091 
z
" clip-path="url(#p9f6fc1b119)" style="fill: #fdae61"/>
   </g>
   <g id="patch_10">
    <path d="M 49.182353 419.989091 
L 96.073109 419.989091 
L 96.073109 395.28 
L 49.182353 395.28 
z
" clip-path="url(#p9f6fc1b119)" style="fill: #fee08b"/>
   </g>
   <g id="patch_11">
    <path d="M 49.182353 395.28 
L 96.073109 395.28 
L 96.073109 370.570909 
L 49.182353 370.570909 
z
" clip-path="url(#p9f6fc1b119)" style="fill: #d9ef8b"/>
   </g>
   <g id="patch_12">
    <path d="M 49.182353 370.570909 
L 96.073109 370.570909 
L 96.073109 345.861818 
L 49.182353 345.861818 
z
" clip-path="url(#p9f6fc1b119)" style="fill: #a6d96a"/>
   </g>
   <g id="patch_13">
    <path d="M 49.182353 345.861818 
L 96.073109 345.861818 
L 96.073109 321.152727 
L 49.182353 321.152727 
z
" clip-path="url(#p9f6fc1b119)" style="fill: #66bd63"/>
   </g>
   <g id="patch_14">
    <path d="M 49.182353 321.152727 
L 96.073109 321.152727 
L 96.073109 296.443636 
L 49.182353 296.443636 
z
" clip-path="url(#p9f6fc1b119)" style="fill: #1a9850"/>
   </g>
   <g id="text_2">
    <path d="M 55.985231 495.22125 
L 59.663981 495.22125 
L 59.663981 496.925625 
L 55.985231 496.925625 
L 55.985231 495.22125 
z
M 61.721325 497.97 
L 63.71445 497.97 
L 63.71445 492.315 
L 61.668825 492.736875 
L 61.668825 491.20125 
L 63.701325 490.779375 
L 65.846325 490.779375 
L 65.846325 497.97 
L 67.83945 497.97 
L 67.83945 499.528125 
L 61.721325 499.528125 
L 61.721325 497.97 
z
M 69.889059 497.26125 
L 71.998434 497.26125 
L 71.998434 499.528125 
L 69.889059 499.528125 
L 69.889059 497.26125 
z
M 77.400778 495.613125 
Q 76.768903 495.613125 76.427653 495.96 
Q 76.088278 496.305 76.088278 496.95 
Q 76.088278 497.595 76.427653 497.938125 
Q 76.768903 498.279375 77.400778 498.279375 
Q 78.028903 498.279375 78.362653 497.938125 
Q 78.696403 497.595 78.696403 496.95 
Q 78.696403 496.299375 78.362653 495.95625 
Q 78.028903 495.613125 77.400778 495.613125 
z
M 75.754528 494.870625 
Q 74.957653 494.62875 74.552653 494.131875 
Q 74.149528 493.633125 74.149528 492.88875 
Q 74.149528 491.7825 74.974528 491.203125 
Q 75.801403 490.621875 77.400778 490.621875 
Q 78.988903 490.621875 79.813903 491.199375 
Q 80.640778 491.776875 80.640778 492.88875 
Q 80.640778 493.633125 80.233903 494.131875 
Q 79.827028 494.62875 79.030153 494.870625 
Q 79.920778 495.11625 80.374528 495.669375 
Q 80.828278 496.2225 80.828278 497.06625 
Q 80.828278 498.3675 79.963903 499.033125 
Q 79.099528 499.69875 77.400778 499.69875 
Q 75.696403 499.69875 74.826403 499.033125 
Q 73.956403 498.3675 73.956403 497.06625 
Q 73.956403 496.2225 74.410153 495.669375 
Q 74.863903 495.11625 75.754528 494.870625 
z
M 76.281403 493.1175 
Q 76.281403 493.63875 76.572028 493.92 
Q 76.862653 494.20125 77.400778 494.20125 
Q 77.927653 494.20125 78.214528 493.92 
Q 78.503278 493.63875 78.503278 493.1175 
Q 78.503278 492.59625 78.214528 492.31875 
Q 77.927653 492.039375 77.400778 492.039375 
Q 76.862653 492.039375 76.572028 492.320625 
Q 76.281403 492.601875 76.281403 493.1175 
z
M 82.979137 497.97 
L 84.972262 497.97 
L 84.972262 492.315 
L 82.926637 492.736875 
L 82.926637 491.20125 
L 84.959137 490.779375 
L 87.104137 490.779375 
L 87.104137 497.97 
L 89.097262 497.97 
L 89.097262 499.528125 
L 82.979137 499.528125 
L 82.979137 497.97 
z
" style="stroke: #ffffff"/>
    <path d="M 55.985231 495.22125 
L 59.663981 495.22125 
L 59.663981 496.925625 
L 55.985231 496.925625 
L 55.985231 495.22125 
z
M 61.721325 497.97 
L 63.71445 497.97 
L 63.71445 492.315 
L 61.668825 492.736875 
L 61.668825 491.20125 
L 63.701325 490.779375 
L 65.846325 490.779375 
L 65.846325 497.97 
L 67.83945 497.97 
L 67.83945 499.528125 
L 61.721325 499.528125 
L 61.721325 497.97 
z
M 69.889059 497.26125 
L 71.998434 497.26125 
L 71.998434 499.528125 
L 69.889059 499.528125 
L 69.889059 497.26125 
z
M 77.400778 495.613125 
Q 76.768903 495.613125 76.427653 495.96 
Q 76.088278 496.305 76.088278 496.95 
Q 76.088278 497.595 76.427653 497.938125 
Q 76.768903 498.279375 77.400778 498.279375 
Q 78.028903 498.279375 78.362653 497.938125 
Q 78.696403 497.595 78.696403 496.95 
Q 78.696403 496.299375 78.362653 495.95625 
Q 78.028903 495.613125 77.400778 495.613125 
z
M 75.754528 494.870625 
Q 74.957653 494.62875 74.552653 494.131875 
Q 74.149528 493.633125 74.149528 492.88875 
Q 74.149528 491.7825 74.974528 491.203125 
Q 75.801403 490.621875 77.400778 490.621875 
Q 78.988903 490.621875 79.813903 491.199375 
Q 80.640778 491.776875 80.640778 492.88875 
Q 80.640778 493.633125 80.233903 494.131875 
Q 79.827028 494.62875 79.030153 494.870625 
Q 79.920778 495.11625 80.374528 495.669375 
Q 80.828278 496.2225 80.828278 497.06625 
Q 80.828278 498.3675 79.963903 499.033125 
Q 79.099528 499.69875 77.400778 499.69875 
Q 75.696403 499.69875 74.826403 499.033125 
Q 73.956403 498.3675 73.956403 497.06625 
Q 73.956403 496.2225 74.410153 495.669375 
Q 74.863903 495.11625 75.754528 494.870625 
z
M 76.281403 493.1175 
Q 76.281403 493.63875 76.572028 493.92 
Q 76.862653 494.20125 77.400778 494.20125 
Q 77.927653 494.20125 78.214528 493.92 
Q 78.503278 493.63875 78.503278 493.1175 
Q 78.503278 492.59625 78.214528 492.31875 
Q 77.927653 492.039375 77.400778 492.039375 
Q 76.862653 492.039375 76.572028 492.320625 
Q 76.281403 492.601875 76.281403 493.1175 
z
M 82.979137 497.97 
L 84.972262 497.97 
L 84.972262 492.315 
L 82.926637 492.736875 
L 82.926637 491.20125 
L 84.959137 490.779375 
L 87.104137 490.779375 
L 87.104137 497.97 
L 89.097262 497.97 
L 89.097262 499.528125 
L 82.979137 499.528125 
L 82.979137 497.97 
z
"/>
   </g>
   <g id="text_3">
    <path d="M 59.230856 473.260909 
L 61.223981 473.260909 
L 61.223981 467.605909 
L 59.178356 468.027784 
L 59.178356 466.492159 
L 61.210856 466.070284 
L 63.355856 466.070284 
L 63.355856 473.260909 
L 65.348981 473.260909 
L 65.348981 474.819034 
L 59.230856 474.819034 
L 59.230856 473.260909 
z
M 67.39859 472.552159 
L 69.507965 472.552159 
L 69.507965 474.819034 
L 67.39859 474.819034 
L 67.39859 472.552159 
z
M 76.252809 470.435284 
Q 76.252809 468.794659 75.945309 468.125284 
Q 75.637809 467.454034 74.910309 467.454034 
Q 74.184684 467.454034 73.873434 468.125284 
Q 73.562184 468.794659 73.562184 470.435284 
Q 73.562184 472.094659 73.873434 472.775284 
Q 74.184684 473.454034 74.910309 473.454034 
Q 75.632184 473.454034 75.941559 472.775284 
Q 76.252809 472.094659 76.252809 470.435284 
z
M 78.508434 470.454034 
Q 78.508434 472.627159 77.570934 473.808409 
Q 76.633434 474.989659 74.910309 474.989659 
Q 73.181559 474.989659 72.244059 473.808409 
Q 71.306559 472.627159 71.306559 470.454034 
Q 71.306559 468.273409 72.244059 467.094034 
Q 73.181559 465.912784 74.910309 465.912784 
Q 76.633434 465.912784 77.570934 467.094034 
Q 78.508434 468.273409 78.508434 470.454034 
z
M 83.259919 470.904034 
Q 82.628044 470.904034 82.286794 471.250909 
Q 81.947419 471.595909 81.947419 472.240909 
Q 81.947419 472.885909 82.286794 473.229034 
Q 82.628044 473.570284 83.259919 473.570284 
Q 83.888044 473.570284 84.221794 473.229034 
Q 84.555544 472.885909 84.555544 472.240909 
Q 84.555544 471.590284 84.221794 471.247159 
Q 83.888044 470.904034 83.259919 470.904034 
z
M 81.613669 470.161534 
Q 80.816794 469.919659 80.411794 469.422784 
Q 80.008669 468.924034 80.008669 468.179659 
Q 80.008669 467.073409 80.833669 466.494034 
Q 81.660544 465.912784 83.259919 465.912784 
Q 84.848044 465.912784 85.673044 466.490284 
Q 86.499919 467.067784 86.499919 468.179659 
Q 86.499919 468.924034 86.093044 469.422784 
Q 85.686169 469.919659 84.889294 470.161534 
Q 85.779919 470.407159 86.233669 470.960284 
Q 86.687419 471.513409 86.687419 472.357159 
Q 86.687419 473.658409 85.823044 474.324034 
Q 84.958669 474.989659 83.259919 474.989659 
Q 81.555544 474.989659 80.685544 474.324034 
Q 79.815544 473.658409 79.815544 472.357159 
Q 79.815544 471.513409 80.269294 470.960284 
Q 80.723044 470.407159 81.613669 470.161534 
z
M 82.140544 468.408409 
Q 82.140544 468.929659 82.431169 469.210909 
Q 82.721794 469.492159 83.259919 469.492159 
Q 83.786794 469.492159 84.073669 469.210909 
Q 84.362419 468.929659 84.362419 468.408409 
Q 84.362419 467.887159 84.073669 467.609659 
Q 83.786794 467.330284 83.259919 467.330284 
Q 82.721794 467.330284 82.431169 467.611534 
Q 82.140544 467.892784 82.140544 468.408409 
z
" style="stroke: #ffffff"/>
    <path d="M 59.230856 473.260909 
L 61.223981 473.260909 
L 61.223981 467.605909 
L 59.178356 468.027784 
L 59.178356 466.492159 
L 61.210856 466.070284 
L 63.355856 466.070284 
L 63.355856 473.260909 
L 65.348981 473.260909 
L 65.348981 474.819034 
L 59.230856 474.819034 
L 59.230856 473.260909 
z
M 67.39859 472.552159 
L 69.507965 472.552159 
L 69.507965 474.819034 
L 67.39859 474.819034 
L 67.39859 472.552159 
z
M 76.252809 470.435284 
Q 76.252809 468.794659 75.945309 468.125284 
Q 75.637809 467.454034 74.910309 467.454034 
Q 74.184684 467.454034 73.873434 468.125284 
Q 73.562184 468.794659 73.562184 470.435284 
Q 73.562184 472.094659 73.873434 472.775284 
Q 74.184684 473.454034 74.910309 473.454034 
Q 75.632184 473.454034 75.941559 472.775284 
Q 76.252809 472.094659 76.252809 470.435284 
z
M 78.508434 470.454034 
Q 78.508434 472.627159 77.570934 473.808409 
Q 76.633434 474.989659 74.910309 474.989659 
Q 73.181559 474.989659 72.244059 473.808409 
Q 71.306559 472.627159 71.306559 470.454034 
Q 71.306559 468.273409 72.244059 467.094034 
Q 73.181559 465.912784 74.910309 465.912784 
Q 76.633434 465.912784 77.570934 467.094034 
Q 78.508434 468.273409 78.508434 470.454034 
z
M 83.259919 470.904034 
Q 82.628044 470.904034 82.286794 471.250909 
Q 81.947419 471.595909 81.947419 472.240909 
Q 81.947419 472.885909 82.286794 473.229034 
Q 82.628044 473.570284 83.259919 473.570284 
Q 83.888044 473.570284 84.221794 473.229034 
Q 84.555544 472.885909 84.555544 472.240909 
Q 84.555544 471.590284 84.221794 471.247159 
Q 83.888044 470.904034 83.259919 470.904034 
z
M 81.613669 470.161534 
Q 80.816794 469.919659 80.411794 469.422784 
Q 80.008669 468.924034 80.008669 468.179659 
Q 80.008669 467.073409 80.833669 466.494034 
Q 81.660544 465.912784 83.259919 465.912784 
Q 84.848044 465.912784 85.673044 466.490284 
Q 86.499919 467.067784 86.499919 468.179659 
Q 86.499919 468.924034 86.093044 469.422784 
Q 85.686169 469.919659 84.889294 470.161534 
Q 85.779919 470.407159 86.233669 470.960284 
Q 86.687419 471.513409 86.687419 472.357159 
Q 86.687419 473.658409 85.823044 474.324034 
Q 84.958669 474.989659 83.259919 474.989659 
Q 81.555544 474.989659 80.685544 474.324034 
Q 79.815544 473.658409 79.815544 472.357159 
Q 79.815544 471.513409 80.269294 470.960284 
Q 80.723044 470.407159 81.613669 470.161534 
z
M 82.140544 468.408409 
Q 82.140544 468.929659 82.431169 469.210909 
Q 82.721794 469.492159 83.259919 469.492159 
Q 83.786794 469.492159 84.073669 469.210909 
Q 84.362419 468.929659 84.362419 468.408409 
Q 84.362419 467.887159 84.073669 467.609659 
Q 83.786794 467.330284 83.259919 467.330284 
Q 82.721794 467.330284 82.431169 467.611534 
Q 82.140544 467.892784 82.140544 468.408409 
z
"/>
   </g>
   <g id="text_4">
    <path d="M 63.413981 445.392443 
Q 64.298981 445.621193 64.758356 446.187443 
Q 65.219606 446.751818 65.219606 447.625568 
Q 65.219606 448.926818 64.222106 449.603693 
Q 63.226481 450.280568 61.317731 450.280568 
Q 60.642731 450.280568 59.965856 450.171818 
Q 59.288981 450.063068 58.627106 449.845568 
L 58.627106 448.105568 
Q 59.260856 448.422443 59.883356 448.583693 
Q 60.507731 448.744943 61.111481 448.744943 
Q 62.007731 448.744943 62.485856 448.435568 
Q 62.963981 448.124318 62.963981 447.543068 
Q 62.963981 446.944943 62.474606 446.637443 
Q 61.985231 446.329943 61.028981 446.329943 
L 60.127106 446.329943 
L 60.127106 444.876818 
L 61.075856 444.876818 
Q 61.927106 444.876818 62.341481 444.610568 
Q 62.757731 444.344318 62.757731 443.798693 
Q 62.757731 443.296193 62.352731 443.020568 
Q 61.949606 442.744943 61.210856 442.744943 
Q 60.667106 442.744943 60.110231 442.868693 
Q 59.553356 442.990568 59.002106 443.230568 
L 59.002106 441.578693 
Q 59.669606 441.391193 60.325856 441.297443 
Q 60.982106 441.203693 61.615856 441.203693 
Q 63.320231 441.203693 64.165856 441.764318 
Q 65.013356 442.323068 65.013356 443.448068 
Q 65.013356 444.214943 64.608356 444.704318 
Q 64.205231 445.193693 63.413981 445.392443 
z
M 67.39859 447.843068 
L 69.507965 447.843068 
L 69.507965 450.109943 
L 67.39859 450.109943 
L 67.39859 447.843068 
z
M 76.252809 445.726193 
Q 76.252809 444.085568 75.945309 443.416193 
Q 75.637809 442.744943 74.910309 442.744943 
Q 74.184684 442.744943 73.873434 443.416193 
Q 73.562184 444.085568 73.562184 445.726193 
Q 73.562184 447.385568 73.873434 448.066193 
Q 74.184684 448.744943 74.910309 448.744943 
Q 75.632184 448.744943 75.941559 448.066193 
Q 76.252809 447.385568 76.252809 445.726193 
z
M 78.508434 445.744943 
Q 78.508434 447.918068 77.570934 449.099318 
Q 76.633434 450.280568 74.910309 450.280568 
Q 73.181559 450.280568 72.244059 449.099318 
Q 71.306559 447.918068 71.306559 445.744943 
Q 71.306559 443.564318 72.244059 442.384943 
Q 73.181559 441.203693 74.910309 441.203693 
Q 76.633434 441.203693 77.570934 442.384943 
Q 78.508434 443.564318 78.508434 445.744943 
z
M 79.884919 441.361193 
L 86.477419 441.361193 
L 86.477419 442.632443 
L 83.066794 450.109943 
L 80.869294 450.109943 
L 84.098044 443.020568 
L 79.884919 443.020568 
L 79.884919 441.361193 
z
" style="stroke: #ffffff"/>
    <path d="M 63.413981 445.392443 
Q 64.298981 445.621193 64.758356 446.187443 
Q 65.219606 446.751818 65.219606 447.625568 
Q 65.219606 448.926818 64.222106 449.603693 
Q 63.226481 450.280568 61.317731 450.280568 
Q 60.642731 450.280568 59.965856 450.171818 
Q 59.288981 450.063068 58.627106 449.845568 
L 58.627106 448.105568 
Q 59.260856 448.422443 59.883356 448.583693 
Q 60.507731 448.744943 61.111481 448.744943 
Q 62.007731 448.744943 62.485856 448.435568 
Q 62.963981 448.124318 62.963981 447.543068 
Q 62.963981 446.944943 62.474606 446.637443 
Q 61.985231 446.329943 61.028981 446.329943 
L 60.127106 446.329943 
L 60.127106 444.876818 
L 61.075856 444.876818 
Q 61.927106 444.876818 62.341481 444.610568 
Q 62.757731 444.344318 62.757731 443.798693 
Q 62.757731 443.296193 62.352731 443.020568 
Q 61.949606 442.744943 61.210856 442.744943 
Q 60.667106 442.744943 60.110231 442.868693 
Q 59.553356 442.990568 59.002106 443.230568 
L 59.002106 441.578693 
Q 59.669606 441.391193 60.325856 441.297443 
Q 60.982106 441.203693 61.615856 441.203693 
Q 63.320231 441.203693 64.165856 441.764318 
Q 65.013356 442.323068 65.013356 443.448068 
Q 65.013356 444.214943 64.608356 444.704318 
Q 64.205231 445.193693 63.413981 445.392443 
z
M 67.39859 447.843068 
L 69.507965 447.843068 
L 69.507965 450.109943 
L 67.39859 450.109943 
L 67.39859 447.843068 
z
M 76.252809 445.726193 
Q 76.252809 444.085568 75.945309 443.416193 
Q 75.637809 442.744943 74.910309 442.744943 
Q 74.184684 442.744943 73.873434 443.416193 
Q 73.562184 444.085568 73.562184 445.726193 
Q 73.562184 447.385568 73.873434 448.066193 
Q 74.184684 448.744943 74.910309 448.744943 
Q 75.632184 448.744943 75.941559 448.066193 
Q 76.252809 447.385568 76.252809 445.726193 
z
M 78.508434 445.744943 
Q 78.508434 447.918068 77.570934 449.099318 
Q 76.633434 450.280568 74.910309 450.280568 
Q 73.181559 450.280568 72.244059 449.099318 
Q 71.306559 447.918068 71.306559 445.744943 
Q 71.306559 443.564318 72.244059 442.384943 
Q 73.181559 441.203693 74.910309 441.203693 
Q 76.633434 441.203693 77.570934 442.384943 
Q 78.508434 443.564318 78.508434 445.744943 
z
M 79.884919 441.361193 
L 86.477419 441.361193 
L 86.477419 442.632443 
L 83.066794 450.109943 
L 80.869294 450.109943 
L 84.098044 443.020568 
L 79.884919 443.020568 
L 79.884919 441.361193 
z
"/>
   </g>
   <g id="text_5">
    <path d="M 62.242106 418.510227 
L 59.770856 422.172102 
L 62.242106 422.172102 
L 62.242106 418.510227 
z
M 61.867106 416.652102 
L 64.375856 416.652102 
L 64.375856 422.172102 
L 65.622731 422.172102 
L 65.622731 423.807102 
L 64.375856 423.807102 
L 64.375856 425.400852 
L 62.242106 425.400852 
L 62.242106 423.807102 
L 58.364606 423.807102 
L 58.364606 421.873977 
L 61.867106 416.652102 
z
M 67.39859 423.133977 
L 69.507965 423.133977 
L 69.507965 425.400852 
L 67.39859 425.400852 
L 67.39859 423.133977 
z
M 76.322184 420.683352 
Q 77.207184 420.912102 77.666559 421.478352 
Q 78.127809 422.042727 78.127809 422.916477 
Q 78.127809 424.217727 77.130309 424.894602 
Q 76.134684 425.571477 74.225934 425.571477 
Q 73.550934 425.571477 72.874059 425.462727 
Q 72.197184 425.353977 71.535309 425.136477 
L 71.535309 423.396477 
Q 72.169059 423.713352 72.791559 423.874602 
Q 73.415934 424.035852 74.019684 424.035852 
Q 74.915934 424.035852 75.394059 423.726477 
Q 75.872184 423.415227 75.872184 422.833977 
Q 75.872184 422.235852 75.382809 421.928352 
Q 74.893434 421.620852 73.937184 421.620852 
L 73.035309 421.620852 
L 73.035309 420.167727 
L 73.984059 420.167727 
Q 74.835309 420.167727 75.249684 419.901477 
Q 75.665934 419.635227 75.665934 419.089602 
Q 75.665934 418.587102 75.260934 418.311477 
Q 74.857809 418.035852 74.119059 418.035852 
Q 73.575309 418.035852 73.018434 418.159602 
Q 72.461559 418.281477 71.910309 418.521477 
L 71.910309 416.869602 
Q 72.577809 416.682102 73.234059 416.588352 
Q 73.890309 416.494602 74.524059 416.494602 
Q 76.228434 416.494602 77.074059 417.055227 
Q 77.921559 417.613977 77.921559 418.738977 
Q 77.921559 419.505852 77.516559 419.995227 
Q 77.113434 420.484602 76.322184 420.683352 
z
M 80.488669 423.842727 
L 82.481794 423.842727 
L 82.481794 418.187727 
L 80.436169 418.609602 
L 80.436169 417.073977 
L 82.468669 416.652102 
L 84.613669 416.652102 
L 84.613669 423.842727 
L 86.606794 423.842727 
L 86.606794 425.400852 
L 80.488669 425.400852 
L 80.488669 423.842727 
z
" style="stroke: #ffffff"/>
    <path d="M 62.242106 418.510227 
L 59.770856 422.172102 
L 62.242106 422.172102 
L 62.242106 418.510227 
z
M 61.867106 416.652102 
L 64.375856 416.652102 
L 64.375856 422.172102 
L 65.622731 422.172102 
L 65.622731 423.807102 
L 64.375856 423.807102 
L 64.375856 425.400852 
L 62.242106 425.400852 
L 62.242106 423.807102 
L 58.364606 423.807102 
L 58.364606 421.873977 
L 61.867106 416.652102 
z
M 67.39859 423.133977 
L 69.507965 423.133977 
L 69.507965 425.400852 
L 67.39859 425.400852 
L 67.39859 423.133977 
z
M 76.322184 420.683352 
Q 77.207184 420.912102 77.666559 421.478352 
Q 78.127809 422.042727 78.127809 422.916477 
Q 78.127809 424.217727 77.130309 424.894602 
Q 76.134684 425.571477 74.225934 425.571477 
Q 73.550934 425.571477 72.874059 425.462727 
Q 72.197184 425.353977 71.535309 425.136477 
L 71.535309 423.396477 
Q 72.169059 423.713352 72.791559 423.874602 
Q 73.415934 424.035852 74.019684 424.035852 
Q 74.915934 424.035852 75.394059 423.726477 
Q 75.872184 423.415227 75.872184 422.833977 
Q 75.872184 422.235852 75.382809 421.928352 
Q 74.893434 421.620852 73.937184 421.620852 
L 73.035309 421.620852 
L 73.035309 420.167727 
L 73.984059 420.167727 
Q 74.835309 420.167727 75.249684 419.901477 
Q 75.665934 419.635227 75.665934 419.089602 
Q 75.665934 418.587102 75.260934 418.311477 
Q 74.857809 418.035852 74.119059 418.035852 
Q 73.575309 418.035852 73.018434 418.159602 
Q 72.461559 418.281477 71.910309 418.521477 
L 71.910309 416.869602 
Q 72.577809 416.682102 73.234059 416.588352 
Q 73.890309 416.494602 74.524059 416.494602 
Q 76.228434 416.494602 77.074059 417.055227 
Q 77.921559 417.613977 77.921559 418.738977 
Q 77.921559 419.505852 77.516559 419.995227 
Q 77.113434 420.484602 76.322184 420.683352 
z
M 80.488669 423.842727 
L 82.481794 423.842727 
L 82.481794 418.187727 
L 80.436169 418.609602 
L 80.436169 417.073977 
L 82.468669 416.652102 
L 84.613669 416.652102 
L 84.613669 423.842727 
L 86.606794 423.842727 
L 86.606794 425.400852 
L 80.488669 425.400852 
L 80.488669 423.842727 
z
"/>
   </g>
   <g id="text_6">
    <path d="M 62.167106 396.373636 
Q 61.574606 396.373636 61.278356 396.758011 
Q 60.982106 397.140511 60.982106 397.909261 
Q 60.982106 398.676136 61.278356 399.060511 
Q 61.574606 399.443011 62.167106 399.443011 
Q 62.763356 399.443011 63.059606 399.060511 
Q 63.355856 398.676136 63.355856 397.909261 
Q 63.355856 397.140511 63.059606 396.758011 
Q 62.763356 396.373636 62.167106 396.373636 
z
M 64.955231 392.171761 
L 64.955231 393.789886 
Q 64.398356 393.525511 63.905231 393.399886 
Q 63.413981 393.274261 62.945231 393.274261 
Q 61.938356 393.274261 61.375856 393.834886 
Q 60.813356 394.393636 60.719606 395.494261 
Q 61.105856 395.207386 61.555856 395.064886 
Q 62.007731 394.920511 62.542106 394.920511 
Q 63.882731 394.920511 64.705856 395.706136 
Q 65.528981 396.489886 65.528981 397.761136 
Q 65.528981 399.167386 64.608356 400.014886 
Q 63.689606 400.862386 62.142731 400.862386 
Q 60.438356 400.862386 59.502731 399.711136 
Q 58.568981 398.558011 58.568981 396.443011 
Q 58.568981 394.275511 59.662106 393.036136 
Q 60.755231 391.796761 62.658356 391.796761 
Q 63.262106 391.796761 63.830231 391.890511 
Q 64.398356 391.984261 64.955231 392.171761 
z
M 67.39859 398.424886 
L 69.507965 398.424886 
L 69.507965 400.691761 
L 67.39859 400.691761 
L 67.39859 398.424886 
z
M 75.150309 393.801136 
L 72.679059 397.463011 
L 75.150309 397.463011 
L 75.150309 393.801136 
z
M 74.775309 391.943011 
L 77.284059 391.943011 
L 77.284059 397.463011 
L 78.530934 397.463011 
L 78.530934 399.098011 
L 77.284059 399.098011 
L 77.284059 400.691761 
L 75.150309 400.691761 
L 75.150309 399.098011 
L 71.272809 399.098011 
L 71.272809 397.164886 
L 74.775309 391.943011 
z
M 83.259919 396.776761 
Q 82.628044 396.776761 82.286794 397.123636 
Q 81.947419 397.468636 81.947419 398.113636 
Q 81.947419 398.758636 82.286794 399.101761 
Q 82.628044 399.443011 83.259919 399.443011 
Q 83.888044 399.443011 84.221794 399.101761 
Q 84.555544 398.758636 84.555544 398.113636 
Q 84.555544 397.463011 84.221794 397.119886 
Q 83.888044 396.776761 83.259919 396.776761 
z
M 81.613669 396.034261 
Q 80.816794 395.792386 80.411794 395.295511 
Q 80.008669 394.796761 80.008669 394.052386 
Q 80.008669 392.946136 80.833669 392.366761 
Q 81.660544 391.785511 83.259919 391.785511 
Q 84.848044 391.785511 85.673044 392.363011 
Q 86.499919 392.940511 86.499919 394.052386 
Q 86.499919 394.796761 86.093044 395.295511 
Q 85.686169 395.792386 84.889294 396.034261 
Q 85.779919 396.279886 86.233669 396.833011 
Q 86.687419 397.386136 86.687419 398.229886 
Q 86.687419 399.531136 85.823044 400.196761 
Q 84.958669 400.862386 83.259919 400.862386 
Q 81.555544 400.862386 80.685544 400.196761 
Q 79.815544 399.531136 79.815544 398.229886 
Q 79.815544 397.386136 80.269294 396.833011 
Q 80.723044 396.279886 81.613669 396.034261 
z
M 82.140544 394.281136 
Q 82.140544 394.802386 82.431169 395.083636 
Q 82.721794 395.364886 83.259919 395.364886 
Q 83.786794 395.364886 84.073669 395.083636 
Q 84.362419 394.802386 84.362419 394.281136 
Q 84.362419 393.759886 84.073669 393.482386 
Q 83.786794 393.203011 83.259919 393.203011 
Q 82.721794 393.203011 82.431169 393.484261 
Q 82.140544 393.765511 82.140544 394.281136 
z
" style="stroke: #ffffff"/>
    <path d="M 62.167106 396.373636 
Q 61.574606 396.373636 61.278356 396.758011 
Q 60.982106 397.140511 60.982106 397.909261 
Q 60.982106 398.676136 61.278356 399.060511 
Q 61.574606 399.443011 62.167106 399.443011 
Q 62.763356 399.443011 63.059606 399.060511 
Q 63.355856 398.676136 63.355856 397.909261 
Q 63.355856 397.140511 63.059606 396.758011 
Q 62.763356 396.373636 62.167106 396.373636 
z
M 64.955231 392.171761 
L 64.955231 393.789886 
Q 64.398356 393.525511 63.905231 393.399886 
Q 63.413981 393.274261 62.945231 393.274261 
Q 61.938356 393.274261 61.375856 393.834886 
Q 60.813356 394.393636 60.719606 395.494261 
Q 61.105856 395.207386 61.555856 395.064886 
Q 62.007731 394.920511 62.542106 394.920511 
Q 63.882731 394.920511 64.705856 395.706136 
Q 65.528981 396.489886 65.528981 397.761136 
Q 65.528981 399.167386 64.608356 400.014886 
Q 63.689606 400.862386 62.142731 400.862386 
Q 60.438356 400.862386 59.502731 399.711136 
Q 58.568981 398.558011 58.568981 396.443011 
Q 58.568981 394.275511 59.662106 393.036136 
Q 60.755231 391.796761 62.658356 391.796761 
Q 63.262106 391.796761 63.830231 391.890511 
Q 64.398356 391.984261 64.955231 392.171761 
z
M 67.39859 398.424886 
L 69.507965 398.424886 
L 69.507965 400.691761 
L 67.39859 400.691761 
L 67.39859 398.424886 
z
M 75.150309 393.801136 
L 72.679059 397.463011 
L 75.150309 397.463011 
L 75.150309 393.801136 
z
M 74.775309 391.943011 
L 77.284059 391.943011 
L 77.284059 397.463011 
L 78.530934 397.463011 
L 78.530934 399.098011 
L 77.284059 399.098011 
L 77.284059 400.691761 
L 75.150309 400.691761 
L 75.150309 399.098011 
L 71.272809 399.098011 
L 71.272809 397.164886 
L 74.775309 391.943011 
z
M 83.259919 396.776761 
Q 82.628044 396.776761 82.286794 397.123636 
Q 81.947419 397.468636 81.947419 398.113636 
Q 81.947419 398.758636 82.286794 399.101761 
Q 82.628044 399.443011 83.259919 399.443011 
Q 83.888044 399.443011 84.221794 399.101761 
Q 84.555544 398.758636 84.555544 398.113636 
Q 84.555544 397.463011 84.221794 397.119886 
Q 83.888044 396.776761 83.259919 396.776761 
z
M 81.613669 396.034261 
Q 80.816794 395.792386 80.411794 395.295511 
Q 80.008669 394.796761 80.008669 394.052386 
Q 80.008669 392.946136 80.833669 392.366761 
Q 81.660544 391.785511 83.259919 391.785511 
Q 84.848044 391.785511 85.673044 392.363011 
Q 86.499919 392.940511 86.499919 394.052386 
Q 86.499919 394.796761 86.093044 395.295511 
Q 85.686169 395.792386 84.889294 396.034261 
Q 85.779919 396.279886 86.233669 396.833011 
Q 86.687419 397.386136 86.687419 398.229886 
Q 86.687419 399.531136 85.823044 400.196761 
Q 84.958669 400.862386 83.259919 400.862386 
Q 81.555544 400.862386 80.685544 400.196761 
Q 79.815544 399.531136 79.815544 398.229886 
Q 79.815544 397.386136 80.269294 396.833011 
Q 80.723044 396.279886 81.613669 396.034261 
z
M 82.140544 394.281136 
Q 82.140544 394.802386 82.431169 395.083636 
Q 82.721794 395.364886 83.259919 395.364886 
Q 83.786794 395.364886 84.073669 395.083636 
Q 84.362419 394.802386 84.362419 394.281136 
Q 84.362419 393.759886 84.073669 393.482386 
Q 83.786794 393.203011 83.259919 393.203011 
Q 82.721794 393.203011 82.431169 393.484261 
Q 82.140544 393.765511 82.140544 394.281136 
z
"/>
   </g>
   <g id="text_7">
    <path d="M 58.627106 367.23392 
L 65.219606 367.23392 
L 65.219606 368.50517 
L 61.808981 375.98267 
L 59.611481 375.98267 
L 62.840231 368.893295 
L 58.627106 368.893295 
L 58.627106 367.23392 
z
M 67.39859 373.715795 
L 69.507965 373.715795 
L 69.507965 375.98267 
L 67.39859 375.98267 
L 67.39859 373.715795 
z
M 71.535309 367.23392 
L 78.127809 367.23392 
L 78.127809 368.50517 
L 74.717184 375.98267 
L 72.519684 375.98267 
L 75.748434 368.893295 
L 71.535309 368.893295 
L 71.535309 367.23392 
z
M 82.539919 374.32517 
L 86.389294 374.32517 
L 86.389294 375.98267 
L 80.031169 375.98267 
L 80.031169 374.32517 
L 83.224294 371.50517 
Q 83.653669 371.11892 83.858044 370.749545 
Q 84.062419 370.38017 84.062419 369.98267 
Q 84.062419 369.36767 83.649919 368.99267 
Q 83.237419 368.61767 82.551169 368.61767 
Q 82.024294 368.61767 81.396169 368.84267 
Q 80.769919 369.06767 80.055544 369.51392 
L 80.055544 367.592045 
Q 80.816794 367.340795 81.561169 367.209545 
Q 82.305544 367.07642 83.019919 367.07642 
Q 84.591169 367.07642 85.461169 367.768295 
Q 86.331169 368.458295 86.331169 369.695795 
Q 86.331169 370.41017 85.961794 371.02892 
Q 85.592419 371.645795 84.409294 372.684545 
L 82.539919 374.32517 
z
" style="stroke: #ffffff"/>
    <path d="M 58.627106 367.23392 
L 65.219606 367.23392 
L 65.219606 368.50517 
L 61.808981 375.98267 
L 59.611481 375.98267 
L 62.840231 368.893295 
L 58.627106 368.893295 
L 58.627106 367.23392 
z
M 67.39859 373.715795 
L 69.507965 373.715795 
L 69.507965 375.98267 
L 67.39859 375.98267 
L 67.39859 373.715795 
z
M 71.535309 367.23392 
L 78.127809 367.23392 
L 78.127809 368.50517 
L 74.717184 375.98267 
L 72.519684 375.98267 
L 75.748434 368.893295 
L 71.535309 368.893295 
L 71.535309 367.23392 
z
M 82.539919 374.32517 
L 86.389294 374.32517 
L 86.389294 375.98267 
L 80.031169 375.98267 
L 80.031169 374.32517 
L 83.224294 371.50517 
Q 83.653669 371.11892 83.858044 370.749545 
Q 84.062419 370.38017 84.062419 369.98267 
Q 84.062419 369.36767 83.649919 368.99267 
Q 83.237419 368.61767 82.551169 368.61767 
Q 82.024294 368.61767 81.396169 368.84267 
Q 80.769919 369.06767 80.055544 369.51392 
L 80.055544 367.592045 
Q 80.816794 367.340795 81.561169 367.209545 
Q 82.305544 367.07642 83.019919 367.07642 
Q 84.591169 367.07642 85.461169 367.768295 
Q 86.331169 368.458295 86.331169 369.695795 
Q 86.331169 370.41017 85.961794 371.02892 
Q 85.592419 371.645795 84.409294 372.684545 
L 82.539919 374.32517 
z
"/>
   </g>
   <g id="text_8">
    <path d="M 55.056169 349.715455 
L 57.049294 349.715455 
L 57.049294 344.060455 
L 55.003669 344.48233 
L 55.003669 342.946705 
L 57.036169 342.52483 
L 59.181169 342.52483 
L 59.181169 349.715455 
L 61.174294 349.715455 
L 61.174294 351.27358 
L 55.056169 351.27358 
L 55.056169 349.715455 
z
M 63.405778 349.715455 
L 65.398903 349.715455 
L 65.398903 344.060455 
L 63.353278 344.48233 
L 63.353278 342.946705 
L 65.385778 342.52483 
L 67.530778 342.52483 
L 67.530778 349.715455 
L 69.523903 349.715455 
L 69.523903 351.27358 
L 63.405778 351.27358 
L 63.405778 349.715455 
z
M 71.573512 349.006705 
L 73.682887 349.006705 
L 73.682887 351.27358 
L 71.573512 351.27358 
L 71.573512 349.006705 
z
M 80.427731 346.88983 
Q 80.427731 345.249205 80.120231 344.57983 
Q 79.812731 343.90858 79.085231 343.90858 
Q 78.359606 343.90858 78.048356 344.57983 
Q 77.737106 345.249205 77.737106 346.88983 
Q 77.737106 348.549205 78.048356 349.22983 
Q 78.359606 349.90858 79.085231 349.90858 
Q 79.807106 349.90858 80.116481 349.22983 
Q 80.427731 348.549205 80.427731 346.88983 
z
M 82.683356 346.90858 
Q 82.683356 349.081705 81.745856 350.262955 
Q 80.808356 351.444205 79.085231 351.444205 
Q 77.356481 351.444205 76.418981 350.262955 
Q 75.481481 349.081705 75.481481 346.90858 
Q 75.481481 344.727955 76.418981 343.54858 
Q 77.356481 342.36733 79.085231 342.36733 
Q 80.808356 342.36733 81.745856 343.54858 
Q 82.683356 344.727955 82.683356 346.90858 
z
M 87.67484 344.382955 
L 85.20359 348.04483 
L 87.67484 348.04483 
L 87.67484 344.382955 
z
M 87.29984 342.52483 
L 89.80859 342.52483 
L 89.80859 348.04483 
L 91.055465 348.04483 
L 91.055465 349.67983 
L 89.80859 349.67983 
L 89.80859 351.27358 
L 87.67484 351.27358 
L 87.67484 349.67983 
L 83.79734 349.67983 
L 83.79734 347.746705 
L 87.29984 342.52483 
z
" style="stroke: #ffffff"/>
    <path d="M 55.056169 349.715455 
L 57.049294 349.715455 
L 57.049294 344.060455 
L 55.003669 344.48233 
L 55.003669 342.946705 
L 57.036169 342.52483 
L 59.181169 342.52483 
L 59.181169 349.715455 
L 61.174294 349.715455 
L 61.174294 351.27358 
L 55.056169 351.27358 
L 55.056169 349.715455 
z
M 63.405778 349.715455 
L 65.398903 349.715455 
L 65.398903 344.060455 
L 63.353278 344.48233 
L 63.353278 342.946705 
L 65.385778 342.52483 
L 67.530778 342.52483 
L 67.530778 349.715455 
L 69.523903 349.715455 
L 69.523903 351.27358 
L 63.405778 351.27358 
L 63.405778 349.715455 
z
M 71.573512 349.006705 
L 73.682887 349.006705 
L 73.682887 351.27358 
L 71.573512 351.27358 
L 71.573512 349.006705 
z
M 80.427731 346.88983 
Q 80.427731 345.249205 80.120231 344.57983 
Q 79.812731 343.90858 79.085231 343.90858 
Q 78.359606 343.90858 78.048356 344.57983 
Q 77.737106 345.249205 77.737106 346.88983 
Q 77.737106 348.549205 78.048356 349.22983 
Q 78.359606 349.90858 79.085231 349.90858 
Q 79.807106 349.90858 80.116481 349.22983 
Q 80.427731 348.549205 80.427731 346.88983 
z
M 82.683356 346.90858 
Q 82.683356 349.081705 81.745856 350.262955 
Q 80.808356 351.444205 79.085231 351.444205 
Q 77.356481 351.444205 76.418981 350.262955 
Q 75.481481 349.081705 75.481481 346.90858 
Q 75.481481 344.727955 76.418981 343.54858 
Q 77.356481 342.36733 79.085231 342.36733 
Q 80.808356 342.36733 81.745856 343.54858 
Q 82.683356 344.727955 82.683356 346.90858 
z
M 87.67484 344.382955 
L 85.20359 348.04483 
L 87.67484 348.04483 
L 87.67484 344.382955 
z
M 87.29984 342.52483 
L 89.80859 342.52483 
L 89.80859 348.04483 
L 91.055465 348.04483 
L 91.055465 349.67983 
L 89.80859 349.67983 
L 89.80859 351.27358 
L 87.67484 351.27358 
L 87.67484 349.67983 
L 83.79734 349.67983 
L 83.79734 347.746705 
L 87.29984 342.52483 
z
"/>
   </g>
   <g id="text_9">
    <path d="M 55.056169 325.006364 
L 57.049294 325.006364 
L 57.049294 319.351364 
L 55.003669 319.773239 
L 55.003669 318.237614 
L 57.036169 317.815739 
L 59.181169 317.815739 
L 59.181169 325.006364 
L 61.174294 325.006364 
L 61.174294 326.564489 
L 55.056169 326.564489 
L 55.056169 325.006364 
z
M 66.417028 319.673864 
L 63.945778 323.335739 
L 66.417028 323.335739 
L 66.417028 319.673864 
z
M 66.042028 317.815739 
L 68.550778 317.815739 
L 68.550778 323.335739 
L 69.797653 323.335739 
L 69.797653 324.970739 
L 68.550778 324.970739 
L 68.550778 326.564489 
L 66.417028 326.564489 
L 66.417028 324.970739 
L 62.539528 324.970739 
L 62.539528 323.037614 
L 66.042028 317.815739 
z
M 71.573512 324.297614 
L 73.682887 324.297614 
L 73.682887 326.564489 
L 71.573512 326.564489 
L 71.573512 324.297614 
z
M 79.085231 322.649489 
Q 78.453356 322.649489 78.112106 322.996364 
Q 77.772731 323.341364 77.772731 323.986364 
Q 77.772731 324.631364 78.112106 324.974489 
Q 78.453356 325.315739 79.085231 325.315739 
Q 79.713356 325.315739 80.047106 324.974489 
Q 80.380856 324.631364 80.380856 323.986364 
Q 80.380856 323.335739 80.047106 322.992614 
Q 79.713356 322.649489 79.085231 322.649489 
z
M 77.438981 321.906989 
Q 76.642106 321.665114 76.237106 321.168239 
Q 75.833981 320.669489 75.833981 319.925114 
Q 75.833981 318.818864 76.658981 318.239489 
Q 77.485856 317.658239 79.085231 317.658239 
Q 80.673356 317.658239 81.498356 318.235739 
Q 82.325231 318.813239 82.325231 319.925114 
Q 82.325231 320.669489 81.918356 321.168239 
Q 81.511481 321.665114 80.714606 321.906989 
Q 81.605231 322.152614 82.058981 322.705739 
Q 82.512731 323.258864 82.512731 324.102614 
Q 82.512731 325.403864 81.648356 326.069489 
Q 80.783981 326.735114 79.085231 326.735114 
Q 77.380856 326.735114 76.510856 326.069489 
Q 75.640856 325.403864 75.640856 324.102614 
Q 75.640856 323.258864 76.094606 322.705739 
Q 76.548356 322.152614 77.438981 321.906989 
z
M 77.965856 320.153864 
Q 77.965856 320.675114 78.256481 320.956364 
Q 78.547106 321.237614 79.085231 321.237614 
Q 79.612106 321.237614 79.898981 320.956364 
Q 80.187731 320.675114 80.187731 320.153864 
Q 80.187731 319.632614 79.898981 319.355114 
Q 79.612106 319.075739 79.085231 319.075739 
Q 78.547106 319.075739 78.256481 319.356989 
Q 77.965856 319.638239 77.965856 320.153864 
z
M 84.459215 326.371364 
L 84.459215 324.753239 
Q 84.99734 325.006364 85.48859 325.131989 
Q 85.981715 325.257614 86.461715 325.257614 
Q 87.470465 325.257614 88.032965 324.698864 
Q 88.595465 324.138239 88.69484 323.037614 
Q 88.29734 323.330114 87.845465 323.476364 
Q 87.39359 323.622614 86.866715 323.622614 
Q 85.524215 323.622614 84.70109 322.840739 
Q 83.877965 322.058864 83.877965 320.781989 
Q 83.877965 319.368239 84.79484 318.518864 
Q 85.711715 317.669489 87.252965 317.669489 
Q 88.96484 317.669489 89.90234 318.824489 
Q 90.83984 319.977614 90.83984 322.086989 
Q 90.83984 324.256364 89.742965 325.495739 
Q 88.647965 326.735114 86.73734 326.735114 
Q 86.12234 326.735114 85.55984 326.643239 
Q 84.99734 326.553239 84.459215 326.371364 
z
M 87.241715 322.158239 
Q 87.834215 322.158239 88.13234 321.775739 
Q 88.430465 321.391364 88.430465 320.622614 
Q 88.430465 319.861364 88.13234 319.475114 
Q 87.834215 319.086989 87.241715 319.086989 
Q 86.649215 319.086989 86.35109 319.475114 
Q 86.052965 319.861364 86.052965 320.622614 
Q 86.052965 321.391364 86.35109 321.775739 
Q 86.649215 322.158239 87.241715 322.158239 
z
" style="stroke: #ffffff"/>
    <path d="M 55.056169 325.006364 
L 57.049294 325.006364 
L 57.049294 319.351364 
L 55.003669 319.773239 
L 55.003669 318.237614 
L 57.036169 317.815739 
L 59.181169 317.815739 
L 59.181169 325.006364 
L 61.174294 325.006364 
L 61.174294 326.564489 
L 55.056169 326.564489 
L 55.056169 325.006364 
z
M 66.417028 319.673864 
L 63.945778 323.335739 
L 66.417028 323.335739 
L 66.417028 319.673864 
z
M 66.042028 317.815739 
L 68.550778 317.815739 
L 68.550778 323.335739 
L 69.797653 323.335739 
L 69.797653 324.970739 
L 68.550778 324.970739 
L 68.550778 326.564489 
L 66.417028 326.564489 
L 66.417028 324.970739 
L 62.539528 324.970739 
L 62.539528 323.037614 
L 66.042028 317.815739 
z
M 71.573512 324.297614 
L 73.682887 324.297614 
L 73.682887 326.564489 
L 71.573512 326.564489 
L 71.573512 324.297614 
z
M 79.085231 322.649489 
Q 78.453356 322.649489 78.112106 322.996364 
Q 77.772731 323.341364 77.772731 323.986364 
Q 77.772731 324.631364 78.112106 324.974489 
Q 78.453356 325.315739 79.085231 325.315739 
Q 79.713356 325.315739 80.047106 324.974489 
Q 80.380856 324.631364 80.380856 323.986364 
Q 80.380856 323.335739 80.047106 322.992614 
Q 79.713356 322.649489 79.085231 322.649489 
z
M 77.438981 321.906989 
Q 76.642106 321.665114 76.237106 321.168239 
Q 75.833981 320.669489 75.833981 319.925114 
Q 75.833981 318.818864 76.658981 318.239489 
Q 77.485856 317.658239 79.085231 317.658239 
Q 80.673356 317.658239 81.498356 318.235739 
Q 82.325231 318.813239 82.325231 319.925114 
Q 82.325231 320.669489 81.918356 321.168239 
Q 81.511481 321.665114 80.714606 321.906989 
Q 81.605231 322.152614 82.058981 322.705739 
Q 82.512731 323.258864 82.512731 324.102614 
Q 82.512731 325.403864 81.648356 326.069489 
Q 80.783981 326.735114 79.085231 326.735114 
Q 77.380856 326.735114 76.510856 326.069489 
Q 75.640856 325.403864 75.640856 324.102614 
Q 75.640856 323.258864 76.094606 322.705739 
Q 76.548356 322.152614 77.438981 321.906989 
z
M 77.965856 320.153864 
Q 77.965856 320.675114 78.256481 320.956364 
Q 78.547106 321.237614 79.085231 321.237614 
Q 79.612106 321.237614 79.898981 320.956364 
Q 80.187731 320.675114 80.187731 320.153864 
Q 80.187731 319.632614 79.898981 319.355114 
Q 79.612106 319.075739 79.085231 319.075739 
Q 78.547106 319.075739 78.256481 319.356989 
Q 77.965856 319.638239 77.965856 320.153864 
z
M 84.459215 326.371364 
L 84.459215 324.753239 
Q 84.99734 325.006364 85.48859 325.131989 
Q 85.981715 325.257614 86.461715 325.257614 
Q 87.470465 325.257614 88.032965 324.698864 
Q 88.595465 324.138239 88.69484 323.037614 
Q 88.29734 323.330114 87.845465 323.476364 
Q 87.39359 323.622614 86.866715 323.622614 
Q 85.524215 323.622614 84.70109 322.840739 
Q 83.877965 322.058864 83.877965 320.781989 
Q 83.877965 319.368239 84.79484 318.518864 
Q 85.711715 317.669489 87.252965 317.669489 
Q 88.96484 317.669489 89.90234 318.824489 
Q 90.83984 319.977614 90.83984 322.086989 
Q 90.83984 324.256364 89.742965 325.495739 
Q 88.647965 326.735114 86.73734 326.735114 
Q 86.12234 326.735114 85.55984 326.643239 
Q 84.99734 326.553239 84.459215 326.371364 
z
M 87.241715 322.158239 
Q 87.834215 322.158239 88.13234 321.775739 
Q 88.430465 321.391364 88.430465 320.622614 
Q 88.430465 319.861364 88.13234 319.475114 
Q 87.834215 319.086989 87.241715 319.086989 
Q 86.649215 319.086989 86.35109 319.475114 
Q 86.052965 319.861364 86.052965 320.622614 
Q 86.052965 321.391364 86.35109 321.775739 
Q 86.649215 322.158239 87.241715 322.158239 
z
"/>
   </g>
   <g id="text_10">
    <path d="M 57.107419 300.197898 
L 60.956794 300.197898 
L 60.956794 301.855398 
L 54.598669 301.855398 
L 54.598669 300.197898 
L 57.791794 297.377898 
Q 58.221169 296.991648 58.425544 296.622273 
Q 58.629919 296.252898 58.629919 295.855398 
Q 58.629919 295.240398 58.217419 294.865398 
Q 57.804919 294.490398 57.118669 294.490398 
Q 56.591794 294.490398 55.963669 294.715398 
Q 55.337419 294.940398 54.623044 295.386648 
L 54.623044 293.464773 
Q 55.384294 293.213523 56.128669 293.082273 
Q 56.873044 292.949148 57.587419 292.949148 
Q 59.158669 292.949148 60.028669 293.641023 
Q 60.898669 294.331023 60.898669 295.568523 
Q 60.898669 296.282898 60.529294 296.901648 
Q 60.159919 297.518523 58.976794 298.557273 
L 57.107419 300.197898 
z
M 67.519528 297.471648 
Q 67.519528 295.831023 67.212028 295.161648 
Q 66.904528 294.490398 66.177028 294.490398 
Q 65.451403 294.490398 65.140153 295.161648 
Q 64.828903 295.831023 64.828903 297.471648 
Q 64.828903 299.131023 65.140153 299.811648 
Q 65.451403 300.490398 66.177028 300.490398 
Q 66.898903 300.490398 67.208278 299.811648 
Q 67.519528 299.131023 67.519528 297.471648 
z
M 69.775153 297.490398 
Q 69.775153 299.663523 68.837653 300.844773 
Q 67.900153 302.026023 66.177028 302.026023 
Q 64.448278 302.026023 63.510778 300.844773 
Q 62.573278 299.663523 62.573278 297.490398 
Q 62.573278 295.309773 63.510778 294.130398 
Q 64.448278 292.949148 66.177028 292.949148 
Q 67.900153 292.949148 68.837653 294.130398 
Q 69.775153 295.309773 69.775153 297.490398 
z
M 71.573512 299.588523 
L 73.682887 299.588523 
L 73.682887 301.855398 
L 71.573512 301.855398 
L 71.573512 299.588523 
z
M 76.313981 300.297273 
L 78.307106 300.297273 
L 78.307106 294.642273 
L 76.261481 295.064148 
L 76.261481 293.528523 
L 78.293981 293.106648 
L 80.438981 293.106648 
L 80.438981 300.297273 
L 82.432106 300.297273 
L 82.432106 301.855398 
L 76.313981 301.855398 
L 76.313981 300.297273 
z
M 86.71484 300.197898 
L 90.564215 300.197898 
L 90.564215 301.855398 
L 84.20609 301.855398 
L 84.20609 300.197898 
L 87.399215 297.377898 
Q 87.82859 296.991648 88.032965 296.622273 
Q 88.23734 296.252898 88.23734 295.855398 
Q 88.23734 295.240398 87.82484 294.865398 
Q 87.41234 294.490398 86.72609 294.490398 
Q 86.199215 294.490398 85.57109 294.715398 
Q 84.94484 294.940398 84.230465 295.386648 
L 84.230465 293.464773 
Q 84.991715 293.213523 85.73609 293.082273 
Q 86.480465 292.949148 87.19484 292.949148 
Q 88.76609 292.949148 89.63609 293.641023 
Q 90.50609 294.331023 90.50609 295.568523 
Q 90.50609 296.282898 90.136715 296.901648 
Q 89.76734 297.518523 88.584215 298.557273 
L 86.71484 300.197898 
z
" style="stroke: #ffffff"/>
    <path d="M 57.107419 300.197898 
L 60.956794 300.197898 
L 60.956794 301.855398 
L 54.598669 301.855398 
L 54.598669 300.197898 
L 57.791794 297.377898 
Q 58.221169 296.991648 58.425544 296.622273 
Q 58.629919 296.252898 58.629919 295.855398 
Q 58.629919 295.240398 58.217419 294.865398 
Q 57.804919 294.490398 57.118669 294.490398 
Q 56.591794 294.490398 55.963669 294.715398 
Q 55.337419 294.940398 54.623044 295.386648 
L 54.623044 293.464773 
Q 55.384294 293.213523 56.128669 293.082273 
Q 56.873044 292.949148 57.587419 292.949148 
Q 59.158669 292.949148 60.028669 293.641023 
Q 60.898669 294.331023 60.898669 295.568523 
Q 60.898669 296.282898 60.529294 296.901648 
Q 60.159919 297.518523 58.976794 298.557273 
L 57.107419 300.197898 
z
M 67.519528 297.471648 
Q 67.519528 295.831023 67.212028 295.161648 
Q 66.904528 294.490398 66.177028 294.490398 
Q 65.451403 294.490398 65.140153 295.161648 
Q 64.828903 295.831023 64.828903 297.471648 
Q 64.828903 299.131023 65.140153 299.811648 
Q 65.451403 300.490398 66.177028 300.490398 
Q 66.898903 300.490398 67.208278 299.811648 
Q 67.519528 299.131023 67.519528 297.471648 
z
M 69.775153 297.490398 
Q 69.775153 299.663523 68.837653 300.844773 
Q 67.900153 302.026023 66.177028 302.026023 
Q 64.448278 302.026023 63.510778 300.844773 
Q 62.573278 299.663523 62.573278 297.490398 
Q 62.573278 295.309773 63.510778 294.130398 
Q 64.448278 292.949148 66.177028 292.949148 
Q 67.900153 292.949148 68.837653 294.130398 
Q 69.775153 295.309773 69.775153 297.490398 
z
M 71.573512 299.588523 
L 73.682887 299.588523 
L 73.682887 301.855398 
L 71.573512 301.855398 
L 71.573512 299.588523 
z
M 76.313981 300.297273 
L 78.307106 300.297273 
L 78.307106 294.642273 
L 76.261481 295.064148 
L 76.261481 293.528523 
L 78.293981 293.106648 
L 80.438981 293.106648 
L 80.438981 300.297273 
L 82.432106 300.297273 
L 82.432106 301.855398 
L 76.313981 301.855398 
L 76.313981 300.297273 
z
M 86.71484 300.197898 
L 90.564215 300.197898 
L 90.564215 301.855398 
L 84.20609 301.855398 
L 84.20609 300.197898 
L 87.399215 297.377898 
Q 87.82859 296.991648 88.032965 296.622273 
Q 88.23734 296.252898 88.23734 295.855398 
Q 88.23734 295.240398 87.82484 294.865398 
Q 87.41234 294.490398 86.72609 294.490398 
Q 86.199215 294.490398 85.57109 294.715398 
Q 84.94484 294.940398 84.230465 295.386648 
L 84.230465 293.464773 
Q 84.991715 293.213523 85.73609 293.082273 
Q 86.480465 292.949148 87.19484 292.949148 
Q 88.76609 292.949148 89.63609 293.641023 
Q 90.50609 294.331023 90.50609 295.568523 
Q 90.50609 296.282898 90.136715 296.901648 
Q 89.76734 297.518523 88.584215 298.557273 
L 86.71484 300.197898 
z
"/>
   </g>
  </g>
  <g id="axes_6">
   <g id="patch_15">
    <path d="M 104.982353 504 
L 129.6 504 
L 129.6 286.56 
L 104.982353 286.56 
L 104.982353 504 
z
" style="fill: none"/>
   </g>
  </g>
 </g>
 <defs>
  <clipPath id="p9f6fc1b119">
   <rect x="49.182353" y="286.56" width="49.235294" height="217.44"/>
  </clipPath>
 </defs>
</svg>
