<?xml version="1.0" encoding="utf-8" standalone="no"?>
<!DOCTYPE svg PUBLIC "-//W3C//DTD SVG 1.1//EN"
  "http://www.w3.org/Graphics/SVG/1.1/DTD/svg11.dtd">
<svg xmlns:xlink="http://www.w3.org/1999/xlink" width="144pt" height="576pt" viewBox="0 0 144 576" xmlns="http://www.w3.org/2000/svg" version="1.1">
 <metadata>
  <rdf:RDF xmlns:dc="http://purl.org/dc/elements/1.1/" xmlns:cc="http://creativecommons.org/ns#" xmlns:rdf="http://www.w3.org/1999/02/22-rdf-syntax-ns#">
   <cc:Work>
    <dc:type rdf:resource="http://purl.org/dc/dcmitype/StillImage"/>
    <dc:date>2022-03-31T20:49:34.616484</dc:date>
    <dc:format>image/svg+xml</dc:format>
    <dc:creator>
     <cc:Agent>
      <dc:title>Matplotlib v3.5.1, https://matplotlib.org/</dc:title>
     </cc:Agent>
    </dc:creator>
   </cc:Work>
  </rdf:RDF>
 </metadata>
 <defs>
  <style type="text/css">*{stroke-linejoin: round; stroke-linecap: butt}</style>
 </defs>
 <g id="figure_1">
  <g id="patch_1">
   <path d="M 0 576 
L 144 576 
L 144 0 
L 0 0 
L 0 576 
z
" style="fill: none"/>
  </g>
  <g id="axes_1">
   <g id="patch_2">
    <path d="M 18 286.56 
L 42.617647 286.56 
L 42.617647 69.12 
L 18 69.12 
L 18 286.56 
z
" style="fill: none"/>
   </g>
  </g>
  <g id="axes_2">
   <g id="patch_3">
    <path d="M 49.182353 286.56 
L 98.417647 286.56 
L 98.417647 69.12 
L 49.182353 69.12 
L 49.182353 286.56 
z
" style="fill: none"/>
   </g>
   <g id="text_1">
    <path d="M 13.412813 262.851375 
L 13.412813 266.13825 
L 14.901563 266.13825 
Q 15.728438 266.13825 16.178438 265.71075 
Q 16.630313 265.28325 16.630313 264.492 
Q 16.630313 263.706375 16.178438 263.278875 
Q 15.728438 262.851375 14.901563 262.851375 
L 13.412813 262.851375 
z
M 12.229688 261.87825 
L 14.901563 261.87825 
Q 16.373438 261.87825 17.125313 262.543875 
Q 17.879063 263.2095 17.879063 264.492 
Q 17.879063 265.787625 17.125313 266.4495 
Q 16.373438 267.111375 14.901563 267.111375 
L 13.412813 267.111375 
L 13.412813 270.627 
L 12.229688 270.627 
L 12.229688 261.87825 
z
M 21.526641 264.820125 
Q 20.660391 264.820125 20.156016 265.497 
Q 19.651641 266.173875 19.651641 267.351375 
Q 19.651641 268.528875 20.152266 269.20575 
Q 20.654766 269.882625 21.526641 269.882625 
Q 22.389141 269.882625 22.891641 269.203875 
Q 23.396016 268.52325 23.396016 267.351375 
Q 23.396016 266.185125 22.891641 265.502625 
Q 22.389141 264.820125 21.526641 264.820125 
z
M 21.526641 263.907 
Q 22.932891 263.907 23.735391 264.822 
Q 24.539766 265.735125 24.539766 267.351375 
Q 24.539766 268.962 23.735391 269.88075 
Q 22.932891 270.797625 21.526641 270.797625 
Q 20.114766 270.797625 19.314141 269.88075 
Q 18.515391 268.962 18.515391 267.351375 
Q 18.515391 265.735125 19.314141 264.822 
Q 20.114766 263.907 21.526641 263.907 
z
M 27.368438 269.642625 
L 27.368438 273.122625 
L 26.284688 273.122625 
L 26.284688 264.0645 
L 27.368438 264.0645 
L 27.368438 265.060125 
Q 27.709688 264.475125 28.227188 264.192 
Q 28.746563 263.907 29.466563 263.907 
Q 30.662813 263.907 31.409063 264.85575 
Q 32.157188 265.8045 32.157188 267.351375 
Q 32.157188 268.89825 31.409063 269.848875 
Q 30.662813 270.797625 29.466563 270.797625 
Q 28.746563 270.797625 28.227188 270.512625 
Q 27.709688 270.227625 27.368438 269.642625 
z
M 31.037813 267.351375 
Q 31.037813 266.162625 30.548438 265.48575 
Q 30.059063 264.808875 29.204063 264.808875 
Q 28.347188 264.808875 27.857813 265.48575 
Q 27.368438 266.162625 27.368438 267.351375 
Q 27.368438 268.540125 27.857813 269.217 
Q 28.347188 269.893875 29.204063 269.893875 
Q 30.059063 269.893875 30.548438 269.217 
Q 31.037813 268.540125 31.037813 267.351375 
z
M 33.8325 268.037625 
L 33.8325 264.0645 
L 34.910625 264.0645 
L 34.910625 267.996375 
Q 34.910625 268.92825 35.2725 269.395125 
Q 35.63625 269.860125 36.36375 269.860125 
Q 37.235625 269.860125 37.741875 269.30325 
Q 38.25 268.746375 38.25 267.7845 
L 38.25 264.0645 
L 39.328125 264.0645 
L 39.328125 270.627 
L 38.25 270.627 
L 38.25 269.61825 
Q 37.858125 270.216375 37.33875 270.507 
Q 36.82125 270.797625 36.135 270.797625 
Q 35.004375 270.797625 34.4175 270.0945 
Q 33.8325 269.391375 33.8325 268.037625 
z
M 36.545625 263.907 
L 36.545625 263.907 
z
M 41.548594 261.508875 
L 42.626719 261.508875 
L 42.626719 270.627 
L 41.548594 270.627 
L 41.548594 261.508875 
z
M 47.865703 267.328875 
Q 46.558828 267.328875 46.054453 267.627 
Q 45.550078 267.925125 45.550078 268.647 
Q 45.550078 269.22075 45.928828 269.55825 
Q 46.307578 269.893875 46.956328 269.893875 
Q 47.854453 269.893875 48.396328 269.25825 
Q 48.938203 268.622625 48.938203 267.568875 
L 48.938203 267.328875 
L 47.865703 267.328875 
z
M 50.016328 266.882625 
L 50.016328 270.627 
L 48.938203 270.627 
L 48.938203 269.631375 
Q 48.568828 270.227625 48.017578 270.512625 
Q 47.466328 270.797625 46.669453 270.797625 
Q 45.662578 270.797625 45.066328 270.231375 
Q 44.471953 269.665125 44.471953 268.716375 
Q 44.471953 267.610125 45.212578 267.047625 
Q 45.955078 266.485125 47.425078 266.485125 
L 48.938203 266.485125 
L 48.938203 266.37825 
Q 48.938203 265.633875 48.448828 265.227 
Q 47.959453 264.820125 47.074453 264.820125 
Q 46.511953 264.820125 45.977578 264.955125 
Q 45.445078 265.090125 44.953828 265.360125 
L 44.953828 264.362625 
Q 45.544453 264.133875 46.101328 264.021375 
Q 46.658203 263.907 47.185078 263.907 
Q 48.610078 263.907 49.313203 264.64575 
Q 50.016328 265.382625 50.016328 266.882625 
z
M 53.302969 262.20075 
L 53.302969 264.0645 
L 55.522969 264.0645 
L 55.522969 264.902625 
L 53.302969 264.902625 
L 53.302969 268.465125 
Q 53.302969 269.267625 53.522344 269.496375 
Q 53.741719 269.725125 54.416719 269.725125 
L 55.522969 269.725125 
L 55.522969 270.627 
L 54.416719 270.627 
Q 53.167969 270.627 52.693594 270.162 
Q 52.219219 269.695125 52.219219 268.465125 
L 52.219219 264.902625 
L 51.427969 264.902625 
L 51.427969 264.0645 
L 52.219219 264.0645 
L 52.219219 262.20075 
L 53.302969 262.20075 
z
M 56.941172 264.0645 
L 58.019297 264.0645 
L 58.019297 270.627 
L 56.941172 270.627 
L 56.941172 264.0645 
z
M 56.941172 261.508875 
L 58.019297 261.508875 
L 58.019297 262.87575 
L 56.941172 262.87575 
L 56.941172 261.508875 
z
M 62.817656 264.820125 
Q 61.951406 264.820125 61.447031 265.497 
Q 60.942656 266.173875 60.942656 267.351375 
Q 60.942656 268.528875 61.443281 269.20575 
Q 61.945781 269.882625 62.817656 269.882625 
Q 63.680156 269.882625 64.182656 269.203875 
Q 64.687031 268.52325 64.687031 267.351375 
Q 64.687031 266.185125 64.182656 265.502625 
Q 63.680156 264.820125 62.817656 264.820125 
z
M 62.817656 263.907 
Q 64.223906 263.907 65.026406 264.822 
Q 65.830781 265.735125 65.830781 267.351375 
Q 65.830781 268.962 65.026406 269.88075 
Q 64.223906 270.797625 62.817656 270.797625 
Q 61.405781 270.797625 60.605156 269.88075 
Q 59.806406 268.962 59.806406 267.351375 
Q 59.806406 265.735125 60.605156 264.822 
Q 61.405781 263.907 62.817656 263.907 
z
M 73.073203 266.665125 
L 73.073203 270.627 
L 71.995078 270.627 
L 71.995078 266.70075 
Q 71.995078 265.768875 71.631328 265.307625 
Q 71.267578 264.8445 70.541953 264.8445 
Q 69.668203 264.8445 69.163828 265.401375 
Q 68.659453 265.956375 68.659453 266.91825 
L 68.659453 270.627 
L 67.575703 270.627 
L 67.575703 264.0645 
L 68.659453 264.0645 
L 68.659453 265.0845 
Q 69.047578 264.492 69.570703 264.1995 
Q 70.095703 263.907 70.781953 263.907 
Q 71.912578 263.907 72.491953 264.606375 
Q 73.073203 265.30575 73.073203 266.665125 
z
M 86.630625 266.777625 
Q 86.120625 266.777625 85.83 267.21075 
Q 85.54125 267.643875 85.54125 268.41825 
Q 85.54125 269.1795 85.83 269.616375 
Q 86.120625 270.05325 86.630625 270.05325 
Q 87.129375 270.05325 87.418125 269.616375 
Q 87.70875 269.1795 87.70875 268.41825 
Q 87.70875 267.6495 87.418125 267.2145 
Q 87.129375 266.777625 86.630625 266.777625 
z
M 86.630625 266.03325 
Q 87.556875 266.03325 88.100625 266.67825 
Q 88.64625 267.321375 88.64625 268.41825 
Q 88.64625 269.51325 88.09875 270.156375 
Q 87.55125 270.797625 86.630625 270.797625 
Q 85.693125 270.797625 85.1475 270.156375 
Q 84.60375 269.51325 84.60375 268.41825 
Q 84.60375 267.31575 85.15125 266.6745 
Q 85.69875 266.03325 86.630625 266.03325 
z
M 80.58375 262.465125 
Q 80.079375 262.465125 79.78875 262.902 
Q 79.5 263.337 79.5 264.100125 
Q 79.5 264.872625 79.786875 265.307625 
Q 80.07375 265.74075 80.58375 265.74075 
Q 81.09375 265.74075 81.3825 265.307625 
Q 81.673125 264.872625 81.673125 264.100125 
Q 81.673125 263.3445 81.380625 262.90575 
Q 81.088125 262.465125 80.58375 262.465125 
z
M 85.875 261.72075 
L 86.8125 261.72075 
L 81.339375 270.797625 
L 80.401875 270.797625 
L 85.875 261.72075 
z
M 80.58375 261.72075 
Q 81.51 261.72075 82.059375 262.362 
Q 82.610625 263.00325 82.610625 264.100125 
Q 82.610625 265.206375 82.063125 265.84575 
Q 81.515625 266.485125 80.58375 266.485125 
Q 79.651875 266.485125 79.11 265.843875 
Q 78.568125 265.20075 78.568125 264.100125 
Q 78.568125 263.008875 79.111875 262.36575 
Q 79.6575 261.72075 80.58375 261.72075 
z
M 100.264922 269.37825 
L 100.264922 267.028875 
L 98.331797 267.028875 
L 98.331797 266.05575 
L 101.436797 266.05575 
L 101.436797 269.81325 
Q 100.752422 270.298875 99.925547 270.54825 
Q 99.100547 270.797625 98.163047 270.797625 
Q 96.111797 270.797625 94.953047 269.5995 
Q 93.796172 268.3995 93.796172 266.262 
Q 93.796172 264.117 94.953047 262.918875 
Q 96.111797 261.72075 98.163047 261.72075 
Q 99.018047 261.72075 99.788672 261.932625 
Q 100.559297 262.142625 101.209922 262.55325 
L 101.209922 263.81325 
Q 100.553672 263.256375 99.814922 262.975125 
Q 99.076172 262.693875 98.262422 262.693875 
Q 96.655547 262.693875 95.849297 263.590125 
Q 95.044922 264.486375 95.044922 266.262 
Q 95.044922 268.032 95.849297 268.92825 
Q 96.655547 269.8245 98.262422 269.8245 
Q 98.888672 269.8245 99.379922 269.71575 
Q 99.873047 269.607 100.264922 269.37825 
z
M 107.355 265.071375 
Q 107.173125 264.966375 106.959375 264.917625 
Q 106.745625 264.867 106.48875 264.867 
Q 105.57375 264.867 105.084375 265.461375 
Q 104.595 266.05575 104.595 267.1695 
L 104.595 270.627 
L 103.51125 270.627 
L 103.51125 264.0645 
L 104.595 264.0645 
L 104.595 265.0845 
Q 104.93625 264.486375 105.48 264.197625 
Q 106.025625 263.907 106.805625 263.907 
Q 106.91625 263.907 107.05125 263.922 
Q 107.18625 263.935125 107.349375 263.965125 
L 107.355 265.071375 
z
M 110.758594 264.820125 
Q 109.892344 264.820125 109.387969 265.497 
Q 108.883594 266.173875 108.883594 267.351375 
Q 108.883594 268.528875 109.384219 269.20575 
Q 109.886719 269.882625 110.758594 269.882625 
Q 111.621094 269.882625 112.123594 269.203875 
Q 112.627969 268.52325 112.627969 267.351375 
Q 112.627969 266.185125 112.123594 265.502625 
Q 111.621094 264.820125 110.758594 264.820125 
z
M 110.758594 263.907 
Q 112.164844 263.907 112.967344 264.822 
Q 113.771719 265.735125 113.771719 267.351375 
Q 113.771719 268.962 112.967344 269.88075 
Q 112.164844 270.797625 110.758594 270.797625 
Q 109.346719 270.797625 108.546094 269.88075 
Q 107.747344 268.962 107.747344 267.351375 
Q 107.747344 265.735125 108.546094 264.822 
Q 109.346719 263.907 110.758594 263.907 
z
M 114.931641 264.0645 
L 116.009766 264.0645 
L 117.357891 269.185125 
L 118.698516 264.0645 
L 119.969766 264.0645 
L 121.317891 269.185125 
L 122.660391 264.0645 
L 123.738516 264.0645 
L 122.021016 270.627 
L 120.749766 270.627 
L 119.337891 265.247625 
L 117.920391 270.627 
L 116.647266 270.627 
L 114.931641 264.0645 
z
M 126.439219 262.20075 
L 126.439219 264.0645 
L 128.659219 264.0645 
L 128.659219 264.902625 
L 126.439219 264.902625 
L 126.439219 268.465125 
Q 126.439219 269.267625 126.658594 269.496375 
Q 126.877969 269.725125 127.552969 269.725125 
L 128.659219 269.725125 
L 128.659219 270.627 
L 127.552969 270.627 
Q 126.304219 270.627 125.829844 270.162 
Q 125.355469 269.695125 125.355469 268.465125 
L 125.355469 264.902625 
L 124.564219 264.902625 
L 124.564219 264.0645 
L 125.355469 264.0645 
L 125.355469 262.20075 
L 126.439219 262.20075 
z
M 135.533672 266.665125 
L 135.533672 270.627 
L 134.455547 270.627 
L 134.455547 266.70075 
Q 134.455547 265.768875 134.091797 265.307625 
Q 133.728047 264.8445 133.002422 264.8445 
Q 132.128672 264.8445 131.624297 265.401375 
Q 131.119922 265.956375 131.119922 266.91825 
L 131.119922 270.627 
L 130.036172 270.627 
L 130.036172 261.508875 
L 131.119922 261.508875 
L 131.119922 265.0845 
Q 131.508047 264.492 132.031172 264.1995 
Q 132.556172 263.907 133.242422 263.907 
Q 134.373047 263.907 134.952422 264.606375 
Q 135.533672 265.30575 135.533672 266.665125 
z
" style="fill: #ffffff; stroke: #000000; stroke-width: 2"/>
    <path d="M 13.412813 262.851375 
L 13.412813 266.13825 
L 14.901563 266.13825 
Q 15.728438 266.13825 16.178438 265.71075 
Q 16.630313 265.28325 16.630313 264.492 
Q 16.630313 263.706375 16.178438 263.278875 
Q 15.728438 262.851375 14.901563 262.851375 
L 13.412813 262.851375 
z
M 12.229688 261.87825 
L 14.901563 261.87825 
Q 16.373438 261.87825 17.125313 262.543875 
Q 17.879063 263.2095 17.879063 264.492 
Q 17.879063 265.787625 17.125313 266.4495 
Q 16.373438 267.111375 14.901563 267.111375 
L 13.412813 267.111375 
L 13.412813 270.627 
L 12.229688 270.627 
L 12.229688 261.87825 
z
M 21.526641 264.820125 
Q 20.660391 264.820125 20.156016 265.497 
Q 19.651641 266.173875 19.651641 267.351375 
Q 19.651641 268.528875 20.152266 269.20575 
Q 20.654766 269.882625 21.526641 269.882625 
Q 22.389141 269.882625 22.891641 269.203875 
Q 23.396016 268.52325 23.396016 267.351375 
Q 23.396016 266.185125 22.891641 265.502625 
Q 22.389141 264.820125 21.526641 264.820125 
z
M 21.526641 263.907 
Q 22.932891 263.907 23.735391 264.822 
Q 24.539766 265.735125 24.539766 267.351375 
Q 24.539766 268.962 23.735391 269.88075 
Q 22.932891 270.797625 21.526641 270.797625 
Q 20.114766 270.797625 19.314141 269.88075 
Q 18.515391 268.962 18.515391 267.351375 
Q 18.515391 265.735125 19.314141 264.822 
Q 20.114766 263.907 21.526641 263.907 
z
M 27.368438 269.642625 
L 27.368438 273.122625 
L 26.284688 273.122625 
L 26.284688 264.0645 
L 27.368438 264.0645 
L 27.368438 265.060125 
Q 27.709688 264.475125 28.227188 264.192 
Q 28.746563 263.907 29.466563 263.907 
Q 30.662813 263.907 31.409063 264.85575 
Q 32.157188 265.8045 32.157188 267.351375 
Q 32.157188 268.89825 31.409063 269.848875 
Q 30.662813 270.797625 29.466563 270.797625 
Q 28.746563 270.797625 28.227188 270.512625 
Q 27.709688 270.227625 27.368438 269.642625 
z
M 31.037813 267.351375 
Q 31.037813 266.162625 30.548438 265.48575 
Q 30.059063 264.808875 29.204063 264.808875 
Q 28.347188 264.808875 27.857813 265.48575 
Q 27.368438 266.162625 27.368438 267.351375 
Q 27.368438 268.540125 27.857813 269.217 
Q 28.347188 269.893875 29.204063 269.893875 
Q 30.059063 269.893875 30.548438 269.217 
Q 31.037813 268.540125 31.037813 267.351375 
z
M 33.8325 268.037625 
L 33.8325 264.0645 
L 34.910625 264.0645 
L 34.910625 267.996375 
Q 34.910625 268.92825 35.2725 269.395125 
Q 35.63625 269.860125 36.36375 269.860125 
Q 37.235625 269.860125 37.741875 269.30325 
Q 38.25 268.746375 38.25 267.7845 
L 38.25 264.0645 
L 39.328125 264.0645 
L 39.328125 270.627 
L 38.25 270.627 
L 38.25 269.61825 
Q 37.858125 270.216375 37.33875 270.507 
Q 36.82125 270.797625 36.135 270.797625 
Q 35.004375 270.797625 34.4175 270.0945 
Q 33.8325 269.391375 33.8325 268.037625 
z
M 36.545625 263.907 
L 36.545625 263.907 
z
M 41.548594 261.508875 
L 42.626719 261.508875 
L 42.626719 270.627 
L 41.548594 270.627 
L 41.548594 261.508875 
z
M 47.865703 267.328875 
Q 46.558828 267.328875 46.054453 267.627 
Q 45.550078 267.925125 45.550078 268.647 
Q 45.550078 269.22075 45.928828 269.55825 
Q 46.307578 269.893875 46.956328 269.893875 
Q 47.854453 269.893875 48.396328 269.25825 
Q 48.938203 268.622625 48.938203 267.568875 
L 48.938203 267.328875 
L 47.865703 267.328875 
z
M 50.016328 266.882625 
L 50.016328 270.627 
L 48.938203 270.627 
L 48.938203 269.631375 
Q 48.568828 270.227625 48.017578 270.512625 
Q 47.466328 270.797625 46.669453 270.797625 
Q 45.662578 270.797625 45.066328 270.231375 
Q 44.471953 269.665125 44.471953 268.716375 
Q 44.471953 267.610125 45.212578 267.047625 
Q 45.955078 266.485125 47.425078 266.485125 
L 48.938203 266.485125 
L 48.938203 266.37825 
Q 48.938203 265.633875 48.448828 265.227 
Q 47.959453 264.820125 47.074453 264.820125 
Q 46.511953 264.820125 45.977578 264.955125 
Q 45.445078 265.090125 44.953828 265.360125 
L 44.953828 264.362625 
Q 45.544453 264.133875 46.101328 264.021375 
Q 46.658203 263.907 47.185078 263.907 
Q 48.610078 263.907 49.313203 264.64575 
Q 50.016328 265.382625 50.016328 266.882625 
z
M 53.302969 262.20075 
L 53.302969 264.0645 
L 55.522969 264.0645 
L 55.522969 264.902625 
L 53.302969 264.902625 
L 53.302969 268.465125 
Q 53.302969 269.267625 53.522344 269.496375 
Q 53.741719 269.725125 54.416719 269.725125 
L 55.522969 269.725125 
L 55.522969 270.627 
L 54.416719 270.627 
Q 53.167969 270.627 52.693594 270.162 
Q 52.219219 269.695125 52.219219 268.465125 
L 52.219219 264.902625 
L 51.427969 264.902625 
L 51.427969 264.0645 
L 52.219219 264.0645 
L 52.219219 262.20075 
L 53.302969 262.20075 
z
M 56.941172 264.0645 
L 58.019297 264.0645 
L 58.019297 270.627 
L 56.941172 270.627 
L 56.941172 264.0645 
z
M 56.941172 261.508875 
L 58.019297 261.508875 
L 58.019297 262.87575 
L 56.941172 262.87575 
L 56.941172 261.508875 
z
M 62.817656 264.820125 
Q 61.951406 264.820125 61.447031 265.497 
Q 60.942656 266.173875 60.942656 267.351375 
Q 60.942656 268.528875 61.443281 269.20575 
Q 61.945781 269.882625 62.817656 269.882625 
Q 63.680156 269.882625 64.182656 269.203875 
Q 64.687031 268.52325 64.687031 267.351375 
Q 64.687031 266.185125 64.182656 265.502625 
Q 63.680156 264.820125 62.817656 264.820125 
z
M 62.817656 263.907 
Q 64.223906 263.907 65.026406 264.822 
Q 65.830781 265.735125 65.830781 267.351375 
Q 65.830781 268.962 65.026406 269.88075 
Q 64.223906 270.797625 62.817656 270.797625 
Q 61.405781 270.797625 60.605156 269.88075 
Q 59.806406 268.962 59.806406 267.351375 
Q 59.806406 265.735125 60.605156 264.822 
Q 61.405781 263.907 62.817656 263.907 
z
M 73.073203 266.665125 
L 73.073203 270.627 
L 71.995078 270.627 
L 71.995078 266.70075 
Q 71.995078 265.768875 71.631328 265.307625 
Q 71.267578 264.8445 70.541953 264.8445 
Q 69.668203 264.8445 69.163828 265.401375 
Q 68.659453 265.956375 68.659453 266.91825 
L 68.659453 270.627 
L 67.575703 270.627 
L 67.575703 264.0645 
L 68.659453 264.0645 
L 68.659453 265.0845 
Q 69.047578 264.492 69.570703 264.1995 
Q 70.095703 263.907 70.781953 263.907 
Q 71.912578 263.907 72.491953 264.606375 
Q 73.073203 265.30575 73.073203 266.665125 
z
M 86.630625 266.777625 
Q 86.120625 266.777625 85.83 267.21075 
Q 85.54125 267.643875 85.54125 268.41825 
Q 85.54125 269.1795 85.83 269.616375 
Q 86.120625 270.05325 86.630625 270.05325 
Q 87.129375 270.05325 87.418125 269.616375 
Q 87.70875 269.1795 87.70875 268.41825 
Q 87.70875 267.6495 87.418125 267.2145 
Q 87.129375 266.777625 86.630625 266.777625 
z
M 86.630625 266.03325 
Q 87.556875 266.03325 88.100625 266.67825 
Q 88.64625 267.321375 88.64625 268.41825 
Q 88.64625 269.51325 88.09875 270.156375 
Q 87.55125 270.797625 86.630625 270.797625 
Q 85.693125 270.797625 85.1475 270.156375 
Q 84.60375 269.51325 84.60375 268.41825 
Q 84.60375 267.31575 85.15125 266.6745 
Q 85.69875 266.03325 86.630625 266.03325 
z
M 80.58375 262.465125 
Q 80.079375 262.465125 79.78875 262.902 
Q 79.5 263.337 79.5 264.100125 
Q 79.5 264.872625 79.786875 265.307625 
Q 80.07375 265.74075 80.58375 265.74075 
Q 81.09375 265.74075 81.3825 265.307625 
Q 81.673125 264.872625 81.673125 264.100125 
Q 81.673125 263.3445 81.380625 262.90575 
Q 81.088125 262.465125 80.58375 262.465125 
z
M 85.875 261.72075 
L 86.8125 261.72075 
L 81.339375 270.797625 
L 80.401875 270.797625 
L 85.875 261.72075 
z
M 80.58375 261.72075 
Q 81.51 261.72075 82.059375 262.362 
Q 82.610625 263.00325 82.610625 264.100125 
Q 82.610625 265.206375 82.063125 265.84575 
Q 81.515625 266.485125 80.58375 266.485125 
Q 79.651875 266.485125 79.11 265.843875 
Q 78.568125 265.20075 78.568125 264.100125 
Q 78.568125 263.008875 79.111875 262.36575 
Q 79.6575 261.72075 80.58375 261.72075 
z
M 100.264922 269.37825 
L 100.264922 267.028875 
L 98.331797 267.028875 
L 98.331797 266.05575 
L 101.436797 266.05575 
L 101.436797 269.81325 
Q 100.752422 270.298875 99.925547 270.54825 
Q 99.100547 270.797625 98.163047 270.797625 
Q 96.111797 270.797625 94.953047 269.5995 
Q 93.796172 268.3995 93.796172 266.262 
Q 93.796172 264.117 94.953047 262.918875 
Q 96.111797 261.72075 98.163047 261.72075 
Q 99.018047 261.72075 99.788672 261.932625 
Q 100.559297 262.142625 101.209922 262.55325 
L 101.209922 263.81325 
Q 100.553672 263.256375 99.814922 262.975125 
Q 99.076172 262.693875 98.262422 262.693875 
Q 96.655547 262.693875 95.849297 263.590125 
Q 95.044922 264.486375 95.044922 266.262 
Q 95.044922 268.032 95.849297 268.92825 
Q 96.655547 269.8245 98.262422 269.8245 
Q 98.888672 269.8245 99.379922 269.71575 
Q 99.873047 269.607 100.264922 269.37825 
z
M 107.355 265.071375 
Q 107.173125 264.966375 106.959375 264.917625 
Q 106.745625 264.867 106.48875 264.867 
Q 105.57375 264.867 105.084375 265.461375 
Q 104.595 266.05575 104.595 267.1695 
L 104.595 270.627 
L 103.51125 270.627 
L 103.51125 264.0645 
L 104.595 264.0645 
L 104.595 265.0845 
Q 104.93625 264.486375 105.48 264.197625 
Q 106.025625 263.907 106.805625 263.907 
Q 106.91625 263.907 107.05125 263.922 
Q 107.18625 263.935125 107.349375 263.965125 
L 107.355 265.071375 
z
M 110.758594 264.820125 
Q 109.892344 264.820125 109.387969 265.497 
Q 108.883594 266.173875 108.883594 267.351375 
Q 108.883594 268.528875 109.384219 269.20575 
Q 109.886719 269.882625 110.758594 269.882625 
Q 111.621094 269.882625 112.123594 269.203875 
Q 112.627969 268.52325 112.627969 267.351375 
Q 112.627969 266.185125 112.123594 265.502625 
Q 111.621094 264.820125 110.758594 264.820125 
z
M 110.758594 263.907 
Q 112.164844 263.907 112.967344 264.822 
Q 113.771719 265.735125 113.771719 267.351375 
Q 113.771719 268.962 112.967344 269.88075 
Q 112.164844 270.797625 110.758594 270.797625 
Q 109.346719 270.797625 108.546094 269.88075 
Q 107.747344 268.962 107.747344 267.351375 
Q 107.747344 265.735125 108.546094 264.822 
Q 109.346719 263.907 110.758594 263.907 
z
M 114.931641 264.0645 
L 116.009766 264.0645 
L 117.357891 269.185125 
L 118.698516 264.0645 
L 119.969766 264.0645 
L 121.317891 269.185125 
L 122.660391 264.0645 
L 123.738516 264.0645 
L 122.021016 270.627 
L 120.749766 270.627 
L 119.337891 265.247625 
L 117.920391 270.627 
L 116.647266 270.627 
L 114.931641 264.0645 
z
M 126.439219 262.20075 
L 126.439219 264.0645 
L 128.659219 264.0645 
L 128.659219 264.902625 
L 126.439219 264.902625 
L 126.439219 268.465125 
Q 126.439219 269.267625 126.658594 269.496375 
Q 126.877969 269.725125 127.552969 269.725125 
L 128.659219 269.725125 
L 128.659219 270.627 
L 127.552969 270.627 
Q 126.304219 270.627 125.829844 270.162 
Q 125.355469 269.695125 125.355469 268.465125 
L 125.355469 264.902625 
L 124.564219 264.902625 
L 124.564219 264.0645 
L 125.355469 264.0645 
L 125.355469 262.20075 
L 126.439219 262.20075 
z
M 135.533672 266.665125 
L 135.533672 270.627 
L 134.455547 270.627 
L 134.455547 266.70075 
Q 134.455547 265.768875 134.091797 265.307625 
Q 133.728047 264.8445 133.002422 264.8445 
Q 132.128672 264.8445 131.624297 265.401375 
Q 131.119922 265.956375 131.119922 266.91825 
L 131.119922 270.627 
L 130.036172 270.627 
L 130.036172 261.508875 
L 131.119922 261.508875 
L 131.119922 265.0845 
Q 131.508047 264.492 132.031172 264.1995 
Q 132.556172 263.907 133.242422 263.907 
Q 134.373047 263.907 134.952422 264.606375 
Q 135.533672 265.30575 135.533672 266.665125 
z
" style="fill: #ffffff"/>
    <path d="M 17.830313 275.315625 
L 22.857188 275.315625 
L 22.857188 276.313125 
L 19.013438 276.313125 
L 19.013438 278.89125 
L 22.482188 278.89125 
L 22.482188 279.886875 
L 19.013438 279.886875 
L 19.013438 284.064375 
L 17.830313 284.064375 
L 17.830313 275.315625 
z
M 27.618281 278.50875 
Q 27.436406 278.40375 27.222656 278.355 
Q 27.008906 278.304375 26.752031 278.304375 
Q 25.837031 278.304375 25.347656 278.89875 
Q 24.858281 279.493125 24.858281 280.606875 
L 24.858281 284.064375 
L 23.774531 284.064375 
L 23.774531 277.501875 
L 24.858281 277.501875 
L 24.858281 278.521875 
Q 25.199531 277.92375 25.743281 277.635 
Q 26.288906 277.344375 27.068906 277.344375 
Q 27.179531 277.344375 27.314531 277.359375 
Q 27.449531 277.3725 27.612656 277.4025 
L 27.618281 278.50875 
z
M 31.021875 278.2575 
Q 30.155625 278.2575 29.65125 278.934375 
Q 29.146875 279.61125 29.146875 280.78875 
Q 29.146875 281.96625 29.6475 282.643125 
Q 30.15 283.32 31.021875 283.32 
Q 31.884375 283.32 32.386875 282.64125 
Q 32.89125 281.960625 32.89125 280.78875 
Q 32.89125 279.6225 32.386875 278.94 
Q 31.884375 278.2575 31.021875 278.2575 
z
M 31.021875 277.344375 
Q 32.428125 277.344375 33.230625 278.259375 
Q 34.035 279.1725 34.035 280.78875 
Q 34.035 282.399375 33.230625 283.318125 
Q 32.428125 284.235 31.021875 284.235 
Q 29.61 284.235 28.809375 283.318125 
Q 28.010625 282.399375 28.010625 280.78875 
Q 28.010625 279.1725 28.809375 278.259375 
Q 29.61 277.344375 31.021875 277.344375 
z
M 40.930547 278.761875 
Q 41.335547 278.034375 41.898047 277.689375 
Q 42.460547 277.344375 43.221797 277.344375 
Q 44.247422 277.344375 44.804297 278.0625 
Q 45.361172 278.77875 45.361172 280.1025 
L 45.361172 284.064375 
L 44.277422 284.064375 
L 44.277422 280.138125 
Q 44.277422 279.195 43.941797 278.739375 
Q 43.608047 278.281875 42.923672 278.281875 
Q 42.085547 278.281875 41.598047 278.83875 
Q 41.112422 279.39375 41.112422 280.355625 
L 41.112422 284.064375 
L 40.028672 284.064375 
L 40.028672 280.138125 
Q 40.028672 279.189375 39.694922 278.735625 
Q 39.361172 278.281875 38.663672 278.281875 
Q 37.836797 278.281875 37.349297 278.840625 
Q 36.863672 279.399375 36.863672 280.355625 
L 36.863672 284.064375 
L 35.779922 284.064375 
L 35.779922 277.501875 
L 36.863672 277.501875 
L 36.863672 278.521875 
Q 37.233047 277.918125 37.748672 277.63125 
Q 38.264297 277.344375 38.973047 277.344375 
Q 39.689297 277.344375 40.189922 277.708125 
Q 40.690547 278.07 40.930547 278.761875 
z
M 52.496953 283.06875 
L 56.627578 283.06875 
L 56.627578 284.064375 
L 51.073828 284.064375 
L 51.073828 283.06875 
Q 51.746953 282.37125 52.909453 281.1975 
Q 54.073828 280.021875 54.371953 279.680625 
Q 54.940078 279.043125 55.165078 278.600625 
Q 55.391953 278.158125 55.391953 277.730625 
Q 55.391953 277.033125 54.902578 276.594375 
Q 54.413203 276.15375 53.627578 276.15375 
Q 53.070703 276.15375 52.451953 276.346875 
Q 51.835078 276.54 51.131953 276.93375 
L 51.131953 275.7375 
Q 51.846328 275.450625 52.466953 275.304375 
Q 53.089453 275.158125 53.605078 275.158125 
Q 54.964453 275.158125 55.772578 275.83875 
Q 56.580703 276.5175 56.580703 277.65375 
Q 56.580703 278.19375 56.378203 278.6775 
Q 56.177578 279.159375 55.643203 279.815625 
Q 55.496953 279.98625 54.711328 280.798125 
Q 53.927578 281.61 52.496953 283.06875 
z
M 61.642969 276.095625 
Q 60.729844 276.095625 60.268594 276.995625 
Q 59.809219 277.89375 59.809219 279.699375 
Q 59.809219 281.4975 60.268594 282.3975 
Q 60.729844 283.2975 61.642969 283.2975 
Q 62.563594 283.2975 63.022969 282.3975 
Q 63.484219 281.4975 63.484219 279.699375 
Q 63.484219 277.89375 63.022969 276.995625 
Q 62.563594 276.095625 61.642969 276.095625 
z
M 61.642969 275.158125 
Q 63.114844 275.158125 63.891094 276.3225 
Q 64.667344 277.485 64.667344 279.699375 
Q 64.667344 281.908125 63.891094 283.0725 
Q 63.114844 284.235 61.642969 284.235 
Q 60.172969 284.235 59.396719 283.0725 
Q 58.620469 281.908125 58.620469 279.699375 
Q 58.620469 277.485 59.396719 276.3225 
Q 60.172969 275.158125 61.642969 275.158125 
z
M 66.952734 283.06875 
L 68.885859 283.06875 
L 68.885859 276.39375 
L 66.782109 276.815625 
L 66.782109 275.7375 
L 68.874609 275.315625 
L 70.057734 275.315625 
L 70.057734 283.06875 
L 71.990859 283.06875 
L 71.990859 284.064375 
L 66.952734 284.064375 
L 66.952734 283.06875 
z
M 76.9125 276.095625 
Q 75.999375 276.095625 75.538125 276.995625 
Q 75.07875 277.89375 75.07875 279.699375 
Q 75.07875 281.4975 75.538125 282.3975 
Q 75.999375 283.2975 76.9125 283.2975 
Q 77.833125 283.2975 78.2925 282.3975 
Q 78.75375 281.4975 78.75375 279.699375 
Q 78.75375 277.89375 78.2925 276.995625 
Q 77.833125 276.095625 76.9125 276.095625 
z
M 76.9125 275.158125 
Q 78.384375 275.158125 79.160625 276.3225 
Q 79.936875 277.485 79.936875 279.699375 
Q 79.936875 281.908125 79.160625 283.0725 
Q 78.384375 284.235 76.9125 284.235 
Q 75.4425 284.235 74.66625 283.0725 
Q 73.89 281.908125 73.89 279.699375 
Q 73.89 277.485 74.66625 276.3225 
Q 75.4425 275.158125 76.9125 275.158125 
z
M 86.745469 275.638125 
L 86.745469 277.501875 
L 88.965469 277.501875 
L 88.965469 278.34 
L 86.745469 278.34 
L 86.745469 281.9025 
Q 86.745469 282.705 86.964844 282.93375 
Q 87.184219 283.1625 87.859219 283.1625 
L 88.965469 283.1625 
L 88.965469 284.064375 
L 87.859219 284.064375 
Q 86.610469 284.064375 86.136094 283.599375 
Q 85.661719 283.1325 85.661719 281.9025 
L 85.661719 278.34 
L 84.870469 278.34 
L 84.870469 277.501875 
L 85.661719 277.501875 
L 85.661719 275.638125 
L 86.745469 275.638125 
z
M 92.926172 278.2575 
Q 92.059922 278.2575 91.555547 278.934375 
Q 91.051172 279.61125 91.051172 280.78875 
Q 91.051172 281.96625 91.551797 282.643125 
Q 92.054297 283.32 92.926172 283.32 
Q 93.788672 283.32 94.291172 282.64125 
Q 94.795547 281.960625 94.795547 280.78875 
Q 94.795547 279.6225 94.291172 278.94 
Q 93.788672 278.2575 92.926172 278.2575 
z
M 92.926172 277.344375 
Q 94.332422 277.344375 95.134922 278.259375 
Q 95.939297 279.1725 95.939297 280.78875 
Q 95.939297 282.399375 95.134922 283.318125 
Q 94.332422 284.235 92.926172 284.235 
Q 91.514297 284.235 90.713672 283.318125 
Q 89.914922 282.399375 89.914922 280.78875 
Q 89.914922 279.1725 90.713672 278.259375 
Q 91.514297 277.344375 92.926172 277.344375 
z
M 102.711797 283.06875 
L 106.842422 283.06875 
L 106.842422 284.064375 
L 101.288672 284.064375 
L 101.288672 283.06875 
Q 101.961797 282.37125 103.124297 281.1975 
Q 104.288672 280.021875 104.586797 279.680625 
Q 105.154922 279.043125 105.379922 278.600625 
Q 105.606797 278.158125 105.606797 277.730625 
Q 105.606797 277.033125 105.117422 276.594375 
Q 104.628047 276.15375 103.842422 276.15375 
Q 103.285547 276.15375 102.666797 276.346875 
Q 102.049922 276.54 101.346797 276.93375 
L 101.346797 275.7375 
Q 102.061172 275.450625 102.681797 275.304375 
Q 103.304297 275.158125 103.819922 275.158125 
Q 105.179297 275.158125 105.987422 275.83875 
Q 106.795547 276.5175 106.795547 277.65375 
Q 106.795547 278.19375 106.593047 278.6775 
Q 106.392422 279.159375 105.858047 279.815625 
Q 105.711797 279.98625 104.926172 280.798125 
Q 104.142422 281.61 102.711797 283.06875 
z
M 111.857813 276.095625 
Q 110.944688 276.095625 110.483438 276.995625 
Q 110.024063 277.89375 110.024063 279.699375 
Q 110.024063 281.4975 110.483438 282.3975 
Q 110.944688 283.2975 111.857813 283.2975 
Q 112.778438 283.2975 113.237813 282.3975 
Q 113.699063 281.4975 113.699063 279.699375 
Q 113.699063 277.89375 113.237813 276.995625 
Q 112.778438 276.095625 111.857813 276.095625 
z
M 111.857813 275.158125 
Q 113.329688 275.158125 114.105938 276.3225 
Q 114.882188 277.485 114.882188 279.699375 
Q 114.882188 281.908125 114.105938 283.0725 
Q 113.329688 284.235 111.857813 284.235 
Q 110.387813 284.235 109.611563 283.0725 
Q 108.835313 281.908125 108.835313 279.699375 
Q 108.835313 277.485 109.611563 276.3225 
Q 110.387813 275.158125 111.857813 275.158125 
z
M 117.981328 283.06875 
L 122.111953 283.06875 
L 122.111953 284.064375 
L 116.558203 284.064375 
L 116.558203 283.06875 
Q 117.231328 282.37125 118.393828 281.1975 
Q 119.558203 280.021875 119.856328 279.680625 
Q 120.424453 279.043125 120.649453 278.600625 
Q 120.876328 278.158125 120.876328 277.730625 
Q 120.876328 277.033125 120.386953 276.594375 
Q 119.897578 276.15375 119.111953 276.15375 
Q 118.555078 276.15375 117.936328 276.346875 
Q 117.319453 276.54 116.616328 276.93375 
L 116.616328 275.7375 
Q 117.330703 275.450625 117.951328 275.304375 
Q 118.573828 275.158125 119.089453 275.158125 
Q 120.448828 275.158125 121.256953 275.83875 
Q 122.065078 276.5175 122.065078 277.65375 
Q 122.065078 278.19375 121.862578 278.6775 
Q 121.661953 279.159375 121.127578 279.815625 
Q 120.981328 279.98625 120.195703 280.798125 
Q 119.411953 281.61 117.981328 283.06875 
z
M 127.127344 276.095625 
Q 126.214219 276.095625 125.752969 276.995625 
Q 125.293594 277.89375 125.293594 279.699375 
Q 125.293594 281.4975 125.752969 282.3975 
Q 126.214219 283.2975 127.127344 283.2975 
Q 128.047969 283.2975 128.507344 282.3975 
Q 128.968594 281.4975 128.968594 279.699375 
Q 128.968594 277.89375 128.507344 276.995625 
Q 128.047969 276.095625 127.127344 276.095625 
z
M 127.127344 275.158125 
Q 128.599219 275.158125 129.375469 276.3225 
Q 130.151719 277.485 130.151719 279.699375 
Q 130.151719 281.908125 129.375469 283.0725 
Q 128.599219 284.235 127.127344 284.235 
Q 125.657344 284.235 124.881094 283.0725 
Q 124.104844 281.908125 124.104844 279.699375 
Q 124.104844 277.485 124.881094 276.3225 
Q 125.657344 275.158125 127.127344 275.158125 
z
" style="fill: #ffffff; stroke: #000000; stroke-width: 2"/>
    <path d="M 17.830313 275.315625 
L 22.857188 275.315625 
L 22.857188 276.313125 
L 19.013438 276.313125 
L 19.013438 278.89125 
L 22.482188 278.89125 
L 22.482188 279.886875 
L 19.013438 279.886875 
L 19.013438 284.064375 
L 17.830313 284.064375 
L 17.830313 275.315625 
z
M 27.618281 278.50875 
Q 27.436406 278.40375 27.222656 278.355 
Q 27.008906 278.304375 26.752031 278.304375 
Q 25.837031 278.304375 25.347656 278.89875 
Q 24.858281 279.493125 24.858281 280.606875 
L 24.858281 284.064375 
L 23.774531 284.064375 
L 23.774531 277.501875 
L 24.858281 277.501875 
L 24.858281 278.521875 
Q 25.199531 277.92375 25.743281 277.635 
Q 26.288906 277.344375 27.068906 277.344375 
Q 27.179531 277.344375 27.314531 277.359375 
Q 27.449531 277.3725 27.612656 277.4025 
L 27.618281 278.50875 
z
M 31.021875 278.2575 
Q 30.155625 278.2575 29.65125 278.934375 
Q 29.146875 279.61125 29.146875 280.78875 
Q 29.146875 281.96625 29.6475 282.643125 
Q 30.15 283.32 31.021875 283.32 
Q 31.884375 283.32 32.386875 282.64125 
Q 32.89125 281.960625 32.89125 280.78875 
Q 32.89125 279.6225 32.386875 278.94 
Q 31.884375 278.2575 31.021875 278.2575 
z
M 31.021875 277.344375 
Q 32.428125 277.344375 33.230625 278.259375 
Q 34.035 279.1725 34.035 280.78875 
Q 34.035 282.399375 33.230625 283.318125 
Q 32.428125 284.235 31.021875 284.235 
Q 29.61 284.235 28.809375 283.318125 
Q 28.010625 282.399375 28.010625 280.78875 
Q 28.010625 279.1725 28.809375 278.259375 
Q 29.61 277.344375 31.021875 277.344375 
z
M 40.930547 278.761875 
Q 41.335547 278.034375 41.898047 277.689375 
Q 42.460547 277.344375 43.221797 277.344375 
Q 44.247422 277.344375 44.804297 278.0625 
Q 45.361172 278.77875 45.361172 280.1025 
L 45.361172 284.064375 
L 44.277422 284.064375 
L 44.277422 280.138125 
Q 44.277422 279.195 43.941797 278.739375 
Q 43.608047 278.281875 42.923672 278.281875 
Q 42.085547 278.281875 41.598047 278.83875 
Q 41.112422 279.39375 41.112422 280.355625 
L 41.112422 284.064375 
L 40.028672 284.064375 
L 40.028672 280.138125 
Q 40.028672 279.189375 39.694922 278.735625 
Q 39.361172 278.281875 38.663672 278.281875 
Q 37.836797 278.281875 37.349297 278.840625 
Q 36.863672 279.399375 36.863672 280.355625 
L 36.863672 284.064375 
L 35.779922 284.064375 
L 35.779922 277.501875 
L 36.863672 277.501875 
L 36.863672 278.521875 
Q 37.233047 277.918125 37.748672 277.63125 
Q 38.264297 277.344375 38.973047 277.344375 
Q 39.689297 277.344375 40.189922 277.708125 
Q 40.690547 278.07 40.930547 278.761875 
z
M 52.496953 283.06875 
L 56.627578 283.06875 
L 56.627578 284.064375 
L 51.073828 284.064375 
L 51.073828 283.06875 
Q 51.746953 282.37125 52.909453 281.1975 
Q 54.073828 280.021875 54.371953 279.680625 
Q 54.940078 279.043125 55.165078 278.600625 
Q 55.391953 278.158125 55.391953 277.730625 
Q 55.391953 277.033125 54.902578 276.594375 
Q 54.413203 276.15375 53.627578 276.15375 
Q 53.070703 276.15375 52.451953 276.346875 
Q 51.835078 276.54 51.131953 276.93375 
L 51.131953 275.7375 
Q 51.846328 275.450625 52.466953 275.304375 
Q 53.089453 275.158125 53.605078 275.158125 
Q 54.964453 275.158125 55.772578 275.83875 
Q 56.580703 276.5175 56.580703 277.65375 
Q 56.580703 278.19375 56.378203 278.6775 
Q 56.177578 279.159375 55.643203 279.815625 
Q 55.496953 279.98625 54.711328 280.798125 
Q 53.927578 281.61 52.496953 283.06875 
z
M 61.642969 276.095625 
Q 60.729844 276.095625 60.268594 276.995625 
Q 59.809219 277.89375 59.809219 279.699375 
Q 59.809219 281.4975 60.268594 282.3975 
Q 60.729844 283.2975 61.642969 283.2975 
Q 62.563594 283.2975 63.022969 282.3975 
Q 63.484219 281.4975 63.484219 279.699375 
Q 63.484219 277.89375 63.022969 276.995625 
Q 62.563594 276.095625 61.642969 276.095625 
z
M 61.642969 275.158125 
Q 63.114844 275.158125 63.891094 276.3225 
Q 64.667344 277.485 64.667344 279.699375 
Q 64.667344 281.908125 63.891094 283.0725 
Q 63.114844 284.235 61.642969 284.235 
Q 60.172969 284.235 59.396719 283.0725 
Q 58.620469 281.908125 58.620469 279.699375 
Q 58.620469 277.485 59.396719 276.3225 
Q 60.172969 275.158125 61.642969 275.158125 
z
M 66.952734 283.06875 
L 68.885859 283.06875 
L 68.885859 276.39375 
L 66.782109 276.815625 
L 66.782109 275.7375 
L 68.874609 275.315625 
L 70.057734 275.315625 
L 70.057734 283.06875 
L 71.990859 283.06875 
L 71.990859 284.064375 
L 66.952734 284.064375 
L 66.952734 283.06875 
z
M 76.9125 276.095625 
Q 75.999375 276.095625 75.538125 276.995625 
Q 75.07875 277.89375 75.07875 279.699375 
Q 75.07875 281.4975 75.538125 282.3975 
Q 75.999375 283.2975 76.9125 283.2975 
Q 77.833125 283.2975 78.2925 282.3975 
Q 78.75375 281.4975 78.75375 279.699375 
Q 78.75375 277.89375 78.2925 276.995625 
Q 77.833125 276.095625 76.9125 276.095625 
z
M 76.9125 275.158125 
Q 78.384375 275.158125 79.160625 276.3225 
Q 79.936875 277.485 79.936875 279.699375 
Q 79.936875 281.908125 79.160625 283.0725 
Q 78.384375 284.235 76.9125 284.235 
Q 75.4425 284.235 74.66625 283.0725 
Q 73.89 281.908125 73.89 279.699375 
Q 73.89 277.485 74.66625 276.3225 
Q 75.4425 275.158125 76.9125 275.158125 
z
M 86.745469 275.638125 
L 86.745469 277.501875 
L 88.965469 277.501875 
L 88.965469 278.34 
L 86.745469 278.34 
L 86.745469 281.9025 
Q 86.745469 282.705 86.964844 282.93375 
Q 87.184219 283.1625 87.859219 283.1625 
L 88.965469 283.1625 
L 88.965469 284.064375 
L 87.859219 284.064375 
Q 86.610469 284.064375 86.136094 283.599375 
Q 85.661719 283.1325 85.661719 281.9025 
L 85.661719 278.34 
L 84.870469 278.34 
L 84.870469 277.501875 
L 85.661719 277.501875 
L 85.661719 275.638125 
L 86.745469 275.638125 
z
M 92.926172 278.2575 
Q 92.059922 278.2575 91.555547 278.934375 
Q 91.051172 279.61125 91.051172 280.78875 
Q 91.051172 281.96625 91.551797 282.643125 
Q 92.054297 283.32 92.926172 283.32 
Q 93.788672 283.32 94.291172 282.64125 
Q 94.795547 281.960625 94.795547 280.78875 
Q 94.795547 279.6225 94.291172 278.94 
Q 93.788672 278.2575 92.926172 278.2575 
z
M 92.926172 277.344375 
Q 94.332422 277.344375 95.134922 278.259375 
Q 95.939297 279.1725 95.939297 280.78875 
Q 95.939297 282.399375 95.134922 283.318125 
Q 94.332422 284.235 92.926172 284.235 
Q 91.514297 284.235 90.713672 283.318125 
Q 89.914922 282.399375 89.914922 280.78875 
Q 89.914922 279.1725 90.713672 278.259375 
Q 91.514297 277.344375 92.926172 277.344375 
z
M 102.711797 283.06875 
L 106.842422 283.06875 
L 106.842422 284.064375 
L 101.288672 284.064375 
L 101.288672 283.06875 
Q 101.961797 282.37125 103.124297 281.1975 
Q 104.288672 280.021875 104.586797 279.680625 
Q 105.154922 279.043125 105.379922 278.600625 
Q 105.606797 278.158125 105.606797 277.730625 
Q 105.606797 277.033125 105.117422 276.594375 
Q 104.628047 276.15375 103.842422 276.15375 
Q 103.285547 276.15375 102.666797 276.346875 
Q 102.049922 276.54 101.346797 276.93375 
L 101.346797 275.7375 
Q 102.061172 275.450625 102.681797 275.304375 
Q 103.304297 275.158125 103.819922 275.158125 
Q 105.179297 275.158125 105.987422 275.83875 
Q 106.795547 276.5175 106.795547 277.65375 
Q 106.795547 278.19375 106.593047 278.6775 
Q 106.392422 279.159375 105.858047 279.815625 
Q 105.711797 279.98625 104.926172 280.798125 
Q 104.142422 281.61 102.711797 283.06875 
z
M 111.857813 276.095625 
Q 110.944688 276.095625 110.483438 276.995625 
Q 110.024063 277.89375 110.024063 279.699375 
Q 110.024063 281.4975 110.483438 282.3975 
Q 110.944688 283.2975 111.857813 283.2975 
Q 112.778438 283.2975 113.237813 282.3975 
Q 113.699063 281.4975 113.699063 279.699375 
Q 113.699063 277.89375 113.237813 276.995625 
Q 112.778438 276.095625 111.857813 276.095625 
z
M 111.857813 275.158125 
Q 113.329688 275.158125 114.105938 276.3225 
Q 114.882188 277.485 114.882188 279.699375 
Q 114.882188 281.908125 114.105938 283.0725 
Q 113.329688 284.235 111.857813 284.235 
Q 110.387813 284.235 109.611563 283.0725 
Q 108.835313 281.908125 108.835313 279.699375 
Q 108.835313 277.485 109.611563 276.3225 
Q 110.387813 275.158125 111.857813 275.158125 
z
M 117.981328 283.06875 
L 122.111953 283.06875 
L 122.111953 284.064375 
L 116.558203 284.064375 
L 116.558203 283.06875 
Q 117.231328 282.37125 118.393828 281.1975 
Q 119.558203 280.021875 119.856328 279.680625 
Q 120.424453 279.043125 120.649453 278.600625 
Q 120.876328 278.158125 120.876328 277.730625 
Q 120.876328 277.033125 120.386953 276.594375 
Q 119.897578 276.15375 119.111953 276.15375 
Q 118.555078 276.15375 117.936328 276.346875 
Q 117.319453 276.54 116.616328 276.93375 
L 116.616328 275.7375 
Q 117.330703 275.450625 117.951328 275.304375 
Q 118.573828 275.158125 119.089453 275.158125 
Q 120.448828 275.158125 121.256953 275.83875 
Q 122.065078 276.5175 122.065078 277.65375 
Q 122.065078 278.19375 121.862578 278.6775 
Q 121.661953 279.159375 121.127578 279.815625 
Q 120.981328 279.98625 120.195703 280.798125 
Q 119.411953 281.61 117.981328 283.06875 
z
M 127.127344 276.095625 
Q 126.214219 276.095625 125.752969 276.995625 
Q 125.293594 277.89375 125.293594 279.699375 
Q 125.293594 281.4975 125.752969 282.3975 
Q 126.214219 283.2975 127.127344 283.2975 
Q 128.047969 283.2975 128.507344 282.3975 
Q 128.968594 281.4975 128.968594 279.699375 
Q 128.968594 277.89375 128.507344 276.995625 
Q 128.047969 276.095625 127.127344 276.095625 
z
M 127.127344 275.158125 
Q 128.599219 275.158125 129.375469 276.3225 
Q 130.151719 277.485 130.151719 279.699375 
Q 130.151719 281.908125 129.375469 283.0725 
Q 128.599219 284.235 127.127344 284.235 
Q 125.657344 284.235 124.881094 283.0725 
Q 124.104844 281.908125 124.104844 279.699375 
Q 124.104844 277.485 124.881094 276.3225 
Q 125.657344 275.158125 127.127344 275.158125 
z
" style="fill: #ffffff"/>
   </g>
  </g>
  <g id="axes_3">
   <g id="patch_4">
    <path d="M 104.982353 286.56 
L 129.6 286.56 
L 129.6 69.12 
L 104.982353 69.12 
L 104.982353 286.56 
z
" style="fill: none"/>
   </g>
  </g>
  <g id="axes_4">
   <g id="patch_5">
    <path d="M 18 504 
L 42.617647 504 
L 42.617647 286.56 
L 18 286.56 
L 18 504 
z
" style="fill: none"/>
   </g>
  </g>
  <g id="axes_5">
   <g id="patch_6">
    <path d="M 49.182353 504 
L 98.417647 504 
L 98.417647 286.56 
L 49.182353 286.56 
L 49.182353 504 
z
" style="fill: none"/>
   </g>
   <g id="patch_7">
    <path d="M 49.182353 494.116364 
L 96.073109 494.116364 
L 96.073109 469.407273 
L 49.182353 469.407273 
z
" clip-path="url(#pd4f9e398ac)" style="fill: #d73027"/>
   </g>
   <g id="patch_8">
    <path d="M 49.182353 469.407273 
L 96.073109 469.407273 
L 96.073109 444.698182 
L 49.182353 444.698182 
z
" clip-path="url(#pd4f9e398ac)" style="fill: #f46d43"/>
   </g>
   <g id="patch_9">
    <path d="M 49.182353 444.698182 
L 96.073109 444.698182 
L 96.073109 419.989091 
L 49.182353 419.989091 
z
" clip-path="url(#pd4f9e398ac)" style="fill: #fdae61"/>
   </g>
   <g id="patch_10">
    <path d="M 49.182353 419.989091 
L 96.073109 419.989091 
L 96.073109 395.28 
L 49.182353 395.28 
z
" clip-path="url(#pd4f9e398ac)" style="fill: #fee08b"/>
   </g>
   <g id="patch_11">
    <path d="M 49.182353 395.28 
L 96.073109 395.28 
L 96.073109 370.570909 
L 49.182353 370.570909 
z
" clip-path="url(#pd4f9e398ac)" style="fill: #d9ef8b"/>
   </g>
   <g id="patch_12">
    <path d="M 49.182353 370.570909 
L 96.073109 370.570909 
L 96.073109 345.861818 
L 49.182353 345.861818 
z
" clip-path="url(#pd4f9e398ac)" style="fill: #a6d96a"/>
   </g>
   <g id="patch_13">
    <path d="M 49.182353 345.861818 
L 96.073109 345.861818 
L 96.073109 321.152727 
L 49.182353 321.152727 
z
" clip-path="url(#pd4f9e398ac)" style="fill: #66bd63"/>
   </g>
   <g id="patch_14">
    <path d="M 49.182353 321.152727 
L 96.073109 321.152727 
L 96.073109 296.443636 
L 49.182353 296.443636 
z
" clip-path="url(#pd4f9e398ac)" style="fill: #1a9850"/>
   </g>
   <g id="text_2">
    <path d="M 51.810544 495.22125 
L 55.489294 495.22125 
L 55.489294 496.925625 
L 51.810544 496.925625 
L 51.810544 495.22125 
z
M 61.729762 494.810625 
Q 62.614762 495.039375 63.074137 495.605625 
Q 63.535387 496.17 63.535387 497.04375 
Q 63.535387 498.345 62.537887 499.021875 
Q 61.542262 499.69875 59.633512 499.69875 
Q 58.958512 499.69875 58.281637 499.59 
Q 57.604762 499.48125 56.942887 499.26375 
L 56.942887 497.52375 
Q 57.576637 497.840625 58.199137 498.001875 
Q 58.823512 498.163125 59.427262 498.163125 
Q 60.323512 498.163125 60.801637 497.85375 
Q 61.279762 497.5425 61.279762 496.96125 
Q 61.279762 496.363125 60.790387 496.055625 
Q 60.301012 495.748125 59.344762 495.748125 
L 58.442887 495.748125 
L 58.442887 494.295 
L 59.391637 494.295 
Q 60.242887 494.295 60.657262 494.02875 
Q 61.073512 493.7625 61.073512 493.216875 
Q 61.073512 492.714375 60.668512 492.43875 
Q 60.265387 492.163125 59.526637 492.163125 
Q 58.982887 492.163125 58.426012 492.286875 
Q 57.869137 492.40875 57.317887 492.64875 
L 57.317887 490.996875 
Q 57.985387 490.809375 58.641637 490.715625 
Q 59.297887 490.621875 59.931637 490.621875 
Q 61.636012 490.621875 62.481637 491.1825 
Q 63.329137 491.74125 63.329137 492.86625 
Q 63.329137 493.633125 62.924137 494.1225 
Q 62.521012 494.611875 61.729762 494.810625 
z
M 68.832497 495.21 
Q 68.239997 495.21 67.943747 495.594375 
Q 67.647497 495.976875 67.647497 496.745625 
Q 67.647497 497.5125 67.943747 497.896875 
Q 68.239997 498.279375 68.832497 498.279375 
Q 69.428747 498.279375 69.724997 497.896875 
Q 70.021247 497.5125 70.021247 496.745625 
Q 70.021247 495.976875 69.724997 495.594375 
Q 69.428747 495.21 68.832497 495.21 
z
M 71.620622 491.008125 
L 71.620622 492.62625 
Q 71.063747 492.361875 70.570622 492.23625 
Q 70.079372 492.110625 69.610622 492.110625 
Q 68.603747 492.110625 68.041247 492.67125 
Q 67.478747 493.23 67.384997 494.330625 
Q 67.771247 494.04375 68.221247 493.90125 
Q 68.673122 493.756875 69.207497 493.756875 
Q 70.548122 493.756875 71.371247 494.5425 
Q 72.194372 495.32625 72.194372 496.5975 
Q 72.194372 498.00375 71.273747 498.85125 
Q 70.354997 499.69875 68.808122 499.69875 
Q 67.103747 499.69875 66.168122 498.5475 
Q 65.234372 497.394375 65.234372 495.279375 
Q 65.234372 493.111875 66.327497 491.8725 
Q 67.420622 490.633125 69.323747 490.633125 
Q 69.927497 490.633125 70.495622 490.726875 
Q 71.063747 490.820625 71.620622 491.008125 
z
M 74.063981 497.26125 
L 76.173356 497.26125 
L 76.173356 499.528125 
L 74.063981 499.528125 
L 74.063981 497.26125 
z
M 82.987575 494.810625 
Q 83.872575 495.039375 84.33195 495.605625 
Q 84.7932 496.17 84.7932 497.04375 
Q 84.7932 498.345 83.7957 499.021875 
Q 82.800075 499.69875 80.891325 499.69875 
Q 80.216325 499.69875 79.53945 499.59 
Q 78.862575 499.48125 78.2007 499.26375 
L 78.2007 497.52375 
Q 78.83445 497.840625 79.45695 498.001875 
Q 80.081325 498.163125 80.685075 498.163125 
Q 81.581325 498.163125 82.05945 497.85375 
Q 82.537575 497.5425 82.537575 496.96125 
Q 82.537575 496.363125 82.0482 496.055625 
Q 81.558825 495.748125 80.602575 495.748125 
L 79.7007 495.748125 
L 79.7007 494.295 
L 80.64945 494.295 
Q 81.5007 494.295 81.915075 494.02875 
Q 82.331325 493.7625 82.331325 493.216875 
Q 82.331325 492.714375 81.926325 492.43875 
Q 81.5232 492.163125 80.78445 492.163125 
Q 80.2407 492.163125 79.683825 492.286875 
Q 79.12695 492.40875 78.5757 492.64875 
L 78.5757 490.996875 
Q 79.2432 490.809375 79.89945 490.715625 
Q 80.5557 490.621875 81.18945 490.621875 
Q 82.893825 490.621875 83.73945 491.1825 
Q 84.58695 491.74125 84.58695 492.86625 
Q 84.58695 493.633125 84.18195 494.1225 
Q 83.778825 494.611875 82.987575 494.810625 
z
M 86.949684 499.335 
L 86.949684 497.716875 
Q 87.487809 497.97 87.979059 498.095625 
Q 88.472184 498.22125 88.952184 498.22125 
Q 89.960934 498.22125 90.523434 497.6625 
Q 91.085934 497.101875 91.185309 496.00125 
Q 90.787809 496.29375 90.335934 496.44 
Q 89.884059 496.58625 89.357184 496.58625 
Q 88.014684 496.58625 87.191559 495.804375 
Q 86.368434 495.0225 86.368434 493.745625 
Q 86.368434 492.331875 87.285309 491.4825 
Q 88.202184 490.633125 89.743434 490.633125 
Q 91.455309 490.633125 92.392809 491.788125 
Q 93.330309 492.94125 93.330309 495.050625 
Q 93.330309 497.22 92.233434 498.459375 
Q 91.138434 499.69875 89.227809 499.69875 
Q 88.612809 499.69875 88.050309 499.606875 
Q 87.487809 499.516875 86.949684 499.335 
z
M 89.732184 495.121875 
Q 90.324684 495.121875 90.622809 494.739375 
Q 90.920934 494.355 90.920934 493.58625 
Q 90.920934 492.825 90.622809 492.43875 
Q 90.324684 492.050625 89.732184 492.050625 
Q 89.139684 492.050625 88.841559 492.43875 
Q 88.543434 492.825 88.543434 493.58625 
Q 88.543434 494.355 88.841559 494.739375 
Q 89.139684 495.121875 89.732184 495.121875 
z
" style="stroke: #ffffff"/>
    <path d="M 51.810544 495.22125 
L 55.489294 495.22125 
L 55.489294 496.925625 
L 51.810544 496.925625 
L 51.810544 495.22125 
z
M 61.729762 494.810625 
Q 62.614762 495.039375 63.074137 495.605625 
Q 63.535387 496.17 63.535387 497.04375 
Q 63.535387 498.345 62.537887 499.021875 
Q 61.542262 499.69875 59.633512 499.69875 
Q 58.958512 499.69875 58.281637 499.59 
Q 57.604762 499.48125 56.942887 499.26375 
L 56.942887 497.52375 
Q 57.576637 497.840625 58.199137 498.001875 
Q 58.823512 498.163125 59.427262 498.163125 
Q 60.323512 498.163125 60.801637 497.85375 
Q 61.279762 497.5425 61.279762 496.96125 
Q 61.279762 496.363125 60.790387 496.055625 
Q 60.301012 495.748125 59.344762 495.748125 
L 58.442887 495.748125 
L 58.442887 494.295 
L 59.391637 494.295 
Q 60.242887 494.295 60.657262 494.02875 
Q 61.073512 493.7625 61.073512 493.216875 
Q 61.073512 492.714375 60.668512 492.43875 
Q 60.265387 492.163125 59.526637 492.163125 
Q 58.982887 492.163125 58.426012 492.286875 
Q 57.869137 492.40875 57.317887 492.64875 
L 57.317887 490.996875 
Q 57.985387 490.809375 58.641637 490.715625 
Q 59.297887 490.621875 59.931637 490.621875 
Q 61.636012 490.621875 62.481637 491.1825 
Q 63.329137 491.74125 63.329137 492.86625 
Q 63.329137 493.633125 62.924137 494.1225 
Q 62.521012 494.611875 61.729762 494.810625 
z
M 68.832497 495.21 
Q 68.239997 495.21 67.943747 495.594375 
Q 67.647497 495.976875 67.647497 496.745625 
Q 67.647497 497.5125 67.943747 497.896875 
Q 68.239997 498.279375 68.832497 498.279375 
Q 69.428747 498.279375 69.724997 497.896875 
Q 70.021247 497.5125 70.021247 496.745625 
Q 70.021247 495.976875 69.724997 495.594375 
Q 69.428747 495.21 68.832497 495.21 
z
M 71.620622 491.008125 
L 71.620622 492.62625 
Q 71.063747 492.361875 70.570622 492.23625 
Q 70.079372 492.110625 69.610622 492.110625 
Q 68.603747 492.110625 68.041247 492.67125 
Q 67.478747 493.23 67.384997 494.330625 
Q 67.771247 494.04375 68.221247 493.90125 
Q 68.673122 493.756875 69.207497 493.756875 
Q 70.548122 493.756875 71.371247 494.5425 
Q 72.194372 495.32625 72.194372 496.5975 
Q 72.194372 498.00375 71.273747 498.85125 
Q 70.354997 499.69875 68.808122 499.69875 
Q 67.103747 499.69875 66.168122 498.5475 
Q 65.234372 497.394375 65.234372 495.279375 
Q 65.234372 493.111875 66.327497 491.8725 
Q 67.420622 490.633125 69.323747 490.633125 
Q 69.927497 490.633125 70.495622 490.726875 
Q 71.063747 490.820625 71.620622 491.008125 
z
M 74.063981 497.26125 
L 76.173356 497.26125 
L 76.173356 499.528125 
L 74.063981 499.528125 
L 74.063981 497.26125 
z
M 82.987575 494.810625 
Q 83.872575 495.039375 84.33195 495.605625 
Q 84.7932 496.17 84.7932 497.04375 
Q 84.7932 498.345 83.7957 499.021875 
Q 82.800075 499.69875 80.891325 499.69875 
Q 80.216325 499.69875 79.53945 499.59 
Q 78.862575 499.48125 78.2007 499.26375 
L 78.2007 497.52375 
Q 78.83445 497.840625 79.45695 498.001875 
Q 80.081325 498.163125 80.685075 498.163125 
Q 81.581325 498.163125 82.05945 497.85375 
Q 82.537575 497.5425 82.537575 496.96125 
Q 82.537575 496.363125 82.0482 496.055625 
Q 81.558825 495.748125 80.602575 495.748125 
L 79.7007 495.748125 
L 79.7007 494.295 
L 80.64945 494.295 
Q 81.5007 494.295 81.915075 494.02875 
Q 82.331325 493.7625 82.331325 493.216875 
Q 82.331325 492.714375 81.926325 492.43875 
Q 81.5232 492.163125 80.78445 492.163125 
Q 80.2407 492.163125 79.683825 492.286875 
Q 79.12695 492.40875 78.5757 492.64875 
L 78.5757 490.996875 
Q 79.2432 490.809375 79.89945 490.715625 
Q 80.5557 490.621875 81.18945 490.621875 
Q 82.893825 490.621875 83.73945 491.1825 
Q 84.58695 491.74125 84.58695 492.86625 
Q 84.58695 493.633125 84.18195 494.1225 
Q 83.778825 494.611875 82.987575 494.810625 
z
M 86.949684 499.335 
L 86.949684 497.716875 
Q 87.487809 497.97 87.979059 498.095625 
Q 88.472184 498.22125 88.952184 498.22125 
Q 89.960934 498.22125 90.523434 497.6625 
Q 91.085934 497.101875 91.185309 496.00125 
Q 90.787809 496.29375 90.335934 496.44 
Q 89.884059 496.58625 89.357184 496.58625 
Q 88.014684 496.58625 87.191559 495.804375 
Q 86.368434 495.0225 86.368434 493.745625 
Q 86.368434 492.331875 87.285309 491.4825 
Q 88.202184 490.633125 89.743434 490.633125 
Q 91.455309 490.633125 92.392809 491.788125 
Q 93.330309 492.94125 93.330309 495.050625 
Q 93.330309 497.22 92.233434 498.459375 
Q 91.138434 499.69875 89.227809 499.69875 
Q 88.612809 499.69875 88.050309 499.606875 
Q 87.487809 499.516875 86.949684 499.335 
z
M 89.732184 495.121875 
Q 90.324684 495.121875 90.622809 494.739375 
Q 90.920934 494.355 90.920934 493.58625 
Q 90.920934 492.825 90.622809 492.43875 
Q 90.324684 492.050625 89.732184 492.050625 
Q 89.139684 492.050625 88.841559 492.43875 
Q 88.543434 492.825 88.543434 493.58625 
Q 88.543434 494.355 88.841559 494.739375 
Q 89.139684 495.121875 89.732184 495.121875 
z
"/>
   </g>
   <g id="text_3">
    <path d="M 60.159919 470.512159 
L 63.838669 470.512159 
L 63.838669 472.216534 
L 60.159919 472.216534 
L 60.159919 470.512159 
z
M 65.691637 474.625909 
L 65.691637 473.007784 
Q 66.229762 473.260909 66.721012 473.386534 
Q 67.214137 473.512159 67.694137 473.512159 
Q 68.702887 473.512159 69.265387 472.953409 
Q 69.827887 472.392784 69.927262 471.292159 
Q 69.529762 471.584659 69.077887 471.730909 
Q 68.626012 471.877159 68.099137 471.877159 
Q 66.756637 471.877159 65.933512 471.095284 
Q 65.110387 470.313409 65.110387 469.036534 
Q 65.110387 467.622784 66.027262 466.773409 
Q 66.944137 465.924034 68.485387 465.924034 
Q 70.197262 465.924034 71.134762 467.079034 
Q 72.072262 468.232159 72.072262 470.341534 
Q 72.072262 472.510909 70.975387 473.750284 
Q 69.880387 474.989659 67.969762 474.989659 
Q 67.354762 474.989659 66.792262 474.897784 
Q 66.229762 474.807784 65.691637 474.625909 
z
M 68.474137 470.412784 
Q 69.066637 470.412784 69.364762 470.030284 
Q 69.662887 469.645909 69.662887 468.877159 
Q 69.662887 468.115909 69.364762 467.729659 
Q 69.066637 467.341534 68.474137 467.341534 
Q 67.881637 467.341534 67.583512 467.729659 
Q 67.285387 468.115909 67.285387 468.877159 
Q 67.285387 469.645909 67.583512 470.030284 
Q 67.881637 470.412784 68.474137 470.412784 
z
M 74.063747 472.552159 
L 76.173122 472.552159 
L 76.173122 474.819034 
L 74.063747 474.819034 
L 74.063747 472.552159 
z
M 82.917965 470.435284 
Q 82.917965 468.794659 82.610465 468.125284 
Q 82.302965 467.454034 81.575465 467.454034 
Q 80.84984 467.454034 80.53859 468.125284 
Q 80.22734 468.794659 80.22734 470.435284 
Q 80.22734 472.094659 80.53859 472.775284 
Q 80.84984 473.454034 81.575465 473.454034 
Q 82.29734 473.454034 82.606715 472.775284 
Q 82.917965 472.094659 82.917965 470.435284 
z
M 85.17359 470.454034 
Q 85.17359 472.627159 84.23609 473.808409 
Q 83.29859 474.989659 81.575465 474.989659 
Q 79.846715 474.989659 78.909215 473.808409 
Q 77.971715 472.627159 77.971715 470.454034 
Q 77.971715 468.273409 78.909215 467.094034 
Q 79.846715 465.912784 81.575465 465.912784 
Q 83.29859 465.912784 84.23609 467.094034 
Q 85.17359 468.273409 85.17359 470.454034 
z
" style="stroke: #ffffff"/>
    <path d="M 60.159919 470.512159 
L 63.838669 470.512159 
L 63.838669 472.216534 
L 60.159919 472.216534 
L 60.159919 470.512159 
z
M 65.691637 474.625909 
L 65.691637 473.007784 
Q 66.229762 473.260909 66.721012 473.386534 
Q 67.214137 473.512159 67.694137 473.512159 
Q 68.702887 473.512159 69.265387 472.953409 
Q 69.827887 472.392784 69.927262 471.292159 
Q 69.529762 471.584659 69.077887 471.730909 
Q 68.626012 471.877159 68.099137 471.877159 
Q 66.756637 471.877159 65.933512 471.095284 
Q 65.110387 470.313409 65.110387 469.036534 
Q 65.110387 467.622784 66.027262 466.773409 
Q 66.944137 465.924034 68.485387 465.924034 
Q 70.197262 465.924034 71.134762 467.079034 
Q 72.072262 468.232159 72.072262 470.341534 
Q 72.072262 472.510909 70.975387 473.750284 
Q 69.880387 474.989659 67.969762 474.989659 
Q 67.354762 474.989659 66.792262 474.897784 
Q 66.229762 474.807784 65.691637 474.625909 
z
M 68.474137 470.412784 
Q 69.066637 470.412784 69.364762 470.030284 
Q 69.662887 469.645909 69.662887 468.877159 
Q 69.662887 468.115909 69.364762 467.729659 
Q 69.066637 467.341534 68.474137 467.341534 
Q 67.881637 467.341534 67.583512 467.729659 
Q 67.285387 468.115909 67.285387 468.877159 
Q 67.285387 469.645909 67.583512 470.030284 
Q 67.881637 470.412784 68.474137 470.412784 
z
M 74.063747 472.552159 
L 76.173122 472.552159 
L 76.173122 474.819034 
L 74.063747 474.819034 
L 74.063747 472.552159 
z
M 82.917965 470.435284 
Q 82.917965 468.794659 82.610465 468.125284 
Q 82.302965 467.454034 81.575465 467.454034 
Q 80.84984 467.454034 80.53859 468.125284 
Q 80.22734 468.794659 80.22734 470.435284 
Q 80.22734 472.094659 80.53859 472.775284 
Q 80.84984 473.454034 81.575465 473.454034 
Q 82.29734 473.454034 82.606715 472.775284 
Q 82.917965 472.094659 82.917965 470.435284 
z
M 85.17359 470.454034 
Q 85.17359 472.627159 84.23609 473.808409 
Q 83.29859 474.989659 81.575465 474.989659 
Q 79.846715 474.989659 78.909215 473.808409 
Q 77.971715 472.627159 77.971715 470.454034 
Q 77.971715 468.273409 78.909215 467.094034 
Q 79.846715 465.912784 81.575465 465.912784 
Q 83.29859 465.912784 84.23609 467.094034 
Q 85.17359 468.273409 85.17359 470.454034 
z
"/>
   </g>
   <g id="text_4">
    <path d="M 55.985231 445.803068 
L 59.663981 445.803068 
L 59.663981 447.507443 
L 55.985231 447.507443 
L 55.985231 445.803068 
z
M 61.586325 441.361193 
L 67.19445 441.361193 
L 67.19445 443.020568 
L 63.386325 443.020568 
L 63.386325 444.374318 
Q 63.6432 444.303068 63.903825 444.265568 
Q 64.16445 444.226193 64.4457 444.226193 
Q 66.045075 444.226193 66.9357 445.026818 
Q 67.826325 445.827443 67.826325 447.256193 
Q 67.826325 448.673693 66.85695 449.478068 
Q 65.887575 450.280568 64.16445 450.280568 
Q 63.420075 450.280568 62.6907 450.136193 
Q 61.961325 449.991818 61.241325 449.699318 
L 61.241325 447.923693 
Q 61.9557 448.334318 62.59695 448.540568 
Q 63.2382 448.744943 63.8082 448.744943 
Q 64.627575 448.744943 65.0982 448.343693 
Q 65.5707 447.942443 65.5707 447.256193 
Q 65.5707 446.564318 65.0982 446.166818 
Q 64.627575 445.767443 63.8082 445.767443 
Q 63.3207 445.767443 62.76945 445.894943 
Q 62.220075 446.020568 61.586325 446.283068 
L 61.586325 441.361193 
z
M 69.889059 447.843068 
L 71.998434 447.843068 
L 71.998434 450.109943 
L 69.889059 450.109943 
L 69.889059 447.843068 
z
M 74.494528 441.361193 
L 80.102653 441.361193 
L 80.102653 443.020568 
L 76.294528 443.020568 
L 76.294528 444.374318 
Q 76.551403 444.303068 76.812028 444.265568 
Q 77.072653 444.226193 77.353903 444.226193 
Q 78.953278 444.226193 79.843903 445.026818 
Q 80.734528 445.827443 80.734528 447.256193 
Q 80.734528 448.673693 79.765153 449.478068 
Q 78.795778 450.280568 77.072653 450.280568 
Q 76.328278 450.280568 75.598903 450.136193 
Q 74.869528 449.991818 74.149528 449.699318 
L 74.149528 447.923693 
Q 74.863903 448.334318 75.505153 448.540568 
Q 76.146403 448.744943 76.716403 448.744943 
Q 77.535778 448.744943 78.006403 448.343693 
Q 78.478903 447.942443 78.478903 447.256193 
Q 78.478903 446.564318 78.006403 446.166818 
Q 77.535778 445.767443 76.716403 445.767443 
Q 76.228903 445.767443 75.677653 445.894943 
Q 75.128278 446.020568 74.494528 446.283068 
L 74.494528 441.361193 
z
M 85.990387 443.219318 
L 83.519137 446.881193 
L 85.990387 446.881193 
L 85.990387 443.219318 
z
M 85.615387 441.361193 
L 88.124137 441.361193 
L 88.124137 446.881193 
L 89.371012 446.881193 
L 89.371012 448.516193 
L 88.124137 448.516193 
L 88.124137 450.109943 
L 85.990387 450.109943 
L 85.990387 448.516193 
L 82.112887 448.516193 
L 82.112887 446.583068 
L 85.615387 441.361193 
z
" style="stroke: #ffffff"/>
    <path d="M 55.985231 445.803068 
L 59.663981 445.803068 
L 59.663981 447.507443 
L 55.985231 447.507443 
L 55.985231 445.803068 
z
M 61.586325 441.361193 
L 67.19445 441.361193 
L 67.19445 443.020568 
L 63.386325 443.020568 
L 63.386325 444.374318 
Q 63.6432 444.303068 63.903825 444.265568 
Q 64.16445 444.226193 64.4457 444.226193 
Q 66.045075 444.226193 66.9357 445.026818 
Q 67.826325 445.827443 67.826325 447.256193 
Q 67.826325 448.673693 66.85695 449.478068 
Q 65.887575 450.280568 64.16445 450.280568 
Q 63.420075 450.280568 62.6907 450.136193 
Q 61.961325 449.991818 61.241325 449.699318 
L 61.241325 447.923693 
Q 61.9557 448.334318 62.59695 448.540568 
Q 63.2382 448.744943 63.8082 448.744943 
Q 64.627575 448.744943 65.0982 448.343693 
Q 65.5707 447.942443 65.5707 447.256193 
Q 65.5707 446.564318 65.0982 446.166818 
Q 64.627575 445.767443 63.8082 445.767443 
Q 63.3207 445.767443 62.76945 445.894943 
Q 62.220075 446.020568 61.586325 446.283068 
L 61.586325 441.361193 
z
M 69.889059 447.843068 
L 71.998434 447.843068 
L 71.998434 450.109943 
L 69.889059 450.109943 
L 69.889059 447.843068 
z
M 74.494528 441.361193 
L 80.102653 441.361193 
L 80.102653 443.020568 
L 76.294528 443.020568 
L 76.294528 444.374318 
Q 76.551403 444.303068 76.812028 444.265568 
Q 77.072653 444.226193 77.353903 444.226193 
Q 78.953278 444.226193 79.843903 445.026818 
Q 80.734528 445.827443 80.734528 447.256193 
Q 80.734528 448.673693 79.765153 449.478068 
Q 78.795778 450.280568 77.072653 450.280568 
Q 76.328278 450.280568 75.598903 450.136193 
Q 74.869528 449.991818 74.149528 449.699318 
L 74.149528 447.923693 
Q 74.863903 448.334318 75.505153 448.540568 
Q 76.146403 448.744943 76.716403 448.744943 
Q 77.535778 448.744943 78.006403 448.343693 
Q 78.478903 447.942443 78.478903 447.256193 
Q 78.478903 446.564318 78.006403 446.166818 
Q 77.535778 445.767443 76.716403 445.767443 
Q 76.228903 445.767443 75.677653 445.894943 
Q 75.128278 446.020568 74.494528 446.283068 
L 74.494528 441.361193 
z
M 85.990387 443.219318 
L 83.519137 446.881193 
L 85.990387 446.881193 
L 85.990387 443.219318 
z
M 85.615387 441.361193 
L 88.124137 441.361193 
L 88.124137 446.881193 
L 89.371012 446.881193 
L 89.371012 448.516193 
L 88.124137 448.516193 
L 88.124137 450.109943 
L 85.990387 450.109943 
L 85.990387 448.516193 
L 82.112887 448.516193 
L 82.112887 446.583068 
L 85.615387 441.361193 
z
"/>
   </g>
   <g id="text_5">
    <path d="M 55.985231 421.093977 
L 59.663981 421.093977 
L 59.663981 422.798352 
L 55.985231 422.798352 
L 55.985231 421.093977 
z
M 65.90445 420.683352 
Q 66.78945 420.912102 67.248825 421.478352 
Q 67.710075 422.042727 67.710075 422.916477 
Q 67.710075 424.217727 66.712575 424.894602 
Q 65.71695 425.571477 63.8082 425.571477 
Q 63.1332 425.571477 62.456325 425.462727 
Q 61.77945 425.353977 61.117575 425.136477 
L 61.117575 423.396477 
Q 61.751325 423.713352 62.373825 423.874602 
Q 62.9982 424.035852 63.60195 424.035852 
Q 64.4982 424.035852 64.976325 423.726477 
Q 65.45445 423.415227 65.45445 422.833977 
Q 65.45445 422.235852 64.965075 421.928352 
Q 64.4757 421.620852 63.51945 421.620852 
L 62.617575 421.620852 
L 62.617575 420.167727 
L 63.566325 420.167727 
Q 64.417575 420.167727 64.83195 419.901477 
Q 65.2482 419.635227 65.2482 419.089602 
Q 65.2482 418.587102 64.8432 418.311477 
Q 64.440075 418.035852 63.701325 418.035852 
Q 63.157575 418.035852 62.6007 418.159602 
Q 62.043825 418.281477 61.492575 418.521477 
L 61.492575 416.869602 
Q 62.160075 416.682102 62.816325 416.588352 
Q 63.472575 416.494602 64.106325 416.494602 
Q 65.8107 416.494602 66.656325 417.055227 
Q 67.503825 417.613977 67.503825 418.738977 
Q 67.503825 419.505852 67.098825 419.995227 
Q 66.6957 420.484602 65.90445 420.683352 
z
M 69.889059 423.133977 
L 71.998434 423.133977 
L 71.998434 425.400852 
L 69.889059 425.400852 
L 69.889059 423.133977 
z
M 78.743278 421.017102 
Q 78.743278 419.376477 78.435778 418.707102 
Q 78.128278 418.035852 77.400778 418.035852 
Q 76.675153 418.035852 76.363903 418.707102 
Q 76.052653 419.376477 76.052653 421.017102 
Q 76.052653 422.676477 76.363903 423.357102 
Q 76.675153 424.035852 77.400778 424.035852 
Q 78.122653 424.035852 78.432028 423.357102 
Q 78.743278 422.676477 78.743278 421.017102 
z
M 80.998903 421.035852 
Q 80.998903 423.208977 80.061403 424.390227 
Q 79.123903 425.571477 77.400778 425.571477 
Q 75.672028 425.571477 74.734528 424.390227 
Q 73.797028 423.208977 73.797028 421.035852 
Q 73.797028 418.855227 74.734528 417.675852 
Q 75.672028 416.494602 77.400778 416.494602 
Q 79.123903 416.494602 80.061403 417.675852 
Q 80.998903 418.855227 80.998903 421.035852 
z
M 85.750387 421.485852 
Q 85.118512 421.485852 84.777262 421.832727 
Q 84.437887 422.177727 84.437887 422.822727 
Q 84.437887 423.467727 84.777262 423.810852 
Q 85.118512 424.152102 85.750387 424.152102 
Q 86.378512 424.152102 86.712262 423.810852 
Q 87.046012 423.467727 87.046012 422.822727 
Q 87.046012 422.172102 86.712262 421.828977 
Q 86.378512 421.485852 85.750387 421.485852 
z
M 84.104137 420.743352 
Q 83.307262 420.501477 82.902262 420.004602 
Q 82.499137 419.505852 82.499137 418.761477 
Q 82.499137 417.655227 83.324137 417.075852 
Q 84.151012 416.494602 85.750387 416.494602 
Q 87.338512 416.494602 88.163512 417.072102 
Q 88.990387 417.649602 88.990387 418.761477 
Q 88.990387 419.505852 88.583512 420.004602 
Q 88.176637 420.501477 87.379762 420.743352 
Q 88.270387 420.988977 88.724137 421.542102 
Q 89.177887 422.095227 89.177887 422.938977 
Q 89.177887 424.240227 88.313512 424.905852 
Q 87.449137 425.571477 85.750387 425.571477 
Q 84.046012 425.571477 83.176012 424.905852 
Q 82.306012 424.240227 82.306012 422.938977 
Q 82.306012 422.095227 82.759762 421.542102 
Q 83.213512 420.988977 84.104137 420.743352 
z
M 84.631012 418.990227 
Q 84.631012 419.511477 84.921637 419.792727 
Q 85.212262 420.073977 85.750387 420.073977 
Q 86.277262 420.073977 86.564137 419.792727 
Q 86.852887 419.511477 86.852887 418.990227 
Q 86.852887 418.468977 86.564137 418.191477 
Q 86.277262 417.912102 85.750387 417.912102 
Q 85.212262 417.912102 84.921637 418.193352 
Q 84.631012 418.474602 84.631012 418.990227 
z
" style="stroke: #ffffff"/>
    <path d="M 55.985231 421.093977 
L 59.663981 421.093977 
L 59.663981 422.798352 
L 55.985231 422.798352 
L 55.985231 421.093977 
z
M 65.90445 420.683352 
Q 66.78945 420.912102 67.248825 421.478352 
Q 67.710075 422.042727 67.710075 422.916477 
Q 67.710075 424.217727 66.712575 424.894602 
Q 65.71695 425.571477 63.8082 425.571477 
Q 63.1332 425.571477 62.456325 425.462727 
Q 61.77945 425.353977 61.117575 425.136477 
L 61.117575 423.396477 
Q 61.751325 423.713352 62.373825 423.874602 
Q 62.9982 424.035852 63.60195 424.035852 
Q 64.4982 424.035852 64.976325 423.726477 
Q 65.45445 423.415227 65.45445 422.833977 
Q 65.45445 422.235852 64.965075 421.928352 
Q 64.4757 421.620852 63.51945 421.620852 
L 62.617575 421.620852 
L 62.617575 420.167727 
L 63.566325 420.167727 
Q 64.417575 420.167727 64.83195 419.901477 
Q 65.2482 419.635227 65.2482 419.089602 
Q 65.2482 418.587102 64.8432 418.311477 
Q 64.440075 418.035852 63.701325 418.035852 
Q 63.157575 418.035852 62.6007 418.159602 
Q 62.043825 418.281477 61.492575 418.521477 
L 61.492575 416.869602 
Q 62.160075 416.682102 62.816325 416.588352 
Q 63.472575 416.494602 64.106325 416.494602 
Q 65.8107 416.494602 66.656325 417.055227 
Q 67.503825 417.613977 67.503825 418.738977 
Q 67.503825 419.505852 67.098825 419.995227 
Q 66.6957 420.484602 65.90445 420.683352 
z
M 69.889059 423.133977 
L 71.998434 423.133977 
L 71.998434 425.400852 
L 69.889059 425.400852 
L 69.889059 423.133977 
z
M 78.743278 421.017102 
Q 78.743278 419.376477 78.435778 418.707102 
Q 78.128278 418.035852 77.400778 418.035852 
Q 76.675153 418.035852 76.363903 418.707102 
Q 76.052653 419.376477 76.052653 421.017102 
Q 76.052653 422.676477 76.363903 423.357102 
Q 76.675153 424.035852 77.400778 424.035852 
Q 78.122653 424.035852 78.432028 423.357102 
Q 78.743278 422.676477 78.743278 421.017102 
z
M 80.998903 421.035852 
Q 80.998903 423.208977 80.061403 424.390227 
Q 79.123903 425.571477 77.400778 425.571477 
Q 75.672028 425.571477 74.734528 424.390227 
Q 73.797028 423.208977 73.797028 421.035852 
Q 73.797028 418.855227 74.734528 417.675852 
Q 75.672028 416.494602 77.400778 416.494602 
Q 79.123903 416.494602 80.061403 417.675852 
Q 80.998903 418.855227 80.998903 421.035852 
z
M 85.750387 421.485852 
Q 85.118512 421.485852 84.777262 421.832727 
Q 84.437887 422.177727 84.437887 422.822727 
Q 84.437887 423.467727 84.777262 423.810852 
Q 85.118512 424.152102 85.750387 424.152102 
Q 86.378512 424.152102 86.712262 423.810852 
Q 87.046012 423.467727 87.046012 422.822727 
Q 87.046012 422.172102 86.712262 421.828977 
Q 86.378512 421.485852 85.750387 421.485852 
z
M 84.104137 420.743352 
Q 83.307262 420.501477 82.902262 420.004602 
Q 82.499137 419.505852 82.499137 418.761477 
Q 82.499137 417.655227 83.324137 417.075852 
Q 84.151012 416.494602 85.750387 416.494602 
Q 87.338512 416.494602 88.163512 417.072102 
Q 88.990387 417.649602 88.990387 418.761477 
Q 88.990387 419.505852 88.583512 420.004602 
Q 88.176637 420.501477 87.379762 420.743352 
Q 88.270387 420.988977 88.724137 421.542102 
Q 89.177887 422.095227 89.177887 422.938977 
Q 89.177887 424.240227 88.313512 424.905852 
Q 87.449137 425.571477 85.750387 425.571477 
Q 84.046012 425.571477 83.176012 424.905852 
Q 82.306012 424.240227 82.306012 422.938977 
Q 82.306012 422.095227 82.759762 421.542102 
Q 83.213512 420.988977 84.104137 420.743352 
z
M 84.631012 418.990227 
Q 84.631012 419.511477 84.921637 419.792727 
Q 85.212262 420.073977 85.750387 420.073977 
Q 86.277262 420.073977 86.564137 419.792727 
Q 86.852887 419.511477 86.852887 418.990227 
Q 86.852887 418.468977 86.564137 418.191477 
Q 86.277262 417.912102 85.750387 417.912102 
Q 85.212262 417.912102 84.921637 418.193352 
Q 84.631012 418.474602 84.631012 418.990227 
z
"/>
   </g>
   <g id="text_6">
    <path d="M 55.985231 396.384886 
L 59.663981 396.384886 
L 59.663981 398.089261 
L 55.985231 398.089261 
L 55.985231 396.384886 
z
M 65.835075 396.308011 
Q 65.835075 394.667386 65.527575 393.998011 
Q 65.220075 393.326761 64.492575 393.326761 
Q 63.76695 393.326761 63.4557 393.998011 
Q 63.14445 394.667386 63.14445 396.308011 
Q 63.14445 397.967386 63.4557 398.648011 
Q 63.76695 399.326761 64.492575 399.326761 
Q 65.21445 399.326761 65.523825 398.648011 
Q 65.835075 397.967386 65.835075 396.308011 
z
M 68.0907 396.326761 
Q 68.0907 398.499886 67.1532 399.681136 
Q 66.2157 400.862386 64.492575 400.862386 
Q 62.763825 400.862386 61.826325 399.681136 
Q 60.888825 398.499886 60.888825 396.326761 
Q 60.888825 394.146136 61.826325 392.966761 
Q 62.763825 391.785511 64.492575 391.785511 
Q 66.2157 391.785511 67.1532 392.966761 
Q 68.0907 394.146136 68.0907 396.326761 
z
M 69.889059 398.424886 
L 71.998434 398.424886 
L 71.998434 400.691761 
L 69.889059 400.691761 
L 69.889059 398.424886 
z
M 74.025778 391.943011 
L 80.618278 391.943011 
L 80.618278 393.214261 
L 77.207653 400.691761 
L 75.010153 400.691761 
L 78.238903 393.602386 
L 74.025778 393.602386 
L 74.025778 391.943011 
z
M 85.750387 396.776761 
Q 85.118512 396.776761 84.777262 397.123636 
Q 84.437887 397.468636 84.437887 398.113636 
Q 84.437887 398.758636 84.777262 399.101761 
Q 85.118512 399.443011 85.750387 399.443011 
Q 86.378512 399.443011 86.712262 399.101761 
Q 87.046012 398.758636 87.046012 398.113636 
Q 87.046012 397.463011 86.712262 397.119886 
Q 86.378512 396.776761 85.750387 396.776761 
z
M 84.104137 396.034261 
Q 83.307262 395.792386 82.902262 395.295511 
Q 82.499137 394.796761 82.499137 394.052386 
Q 82.499137 392.946136 83.324137 392.366761 
Q 84.151012 391.785511 85.750387 391.785511 
Q 87.338512 391.785511 88.163512 392.363011 
Q 88.990387 392.940511 88.990387 394.052386 
Q 88.990387 394.796761 88.583512 395.295511 
Q 88.176637 395.792386 87.379762 396.034261 
Q 88.270387 396.279886 88.724137 396.833011 
Q 89.177887 397.386136 89.177887 398.229886 
Q 89.177887 399.531136 88.313512 400.196761 
Q 87.449137 400.862386 85.750387 400.862386 
Q 84.046012 400.862386 83.176012 400.196761 
Q 82.306012 399.531136 82.306012 398.229886 
Q 82.306012 397.386136 82.759762 396.833011 
Q 83.213512 396.279886 84.104137 396.034261 
z
M 84.631012 394.281136 
Q 84.631012 394.802386 84.921637 395.083636 
Q 85.212262 395.364886 85.750387 395.364886 
Q 86.277262 395.364886 86.564137 395.083636 
Q 86.852887 394.802386 86.852887 394.281136 
Q 86.852887 393.759886 86.564137 393.482386 
Q 86.277262 393.203011 85.750387 393.203011 
Q 85.212262 393.203011 84.921637 393.484261 
Q 84.631012 393.765511 84.631012 394.281136 
z
" style="stroke: #ffffff"/>
    <path d="M 55.985231 396.384886 
L 59.663981 396.384886 
L 59.663981 398.089261 
L 55.985231 398.089261 
L 55.985231 396.384886 
z
M 65.835075 396.308011 
Q 65.835075 394.667386 65.527575 393.998011 
Q 65.220075 393.326761 64.492575 393.326761 
Q 63.76695 393.326761 63.4557 393.998011 
Q 63.14445 394.667386 63.14445 396.308011 
Q 63.14445 397.967386 63.4557 398.648011 
Q 63.76695 399.326761 64.492575 399.326761 
Q 65.21445 399.326761 65.523825 398.648011 
Q 65.835075 397.967386 65.835075 396.308011 
z
M 68.0907 396.326761 
Q 68.0907 398.499886 67.1532 399.681136 
Q 66.2157 400.862386 64.492575 400.862386 
Q 62.763825 400.862386 61.826325 399.681136 
Q 60.888825 398.499886 60.888825 396.326761 
Q 60.888825 394.146136 61.826325 392.966761 
Q 62.763825 391.785511 64.492575 391.785511 
Q 66.2157 391.785511 67.1532 392.966761 
Q 68.0907 394.146136 68.0907 396.326761 
z
M 69.889059 398.424886 
L 71.998434 398.424886 
L 71.998434 400.691761 
L 69.889059 400.691761 
L 69.889059 398.424886 
z
M 74.025778 391.943011 
L 80.618278 391.943011 
L 80.618278 393.214261 
L 77.207653 400.691761 
L 75.010153 400.691761 
L 78.238903 393.602386 
L 74.025778 393.602386 
L 74.025778 391.943011 
z
M 85.750387 396.776761 
Q 85.118512 396.776761 84.777262 397.123636 
Q 84.437887 397.468636 84.437887 398.113636 
Q 84.437887 398.758636 84.777262 399.101761 
Q 85.118512 399.443011 85.750387 399.443011 
Q 86.378512 399.443011 86.712262 399.101761 
Q 87.046012 398.758636 87.046012 398.113636 
Q 87.046012 397.463011 86.712262 397.119886 
Q 86.378512 396.776761 85.750387 396.776761 
z
M 84.104137 396.034261 
Q 83.307262 395.792386 82.902262 395.295511 
Q 82.499137 394.796761 82.499137 394.052386 
Q 82.499137 392.946136 83.324137 392.366761 
Q 84.151012 391.785511 85.750387 391.785511 
Q 87.338512 391.785511 88.163512 392.363011 
Q 88.990387 392.940511 88.990387 394.052386 
Q 88.990387 394.796761 88.583512 395.295511 
Q 88.176637 395.792386 87.379762 396.034261 
Q 88.270387 396.279886 88.724137 396.833011 
Q 89.177887 397.386136 89.177887 398.229886 
Q 89.177887 399.531136 88.313512 400.196761 
Q 87.449137 400.862386 85.750387 400.862386 
Q 84.046012 400.862386 83.176012 400.196761 
Q 82.306012 399.531136 82.306012 398.229886 
Q 82.306012 397.386136 82.759762 396.833011 
Q 83.213512 396.279886 84.104137 396.034261 
z
M 84.631012 394.281136 
Q 84.631012 394.802386 84.921637 395.083636 
Q 85.212262 395.364886 85.750387 395.364886 
Q 86.277262 395.364886 86.564137 395.083636 
Q 86.852887 394.802386 86.852887 394.281136 
Q 86.852887 393.759886 86.564137 393.482386 
Q 86.277262 393.203011 85.750387 393.203011 
Q 85.212262 393.203011 84.921637 393.484261 
Q 84.631012 393.765511 84.631012 394.281136 
z
"/>
   </g>
   <g id="text_7">
    <path d="M 59.230856 374.424545 
L 61.223981 374.424545 
L 61.223981 368.769545 
L 59.178356 369.19142 
L 59.178356 367.655795 
L 61.210856 367.23392 
L 63.355856 367.23392 
L 63.355856 374.424545 
L 65.348981 374.424545 
L 65.348981 375.98267 
L 59.230856 375.98267 
L 59.230856 374.424545 
z
M 67.39859 373.715795 
L 69.507965 373.715795 
L 69.507965 375.98267 
L 67.39859 375.98267 
L 67.39859 373.715795 
z
M 74.910309 372.06767 
Q 74.278434 372.06767 73.937184 372.414545 
Q 73.597809 372.759545 73.597809 373.404545 
Q 73.597809 374.049545 73.937184 374.39267 
Q 74.278434 374.73392 74.910309 374.73392 
Q 75.538434 374.73392 75.872184 374.39267 
Q 76.205934 374.049545 76.205934 373.404545 
Q 76.205934 372.75392 75.872184 372.410795 
Q 75.538434 372.06767 74.910309 372.06767 
z
M 73.264059 371.32517 
Q 72.467184 371.083295 72.062184 370.58642 
Q 71.659059 370.08767 71.659059 369.343295 
Q 71.659059 368.237045 72.484059 367.65767 
Q 73.310934 367.07642 74.910309 367.07642 
Q 76.498434 367.07642 77.323434 367.65392 
Q 78.150309 368.23142 78.150309 369.343295 
Q 78.150309 370.08767 77.743434 370.58642 
Q 77.336559 371.083295 76.539684 371.32517 
Q 77.430309 371.570795 77.884059 372.12392 
Q 78.337809 372.677045 78.337809 373.520795 
Q 78.337809 374.822045 77.473434 375.48767 
Q 76.609059 376.153295 74.910309 376.153295 
Q 73.205934 376.153295 72.335934 375.48767 
Q 71.465934 374.822045 71.465934 373.520795 
Q 71.465934 372.677045 71.919684 372.12392 
Q 72.373434 371.570795 73.264059 371.32517 
z
M 73.790934 369.572045 
Q 73.790934 370.093295 74.081559 370.374545 
Q 74.372184 370.655795 74.910309 370.655795 
Q 75.437184 370.655795 75.724059 370.374545 
Q 76.012809 370.093295 76.012809 369.572045 
Q 76.012809 369.050795 75.724059 368.773295 
Q 75.437184 368.49392 74.910309 368.49392 
Q 74.372184 368.49392 74.081559 368.77517 
Q 73.790934 369.05642 73.790934 369.572045 
z
M 83.499919 369.092045 
L 81.028669 372.75392 
L 83.499919 372.75392 
L 83.499919 369.092045 
z
M 83.124919 367.23392 
L 85.633669 367.23392 
L 85.633669 372.75392 
L 86.880544 372.75392 
L 86.880544 374.38892 
L 85.633669 374.38892 
L 85.633669 375.98267 
L 83.499919 375.98267 
L 83.499919 374.38892 
L 79.622419 374.38892 
L 79.622419 372.455795 
L 83.124919 367.23392 
z
" style="stroke: #ffffff"/>
    <path d="M 59.230856 374.424545 
L 61.223981 374.424545 
L 61.223981 368.769545 
L 59.178356 369.19142 
L 59.178356 367.655795 
L 61.210856 367.23392 
L 63.355856 367.23392 
L 63.355856 374.424545 
L 65.348981 374.424545 
L 65.348981 375.98267 
L 59.230856 375.98267 
L 59.230856 374.424545 
z
M 67.39859 373.715795 
L 69.507965 373.715795 
L 69.507965 375.98267 
L 67.39859 375.98267 
L 67.39859 373.715795 
z
M 74.910309 372.06767 
Q 74.278434 372.06767 73.937184 372.414545 
Q 73.597809 372.759545 73.597809 373.404545 
Q 73.597809 374.049545 73.937184 374.39267 
Q 74.278434 374.73392 74.910309 374.73392 
Q 75.538434 374.73392 75.872184 374.39267 
Q 76.205934 374.049545 76.205934 373.404545 
Q 76.205934 372.75392 75.872184 372.410795 
Q 75.538434 372.06767 74.910309 372.06767 
z
M 73.264059 371.32517 
Q 72.467184 371.083295 72.062184 370.58642 
Q 71.659059 370.08767 71.659059 369.343295 
Q 71.659059 368.237045 72.484059 367.65767 
Q 73.310934 367.07642 74.910309 367.07642 
Q 76.498434 367.07642 77.323434 367.65392 
Q 78.150309 368.23142 78.150309 369.343295 
Q 78.150309 370.08767 77.743434 370.58642 
Q 77.336559 371.083295 76.539684 371.32517 
Q 77.430309 371.570795 77.884059 372.12392 
Q 78.337809 372.677045 78.337809 373.520795 
Q 78.337809 374.822045 77.473434 375.48767 
Q 76.609059 376.153295 74.910309 376.153295 
Q 73.205934 376.153295 72.335934 375.48767 
Q 71.465934 374.822045 71.465934 373.520795 
Q 71.465934 372.677045 71.919684 372.12392 
Q 72.373434 371.570795 73.264059 371.32517 
z
M 73.790934 369.572045 
Q 73.790934 370.093295 74.081559 370.374545 
Q 74.372184 370.655795 74.910309 370.655795 
Q 75.437184 370.655795 75.724059 370.374545 
Q 76.012809 370.093295 76.012809 369.572045 
Q 76.012809 369.050795 75.724059 368.773295 
Q 75.437184 368.49392 74.910309 368.49392 
Q 74.372184 368.49392 74.081559 368.77517 
Q 73.790934 369.05642 73.790934 369.572045 
z
M 83.499919 369.092045 
L 81.028669 372.75392 
L 83.499919 372.75392 
L 83.499919 369.092045 
z
M 83.124919 367.23392 
L 85.633669 367.23392 
L 85.633669 372.75392 
L 86.880544 372.75392 
L 86.880544 374.38892 
L 85.633669 374.38892 
L 85.633669 375.98267 
L 83.499919 375.98267 
L 83.499919 374.38892 
L 79.622419 374.38892 
L 79.622419 372.455795 
L 83.124919 367.23392 
z
"/>
   </g>
   <g id="text_8">
    <path d="M 59.095856 342.52483 
L 64.703981 342.52483 
L 64.703981 344.184205 
L 60.895856 344.184205 
L 60.895856 345.537955 
Q 61.152731 345.466705 61.413356 345.429205 
Q 61.673981 345.38983 61.955231 345.38983 
Q 63.554606 345.38983 64.445231 346.190455 
Q 65.335856 346.99108 65.335856 348.41983 
Q 65.335856 349.83733 64.366481 350.641705 
Q 63.397106 351.444205 61.673981 351.444205 
Q 60.929606 351.444205 60.200231 351.29983 
Q 59.470856 351.155455 58.750856 350.862955 
L 58.750856 349.08733 
Q 59.465231 349.497955 60.106481 349.704205 
Q 60.747731 349.90858 61.317731 349.90858 
Q 62.137106 349.90858 62.607731 349.50733 
Q 63.080231 349.10608 63.080231 348.41983 
Q 63.080231 347.727955 62.607731 347.330455 
Q 62.137106 346.93108 61.317731 346.93108 
Q 60.830231 346.93108 60.278981 347.05858 
Q 59.729606 347.184205 59.095856 347.446705 
L 59.095856 342.52483 
z
M 67.39859 349.006705 
L 69.507965 349.006705 
L 69.507965 351.27358 
L 67.39859 351.27358 
L 67.39859 349.006705 
z
M 72.139059 349.715455 
L 74.132184 349.715455 
L 74.132184 344.060455 
L 72.086559 344.48233 
L 72.086559 342.946705 
L 74.119059 342.52483 
L 76.264059 342.52483 
L 76.264059 349.715455 
L 78.257184 349.715455 
L 78.257184 351.27358 
L 72.139059 351.27358 
L 72.139059 349.715455 
z
M 82.539919 349.61608 
L 86.389294 349.61608 
L 86.389294 351.27358 
L 80.031169 351.27358 
L 80.031169 349.61608 
L 83.224294 346.79608 
Q 83.653669 346.40983 83.858044 346.040455 
Q 84.062419 345.67108 84.062419 345.27358 
Q 84.062419 344.65858 83.649919 344.28358 
Q 83.237419 343.90858 82.551169 343.90858 
Q 82.024294 343.90858 81.396169 344.13358 
Q 80.769919 344.35858 80.055544 344.80483 
L 80.055544 342.882955 
Q 80.816794 342.631705 81.561169 342.500455 
Q 82.305544 342.36733 83.019919 342.36733 
Q 84.591169 342.36733 85.461169 343.059205 
Q 86.331169 343.749205 86.331169 344.986705 
Q 86.331169 345.70108 85.961794 346.31983 
Q 85.592419 346.936705 84.409294 347.975455 
L 82.539919 349.61608 
z
" style="stroke: #ffffff"/>
    <path d="M 59.095856 342.52483 
L 64.703981 342.52483 
L 64.703981 344.184205 
L 60.895856 344.184205 
L 60.895856 345.537955 
Q 61.152731 345.466705 61.413356 345.429205 
Q 61.673981 345.38983 61.955231 345.38983 
Q 63.554606 345.38983 64.445231 346.190455 
Q 65.335856 346.99108 65.335856 348.41983 
Q 65.335856 349.83733 64.366481 350.641705 
Q 63.397106 351.444205 61.673981 351.444205 
Q 60.929606 351.444205 60.200231 351.29983 
Q 59.470856 351.155455 58.750856 350.862955 
L 58.750856 349.08733 
Q 59.465231 349.497955 60.106481 349.704205 
Q 60.747731 349.90858 61.317731 349.90858 
Q 62.137106 349.90858 62.607731 349.50733 
Q 63.080231 349.10608 63.080231 348.41983 
Q 63.080231 347.727955 62.607731 347.330455 
Q 62.137106 346.93108 61.317731 346.93108 
Q 60.830231 346.93108 60.278981 347.05858 
Q 59.729606 347.184205 59.095856 347.446705 
L 59.095856 342.52483 
z
M 67.39859 349.006705 
L 69.507965 349.006705 
L 69.507965 351.27358 
L 67.39859 351.27358 
L 67.39859 349.006705 
z
M 72.139059 349.715455 
L 74.132184 349.715455 
L 74.132184 344.060455 
L 72.086559 344.48233 
L 72.086559 342.946705 
L 74.119059 342.52483 
L 76.264059 342.52483 
L 76.264059 349.715455 
L 78.257184 349.715455 
L 78.257184 351.27358 
L 72.139059 351.27358 
L 72.139059 349.715455 
z
M 82.539919 349.61608 
L 86.389294 349.61608 
L 86.389294 351.27358 
L 80.031169 351.27358 
L 80.031169 349.61608 
L 83.224294 346.79608 
Q 83.653669 346.40983 83.858044 346.040455 
Q 84.062419 345.67108 84.062419 345.27358 
Q 84.062419 344.65858 83.649919 344.28358 
Q 83.237419 343.90858 82.551169 343.90858 
Q 82.024294 343.90858 81.396169 344.13358 
Q 80.769919 344.35858 80.055544 344.80483 
L 80.055544 342.882955 
Q 80.816794 342.631705 81.561169 342.500455 
Q 82.305544 342.36733 83.019919 342.36733 
Q 84.591169 342.36733 85.461169 343.059205 
Q 86.331169 343.749205 86.331169 344.986705 
Q 86.331169 345.70108 85.961794 346.31983 
Q 85.592419 346.936705 84.409294 347.975455 
L 82.539919 349.61608 
z
"/>
   </g>
   <g id="text_9">
    <path d="M 55.056169 325.006364 
L 57.049294 325.006364 
L 57.049294 319.351364 
L 55.003669 319.773239 
L 55.003669 318.237614 
L 57.036169 317.815739 
L 59.181169 317.815739 
L 59.181169 325.006364 
L 61.174294 325.006364 
L 61.174294 326.564489 
L 55.056169 326.564489 
L 55.056169 325.006364 
z
M 67.519528 322.180739 
Q 67.519528 320.540114 67.212028 319.870739 
Q 66.904528 319.199489 66.177028 319.199489 
Q 65.451403 319.199489 65.140153 319.870739 
Q 64.828903 320.540114 64.828903 322.180739 
Q 64.828903 323.840114 65.140153 324.520739 
Q 65.451403 325.199489 66.177028 325.199489 
Q 66.898903 325.199489 67.208278 324.520739 
Q 67.519528 323.840114 67.519528 322.180739 
z
M 69.775153 322.199489 
Q 69.775153 324.372614 68.837653 325.553864 
Q 67.900153 326.735114 66.177028 326.735114 
Q 64.448278 326.735114 63.510778 325.553864 
Q 62.573278 324.372614 62.573278 322.199489 
Q 62.573278 320.018864 63.510778 318.839489 
Q 64.448278 317.658239 66.177028 317.658239 
Q 67.900153 317.658239 68.837653 318.839489 
Q 69.775153 320.018864 69.775153 322.199489 
z
M 71.573512 324.297614 
L 73.682887 324.297614 
L 73.682887 326.564489 
L 71.573512 326.564489 
L 71.573512 324.297614 
z
M 78.365231 324.906989 
L 82.214606 324.906989 
L 82.214606 326.564489 
L 75.856481 326.564489 
L 75.856481 324.906989 
L 79.049606 322.086989 
Q 79.478981 321.700739 79.683356 321.331364 
Q 79.887731 320.961989 79.887731 320.564489 
Q 79.887731 319.949489 79.475231 319.574489 
Q 79.062731 319.199489 78.376481 319.199489 
Q 77.849606 319.199489 77.221481 319.424489 
Q 76.595231 319.649489 75.880856 320.095739 
L 75.880856 318.173864 
Q 76.642106 317.922614 77.386481 317.791364 
Q 78.130856 317.658239 78.845231 317.658239 
Q 80.416481 317.658239 81.286481 318.350114 
Q 82.156481 319.040114 82.156481 320.277614 
Q 82.156481 320.991989 81.787106 321.610739 
Q 81.417731 322.227614 80.234606 323.266364 
L 78.365231 324.906989 
z
M 86.71484 324.906989 
L 90.564215 324.906989 
L 90.564215 326.564489 
L 84.20609 326.564489 
L 84.20609 324.906989 
L 87.399215 322.086989 
Q 87.82859 321.700739 88.032965 321.331364 
Q 88.23734 320.961989 88.23734 320.564489 
Q 88.23734 319.949489 87.82484 319.574489 
Q 87.41234 319.199489 86.72609 319.199489 
Q 86.199215 319.199489 85.57109 319.424489 
Q 84.94484 319.649489 84.230465 320.095739 
L 84.230465 318.173864 
Q 84.991715 317.922614 85.73609 317.791364 
Q 86.480465 317.658239 87.19484 317.658239 
Q 88.76609 317.658239 89.63609 318.350114 
Q 90.50609 319.040114 90.50609 320.277614 
Q 90.50609 320.991989 90.136715 321.610739 
Q 89.76734 322.227614 88.584215 323.266364 
L 86.71484 324.906989 
z
" style="stroke: #ffffff"/>
    <path d="M 55.056169 325.006364 
L 57.049294 325.006364 
L 57.049294 319.351364 
L 55.003669 319.773239 
L 55.003669 318.237614 
L 57.036169 317.815739 
L 59.181169 317.815739 
L 59.181169 325.006364 
L 61.174294 325.006364 
L 61.174294 326.564489 
L 55.056169 326.564489 
L 55.056169 325.006364 
z
M 67.519528 322.180739 
Q 67.519528 320.540114 67.212028 319.870739 
Q 66.904528 319.199489 66.177028 319.199489 
Q 65.451403 319.199489 65.140153 319.870739 
Q 64.828903 320.540114 64.828903 322.180739 
Q 64.828903 323.840114 65.140153 324.520739 
Q 65.451403 325.199489 66.177028 325.199489 
Q 66.898903 325.199489 67.208278 324.520739 
Q 67.519528 323.840114 67.519528 322.180739 
z
M 69.775153 322.199489 
Q 69.775153 324.372614 68.837653 325.553864 
Q 67.900153 326.735114 66.177028 326.735114 
Q 64.448278 326.735114 63.510778 325.553864 
Q 62.573278 324.372614 62.573278 322.199489 
Q 62.573278 320.018864 63.510778 318.839489 
Q 64.448278 317.658239 66.177028 317.658239 
Q 67.900153 317.658239 68.837653 318.839489 
Q 69.775153 320.018864 69.775153 322.199489 
z
M 71.573512 324.297614 
L 73.682887 324.297614 
L 73.682887 326.564489 
L 71.573512 326.564489 
L 71.573512 324.297614 
z
M 78.365231 324.906989 
L 82.214606 324.906989 
L 82.214606 326.564489 
L 75.856481 326.564489 
L 75.856481 324.906989 
L 79.049606 322.086989 
Q 79.478981 321.700739 79.683356 321.331364 
Q 79.887731 320.961989 79.887731 320.564489 
Q 79.887731 319.949489 79.475231 319.574489 
Q 79.062731 319.199489 78.376481 319.199489 
Q 77.849606 319.199489 77.221481 319.424489 
Q 76.595231 319.649489 75.880856 320.095739 
L 75.880856 318.173864 
Q 76.642106 317.922614 77.386481 317.791364 
Q 78.130856 317.658239 78.845231 317.658239 
Q 80.416481 317.658239 81.286481 318.350114 
Q 82.156481 319.040114 82.156481 320.277614 
Q 82.156481 320.991989 81.787106 321.610739 
Q 81.417731 322.227614 80.234606 323.266364 
L 78.365231 324.906989 
z
M 86.71484 324.906989 
L 90.564215 324.906989 
L 90.564215 326.564489 
L 84.20609 326.564489 
L 84.20609 324.906989 
L 87.399215 322.086989 
Q 87.82859 321.700739 88.032965 321.331364 
Q 88.23734 320.961989 88.23734 320.564489 
Q 88.23734 319.949489 87.82484 319.574489 
Q 87.41234 319.199489 86.72609 319.199489 
Q 86.199215 319.199489 85.57109 319.424489 
Q 84.94484 319.649489 84.230465 320.095739 
L 84.230465 318.173864 
Q 84.991715 317.922614 85.73609 317.791364 
Q 86.480465 317.658239 87.19484 317.658239 
Q 88.76609 317.658239 89.63609 318.350114 
Q 90.50609 319.040114 90.50609 320.277614 
Q 90.50609 320.991989 90.136715 321.610739 
Q 89.76734 322.227614 88.584215 323.266364 
L 86.71484 324.906989 
z
"/>
   </g>
   <g id="text_10">
    <path d="M 50.881481 300.297273 
L 52.874606 300.297273 
L 52.874606 294.642273 
L 50.828981 295.064148 
L 50.828981 293.528523 
L 52.861481 293.106648 
L 55.006481 293.106648 
L 55.006481 300.297273 
L 56.999606 300.297273 
L 56.999606 301.855398 
L 50.881481 301.855398 
L 50.881481 300.297273 
z
M 63.414215 297.137898 
Q 64.299215 297.366648 64.75859 297.932898 
Q 65.21984 298.497273 65.21984 299.371023 
Q 65.21984 300.672273 64.22234 301.349148 
Q 63.226715 302.026023 61.317965 302.026023 
Q 60.642965 302.026023 59.96609 301.917273 
Q 59.289215 301.808523 58.62734 301.591023 
L 58.62734 299.851023 
Q 59.26109 300.167898 59.88359 300.329148 
Q 60.507965 300.490398 61.111715 300.490398 
Q 62.007965 300.490398 62.48609 300.181023 
Q 62.964215 299.869773 62.964215 299.288523 
Q 62.964215 298.690398 62.47484 298.382898 
Q 61.985465 298.075398 61.029215 298.075398 
L 60.12734 298.075398 
L 60.12734 296.622273 
L 61.07609 296.622273 
Q 61.92734 296.622273 62.341715 296.356023 
Q 62.757965 296.089773 62.757965 295.544148 
Q 62.757965 295.041648 62.352965 294.766023 
Q 61.94984 294.490398 61.21109 294.490398 
Q 60.66734 294.490398 60.110465 294.614148 
Q 59.55359 294.736023 59.00234 294.976023 
L 59.00234 293.324148 
Q 59.66984 293.136648 60.32609 293.042898 
Q 60.98234 292.949148 61.61609 292.949148 
Q 63.320465 292.949148 64.16609 293.509773 
Q 65.01359 294.068523 65.01359 295.193523 
Q 65.01359 295.960398 64.60859 296.449773 
Q 64.205465 296.939148 63.414215 297.137898 
z
M 67.5807 300.297273 
L 69.573825 300.297273 
L 69.573825 294.642273 
L 67.5282 295.064148 
L 67.5282 293.528523 
L 69.5607 293.106648 
L 71.7057 293.106648 
L 71.7057 300.297273 
L 73.698825 300.297273 
L 73.698825 301.855398 
L 67.5807 301.855398 
L 67.5807 300.297273 
z
M 75.748434 299.588523 
L 77.857809 299.588523 
L 77.857809 301.855398 
L 75.748434 301.855398 
L 75.748434 299.588523 
z
M 80.488903 300.297273 
L 82.482028 300.297273 
L 82.482028 294.642273 
L 80.436403 295.064148 
L 80.436403 293.528523 
L 82.468903 293.106648 
L 84.613903 293.106648 
L 84.613903 300.297273 
L 86.607028 300.297273 
L 86.607028 301.855398 
L 80.488903 301.855398 
L 80.488903 300.297273 
z
M 88.634137 301.662273 
L 88.634137 300.044148 
Q 89.172262 300.297273 89.663512 300.422898 
Q 90.156637 300.548523 90.636637 300.548523 
Q 91.645387 300.548523 92.207887 299.989773 
Q 92.770387 299.429148 92.869762 298.328523 
Q 92.472262 298.621023 92.020387 298.767273 
Q 91.568512 298.913523 91.041637 298.913523 
Q 89.699137 298.913523 88.876012 298.131648 
Q 88.052887 297.349773 88.052887 296.072898 
Q 88.052887 294.659148 88.969762 293.809773 
Q 89.886637 292.960398 91.427887 292.960398 
Q 93.139762 292.960398 94.077262 294.115398 
Q 95.014762 295.268523 95.014762 297.377898 
Q 95.014762 299.547273 93.917887 300.786648 
Q 92.822887 302.026023 90.912262 302.026023 
Q 90.297262 302.026023 89.734762 301.934148 
Q 89.172262 301.844148 88.634137 301.662273 
z
M 91.416637 297.449148 
Q 92.009137 297.449148 92.307262 297.066648 
Q 92.605387 296.682273 92.605387 295.913523 
Q 92.605387 295.152273 92.307262 294.766023 
Q 92.009137 294.377898 91.416637 294.377898 
Q 90.824137 294.377898 90.526012 294.766023 
Q 90.227887 295.152273 90.227887 295.913523 
Q 90.227887 296.682273 90.526012 297.066648 
Q 90.824137 297.449148 91.416637 297.449148 
z
" style="stroke: #ffffff"/>
    <path d="M 50.881481 300.297273 
L 52.874606 300.297273 
L 52.874606 294.642273 
L 50.828981 295.064148 
L 50.828981 293.528523 
L 52.861481 293.106648 
L 55.006481 293.106648 
L 55.006481 300.297273 
L 56.999606 300.297273 
L 56.999606 301.855398 
L 50.881481 301.855398 
L 50.881481 300.297273 
z
M 63.414215 297.137898 
Q 64.299215 297.366648 64.75859 297.932898 
Q 65.21984 298.497273 65.21984 299.371023 
Q 65.21984 300.672273 64.22234 301.349148 
Q 63.226715 302.026023 61.317965 302.026023 
Q 60.642965 302.026023 59.96609 301.917273 
Q 59.289215 301.808523 58.62734 301.591023 
L 58.62734 299.851023 
Q 59.26109 300.167898 59.88359 300.329148 
Q 60.507965 300.490398 61.111715 300.490398 
Q 62.007965 300.490398 62.48609 300.181023 
Q 62.964215 299.869773 62.964215 299.288523 
Q 62.964215 298.690398 62.47484 298.382898 
Q 61.985465 298.075398 61.029215 298.075398 
L 60.12734 298.075398 
L 60.12734 296.622273 
L 61.07609 296.622273 
Q 61.92734 296.622273 62.341715 296.356023 
Q 62.757965 296.089773 62.757965 295.544148 
Q 62.757965 295.041648 62.352965 294.766023 
Q 61.94984 294.490398 61.21109 294.490398 
Q 60.66734 294.490398 60.110465 294.614148 
Q 59.55359 294.736023 59.00234 294.976023 
L 59.00234 293.324148 
Q 59.66984 293.136648 60.32609 293.042898 
Q 60.98234 292.949148 61.61609 292.949148 
Q 63.320465 292.949148 64.16609 293.509773 
Q 65.01359 294.068523 65.01359 295.193523 
Q 65.01359 295.960398 64.60859 296.449773 
Q 64.205465 296.939148 63.414215 297.137898 
z
M 67.5807 300.297273 
L 69.573825 300.297273 
L 69.573825 294.642273 
L 67.5282 295.064148 
L 67.5282 293.528523 
L 69.5607 293.106648 
L 71.7057 293.106648 
L 71.7057 300.297273 
L 73.698825 300.297273 
L 73.698825 301.855398 
L 67.5807 301.855398 
L 67.5807 300.297273 
z
M 75.748434 299.588523 
L 77.857809 299.588523 
L 77.857809 301.855398 
L 75.748434 301.855398 
L 75.748434 299.588523 
z
M 80.488903 300.297273 
L 82.482028 300.297273 
L 82.482028 294.642273 
L 80.436403 295.064148 
L 80.436403 293.528523 
L 82.468903 293.106648 
L 84.613903 293.106648 
L 84.613903 300.297273 
L 86.607028 300.297273 
L 86.607028 301.855398 
L 80.488903 301.855398 
L 80.488903 300.297273 
z
M 88.634137 301.662273 
L 88.634137 300.044148 
Q 89.172262 300.297273 89.663512 300.422898 
Q 90.156637 300.548523 90.636637 300.548523 
Q 91.645387 300.548523 92.207887 299.989773 
Q 92.770387 299.429148 92.869762 298.328523 
Q 92.472262 298.621023 92.020387 298.767273 
Q 91.568512 298.913523 91.041637 298.913523 
Q 89.699137 298.913523 88.876012 298.131648 
Q 88.052887 297.349773 88.052887 296.072898 
Q 88.052887 294.659148 88.969762 293.809773 
Q 89.886637 292.960398 91.427887 292.960398 
Q 93.139762 292.960398 94.077262 294.115398 
Q 95.014762 295.268523 95.014762 297.377898 
Q 95.014762 299.547273 93.917887 300.786648 
Q 92.822887 302.026023 90.912262 302.026023 
Q 90.297262 302.026023 89.734762 301.934148 
Q 89.172262 301.844148 88.634137 301.662273 
z
M 91.416637 297.449148 
Q 92.009137 297.449148 92.307262 297.066648 
Q 92.605387 296.682273 92.605387 295.913523 
Q 92.605387 295.152273 92.307262 294.766023 
Q 92.009137 294.377898 91.416637 294.377898 
Q 90.824137 294.377898 90.526012 294.766023 
Q 90.227887 295.152273 90.227887 295.913523 
Q 90.227887 296.682273 90.526012 297.066648 
Q 90.824137 297.449148 91.416637 297.449148 
z
"/>
   </g>
  </g>
  <g id="axes_6">
   <g id="patch_15">
    <path d="M 104.982353 504 
L 129.6 504 
L 129.6 286.56 
L 104.982353 286.56 
L 104.982353 504 
z
" style="fill: none"/>
   </g>
  </g>
 </g>
 <defs>
  <clipPath id="pd4f9e398ac">
   <rect x="49.182353" y="286.56" width="49.235294" height="217.44"/>
  </clipPath>
 </defs>
</svg>
