<?xml version="1.0" encoding="utf-8" standalone="no"?>
<!DOCTYPE svg PUBLIC "-//W3C//DTD SVG 1.1//EN"
  "http://www.w3.org/Graphics/SVG/1.1/DTD/svg11.dtd">
<svg xmlns:xlink="http://www.w3.org/1999/xlink" width="144pt" height="576pt" viewBox="0 0 144 576" xmlns="http://www.w3.org/2000/svg" version="1.1">
 <metadata>
  <rdf:RDF xmlns:dc="http://purl.org/dc/elements/1.1/" xmlns:cc="http://creativecommons.org/ns#" xmlns:rdf="http://www.w3.org/1999/02/22-rdf-syntax-ns#">
   <cc:Work>
    <dc:type rdf:resource="http://purl.org/dc/dcmitype/StillImage"/>
    <dc:date>2022-03-31T20:44:12.244304</dc:date>
    <dc:format>image/svg+xml</dc:format>
    <dc:creator>
     <cc:Agent>
      <dc:title>Matplotlib v3.5.1, https://matplotlib.org/</dc:title>
     </cc:Agent>
    </dc:creator>
   </cc:Work>
  </rdf:RDF>
 </metadata>
 <defs>
  <style type="text/css">*{stroke-linejoin: round; stroke-linecap: butt}</style>
 </defs>
 <g id="figure_1">
  <g id="patch_1">
   <path d="M 0 576 
L 144 576 
L 144 0 
L 0 0 
L 0 576 
z
" style="fill: none"/>
  </g>
  <g id="axes_1">
   <g id="patch_2">
    <path d="M 18 286.56 
L 42.617647 286.56 
L 42.617647 69.12 
L 18 69.12 
L 18 286.56 
z
" style="fill: none"/>
   </g>
  </g>
  <g id="axes_2">
   <g id="patch_3">
    <path d="M 49.182353 286.56 
L 98.417647 286.56 
L 98.417647 69.12 
L 49.182353 69.12 
L 49.182353 286.56 
z
" style="fill: none"/>
   </g>
   <g id="text_1">
    <path d="M 13.412813 262.851375 
L 13.412813 266.13825 
L 14.901563 266.13825 
Q 15.728438 266.13825 16.178438 265.71075 
Q 16.630313 265.28325 16.630313 264.492 
Q 16.630313 263.706375 16.178438 263.278875 
Q 15.728438 262.851375 14.901563 262.851375 
L 13.412813 262.851375 
z
M 12.229688 261.87825 
L 14.901563 261.87825 
Q 16.373438 261.87825 17.125313 262.543875 
Q 17.879063 263.2095 17.879063 264.492 
Q 17.879063 265.787625 17.125313 266.4495 
Q 16.373438 267.111375 14.901563 267.111375 
L 13.412813 267.111375 
L 13.412813 270.627 
L 12.229688 270.627 
L 12.229688 261.87825 
z
M 21.526641 264.820125 
Q 20.660391 264.820125 20.156016 265.497 
Q 19.651641 266.173875 19.651641 267.351375 
Q 19.651641 268.528875 20.152266 269.20575 
Q 20.654766 269.882625 21.526641 269.882625 
Q 22.389141 269.882625 22.891641 269.203875 
Q 23.396016 268.52325 23.396016 267.351375 
Q 23.396016 266.185125 22.891641 265.502625 
Q 22.389141 264.820125 21.526641 264.820125 
z
M 21.526641 263.907 
Q 22.932891 263.907 23.735391 264.822 
Q 24.539766 265.735125 24.539766 267.351375 
Q 24.539766 268.962 23.735391 269.88075 
Q 22.932891 270.797625 21.526641 270.797625 
Q 20.114766 270.797625 19.314141 269.88075 
Q 18.515391 268.962 18.515391 267.351375 
Q 18.515391 265.735125 19.314141 264.822 
Q 20.114766 263.907 21.526641 263.907 
z
M 27.368438 269.642625 
L 27.368438 273.122625 
L 26.284688 273.122625 
L 26.284688 264.0645 
L 27.368438 264.0645 
L 27.368438 265.060125 
Q 27.709688 264.475125 28.227188 264.192 
Q 28.746563 263.907 29.466563 263.907 
Q 30.662813 263.907 31.409063 264.85575 
Q 32.157188 265.8045 32.157188 267.351375 
Q 32.157188 268.89825 31.409063 269.848875 
Q 30.662813 270.797625 29.466563 270.797625 
Q 28.746563 270.797625 28.227188 270.512625 
Q 27.709688 270.227625 27.368438 269.642625 
z
M 31.037813 267.351375 
Q 31.037813 266.162625 30.548438 265.48575 
Q 30.059063 264.808875 29.204063 264.808875 
Q 28.347188 264.808875 27.857813 265.48575 
Q 27.368438 266.162625 27.368438 267.351375 
Q 27.368438 268.540125 27.857813 269.217 
Q 28.347188 269.893875 29.204063 269.893875 
Q 30.059063 269.893875 30.548438 269.217 
Q 31.037813 268.540125 31.037813 267.351375 
z
M 33.8325 268.037625 
L 33.8325 264.0645 
L 34.910625 264.0645 
L 34.910625 267.996375 
Q 34.910625 268.92825 35.2725 269.395125 
Q 35.63625 269.860125 36.36375 269.860125 
Q 37.235625 269.860125 37.741875 269.30325 
Q 38.25 268.746375 38.25 267.7845 
L 38.25 264.0645 
L 39.328125 264.0645 
L 39.328125 270.627 
L 38.25 270.627 
L 38.25 269.61825 
Q 37.858125 270.216375 37.33875 270.507 
Q 36.82125 270.797625 36.135 270.797625 
Q 35.004375 270.797625 34.4175 270.0945 
Q 33.8325 269.391375 33.8325 268.037625 
z
M 36.545625 263.907 
L 36.545625 263.907 
z
M 41.548594 261.508875 
L 42.626719 261.508875 
L 42.626719 270.627 
L 41.548594 270.627 
L 41.548594 261.508875 
z
M 47.865703 267.328875 
Q 46.558828 267.328875 46.054453 267.627 
Q 45.550078 267.925125 45.550078 268.647 
Q 45.550078 269.22075 45.928828 269.55825 
Q 46.307578 269.893875 46.956328 269.893875 
Q 47.854453 269.893875 48.396328 269.25825 
Q 48.938203 268.622625 48.938203 267.568875 
L 48.938203 267.328875 
L 47.865703 267.328875 
z
M 50.016328 266.882625 
L 50.016328 270.627 
L 48.938203 270.627 
L 48.938203 269.631375 
Q 48.568828 270.227625 48.017578 270.512625 
Q 47.466328 270.797625 46.669453 270.797625 
Q 45.662578 270.797625 45.066328 270.231375 
Q 44.471953 269.665125 44.471953 268.716375 
Q 44.471953 267.610125 45.212578 267.047625 
Q 45.955078 266.485125 47.425078 266.485125 
L 48.938203 266.485125 
L 48.938203 266.37825 
Q 48.938203 265.633875 48.448828 265.227 
Q 47.959453 264.820125 47.074453 264.820125 
Q 46.511953 264.820125 45.977578 264.955125 
Q 45.445078 265.090125 44.953828 265.360125 
L 44.953828 264.362625 
Q 45.544453 264.133875 46.101328 264.021375 
Q 46.658203 263.907 47.185078 263.907 
Q 48.610078 263.907 49.313203 264.64575 
Q 50.016328 265.382625 50.016328 266.882625 
z
M 53.302969 262.20075 
L 53.302969 264.0645 
L 55.522969 264.0645 
L 55.522969 264.902625 
L 53.302969 264.902625 
L 53.302969 268.465125 
Q 53.302969 269.267625 53.522344 269.496375 
Q 53.741719 269.725125 54.416719 269.725125 
L 55.522969 269.725125 
L 55.522969 270.627 
L 54.416719 270.627 
Q 53.167969 270.627 52.693594 270.162 
Q 52.219219 269.695125 52.219219 268.465125 
L 52.219219 264.902625 
L 51.427969 264.902625 
L 51.427969 264.0645 
L 52.219219 264.0645 
L 52.219219 262.20075 
L 53.302969 262.20075 
z
M 56.941172 264.0645 
L 58.019297 264.0645 
L 58.019297 270.627 
L 56.941172 270.627 
L 56.941172 264.0645 
z
M 56.941172 261.508875 
L 58.019297 261.508875 
L 58.019297 262.87575 
L 56.941172 262.87575 
L 56.941172 261.508875 
z
M 62.817656 264.820125 
Q 61.951406 264.820125 61.447031 265.497 
Q 60.942656 266.173875 60.942656 267.351375 
Q 60.942656 268.528875 61.443281 269.20575 
Q 61.945781 269.882625 62.817656 269.882625 
Q 63.680156 269.882625 64.182656 269.203875 
Q 64.687031 268.52325 64.687031 267.351375 
Q 64.687031 266.185125 64.182656 265.502625 
Q 63.680156 264.820125 62.817656 264.820125 
z
M 62.817656 263.907 
Q 64.223906 263.907 65.026406 264.822 
Q 65.830781 265.735125 65.830781 267.351375 
Q 65.830781 268.962 65.026406 269.88075 
Q 64.223906 270.797625 62.817656 270.797625 
Q 61.405781 270.797625 60.605156 269.88075 
Q 59.806406 268.962 59.806406 267.351375 
Q 59.806406 265.735125 60.605156 264.822 
Q 61.405781 263.907 62.817656 263.907 
z
M 73.073203 266.665125 
L 73.073203 270.627 
L 71.995078 270.627 
L 71.995078 266.70075 
Q 71.995078 265.768875 71.631328 265.307625 
Q 71.267578 264.8445 70.541953 264.8445 
Q 69.668203 264.8445 69.163828 265.401375 
Q 68.659453 265.956375 68.659453 266.91825 
L 68.659453 270.627 
L 67.575703 270.627 
L 67.575703 264.0645 
L 68.659453 264.0645 
L 68.659453 265.0845 
Q 69.047578 264.492 69.570703 264.1995 
Q 70.095703 263.907 70.781953 263.907 
Q 71.912578 263.907 72.491953 264.606375 
Q 73.073203 265.30575 73.073203 266.665125 
z
M 86.630625 266.777625 
Q 86.120625 266.777625 85.83 267.21075 
Q 85.54125 267.643875 85.54125 268.41825 
Q 85.54125 269.1795 85.83 269.616375 
Q 86.120625 270.05325 86.630625 270.05325 
Q 87.129375 270.05325 87.418125 269.616375 
Q 87.70875 269.1795 87.70875 268.41825 
Q 87.70875 267.6495 87.418125 267.2145 
Q 87.129375 266.777625 86.630625 266.777625 
z
M 86.630625 266.03325 
Q 87.556875 266.03325 88.100625 266.67825 
Q 88.64625 267.321375 88.64625 268.41825 
Q 88.64625 269.51325 88.09875 270.156375 
Q 87.55125 270.797625 86.630625 270.797625 
Q 85.693125 270.797625 85.1475 270.156375 
Q 84.60375 269.51325 84.60375 268.41825 
Q 84.60375 267.31575 85.15125 266.6745 
Q 85.69875 266.03325 86.630625 266.03325 
z
M 80.58375 262.465125 
Q 80.079375 262.465125 79.78875 262.902 
Q 79.5 263.337 79.5 264.100125 
Q 79.5 264.872625 79.786875 265.307625 
Q 80.07375 265.74075 80.58375 265.74075 
Q 81.09375 265.74075 81.3825 265.307625 
Q 81.673125 264.872625 81.673125 264.100125 
Q 81.673125 263.3445 81.380625 262.90575 
Q 81.088125 262.465125 80.58375 262.465125 
z
M 85.875 261.72075 
L 86.8125 261.72075 
L 81.339375 270.797625 
L 80.401875 270.797625 
L 85.875 261.72075 
z
M 80.58375 261.72075 
Q 81.51 261.72075 82.059375 262.362 
Q 82.610625 263.00325 82.610625 264.100125 
Q 82.610625 265.206375 82.063125 265.84575 
Q 81.515625 266.485125 80.58375 266.485125 
Q 79.651875 266.485125 79.11 265.843875 
Q 78.568125 265.20075 78.568125 264.100125 
Q 78.568125 263.008875 79.111875 262.36575 
Q 79.6575 261.72075 80.58375 261.72075 
z
M 100.264922 269.37825 
L 100.264922 267.028875 
L 98.331797 267.028875 
L 98.331797 266.05575 
L 101.436797 266.05575 
L 101.436797 269.81325 
Q 100.752422 270.298875 99.925547 270.54825 
Q 99.100547 270.797625 98.163047 270.797625 
Q 96.111797 270.797625 94.953047 269.5995 
Q 93.796172 268.3995 93.796172 266.262 
Q 93.796172 264.117 94.953047 262.918875 
Q 96.111797 261.72075 98.163047 261.72075 
Q 99.018047 261.72075 99.788672 261.932625 
Q 100.559297 262.142625 101.209922 262.55325 
L 101.209922 263.81325 
Q 100.553672 263.256375 99.814922 262.975125 
Q 99.076172 262.693875 98.262422 262.693875 
Q 96.655547 262.693875 95.849297 263.590125 
Q 95.044922 264.486375 95.044922 266.262 
Q 95.044922 268.032 95.849297 268.92825 
Q 96.655547 269.8245 98.262422 269.8245 
Q 98.888672 269.8245 99.379922 269.71575 
Q 99.873047 269.607 100.264922 269.37825 
z
M 107.355 265.071375 
Q 107.173125 264.966375 106.959375 264.917625 
Q 106.745625 264.867 106.48875 264.867 
Q 105.57375 264.867 105.084375 265.461375 
Q 104.595 266.05575 104.595 267.1695 
L 104.595 270.627 
L 103.51125 270.627 
L 103.51125 264.0645 
L 104.595 264.0645 
L 104.595 265.0845 
Q 104.93625 264.486375 105.48 264.197625 
Q 106.025625 263.907 106.805625 263.907 
Q 106.91625 263.907 107.05125 263.922 
Q 107.18625 263.935125 107.349375 263.965125 
L 107.355 265.071375 
z
M 110.758594 264.820125 
Q 109.892344 264.820125 109.387969 265.497 
Q 108.883594 266.173875 108.883594 267.351375 
Q 108.883594 268.528875 109.384219 269.20575 
Q 109.886719 269.882625 110.758594 269.882625 
Q 111.621094 269.882625 112.123594 269.203875 
Q 112.627969 268.52325 112.627969 267.351375 
Q 112.627969 266.185125 112.123594 265.502625 
Q 111.621094 264.820125 110.758594 264.820125 
z
M 110.758594 263.907 
Q 112.164844 263.907 112.967344 264.822 
Q 113.771719 265.735125 113.771719 267.351375 
Q 113.771719 268.962 112.967344 269.88075 
Q 112.164844 270.797625 110.758594 270.797625 
Q 109.346719 270.797625 108.546094 269.88075 
Q 107.747344 268.962 107.747344 267.351375 
Q 107.747344 265.735125 108.546094 264.822 
Q 109.346719 263.907 110.758594 263.907 
z
M 114.931641 264.0645 
L 116.009766 264.0645 
L 117.357891 269.185125 
L 118.698516 264.0645 
L 119.969766 264.0645 
L 121.317891 269.185125 
L 122.660391 264.0645 
L 123.738516 264.0645 
L 122.021016 270.627 
L 120.749766 270.627 
L 119.337891 265.247625 
L 117.920391 270.627 
L 116.647266 270.627 
L 114.931641 264.0645 
z
M 126.439219 262.20075 
L 126.439219 264.0645 
L 128.659219 264.0645 
L 128.659219 264.902625 
L 126.439219 264.902625 
L 126.439219 268.465125 
Q 126.439219 269.267625 126.658594 269.496375 
Q 126.877969 269.725125 127.552969 269.725125 
L 128.659219 269.725125 
L 128.659219 270.627 
L 127.552969 270.627 
Q 126.304219 270.627 125.829844 270.162 
Q 125.355469 269.695125 125.355469 268.465125 
L 125.355469 264.902625 
L 124.564219 264.902625 
L 124.564219 264.0645 
L 125.355469 264.0645 
L 125.355469 262.20075 
L 126.439219 262.20075 
z
M 135.533672 266.665125 
L 135.533672 270.627 
L 134.455547 270.627 
L 134.455547 266.70075 
Q 134.455547 265.768875 134.091797 265.307625 
Q 133.728047 264.8445 133.002422 264.8445 
Q 132.128672 264.8445 131.624297 265.401375 
Q 131.119922 265.956375 131.119922 266.91825 
L 131.119922 270.627 
L 130.036172 270.627 
L 130.036172 261.508875 
L 131.119922 261.508875 
L 131.119922 265.0845 
Q 131.508047 264.492 132.031172 264.1995 
Q 132.556172 263.907 133.242422 263.907 
Q 134.373047 263.907 134.952422 264.606375 
Q 135.533672 265.30575 135.533672 266.665125 
z
" style="fill: #ffffff; stroke: #000000; stroke-width: 2"/>
    <path d="M 13.412813 262.851375 
L 13.412813 266.13825 
L 14.901563 266.13825 
Q 15.728438 266.13825 16.178438 265.71075 
Q 16.630313 265.28325 16.630313 264.492 
Q 16.630313 263.706375 16.178438 263.278875 
Q 15.728438 262.851375 14.901563 262.851375 
L 13.412813 262.851375 
z
M 12.229688 261.87825 
L 14.901563 261.87825 
Q 16.373438 261.87825 17.125313 262.543875 
Q 17.879063 263.2095 17.879063 264.492 
Q 17.879063 265.787625 17.125313 266.4495 
Q 16.373438 267.111375 14.901563 267.111375 
L 13.412813 267.111375 
L 13.412813 270.627 
L 12.229688 270.627 
L 12.229688 261.87825 
z
M 21.526641 264.820125 
Q 20.660391 264.820125 20.156016 265.497 
Q 19.651641 266.173875 19.651641 267.351375 
Q 19.651641 268.528875 20.152266 269.20575 
Q 20.654766 269.882625 21.526641 269.882625 
Q 22.389141 269.882625 22.891641 269.203875 
Q 23.396016 268.52325 23.396016 267.351375 
Q 23.396016 266.185125 22.891641 265.502625 
Q 22.389141 264.820125 21.526641 264.820125 
z
M 21.526641 263.907 
Q 22.932891 263.907 23.735391 264.822 
Q 24.539766 265.735125 24.539766 267.351375 
Q 24.539766 268.962 23.735391 269.88075 
Q 22.932891 270.797625 21.526641 270.797625 
Q 20.114766 270.797625 19.314141 269.88075 
Q 18.515391 268.962 18.515391 267.351375 
Q 18.515391 265.735125 19.314141 264.822 
Q 20.114766 263.907 21.526641 263.907 
z
M 27.368438 269.642625 
L 27.368438 273.122625 
L 26.284688 273.122625 
L 26.284688 264.0645 
L 27.368438 264.0645 
L 27.368438 265.060125 
Q 27.709688 264.475125 28.227188 264.192 
Q 28.746563 263.907 29.466563 263.907 
Q 30.662813 263.907 31.409063 264.85575 
Q 32.157188 265.8045 32.157188 267.351375 
Q 32.157188 268.89825 31.409063 269.848875 
Q 30.662813 270.797625 29.466563 270.797625 
Q 28.746563 270.797625 28.227188 270.512625 
Q 27.709688 270.227625 27.368438 269.642625 
z
M 31.037813 267.351375 
Q 31.037813 266.162625 30.548438 265.48575 
Q 30.059063 264.808875 29.204063 264.808875 
Q 28.347188 264.808875 27.857813 265.48575 
Q 27.368438 266.162625 27.368438 267.351375 
Q 27.368438 268.540125 27.857813 269.217 
Q 28.347188 269.893875 29.204063 269.893875 
Q 30.059063 269.893875 30.548438 269.217 
Q 31.037813 268.540125 31.037813 267.351375 
z
M 33.8325 268.037625 
L 33.8325 264.0645 
L 34.910625 264.0645 
L 34.910625 267.996375 
Q 34.910625 268.92825 35.2725 269.395125 
Q 35.63625 269.860125 36.36375 269.860125 
Q 37.235625 269.860125 37.741875 269.30325 
Q 38.25 268.746375 38.25 267.7845 
L 38.25 264.0645 
L 39.328125 264.0645 
L 39.328125 270.627 
L 38.25 270.627 
L 38.25 269.61825 
Q 37.858125 270.216375 37.33875 270.507 
Q 36.82125 270.797625 36.135 270.797625 
Q 35.004375 270.797625 34.4175 270.0945 
Q 33.8325 269.391375 33.8325 268.037625 
z
M 36.545625 263.907 
L 36.545625 263.907 
z
M 41.548594 261.508875 
L 42.626719 261.508875 
L 42.626719 270.627 
L 41.548594 270.627 
L 41.548594 261.508875 
z
M 47.865703 267.328875 
Q 46.558828 267.328875 46.054453 267.627 
Q 45.550078 267.925125 45.550078 268.647 
Q 45.550078 269.22075 45.928828 269.55825 
Q 46.307578 269.893875 46.956328 269.893875 
Q 47.854453 269.893875 48.396328 269.25825 
Q 48.938203 268.622625 48.938203 267.568875 
L 48.938203 267.328875 
L 47.865703 267.328875 
z
M 50.016328 266.882625 
L 50.016328 270.627 
L 48.938203 270.627 
L 48.938203 269.631375 
Q 48.568828 270.227625 48.017578 270.512625 
Q 47.466328 270.797625 46.669453 270.797625 
Q 45.662578 270.797625 45.066328 270.231375 
Q 44.471953 269.665125 44.471953 268.716375 
Q 44.471953 267.610125 45.212578 267.047625 
Q 45.955078 266.485125 47.425078 266.485125 
L 48.938203 266.485125 
L 48.938203 266.37825 
Q 48.938203 265.633875 48.448828 265.227 
Q 47.959453 264.820125 47.074453 264.820125 
Q 46.511953 264.820125 45.977578 264.955125 
Q 45.445078 265.090125 44.953828 265.360125 
L 44.953828 264.362625 
Q 45.544453 264.133875 46.101328 264.021375 
Q 46.658203 263.907 47.185078 263.907 
Q 48.610078 263.907 49.313203 264.64575 
Q 50.016328 265.382625 50.016328 266.882625 
z
M 53.302969 262.20075 
L 53.302969 264.0645 
L 55.522969 264.0645 
L 55.522969 264.902625 
L 53.302969 264.902625 
L 53.302969 268.465125 
Q 53.302969 269.267625 53.522344 269.496375 
Q 53.741719 269.725125 54.416719 269.725125 
L 55.522969 269.725125 
L 55.522969 270.627 
L 54.416719 270.627 
Q 53.167969 270.627 52.693594 270.162 
Q 52.219219 269.695125 52.219219 268.465125 
L 52.219219 264.902625 
L 51.427969 264.902625 
L 51.427969 264.0645 
L 52.219219 264.0645 
L 52.219219 262.20075 
L 53.302969 262.20075 
z
M 56.941172 264.0645 
L 58.019297 264.0645 
L 58.019297 270.627 
L 56.941172 270.627 
L 56.941172 264.0645 
z
M 56.941172 261.508875 
L 58.019297 261.508875 
L 58.019297 262.87575 
L 56.941172 262.87575 
L 56.941172 261.508875 
z
M 62.817656 264.820125 
Q 61.951406 264.820125 61.447031 265.497 
Q 60.942656 266.173875 60.942656 267.351375 
Q 60.942656 268.528875 61.443281 269.20575 
Q 61.945781 269.882625 62.817656 269.882625 
Q 63.680156 269.882625 64.182656 269.203875 
Q 64.687031 268.52325 64.687031 267.351375 
Q 64.687031 266.185125 64.182656 265.502625 
Q 63.680156 264.820125 62.817656 264.820125 
z
M 62.817656 263.907 
Q 64.223906 263.907 65.026406 264.822 
Q 65.830781 265.735125 65.830781 267.351375 
Q 65.830781 268.962 65.026406 269.88075 
Q 64.223906 270.797625 62.817656 270.797625 
Q 61.405781 270.797625 60.605156 269.88075 
Q 59.806406 268.962 59.806406 267.351375 
Q 59.806406 265.735125 60.605156 264.822 
Q 61.405781 263.907 62.817656 263.907 
z
M 73.073203 266.665125 
L 73.073203 270.627 
L 71.995078 270.627 
L 71.995078 266.70075 
Q 71.995078 265.768875 71.631328 265.307625 
Q 71.267578 264.8445 70.541953 264.8445 
Q 69.668203 264.8445 69.163828 265.401375 
Q 68.659453 265.956375 68.659453 266.91825 
L 68.659453 270.627 
L 67.575703 270.627 
L 67.575703 264.0645 
L 68.659453 264.0645 
L 68.659453 265.0845 
Q 69.047578 264.492 69.570703 264.1995 
Q 70.095703 263.907 70.781953 263.907 
Q 71.912578 263.907 72.491953 264.606375 
Q 73.073203 265.30575 73.073203 266.665125 
z
M 86.630625 266.777625 
Q 86.120625 266.777625 85.83 267.21075 
Q 85.54125 267.643875 85.54125 268.41825 
Q 85.54125 269.1795 85.83 269.616375 
Q 86.120625 270.05325 86.630625 270.05325 
Q 87.129375 270.05325 87.418125 269.616375 
Q 87.70875 269.1795 87.70875 268.41825 
Q 87.70875 267.6495 87.418125 267.2145 
Q 87.129375 266.777625 86.630625 266.777625 
z
M 86.630625 266.03325 
Q 87.556875 266.03325 88.100625 266.67825 
Q 88.64625 267.321375 88.64625 268.41825 
Q 88.64625 269.51325 88.09875 270.156375 
Q 87.55125 270.797625 86.630625 270.797625 
Q 85.693125 270.797625 85.1475 270.156375 
Q 84.60375 269.51325 84.60375 268.41825 
Q 84.60375 267.31575 85.15125 266.6745 
Q 85.69875 266.03325 86.630625 266.03325 
z
M 80.58375 262.465125 
Q 80.079375 262.465125 79.78875 262.902 
Q 79.5 263.337 79.5 264.100125 
Q 79.5 264.872625 79.786875 265.307625 
Q 80.07375 265.74075 80.58375 265.74075 
Q 81.09375 265.74075 81.3825 265.307625 
Q 81.673125 264.872625 81.673125 264.100125 
Q 81.673125 263.3445 81.380625 262.90575 
Q 81.088125 262.465125 80.58375 262.465125 
z
M 85.875 261.72075 
L 86.8125 261.72075 
L 81.339375 270.797625 
L 80.401875 270.797625 
L 85.875 261.72075 
z
M 80.58375 261.72075 
Q 81.51 261.72075 82.059375 262.362 
Q 82.610625 263.00325 82.610625 264.100125 
Q 82.610625 265.206375 82.063125 265.84575 
Q 81.515625 266.485125 80.58375 266.485125 
Q 79.651875 266.485125 79.11 265.843875 
Q 78.568125 265.20075 78.568125 264.100125 
Q 78.568125 263.008875 79.111875 262.36575 
Q 79.6575 261.72075 80.58375 261.72075 
z
M 100.264922 269.37825 
L 100.264922 267.028875 
L 98.331797 267.028875 
L 98.331797 266.05575 
L 101.436797 266.05575 
L 101.436797 269.81325 
Q 100.752422 270.298875 99.925547 270.54825 
Q 99.100547 270.797625 98.163047 270.797625 
Q 96.111797 270.797625 94.953047 269.5995 
Q 93.796172 268.3995 93.796172 266.262 
Q 93.796172 264.117 94.953047 262.918875 
Q 96.111797 261.72075 98.163047 261.72075 
Q 99.018047 261.72075 99.788672 261.932625 
Q 100.559297 262.142625 101.209922 262.55325 
L 101.209922 263.81325 
Q 100.553672 263.256375 99.814922 262.975125 
Q 99.076172 262.693875 98.262422 262.693875 
Q 96.655547 262.693875 95.849297 263.590125 
Q 95.044922 264.486375 95.044922 266.262 
Q 95.044922 268.032 95.849297 268.92825 
Q 96.655547 269.8245 98.262422 269.8245 
Q 98.888672 269.8245 99.379922 269.71575 
Q 99.873047 269.607 100.264922 269.37825 
z
M 107.355 265.071375 
Q 107.173125 264.966375 106.959375 264.917625 
Q 106.745625 264.867 106.48875 264.867 
Q 105.57375 264.867 105.084375 265.461375 
Q 104.595 266.05575 104.595 267.1695 
L 104.595 270.627 
L 103.51125 270.627 
L 103.51125 264.0645 
L 104.595 264.0645 
L 104.595 265.0845 
Q 104.93625 264.486375 105.48 264.197625 
Q 106.025625 263.907 106.805625 263.907 
Q 106.91625 263.907 107.05125 263.922 
Q 107.18625 263.935125 107.349375 263.965125 
L 107.355 265.071375 
z
M 110.758594 264.820125 
Q 109.892344 264.820125 109.387969 265.497 
Q 108.883594 266.173875 108.883594 267.351375 
Q 108.883594 268.528875 109.384219 269.20575 
Q 109.886719 269.882625 110.758594 269.882625 
Q 111.621094 269.882625 112.123594 269.203875 
Q 112.627969 268.52325 112.627969 267.351375 
Q 112.627969 266.185125 112.123594 265.502625 
Q 111.621094 264.820125 110.758594 264.820125 
z
M 110.758594 263.907 
Q 112.164844 263.907 112.967344 264.822 
Q 113.771719 265.735125 113.771719 267.351375 
Q 113.771719 268.962 112.967344 269.88075 
Q 112.164844 270.797625 110.758594 270.797625 
Q 109.346719 270.797625 108.546094 269.88075 
Q 107.747344 268.962 107.747344 267.351375 
Q 107.747344 265.735125 108.546094 264.822 
Q 109.346719 263.907 110.758594 263.907 
z
M 114.931641 264.0645 
L 116.009766 264.0645 
L 117.357891 269.185125 
L 118.698516 264.0645 
L 119.969766 264.0645 
L 121.317891 269.185125 
L 122.660391 264.0645 
L 123.738516 264.0645 
L 122.021016 270.627 
L 120.749766 270.627 
L 119.337891 265.247625 
L 117.920391 270.627 
L 116.647266 270.627 
L 114.931641 264.0645 
z
M 126.439219 262.20075 
L 126.439219 264.0645 
L 128.659219 264.0645 
L 128.659219 264.902625 
L 126.439219 264.902625 
L 126.439219 268.465125 
Q 126.439219 269.267625 126.658594 269.496375 
Q 126.877969 269.725125 127.552969 269.725125 
L 128.659219 269.725125 
L 128.659219 270.627 
L 127.552969 270.627 
Q 126.304219 270.627 125.829844 270.162 
Q 125.355469 269.695125 125.355469 268.465125 
L 125.355469 264.902625 
L 124.564219 264.902625 
L 124.564219 264.0645 
L 125.355469 264.0645 
L 125.355469 262.20075 
L 126.439219 262.20075 
z
M 135.533672 266.665125 
L 135.533672 270.627 
L 134.455547 270.627 
L 134.455547 266.70075 
Q 134.455547 265.768875 134.091797 265.307625 
Q 133.728047 264.8445 133.002422 264.8445 
Q 132.128672 264.8445 131.624297 265.401375 
Q 131.119922 265.956375 131.119922 266.91825 
L 131.119922 270.627 
L 130.036172 270.627 
L 130.036172 261.508875 
L 131.119922 261.508875 
L 131.119922 265.0845 
Q 131.508047 264.492 132.031172 264.1995 
Q 132.556172 263.907 133.242422 263.907 
Q 134.373047 263.907 134.952422 264.606375 
Q 135.533672 265.30575 135.533672 266.665125 
z
" style="fill: #ffffff"/>
    <path d="M 17.830313 275.315625 
L 22.857188 275.315625 
L 22.857188 276.313125 
L 19.013438 276.313125 
L 19.013438 278.89125 
L 22.482188 278.89125 
L 22.482188 279.886875 
L 19.013438 279.886875 
L 19.013438 284.064375 
L 17.830313 284.064375 
L 17.830313 275.315625 
z
M 27.618281 278.50875 
Q 27.436406 278.40375 27.222656 278.355 
Q 27.008906 278.304375 26.752031 278.304375 
Q 25.837031 278.304375 25.347656 278.89875 
Q 24.858281 279.493125 24.858281 280.606875 
L 24.858281 284.064375 
L 23.774531 284.064375 
L 23.774531 277.501875 
L 24.858281 277.501875 
L 24.858281 278.521875 
Q 25.199531 277.92375 25.743281 277.635 
Q 26.288906 277.344375 27.068906 277.344375 
Q 27.179531 277.344375 27.314531 277.359375 
Q 27.449531 277.3725 27.612656 277.4025 
L 27.618281 278.50875 
z
M 31.021875 278.2575 
Q 30.155625 278.2575 29.65125 278.934375 
Q 29.146875 279.61125 29.146875 280.78875 
Q 29.146875 281.96625 29.6475 282.643125 
Q 30.15 283.32 31.021875 283.32 
Q 31.884375 283.32 32.386875 282.64125 
Q 32.89125 281.960625 32.89125 280.78875 
Q 32.89125 279.6225 32.386875 278.94 
Q 31.884375 278.2575 31.021875 278.2575 
z
M 31.021875 277.344375 
Q 32.428125 277.344375 33.230625 278.259375 
Q 34.035 279.1725 34.035 280.78875 
Q 34.035 282.399375 33.230625 283.318125 
Q 32.428125 284.235 31.021875 284.235 
Q 29.61 284.235 28.809375 283.318125 
Q 28.010625 282.399375 28.010625 280.78875 
Q 28.010625 279.1725 28.809375 278.259375 
Q 29.61 277.344375 31.021875 277.344375 
z
M 40.930547 278.761875 
Q 41.335547 278.034375 41.898047 277.689375 
Q 42.460547 277.344375 43.221797 277.344375 
Q 44.247422 277.344375 44.804297 278.0625 
Q 45.361172 278.77875 45.361172 280.1025 
L 45.361172 284.064375 
L 44.277422 284.064375 
L 44.277422 280.138125 
Q 44.277422 279.195 43.941797 278.739375 
Q 43.608047 278.281875 42.923672 278.281875 
Q 42.085547 278.281875 41.598047 278.83875 
Q 41.112422 279.39375 41.112422 280.355625 
L 41.112422 284.064375 
L 40.028672 284.064375 
L 40.028672 280.138125 
Q 40.028672 279.189375 39.694922 278.735625 
Q 39.361172 278.281875 38.663672 278.281875 
Q 37.836797 278.281875 37.349297 278.840625 
Q 36.863672 279.399375 36.863672 280.355625 
L 36.863672 284.064375 
L 35.779922 284.064375 
L 35.779922 277.501875 
L 36.863672 277.501875 
L 36.863672 278.521875 
Q 37.233047 277.918125 37.748672 277.63125 
Q 38.264297 277.344375 38.973047 277.344375 
Q 39.689297 277.344375 40.189922 277.708125 
Q 40.690547 278.07 40.930547 278.761875 
z
M 52.496953 283.06875 
L 56.627578 283.06875 
L 56.627578 284.064375 
L 51.073828 284.064375 
L 51.073828 283.06875 
Q 51.746953 282.37125 52.909453 281.1975 
Q 54.073828 280.021875 54.371953 279.680625 
Q 54.940078 279.043125 55.165078 278.600625 
Q 55.391953 278.158125 55.391953 277.730625 
Q 55.391953 277.033125 54.902578 276.594375 
Q 54.413203 276.15375 53.627578 276.15375 
Q 53.070703 276.15375 52.451953 276.346875 
Q 51.835078 276.54 51.131953 276.93375 
L 51.131953 275.7375 
Q 51.846328 275.450625 52.466953 275.304375 
Q 53.089453 275.158125 53.605078 275.158125 
Q 54.964453 275.158125 55.772578 275.83875 
Q 56.580703 276.5175 56.580703 277.65375 
Q 56.580703 278.19375 56.378203 278.6775 
Q 56.177578 279.159375 55.643203 279.815625 
Q 55.496953 279.98625 54.711328 280.798125 
Q 53.927578 281.61 52.496953 283.06875 
z
M 61.642969 276.095625 
Q 60.729844 276.095625 60.268594 276.995625 
Q 59.809219 277.89375 59.809219 279.699375 
Q 59.809219 281.4975 60.268594 282.3975 
Q 60.729844 283.2975 61.642969 283.2975 
Q 62.563594 283.2975 63.022969 282.3975 
Q 63.484219 281.4975 63.484219 279.699375 
Q 63.484219 277.89375 63.022969 276.995625 
Q 62.563594 276.095625 61.642969 276.095625 
z
M 61.642969 275.158125 
Q 63.114844 275.158125 63.891094 276.3225 
Q 64.667344 277.485 64.667344 279.699375 
Q 64.667344 281.908125 63.891094 283.0725 
Q 63.114844 284.235 61.642969 284.235 
Q 60.172969 284.235 59.396719 283.0725 
Q 58.620469 281.908125 58.620469 279.699375 
Q 58.620469 277.485 59.396719 276.3225 
Q 60.172969 275.158125 61.642969 275.158125 
z
M 66.952734 283.06875 
L 68.885859 283.06875 
L 68.885859 276.39375 
L 66.782109 276.815625 
L 66.782109 275.7375 
L 68.874609 275.315625 
L 70.057734 275.315625 
L 70.057734 283.06875 
L 71.990859 283.06875 
L 71.990859 284.064375 
L 66.952734 284.064375 
L 66.952734 283.06875 
z
M 76.9125 276.095625 
Q 75.999375 276.095625 75.538125 276.995625 
Q 75.07875 277.89375 75.07875 279.699375 
Q 75.07875 281.4975 75.538125 282.3975 
Q 75.999375 283.2975 76.9125 283.2975 
Q 77.833125 283.2975 78.2925 282.3975 
Q 78.75375 281.4975 78.75375 279.699375 
Q 78.75375 277.89375 78.2925 276.995625 
Q 77.833125 276.095625 76.9125 276.095625 
z
M 76.9125 275.158125 
Q 78.384375 275.158125 79.160625 276.3225 
Q 79.936875 277.485 79.936875 279.699375 
Q 79.936875 281.908125 79.160625 283.0725 
Q 78.384375 284.235 76.9125 284.235 
Q 75.4425 284.235 74.66625 283.0725 
Q 73.89 281.908125 73.89 279.699375 
Q 73.89 277.485 74.66625 276.3225 
Q 75.4425 275.158125 76.9125 275.158125 
z
M 86.745469 275.638125 
L 86.745469 277.501875 
L 88.965469 277.501875 
L 88.965469 278.34 
L 86.745469 278.34 
L 86.745469 281.9025 
Q 86.745469 282.705 86.964844 282.93375 
Q 87.184219 283.1625 87.859219 283.1625 
L 88.965469 283.1625 
L 88.965469 284.064375 
L 87.859219 284.064375 
Q 86.610469 284.064375 86.136094 283.599375 
Q 85.661719 283.1325 85.661719 281.9025 
L 85.661719 278.34 
L 84.870469 278.34 
L 84.870469 277.501875 
L 85.661719 277.501875 
L 85.661719 275.638125 
L 86.745469 275.638125 
z
M 92.926172 278.2575 
Q 92.059922 278.2575 91.555547 278.934375 
Q 91.051172 279.61125 91.051172 280.78875 
Q 91.051172 281.96625 91.551797 282.643125 
Q 92.054297 283.32 92.926172 283.32 
Q 93.788672 283.32 94.291172 282.64125 
Q 94.795547 281.960625 94.795547 280.78875 
Q 94.795547 279.6225 94.291172 278.94 
Q 93.788672 278.2575 92.926172 278.2575 
z
M 92.926172 277.344375 
Q 94.332422 277.344375 95.134922 278.259375 
Q 95.939297 279.1725 95.939297 280.78875 
Q 95.939297 282.399375 95.134922 283.318125 
Q 94.332422 284.235 92.926172 284.235 
Q 91.514297 284.235 90.713672 283.318125 
Q 89.914922 282.399375 89.914922 280.78875 
Q 89.914922 279.1725 90.713672 278.259375 
Q 91.514297 277.344375 92.926172 277.344375 
z
M 102.711797 283.06875 
L 106.842422 283.06875 
L 106.842422 284.064375 
L 101.288672 284.064375 
L 101.288672 283.06875 
Q 101.961797 282.37125 103.124297 281.1975 
Q 104.288672 280.021875 104.586797 279.680625 
Q 105.154922 279.043125 105.379922 278.600625 
Q 105.606797 278.158125 105.606797 277.730625 
Q 105.606797 277.033125 105.117422 276.594375 
Q 104.628047 276.15375 103.842422 276.15375 
Q 103.285547 276.15375 102.666797 276.346875 
Q 102.049922 276.54 101.346797 276.93375 
L 101.346797 275.7375 
Q 102.061172 275.450625 102.681797 275.304375 
Q 103.304297 275.158125 103.819922 275.158125 
Q 105.179297 275.158125 105.987422 275.83875 
Q 106.795547 276.5175 106.795547 277.65375 
Q 106.795547 278.19375 106.593047 278.6775 
Q 106.392422 279.159375 105.858047 279.815625 
Q 105.711797 279.98625 104.926172 280.798125 
Q 104.142422 281.61 102.711797 283.06875 
z
M 111.857813 276.095625 
Q 110.944688 276.095625 110.483438 276.995625 
Q 110.024063 277.89375 110.024063 279.699375 
Q 110.024063 281.4975 110.483438 282.3975 
Q 110.944688 283.2975 111.857813 283.2975 
Q 112.778438 283.2975 113.237813 282.3975 
Q 113.699063 281.4975 113.699063 279.699375 
Q 113.699063 277.89375 113.237813 276.995625 
Q 112.778438 276.095625 111.857813 276.095625 
z
M 111.857813 275.158125 
Q 113.329688 275.158125 114.105938 276.3225 
Q 114.882188 277.485 114.882188 279.699375 
Q 114.882188 281.908125 114.105938 283.0725 
Q 113.329688 284.235 111.857813 284.235 
Q 110.387813 284.235 109.611563 283.0725 
Q 108.835313 281.908125 108.835313 279.699375 
Q 108.835313 277.485 109.611563 276.3225 
Q 110.387813 275.158125 111.857813 275.158125 
z
M 117.981328 283.06875 
L 122.111953 283.06875 
L 122.111953 284.064375 
L 116.558203 284.064375 
L 116.558203 283.06875 
Q 117.231328 282.37125 118.393828 281.1975 
Q 119.558203 280.021875 119.856328 279.680625 
Q 120.424453 279.043125 120.649453 278.600625 
Q 120.876328 278.158125 120.876328 277.730625 
Q 120.876328 277.033125 120.386953 276.594375 
Q 119.897578 276.15375 119.111953 276.15375 
Q 118.555078 276.15375 117.936328 276.346875 
Q 117.319453 276.54 116.616328 276.93375 
L 116.616328 275.7375 
Q 117.330703 275.450625 117.951328 275.304375 
Q 118.573828 275.158125 119.089453 275.158125 
Q 120.448828 275.158125 121.256953 275.83875 
Q 122.065078 276.5175 122.065078 277.65375 
Q 122.065078 278.19375 121.862578 278.6775 
Q 121.661953 279.159375 121.127578 279.815625 
Q 120.981328 279.98625 120.195703 280.798125 
Q 119.411953 281.61 117.981328 283.06875 
z
M 127.127344 276.095625 
Q 126.214219 276.095625 125.752969 276.995625 
Q 125.293594 277.89375 125.293594 279.699375 
Q 125.293594 281.4975 125.752969 282.3975 
Q 126.214219 283.2975 127.127344 283.2975 
Q 128.047969 283.2975 128.507344 282.3975 
Q 128.968594 281.4975 128.968594 279.699375 
Q 128.968594 277.89375 128.507344 276.995625 
Q 128.047969 276.095625 127.127344 276.095625 
z
M 127.127344 275.158125 
Q 128.599219 275.158125 129.375469 276.3225 
Q 130.151719 277.485 130.151719 279.699375 
Q 130.151719 281.908125 129.375469 283.0725 
Q 128.599219 284.235 127.127344 284.235 
Q 125.657344 284.235 124.881094 283.0725 
Q 124.104844 281.908125 124.104844 279.699375 
Q 124.104844 277.485 124.881094 276.3225 
Q 125.657344 275.158125 127.127344 275.158125 
z
" style="fill: #ffffff; stroke: #000000; stroke-width: 2"/>
    <path d="M 17.830313 275.315625 
L 22.857188 275.315625 
L 22.857188 276.313125 
L 19.013438 276.313125 
L 19.013438 278.89125 
L 22.482188 278.89125 
L 22.482188 279.886875 
L 19.013438 279.886875 
L 19.013438 284.064375 
L 17.830313 284.064375 
L 17.830313 275.315625 
z
M 27.618281 278.50875 
Q 27.436406 278.40375 27.222656 278.355 
Q 27.008906 278.304375 26.752031 278.304375 
Q 25.837031 278.304375 25.347656 278.89875 
Q 24.858281 279.493125 24.858281 280.606875 
L 24.858281 284.064375 
L 23.774531 284.064375 
L 23.774531 277.501875 
L 24.858281 277.501875 
L 24.858281 278.521875 
Q 25.199531 277.92375 25.743281 277.635 
Q 26.288906 277.344375 27.068906 277.344375 
Q 27.179531 277.344375 27.314531 277.359375 
Q 27.449531 277.3725 27.612656 277.4025 
L 27.618281 278.50875 
z
M 31.021875 278.2575 
Q 30.155625 278.2575 29.65125 278.934375 
Q 29.146875 279.61125 29.146875 280.78875 
Q 29.146875 281.96625 29.6475 282.643125 
Q 30.15 283.32 31.021875 283.32 
Q 31.884375 283.32 32.386875 282.64125 
Q 32.89125 281.960625 32.89125 280.78875 
Q 32.89125 279.6225 32.386875 278.94 
Q 31.884375 278.2575 31.021875 278.2575 
z
M 31.021875 277.344375 
Q 32.428125 277.344375 33.230625 278.259375 
Q 34.035 279.1725 34.035 280.78875 
Q 34.035 282.399375 33.230625 283.318125 
Q 32.428125 284.235 31.021875 284.235 
Q 29.61 284.235 28.809375 283.318125 
Q 28.010625 282.399375 28.010625 280.78875 
Q 28.010625 279.1725 28.809375 278.259375 
Q 29.61 277.344375 31.021875 277.344375 
z
M 40.930547 278.761875 
Q 41.335547 278.034375 41.898047 277.689375 
Q 42.460547 277.344375 43.221797 277.344375 
Q 44.247422 277.344375 44.804297 278.0625 
Q 45.361172 278.77875 45.361172 280.1025 
L 45.361172 284.064375 
L 44.277422 284.064375 
L 44.277422 280.138125 
Q 44.277422 279.195 43.941797 278.739375 
Q 43.608047 278.281875 42.923672 278.281875 
Q 42.085547 278.281875 41.598047 278.83875 
Q 41.112422 279.39375 41.112422 280.355625 
L 41.112422 284.064375 
L 40.028672 284.064375 
L 40.028672 280.138125 
Q 40.028672 279.189375 39.694922 278.735625 
Q 39.361172 278.281875 38.663672 278.281875 
Q 37.836797 278.281875 37.349297 278.840625 
Q 36.863672 279.399375 36.863672 280.355625 
L 36.863672 284.064375 
L 35.779922 284.064375 
L 35.779922 277.501875 
L 36.863672 277.501875 
L 36.863672 278.521875 
Q 37.233047 277.918125 37.748672 277.63125 
Q 38.264297 277.344375 38.973047 277.344375 
Q 39.689297 277.344375 40.189922 277.708125 
Q 40.690547 278.07 40.930547 278.761875 
z
M 52.496953 283.06875 
L 56.627578 283.06875 
L 56.627578 284.064375 
L 51.073828 284.064375 
L 51.073828 283.06875 
Q 51.746953 282.37125 52.909453 281.1975 
Q 54.073828 280.021875 54.371953 279.680625 
Q 54.940078 279.043125 55.165078 278.600625 
Q 55.391953 278.158125 55.391953 277.730625 
Q 55.391953 277.033125 54.902578 276.594375 
Q 54.413203 276.15375 53.627578 276.15375 
Q 53.070703 276.15375 52.451953 276.346875 
Q 51.835078 276.54 51.131953 276.93375 
L 51.131953 275.7375 
Q 51.846328 275.450625 52.466953 275.304375 
Q 53.089453 275.158125 53.605078 275.158125 
Q 54.964453 275.158125 55.772578 275.83875 
Q 56.580703 276.5175 56.580703 277.65375 
Q 56.580703 278.19375 56.378203 278.6775 
Q 56.177578 279.159375 55.643203 279.815625 
Q 55.496953 279.98625 54.711328 280.798125 
Q 53.927578 281.61 52.496953 283.06875 
z
M 61.642969 276.095625 
Q 60.729844 276.095625 60.268594 276.995625 
Q 59.809219 277.89375 59.809219 279.699375 
Q 59.809219 281.4975 60.268594 282.3975 
Q 60.729844 283.2975 61.642969 283.2975 
Q 62.563594 283.2975 63.022969 282.3975 
Q 63.484219 281.4975 63.484219 279.699375 
Q 63.484219 277.89375 63.022969 276.995625 
Q 62.563594 276.095625 61.642969 276.095625 
z
M 61.642969 275.158125 
Q 63.114844 275.158125 63.891094 276.3225 
Q 64.667344 277.485 64.667344 279.699375 
Q 64.667344 281.908125 63.891094 283.0725 
Q 63.114844 284.235 61.642969 284.235 
Q 60.172969 284.235 59.396719 283.0725 
Q 58.620469 281.908125 58.620469 279.699375 
Q 58.620469 277.485 59.396719 276.3225 
Q 60.172969 275.158125 61.642969 275.158125 
z
M 66.952734 283.06875 
L 68.885859 283.06875 
L 68.885859 276.39375 
L 66.782109 276.815625 
L 66.782109 275.7375 
L 68.874609 275.315625 
L 70.057734 275.315625 
L 70.057734 283.06875 
L 71.990859 283.06875 
L 71.990859 284.064375 
L 66.952734 284.064375 
L 66.952734 283.06875 
z
M 76.9125 276.095625 
Q 75.999375 276.095625 75.538125 276.995625 
Q 75.07875 277.89375 75.07875 279.699375 
Q 75.07875 281.4975 75.538125 282.3975 
Q 75.999375 283.2975 76.9125 283.2975 
Q 77.833125 283.2975 78.2925 282.3975 
Q 78.75375 281.4975 78.75375 279.699375 
Q 78.75375 277.89375 78.2925 276.995625 
Q 77.833125 276.095625 76.9125 276.095625 
z
M 76.9125 275.158125 
Q 78.384375 275.158125 79.160625 276.3225 
Q 79.936875 277.485 79.936875 279.699375 
Q 79.936875 281.908125 79.160625 283.0725 
Q 78.384375 284.235 76.9125 284.235 
Q 75.4425 284.235 74.66625 283.0725 
Q 73.89 281.908125 73.89 279.699375 
Q 73.89 277.485 74.66625 276.3225 
Q 75.4425 275.158125 76.9125 275.158125 
z
M 86.745469 275.638125 
L 86.745469 277.501875 
L 88.965469 277.501875 
L 88.965469 278.34 
L 86.745469 278.34 
L 86.745469 281.9025 
Q 86.745469 282.705 86.964844 282.93375 
Q 87.184219 283.1625 87.859219 283.1625 
L 88.965469 283.1625 
L 88.965469 284.064375 
L 87.859219 284.064375 
Q 86.610469 284.064375 86.136094 283.599375 
Q 85.661719 283.1325 85.661719 281.9025 
L 85.661719 278.34 
L 84.870469 278.34 
L 84.870469 277.501875 
L 85.661719 277.501875 
L 85.661719 275.638125 
L 86.745469 275.638125 
z
M 92.926172 278.2575 
Q 92.059922 278.2575 91.555547 278.934375 
Q 91.051172 279.61125 91.051172 280.78875 
Q 91.051172 281.96625 91.551797 282.643125 
Q 92.054297 283.32 92.926172 283.32 
Q 93.788672 283.32 94.291172 282.64125 
Q 94.795547 281.960625 94.795547 280.78875 
Q 94.795547 279.6225 94.291172 278.94 
Q 93.788672 278.2575 92.926172 278.2575 
z
M 92.926172 277.344375 
Q 94.332422 277.344375 95.134922 278.259375 
Q 95.939297 279.1725 95.939297 280.78875 
Q 95.939297 282.399375 95.134922 283.318125 
Q 94.332422 284.235 92.926172 284.235 
Q 91.514297 284.235 90.713672 283.318125 
Q 89.914922 282.399375 89.914922 280.78875 
Q 89.914922 279.1725 90.713672 278.259375 
Q 91.514297 277.344375 92.926172 277.344375 
z
M 102.711797 283.06875 
L 106.842422 283.06875 
L 106.842422 284.064375 
L 101.288672 284.064375 
L 101.288672 283.06875 
Q 101.961797 282.37125 103.124297 281.1975 
Q 104.288672 280.021875 104.586797 279.680625 
Q 105.154922 279.043125 105.379922 278.600625 
Q 105.606797 278.158125 105.606797 277.730625 
Q 105.606797 277.033125 105.117422 276.594375 
Q 104.628047 276.15375 103.842422 276.15375 
Q 103.285547 276.15375 102.666797 276.346875 
Q 102.049922 276.54 101.346797 276.93375 
L 101.346797 275.7375 
Q 102.061172 275.450625 102.681797 275.304375 
Q 103.304297 275.158125 103.819922 275.158125 
Q 105.179297 275.158125 105.987422 275.83875 
Q 106.795547 276.5175 106.795547 277.65375 
Q 106.795547 278.19375 106.593047 278.6775 
Q 106.392422 279.159375 105.858047 279.815625 
Q 105.711797 279.98625 104.926172 280.798125 
Q 104.142422 281.61 102.711797 283.06875 
z
M 111.857813 276.095625 
Q 110.944688 276.095625 110.483438 276.995625 
Q 110.024063 277.89375 110.024063 279.699375 
Q 110.024063 281.4975 110.483438 282.3975 
Q 110.944688 283.2975 111.857813 283.2975 
Q 112.778438 283.2975 113.237813 282.3975 
Q 113.699063 281.4975 113.699063 279.699375 
Q 113.699063 277.89375 113.237813 276.995625 
Q 112.778438 276.095625 111.857813 276.095625 
z
M 111.857813 275.158125 
Q 113.329688 275.158125 114.105938 276.3225 
Q 114.882188 277.485 114.882188 279.699375 
Q 114.882188 281.908125 114.105938 283.0725 
Q 113.329688 284.235 111.857813 284.235 
Q 110.387813 284.235 109.611563 283.0725 
Q 108.835313 281.908125 108.835313 279.699375 
Q 108.835313 277.485 109.611563 276.3225 
Q 110.387813 275.158125 111.857813 275.158125 
z
M 117.981328 283.06875 
L 122.111953 283.06875 
L 122.111953 284.064375 
L 116.558203 284.064375 
L 116.558203 283.06875 
Q 117.231328 282.37125 118.393828 281.1975 
Q 119.558203 280.021875 119.856328 279.680625 
Q 120.424453 279.043125 120.649453 278.600625 
Q 120.876328 278.158125 120.876328 277.730625 
Q 120.876328 277.033125 120.386953 276.594375 
Q 119.897578 276.15375 119.111953 276.15375 
Q 118.555078 276.15375 117.936328 276.346875 
Q 117.319453 276.54 116.616328 276.93375 
L 116.616328 275.7375 
Q 117.330703 275.450625 117.951328 275.304375 
Q 118.573828 275.158125 119.089453 275.158125 
Q 120.448828 275.158125 121.256953 275.83875 
Q 122.065078 276.5175 122.065078 277.65375 
Q 122.065078 278.19375 121.862578 278.6775 
Q 121.661953 279.159375 121.127578 279.815625 
Q 120.981328 279.98625 120.195703 280.798125 
Q 119.411953 281.61 117.981328 283.06875 
z
M 127.127344 276.095625 
Q 126.214219 276.095625 125.752969 276.995625 
Q 125.293594 277.89375 125.293594 279.699375 
Q 125.293594 281.4975 125.752969 282.3975 
Q 126.214219 283.2975 127.127344 283.2975 
Q 128.047969 283.2975 128.507344 282.3975 
Q 128.968594 281.4975 128.968594 279.699375 
Q 128.968594 277.89375 128.507344 276.995625 
Q 128.047969 276.095625 127.127344 276.095625 
z
M 127.127344 275.158125 
Q 128.599219 275.158125 129.375469 276.3225 
Q 130.151719 277.485 130.151719 279.699375 
Q 130.151719 281.908125 129.375469 283.0725 
Q 128.599219 284.235 127.127344 284.235 
Q 125.657344 284.235 124.881094 283.0725 
Q 124.104844 281.908125 124.104844 279.699375 
Q 124.104844 277.485 124.881094 276.3225 
Q 125.657344 275.158125 127.127344 275.158125 
z
" style="fill: #ffffff"/>
   </g>
  </g>
  <g id="axes_3">
   <g id="patch_4">
    <path d="M 104.982353 286.56 
L 129.6 286.56 
L 129.6 69.12 
L 104.982353 69.12 
L 104.982353 286.56 
z
" style="fill: none"/>
   </g>
  </g>
  <g id="axes_4">
   <g id="patch_5">
    <path d="M 18 504 
L 42.617647 504 
L 42.617647 286.56 
L 18 286.56 
L 18 504 
z
" style="fill: none"/>
   </g>
  </g>
  <g id="axes_5">
   <g id="patch_6">
    <path d="M 49.182353 504 
L 98.417647 504 
L 98.417647 286.56 
L 49.182353 286.56 
L 49.182353 504 
z
" style="fill: none"/>
   </g>
   <g id="patch_7">
    <path d="M 49.182353 494.116364 
L 96.073109 494.116364 
L 96.073109 469.407273 
L 49.182353 469.407273 
z
" clip-path="url(#p0433093152)" style="fill: #d73027"/>
   </g>
   <g id="patch_8">
    <path d="M 49.182353 469.407273 
L 96.073109 469.407273 
L 96.073109 444.698182 
L 49.182353 444.698182 
z
" clip-path="url(#p0433093152)" style="fill: #f46d43"/>
   </g>
   <g id="patch_9">
    <path d="M 49.182353 444.698182 
L 96.073109 444.698182 
L 96.073109 419.989091 
L 49.182353 419.989091 
z
" clip-path="url(#p0433093152)" style="fill: #fdae61"/>
   </g>
   <g id="patch_10">
    <path d="M 49.182353 419.989091 
L 96.073109 419.989091 
L 96.073109 395.28 
L 49.182353 395.28 
z
" clip-path="url(#p0433093152)" style="fill: #fee08b"/>
   </g>
   <g id="patch_11">
    <path d="M 49.182353 395.28 
L 96.073109 395.28 
L 96.073109 370.570909 
L 49.182353 370.570909 
z
" clip-path="url(#p0433093152)" style="fill: #d9ef8b"/>
   </g>
   <g id="patch_12">
    <path d="M 49.182353 370.570909 
L 96.073109 370.570909 
L 96.073109 345.861818 
L 49.182353 345.861818 
z
" clip-path="url(#p0433093152)" style="fill: #a6d96a"/>
   </g>
   <g id="patch_13">
    <path d="M 49.182353 345.861818 
L 96.073109 345.861818 
L 96.073109 321.152727 
L 49.182353 321.152727 
z
" clip-path="url(#p0433093152)" style="fill: #66bd63"/>
   </g>
   <g id="patch_14">
    <path d="M 49.182353 321.152727 
L 96.073109 321.152727 
L 96.073109 296.443636 
L 49.182353 296.443636 
z
" clip-path="url(#p0433093152)" style="fill: #1a9850"/>
   </g>
   <g id="text_2">
    <path d="M 60.159919 495.22125 
L 63.838669 495.22125 
L 63.838669 496.925625 
L 60.159919 496.925625 
L 60.159919 495.22125 
z
M 70.079137 494.810625 
Q 70.964137 495.039375 71.423512 495.605625 
Q 71.884762 496.17 71.884762 497.04375 
Q 71.884762 498.345 70.887262 499.021875 
Q 69.891637 499.69875 67.982887 499.69875 
Q 67.307887 499.69875 66.631012 499.59 
Q 65.954137 499.48125 65.292262 499.26375 
L 65.292262 497.52375 
Q 65.926012 497.840625 66.548512 498.001875 
Q 67.172887 498.163125 67.776637 498.163125 
Q 68.672887 498.163125 69.151012 497.85375 
Q 69.629137 497.5425 69.629137 496.96125 
Q 69.629137 496.363125 69.139762 496.055625 
Q 68.650387 495.748125 67.694137 495.748125 
L 66.792262 495.748125 
L 66.792262 494.295 
L 67.741012 494.295 
Q 68.592262 494.295 69.006637 494.02875 
Q 69.422887 493.7625 69.422887 493.216875 
Q 69.422887 492.714375 69.017887 492.43875 
Q 68.614762 492.163125 67.876012 492.163125 
Q 67.332262 492.163125 66.775387 492.286875 
Q 66.218512 492.40875 65.667262 492.64875 
L 65.667262 490.996875 
Q 66.334762 490.809375 66.991012 490.715625 
Q 67.647262 490.621875 68.281012 490.621875 
Q 69.985387 490.621875 70.831012 491.1825 
Q 71.678512 491.74125 71.678512 492.86625 
Q 71.678512 493.633125 71.273512 494.1225 
Q 70.870387 494.611875 70.079137 494.810625 
z
M 74.063747 497.26125 
L 76.173122 497.26125 
L 76.173122 499.528125 
L 74.063747 499.528125 
L 74.063747 497.26125 
z
M 80.855465 497.870625 
L 84.70484 497.870625 
L 84.70484 499.528125 
L 78.346715 499.528125 
L 78.346715 497.870625 
L 81.53984 495.050625 
Q 81.969215 494.664375 82.17359 494.295 
Q 82.377965 493.925625 82.377965 493.528125 
Q 82.377965 492.913125 81.965465 492.538125 
Q 81.552965 492.163125 80.866715 492.163125 
Q 80.33984 492.163125 79.711715 492.388125 
Q 79.085465 492.613125 78.37109 493.059375 
L 78.37109 491.1375 
Q 79.13234 490.88625 79.876715 490.755 
Q 80.62109 490.621875 81.335465 490.621875 
Q 82.906715 490.621875 83.776715 491.31375 
Q 84.646715 492.00375 84.646715 493.24125 
Q 84.646715 493.955625 84.27734 494.574375 
Q 83.907965 495.19125 82.72484 496.23 
L 80.855465 497.870625 
z
" style="stroke: #ffffff"/>
    <path d="M 60.159919 495.22125 
L 63.838669 495.22125 
L 63.838669 496.925625 
L 60.159919 496.925625 
L 60.159919 495.22125 
z
M 70.079137 494.810625 
Q 70.964137 495.039375 71.423512 495.605625 
Q 71.884762 496.17 71.884762 497.04375 
Q 71.884762 498.345 70.887262 499.021875 
Q 69.891637 499.69875 67.982887 499.69875 
Q 67.307887 499.69875 66.631012 499.59 
Q 65.954137 499.48125 65.292262 499.26375 
L 65.292262 497.52375 
Q 65.926012 497.840625 66.548512 498.001875 
Q 67.172887 498.163125 67.776637 498.163125 
Q 68.672887 498.163125 69.151012 497.85375 
Q 69.629137 497.5425 69.629137 496.96125 
Q 69.629137 496.363125 69.139762 496.055625 
Q 68.650387 495.748125 67.694137 495.748125 
L 66.792262 495.748125 
L 66.792262 494.295 
L 67.741012 494.295 
Q 68.592262 494.295 69.006637 494.02875 
Q 69.422887 493.7625 69.422887 493.216875 
Q 69.422887 492.714375 69.017887 492.43875 
Q 68.614762 492.163125 67.876012 492.163125 
Q 67.332262 492.163125 66.775387 492.286875 
Q 66.218512 492.40875 65.667262 492.64875 
L 65.667262 490.996875 
Q 66.334762 490.809375 66.991012 490.715625 
Q 67.647262 490.621875 68.281012 490.621875 
Q 69.985387 490.621875 70.831012 491.1825 
Q 71.678512 491.74125 71.678512 492.86625 
Q 71.678512 493.633125 71.273512 494.1225 
Q 70.870387 494.611875 70.079137 494.810625 
z
M 74.063747 497.26125 
L 76.173122 497.26125 
L 76.173122 499.528125 
L 74.063747 499.528125 
L 74.063747 497.26125 
z
M 80.855465 497.870625 
L 84.70484 497.870625 
L 84.70484 499.528125 
L 78.346715 499.528125 
L 78.346715 497.870625 
L 81.53984 495.050625 
Q 81.969215 494.664375 82.17359 494.295 
Q 82.377965 493.925625 82.377965 493.528125 
Q 82.377965 492.913125 81.965465 492.538125 
Q 81.552965 492.163125 80.866715 492.163125 
Q 80.33984 492.163125 79.711715 492.388125 
Q 79.085465 492.613125 78.37109 493.059375 
L 78.37109 491.1375 
Q 79.13234 490.88625 79.876715 490.755 
Q 80.62109 490.621875 81.335465 490.621875 
Q 82.906715 490.621875 83.776715 491.31375 
Q 84.646715 492.00375 84.646715 493.24125 
Q 84.646715 493.955625 84.27734 494.574375 
Q 83.907965 495.19125 82.72484 496.23 
L 80.855465 497.870625 
z
"/>
   </g>
   <g id="text_3">
    <path d="M 61.282106 473.161534 
L 65.131481 473.161534 
L 65.131481 474.819034 
L 58.773356 474.819034 
L 58.773356 473.161534 
L 61.966481 470.341534 
Q 62.395856 469.955284 62.600231 469.585909 
Q 62.804606 469.216534 62.804606 468.819034 
Q 62.804606 468.204034 62.392106 467.829034 
Q 61.979606 467.454034 61.293356 467.454034 
Q 60.766481 467.454034 60.138356 467.679034 
Q 59.512106 467.904034 58.797731 468.350284 
L 58.797731 466.428409 
Q 59.558981 466.177159 60.303356 466.045909 
Q 61.047731 465.912784 61.762106 465.912784 
Q 63.333356 465.912784 64.203356 466.604659 
Q 65.073356 467.294659 65.073356 468.532159 
Q 65.073356 469.246534 64.703981 469.865284 
Q 64.334606 470.482159 63.151481 471.520909 
L 61.282106 473.161534 
z
M 67.39859 472.552159 
L 69.507965 472.552159 
L 69.507965 474.819034 
L 67.39859 474.819034 
L 67.39859 472.552159 
z
M 76.322184 470.101534 
Q 77.207184 470.330284 77.666559 470.896534 
Q 78.127809 471.460909 78.127809 472.334659 
Q 78.127809 473.635909 77.130309 474.312784 
Q 76.134684 474.989659 74.225934 474.989659 
Q 73.550934 474.989659 72.874059 474.880909 
Q 72.197184 474.772159 71.535309 474.554659 
L 71.535309 472.814659 
Q 72.169059 473.131534 72.791559 473.292784 
Q 73.415934 473.454034 74.019684 473.454034 
Q 74.915934 473.454034 75.394059 473.144659 
Q 75.872184 472.833409 75.872184 472.252159 
Q 75.872184 471.654034 75.382809 471.346534 
Q 74.893434 471.039034 73.937184 471.039034 
L 73.035309 471.039034 
L 73.035309 469.585909 
L 73.984059 469.585909 
Q 74.835309 469.585909 75.249684 469.319659 
Q 75.665934 469.053409 75.665934 468.507784 
Q 75.665934 468.005284 75.260934 467.729659 
Q 74.857809 467.454034 74.119059 467.454034 
Q 73.575309 467.454034 73.018434 467.577784 
Q 72.461559 467.699659 71.910309 467.939659 
L 71.910309 466.287784 
Q 72.577809 466.100284 73.234059 466.006534 
Q 73.890309 465.912784 74.524059 465.912784 
Q 76.228434 465.912784 77.074059 466.473409 
Q 77.921559 467.032159 77.921559 468.157159 
Q 77.921559 468.924034 77.516559 469.413409 
Q 77.113434 469.902784 76.322184 470.101534 
z
M 80.353669 466.070284 
L 85.961794 466.070284 
L 85.961794 467.729659 
L 82.153669 467.729659 
L 82.153669 469.083409 
Q 82.410544 469.012159 82.671169 468.974659 
Q 82.931794 468.935284 83.213044 468.935284 
Q 84.812419 468.935284 85.703044 469.735909 
Q 86.593669 470.536534 86.593669 471.965284 
Q 86.593669 473.382784 85.624294 474.187159 
Q 84.654919 474.989659 82.931794 474.989659 
Q 82.187419 474.989659 81.458044 474.845284 
Q 80.728669 474.700909 80.008669 474.408409 
L 80.008669 472.632784 
Q 80.723044 473.043409 81.364294 473.249659 
Q 82.005544 473.454034 82.575544 473.454034 
Q 83.394919 473.454034 83.865544 473.052784 
Q 84.338044 472.651534 84.338044 471.965284 
Q 84.338044 471.273409 83.865544 470.875909 
Q 83.394919 470.476534 82.575544 470.476534 
Q 82.088044 470.476534 81.536794 470.604034 
Q 80.987419 470.729659 80.353669 470.992159 
L 80.353669 466.070284 
z
" style="stroke: #ffffff"/>
    <path d="M 61.282106 473.161534 
L 65.131481 473.161534 
L 65.131481 474.819034 
L 58.773356 474.819034 
L 58.773356 473.161534 
L 61.966481 470.341534 
Q 62.395856 469.955284 62.600231 469.585909 
Q 62.804606 469.216534 62.804606 468.819034 
Q 62.804606 468.204034 62.392106 467.829034 
Q 61.979606 467.454034 61.293356 467.454034 
Q 60.766481 467.454034 60.138356 467.679034 
Q 59.512106 467.904034 58.797731 468.350284 
L 58.797731 466.428409 
Q 59.558981 466.177159 60.303356 466.045909 
Q 61.047731 465.912784 61.762106 465.912784 
Q 63.333356 465.912784 64.203356 466.604659 
Q 65.073356 467.294659 65.073356 468.532159 
Q 65.073356 469.246534 64.703981 469.865284 
Q 64.334606 470.482159 63.151481 471.520909 
L 61.282106 473.161534 
z
M 67.39859 472.552159 
L 69.507965 472.552159 
L 69.507965 474.819034 
L 67.39859 474.819034 
L 67.39859 472.552159 
z
M 76.322184 470.101534 
Q 77.207184 470.330284 77.666559 470.896534 
Q 78.127809 471.460909 78.127809 472.334659 
Q 78.127809 473.635909 77.130309 474.312784 
Q 76.134684 474.989659 74.225934 474.989659 
Q 73.550934 474.989659 72.874059 474.880909 
Q 72.197184 474.772159 71.535309 474.554659 
L 71.535309 472.814659 
Q 72.169059 473.131534 72.791559 473.292784 
Q 73.415934 473.454034 74.019684 473.454034 
Q 74.915934 473.454034 75.394059 473.144659 
Q 75.872184 472.833409 75.872184 472.252159 
Q 75.872184 471.654034 75.382809 471.346534 
Q 74.893434 471.039034 73.937184 471.039034 
L 73.035309 471.039034 
L 73.035309 469.585909 
L 73.984059 469.585909 
Q 74.835309 469.585909 75.249684 469.319659 
Q 75.665934 469.053409 75.665934 468.507784 
Q 75.665934 468.005284 75.260934 467.729659 
Q 74.857809 467.454034 74.119059 467.454034 
Q 73.575309 467.454034 73.018434 467.577784 
Q 72.461559 467.699659 71.910309 467.939659 
L 71.910309 466.287784 
Q 72.577809 466.100284 73.234059 466.006534 
Q 73.890309 465.912784 74.524059 465.912784 
Q 76.228434 465.912784 77.074059 466.473409 
Q 77.921559 467.032159 77.921559 468.157159 
Q 77.921559 468.924034 77.516559 469.413409 
Q 77.113434 469.902784 76.322184 470.101534 
z
M 80.353669 466.070284 
L 85.961794 466.070284 
L 85.961794 467.729659 
L 82.153669 467.729659 
L 82.153669 469.083409 
Q 82.410544 469.012159 82.671169 468.974659 
Q 82.931794 468.935284 83.213044 468.935284 
Q 84.812419 468.935284 85.703044 469.735909 
Q 86.593669 470.536534 86.593669 471.965284 
Q 86.593669 473.382784 85.624294 474.187159 
Q 84.654919 474.989659 82.931794 474.989659 
Q 82.187419 474.989659 81.458044 474.845284 
Q 80.728669 474.700909 80.008669 474.408409 
L 80.008669 472.632784 
Q 80.723044 473.043409 81.364294 473.249659 
Q 82.005544 473.454034 82.575544 473.454034 
Q 83.394919 473.454034 83.865544 473.052784 
Q 84.338044 472.651534 84.338044 471.965284 
Q 84.338044 471.273409 83.865544 470.875909 
Q 83.394919 470.476534 82.575544 470.476534 
Q 82.088044 470.476534 81.536794 470.604034 
Q 80.987419 470.729659 80.353669 470.992159 
L 80.353669 466.070284 
z
"/>
   </g>
   <g id="text_4">
    <path d="M 65.456794 448.452443 
L 69.306169 448.452443 
L 69.306169 450.109943 
L 62.948044 450.109943 
L 62.948044 448.452443 
L 66.141169 445.632443 
Q 66.570544 445.246193 66.774919 444.876818 
Q 66.979294 444.507443 66.979294 444.109943 
Q 66.979294 443.494943 66.566794 443.119943 
Q 66.154294 442.744943 65.468044 442.744943 
Q 64.941169 442.744943 64.313044 442.969943 
Q 63.686794 443.194943 62.972419 443.641193 
L 62.972419 441.719318 
Q 63.733669 441.468068 64.478044 441.336818 
Q 65.222419 441.203693 65.936794 441.203693 
Q 67.508044 441.203693 68.378044 441.895568 
Q 69.248044 442.585568 69.248044 443.823068 
Q 69.248044 444.537443 68.878669 445.156193 
Q 68.509294 445.773068 67.326169 446.811818 
L 65.456794 448.452443 
z
M 71.573278 447.843068 
L 73.682653 447.843068 
L 73.682653 450.109943 
L 71.573278 450.109943 
L 71.573278 447.843068 
z
M 76.109372 449.916818 
L 76.109372 448.298693 
Q 76.647497 448.551818 77.138747 448.677443 
Q 77.631872 448.803068 78.111872 448.803068 
Q 79.120622 448.803068 79.683122 448.244318 
Q 80.245622 447.683693 80.344997 446.583068 
Q 79.947497 446.875568 79.495622 447.021818 
Q 79.043747 447.168068 78.516872 447.168068 
Q 77.174372 447.168068 76.351247 446.386193 
Q 75.528122 445.604318 75.528122 444.327443 
Q 75.528122 442.913693 76.444997 442.064318 
Q 77.361872 441.214943 78.903122 441.214943 
Q 80.614997 441.214943 81.552497 442.369943 
Q 82.489997 443.523068 82.489997 445.632443 
Q 82.489997 447.801818 81.393122 449.041193 
Q 80.298122 450.280568 78.387497 450.280568 
Q 77.772497 450.280568 77.209997 450.188693 
Q 76.647497 450.098693 76.109372 449.916818 
z
M 78.891872 445.703693 
Q 79.484372 445.703693 79.782497 445.321193 
Q 80.080622 444.936818 80.080622 444.168068 
Q 80.080622 443.406818 79.782497 443.020568 
Q 79.484372 442.632443 78.891872 442.632443 
Q 78.299372 442.632443 78.001247 443.020568 
Q 77.703122 443.406818 77.703122 444.168068 
Q 77.703122 444.936818 78.001247 445.321193 
Q 78.299372 445.703693 78.891872 445.703693 
z
" style="stroke: #ffffff"/>
    <path d="M 65.456794 448.452443 
L 69.306169 448.452443 
L 69.306169 450.109943 
L 62.948044 450.109943 
L 62.948044 448.452443 
L 66.141169 445.632443 
Q 66.570544 445.246193 66.774919 444.876818 
Q 66.979294 444.507443 66.979294 444.109943 
Q 66.979294 443.494943 66.566794 443.119943 
Q 66.154294 442.744943 65.468044 442.744943 
Q 64.941169 442.744943 64.313044 442.969943 
Q 63.686794 443.194943 62.972419 443.641193 
L 62.972419 441.719318 
Q 63.733669 441.468068 64.478044 441.336818 
Q 65.222419 441.203693 65.936794 441.203693 
Q 67.508044 441.203693 68.378044 441.895568 
Q 69.248044 442.585568 69.248044 443.823068 
Q 69.248044 444.537443 68.878669 445.156193 
Q 68.509294 445.773068 67.326169 446.811818 
L 65.456794 448.452443 
z
M 71.573278 447.843068 
L 73.682653 447.843068 
L 73.682653 450.109943 
L 71.573278 450.109943 
L 71.573278 447.843068 
z
M 76.109372 449.916818 
L 76.109372 448.298693 
Q 76.647497 448.551818 77.138747 448.677443 
Q 77.631872 448.803068 78.111872 448.803068 
Q 79.120622 448.803068 79.683122 448.244318 
Q 80.245622 447.683693 80.344997 446.583068 
Q 79.947497 446.875568 79.495622 447.021818 
Q 79.043747 447.168068 78.516872 447.168068 
Q 77.174372 447.168068 76.351247 446.386193 
Q 75.528122 445.604318 75.528122 444.327443 
Q 75.528122 442.913693 76.444997 442.064318 
Q 77.361872 441.214943 78.903122 441.214943 
Q 80.614997 441.214943 81.552497 442.369943 
Q 82.489997 443.523068 82.489997 445.632443 
Q 82.489997 447.801818 81.393122 449.041193 
Q 80.298122 450.280568 78.387497 450.280568 
Q 77.772497 450.280568 77.209997 450.188693 
Q 76.647497 450.098693 76.109372 449.916818 
z
M 78.891872 445.703693 
Q 79.484372 445.703693 79.782497 445.321193 
Q 80.080622 444.936818 80.080622 444.168068 
Q 80.080622 443.406818 79.782497 443.020568 
Q 79.484372 442.632443 78.891872 442.632443 
Q 78.299372 442.632443 78.001247 443.020568 
Q 77.703122 443.406818 77.703122 444.168068 
Q 77.703122 444.936818 78.001247 445.321193 
Q 78.299372 445.703693 78.891872 445.703693 
z
"/>
   </g>
   <g id="text_5">
    <path d="M 62.242106 418.510227 
L 59.770856 422.172102 
L 62.242106 422.172102 
L 62.242106 418.510227 
z
M 61.867106 416.652102 
L 64.375856 416.652102 
L 64.375856 422.172102 
L 65.622731 422.172102 
L 65.622731 423.807102 
L 64.375856 423.807102 
L 64.375856 425.400852 
L 62.242106 425.400852 
L 62.242106 423.807102 
L 58.364606 423.807102 
L 58.364606 421.873977 
L 61.867106 416.652102 
z
M 67.39859 423.133977 
L 69.507965 423.133977 
L 69.507965 425.400852 
L 67.39859 425.400852 
L 67.39859 423.133977 
z
M 74.190309 423.743352 
L 78.039684 423.743352 
L 78.039684 425.400852 
L 71.681559 425.400852 
L 71.681559 423.743352 
L 74.874684 420.923352 
Q 75.304059 420.537102 75.508434 420.167727 
Q 75.712809 419.798352 75.712809 419.400852 
Q 75.712809 418.785852 75.300309 418.410852 
Q 74.887809 418.035852 74.201559 418.035852 
Q 73.674684 418.035852 73.046559 418.260852 
Q 72.420309 418.485852 71.705934 418.932102 
L 71.705934 417.010227 
Q 72.467184 416.758977 73.211559 416.627727 
Q 73.955934 416.494602 74.670309 416.494602 
Q 76.241559 416.494602 77.111559 417.186477 
Q 77.981559 417.876477 77.981559 419.113977 
Q 77.981559 419.828352 77.612184 420.447102 
Q 77.242809 421.063977 76.059684 422.102727 
L 74.190309 423.743352 
z
M 83.424919 421.082727 
Q 82.832419 421.082727 82.536169 421.467102 
Q 82.239919 421.849602 82.239919 422.618352 
Q 82.239919 423.385227 82.536169 423.769602 
Q 82.832419 424.152102 83.424919 424.152102 
Q 84.021169 424.152102 84.317419 423.769602 
Q 84.613669 423.385227 84.613669 422.618352 
Q 84.613669 421.849602 84.317419 421.467102 
Q 84.021169 421.082727 83.424919 421.082727 
z
M 86.213044 416.880852 
L 86.213044 418.498977 
Q 85.656169 418.234602 85.163044 418.108977 
Q 84.671794 417.983352 84.203044 417.983352 
Q 83.196169 417.983352 82.633669 418.543977 
Q 82.071169 419.102727 81.977419 420.203352 
Q 82.363669 419.916477 82.813669 419.773977 
Q 83.265544 419.629602 83.799919 419.629602 
Q 85.140544 419.629602 85.963669 420.415227 
Q 86.786794 421.198977 86.786794 422.470227 
Q 86.786794 423.876477 85.866169 424.723977 
Q 84.947419 425.571477 83.400544 425.571477 
Q 81.696169 425.571477 80.760544 424.420227 
Q 79.826794 423.267102 79.826794 421.152102 
Q 79.826794 418.984602 80.919919 417.745227 
Q 82.013044 416.505852 83.916169 416.505852 
Q 84.519919 416.505852 85.088044 416.599602 
Q 85.656169 416.693352 86.213044 416.880852 
z
" style="stroke: #ffffff"/>
    <path d="M 62.242106 418.510227 
L 59.770856 422.172102 
L 62.242106 422.172102 
L 62.242106 418.510227 
z
M 61.867106 416.652102 
L 64.375856 416.652102 
L 64.375856 422.172102 
L 65.622731 422.172102 
L 65.622731 423.807102 
L 64.375856 423.807102 
L 64.375856 425.400852 
L 62.242106 425.400852 
L 62.242106 423.807102 
L 58.364606 423.807102 
L 58.364606 421.873977 
L 61.867106 416.652102 
z
M 67.39859 423.133977 
L 69.507965 423.133977 
L 69.507965 425.400852 
L 67.39859 425.400852 
L 67.39859 423.133977 
z
M 74.190309 423.743352 
L 78.039684 423.743352 
L 78.039684 425.400852 
L 71.681559 425.400852 
L 71.681559 423.743352 
L 74.874684 420.923352 
Q 75.304059 420.537102 75.508434 420.167727 
Q 75.712809 419.798352 75.712809 419.400852 
Q 75.712809 418.785852 75.300309 418.410852 
Q 74.887809 418.035852 74.201559 418.035852 
Q 73.674684 418.035852 73.046559 418.260852 
Q 72.420309 418.485852 71.705934 418.932102 
L 71.705934 417.010227 
Q 72.467184 416.758977 73.211559 416.627727 
Q 73.955934 416.494602 74.670309 416.494602 
Q 76.241559 416.494602 77.111559 417.186477 
Q 77.981559 417.876477 77.981559 419.113977 
Q 77.981559 419.828352 77.612184 420.447102 
Q 77.242809 421.063977 76.059684 422.102727 
L 74.190309 423.743352 
z
M 83.424919 421.082727 
Q 82.832419 421.082727 82.536169 421.467102 
Q 82.239919 421.849602 82.239919 422.618352 
Q 82.239919 423.385227 82.536169 423.769602 
Q 82.832419 424.152102 83.424919 424.152102 
Q 84.021169 424.152102 84.317419 423.769602 
Q 84.613669 423.385227 84.613669 422.618352 
Q 84.613669 421.849602 84.317419 421.467102 
Q 84.021169 421.082727 83.424919 421.082727 
z
M 86.213044 416.880852 
L 86.213044 418.498977 
Q 85.656169 418.234602 85.163044 418.108977 
Q 84.671794 417.983352 84.203044 417.983352 
Q 83.196169 417.983352 82.633669 418.543977 
Q 82.071169 419.102727 81.977419 420.203352 
Q 82.363669 419.916477 82.813669 419.773977 
Q 83.265544 419.629602 83.799919 419.629602 
Q 85.140544 419.629602 85.963669 420.415227 
Q 86.786794 421.198977 86.786794 422.470227 
Q 86.786794 423.876477 85.866169 424.723977 
Q 84.947419 425.571477 83.400544 425.571477 
Q 81.696169 425.571477 80.760544 424.420227 
Q 79.826794 423.267102 79.826794 421.152102 
Q 79.826794 418.984602 80.919919 417.745227 
Q 82.013044 416.505852 83.916169 416.505852 
Q 84.519919 416.505852 85.088044 416.599602 
Q 85.656169 416.693352 86.213044 416.880852 
z
"/>
   </g>
   <g id="text_6">
    <path d="M 59.095856 391.943011 
L 64.703981 391.943011 
L 64.703981 393.602386 
L 60.895856 393.602386 
L 60.895856 394.956136 
Q 61.152731 394.884886 61.413356 394.847386 
Q 61.673981 394.808011 61.955231 394.808011 
Q 63.554606 394.808011 64.445231 395.608636 
Q 65.335856 396.409261 65.335856 397.838011 
Q 65.335856 399.255511 64.366481 400.059886 
Q 63.397106 400.862386 61.673981 400.862386 
Q 60.929606 400.862386 60.200231 400.718011 
Q 59.470856 400.573636 58.750856 400.281136 
L 58.750856 398.505511 
Q 59.465231 398.916136 60.106481 399.122386 
Q 60.747731 399.326761 61.317731 399.326761 
Q 62.137106 399.326761 62.607731 398.925511 
Q 63.080231 398.524261 63.080231 397.838011 
Q 63.080231 397.146136 62.607731 396.748636 
Q 62.137106 396.349261 61.317731 396.349261 
Q 60.830231 396.349261 60.278981 396.476761 
Q 59.729606 396.602386 59.095856 396.864886 
L 59.095856 391.943011 
z
M 67.39859 398.424886 
L 69.507965 398.424886 
L 69.507965 400.691761 
L 67.39859 400.691761 
L 67.39859 398.424886 
z
M 75.075309 396.373636 
Q 74.482809 396.373636 74.186559 396.758011 
Q 73.890309 397.140511 73.890309 397.909261 
Q 73.890309 398.676136 74.186559 399.060511 
Q 74.482809 399.443011 75.075309 399.443011 
Q 75.671559 399.443011 75.967809 399.060511 
Q 76.264059 398.676136 76.264059 397.909261 
Q 76.264059 397.140511 75.967809 396.758011 
Q 75.671559 396.373636 75.075309 396.373636 
z
M 77.863434 392.171761 
L 77.863434 393.789886 
Q 77.306559 393.525511 76.813434 393.399886 
Q 76.322184 393.274261 75.853434 393.274261 
Q 74.846559 393.274261 74.284059 393.834886 
Q 73.721559 394.393636 73.627809 395.494261 
Q 74.014059 395.207386 74.464059 395.064886 
Q 74.915934 394.920511 75.450309 394.920511 
Q 76.790934 394.920511 77.614059 395.706136 
Q 78.437184 396.489886 78.437184 397.761136 
Q 78.437184 399.167386 77.516559 400.014886 
Q 76.597809 400.862386 75.050934 400.862386 
Q 73.346559 400.862386 72.410934 399.711136 
Q 71.477184 398.558011 71.477184 396.443011 
Q 71.477184 394.275511 72.570309 393.036136 
Q 73.663434 391.796761 75.566559 391.796761 
Q 76.170309 391.796761 76.738434 391.890511 
Q 77.306559 391.984261 77.863434 392.171761 
z
M 80.353669 391.943011 
L 85.961794 391.943011 
L 85.961794 393.602386 
L 82.153669 393.602386 
L 82.153669 394.956136 
Q 82.410544 394.884886 82.671169 394.847386 
Q 82.931794 394.808011 83.213044 394.808011 
Q 84.812419 394.808011 85.703044 395.608636 
Q 86.593669 396.409261 86.593669 397.838011 
Q 86.593669 399.255511 85.624294 400.059886 
Q 84.654919 400.862386 82.931794 400.862386 
Q 82.187419 400.862386 81.458044 400.718011 
Q 80.728669 400.573636 80.008669 400.281136 
L 80.008669 398.505511 
Q 80.723044 398.916136 81.364294 399.122386 
Q 82.005544 399.326761 82.575544 399.326761 
Q 83.394919 399.326761 83.865544 398.925511 
Q 84.338044 398.524261 84.338044 397.838011 
Q 84.338044 397.146136 83.865544 396.748636 
Q 83.394919 396.349261 82.575544 396.349261 
Q 82.088044 396.349261 81.536794 396.476761 
Q 80.987419 396.602386 80.353669 396.864886 
L 80.353669 391.943011 
z
" style="stroke: #ffffff"/>
    <path d="M 59.095856 391.943011 
L 64.703981 391.943011 
L 64.703981 393.602386 
L 60.895856 393.602386 
L 60.895856 394.956136 
Q 61.152731 394.884886 61.413356 394.847386 
Q 61.673981 394.808011 61.955231 394.808011 
Q 63.554606 394.808011 64.445231 395.608636 
Q 65.335856 396.409261 65.335856 397.838011 
Q 65.335856 399.255511 64.366481 400.059886 
Q 63.397106 400.862386 61.673981 400.862386 
Q 60.929606 400.862386 60.200231 400.718011 
Q 59.470856 400.573636 58.750856 400.281136 
L 58.750856 398.505511 
Q 59.465231 398.916136 60.106481 399.122386 
Q 60.747731 399.326761 61.317731 399.326761 
Q 62.137106 399.326761 62.607731 398.925511 
Q 63.080231 398.524261 63.080231 397.838011 
Q 63.080231 397.146136 62.607731 396.748636 
Q 62.137106 396.349261 61.317731 396.349261 
Q 60.830231 396.349261 60.278981 396.476761 
Q 59.729606 396.602386 59.095856 396.864886 
L 59.095856 391.943011 
z
M 67.39859 398.424886 
L 69.507965 398.424886 
L 69.507965 400.691761 
L 67.39859 400.691761 
L 67.39859 398.424886 
z
M 75.075309 396.373636 
Q 74.482809 396.373636 74.186559 396.758011 
Q 73.890309 397.140511 73.890309 397.909261 
Q 73.890309 398.676136 74.186559 399.060511 
Q 74.482809 399.443011 75.075309 399.443011 
Q 75.671559 399.443011 75.967809 399.060511 
Q 76.264059 398.676136 76.264059 397.909261 
Q 76.264059 397.140511 75.967809 396.758011 
Q 75.671559 396.373636 75.075309 396.373636 
z
M 77.863434 392.171761 
L 77.863434 393.789886 
Q 77.306559 393.525511 76.813434 393.399886 
Q 76.322184 393.274261 75.853434 393.274261 
Q 74.846559 393.274261 74.284059 393.834886 
Q 73.721559 394.393636 73.627809 395.494261 
Q 74.014059 395.207386 74.464059 395.064886 
Q 74.915934 394.920511 75.450309 394.920511 
Q 76.790934 394.920511 77.614059 395.706136 
Q 78.437184 396.489886 78.437184 397.761136 
Q 78.437184 399.167386 77.516559 400.014886 
Q 76.597809 400.862386 75.050934 400.862386 
Q 73.346559 400.862386 72.410934 399.711136 
Q 71.477184 398.558011 71.477184 396.443011 
Q 71.477184 394.275511 72.570309 393.036136 
Q 73.663434 391.796761 75.566559 391.796761 
Q 76.170309 391.796761 76.738434 391.890511 
Q 77.306559 391.984261 77.863434 392.171761 
z
M 80.353669 391.943011 
L 85.961794 391.943011 
L 85.961794 393.602386 
L 82.153669 393.602386 
L 82.153669 394.956136 
Q 82.410544 394.884886 82.671169 394.847386 
Q 82.931794 394.808011 83.213044 394.808011 
Q 84.812419 394.808011 85.703044 395.608636 
Q 86.593669 396.409261 86.593669 397.838011 
Q 86.593669 399.255511 85.624294 400.059886 
Q 84.654919 400.862386 82.931794 400.862386 
Q 82.187419 400.862386 81.458044 400.718011 
Q 80.728669 400.573636 80.008669 400.281136 
L 80.008669 398.505511 
Q 80.723044 398.916136 81.364294 399.122386 
Q 82.005544 399.326761 82.575544 399.326761 
Q 83.394919 399.326761 83.865544 398.925511 
Q 84.338044 398.524261 84.338044 397.838011 
Q 84.338044 397.146136 83.865544 396.748636 
Q 83.394919 396.349261 82.575544 396.349261 
Q 82.088044 396.349261 81.536794 396.476761 
Q 80.987419 396.602386 80.353669 396.864886 
L 80.353669 391.943011 
z
"/>
   </g>
   <g id="text_7">
    <path d="M 58.627106 367.23392 
L 65.219606 367.23392 
L 65.219606 368.50517 
L 61.808981 375.98267 
L 59.611481 375.98267 
L 62.840231 368.893295 
L 58.627106 368.893295 
L 58.627106 367.23392 
z
M 67.39859 373.715795 
L 69.507965 373.715795 
L 69.507965 375.98267 
L 67.39859 375.98267 
L 67.39859 373.715795 
z
M 75.075309 371.664545 
Q 74.482809 371.664545 74.186559 372.04892 
Q 73.890309 372.43142 73.890309 373.20017 
Q 73.890309 373.967045 74.186559 374.35142 
Q 74.482809 374.73392 75.075309 374.73392 
Q 75.671559 374.73392 75.967809 374.35142 
Q 76.264059 373.967045 76.264059 373.20017 
Q 76.264059 372.43142 75.967809 372.04892 
Q 75.671559 371.664545 75.075309 371.664545 
z
M 77.863434 367.46267 
L 77.863434 369.080795 
Q 77.306559 368.81642 76.813434 368.690795 
Q 76.322184 368.56517 75.853434 368.56517 
Q 74.846559 368.56517 74.284059 369.125795 
Q 73.721559 369.684545 73.627809 370.78517 
Q 74.014059 370.498295 74.464059 370.355795 
Q 74.915934 370.21142 75.450309 370.21142 
Q 76.790934 370.21142 77.614059 370.997045 
Q 78.437184 371.780795 78.437184 373.052045 
Q 78.437184 374.458295 77.516559 375.305795 
Q 76.597809 376.153295 75.050934 376.153295 
Q 73.346559 376.153295 72.410934 375.002045 
Q 71.477184 373.84892 71.477184 371.73392 
Q 71.477184 369.56642 72.570309 368.327045 
Q 73.663434 367.08767 75.566559 367.08767 
Q 76.170309 367.08767 76.738434 367.18142 
Q 77.306559 367.27517 77.863434 367.46267 
z
M 83.424919 371.664545 
Q 82.832419 371.664545 82.536169 372.04892 
Q 82.239919 372.43142 82.239919 373.20017 
Q 82.239919 373.967045 82.536169 374.35142 
Q 82.832419 374.73392 83.424919 374.73392 
Q 84.021169 374.73392 84.317419 374.35142 
Q 84.613669 373.967045 84.613669 373.20017 
Q 84.613669 372.43142 84.317419 372.04892 
Q 84.021169 371.664545 83.424919 371.664545 
z
M 86.213044 367.46267 
L 86.213044 369.080795 
Q 85.656169 368.81642 85.163044 368.690795 
Q 84.671794 368.56517 84.203044 368.56517 
Q 83.196169 368.56517 82.633669 369.125795 
Q 82.071169 369.684545 81.977419 370.78517 
Q 82.363669 370.498295 82.813669 370.355795 
Q 83.265544 370.21142 83.799919 370.21142 
Q 85.140544 370.21142 85.963669 370.997045 
Q 86.786794 371.780795 86.786794 373.052045 
Q 86.786794 374.458295 85.866169 375.305795 
Q 84.947419 376.153295 83.400544 376.153295 
Q 81.696169 376.153295 80.760544 375.002045 
Q 79.826794 373.84892 79.826794 371.73392 
Q 79.826794 369.56642 80.919919 368.327045 
Q 82.013044 367.08767 83.916169 367.08767 
Q 84.519919 367.08767 85.088044 367.18142 
Q 85.656169 367.27517 86.213044 367.46267 
z
" style="stroke: #ffffff"/>
    <path d="M 58.627106 367.23392 
L 65.219606 367.23392 
L 65.219606 368.50517 
L 61.808981 375.98267 
L 59.611481 375.98267 
L 62.840231 368.893295 
L 58.627106 368.893295 
L 58.627106 367.23392 
z
M 67.39859 373.715795 
L 69.507965 373.715795 
L 69.507965 375.98267 
L 67.39859 375.98267 
L 67.39859 373.715795 
z
M 75.075309 371.664545 
Q 74.482809 371.664545 74.186559 372.04892 
Q 73.890309 372.43142 73.890309 373.20017 
Q 73.890309 373.967045 74.186559 374.35142 
Q 74.482809 374.73392 75.075309 374.73392 
Q 75.671559 374.73392 75.967809 374.35142 
Q 76.264059 373.967045 76.264059 373.20017 
Q 76.264059 372.43142 75.967809 372.04892 
Q 75.671559 371.664545 75.075309 371.664545 
z
M 77.863434 367.46267 
L 77.863434 369.080795 
Q 77.306559 368.81642 76.813434 368.690795 
Q 76.322184 368.56517 75.853434 368.56517 
Q 74.846559 368.56517 74.284059 369.125795 
Q 73.721559 369.684545 73.627809 370.78517 
Q 74.014059 370.498295 74.464059 370.355795 
Q 74.915934 370.21142 75.450309 370.21142 
Q 76.790934 370.21142 77.614059 370.997045 
Q 78.437184 371.780795 78.437184 373.052045 
Q 78.437184 374.458295 77.516559 375.305795 
Q 76.597809 376.153295 75.050934 376.153295 
Q 73.346559 376.153295 72.410934 375.002045 
Q 71.477184 373.84892 71.477184 371.73392 
Q 71.477184 369.56642 72.570309 368.327045 
Q 73.663434 367.08767 75.566559 367.08767 
Q 76.170309 367.08767 76.738434 367.18142 
Q 77.306559 367.27517 77.863434 367.46267 
z
M 83.424919 371.664545 
Q 82.832419 371.664545 82.536169 372.04892 
Q 82.239919 372.43142 82.239919 373.20017 
Q 82.239919 373.967045 82.536169 374.35142 
Q 82.832419 374.73392 83.424919 374.73392 
Q 84.021169 374.73392 84.317419 374.35142 
Q 84.613669 373.967045 84.613669 373.20017 
Q 84.613669 372.43142 84.317419 372.04892 
Q 84.021169 371.664545 83.424919 371.664545 
z
M 86.213044 367.46267 
L 86.213044 369.080795 
Q 85.656169 368.81642 85.163044 368.690795 
Q 84.671794 368.56517 84.203044 368.56517 
Q 83.196169 368.56517 82.633669 369.125795 
Q 82.071169 369.684545 81.977419 370.78517 
Q 82.363669 370.498295 82.813669 370.355795 
Q 83.265544 370.21142 83.799919 370.21142 
Q 85.140544 370.21142 85.963669 370.997045 
Q 86.786794 371.780795 86.786794 373.052045 
Q 86.786794 374.458295 85.866169 375.305795 
Q 84.947419 376.153295 83.400544 376.153295 
Q 81.696169 376.153295 80.760544 375.002045 
Q 79.826794 373.84892 79.826794 371.73392 
Q 79.826794 369.56642 80.919919 368.327045 
Q 82.013044 367.08767 83.916169 367.08767 
Q 84.519919 367.08767 85.088044 367.18142 
Q 85.656169 367.27517 86.213044 367.46267 
z
"/>
   </g>
   <g id="text_8">
    <path d="M 55.056169 349.715455 
L 57.049294 349.715455 
L 57.049294 344.060455 
L 55.003669 344.48233 
L 55.003669 342.946705 
L 57.036169 342.52483 
L 59.181169 342.52483 
L 59.181169 349.715455 
L 61.174294 349.715455 
L 61.174294 351.27358 
L 55.056169 351.27358 
L 55.056169 349.715455 
z
M 67.519528 346.88983 
Q 67.519528 345.249205 67.212028 344.57983 
Q 66.904528 343.90858 66.177028 343.90858 
Q 65.451403 343.90858 65.140153 344.57983 
Q 64.828903 345.249205 64.828903 346.88983 
Q 64.828903 348.549205 65.140153 349.22983 
Q 65.451403 349.90858 66.177028 349.90858 
Q 66.898903 349.90858 67.208278 349.22983 
Q 67.519528 348.549205 67.519528 346.88983 
z
M 69.775153 346.90858 
Q 69.775153 349.081705 68.837653 350.262955 
Q 67.900153 351.444205 66.177028 351.444205 
Q 64.448278 351.444205 63.510778 350.262955 
Q 62.573278 349.081705 62.573278 346.90858 
Q 62.573278 344.727955 63.510778 343.54858 
Q 64.448278 342.36733 66.177028 342.36733 
Q 67.900153 342.36733 68.837653 343.54858 
Q 69.775153 344.727955 69.775153 346.90858 
z
M 71.573512 349.006705 
L 73.682887 349.006705 
L 73.682887 351.27358 
L 71.573512 351.27358 
L 71.573512 349.006705 
z
M 79.325231 344.382955 
L 76.853981 348.04483 
L 79.325231 348.04483 
L 79.325231 344.382955 
z
M 78.950231 342.52483 
L 81.458981 342.52483 
L 81.458981 348.04483 
L 82.705856 348.04483 
L 82.705856 349.67983 
L 81.458981 349.67983 
L 81.458981 351.27358 
L 79.325231 351.27358 
L 79.325231 349.67983 
L 75.447731 349.67983 
L 75.447731 347.746705 
L 78.950231 342.52483 
z
M 84.66359 349.715455 
L 86.656715 349.715455 
L 86.656715 344.060455 
L 84.61109 344.48233 
L 84.61109 342.946705 
L 86.64359 342.52483 
L 88.78859 342.52483 
L 88.78859 349.715455 
L 90.781715 349.715455 
L 90.781715 351.27358 
L 84.66359 351.27358 
L 84.66359 349.715455 
z
" style="stroke: #ffffff"/>
    <path d="M 55.056169 349.715455 
L 57.049294 349.715455 
L 57.049294 344.060455 
L 55.003669 344.48233 
L 55.003669 342.946705 
L 57.036169 342.52483 
L 59.181169 342.52483 
L 59.181169 349.715455 
L 61.174294 349.715455 
L 61.174294 351.27358 
L 55.056169 351.27358 
L 55.056169 349.715455 
z
M 67.519528 346.88983 
Q 67.519528 345.249205 67.212028 344.57983 
Q 66.904528 343.90858 66.177028 343.90858 
Q 65.451403 343.90858 65.140153 344.57983 
Q 64.828903 345.249205 64.828903 346.88983 
Q 64.828903 348.549205 65.140153 349.22983 
Q 65.451403 349.90858 66.177028 349.90858 
Q 66.898903 349.90858 67.208278 349.22983 
Q 67.519528 348.549205 67.519528 346.88983 
z
M 69.775153 346.90858 
Q 69.775153 349.081705 68.837653 350.262955 
Q 67.900153 351.444205 66.177028 351.444205 
Q 64.448278 351.444205 63.510778 350.262955 
Q 62.573278 349.081705 62.573278 346.90858 
Q 62.573278 344.727955 63.510778 343.54858 
Q 64.448278 342.36733 66.177028 342.36733 
Q 67.900153 342.36733 68.837653 343.54858 
Q 69.775153 344.727955 69.775153 346.90858 
z
M 71.573512 349.006705 
L 73.682887 349.006705 
L 73.682887 351.27358 
L 71.573512 351.27358 
L 71.573512 349.006705 
z
M 79.325231 344.382955 
L 76.853981 348.04483 
L 79.325231 348.04483 
L 79.325231 344.382955 
z
M 78.950231 342.52483 
L 81.458981 342.52483 
L 81.458981 348.04483 
L 82.705856 348.04483 
L 82.705856 349.67983 
L 81.458981 349.67983 
L 81.458981 351.27358 
L 79.325231 351.27358 
L 79.325231 349.67983 
L 75.447731 349.67983 
L 75.447731 347.746705 
L 78.950231 342.52483 
z
M 84.66359 349.715455 
L 86.656715 349.715455 
L 86.656715 344.060455 
L 84.61109 344.48233 
L 84.61109 342.946705 
L 86.64359 342.52483 
L 88.78859 342.52483 
L 88.78859 349.715455 
L 90.781715 349.715455 
L 90.781715 351.27358 
L 84.66359 351.27358 
L 84.66359 349.715455 
z
"/>
   </g>
   <g id="text_9">
    <path d="M 59.230856 325.006364 
L 61.223981 325.006364 
L 61.223981 319.351364 
L 59.178356 319.773239 
L 59.178356 318.237614 
L 61.210856 317.815739 
L 63.355856 317.815739 
L 63.355856 325.006364 
L 65.348981 325.006364 
L 65.348981 326.564489 
L 59.230856 326.564489 
L 59.230856 325.006364 
z
M 70.591715 319.673864 
L 68.120465 323.335739 
L 70.591715 323.335739 
L 70.591715 319.673864 
z
M 70.216715 317.815739 
L 72.725465 317.815739 
L 72.725465 323.335739 
L 73.97234 323.335739 
L 73.97234 324.970739 
L 72.725465 324.970739 
L 72.725465 326.564489 
L 70.591715 326.564489 
L 70.591715 324.970739 
L 66.714215 324.970739 
L 66.714215 323.037614 
L 70.216715 317.815739 
z
M 75.7482 324.297614 
L 77.857575 324.297614 
L 77.857575 326.564489 
L 75.7482 326.564489 
L 75.7482 324.297614 
z
M 83.424919 322.246364 
Q 82.832419 322.246364 82.536169 322.630739 
Q 82.239919 323.013239 82.239919 323.781989 
Q 82.239919 324.548864 82.536169 324.933239 
Q 82.832419 325.315739 83.424919 325.315739 
Q 84.021169 325.315739 84.317419 324.933239 
Q 84.613669 324.548864 84.613669 323.781989 
Q 84.613669 323.013239 84.317419 322.630739 
Q 84.021169 322.246364 83.424919 322.246364 
z
M 86.213044 318.044489 
L 86.213044 319.662614 
Q 85.656169 319.398239 85.163044 319.272614 
Q 84.671794 319.146989 84.203044 319.146989 
Q 83.196169 319.146989 82.633669 319.707614 
Q 82.071169 320.266364 81.977419 321.366989 
Q 82.363669 321.080114 82.813669 320.937614 
Q 83.265544 320.793239 83.799919 320.793239 
Q 85.140544 320.793239 85.963669 321.578864 
Q 86.786794 322.362614 86.786794 323.633864 
Q 86.786794 325.040114 85.866169 325.887614 
Q 84.947419 326.735114 83.400544 326.735114 
Q 81.696169 326.735114 80.760544 325.583864 
Q 79.826794 324.430739 79.826794 322.315739 
Q 79.826794 320.148239 80.919919 318.908864 
Q 82.013044 317.669489 83.916169 317.669489 
Q 84.519919 317.669489 85.088044 317.763239 
Q 85.656169 317.856989 86.213044 318.044489 
z
" style="stroke: #ffffff"/>
    <path d="M 59.230856 325.006364 
L 61.223981 325.006364 
L 61.223981 319.351364 
L 59.178356 319.773239 
L 59.178356 318.237614 
L 61.210856 317.815739 
L 63.355856 317.815739 
L 63.355856 325.006364 
L 65.348981 325.006364 
L 65.348981 326.564489 
L 59.230856 326.564489 
L 59.230856 325.006364 
z
M 70.591715 319.673864 
L 68.120465 323.335739 
L 70.591715 323.335739 
L 70.591715 319.673864 
z
M 70.216715 317.815739 
L 72.725465 317.815739 
L 72.725465 323.335739 
L 73.97234 323.335739 
L 73.97234 324.970739 
L 72.725465 324.970739 
L 72.725465 326.564489 
L 70.591715 326.564489 
L 70.591715 324.970739 
L 66.714215 324.970739 
L 66.714215 323.037614 
L 70.216715 317.815739 
z
M 75.7482 324.297614 
L 77.857575 324.297614 
L 77.857575 326.564489 
L 75.7482 326.564489 
L 75.7482 324.297614 
z
M 83.424919 322.246364 
Q 82.832419 322.246364 82.536169 322.630739 
Q 82.239919 323.013239 82.239919 323.781989 
Q 82.239919 324.548864 82.536169 324.933239 
Q 82.832419 325.315739 83.424919 325.315739 
Q 84.021169 325.315739 84.317419 324.933239 
Q 84.613669 324.548864 84.613669 323.781989 
Q 84.613669 323.013239 84.317419 322.630739 
Q 84.021169 322.246364 83.424919 322.246364 
z
M 86.213044 318.044489 
L 86.213044 319.662614 
Q 85.656169 319.398239 85.163044 319.272614 
Q 84.671794 319.146989 84.203044 319.146989 
Q 83.196169 319.146989 82.633669 319.707614 
Q 82.071169 320.266364 81.977419 321.366989 
Q 82.363669 321.080114 82.813669 320.937614 
Q 83.265544 320.793239 83.799919 320.793239 
Q 85.140544 320.793239 85.963669 321.578864 
Q 86.786794 322.362614 86.786794 323.633864 
Q 86.786794 325.040114 85.866169 325.887614 
Q 84.947419 326.735114 83.400544 326.735114 
Q 81.696169 326.735114 80.760544 325.583864 
Q 79.826794 324.430739 79.826794 322.315739 
Q 79.826794 320.148239 80.919919 318.908864 
Q 82.013044 317.669489 83.916169 317.669489 
Q 84.519919 317.669489 85.088044 317.763239 
Q 85.656169 317.856989 86.213044 318.044489 
z
"/>
   </g>
   <g id="text_10">
    <path d="M 55.056169 300.297273 
L 57.049294 300.297273 
L 57.049294 294.642273 
L 55.003669 295.064148 
L 55.003669 293.528523 
L 57.036169 293.106648 
L 59.181169 293.106648 
L 59.181169 300.297273 
L 61.174294 300.297273 
L 61.174294 301.855398 
L 55.056169 301.855398 
L 55.056169 300.297273 
z
M 66.177028 297.940398 
Q 65.545153 297.940398 65.203903 298.287273 
Q 64.864528 298.632273 64.864528 299.277273 
Q 64.864528 299.922273 65.203903 300.265398 
Q 65.545153 300.606648 66.177028 300.606648 
Q 66.805153 300.606648 67.138903 300.265398 
Q 67.472653 299.922273 67.472653 299.277273 
Q 67.472653 298.626648 67.138903 298.283523 
Q 66.805153 297.940398 66.177028 297.940398 
z
M 64.530778 297.197898 
Q 63.733903 296.956023 63.328903 296.459148 
Q 62.925778 295.960398 62.925778 295.216023 
Q 62.925778 294.109773 63.750778 293.530398 
Q 64.577653 292.949148 66.177028 292.949148 
Q 67.765153 292.949148 68.590153 293.526648 
Q 69.417028 294.104148 69.417028 295.216023 
Q 69.417028 295.960398 69.010153 296.459148 
Q 68.603278 296.956023 67.806403 297.197898 
Q 68.697028 297.443523 69.150778 297.996648 
Q 69.604528 298.549773 69.604528 299.393523 
Q 69.604528 300.694773 68.740153 301.360398 
Q 67.875778 302.026023 66.177028 302.026023 
Q 64.472653 302.026023 63.602653 301.360398 
Q 62.732653 300.694773 62.732653 299.393523 
Q 62.732653 298.549773 63.186403 297.996648 
Q 63.640153 297.443523 64.530778 297.197898 
z
M 65.057653 295.444773 
Q 65.057653 295.966023 65.348278 296.247273 
Q 65.638903 296.528523 66.177028 296.528523 
Q 66.703903 296.528523 66.990778 296.247273 
Q 67.279528 295.966023 67.279528 295.444773 
Q 67.279528 294.923523 66.990778 294.646023 
Q 66.703903 294.366648 66.177028 294.366648 
Q 65.638903 294.366648 65.348278 294.647898 
Q 65.057653 294.929148 65.057653 295.444773 
z
M 71.573512 299.588523 
L 73.682887 299.588523 
L 73.682887 301.855398 
L 71.573512 301.855398 
L 71.573512 299.588523 
z
M 80.497106 297.137898 
Q 81.382106 297.366648 81.841481 297.932898 
Q 82.302731 298.497273 82.302731 299.371023 
Q 82.302731 300.672273 81.305231 301.349148 
Q 80.309606 302.026023 78.400856 302.026023 
Q 77.725856 302.026023 77.048981 301.917273 
Q 76.372106 301.808523 75.710231 301.591023 
L 75.710231 299.851023 
Q 76.343981 300.167898 76.966481 300.329148 
Q 77.590856 300.490398 78.194606 300.490398 
Q 79.090856 300.490398 79.568981 300.181023 
Q 80.047106 299.869773 80.047106 299.288523 
Q 80.047106 298.690398 79.557731 298.382898 
Q 79.068356 298.075398 78.112106 298.075398 
L 77.210231 298.075398 
L 77.210231 296.622273 
L 78.158981 296.622273 
Q 79.010231 296.622273 79.424606 296.356023 
Q 79.840856 296.089773 79.840856 295.544148 
Q 79.840856 295.041648 79.435856 294.766023 
Q 79.032731 294.490398 78.293981 294.490398 
Q 77.750231 294.490398 77.193356 294.614148 
Q 76.636481 294.736023 76.085231 294.976023 
L 76.085231 293.324148 
Q 76.752731 293.136648 77.408981 293.042898 
Q 78.065231 292.949148 78.698981 292.949148 
Q 80.403356 292.949148 81.248981 293.509773 
Q 82.096481 294.068523 82.096481 295.193523 
Q 82.096481 295.960398 81.691481 296.449773 
Q 81.288356 296.939148 80.497106 297.137898 
z
M 84.05984 293.106648 
L 90.65234 293.106648 
L 90.65234 294.377898 
L 87.241715 301.855398 
L 85.044215 301.855398 
L 88.272965 294.766023 
L 84.05984 294.766023 
L 84.05984 293.106648 
z
" style="stroke: #ffffff"/>
    <path d="M 55.056169 300.297273 
L 57.049294 300.297273 
L 57.049294 294.642273 
L 55.003669 295.064148 
L 55.003669 293.528523 
L 57.036169 293.106648 
L 59.181169 293.106648 
L 59.181169 300.297273 
L 61.174294 300.297273 
L 61.174294 301.855398 
L 55.056169 301.855398 
L 55.056169 300.297273 
z
M 66.177028 297.940398 
Q 65.545153 297.940398 65.203903 298.287273 
Q 64.864528 298.632273 64.864528 299.277273 
Q 64.864528 299.922273 65.203903 300.265398 
Q 65.545153 300.606648 66.177028 300.606648 
Q 66.805153 300.606648 67.138903 300.265398 
Q 67.472653 299.922273 67.472653 299.277273 
Q 67.472653 298.626648 67.138903 298.283523 
Q 66.805153 297.940398 66.177028 297.940398 
z
M 64.530778 297.197898 
Q 63.733903 296.956023 63.328903 296.459148 
Q 62.925778 295.960398 62.925778 295.216023 
Q 62.925778 294.109773 63.750778 293.530398 
Q 64.577653 292.949148 66.177028 292.949148 
Q 67.765153 292.949148 68.590153 293.526648 
Q 69.417028 294.104148 69.417028 295.216023 
Q 69.417028 295.960398 69.010153 296.459148 
Q 68.603278 296.956023 67.806403 297.197898 
Q 68.697028 297.443523 69.150778 297.996648 
Q 69.604528 298.549773 69.604528 299.393523 
Q 69.604528 300.694773 68.740153 301.360398 
Q 67.875778 302.026023 66.177028 302.026023 
Q 64.472653 302.026023 63.602653 301.360398 
Q 62.732653 300.694773 62.732653 299.393523 
Q 62.732653 298.549773 63.186403 297.996648 
Q 63.640153 297.443523 64.530778 297.197898 
z
M 65.057653 295.444773 
Q 65.057653 295.966023 65.348278 296.247273 
Q 65.638903 296.528523 66.177028 296.528523 
Q 66.703903 296.528523 66.990778 296.247273 
Q 67.279528 295.966023 67.279528 295.444773 
Q 67.279528 294.923523 66.990778 294.646023 
Q 66.703903 294.366648 66.177028 294.366648 
Q 65.638903 294.366648 65.348278 294.647898 
Q 65.057653 294.929148 65.057653 295.444773 
z
M 71.573512 299.588523 
L 73.682887 299.588523 
L 73.682887 301.855398 
L 71.573512 301.855398 
L 71.573512 299.588523 
z
M 80.497106 297.137898 
Q 81.382106 297.366648 81.841481 297.932898 
Q 82.302731 298.497273 82.302731 299.371023 
Q 82.302731 300.672273 81.305231 301.349148 
Q 80.309606 302.026023 78.400856 302.026023 
Q 77.725856 302.026023 77.048981 301.917273 
Q 76.372106 301.808523 75.710231 301.591023 
L 75.710231 299.851023 
Q 76.343981 300.167898 76.966481 300.329148 
Q 77.590856 300.490398 78.194606 300.490398 
Q 79.090856 300.490398 79.568981 300.181023 
Q 80.047106 299.869773 80.047106 299.288523 
Q 80.047106 298.690398 79.557731 298.382898 
Q 79.068356 298.075398 78.112106 298.075398 
L 77.210231 298.075398 
L 77.210231 296.622273 
L 78.158981 296.622273 
Q 79.010231 296.622273 79.424606 296.356023 
Q 79.840856 296.089773 79.840856 295.544148 
Q 79.840856 295.041648 79.435856 294.766023 
Q 79.032731 294.490398 78.293981 294.490398 
Q 77.750231 294.490398 77.193356 294.614148 
Q 76.636481 294.736023 76.085231 294.976023 
L 76.085231 293.324148 
Q 76.752731 293.136648 77.408981 293.042898 
Q 78.065231 292.949148 78.698981 292.949148 
Q 80.403356 292.949148 81.248981 293.509773 
Q 82.096481 294.068523 82.096481 295.193523 
Q 82.096481 295.960398 81.691481 296.449773 
Q 81.288356 296.939148 80.497106 297.137898 
z
M 84.05984 293.106648 
L 90.65234 293.106648 
L 90.65234 294.377898 
L 87.241715 301.855398 
L 85.044215 301.855398 
L 88.272965 294.766023 
L 84.05984 294.766023 
L 84.05984 293.106648 
z
"/>
   </g>
  </g>
  <g id="axes_6">
   <g id="patch_15">
    <path d="M 104.982353 504 
L 129.6 504 
L 129.6 286.56 
L 104.982353 286.56 
L 104.982353 504 
z
" style="fill: none"/>
   </g>
  </g>
 </g>
 <defs>
  <clipPath id="p0433093152">
   <rect x="49.182353" y="286.56" width="49.235294" height="217.44"/>
  </clipPath>
 </defs>
</svg>
