<?xml version="1.0" encoding="utf-8" standalone="no"?>
<!DOCTYPE svg PUBLIC "-//W3C//DTD SVG 1.1//EN"
  "http://www.w3.org/Graphics/SVG/1.1/DTD/svg11.dtd">
<svg xmlns:xlink="http://www.w3.org/1999/xlink" width="144pt" height="576pt" viewBox="0 0 144 576" xmlns="http://www.w3.org/2000/svg" version="1.1">
 <metadata>
  <rdf:RDF xmlns:dc="http://purl.org/dc/elements/1.1/" xmlns:cc="http://creativecommons.org/ns#" xmlns:rdf="http://www.w3.org/1999/02/22-rdf-syntax-ns#">
   <cc:Work>
    <dc:type rdf:resource="http://purl.org/dc/dcmitype/StillImage"/>
    <dc:date>2022-03-31T01:19:36.545112</dc:date>
    <dc:format>image/svg+xml</dc:format>
    <dc:creator>
     <cc:Agent>
      <dc:title>Matplotlib v3.5.1, https://matplotlib.org/</dc:title>
     </cc:Agent>
    </dc:creator>
   </cc:Work>
  </rdf:RDF>
 </metadata>
 <defs>
  <style type="text/css">*{stroke-linejoin: round; stroke-linecap: butt}</style>
 </defs>
 <g id="figure_1">
  <g id="patch_1">
   <path d="M 0 576 
L 144 576 
L 144 0 
L 0 0 
L 0 576 
z
" style="fill: none"/>
  </g>
  <g id="axes_1">
   <g id="patch_2">
    <path d="M 18 286.56 
L 42.617647 286.56 
L 42.617647 69.12 
L 18 69.12 
L 18 286.56 
z
" style="fill: none"/>
   </g>
  </g>
  <g id="axes_2">
   <g id="patch_3">
    <path d="M 49.182353 286.56 
L 98.417647 286.56 
L 98.417647 69.12 
L 49.182353 69.12 
L 49.182353 286.56 
z
" style="fill: none"/>
   </g>
   <g id="text_1">
    <path d="M 19.493438 261.87825 
L 21.257813 261.87825 
L 23.489063 267.831375 
L 25.733438 261.87825 
L 27.497813 261.87825 
L 27.497813 270.627 
L 26.342813 270.627 
L 26.342813 262.945125 
L 24.087188 268.945125 
L 22.898438 268.945125 
L 20.642813 262.945125 
L 20.642813 270.627 
L 19.493438 270.627 
L 19.493438 261.87825 
z
M 35.413828 267.07575 
L 35.413828 267.602625 
L 30.456328 267.602625 
Q 30.527578 268.716375 31.127578 269.2995 
Q 31.727578 269.882625 32.800078 269.882625 
Q 33.420703 269.882625 34.003828 269.73075 
Q 34.586953 269.578875 35.162578 269.27325 
L 35.162578 270.29325 
Q 34.581328 270.538875 33.971953 270.66825 
Q 33.362578 270.797625 32.736328 270.797625 
Q 31.165078 270.797625 30.248203 269.8845 
Q 29.331328 268.9695 29.331328 267.4095 
Q 29.331328 265.798875 30.201328 264.853875 
Q 31.071328 263.907 32.548828 263.907 
Q 33.872578 263.907 34.643203 264.760125 
Q 35.413828 265.611375 35.413828 267.07575 
z
M 34.335703 266.758875 
Q 34.324453 265.87575 33.840703 265.348875 
Q 33.356953 264.820125 32.560078 264.820125 
Q 31.658203 264.820125 31.116328 265.330125 
Q 30.574453 265.840125 30.491953 266.766375 
L 34.335703 266.758875 
z
M 41.501016 265.060125 
L 41.501016 261.508875 
L 42.579141 261.508875 
L 42.579141 270.627 
L 41.501016 270.627 
L 41.501016 269.642625 
Q 41.161641 270.227625 40.642266 270.512625 
Q 40.124766 270.797625 39.397266 270.797625 
Q 38.208516 270.797625 37.460391 269.848875 
Q 36.714141 268.89825 36.714141 267.351375 
Q 36.714141 265.8045 37.460391 264.85575 
Q 38.208516 263.907 39.397266 263.907 
Q 40.124766 263.907 40.642266 264.192 
Q 41.161641 264.475125 41.501016 265.060125 
z
M 37.827891 267.351375 
Q 37.827891 268.540125 38.317266 269.217 
Q 38.806641 269.893875 39.661641 269.893875 
Q 40.516641 269.893875 41.007891 269.217 
Q 41.501016 268.540125 41.501016 267.351375 
Q 41.501016 266.162625 41.007891 265.48575 
Q 40.516641 264.808875 39.661641 264.808875 
Q 38.806641 264.808875 38.317266 265.48575 
Q 37.827891 266.162625 37.827891 267.351375 
z
M 44.800078 264.0645 
L 45.878203 264.0645 
L 45.878203 270.627 
L 44.800078 270.627 
L 44.800078 264.0645 
z
M 44.800078 261.508875 
L 45.878203 261.508875 
L 45.878203 262.87575 
L 44.800078 262.87575 
L 44.800078 261.508875 
z
M 51.117188 267.328875 
Q 49.810313 267.328875 49.305938 267.627 
Q 48.801563 267.925125 48.801563 268.647 
Q 48.801563 269.22075 49.180313 269.55825 
Q 49.559063 269.893875 50.207813 269.893875 
Q 51.105938 269.893875 51.647813 269.25825 
Q 52.189688 268.622625 52.189688 267.568875 
L 52.189688 267.328875 
L 51.117188 267.328875 
z
M 53.267813 266.882625 
L 53.267813 270.627 
L 52.189688 270.627 
L 52.189688 269.631375 
Q 51.820313 270.227625 51.269063 270.512625 
Q 50.717813 270.797625 49.920938 270.797625 
Q 48.914063 270.797625 48.317813 270.231375 
Q 47.723438 269.665125 47.723438 268.716375 
Q 47.723438 267.610125 48.464063 267.047625 
Q 49.206563 266.485125 50.676563 266.485125 
L 52.189688 266.485125 
L 52.189688 266.37825 
Q 52.189688 265.633875 51.700313 265.227 
Q 51.210938 264.820125 50.325938 264.820125 
Q 49.763438 264.820125 49.229063 264.955125 
Q 48.696563 265.090125 48.205313 265.360125 
L 48.205313 264.362625 
Q 48.795938 264.133875 49.352813 264.021375 
Q 49.909688 263.907 50.436563 263.907 
Q 51.861563 263.907 52.564688 264.64575 
Q 53.267813 265.382625 53.267813 266.882625 
z
M 60.943828 266.665125 
L 60.943828 270.627 
L 59.865703 270.627 
L 59.865703 266.70075 
Q 59.865703 265.768875 59.501953 265.307625 
Q 59.138203 264.8445 58.412578 264.8445 
Q 57.538828 264.8445 57.034453 265.401375 
Q 56.530078 265.956375 56.530078 266.91825 
L 56.530078 270.627 
L 55.446328 270.627 
L 55.446328 264.0645 
L 56.530078 264.0645 
L 56.530078 265.0845 
Q 56.918203 264.492 57.441328 264.1995 
Q 57.966328 263.907 58.652578 263.907 
Q 59.783203 263.907 60.362578 264.606375 
Q 60.943828 265.30575 60.943828 266.665125 
z
M 66.954375 261.87825 
L 68.1375 261.87825 
L 68.1375 265.465125 
L 72.43875 265.465125 
L 72.43875 261.87825 
L 73.621875 261.87825 
L 73.621875 270.627 
L 72.43875 270.627 
L 72.43875 266.46075 
L 68.1375 266.46075 
L 68.1375 270.627 
L 66.954375 270.627 
L 66.954375 261.87825 
z
M 78.473438 264.820125 
Q 77.607188 264.820125 77.102812 265.497 
Q 76.598438 266.173875 76.598438 267.351375 
Q 76.598438 268.528875 77.099063 269.20575 
Q 77.601562 269.882625 78.473438 269.882625 
Q 79.335938 269.882625 79.838438 269.203875 
Q 80.342813 268.52325 80.342813 267.351375 
Q 80.342813 266.185125 79.838438 265.502625 
Q 79.335938 264.820125 78.473438 264.820125 
z
M 78.473438 263.907 
Q 79.879688 263.907 80.682188 264.822 
Q 81.486563 265.735125 81.486563 267.351375 
Q 81.486563 268.962 80.682188 269.88075 
Q 79.879688 270.797625 78.473438 270.797625 
Q 77.061563 270.797625 76.260938 269.88075 
Q 75.462187 268.962 75.462187 267.351375 
Q 75.462187 265.735125 76.260938 264.822 
Q 77.061563 263.907 78.473438 263.907 
z
M 83.162109 268.037625 
L 83.162109 264.0645 
L 84.240234 264.0645 
L 84.240234 267.996375 
Q 84.240234 268.92825 84.602109 269.395125 
Q 84.965859 269.860125 85.693359 269.860125 
Q 86.565234 269.860125 87.071484 269.30325 
Q 87.579609 268.746375 87.579609 267.7845 
L 87.579609 264.0645 
L 88.657734 264.0645 
L 88.657734 270.627 
L 87.579609 270.627 
L 87.579609 269.61825 
Q 87.187734 270.216375 86.668359 270.507 
Q 86.150859 270.797625 85.464609 270.797625 
Q 84.333984 270.797625 83.747109 270.0945 
Q 83.162109 269.391375 83.162109 268.037625 
z
M 85.875234 263.907 
L 85.875234 263.907 
z
M 95.061328 264.257625 
L 95.061328 265.277625 
Q 94.605703 265.04325 94.112578 264.927 
Q 93.621328 264.808875 93.092578 264.808875 
Q 92.290078 264.808875 91.888828 265.0545 
Q 91.487578 265.300125 91.487578 265.79325 
Q 91.487578 266.16825 91.774453 266.382 
Q 92.061328 266.59575 92.929453 266.788875 
L 93.298828 266.871375 
Q 94.446328 267.117 94.930078 267.565125 
Q 95.413828 268.01325 95.413828 268.81575 
Q 95.413828 269.73075 94.690078 270.265125 
Q 93.966328 270.797625 92.700703 270.797625 
Q 92.173828 270.797625 91.601953 270.6945 
Q 91.030078 270.591375 90.398203 270.387 
L 90.398203 269.27325 
Q 90.996328 269.5845 91.575703 269.740125 
Q 92.155078 269.893875 92.725078 269.893875 
Q 93.486328 269.893875 93.895078 269.63325 
Q 94.305703 269.372625 94.305703 268.89825 
Q 94.305703 268.4595 94.009453 268.225125 
Q 93.715078 267.99075 92.711953 267.77325 
L 92.336953 267.685125 
Q 91.335703 267.475125 90.889453 267.03825 
Q 90.445078 266.601375 90.445078 265.840125 
Q 90.445078 264.913875 91.101328 264.411375 
Q 91.757578 263.907 92.965078 263.907 
Q 93.561328 263.907 94.088203 263.995125 
Q 94.616953 264.081375 95.061328 264.257625 
z
M 102.743906 267.07575 
L 102.743906 267.602625 
L 97.786406 267.602625 
Q 97.857656 268.716375 98.457656 269.2995 
Q 99.057656 269.882625 100.130156 269.882625 
Q 100.750781 269.882625 101.333906 269.73075 
Q 101.917031 269.578875 102.492656 269.27325 
L 102.492656 270.29325 
Q 101.911406 270.538875 101.302031 270.66825 
Q 100.692656 270.797625 100.066406 270.797625 
Q 98.495156 270.797625 97.578281 269.8845 
Q 96.661406 268.9695 96.661406 267.4095 
Q 96.661406 265.798875 97.531406 264.853875 
Q 98.401406 263.907 99.878906 263.907 
Q 101.202656 263.907 101.973281 264.760125 
Q 102.743906 265.611375 102.743906 267.07575 
z
M 101.665781 266.758875 
Q 101.654531 265.87575 101.170781 265.348875 
Q 100.687031 264.820125 99.890156 264.820125 
Q 98.988281 264.820125 98.446406 265.330125 
Q 97.904531 265.840125 97.822031 266.766375 
L 101.665781 266.758875 
z
M 109.969219 266.665125 
L 109.969219 270.627 
L 108.891094 270.627 
L 108.891094 266.70075 
Q 108.891094 265.768875 108.527344 265.307625 
Q 108.163594 264.8445 107.437969 264.8445 
Q 106.564219 264.8445 106.059844 265.401375 
Q 105.555469 265.956375 105.555469 266.91825 
L 105.555469 270.627 
L 104.471719 270.627 
L 104.471719 261.508875 
L 105.555469 261.508875 
L 105.555469 265.0845 
Q 105.943594 264.492 106.466719 264.1995 
Q 106.991719 263.907 107.677969 263.907 
Q 108.808594 263.907 109.387969 264.606375 
Q 109.969219 265.30575 109.969219 266.665125 
z
M 114.660938 264.820125 
Q 113.794688 264.820125 113.290312 265.497 
Q 112.785938 266.173875 112.785938 267.351375 
Q 112.785938 268.528875 113.286563 269.20575 
Q 113.789062 269.882625 114.660938 269.882625 
Q 115.523438 269.882625 116.025937 269.203875 
Q 116.530313 268.52325 116.530313 267.351375 
Q 116.530313 266.185125 116.025937 265.502625 
Q 115.523438 264.820125 114.660938 264.820125 
z
M 114.660938 263.907 
Q 116.067188 263.907 116.869687 264.822 
Q 117.674063 265.735125 117.674063 267.351375 
Q 117.674063 268.962 116.869687 269.88075 
Q 116.067188 270.797625 114.660938 270.797625 
Q 113.249063 270.797625 112.448438 269.88075 
Q 111.649687 268.962 111.649687 267.351375 
Q 111.649687 265.735125 112.448438 264.822 
Q 113.249063 263.907 114.660938 263.907 
z
M 119.460234 261.508875 
L 120.538359 261.508875 
L 120.538359 270.627 
L 119.460234 270.627 
L 119.460234 261.508875 
z
M 127.112344 265.060125 
L 127.112344 261.508875 
L 128.190469 261.508875 
L 128.190469 270.627 
L 127.112344 270.627 
L 127.112344 269.642625 
Q 126.772969 270.227625 126.253594 270.512625 
Q 125.736094 270.797625 125.008594 270.797625 
Q 123.819844 270.797625 123.071719 269.848875 
Q 122.325469 268.89825 122.325469 267.351375 
Q 122.325469 265.8045 123.071719 264.85575 
Q 123.819844 263.907 125.008594 263.907 
Q 125.736094 263.907 126.253594 264.192 
Q 126.772969 264.475125 127.112344 265.060125 
z
M 123.439219 267.351375 
Q 123.439219 268.540125 123.928594 269.217 
Q 124.417969 269.893875 125.272969 269.893875 
Q 126.127969 269.893875 126.619219 269.217 
Q 127.112344 268.540125 127.112344 267.351375 
Q 127.112344 266.162625 126.619219 265.48575 
Q 126.127969 264.808875 125.272969 264.808875 
Q 124.417969 264.808875 123.928594 265.48575 
Q 123.439219 266.162625 123.439219 267.351375 
z
" style="fill: #ffffff; stroke: #000000; stroke-width: 2"/>
    <path d="M 19.493438 261.87825 
L 21.257813 261.87825 
L 23.489063 267.831375 
L 25.733438 261.87825 
L 27.497813 261.87825 
L 27.497813 270.627 
L 26.342813 270.627 
L 26.342813 262.945125 
L 24.087188 268.945125 
L 22.898438 268.945125 
L 20.642813 262.945125 
L 20.642813 270.627 
L 19.493438 270.627 
L 19.493438 261.87825 
z
M 35.413828 267.07575 
L 35.413828 267.602625 
L 30.456328 267.602625 
Q 30.527578 268.716375 31.127578 269.2995 
Q 31.727578 269.882625 32.800078 269.882625 
Q 33.420703 269.882625 34.003828 269.73075 
Q 34.586953 269.578875 35.162578 269.27325 
L 35.162578 270.29325 
Q 34.581328 270.538875 33.971953 270.66825 
Q 33.362578 270.797625 32.736328 270.797625 
Q 31.165078 270.797625 30.248203 269.8845 
Q 29.331328 268.9695 29.331328 267.4095 
Q 29.331328 265.798875 30.201328 264.853875 
Q 31.071328 263.907 32.548828 263.907 
Q 33.872578 263.907 34.643203 264.760125 
Q 35.413828 265.611375 35.413828 267.07575 
z
M 34.335703 266.758875 
Q 34.324453 265.87575 33.840703 265.348875 
Q 33.356953 264.820125 32.560078 264.820125 
Q 31.658203 264.820125 31.116328 265.330125 
Q 30.574453 265.840125 30.491953 266.766375 
L 34.335703 266.758875 
z
M 41.501016 265.060125 
L 41.501016 261.508875 
L 42.579141 261.508875 
L 42.579141 270.627 
L 41.501016 270.627 
L 41.501016 269.642625 
Q 41.161641 270.227625 40.642266 270.512625 
Q 40.124766 270.797625 39.397266 270.797625 
Q 38.208516 270.797625 37.460391 269.848875 
Q 36.714141 268.89825 36.714141 267.351375 
Q 36.714141 265.8045 37.460391 264.85575 
Q 38.208516 263.907 39.397266 263.907 
Q 40.124766 263.907 40.642266 264.192 
Q 41.161641 264.475125 41.501016 265.060125 
z
M 37.827891 267.351375 
Q 37.827891 268.540125 38.317266 269.217 
Q 38.806641 269.893875 39.661641 269.893875 
Q 40.516641 269.893875 41.007891 269.217 
Q 41.501016 268.540125 41.501016 267.351375 
Q 41.501016 266.162625 41.007891 265.48575 
Q 40.516641 264.808875 39.661641 264.808875 
Q 38.806641 264.808875 38.317266 265.48575 
Q 37.827891 266.162625 37.827891 267.351375 
z
M 44.800078 264.0645 
L 45.878203 264.0645 
L 45.878203 270.627 
L 44.800078 270.627 
L 44.800078 264.0645 
z
M 44.800078 261.508875 
L 45.878203 261.508875 
L 45.878203 262.87575 
L 44.800078 262.87575 
L 44.800078 261.508875 
z
M 51.117188 267.328875 
Q 49.810313 267.328875 49.305938 267.627 
Q 48.801563 267.925125 48.801563 268.647 
Q 48.801563 269.22075 49.180313 269.55825 
Q 49.559063 269.893875 50.207813 269.893875 
Q 51.105938 269.893875 51.647813 269.25825 
Q 52.189688 268.622625 52.189688 267.568875 
L 52.189688 267.328875 
L 51.117188 267.328875 
z
M 53.267813 266.882625 
L 53.267813 270.627 
L 52.189688 270.627 
L 52.189688 269.631375 
Q 51.820313 270.227625 51.269063 270.512625 
Q 50.717813 270.797625 49.920938 270.797625 
Q 48.914063 270.797625 48.317813 270.231375 
Q 47.723438 269.665125 47.723438 268.716375 
Q 47.723438 267.610125 48.464063 267.047625 
Q 49.206563 266.485125 50.676563 266.485125 
L 52.189688 266.485125 
L 52.189688 266.37825 
Q 52.189688 265.633875 51.700313 265.227 
Q 51.210938 264.820125 50.325938 264.820125 
Q 49.763438 264.820125 49.229063 264.955125 
Q 48.696563 265.090125 48.205313 265.360125 
L 48.205313 264.362625 
Q 48.795938 264.133875 49.352813 264.021375 
Q 49.909688 263.907 50.436563 263.907 
Q 51.861563 263.907 52.564688 264.64575 
Q 53.267813 265.382625 53.267813 266.882625 
z
M 60.943828 266.665125 
L 60.943828 270.627 
L 59.865703 270.627 
L 59.865703 266.70075 
Q 59.865703 265.768875 59.501953 265.307625 
Q 59.138203 264.8445 58.412578 264.8445 
Q 57.538828 264.8445 57.034453 265.401375 
Q 56.530078 265.956375 56.530078 266.91825 
L 56.530078 270.627 
L 55.446328 270.627 
L 55.446328 264.0645 
L 56.530078 264.0645 
L 56.530078 265.0845 
Q 56.918203 264.492 57.441328 264.1995 
Q 57.966328 263.907 58.652578 263.907 
Q 59.783203 263.907 60.362578 264.606375 
Q 60.943828 265.30575 60.943828 266.665125 
z
M 66.954375 261.87825 
L 68.1375 261.87825 
L 68.1375 265.465125 
L 72.43875 265.465125 
L 72.43875 261.87825 
L 73.621875 261.87825 
L 73.621875 270.627 
L 72.43875 270.627 
L 72.43875 266.46075 
L 68.1375 266.46075 
L 68.1375 270.627 
L 66.954375 270.627 
L 66.954375 261.87825 
z
M 78.473438 264.820125 
Q 77.607188 264.820125 77.102812 265.497 
Q 76.598438 266.173875 76.598438 267.351375 
Q 76.598438 268.528875 77.099063 269.20575 
Q 77.601562 269.882625 78.473438 269.882625 
Q 79.335938 269.882625 79.838438 269.203875 
Q 80.342813 268.52325 80.342813 267.351375 
Q 80.342813 266.185125 79.838438 265.502625 
Q 79.335938 264.820125 78.473438 264.820125 
z
M 78.473438 263.907 
Q 79.879688 263.907 80.682188 264.822 
Q 81.486563 265.735125 81.486563 267.351375 
Q 81.486563 268.962 80.682188 269.88075 
Q 79.879688 270.797625 78.473438 270.797625 
Q 77.061563 270.797625 76.260938 269.88075 
Q 75.462187 268.962 75.462187 267.351375 
Q 75.462187 265.735125 76.260938 264.822 
Q 77.061563 263.907 78.473438 263.907 
z
M 83.162109 268.037625 
L 83.162109 264.0645 
L 84.240234 264.0645 
L 84.240234 267.996375 
Q 84.240234 268.92825 84.602109 269.395125 
Q 84.965859 269.860125 85.693359 269.860125 
Q 86.565234 269.860125 87.071484 269.30325 
Q 87.579609 268.746375 87.579609 267.7845 
L 87.579609 264.0645 
L 88.657734 264.0645 
L 88.657734 270.627 
L 87.579609 270.627 
L 87.579609 269.61825 
Q 87.187734 270.216375 86.668359 270.507 
Q 86.150859 270.797625 85.464609 270.797625 
Q 84.333984 270.797625 83.747109 270.0945 
Q 83.162109 269.391375 83.162109 268.037625 
z
M 85.875234 263.907 
L 85.875234 263.907 
z
M 95.061328 264.257625 
L 95.061328 265.277625 
Q 94.605703 265.04325 94.112578 264.927 
Q 93.621328 264.808875 93.092578 264.808875 
Q 92.290078 264.808875 91.888828 265.0545 
Q 91.487578 265.300125 91.487578 265.79325 
Q 91.487578 266.16825 91.774453 266.382 
Q 92.061328 266.59575 92.929453 266.788875 
L 93.298828 266.871375 
Q 94.446328 267.117 94.930078 267.565125 
Q 95.413828 268.01325 95.413828 268.81575 
Q 95.413828 269.73075 94.690078 270.265125 
Q 93.966328 270.797625 92.700703 270.797625 
Q 92.173828 270.797625 91.601953 270.6945 
Q 91.030078 270.591375 90.398203 270.387 
L 90.398203 269.27325 
Q 90.996328 269.5845 91.575703 269.740125 
Q 92.155078 269.893875 92.725078 269.893875 
Q 93.486328 269.893875 93.895078 269.63325 
Q 94.305703 269.372625 94.305703 268.89825 
Q 94.305703 268.4595 94.009453 268.225125 
Q 93.715078 267.99075 92.711953 267.77325 
L 92.336953 267.685125 
Q 91.335703 267.475125 90.889453 267.03825 
Q 90.445078 266.601375 90.445078 265.840125 
Q 90.445078 264.913875 91.101328 264.411375 
Q 91.757578 263.907 92.965078 263.907 
Q 93.561328 263.907 94.088203 263.995125 
Q 94.616953 264.081375 95.061328 264.257625 
z
M 102.743906 267.07575 
L 102.743906 267.602625 
L 97.786406 267.602625 
Q 97.857656 268.716375 98.457656 269.2995 
Q 99.057656 269.882625 100.130156 269.882625 
Q 100.750781 269.882625 101.333906 269.73075 
Q 101.917031 269.578875 102.492656 269.27325 
L 102.492656 270.29325 
Q 101.911406 270.538875 101.302031 270.66825 
Q 100.692656 270.797625 100.066406 270.797625 
Q 98.495156 270.797625 97.578281 269.8845 
Q 96.661406 268.9695 96.661406 267.4095 
Q 96.661406 265.798875 97.531406 264.853875 
Q 98.401406 263.907 99.878906 263.907 
Q 101.202656 263.907 101.973281 264.760125 
Q 102.743906 265.611375 102.743906 267.07575 
z
M 101.665781 266.758875 
Q 101.654531 265.87575 101.170781 265.348875 
Q 100.687031 264.820125 99.890156 264.820125 
Q 98.988281 264.820125 98.446406 265.330125 
Q 97.904531 265.840125 97.822031 266.766375 
L 101.665781 266.758875 
z
M 109.969219 266.665125 
L 109.969219 270.627 
L 108.891094 270.627 
L 108.891094 266.70075 
Q 108.891094 265.768875 108.527344 265.307625 
Q 108.163594 264.8445 107.437969 264.8445 
Q 106.564219 264.8445 106.059844 265.401375 
Q 105.555469 265.956375 105.555469 266.91825 
L 105.555469 270.627 
L 104.471719 270.627 
L 104.471719 261.508875 
L 105.555469 261.508875 
L 105.555469 265.0845 
Q 105.943594 264.492 106.466719 264.1995 
Q 106.991719 263.907 107.677969 263.907 
Q 108.808594 263.907 109.387969 264.606375 
Q 109.969219 265.30575 109.969219 266.665125 
z
M 114.660938 264.820125 
Q 113.794688 264.820125 113.290312 265.497 
Q 112.785938 266.173875 112.785938 267.351375 
Q 112.785938 268.528875 113.286563 269.20575 
Q 113.789062 269.882625 114.660938 269.882625 
Q 115.523438 269.882625 116.025937 269.203875 
Q 116.530313 268.52325 116.530313 267.351375 
Q 116.530313 266.185125 116.025937 265.502625 
Q 115.523438 264.820125 114.660938 264.820125 
z
M 114.660938 263.907 
Q 116.067188 263.907 116.869687 264.822 
Q 117.674063 265.735125 117.674063 267.351375 
Q 117.674063 268.962 116.869687 269.88075 
Q 116.067188 270.797625 114.660938 270.797625 
Q 113.249063 270.797625 112.448438 269.88075 
Q 111.649687 268.962 111.649687 267.351375 
Q 111.649687 265.735125 112.448438 264.822 
Q 113.249063 263.907 114.660938 263.907 
z
M 119.460234 261.508875 
L 120.538359 261.508875 
L 120.538359 270.627 
L 119.460234 270.627 
L 119.460234 261.508875 
z
M 127.112344 265.060125 
L 127.112344 261.508875 
L 128.190469 261.508875 
L 128.190469 270.627 
L 127.112344 270.627 
L 127.112344 269.642625 
Q 126.772969 270.227625 126.253594 270.512625 
Q 125.736094 270.797625 125.008594 270.797625 
Q 123.819844 270.797625 123.071719 269.848875 
Q 122.325469 268.89825 122.325469 267.351375 
Q 122.325469 265.8045 123.071719 264.85575 
Q 123.819844 263.907 125.008594 263.907 
Q 125.736094 263.907 126.253594 264.192 
Q 126.772969 264.475125 127.112344 265.060125 
z
M 123.439219 267.351375 
Q 123.439219 268.540125 123.928594 269.217 
Q 124.417969 269.893875 125.272969 269.893875 
Q 126.127969 269.893875 126.619219 269.217 
Q 127.112344 268.540125 127.112344 267.351375 
Q 127.112344 266.162625 126.619219 265.48575 
Q 126.127969 264.808875 125.272969 264.808875 
Q 124.417969 264.808875 123.928594 265.48575 
Q 123.439219 266.162625 123.439219 267.351375 
z
" style="fill: #ffffff"/>
    <path d="M 52.898438 275.315625 
L 54.081563 275.315625 
L 54.081563 284.064375 
L 52.898438 284.064375 
L 52.898438 275.315625 
z
M 61.846875 280.1025 
L 61.846875 284.064375 
L 60.76875 284.064375 
L 60.76875 280.138125 
Q 60.76875 279.20625 60.405 278.745 
Q 60.04125 278.281875 59.315625 278.281875 
Q 58.441875 278.281875 57.9375 278.83875 
Q 57.433125 279.39375 57.433125 280.355625 
L 57.433125 284.064375 
L 56.349375 284.064375 
L 56.349375 277.501875 
L 57.433125 277.501875 
L 57.433125 278.521875 
Q 57.82125 277.929375 58.344375 277.636875 
Q 58.869375 277.344375 59.555625 277.344375 
Q 60.68625 277.344375 61.265625 278.04375 
Q 61.846875 278.743125 61.846875 280.1025 
z
M 68.719219 277.753125 
L 68.719219 278.761875 
Q 68.261719 278.50875 67.802344 278.383125 
Q 67.342969 278.2575 66.874219 278.2575 
Q 65.824219 278.2575 65.242969 278.923125 
Q 64.663594 279.586875 64.663594 280.78875 
Q 64.663594 281.990625 65.242969 282.65625 
Q 65.824219 283.32 66.874219 283.32 
Q 67.342969 283.32 67.802344 283.194375 
Q 68.261719 283.06875 68.719219 282.815625 
L 68.719219 283.813125 
Q 68.267344 284.023125 67.783594 284.128125 
Q 67.301719 284.235 66.756094 284.235 
Q 65.272969 284.235 64.399219 283.303125 
Q 63.527344 282.37125 63.527344 280.78875 
Q 63.527344 279.18375 64.408594 278.265 
Q 65.291719 277.344375 66.827344 277.344375 
Q 67.324219 277.344375 67.798594 277.4475 
Q 68.272969 277.54875 68.719219 277.753125 
z
M 73.13625 278.2575 
Q 72.27 278.2575 71.765625 278.934375 
Q 71.26125 279.61125 71.26125 280.78875 
Q 71.26125 281.96625 71.761875 282.643125 
Q 72.264375 283.32 73.13625 283.32 
Q 73.99875 283.32 74.50125 282.64125 
Q 75.005625 281.960625 75.005625 280.78875 
Q 75.005625 279.6225 74.50125 278.94 
Q 73.99875 278.2575 73.13625 278.2575 
z
M 73.13625 277.344375 
Q 74.5425 277.344375 75.345 278.259375 
Q 76.149375 279.1725 76.149375 280.78875 
Q 76.149375 282.399375 75.345 283.318125 
Q 74.5425 284.235 73.13625 284.235 
Q 71.724375 284.235 70.92375 283.318125 
Q 70.125 282.399375 70.125 280.78875 
Q 70.125 279.1725 70.92375 278.259375 
Q 71.724375 277.344375 73.13625 277.344375 
z
M 83.044922 278.761875 
Q 83.449922 278.034375 84.012422 277.689375 
Q 84.574922 277.344375 85.336172 277.344375 
Q 86.361797 277.344375 86.918672 278.0625 
Q 87.475547 278.77875 87.475547 280.1025 
L 87.475547 284.064375 
L 86.391797 284.064375 
L 86.391797 280.138125 
Q 86.391797 279.195 86.056172 278.739375 
Q 85.722422 278.281875 85.038047 278.281875 
Q 84.199922 278.281875 83.712422 278.83875 
Q 83.226797 279.39375 83.226797 280.355625 
L 83.226797 284.064375 
L 82.143047 284.064375 
L 82.143047 280.138125 
Q 82.143047 279.189375 81.809297 278.735625 
Q 81.475547 278.281875 80.778047 278.281875 
Q 79.951172 278.281875 79.463672 278.840625 
Q 78.978047 279.399375 78.978047 280.355625 
L 78.978047 284.064375 
L 77.894297 284.064375 
L 77.894297 277.501875 
L 78.978047 277.501875 
L 78.978047 278.521875 
Q 79.347422 277.918125 79.863047 277.63125 
Q 80.378672 277.344375 81.087422 277.344375 
Q 81.803672 277.344375 82.304297 277.708125 
Q 82.804922 278.07 83.044922 278.761875 
z
M 95.23875 280.513125 
L 95.23875 281.04 
L 90.28125 281.04 
Q 90.3525 282.15375 90.9525 282.736875 
Q 91.5525 283.32 92.625 283.32 
Q 93.245625 283.32 93.82875 283.168125 
Q 94.411875 283.01625 94.9875 282.710625 
L 94.9875 283.730625 
Q 94.40625 283.97625 93.796875 284.105625 
Q 93.1875 284.235 92.56125 284.235 
Q 90.99 284.235 90.073125 283.321875 
Q 89.15625 282.406875 89.15625 280.846875 
Q 89.15625 279.23625 90.02625 278.29125 
Q 90.89625 277.344375 92.37375 277.344375 
Q 93.6975 277.344375 94.468125 278.1975 
Q 95.23875 279.04875 95.23875 280.513125 
z
M 94.160625 280.19625 
Q 94.149375 279.313125 93.665625 278.78625 
Q 93.181875 278.2575 92.385 278.2575 
Q 91.483125 278.2575 90.94125 278.7675 
Q 90.399375 279.2775 90.316875 280.20375 
L 94.160625 280.19625 
z
" style="fill: #ffffff; stroke: #000000; stroke-width: 2"/>
    <path d="M 52.898438 275.315625 
L 54.081563 275.315625 
L 54.081563 284.064375 
L 52.898438 284.064375 
L 52.898438 275.315625 
z
M 61.846875 280.1025 
L 61.846875 284.064375 
L 60.76875 284.064375 
L 60.76875 280.138125 
Q 60.76875 279.20625 60.405 278.745 
Q 60.04125 278.281875 59.315625 278.281875 
Q 58.441875 278.281875 57.9375 278.83875 
Q 57.433125 279.39375 57.433125 280.355625 
L 57.433125 284.064375 
L 56.349375 284.064375 
L 56.349375 277.501875 
L 57.433125 277.501875 
L 57.433125 278.521875 
Q 57.82125 277.929375 58.344375 277.636875 
Q 58.869375 277.344375 59.555625 277.344375 
Q 60.68625 277.344375 61.265625 278.04375 
Q 61.846875 278.743125 61.846875 280.1025 
z
M 68.719219 277.753125 
L 68.719219 278.761875 
Q 68.261719 278.50875 67.802344 278.383125 
Q 67.342969 278.2575 66.874219 278.2575 
Q 65.824219 278.2575 65.242969 278.923125 
Q 64.663594 279.586875 64.663594 280.78875 
Q 64.663594 281.990625 65.242969 282.65625 
Q 65.824219 283.32 66.874219 283.32 
Q 67.342969 283.32 67.802344 283.194375 
Q 68.261719 283.06875 68.719219 282.815625 
L 68.719219 283.813125 
Q 68.267344 284.023125 67.783594 284.128125 
Q 67.301719 284.235 66.756094 284.235 
Q 65.272969 284.235 64.399219 283.303125 
Q 63.527344 282.37125 63.527344 280.78875 
Q 63.527344 279.18375 64.408594 278.265 
Q 65.291719 277.344375 66.827344 277.344375 
Q 67.324219 277.344375 67.798594 277.4475 
Q 68.272969 277.54875 68.719219 277.753125 
z
M 73.13625 278.2575 
Q 72.27 278.2575 71.765625 278.934375 
Q 71.26125 279.61125 71.26125 280.78875 
Q 71.26125 281.96625 71.761875 282.643125 
Q 72.264375 283.32 73.13625 283.32 
Q 73.99875 283.32 74.50125 282.64125 
Q 75.005625 281.960625 75.005625 280.78875 
Q 75.005625 279.6225 74.50125 278.94 
Q 73.99875 278.2575 73.13625 278.2575 
z
M 73.13625 277.344375 
Q 74.5425 277.344375 75.345 278.259375 
Q 76.149375 279.1725 76.149375 280.78875 
Q 76.149375 282.399375 75.345 283.318125 
Q 74.5425 284.235 73.13625 284.235 
Q 71.724375 284.235 70.92375 283.318125 
Q 70.125 282.399375 70.125 280.78875 
Q 70.125 279.1725 70.92375 278.259375 
Q 71.724375 277.344375 73.13625 277.344375 
z
M 83.044922 278.761875 
Q 83.449922 278.034375 84.012422 277.689375 
Q 84.574922 277.344375 85.336172 277.344375 
Q 86.361797 277.344375 86.918672 278.0625 
Q 87.475547 278.77875 87.475547 280.1025 
L 87.475547 284.064375 
L 86.391797 284.064375 
L 86.391797 280.138125 
Q 86.391797 279.195 86.056172 278.739375 
Q 85.722422 278.281875 85.038047 278.281875 
Q 84.199922 278.281875 83.712422 278.83875 
Q 83.226797 279.39375 83.226797 280.355625 
L 83.226797 284.064375 
L 82.143047 284.064375 
L 82.143047 280.138125 
Q 82.143047 279.189375 81.809297 278.735625 
Q 81.475547 278.281875 80.778047 278.281875 
Q 79.951172 278.281875 79.463672 278.840625 
Q 78.978047 279.399375 78.978047 280.355625 
L 78.978047 284.064375 
L 77.894297 284.064375 
L 77.894297 277.501875 
L 78.978047 277.501875 
L 78.978047 278.521875 
Q 79.347422 277.918125 79.863047 277.63125 
Q 80.378672 277.344375 81.087422 277.344375 
Q 81.803672 277.344375 82.304297 277.708125 
Q 82.804922 278.07 83.044922 278.761875 
z
M 95.23875 280.513125 
L 95.23875 281.04 
L 90.28125 281.04 
Q 90.3525 282.15375 90.9525 282.736875 
Q 91.5525 283.32 92.625 283.32 
Q 93.245625 283.32 93.82875 283.168125 
Q 94.411875 283.01625 94.9875 282.710625 
L 94.9875 283.730625 
Q 94.40625 283.97625 93.796875 284.105625 
Q 93.1875 284.235 92.56125 284.235 
Q 90.99 284.235 90.073125 283.321875 
Q 89.15625 282.406875 89.15625 280.846875 
Q 89.15625 279.23625 90.02625 278.29125 
Q 90.89625 277.344375 92.37375 277.344375 
Q 93.6975 277.344375 94.468125 278.1975 
Q 95.23875 279.04875 95.23875 280.513125 
z
M 94.160625 280.19625 
Q 94.149375 279.313125 93.665625 278.78625 
Q 93.181875 278.2575 92.385 278.2575 
Q 91.483125 278.2575 90.94125 278.7675 
Q 90.399375 279.2775 90.316875 280.20375 
L 94.160625 280.19625 
z
" style="fill: #ffffff"/>
   </g>
  </g>
  <g id="axes_3">
   <g id="patch_4">
    <path d="M 104.982353 286.56 
L 129.6 286.56 
L 129.6 69.12 
L 104.982353 69.12 
L 104.982353 286.56 
z
" style="fill: none"/>
   </g>
  </g>
  <g id="axes_4">
   <g id="patch_5">
    <path d="M 18 504 
L 42.617647 504 
L 42.617647 286.56 
L 18 286.56 
L 18 504 
z
" style="fill: none"/>
   </g>
  </g>
  <g id="axes_5">
   <g id="patch_6">
    <path d="M 49.182353 504 
L 98.417647 504 
L 98.417647 286.56 
L 49.182353 286.56 
L 49.182353 504 
z
" style="fill: none"/>
   </g>
   <g id="patch_7">
    <path d="M 49.182353 494.116364 
L 96.073109 494.116364 
L 96.073109 469.407273 
L 49.182353 469.407273 
z
" clip-path="url(#pa0d8109aef)" style="fill: #d73027"/>
   </g>
   <g id="patch_8">
    <path d="M 49.182353 469.407273 
L 96.073109 469.407273 
L 96.073109 444.698182 
L 49.182353 444.698182 
z
" clip-path="url(#pa0d8109aef)" style="fill: #f46d43"/>
   </g>
   <g id="patch_9">
    <path d="M 49.182353 444.698182 
L 96.073109 444.698182 
L 96.073109 419.989091 
L 49.182353 419.989091 
z
" clip-path="url(#pa0d8109aef)" style="fill: #fdae61"/>
   </g>
   <g id="patch_10">
    <path d="M 49.182353 419.989091 
L 96.073109 419.989091 
L 96.073109 395.28 
L 49.182353 395.28 
z
" clip-path="url(#pa0d8109aef)" style="fill: #fee08b"/>
   </g>
   <g id="patch_11">
    <path d="M 49.182353 395.28 
L 96.073109 395.28 
L 96.073109 370.570909 
L 49.182353 370.570909 
z
" clip-path="url(#pa0d8109aef)" style="fill: #d9ef8b"/>
   </g>
   <g id="patch_12">
    <path d="M 49.182353 370.570909 
L 96.073109 370.570909 
L 96.073109 345.861818 
L 49.182353 345.861818 
z
" clip-path="url(#pa0d8109aef)" style="fill: #a6d96a"/>
   </g>
   <g id="patch_13">
    <path d="M 49.182353 345.861818 
L 96.073109 345.861818 
L 96.073109 321.152727 
L 49.182353 321.152727 
z
" clip-path="url(#pa0d8109aef)" style="fill: #66bd63"/>
   </g>
   <g id="patch_14">
    <path d="M 49.182353 321.152727 
L 96.073109 321.152727 
L 96.073109 296.443636 
L 49.182353 296.443636 
z
" clip-path="url(#pa0d8109aef)" style="fill: #1a9850"/>
   </g>
   <g id="text_2">
    <path d="M 56.171794 492.6375 
L 53.700544 496.299375 
L 56.171794 496.299375 
L 56.171794 492.6375 
z
M 55.796794 490.779375 
L 58.305544 490.779375 
L 58.305544 496.299375 
L 59.552419 496.299375 
L 59.552419 497.934375 
L 58.305544 497.934375 
L 58.305544 499.528125 
L 56.171794 499.528125 
L 56.171794 497.934375 
L 52.294294 497.934375 
L 52.294294 496.00125 
L 55.796794 490.779375 
z
M 61.375153 490.779375 
L 66.983278 490.779375 
L 66.983278 492.43875 
L 63.175153 492.43875 
L 63.175153 493.7925 
Q 63.432028 493.72125 63.692653 493.68375 
Q 63.953278 493.644375 64.234528 493.644375 
Q 65.833903 493.644375 66.724528 494.445 
Q 67.615153 495.245625 67.615153 496.674375 
Q 67.615153 498.091875 66.645778 498.89625 
Q 65.676403 499.69875 63.953278 499.69875 
Q 63.208903 499.69875 62.479528 499.554375 
Q 61.750153 499.41 61.030153 499.1175 
L 61.030153 497.341875 
Q 61.744528 497.7525 62.385778 497.95875 
Q 63.027028 498.163125 63.597028 498.163125 
Q 64.416403 498.163125 64.887028 497.761875 
Q 65.359528 497.360625 65.359528 496.674375 
Q 65.359528 495.9825 64.887028 495.585 
Q 64.416403 495.185625 63.597028 495.185625 
Q 63.109528 495.185625 62.558278 495.313125 
Q 62.008903 495.43875 61.375153 495.70125 
L 61.375153 490.779375 
z
M 73.973512 495.144375 
Q 73.973512 493.50375 73.666012 492.834375 
Q 73.358512 492.163125 72.631012 492.163125 
Q 71.905387 492.163125 71.594137 492.834375 
Q 71.282887 493.50375 71.282887 495.144375 
Q 71.282887 496.80375 71.594137 497.484375 
Q 71.905387 498.163125 72.631012 498.163125 
Q 73.352887 498.163125 73.662262 497.484375 
Q 73.973512 496.80375 73.973512 495.144375 
z
M 76.229137 495.163125 
Q 76.229137 497.33625 75.291637 498.5175 
Q 74.354137 499.69875 72.631012 499.69875 
Q 70.902262 499.69875 69.964762 498.5175 
Q 69.027262 497.33625 69.027262 495.163125 
Q 69.027262 492.9825 69.964762 491.803125 
Q 70.902262 490.621875 72.631012 490.621875 
Q 74.354137 490.621875 75.291637 491.803125 
Q 76.229137 492.9825 76.229137 495.163125 
z
M 80.980622 495.613125 
Q 80.348747 495.613125 80.007497 495.96 
Q 79.668122 496.305 79.668122 496.95 
Q 79.668122 497.595 80.007497 497.938125 
Q 80.348747 498.279375 80.980622 498.279375 
Q 81.608747 498.279375 81.942497 497.938125 
Q 82.276247 497.595 82.276247 496.95 
Q 82.276247 496.299375 81.942497 495.95625 
Q 81.608747 495.613125 80.980622 495.613125 
z
M 79.334372 494.870625 
Q 78.537497 494.62875 78.132497 494.131875 
Q 77.729372 493.633125 77.729372 492.88875 
Q 77.729372 491.7825 78.554372 491.203125 
Q 79.381247 490.621875 80.980622 490.621875 
Q 82.568747 490.621875 83.393747 491.199375 
Q 84.220622 491.776875 84.220622 492.88875 
Q 84.220622 493.633125 83.813747 494.131875 
Q 83.406872 494.62875 82.609997 494.870625 
Q 83.500622 495.11625 83.954372 495.669375 
Q 84.408122 496.2225 84.408122 497.06625 
Q 84.408122 498.3675 83.543747 499.033125 
Q 82.679372 499.69875 80.980622 499.69875 
Q 79.276247 499.69875 78.406247 499.033125 
Q 77.536247 498.3675 77.536247 497.06625 
Q 77.536247 496.2225 77.989997 495.669375 
Q 78.443747 495.11625 79.334372 494.870625 
z
M 79.861247 493.1175 
Q 79.861247 493.63875 80.151872 493.92 
Q 80.442497 494.20125 80.980622 494.20125 
Q 81.507497 494.20125 81.794372 493.92 
Q 82.083122 493.63875 82.083122 493.1175 
Q 82.083122 492.59625 81.794372 492.31875 
Q 81.507497 492.039375 80.980622 492.039375 
Q 80.442497 492.039375 80.151872 492.320625 
Q 79.861247 492.601875 79.861247 493.1175 
z
M 86.558981 497.97 
L 88.552106 497.97 
L 88.552106 492.315 
L 86.506481 492.736875 
L 86.506481 491.20125 
L 88.538981 490.779375 
L 90.683981 490.779375 
L 90.683981 497.97 
L 92.677106 497.97 
L 92.677106 499.528125 
L 86.558981 499.528125 
L 86.558981 497.97 
z
" style="stroke: #ffffff"/>
    <path d="M 56.171794 492.6375 
L 53.700544 496.299375 
L 56.171794 496.299375 
L 56.171794 492.6375 
z
M 55.796794 490.779375 
L 58.305544 490.779375 
L 58.305544 496.299375 
L 59.552419 496.299375 
L 59.552419 497.934375 
L 58.305544 497.934375 
L 58.305544 499.528125 
L 56.171794 499.528125 
L 56.171794 497.934375 
L 52.294294 497.934375 
L 52.294294 496.00125 
L 55.796794 490.779375 
z
M 61.375153 490.779375 
L 66.983278 490.779375 
L 66.983278 492.43875 
L 63.175153 492.43875 
L 63.175153 493.7925 
Q 63.432028 493.72125 63.692653 493.68375 
Q 63.953278 493.644375 64.234528 493.644375 
Q 65.833903 493.644375 66.724528 494.445 
Q 67.615153 495.245625 67.615153 496.674375 
Q 67.615153 498.091875 66.645778 498.89625 
Q 65.676403 499.69875 63.953278 499.69875 
Q 63.208903 499.69875 62.479528 499.554375 
Q 61.750153 499.41 61.030153 499.1175 
L 61.030153 497.341875 
Q 61.744528 497.7525 62.385778 497.95875 
Q 63.027028 498.163125 63.597028 498.163125 
Q 64.416403 498.163125 64.887028 497.761875 
Q 65.359528 497.360625 65.359528 496.674375 
Q 65.359528 495.9825 64.887028 495.585 
Q 64.416403 495.185625 63.597028 495.185625 
Q 63.109528 495.185625 62.558278 495.313125 
Q 62.008903 495.43875 61.375153 495.70125 
L 61.375153 490.779375 
z
M 73.973512 495.144375 
Q 73.973512 493.50375 73.666012 492.834375 
Q 73.358512 492.163125 72.631012 492.163125 
Q 71.905387 492.163125 71.594137 492.834375 
Q 71.282887 493.50375 71.282887 495.144375 
Q 71.282887 496.80375 71.594137 497.484375 
Q 71.905387 498.163125 72.631012 498.163125 
Q 73.352887 498.163125 73.662262 497.484375 
Q 73.973512 496.80375 73.973512 495.144375 
z
M 76.229137 495.163125 
Q 76.229137 497.33625 75.291637 498.5175 
Q 74.354137 499.69875 72.631012 499.69875 
Q 70.902262 499.69875 69.964762 498.5175 
Q 69.027262 497.33625 69.027262 495.163125 
Q 69.027262 492.9825 69.964762 491.803125 
Q 70.902262 490.621875 72.631012 490.621875 
Q 74.354137 490.621875 75.291637 491.803125 
Q 76.229137 492.9825 76.229137 495.163125 
z
M 80.980622 495.613125 
Q 80.348747 495.613125 80.007497 495.96 
Q 79.668122 496.305 79.668122 496.95 
Q 79.668122 497.595 80.007497 497.938125 
Q 80.348747 498.279375 80.980622 498.279375 
Q 81.608747 498.279375 81.942497 497.938125 
Q 82.276247 497.595 82.276247 496.95 
Q 82.276247 496.299375 81.942497 495.95625 
Q 81.608747 495.613125 80.980622 495.613125 
z
M 79.334372 494.870625 
Q 78.537497 494.62875 78.132497 494.131875 
Q 77.729372 493.633125 77.729372 492.88875 
Q 77.729372 491.7825 78.554372 491.203125 
Q 79.381247 490.621875 80.980622 490.621875 
Q 82.568747 490.621875 83.393747 491.199375 
Q 84.220622 491.776875 84.220622 492.88875 
Q 84.220622 493.633125 83.813747 494.131875 
Q 83.406872 494.62875 82.609997 494.870625 
Q 83.500622 495.11625 83.954372 495.669375 
Q 84.408122 496.2225 84.408122 497.06625 
Q 84.408122 498.3675 83.543747 499.033125 
Q 82.679372 499.69875 80.980622 499.69875 
Q 79.276247 499.69875 78.406247 499.033125 
Q 77.536247 498.3675 77.536247 497.06625 
Q 77.536247 496.2225 77.989997 495.669375 
Q 78.443747 495.11625 79.334372 494.870625 
z
M 79.861247 493.1175 
Q 79.861247 493.63875 80.151872 493.92 
Q 80.442497 494.20125 80.980622 494.20125 
Q 81.507497 494.20125 81.794372 493.92 
Q 82.083122 493.63875 82.083122 493.1175 
Q 82.083122 492.59625 81.794372 492.31875 
Q 81.507497 492.039375 80.980622 492.039375 
Q 80.442497 492.039375 80.151872 492.320625 
Q 79.861247 492.601875 79.861247 493.1175 
z
M 86.558981 497.97 
L 88.552106 497.97 
L 88.552106 492.315 
L 86.506481 492.736875 
L 86.506481 491.20125 
L 88.538981 490.779375 
L 90.683981 490.779375 
L 90.683981 497.97 
L 92.677106 497.97 
L 92.677106 499.528125 
L 86.558981 499.528125 
L 86.558981 497.97 
z
"/>
   </g>
   <g id="text_3">
    <path d="M 53.025544 466.070284 
L 58.633669 466.070284 
L 58.633669 467.729659 
L 54.825544 467.729659 
L 54.825544 469.083409 
Q 55.082419 469.012159 55.343044 468.974659 
Q 55.603669 468.935284 55.884919 468.935284 
Q 57.484294 468.935284 58.374919 469.735909 
Q 59.265544 470.536534 59.265544 471.965284 
Q 59.265544 473.382784 58.296169 474.187159 
Q 57.326794 474.989659 55.603669 474.989659 
Q 54.859294 474.989659 54.129919 474.845284 
Q 53.400544 474.700909 52.680544 474.408409 
L 52.680544 472.632784 
Q 53.394919 473.043409 54.036169 473.249659 
Q 54.677419 473.454034 55.247419 473.454034 
Q 56.066794 473.454034 56.537419 473.052784 
Q 57.009919 472.651534 57.009919 471.965284 
Q 57.009919 471.273409 56.537419 470.875909 
Q 56.066794 470.476534 55.247419 470.476534 
Q 54.759919 470.476534 54.208669 470.604034 
Q 53.659294 470.729659 53.025544 470.992159 
L 53.025544 466.070284 
z
M 61.510153 473.260909 
L 63.503278 473.260909 
L 63.503278 467.605909 
L 61.457653 468.027784 
L 61.457653 466.492159 
L 63.490153 466.070284 
L 65.635153 466.070284 
L 65.635153 473.260909 
L 67.628278 473.260909 
L 67.628278 474.819034 
L 61.510153 474.819034 
L 61.510153 473.260909 
z
M 69.859762 473.260909 
L 71.852887 473.260909 
L 71.852887 467.605909 
L 69.807262 468.027784 
L 69.807262 466.492159 
L 71.839762 466.070284 
L 73.984762 466.070284 
L 73.984762 473.260909 
L 75.977887 473.260909 
L 75.977887 474.819034 
L 69.859762 474.819034 
L 69.859762 473.260909 
z
M 77.605622 466.070284 
L 84.198122 466.070284 
L 84.198122 467.341534 
L 80.787497 474.819034 
L 78.589997 474.819034 
L 81.818747 467.729659 
L 77.605622 467.729659 
L 77.605622 466.070284 
z
M 88.610231 473.161534 
L 92.459606 473.161534 
L 92.459606 474.819034 
L 86.101481 474.819034 
L 86.101481 473.161534 
L 89.294606 470.341534 
Q 89.723981 469.955284 89.928356 469.585909 
Q 90.132731 469.216534 90.132731 468.819034 
Q 90.132731 468.204034 89.720231 467.829034 
Q 89.307731 467.454034 88.621481 467.454034 
Q 88.094606 467.454034 87.466481 467.679034 
Q 86.840231 467.904034 86.125856 468.350284 
L 86.125856 466.428409 
Q 86.887106 466.177159 87.631481 466.045909 
Q 88.375856 465.912784 89.090231 465.912784 
Q 90.661481 465.912784 91.531481 466.604659 
Q 92.401481 467.294659 92.401481 468.532159 
Q 92.401481 469.246534 92.032106 469.865284 
Q 91.662731 470.482159 90.479606 471.520909 
L 88.610231 473.161534 
z
" style="stroke: #ffffff"/>
    <path d="M 53.025544 466.070284 
L 58.633669 466.070284 
L 58.633669 467.729659 
L 54.825544 467.729659 
L 54.825544 469.083409 
Q 55.082419 469.012159 55.343044 468.974659 
Q 55.603669 468.935284 55.884919 468.935284 
Q 57.484294 468.935284 58.374919 469.735909 
Q 59.265544 470.536534 59.265544 471.965284 
Q 59.265544 473.382784 58.296169 474.187159 
Q 57.326794 474.989659 55.603669 474.989659 
Q 54.859294 474.989659 54.129919 474.845284 
Q 53.400544 474.700909 52.680544 474.408409 
L 52.680544 472.632784 
Q 53.394919 473.043409 54.036169 473.249659 
Q 54.677419 473.454034 55.247419 473.454034 
Q 56.066794 473.454034 56.537419 473.052784 
Q 57.009919 472.651534 57.009919 471.965284 
Q 57.009919 471.273409 56.537419 470.875909 
Q 56.066794 470.476534 55.247419 470.476534 
Q 54.759919 470.476534 54.208669 470.604034 
Q 53.659294 470.729659 53.025544 470.992159 
L 53.025544 466.070284 
z
M 61.510153 473.260909 
L 63.503278 473.260909 
L 63.503278 467.605909 
L 61.457653 468.027784 
L 61.457653 466.492159 
L 63.490153 466.070284 
L 65.635153 466.070284 
L 65.635153 473.260909 
L 67.628278 473.260909 
L 67.628278 474.819034 
L 61.510153 474.819034 
L 61.510153 473.260909 
z
M 69.859762 473.260909 
L 71.852887 473.260909 
L 71.852887 467.605909 
L 69.807262 468.027784 
L 69.807262 466.492159 
L 71.839762 466.070284 
L 73.984762 466.070284 
L 73.984762 473.260909 
L 75.977887 473.260909 
L 75.977887 474.819034 
L 69.859762 474.819034 
L 69.859762 473.260909 
z
M 77.605622 466.070284 
L 84.198122 466.070284 
L 84.198122 467.341534 
L 80.787497 474.819034 
L 78.589997 474.819034 
L 81.818747 467.729659 
L 77.605622 467.729659 
L 77.605622 466.070284 
z
M 88.610231 473.161534 
L 92.459606 473.161534 
L 92.459606 474.819034 
L 86.101481 474.819034 
L 86.101481 473.161534 
L 89.294606 470.341534 
Q 89.723981 469.955284 89.928356 469.585909 
Q 90.132731 469.216534 90.132731 468.819034 
Q 90.132731 468.204034 89.720231 467.829034 
Q 89.307731 467.454034 88.621481 467.454034 
Q 88.094606 467.454034 87.466481 467.679034 
Q 86.840231 467.904034 86.125856 468.350284 
L 86.125856 466.428409 
Q 86.887106 466.177159 87.631481 466.045909 
Q 88.375856 465.912784 89.090231 465.912784 
Q 90.661481 465.912784 91.531481 466.604659 
Q 92.401481 467.294659 92.401481 468.532159 
Q 92.401481 469.246534 92.032106 469.865284 
Q 91.662731 470.482159 90.479606 471.520909 
L 88.610231 473.161534 
z
"/>
   </g>
   <g id="text_4">
    <path d="M 53.025544 441.361193 
L 58.633669 441.361193 
L 58.633669 443.020568 
L 54.825544 443.020568 
L 54.825544 444.374318 
Q 55.082419 444.303068 55.343044 444.265568 
Q 55.603669 444.226193 55.884919 444.226193 
Q 57.484294 444.226193 58.374919 445.026818 
Q 59.265544 445.827443 59.265544 447.256193 
Q 59.265544 448.673693 58.296169 449.478068 
Q 57.326794 450.280568 55.603669 450.280568 
Q 54.859294 450.280568 54.129919 450.136193 
Q 53.400544 449.991818 52.680544 449.699318 
L 52.680544 447.923693 
Q 53.394919 448.334318 54.036169 448.540568 
Q 54.677419 448.744943 55.247419 448.744943 
Q 56.066794 448.744943 56.537419 448.343693 
Q 57.009919 447.942443 57.009919 447.256193 
Q 57.009919 446.564318 56.537419 446.166818 
Q 56.066794 445.767443 55.247419 445.767443 
Q 54.759919 445.767443 54.208669 445.894943 
Q 53.659294 446.020568 53.025544 446.283068 
L 53.025544 441.361193 
z
M 61.375153 441.361193 
L 66.983278 441.361193 
L 66.983278 443.020568 
L 63.175153 443.020568 
L 63.175153 444.374318 
Q 63.432028 444.303068 63.692653 444.265568 
Q 63.953278 444.226193 64.234528 444.226193 
Q 65.833903 444.226193 66.724528 445.026818 
Q 67.615153 445.827443 67.615153 447.256193 
Q 67.615153 448.673693 66.645778 449.478068 
Q 65.676403 450.280568 63.953278 450.280568 
Q 63.208903 450.280568 62.479528 450.136193 
Q 61.750153 449.991818 61.030153 449.699318 
L 61.030153 447.923693 
Q 61.744528 448.334318 62.385778 448.540568 
Q 63.027028 448.744943 63.597028 448.744943 
Q 64.416403 448.744943 64.887028 448.343693 
Q 65.359528 447.942443 65.359528 447.256193 
Q 65.359528 446.564318 64.887028 446.166818 
Q 64.416403 445.767443 63.597028 445.767443 
Q 63.109528 445.767443 62.558278 445.894943 
Q 62.008903 446.020568 61.375153 446.283068 
L 61.375153 441.361193 
z
M 69.724762 441.361193 
L 75.332887 441.361193 
L 75.332887 443.020568 
L 71.524762 443.020568 
L 71.524762 444.374318 
Q 71.781637 444.303068 72.042262 444.265568 
Q 72.302887 444.226193 72.584137 444.226193 
Q 74.183512 444.226193 75.074137 445.026818 
Q 75.964762 445.827443 75.964762 447.256193 
Q 75.964762 448.673693 74.995387 449.478068 
Q 74.026012 450.280568 72.302887 450.280568 
Q 71.558512 450.280568 70.829137 450.136193 
Q 70.099762 449.991818 69.379762 449.699318 
L 69.379762 447.923693 
Q 70.094137 448.334318 70.735387 448.540568 
Q 71.376637 448.744943 71.946637 448.744943 
Q 72.766012 448.744943 73.236637 448.343693 
Q 73.709137 447.942443 73.709137 447.256193 
Q 73.709137 446.564318 73.236637 446.166818 
Q 72.766012 445.767443 71.946637 445.767443 
Q 71.459137 445.767443 70.907887 445.894943 
Q 70.358512 446.020568 69.724762 446.283068 
L 69.724762 441.361193 
z
M 81.145622 445.791818 
Q 80.553122 445.791818 80.256872 446.176193 
Q 79.960622 446.558693 79.960622 447.327443 
Q 79.960622 448.094318 80.256872 448.478693 
Q 80.553122 448.861193 81.145622 448.861193 
Q 81.741872 448.861193 82.038122 448.478693 
Q 82.334372 448.094318 82.334372 447.327443 
Q 82.334372 446.558693 82.038122 446.176193 
Q 81.741872 445.791818 81.145622 445.791818 
z
M 83.933747 441.589943 
L 83.933747 443.208068 
Q 83.376872 442.943693 82.883747 442.818068 
Q 82.392497 442.692443 81.923747 442.692443 
Q 80.916872 442.692443 80.354372 443.253068 
Q 79.791872 443.811818 79.698122 444.912443 
Q 80.084372 444.625568 80.534372 444.483068 
Q 80.986247 444.338693 81.520622 444.338693 
Q 82.861247 444.338693 83.684372 445.124318 
Q 84.507497 445.908068 84.507497 447.179318 
Q 84.507497 448.585568 83.586872 449.433068 
Q 82.668122 450.280568 81.121247 450.280568 
Q 79.416872 450.280568 78.481247 449.129318 
Q 77.547497 447.976193 77.547497 445.861193 
Q 77.547497 443.693693 78.640622 442.454318 
Q 79.733747 441.214943 81.636872 441.214943 
Q 82.240622 441.214943 82.808747 441.308693 
Q 83.376872 441.402443 83.933747 441.589943 
z
M 90.672731 445.726193 
Q 90.672731 444.085568 90.365231 443.416193 
Q 90.057731 442.744943 89.330231 442.744943 
Q 88.604606 442.744943 88.293356 443.416193 
Q 87.982106 444.085568 87.982106 445.726193 
Q 87.982106 447.385568 88.293356 448.066193 
Q 88.604606 448.744943 89.330231 448.744943 
Q 90.052106 448.744943 90.361481 448.066193 
Q 90.672731 447.385568 90.672731 445.726193 
z
M 92.928356 445.744943 
Q 92.928356 447.918068 91.990856 449.099318 
Q 91.053356 450.280568 89.330231 450.280568 
Q 87.601481 450.280568 86.663981 449.099318 
Q 85.726481 447.918068 85.726481 445.744943 
Q 85.726481 443.564318 86.663981 442.384943 
Q 87.601481 441.203693 89.330231 441.203693 
Q 91.053356 441.203693 91.990856 442.384943 
Q 92.928356 443.564318 92.928356 445.744943 
z
" style="stroke: #ffffff"/>
    <path d="M 53.025544 441.361193 
L 58.633669 441.361193 
L 58.633669 443.020568 
L 54.825544 443.020568 
L 54.825544 444.374318 
Q 55.082419 444.303068 55.343044 444.265568 
Q 55.603669 444.226193 55.884919 444.226193 
Q 57.484294 444.226193 58.374919 445.026818 
Q 59.265544 445.827443 59.265544 447.256193 
Q 59.265544 448.673693 58.296169 449.478068 
Q 57.326794 450.280568 55.603669 450.280568 
Q 54.859294 450.280568 54.129919 450.136193 
Q 53.400544 449.991818 52.680544 449.699318 
L 52.680544 447.923693 
Q 53.394919 448.334318 54.036169 448.540568 
Q 54.677419 448.744943 55.247419 448.744943 
Q 56.066794 448.744943 56.537419 448.343693 
Q 57.009919 447.942443 57.009919 447.256193 
Q 57.009919 446.564318 56.537419 446.166818 
Q 56.066794 445.767443 55.247419 445.767443 
Q 54.759919 445.767443 54.208669 445.894943 
Q 53.659294 446.020568 53.025544 446.283068 
L 53.025544 441.361193 
z
M 61.375153 441.361193 
L 66.983278 441.361193 
L 66.983278 443.020568 
L 63.175153 443.020568 
L 63.175153 444.374318 
Q 63.432028 444.303068 63.692653 444.265568 
Q 63.953278 444.226193 64.234528 444.226193 
Q 65.833903 444.226193 66.724528 445.026818 
Q 67.615153 445.827443 67.615153 447.256193 
Q 67.615153 448.673693 66.645778 449.478068 
Q 65.676403 450.280568 63.953278 450.280568 
Q 63.208903 450.280568 62.479528 450.136193 
Q 61.750153 449.991818 61.030153 449.699318 
L 61.030153 447.923693 
Q 61.744528 448.334318 62.385778 448.540568 
Q 63.027028 448.744943 63.597028 448.744943 
Q 64.416403 448.744943 64.887028 448.343693 
Q 65.359528 447.942443 65.359528 447.256193 
Q 65.359528 446.564318 64.887028 446.166818 
Q 64.416403 445.767443 63.597028 445.767443 
Q 63.109528 445.767443 62.558278 445.894943 
Q 62.008903 446.020568 61.375153 446.283068 
L 61.375153 441.361193 
z
M 69.724762 441.361193 
L 75.332887 441.361193 
L 75.332887 443.020568 
L 71.524762 443.020568 
L 71.524762 444.374318 
Q 71.781637 444.303068 72.042262 444.265568 
Q 72.302887 444.226193 72.584137 444.226193 
Q 74.183512 444.226193 75.074137 445.026818 
Q 75.964762 445.827443 75.964762 447.256193 
Q 75.964762 448.673693 74.995387 449.478068 
Q 74.026012 450.280568 72.302887 450.280568 
Q 71.558512 450.280568 70.829137 450.136193 
Q 70.099762 449.991818 69.379762 449.699318 
L 69.379762 447.923693 
Q 70.094137 448.334318 70.735387 448.540568 
Q 71.376637 448.744943 71.946637 448.744943 
Q 72.766012 448.744943 73.236637 448.343693 
Q 73.709137 447.942443 73.709137 447.256193 
Q 73.709137 446.564318 73.236637 446.166818 
Q 72.766012 445.767443 71.946637 445.767443 
Q 71.459137 445.767443 70.907887 445.894943 
Q 70.358512 446.020568 69.724762 446.283068 
L 69.724762 441.361193 
z
M 81.145622 445.791818 
Q 80.553122 445.791818 80.256872 446.176193 
Q 79.960622 446.558693 79.960622 447.327443 
Q 79.960622 448.094318 80.256872 448.478693 
Q 80.553122 448.861193 81.145622 448.861193 
Q 81.741872 448.861193 82.038122 448.478693 
Q 82.334372 448.094318 82.334372 447.327443 
Q 82.334372 446.558693 82.038122 446.176193 
Q 81.741872 445.791818 81.145622 445.791818 
z
M 83.933747 441.589943 
L 83.933747 443.208068 
Q 83.376872 442.943693 82.883747 442.818068 
Q 82.392497 442.692443 81.923747 442.692443 
Q 80.916872 442.692443 80.354372 443.253068 
Q 79.791872 443.811818 79.698122 444.912443 
Q 80.084372 444.625568 80.534372 444.483068 
Q 80.986247 444.338693 81.520622 444.338693 
Q 82.861247 444.338693 83.684372 445.124318 
Q 84.507497 445.908068 84.507497 447.179318 
Q 84.507497 448.585568 83.586872 449.433068 
Q 82.668122 450.280568 81.121247 450.280568 
Q 79.416872 450.280568 78.481247 449.129318 
Q 77.547497 447.976193 77.547497 445.861193 
Q 77.547497 443.693693 78.640622 442.454318 
Q 79.733747 441.214943 81.636872 441.214943 
Q 82.240622 441.214943 82.808747 441.308693 
Q 83.376872 441.402443 83.933747 441.589943 
z
M 90.672731 445.726193 
Q 90.672731 444.085568 90.365231 443.416193 
Q 90.057731 442.744943 89.330231 442.744943 
Q 88.604606 442.744943 88.293356 443.416193 
Q 87.982106 444.085568 87.982106 445.726193 
Q 87.982106 447.385568 88.293356 448.066193 
Q 88.604606 448.744943 89.330231 448.744943 
Q 90.052106 448.744943 90.361481 448.066193 
Q 90.672731 447.385568 90.672731 445.726193 
z
M 92.928356 445.744943 
Q 92.928356 447.918068 91.990856 449.099318 
Q 91.053356 450.280568 89.330231 450.280568 
Q 87.601481 450.280568 86.663981 449.099318 
Q 85.726481 447.918068 85.726481 445.744943 
Q 85.726481 443.564318 86.663981 442.384943 
Q 87.601481 441.203693 89.330231 441.203693 
Q 91.053356 441.203693 91.990856 442.384943 
Q 92.928356 443.564318 92.928356 445.744943 
z
"/>
   </g>
   <g id="text_5">
    <path d="M 53.025544 416.652102 
L 58.633669 416.652102 
L 58.633669 418.311477 
L 54.825544 418.311477 
L 54.825544 419.665227 
Q 55.082419 419.593977 55.343044 419.556477 
Q 55.603669 419.517102 55.884919 419.517102 
Q 57.484294 419.517102 58.374919 420.317727 
Q 59.265544 421.118352 59.265544 422.547102 
Q 59.265544 423.964602 58.296169 424.768977 
Q 57.326794 425.571477 55.603669 425.571477 
Q 54.859294 425.571477 54.129919 425.427102 
Q 53.400544 425.282727 52.680544 424.990227 
L 52.680544 423.214602 
Q 53.394919 423.625227 54.036169 423.831477 
Q 54.677419 424.035852 55.247419 424.035852 
Q 56.066794 424.035852 56.537419 423.634602 
Q 57.009919 423.233352 57.009919 422.547102 
Q 57.009919 421.855227 56.537419 421.457727 
Q 56.066794 421.058352 55.247419 421.058352 
Q 54.759919 421.058352 54.208669 421.185852 
Q 53.659294 421.311477 53.025544 421.573977 
L 53.025544 416.652102 
z
M 64.281403 421.485852 
Q 63.649528 421.485852 63.308278 421.832727 
Q 62.968903 422.177727 62.968903 422.822727 
Q 62.968903 423.467727 63.308278 423.810852 
Q 63.649528 424.152102 64.281403 424.152102 
Q 64.909528 424.152102 65.243278 423.810852 
Q 65.577028 423.467727 65.577028 422.822727 
Q 65.577028 422.172102 65.243278 421.828977 
Q 64.909528 421.485852 64.281403 421.485852 
z
M 62.635153 420.743352 
Q 61.838278 420.501477 61.433278 420.004602 
Q 61.030153 419.505852 61.030153 418.761477 
Q 61.030153 417.655227 61.855153 417.075852 
Q 62.682028 416.494602 64.281403 416.494602 
Q 65.869528 416.494602 66.694528 417.072102 
Q 67.521403 417.649602 67.521403 418.761477 
Q 67.521403 419.505852 67.114528 420.004602 
Q 66.707653 420.501477 65.910778 420.743352 
Q 66.801403 420.988977 67.255153 421.542102 
Q 67.708903 422.095227 67.708903 422.938977 
Q 67.708903 424.240227 66.844528 424.905852 
Q 65.980153 425.571477 64.281403 425.571477 
Q 62.577028 425.571477 61.707028 424.905852 
Q 60.837028 424.240227 60.837028 422.938977 
Q 60.837028 422.095227 61.290778 421.542102 
Q 61.744528 420.988977 62.635153 420.743352 
z
M 63.162028 418.990227 
Q 63.162028 419.511477 63.452653 419.792727 
Q 63.743278 420.073977 64.281403 420.073977 
Q 64.808278 420.073977 65.095153 419.792727 
Q 65.383903 419.511477 65.383903 418.990227 
Q 65.383903 418.468977 65.095153 418.191477 
Q 64.808278 417.912102 64.281403 417.912102 
Q 63.743278 417.912102 63.452653 418.193352 
Q 63.162028 418.474602 63.162028 418.990227 
z
M 69.859762 423.842727 
L 71.852887 423.842727 
L 71.852887 418.187727 
L 69.807262 418.609602 
L 69.807262 417.073977 
L 71.839762 416.652102 
L 73.984762 416.652102 
L 73.984762 423.842727 
L 75.977887 423.842727 
L 75.977887 425.400852 
L 69.859762 425.400852 
L 69.859762 423.842727 
z
M 80.980622 421.485852 
Q 80.348747 421.485852 80.007497 421.832727 
Q 79.668122 422.177727 79.668122 422.822727 
Q 79.668122 423.467727 80.007497 423.810852 
Q 80.348747 424.152102 80.980622 424.152102 
Q 81.608747 424.152102 81.942497 423.810852 
Q 82.276247 423.467727 82.276247 422.822727 
Q 82.276247 422.172102 81.942497 421.828977 
Q 81.608747 421.485852 80.980622 421.485852 
z
M 79.334372 420.743352 
Q 78.537497 420.501477 78.132497 420.004602 
Q 77.729372 419.505852 77.729372 418.761477 
Q 77.729372 417.655227 78.554372 417.075852 
Q 79.381247 416.494602 80.980622 416.494602 
Q 82.568747 416.494602 83.393747 417.072102 
Q 84.220622 417.649602 84.220622 418.761477 
Q 84.220622 419.505852 83.813747 420.004602 
Q 83.406872 420.501477 82.609997 420.743352 
Q 83.500622 420.988977 83.954372 421.542102 
Q 84.408122 422.095227 84.408122 422.938977 
Q 84.408122 424.240227 83.543747 424.905852 
Q 82.679372 425.571477 80.980622 425.571477 
Q 79.276247 425.571477 78.406247 424.905852 
Q 77.536247 424.240227 77.536247 422.938977 
Q 77.536247 422.095227 77.989997 421.542102 
Q 78.443747 420.988977 79.334372 420.743352 
z
M 79.861247 418.990227 
Q 79.861247 419.511477 80.151872 419.792727 
Q 80.442497 420.073977 80.980622 420.073977 
Q 81.507497 420.073977 81.794372 419.792727 
Q 82.083122 419.511477 82.083122 418.990227 
Q 82.083122 418.468977 81.794372 418.191477 
Q 81.507497 417.912102 80.980622 417.912102 
Q 80.442497 417.912102 80.151872 418.193352 
Q 79.861247 418.474602 79.861247 418.990227 
z
M 89.495231 421.082727 
Q 88.902731 421.082727 88.606481 421.467102 
Q 88.310231 421.849602 88.310231 422.618352 
Q 88.310231 423.385227 88.606481 423.769602 
Q 88.902731 424.152102 89.495231 424.152102 
Q 90.091481 424.152102 90.387731 423.769602 
Q 90.683981 423.385227 90.683981 422.618352 
Q 90.683981 421.849602 90.387731 421.467102 
Q 90.091481 421.082727 89.495231 421.082727 
z
M 92.283356 416.880852 
L 92.283356 418.498977 
Q 91.726481 418.234602 91.233356 418.108977 
Q 90.742106 417.983352 90.273356 417.983352 
Q 89.266481 417.983352 88.703981 418.543977 
Q 88.141481 419.102727 88.047731 420.203352 
Q 88.433981 419.916477 88.883981 419.773977 
Q 89.335856 419.629602 89.870231 419.629602 
Q 91.210856 419.629602 92.033981 420.415227 
Q 92.857106 421.198977 92.857106 422.470227 
Q 92.857106 423.876477 91.936481 424.723977 
Q 91.017731 425.571477 89.470856 425.571477 
Q 87.766481 425.571477 86.830856 424.420227 
Q 85.897106 423.267102 85.897106 421.152102 
Q 85.897106 418.984602 86.990231 417.745227 
Q 88.083356 416.505852 89.986481 416.505852 
Q 90.590231 416.505852 91.158356 416.599602 
Q 91.726481 416.693352 92.283356 416.880852 
z
" style="stroke: #ffffff"/>
    <path d="M 53.025544 416.652102 
L 58.633669 416.652102 
L 58.633669 418.311477 
L 54.825544 418.311477 
L 54.825544 419.665227 
Q 55.082419 419.593977 55.343044 419.556477 
Q 55.603669 419.517102 55.884919 419.517102 
Q 57.484294 419.517102 58.374919 420.317727 
Q 59.265544 421.118352 59.265544 422.547102 
Q 59.265544 423.964602 58.296169 424.768977 
Q 57.326794 425.571477 55.603669 425.571477 
Q 54.859294 425.571477 54.129919 425.427102 
Q 53.400544 425.282727 52.680544 424.990227 
L 52.680544 423.214602 
Q 53.394919 423.625227 54.036169 423.831477 
Q 54.677419 424.035852 55.247419 424.035852 
Q 56.066794 424.035852 56.537419 423.634602 
Q 57.009919 423.233352 57.009919 422.547102 
Q 57.009919 421.855227 56.537419 421.457727 
Q 56.066794 421.058352 55.247419 421.058352 
Q 54.759919 421.058352 54.208669 421.185852 
Q 53.659294 421.311477 53.025544 421.573977 
L 53.025544 416.652102 
z
M 64.281403 421.485852 
Q 63.649528 421.485852 63.308278 421.832727 
Q 62.968903 422.177727 62.968903 422.822727 
Q 62.968903 423.467727 63.308278 423.810852 
Q 63.649528 424.152102 64.281403 424.152102 
Q 64.909528 424.152102 65.243278 423.810852 
Q 65.577028 423.467727 65.577028 422.822727 
Q 65.577028 422.172102 65.243278 421.828977 
Q 64.909528 421.485852 64.281403 421.485852 
z
M 62.635153 420.743352 
Q 61.838278 420.501477 61.433278 420.004602 
Q 61.030153 419.505852 61.030153 418.761477 
Q 61.030153 417.655227 61.855153 417.075852 
Q 62.682028 416.494602 64.281403 416.494602 
Q 65.869528 416.494602 66.694528 417.072102 
Q 67.521403 417.649602 67.521403 418.761477 
Q 67.521403 419.505852 67.114528 420.004602 
Q 66.707653 420.501477 65.910778 420.743352 
Q 66.801403 420.988977 67.255153 421.542102 
Q 67.708903 422.095227 67.708903 422.938977 
Q 67.708903 424.240227 66.844528 424.905852 
Q 65.980153 425.571477 64.281403 425.571477 
Q 62.577028 425.571477 61.707028 424.905852 
Q 60.837028 424.240227 60.837028 422.938977 
Q 60.837028 422.095227 61.290778 421.542102 
Q 61.744528 420.988977 62.635153 420.743352 
z
M 63.162028 418.990227 
Q 63.162028 419.511477 63.452653 419.792727 
Q 63.743278 420.073977 64.281403 420.073977 
Q 64.808278 420.073977 65.095153 419.792727 
Q 65.383903 419.511477 65.383903 418.990227 
Q 65.383903 418.468977 65.095153 418.191477 
Q 64.808278 417.912102 64.281403 417.912102 
Q 63.743278 417.912102 63.452653 418.193352 
Q 63.162028 418.474602 63.162028 418.990227 
z
M 69.859762 423.842727 
L 71.852887 423.842727 
L 71.852887 418.187727 
L 69.807262 418.609602 
L 69.807262 417.073977 
L 71.839762 416.652102 
L 73.984762 416.652102 
L 73.984762 423.842727 
L 75.977887 423.842727 
L 75.977887 425.400852 
L 69.859762 425.400852 
L 69.859762 423.842727 
z
M 80.980622 421.485852 
Q 80.348747 421.485852 80.007497 421.832727 
Q 79.668122 422.177727 79.668122 422.822727 
Q 79.668122 423.467727 80.007497 423.810852 
Q 80.348747 424.152102 80.980622 424.152102 
Q 81.608747 424.152102 81.942497 423.810852 
Q 82.276247 423.467727 82.276247 422.822727 
Q 82.276247 422.172102 81.942497 421.828977 
Q 81.608747 421.485852 80.980622 421.485852 
z
M 79.334372 420.743352 
Q 78.537497 420.501477 78.132497 420.004602 
Q 77.729372 419.505852 77.729372 418.761477 
Q 77.729372 417.655227 78.554372 417.075852 
Q 79.381247 416.494602 80.980622 416.494602 
Q 82.568747 416.494602 83.393747 417.072102 
Q 84.220622 417.649602 84.220622 418.761477 
Q 84.220622 419.505852 83.813747 420.004602 
Q 83.406872 420.501477 82.609997 420.743352 
Q 83.500622 420.988977 83.954372 421.542102 
Q 84.408122 422.095227 84.408122 422.938977 
Q 84.408122 424.240227 83.543747 424.905852 
Q 82.679372 425.571477 80.980622 425.571477 
Q 79.276247 425.571477 78.406247 424.905852 
Q 77.536247 424.240227 77.536247 422.938977 
Q 77.536247 422.095227 77.989997 421.542102 
Q 78.443747 420.988977 79.334372 420.743352 
z
M 79.861247 418.990227 
Q 79.861247 419.511477 80.151872 419.792727 
Q 80.442497 420.073977 80.980622 420.073977 
Q 81.507497 420.073977 81.794372 419.792727 
Q 82.083122 419.511477 82.083122 418.990227 
Q 82.083122 418.468977 81.794372 418.191477 
Q 81.507497 417.912102 80.980622 417.912102 
Q 80.442497 417.912102 80.151872 418.193352 
Q 79.861247 418.474602 79.861247 418.990227 
z
M 89.495231 421.082727 
Q 88.902731 421.082727 88.606481 421.467102 
Q 88.310231 421.849602 88.310231 422.618352 
Q 88.310231 423.385227 88.606481 423.769602 
Q 88.902731 424.152102 89.495231 424.152102 
Q 90.091481 424.152102 90.387731 423.769602 
Q 90.683981 423.385227 90.683981 422.618352 
Q 90.683981 421.849602 90.387731 421.467102 
Q 90.091481 421.082727 89.495231 421.082727 
z
M 92.283356 416.880852 
L 92.283356 418.498977 
Q 91.726481 418.234602 91.233356 418.108977 
Q 90.742106 417.983352 90.273356 417.983352 
Q 89.266481 417.983352 88.703981 418.543977 
Q 88.141481 419.102727 88.047731 420.203352 
Q 88.433981 419.916477 88.883981 419.773977 
Q 89.335856 419.629602 89.870231 419.629602 
Q 91.210856 419.629602 92.033981 420.415227 
Q 92.857106 421.198977 92.857106 422.470227 
Q 92.857106 423.876477 91.936481 424.723977 
Q 91.017731 425.571477 89.470856 425.571477 
Q 87.766481 425.571477 86.830856 424.420227 
Q 85.897106 423.267102 85.897106 421.152102 
Q 85.897106 418.984602 86.990231 417.745227 
Q 88.083356 416.505852 89.986481 416.505852 
Q 90.590231 416.505852 91.158356 416.599602 
Q 91.726481 416.693352 92.283356 416.880852 
z
"/>
   </g>
   <g id="text_6">
    <path d="M 56.096794 396.373636 
Q 55.504294 396.373636 55.208044 396.758011 
Q 54.911794 397.140511 54.911794 397.909261 
Q 54.911794 398.676136 55.208044 399.060511 
Q 55.504294 399.443011 56.096794 399.443011 
Q 56.693044 399.443011 56.989294 399.060511 
Q 57.285544 398.676136 57.285544 397.909261 
Q 57.285544 397.140511 56.989294 396.758011 
Q 56.693044 396.373636 56.096794 396.373636 
z
M 58.884919 392.171761 
L 58.884919 393.789886 
Q 58.328044 393.525511 57.834919 393.399886 
Q 57.343669 393.274261 56.874919 393.274261 
Q 55.868044 393.274261 55.305544 393.834886 
Q 54.743044 394.393636 54.649294 395.494261 
Q 55.035544 395.207386 55.485544 395.064886 
Q 55.937419 394.920511 56.471794 394.920511 
Q 57.812419 394.920511 58.635544 395.706136 
Q 59.458669 396.489886 59.458669 397.761136 
Q 59.458669 399.167386 58.538044 400.014886 
Q 57.619294 400.862386 56.072419 400.862386 
Q 54.368044 400.862386 53.432419 399.711136 
Q 52.498669 398.558011 52.498669 396.443011 
Q 52.498669 394.275511 53.591794 393.036136 
Q 54.684919 391.796761 56.588044 391.796761 
Q 57.191794 391.796761 57.759919 391.890511 
Q 58.328044 391.984261 58.884919 392.171761 
z
M 61.510153 399.133636 
L 63.503278 399.133636 
L 63.503278 393.478636 
L 61.457653 393.900511 
L 61.457653 392.364886 
L 63.490153 391.943011 
L 65.635153 391.943011 
L 65.635153 399.133636 
L 67.628278 399.133636 
L 67.628278 400.691761 
L 61.510153 400.691761 
L 61.510153 399.133636 
z
M 72.871012 393.801136 
L 70.399762 397.463011 
L 72.871012 397.463011 
L 72.871012 393.801136 
z
M 72.496012 391.943011 
L 75.004762 391.943011 
L 75.004762 397.463011 
L 76.251637 397.463011 
L 76.251637 399.098011 
L 75.004762 399.098011 
L 75.004762 400.691761 
L 72.871012 400.691761 
L 72.871012 399.098011 
L 68.993512 399.098011 
L 68.993512 397.164886 
L 72.496012 391.943011 
z
M 82.392497 395.974261 
Q 83.277497 396.203011 83.736872 396.769261 
Q 84.198122 397.333636 84.198122 398.207386 
Q 84.198122 399.508636 83.200622 400.185511 
Q 82.204997 400.862386 80.296247 400.862386 
Q 79.621247 400.862386 78.944372 400.753636 
Q 78.267497 400.644886 77.605622 400.427386 
L 77.605622 398.687386 
Q 78.239372 399.004261 78.861872 399.165511 
Q 79.486247 399.326761 80.089997 399.326761 
Q 80.986247 399.326761 81.464372 399.017386 
Q 81.942497 398.706136 81.942497 398.124886 
Q 81.942497 397.526761 81.453122 397.219261 
Q 80.963747 396.911761 80.007497 396.911761 
L 79.105622 396.911761 
L 79.105622 395.458636 
L 80.054372 395.458636 
Q 80.905622 395.458636 81.319997 395.192386 
Q 81.736247 394.926136 81.736247 394.380511 
Q 81.736247 393.878011 81.331247 393.602386 
Q 80.928122 393.326761 80.189372 393.326761 
Q 79.645622 393.326761 79.088747 393.450511 
Q 78.531872 393.572386 77.980622 393.812386 
L 77.980622 392.160511 
Q 78.648122 391.973011 79.304372 391.879261 
Q 79.960622 391.785511 80.594372 391.785511 
Q 82.298747 391.785511 83.144372 392.346136 
Q 83.991872 392.904886 83.991872 394.029886 
Q 83.991872 394.796761 83.586872 395.286136 
Q 83.183747 395.775511 82.392497 395.974261 
z
M 86.354606 400.498636 
L 86.354606 398.880511 
Q 86.892731 399.133636 87.383981 399.259261 
Q 87.877106 399.384886 88.357106 399.384886 
Q 89.365856 399.384886 89.928356 398.826136 
Q 90.490856 398.265511 90.590231 397.164886 
Q 90.192731 397.457386 89.740856 397.603636 
Q 89.288981 397.749886 88.762106 397.749886 
Q 87.419606 397.749886 86.596481 396.968011 
Q 85.773356 396.186136 85.773356 394.909261 
Q 85.773356 393.495511 86.690231 392.646136 
Q 87.607106 391.796761 89.148356 391.796761 
Q 90.860231 391.796761 91.797731 392.951761 
Q 92.735231 394.104886 92.735231 396.214261 
Q 92.735231 398.383636 91.638356 399.623011 
Q 90.543356 400.862386 88.632731 400.862386 
Q 88.017731 400.862386 87.455231 400.770511 
Q 86.892731 400.680511 86.354606 400.498636 
z
M 89.137106 396.285511 
Q 89.729606 396.285511 90.027731 395.903011 
Q 90.325856 395.518636 90.325856 394.749886 
Q 90.325856 393.988636 90.027731 393.602386 
Q 89.729606 393.214261 89.137106 393.214261 
Q 88.544606 393.214261 88.246481 393.602386 
Q 87.948356 393.988636 87.948356 394.749886 
Q 87.948356 395.518636 88.246481 395.903011 
Q 88.544606 396.285511 89.137106 396.285511 
z
" style="stroke: #ffffff"/>
    <path d="M 56.096794 396.373636 
Q 55.504294 396.373636 55.208044 396.758011 
Q 54.911794 397.140511 54.911794 397.909261 
Q 54.911794 398.676136 55.208044 399.060511 
Q 55.504294 399.443011 56.096794 399.443011 
Q 56.693044 399.443011 56.989294 399.060511 
Q 57.285544 398.676136 57.285544 397.909261 
Q 57.285544 397.140511 56.989294 396.758011 
Q 56.693044 396.373636 56.096794 396.373636 
z
M 58.884919 392.171761 
L 58.884919 393.789886 
Q 58.328044 393.525511 57.834919 393.399886 
Q 57.343669 393.274261 56.874919 393.274261 
Q 55.868044 393.274261 55.305544 393.834886 
Q 54.743044 394.393636 54.649294 395.494261 
Q 55.035544 395.207386 55.485544 395.064886 
Q 55.937419 394.920511 56.471794 394.920511 
Q 57.812419 394.920511 58.635544 395.706136 
Q 59.458669 396.489886 59.458669 397.761136 
Q 59.458669 399.167386 58.538044 400.014886 
Q 57.619294 400.862386 56.072419 400.862386 
Q 54.368044 400.862386 53.432419 399.711136 
Q 52.498669 398.558011 52.498669 396.443011 
Q 52.498669 394.275511 53.591794 393.036136 
Q 54.684919 391.796761 56.588044 391.796761 
Q 57.191794 391.796761 57.759919 391.890511 
Q 58.328044 391.984261 58.884919 392.171761 
z
M 61.510153 399.133636 
L 63.503278 399.133636 
L 63.503278 393.478636 
L 61.457653 393.900511 
L 61.457653 392.364886 
L 63.490153 391.943011 
L 65.635153 391.943011 
L 65.635153 399.133636 
L 67.628278 399.133636 
L 67.628278 400.691761 
L 61.510153 400.691761 
L 61.510153 399.133636 
z
M 72.871012 393.801136 
L 70.399762 397.463011 
L 72.871012 397.463011 
L 72.871012 393.801136 
z
M 72.496012 391.943011 
L 75.004762 391.943011 
L 75.004762 397.463011 
L 76.251637 397.463011 
L 76.251637 399.098011 
L 75.004762 399.098011 
L 75.004762 400.691761 
L 72.871012 400.691761 
L 72.871012 399.098011 
L 68.993512 399.098011 
L 68.993512 397.164886 
L 72.496012 391.943011 
z
M 82.392497 395.974261 
Q 83.277497 396.203011 83.736872 396.769261 
Q 84.198122 397.333636 84.198122 398.207386 
Q 84.198122 399.508636 83.200622 400.185511 
Q 82.204997 400.862386 80.296247 400.862386 
Q 79.621247 400.862386 78.944372 400.753636 
Q 78.267497 400.644886 77.605622 400.427386 
L 77.605622 398.687386 
Q 78.239372 399.004261 78.861872 399.165511 
Q 79.486247 399.326761 80.089997 399.326761 
Q 80.986247 399.326761 81.464372 399.017386 
Q 81.942497 398.706136 81.942497 398.124886 
Q 81.942497 397.526761 81.453122 397.219261 
Q 80.963747 396.911761 80.007497 396.911761 
L 79.105622 396.911761 
L 79.105622 395.458636 
L 80.054372 395.458636 
Q 80.905622 395.458636 81.319997 395.192386 
Q 81.736247 394.926136 81.736247 394.380511 
Q 81.736247 393.878011 81.331247 393.602386 
Q 80.928122 393.326761 80.189372 393.326761 
Q 79.645622 393.326761 79.088747 393.450511 
Q 78.531872 393.572386 77.980622 393.812386 
L 77.980622 392.160511 
Q 78.648122 391.973011 79.304372 391.879261 
Q 79.960622 391.785511 80.594372 391.785511 
Q 82.298747 391.785511 83.144372 392.346136 
Q 83.991872 392.904886 83.991872 394.029886 
Q 83.991872 394.796761 83.586872 395.286136 
Q 83.183747 395.775511 82.392497 395.974261 
z
M 86.354606 400.498636 
L 86.354606 398.880511 
Q 86.892731 399.133636 87.383981 399.259261 
Q 87.877106 399.384886 88.357106 399.384886 
Q 89.365856 399.384886 89.928356 398.826136 
Q 90.490856 398.265511 90.590231 397.164886 
Q 90.192731 397.457386 89.740856 397.603636 
Q 89.288981 397.749886 88.762106 397.749886 
Q 87.419606 397.749886 86.596481 396.968011 
Q 85.773356 396.186136 85.773356 394.909261 
Q 85.773356 393.495511 86.690231 392.646136 
Q 87.607106 391.796761 89.148356 391.796761 
Q 90.860231 391.796761 91.797731 392.951761 
Q 92.735231 394.104886 92.735231 396.214261 
Q 92.735231 398.383636 91.638356 399.623011 
Q 90.543356 400.862386 88.632731 400.862386 
Q 88.017731 400.862386 87.455231 400.770511 
Q 86.892731 400.680511 86.354606 400.498636 
z
M 89.137106 396.285511 
Q 89.729606 396.285511 90.027731 395.903011 
Q 90.325856 395.518636 90.325856 394.749886 
Q 90.325856 393.988636 90.027731 393.602386 
Q 89.729606 393.214261 89.137106 393.214261 
Q 88.544606 393.214261 88.246481 393.602386 
Q 87.948356 393.988636 87.948356 394.749886 
Q 87.948356 395.518636 88.246481 395.903011 
Q 88.544606 396.285511 89.137106 396.285511 
z
"/>
   </g>
   <g id="text_7">
    <path d="M 56.096794 371.664545 
Q 55.504294 371.664545 55.208044 372.04892 
Q 54.911794 372.43142 54.911794 373.20017 
Q 54.911794 373.967045 55.208044 374.35142 
Q 55.504294 374.73392 56.096794 374.73392 
Q 56.693044 374.73392 56.989294 374.35142 
Q 57.285544 373.967045 57.285544 373.20017 
Q 57.285544 372.43142 56.989294 372.04892 
Q 56.693044 371.664545 56.096794 371.664545 
z
M 58.884919 367.46267 
L 58.884919 369.080795 
Q 58.328044 368.81642 57.834919 368.690795 
Q 57.343669 368.56517 56.874919 368.56517 
Q 55.868044 368.56517 55.305544 369.125795 
Q 54.743044 369.684545 54.649294 370.78517 
Q 55.035544 370.498295 55.485544 370.355795 
Q 55.937419 370.21142 56.471794 370.21142 
Q 57.812419 370.21142 58.635544 370.997045 
Q 59.458669 371.780795 59.458669 373.052045 
Q 59.458669 374.458295 58.538044 375.305795 
Q 57.619294 376.153295 56.072419 376.153295 
Q 54.368044 376.153295 53.432419 375.002045 
Q 52.498669 373.84892 52.498669 371.73392 
Q 52.498669 369.56642 53.591794 368.327045 
Q 54.684919 367.08767 56.588044 367.08767 
Q 57.191794 367.08767 57.759919 367.18142 
Q 58.328044 367.27517 58.884919 367.46267 
z
M 64.521403 369.092045 
L 62.050153 372.75392 
L 64.521403 372.75392 
L 64.521403 369.092045 
z
M 64.146403 367.23392 
L 66.655153 367.23392 
L 66.655153 372.75392 
L 67.902028 372.75392 
L 67.902028 374.38892 
L 66.655153 374.38892 
L 66.655153 375.98267 
L 64.521403 375.98267 
L 64.521403 374.38892 
L 60.643903 374.38892 
L 60.643903 372.455795 
L 64.146403 367.23392 
z
M 71.911012 374.32517 
L 75.760387 374.32517 
L 75.760387 375.98267 
L 69.402262 375.98267 
L 69.402262 374.32517 
L 72.595387 371.50517 
Q 73.024762 371.11892 73.229137 370.749545 
Q 73.433512 370.38017 73.433512 369.98267 
Q 73.433512 369.36767 73.021012 368.99267 
Q 72.608512 368.61767 71.922262 368.61767 
Q 71.395387 368.61767 70.767262 368.84267 
Q 70.141012 369.06767 69.426637 369.51392 
L 69.426637 367.592045 
Q 70.187887 367.340795 70.932262 367.209545 
Q 71.676637 367.07642 72.391012 367.07642 
Q 73.962262 367.07642 74.832262 367.768295 
Q 75.702262 368.458295 75.702262 369.695795 
Q 75.702262 370.41017 75.332887 371.02892 
Q 74.963512 371.645795 73.780387 372.684545 
L 71.911012 374.32517 
z
M 81.145622 371.664545 
Q 80.553122 371.664545 80.256872 372.04892 
Q 79.960622 372.43142 79.960622 373.20017 
Q 79.960622 373.967045 80.256872 374.35142 
Q 80.553122 374.73392 81.145622 374.73392 
Q 81.741872 374.73392 82.038122 374.35142 
Q 82.334372 373.967045 82.334372 373.20017 
Q 82.334372 372.43142 82.038122 372.04892 
Q 81.741872 371.664545 81.145622 371.664545 
z
M 83.933747 367.46267 
L 83.933747 369.080795 
Q 83.376872 368.81642 82.883747 368.690795 
Q 82.392497 368.56517 81.923747 368.56517 
Q 80.916872 368.56517 80.354372 369.125795 
Q 79.791872 369.684545 79.698122 370.78517 
Q 80.084372 370.498295 80.534372 370.355795 
Q 80.986247 370.21142 81.520622 370.21142 
Q 82.861247 370.21142 83.684372 370.997045 
Q 84.507497 371.780795 84.507497 373.052045 
Q 84.507497 374.458295 83.586872 375.305795 
Q 82.668122 376.153295 81.121247 376.153295 
Q 79.416872 376.153295 78.481247 375.002045 
Q 77.547497 373.84892 77.547497 371.73392 
Q 77.547497 369.56642 78.640622 368.327045 
Q 79.733747 367.08767 81.636872 367.08767 
Q 82.240622 367.08767 82.808747 367.18142 
Q 83.376872 367.27517 83.933747 367.46267 
z
M 90.672731 371.59892 
Q 90.672731 369.958295 90.365231 369.28892 
Q 90.057731 368.61767 89.330231 368.61767 
Q 88.604606 368.61767 88.293356 369.28892 
Q 87.982106 369.958295 87.982106 371.59892 
Q 87.982106 373.258295 88.293356 373.93892 
Q 88.604606 374.61767 89.330231 374.61767 
Q 90.052106 374.61767 90.361481 373.93892 
Q 90.672731 373.258295 90.672731 371.59892 
z
M 92.928356 371.61767 
Q 92.928356 373.790795 91.990856 374.972045 
Q 91.053356 376.153295 89.330231 376.153295 
Q 87.601481 376.153295 86.663981 374.972045 
Q 85.726481 373.790795 85.726481 371.61767 
Q 85.726481 369.437045 86.663981 368.25767 
Q 87.601481 367.07642 89.330231 367.07642 
Q 91.053356 367.07642 91.990856 368.25767 
Q 92.928356 369.437045 92.928356 371.61767 
z
" style="stroke: #ffffff"/>
    <path d="M 56.096794 371.664545 
Q 55.504294 371.664545 55.208044 372.04892 
Q 54.911794 372.43142 54.911794 373.20017 
Q 54.911794 373.967045 55.208044 374.35142 
Q 55.504294 374.73392 56.096794 374.73392 
Q 56.693044 374.73392 56.989294 374.35142 
Q 57.285544 373.967045 57.285544 373.20017 
Q 57.285544 372.43142 56.989294 372.04892 
Q 56.693044 371.664545 56.096794 371.664545 
z
M 58.884919 367.46267 
L 58.884919 369.080795 
Q 58.328044 368.81642 57.834919 368.690795 
Q 57.343669 368.56517 56.874919 368.56517 
Q 55.868044 368.56517 55.305544 369.125795 
Q 54.743044 369.684545 54.649294 370.78517 
Q 55.035544 370.498295 55.485544 370.355795 
Q 55.937419 370.21142 56.471794 370.21142 
Q 57.812419 370.21142 58.635544 370.997045 
Q 59.458669 371.780795 59.458669 373.052045 
Q 59.458669 374.458295 58.538044 375.305795 
Q 57.619294 376.153295 56.072419 376.153295 
Q 54.368044 376.153295 53.432419 375.002045 
Q 52.498669 373.84892 52.498669 371.73392 
Q 52.498669 369.56642 53.591794 368.327045 
Q 54.684919 367.08767 56.588044 367.08767 
Q 57.191794 367.08767 57.759919 367.18142 
Q 58.328044 367.27517 58.884919 367.46267 
z
M 64.521403 369.092045 
L 62.050153 372.75392 
L 64.521403 372.75392 
L 64.521403 369.092045 
z
M 64.146403 367.23392 
L 66.655153 367.23392 
L 66.655153 372.75392 
L 67.902028 372.75392 
L 67.902028 374.38892 
L 66.655153 374.38892 
L 66.655153 375.98267 
L 64.521403 375.98267 
L 64.521403 374.38892 
L 60.643903 374.38892 
L 60.643903 372.455795 
L 64.146403 367.23392 
z
M 71.911012 374.32517 
L 75.760387 374.32517 
L 75.760387 375.98267 
L 69.402262 375.98267 
L 69.402262 374.32517 
L 72.595387 371.50517 
Q 73.024762 371.11892 73.229137 370.749545 
Q 73.433512 370.38017 73.433512 369.98267 
Q 73.433512 369.36767 73.021012 368.99267 
Q 72.608512 368.61767 71.922262 368.61767 
Q 71.395387 368.61767 70.767262 368.84267 
Q 70.141012 369.06767 69.426637 369.51392 
L 69.426637 367.592045 
Q 70.187887 367.340795 70.932262 367.209545 
Q 71.676637 367.07642 72.391012 367.07642 
Q 73.962262 367.07642 74.832262 367.768295 
Q 75.702262 368.458295 75.702262 369.695795 
Q 75.702262 370.41017 75.332887 371.02892 
Q 74.963512 371.645795 73.780387 372.684545 
L 71.911012 374.32517 
z
M 81.145622 371.664545 
Q 80.553122 371.664545 80.256872 372.04892 
Q 79.960622 372.43142 79.960622 373.20017 
Q 79.960622 373.967045 80.256872 374.35142 
Q 80.553122 374.73392 81.145622 374.73392 
Q 81.741872 374.73392 82.038122 374.35142 
Q 82.334372 373.967045 82.334372 373.20017 
Q 82.334372 372.43142 82.038122 372.04892 
Q 81.741872 371.664545 81.145622 371.664545 
z
M 83.933747 367.46267 
L 83.933747 369.080795 
Q 83.376872 368.81642 82.883747 368.690795 
Q 82.392497 368.56517 81.923747 368.56517 
Q 80.916872 368.56517 80.354372 369.125795 
Q 79.791872 369.684545 79.698122 370.78517 
Q 80.084372 370.498295 80.534372 370.355795 
Q 80.986247 370.21142 81.520622 370.21142 
Q 82.861247 370.21142 83.684372 370.997045 
Q 84.507497 371.780795 84.507497 373.052045 
Q 84.507497 374.458295 83.586872 375.305795 
Q 82.668122 376.153295 81.121247 376.153295 
Q 79.416872 376.153295 78.481247 375.002045 
Q 77.547497 373.84892 77.547497 371.73392 
Q 77.547497 369.56642 78.640622 368.327045 
Q 79.733747 367.08767 81.636872 367.08767 
Q 82.240622 367.08767 82.808747 367.18142 
Q 83.376872 367.27517 83.933747 367.46267 
z
M 90.672731 371.59892 
Q 90.672731 369.958295 90.365231 369.28892 
Q 90.057731 368.61767 89.330231 368.61767 
Q 88.604606 368.61767 88.293356 369.28892 
Q 87.982106 369.958295 87.982106 371.59892 
Q 87.982106 373.258295 88.293356 373.93892 
Q 88.604606 374.61767 89.330231 374.61767 
Q 90.052106 374.61767 90.361481 373.93892 
Q 90.672731 373.258295 90.672731 371.59892 
z
M 92.928356 371.61767 
Q 92.928356 373.790795 91.990856 374.972045 
Q 91.053356 376.153295 89.330231 376.153295 
Q 87.601481 376.153295 86.663981 374.972045 
Q 85.726481 373.790795 85.726481 371.61767 
Q 85.726481 369.437045 86.663981 368.25767 
Q 87.601481 367.07642 89.330231 367.07642 
Q 91.053356 367.07642 91.990856 368.25767 
Q 92.928356 369.437045 92.928356 371.61767 
z
"/>
   </g>
   <g id="text_8">
    <path d="M 52.556794 342.52483 
L 59.149294 342.52483 
L 59.149294 343.79608 
L 55.738669 351.27358 
L 53.541169 351.27358 
L 56.769919 344.184205 
L 52.556794 344.184205 
L 52.556794 342.52483 
z
M 61.510153 349.715455 
L 63.503278 349.715455 
L 63.503278 344.060455 
L 61.457653 344.48233 
L 61.457653 342.946705 
L 63.490153 342.52483 
L 65.635153 342.52483 
L 65.635153 349.715455 
L 67.628278 349.715455 
L 67.628278 351.27358 
L 61.510153 351.27358 
L 61.510153 349.715455 
z
M 72.871012 344.382955 
L 70.399762 348.04483 
L 72.871012 348.04483 
L 72.871012 344.382955 
z
M 72.496012 342.52483 
L 75.004762 342.52483 
L 75.004762 348.04483 
L 76.251637 348.04483 
L 76.251637 349.67983 
L 75.004762 349.67983 
L 75.004762 351.27358 
L 72.871012 351.27358 
L 72.871012 349.67983 
L 68.993512 349.67983 
L 68.993512 347.746705 
L 72.496012 342.52483 
z
M 81.145622 346.955455 
Q 80.553122 346.955455 80.256872 347.33983 
Q 79.960622 347.72233 79.960622 348.49108 
Q 79.960622 349.257955 80.256872 349.64233 
Q 80.553122 350.02483 81.145622 350.02483 
Q 81.741872 350.02483 82.038122 349.64233 
Q 82.334372 349.257955 82.334372 348.49108 
Q 82.334372 347.72233 82.038122 347.33983 
Q 81.741872 346.955455 81.145622 346.955455 
z
M 83.933747 342.75358 
L 83.933747 344.371705 
Q 83.376872 344.10733 82.883747 343.981705 
Q 82.392497 343.85608 81.923747 343.85608 
Q 80.916872 343.85608 80.354372 344.416705 
Q 79.791872 344.975455 79.698122 346.07608 
Q 80.084372 345.789205 80.534372 345.646705 
Q 80.986247 345.50233 81.520622 345.50233 
Q 82.861247 345.50233 83.684372 346.287955 
Q 84.507497 347.071705 84.507497 348.342955 
Q 84.507497 349.749205 83.586872 350.596705 
Q 82.668122 351.444205 81.121247 351.444205 
Q 79.416872 351.444205 78.481247 350.292955 
Q 77.547497 349.13983 77.547497 347.02483 
Q 77.547497 344.85733 78.640622 343.617955 
Q 79.733747 342.37858 81.636872 342.37858 
Q 82.240622 342.37858 82.808747 342.47233 
Q 83.376872 342.56608 83.933747 342.75358 
z
M 89.570231 344.382955 
L 87.098981 348.04483 
L 89.570231 348.04483 
L 89.570231 344.382955 
z
M 89.195231 342.52483 
L 91.703981 342.52483 
L 91.703981 348.04483 
L 92.950856 348.04483 
L 92.950856 349.67983 
L 91.703981 349.67983 
L 91.703981 351.27358 
L 89.570231 351.27358 
L 89.570231 349.67983 
L 85.692731 349.67983 
L 85.692731 347.746705 
L 89.195231 342.52483 
z
" style="stroke: #ffffff"/>
    <path d="M 52.556794 342.52483 
L 59.149294 342.52483 
L 59.149294 343.79608 
L 55.738669 351.27358 
L 53.541169 351.27358 
L 56.769919 344.184205 
L 52.556794 344.184205 
L 52.556794 342.52483 
z
M 61.510153 349.715455 
L 63.503278 349.715455 
L 63.503278 344.060455 
L 61.457653 344.48233 
L 61.457653 342.946705 
L 63.490153 342.52483 
L 65.635153 342.52483 
L 65.635153 349.715455 
L 67.628278 349.715455 
L 67.628278 351.27358 
L 61.510153 351.27358 
L 61.510153 349.715455 
z
M 72.871012 344.382955 
L 70.399762 348.04483 
L 72.871012 348.04483 
L 72.871012 344.382955 
z
M 72.496012 342.52483 
L 75.004762 342.52483 
L 75.004762 348.04483 
L 76.251637 348.04483 
L 76.251637 349.67983 
L 75.004762 349.67983 
L 75.004762 351.27358 
L 72.871012 351.27358 
L 72.871012 349.67983 
L 68.993512 349.67983 
L 68.993512 347.746705 
L 72.496012 342.52483 
z
M 81.145622 346.955455 
Q 80.553122 346.955455 80.256872 347.33983 
Q 79.960622 347.72233 79.960622 348.49108 
Q 79.960622 349.257955 80.256872 349.64233 
Q 80.553122 350.02483 81.145622 350.02483 
Q 81.741872 350.02483 82.038122 349.64233 
Q 82.334372 349.257955 82.334372 348.49108 
Q 82.334372 347.72233 82.038122 347.33983 
Q 81.741872 346.955455 81.145622 346.955455 
z
M 83.933747 342.75358 
L 83.933747 344.371705 
Q 83.376872 344.10733 82.883747 343.981705 
Q 82.392497 343.85608 81.923747 343.85608 
Q 80.916872 343.85608 80.354372 344.416705 
Q 79.791872 344.975455 79.698122 346.07608 
Q 80.084372 345.789205 80.534372 345.646705 
Q 80.986247 345.50233 81.520622 345.50233 
Q 82.861247 345.50233 83.684372 346.287955 
Q 84.507497 347.071705 84.507497 348.342955 
Q 84.507497 349.749205 83.586872 350.596705 
Q 82.668122 351.444205 81.121247 351.444205 
Q 79.416872 351.444205 78.481247 350.292955 
Q 77.547497 349.13983 77.547497 347.02483 
Q 77.547497 344.85733 78.640622 343.617955 
Q 79.733747 342.37858 81.636872 342.37858 
Q 82.240622 342.37858 82.808747 342.47233 
Q 83.376872 342.56608 83.933747 342.75358 
z
M 89.570231 344.382955 
L 87.098981 348.04483 
L 89.570231 348.04483 
L 89.570231 344.382955 
z
M 89.195231 342.52483 
L 91.703981 342.52483 
L 91.703981 348.04483 
L 92.950856 348.04483 
L 92.950856 349.67983 
L 91.703981 349.67983 
L 91.703981 351.27358 
L 89.570231 351.27358 
L 89.570231 349.67983 
L 85.692731 349.67983 
L 85.692731 347.746705 
L 89.195231 342.52483 
z
"/>
   </g>
   <g id="text_9">
    <path d="M 52.556794 317.815739 
L 59.149294 317.815739 
L 59.149294 319.086989 
L 55.738669 326.564489 
L 53.541169 326.564489 
L 56.769919 319.475114 
L 52.556794 319.475114 
L 52.556794 317.815739 
z
M 60.906403 317.815739 
L 67.498903 317.815739 
L 67.498903 319.086989 
L 64.088278 326.564489 
L 61.890778 326.564489 
L 65.119528 319.475114 
L 60.906403 319.475114 
L 60.906403 317.815739 
z
M 72.871012 319.673864 
L 70.399762 323.335739 
L 72.871012 323.335739 
L 72.871012 319.673864 
z
M 72.496012 317.815739 
L 75.004762 317.815739 
L 75.004762 323.335739 
L 76.251637 323.335739 
L 76.251637 324.970739 
L 75.004762 324.970739 
L 75.004762 326.564489 
L 72.871012 326.564489 
L 72.871012 324.970739 
L 68.993512 324.970739 
L 68.993512 323.037614 
L 72.496012 317.815739 
z
M 80.260622 324.906989 
L 84.109997 324.906989 
L 84.109997 326.564489 
L 77.751872 326.564489 
L 77.751872 324.906989 
L 80.944997 322.086989 
Q 81.374372 321.700739 81.578747 321.331364 
Q 81.783122 320.961989 81.783122 320.564489 
Q 81.783122 319.949489 81.370622 319.574489 
Q 80.958122 319.199489 80.271872 319.199489 
Q 79.744997 319.199489 79.116872 319.424489 
Q 78.490622 319.649489 77.776247 320.095739 
L 77.776247 318.173864 
Q 78.537497 317.922614 79.281872 317.791364 
Q 80.026247 317.658239 80.740622 317.658239 
Q 82.311872 317.658239 83.181872 318.350114 
Q 84.051872 319.040114 84.051872 320.277614 
Q 84.051872 320.991989 83.682497 321.610739 
Q 83.313122 322.227614 82.129997 323.266364 
L 80.260622 324.906989 
z
M 88.610231 324.906989 
L 92.459606 324.906989 
L 92.459606 326.564489 
L 86.101481 326.564489 
L 86.101481 324.906989 
L 89.294606 322.086989 
Q 89.723981 321.700739 89.928356 321.331364 
Q 90.132731 320.961989 90.132731 320.564489 
Q 90.132731 319.949489 89.720231 319.574489 
Q 89.307731 319.199489 88.621481 319.199489 
Q 88.094606 319.199489 87.466481 319.424489 
Q 86.840231 319.649489 86.125856 320.095739 
L 86.125856 318.173864 
Q 86.887106 317.922614 87.631481 317.791364 
Q 88.375856 317.658239 89.090231 317.658239 
Q 90.661481 317.658239 91.531481 318.350114 
Q 92.401481 319.040114 92.401481 320.277614 
Q 92.401481 320.991989 92.032106 321.610739 
Q 91.662731 322.227614 90.479606 323.266364 
L 88.610231 324.906989 
z
" style="stroke: #ffffff"/>
    <path d="M 52.556794 317.815739 
L 59.149294 317.815739 
L 59.149294 319.086989 
L 55.738669 326.564489 
L 53.541169 326.564489 
L 56.769919 319.475114 
L 52.556794 319.475114 
L 52.556794 317.815739 
z
M 60.906403 317.815739 
L 67.498903 317.815739 
L 67.498903 319.086989 
L 64.088278 326.564489 
L 61.890778 326.564489 
L 65.119528 319.475114 
L 60.906403 319.475114 
L 60.906403 317.815739 
z
M 72.871012 319.673864 
L 70.399762 323.335739 
L 72.871012 323.335739 
L 72.871012 319.673864 
z
M 72.496012 317.815739 
L 75.004762 317.815739 
L 75.004762 323.335739 
L 76.251637 323.335739 
L 76.251637 324.970739 
L 75.004762 324.970739 
L 75.004762 326.564489 
L 72.871012 326.564489 
L 72.871012 324.970739 
L 68.993512 324.970739 
L 68.993512 323.037614 
L 72.496012 317.815739 
z
M 80.260622 324.906989 
L 84.109997 324.906989 
L 84.109997 326.564489 
L 77.751872 326.564489 
L 77.751872 324.906989 
L 80.944997 322.086989 
Q 81.374372 321.700739 81.578747 321.331364 
Q 81.783122 320.961989 81.783122 320.564489 
Q 81.783122 319.949489 81.370622 319.574489 
Q 80.958122 319.199489 80.271872 319.199489 
Q 79.744997 319.199489 79.116872 319.424489 
Q 78.490622 319.649489 77.776247 320.095739 
L 77.776247 318.173864 
Q 78.537497 317.922614 79.281872 317.791364 
Q 80.026247 317.658239 80.740622 317.658239 
Q 82.311872 317.658239 83.181872 318.350114 
Q 84.051872 319.040114 84.051872 320.277614 
Q 84.051872 320.991989 83.682497 321.610739 
Q 83.313122 322.227614 82.129997 323.266364 
L 80.260622 324.906989 
z
M 88.610231 324.906989 
L 92.459606 324.906989 
L 92.459606 326.564489 
L 86.101481 326.564489 
L 86.101481 324.906989 
L 89.294606 322.086989 
Q 89.723981 321.700739 89.928356 321.331364 
Q 90.132731 320.961989 90.132731 320.564489 
Q 90.132731 319.949489 89.720231 319.574489 
Q 89.307731 319.199489 88.621481 319.199489 
Q 88.094606 319.199489 87.466481 319.424489 
Q 86.840231 319.649489 86.125856 320.095739 
L 86.125856 318.173864 
Q 86.887106 317.922614 87.631481 317.791364 
Q 88.375856 317.658239 89.090231 317.658239 
Q 90.661481 317.658239 91.531481 318.350114 
Q 92.401481 319.040114 92.401481 320.277614 
Q 92.401481 320.991989 92.032106 321.610739 
Q 91.662731 322.227614 90.479606 323.266364 
L 88.610231 324.906989 
z
"/>
   </g>
   <g id="text_10">
    <path d="M 55.931794 297.940398 
Q 55.299919 297.940398 54.958669 298.287273 
Q 54.619294 298.632273 54.619294 299.277273 
Q 54.619294 299.922273 54.958669 300.265398 
Q 55.299919 300.606648 55.931794 300.606648 
Q 56.559919 300.606648 56.893669 300.265398 
Q 57.227419 299.922273 57.227419 299.277273 
Q 57.227419 298.626648 56.893669 298.283523 
Q 56.559919 297.940398 55.931794 297.940398 
z
M 54.285544 297.197898 
Q 53.488669 296.956023 53.083669 296.459148 
Q 52.680544 295.960398 52.680544 295.216023 
Q 52.680544 294.109773 53.505544 293.530398 
Q 54.332419 292.949148 55.931794 292.949148 
Q 57.519919 292.949148 58.344919 293.526648 
Q 59.171794 294.104148 59.171794 295.216023 
Q 59.171794 295.960398 58.764919 296.459148 
Q 58.358044 296.956023 57.561169 297.197898 
Q 58.451794 297.443523 58.905544 297.996648 
Q 59.359294 298.549773 59.359294 299.393523 
Q 59.359294 300.694773 58.494919 301.360398 
Q 57.630544 302.026023 55.931794 302.026023 
Q 54.227419 302.026023 53.357419 301.360398 
Q 52.487419 300.694773 52.487419 299.393523 
Q 52.487419 298.549773 52.941169 297.996648 
Q 53.394919 297.443523 54.285544 297.197898 
z
M 54.812419 295.444773 
Q 54.812419 295.966023 55.103044 296.247273 
Q 55.393669 296.528523 55.931794 296.528523 
Q 56.458669 296.528523 56.745544 296.247273 
Q 57.034294 295.966023 57.034294 295.444773 
Q 57.034294 294.923523 56.745544 294.646023 
Q 56.458669 294.366648 55.931794 294.366648 
Q 55.393669 294.366648 55.103044 294.647898 
Q 54.812419 294.929148 54.812419 295.444773 
z
M 64.446403 297.537273 
Q 63.853903 297.537273 63.557653 297.921648 
Q 63.261403 298.304148 63.261403 299.072898 
Q 63.261403 299.839773 63.557653 300.224148 
Q 63.853903 300.606648 64.446403 300.606648 
Q 65.042653 300.606648 65.338903 300.224148 
Q 65.635153 299.839773 65.635153 299.072898 
Q 65.635153 298.304148 65.338903 297.921648 
Q 65.042653 297.537273 64.446403 297.537273 
z
M 67.234528 293.335398 
L 67.234528 294.953523 
Q 66.677653 294.689148 66.184528 294.563523 
Q 65.693278 294.437898 65.224528 294.437898 
Q 64.217653 294.437898 63.655153 294.998523 
Q 63.092653 295.557273 62.998903 296.657898 
Q 63.385153 296.371023 63.835153 296.228523 
Q 64.287028 296.084148 64.821403 296.084148 
Q 66.162028 296.084148 66.985153 296.869773 
Q 67.808278 297.653523 67.808278 298.924773 
Q 67.808278 300.331023 66.887653 301.178523 
Q 65.968903 302.026023 64.422028 302.026023 
Q 62.717653 302.026023 61.782028 300.874773 
Q 60.848278 299.721648 60.848278 297.606648 
Q 60.848278 295.439148 61.941403 294.199773 
Q 63.034528 292.960398 64.937653 292.960398 
Q 65.541403 292.960398 66.109528 293.054148 
Q 66.677653 293.147898 67.234528 293.335398 
z
M 72.871012 294.964773 
L 70.399762 298.626648 
L 72.871012 298.626648 
L 72.871012 294.964773 
z
M 72.496012 293.106648 
L 75.004762 293.106648 
L 75.004762 298.626648 
L 76.251637 298.626648 
L 76.251637 300.261648 
L 75.004762 300.261648 
L 75.004762 301.855398 
L 72.871012 301.855398 
L 72.871012 300.261648 
L 68.993512 300.261648 
L 68.993512 298.328523 
L 72.496012 293.106648 
z
M 80.260622 300.197898 
L 84.109997 300.197898 
L 84.109997 301.855398 
L 77.751872 301.855398 
L 77.751872 300.197898 
L 80.944997 297.377898 
Q 81.374372 296.991648 81.578747 296.622273 
Q 81.783122 296.252898 81.783122 295.855398 
Q 81.783122 295.240398 81.370622 294.865398 
Q 80.958122 294.490398 80.271872 294.490398 
Q 79.744997 294.490398 79.116872 294.715398 
Q 78.490622 294.940398 77.776247 295.386648 
L 77.776247 293.464773 
Q 78.537497 293.213523 79.281872 293.082273 
Q 80.026247 292.949148 80.740622 292.949148 
Q 82.311872 292.949148 83.181872 293.641023 
Q 84.051872 294.331023 84.051872 295.568523 
Q 84.051872 296.282898 83.682497 296.901648 
Q 83.313122 297.518523 82.129997 298.557273 
L 80.260622 300.197898 
z
M 90.672731 297.471648 
Q 90.672731 295.831023 90.365231 295.161648 
Q 90.057731 294.490398 89.330231 294.490398 
Q 88.604606 294.490398 88.293356 295.161648 
Q 87.982106 295.831023 87.982106 297.471648 
Q 87.982106 299.131023 88.293356 299.811648 
Q 88.604606 300.490398 89.330231 300.490398 
Q 90.052106 300.490398 90.361481 299.811648 
Q 90.672731 299.131023 90.672731 297.471648 
z
M 92.928356 297.490398 
Q 92.928356 299.663523 91.990856 300.844773 
Q 91.053356 302.026023 89.330231 302.026023 
Q 87.601481 302.026023 86.663981 300.844773 
Q 85.726481 299.663523 85.726481 297.490398 
Q 85.726481 295.309773 86.663981 294.130398 
Q 87.601481 292.949148 89.330231 292.949148 
Q 91.053356 292.949148 91.990856 294.130398 
Q 92.928356 295.309773 92.928356 297.490398 
z
" style="stroke: #ffffff"/>
    <path d="M 55.931794 297.940398 
Q 55.299919 297.940398 54.958669 298.287273 
Q 54.619294 298.632273 54.619294 299.277273 
Q 54.619294 299.922273 54.958669 300.265398 
Q 55.299919 300.606648 55.931794 300.606648 
Q 56.559919 300.606648 56.893669 300.265398 
Q 57.227419 299.922273 57.227419 299.277273 
Q 57.227419 298.626648 56.893669 298.283523 
Q 56.559919 297.940398 55.931794 297.940398 
z
M 54.285544 297.197898 
Q 53.488669 296.956023 53.083669 296.459148 
Q 52.680544 295.960398 52.680544 295.216023 
Q 52.680544 294.109773 53.505544 293.530398 
Q 54.332419 292.949148 55.931794 292.949148 
Q 57.519919 292.949148 58.344919 293.526648 
Q 59.171794 294.104148 59.171794 295.216023 
Q 59.171794 295.960398 58.764919 296.459148 
Q 58.358044 296.956023 57.561169 297.197898 
Q 58.451794 297.443523 58.905544 297.996648 
Q 59.359294 298.549773 59.359294 299.393523 
Q 59.359294 300.694773 58.494919 301.360398 
Q 57.630544 302.026023 55.931794 302.026023 
Q 54.227419 302.026023 53.357419 301.360398 
Q 52.487419 300.694773 52.487419 299.393523 
Q 52.487419 298.549773 52.941169 297.996648 
Q 53.394919 297.443523 54.285544 297.197898 
z
M 54.812419 295.444773 
Q 54.812419 295.966023 55.103044 296.247273 
Q 55.393669 296.528523 55.931794 296.528523 
Q 56.458669 296.528523 56.745544 296.247273 
Q 57.034294 295.966023 57.034294 295.444773 
Q 57.034294 294.923523 56.745544 294.646023 
Q 56.458669 294.366648 55.931794 294.366648 
Q 55.393669 294.366648 55.103044 294.647898 
Q 54.812419 294.929148 54.812419 295.444773 
z
M 64.446403 297.537273 
Q 63.853903 297.537273 63.557653 297.921648 
Q 63.261403 298.304148 63.261403 299.072898 
Q 63.261403 299.839773 63.557653 300.224148 
Q 63.853903 300.606648 64.446403 300.606648 
Q 65.042653 300.606648 65.338903 300.224148 
Q 65.635153 299.839773 65.635153 299.072898 
Q 65.635153 298.304148 65.338903 297.921648 
Q 65.042653 297.537273 64.446403 297.537273 
z
M 67.234528 293.335398 
L 67.234528 294.953523 
Q 66.677653 294.689148 66.184528 294.563523 
Q 65.693278 294.437898 65.224528 294.437898 
Q 64.217653 294.437898 63.655153 294.998523 
Q 63.092653 295.557273 62.998903 296.657898 
Q 63.385153 296.371023 63.835153 296.228523 
Q 64.287028 296.084148 64.821403 296.084148 
Q 66.162028 296.084148 66.985153 296.869773 
Q 67.808278 297.653523 67.808278 298.924773 
Q 67.808278 300.331023 66.887653 301.178523 
Q 65.968903 302.026023 64.422028 302.026023 
Q 62.717653 302.026023 61.782028 300.874773 
Q 60.848278 299.721648 60.848278 297.606648 
Q 60.848278 295.439148 61.941403 294.199773 
Q 63.034528 292.960398 64.937653 292.960398 
Q 65.541403 292.960398 66.109528 293.054148 
Q 66.677653 293.147898 67.234528 293.335398 
z
M 72.871012 294.964773 
L 70.399762 298.626648 
L 72.871012 298.626648 
L 72.871012 294.964773 
z
M 72.496012 293.106648 
L 75.004762 293.106648 
L 75.004762 298.626648 
L 76.251637 298.626648 
L 76.251637 300.261648 
L 75.004762 300.261648 
L 75.004762 301.855398 
L 72.871012 301.855398 
L 72.871012 300.261648 
L 68.993512 300.261648 
L 68.993512 298.328523 
L 72.496012 293.106648 
z
M 80.260622 300.197898 
L 84.109997 300.197898 
L 84.109997 301.855398 
L 77.751872 301.855398 
L 77.751872 300.197898 
L 80.944997 297.377898 
Q 81.374372 296.991648 81.578747 296.622273 
Q 81.783122 296.252898 81.783122 295.855398 
Q 81.783122 295.240398 81.370622 294.865398 
Q 80.958122 294.490398 80.271872 294.490398 
Q 79.744997 294.490398 79.116872 294.715398 
Q 78.490622 294.940398 77.776247 295.386648 
L 77.776247 293.464773 
Q 78.537497 293.213523 79.281872 293.082273 
Q 80.026247 292.949148 80.740622 292.949148 
Q 82.311872 292.949148 83.181872 293.641023 
Q 84.051872 294.331023 84.051872 295.568523 
Q 84.051872 296.282898 83.682497 296.901648 
Q 83.313122 297.518523 82.129997 298.557273 
L 80.260622 300.197898 
z
M 90.672731 297.471648 
Q 90.672731 295.831023 90.365231 295.161648 
Q 90.057731 294.490398 89.330231 294.490398 
Q 88.604606 294.490398 88.293356 295.161648 
Q 87.982106 295.831023 87.982106 297.471648 
Q 87.982106 299.131023 88.293356 299.811648 
Q 88.604606 300.490398 89.330231 300.490398 
Q 90.052106 300.490398 90.361481 299.811648 
Q 90.672731 299.131023 90.672731 297.471648 
z
M 92.928356 297.490398 
Q 92.928356 299.663523 91.990856 300.844773 
Q 91.053356 302.026023 89.330231 302.026023 
Q 87.601481 302.026023 86.663981 300.844773 
Q 85.726481 299.663523 85.726481 297.490398 
Q 85.726481 295.309773 86.663981 294.130398 
Q 87.601481 292.949148 89.330231 292.949148 
Q 91.053356 292.949148 91.990856 294.130398 
Q 92.928356 295.309773 92.928356 297.490398 
z
"/>
   </g>
  </g>
  <g id="axes_6">
   <g id="patch_15">
    <path d="M 104.982353 504 
L 129.6 504 
L 129.6 286.56 
L 104.982353 286.56 
L 104.982353 504 
z
" style="fill: none"/>
   </g>
  </g>
 </g>
 <defs>
  <clipPath id="pa0d8109aef">
   <rect x="49.182353" y="286.56" width="49.235294" height="217.44"/>
  </clipPath>
 </defs>
</svg>
