<?xml version="1.0" encoding="utf-8" standalone="no"?>
<!DOCTYPE svg PUBLIC "-//W3C//DTD SVG 1.1//EN"
  "http://www.w3.org/Graphics/SVG/1.1/DTD/svg11.dtd">
<svg xmlns:xlink="http://www.w3.org/1999/xlink" width="144pt" height="576pt" viewBox="0 0 144 576" xmlns="http://www.w3.org/2000/svg" version="1.1">
 <metadata>
  <rdf:RDF xmlns:dc="http://purl.org/dc/elements/1.1/" xmlns:cc="http://creativecommons.org/ns#" xmlns:rdf="http://www.w3.org/1999/02/22-rdf-syntax-ns#">
   <cc:Work>
    <dc:type rdf:resource="http://purl.org/dc/dcmitype/StillImage"/>
    <dc:date>2023-08-08T21:46:41.690543</dc:date>
    <dc:format>image/svg+xml</dc:format>
    <dc:creator>
     <cc:Agent>
      <dc:title>Matplotlib v3.5.1, https://matplotlib.org/</dc:title>
     </cc:Agent>
    </dc:creator>
   </cc:Work>
  </rdf:RDF>
 </metadata>
 <defs>
  <style type="text/css">*{stroke-linejoin: round; stroke-linecap: butt}</style>
 </defs>
 <g id="figure_1">
  <g id="patch_1">
   <path d="M 0 576 
L 144 576 
L 144 0 
L 0 0 
L 0 576 
z
" style="fill: none"/>
  </g>
  <g id="axes_1">
   <g id="patch_2">
    <path d="M 18 290.88 
L 42.617647 290.88 
L 42.617647 69.12 
L 18 69.12 
L 18 290.88 
z
" style="fill: none"/>
   </g>
  </g>
  <g id="axes_2">
   <g id="patch_3">
    <path d="M 49.182353 290.88 
L 98.417647 290.88 
L 98.417647 69.12 
L 49.182353 69.12 
L 49.182353 290.88 
z
" style="fill: none"/>
   </g>
   <g id="text_1">
    <path d="M 21.0525 253.927125 
L 19.445625 258.280875 
L 22.663125 258.280875 
L 21.0525 253.927125 
z
M 20.383125 252.760875 
L 21.725625 252.760875 
L 25.059375 261.509625 
L 23.829375 261.509625 
L 23.0325 259.26525 
L 19.089375 259.26525 
L 18.2925 261.509625 
L 17.04375 261.509625 
L 20.383125 252.760875 
z
M 32.677734 253.435875 
L 32.677734 254.68275 
Q 32.079609 254.125875 31.402734 253.852125 
Q 30.725859 253.5765 29.964609 253.5765 
Q 28.464609 253.5765 27.667734 254.493375 
Q 26.870859 255.41025 26.870859 257.144625 
Q 26.870859 258.873375 27.667734 259.79025 
Q 28.464609 260.707125 29.964609 260.707125 
Q 30.725859 260.707125 31.402734 260.4315 
Q 32.079609 260.155875 32.677734 259.599 
L 32.677734 260.8365 
Q 32.057109 261.258375 31.361484 261.47025 
Q 30.667734 261.68025 29.895234 261.68025 
Q 27.907734 261.68025 26.763984 260.46525 
Q 25.622109 259.248375 25.622109 257.144625 
Q 25.622109 255.03525 26.763984 253.82025 
Q 27.907734 252.603375 29.895234 252.603375 
Q 30.678984 252.603375 31.372734 252.8115 
Q 32.068359 253.019625 32.677734 253.435875 
z
M 39.749766 253.04775 
L 39.749766 254.20275 
Q 39.076641 253.88025 38.478516 253.72275 
Q 37.880391 253.563375 37.323516 253.563375 
Q 36.357891 253.563375 35.832891 253.938375 
Q 35.307891 254.313375 35.307891 255.00525 
Q 35.307891 255.5865 35.656641 255.88275 
Q 36.005391 256.177125 36.978516 256.359 
L 37.692891 256.50525 
Q 39.016641 256.758375 39.646641 257.394 
Q 40.276641 258.029625 40.276641 259.094625 
Q 40.276641 260.36775 39.423516 261.024 
Q 38.572266 261.68025 36.926016 261.68025 
Q 36.305391 261.68025 35.604141 261.539625 
Q 34.904766 261.399 34.154766 261.123375 
L 34.154766 259.904625 
Q 34.874766 260.30775 35.566641 260.514 
Q 36.258516 260.718375 36.926016 260.718375 
Q 37.938516 260.718375 38.489766 260.320875 
Q 39.041016 259.9215 39.041016 259.18275 
Q 39.041016 258.539625 38.645391 258.175875 
Q 38.249766 257.812125 37.347891 257.63025 
L 36.626016 257.489625 
Q 35.302266 257.227125 34.709766 256.664625 
Q 34.119141 256.102125 34.119141 255.099 
Q 34.119141 253.938375 34.936641 253.270875 
Q 35.754141 252.603375 37.188516 252.603375 
Q 37.805391 252.603375 38.442891 252.715875 
Q 39.082266 252.8265 39.749766 253.04775 
z
M 42.433828 260.514 
L 44.366953 260.514 
L 44.366953 253.839 
L 42.263203 254.260875 
L 42.263203 253.18275 
L 44.355703 252.760875 
L 45.538828 252.760875 
L 45.538828 260.514 
L 47.471953 260.514 
L 47.471953 261.509625 
L 42.433828 261.509625 
L 42.433828 260.514 
z
M 54.754922 253.734 
L 54.754922 257.020875 
L 56.243672 257.020875 
Q 57.070547 257.020875 57.520547 256.593375 
Q 57.972422 256.165875 57.972422 255.374625 
Q 57.972422 254.589 57.520547 254.1615 
Q 57.070547 253.734 56.243672 253.734 
L 54.754922 253.734 
z
M 53.571797 252.760875 
L 56.243672 252.760875 
Q 57.715547 252.760875 58.467422 253.4265 
Q 59.221172 254.092125 59.221172 255.374625 
Q 59.221172 256.67025 58.467422 257.332125 
Q 57.715547 257.994 56.243672 257.994 
L 54.754922 257.994 
L 54.754922 261.509625 
L 53.571797 261.509625 
L 53.571797 252.760875 
z
M 62.86875 255.70275 
Q 62.0025 255.70275 61.498125 256.379625 
Q 60.99375 257.0565 60.99375 258.234 
Q 60.99375 259.4115 61.494375 260.088375 
Q 61.996875 260.76525 62.86875 260.76525 
Q 63.73125 260.76525 64.23375 260.0865 
Q 64.738125 259.405875 64.738125 258.234 
Q 64.738125 257.06775 64.23375 256.38525 
Q 63.73125 255.70275 62.86875 255.70275 
z
M 62.86875 254.789625 
Q 64.275 254.789625 65.0775 255.704625 
Q 65.881875 256.61775 65.881875 258.234 
Q 65.881875 259.844625 65.0775 260.763375 
Q 64.275 261.68025 62.86875 261.68025 
Q 61.456875 261.68025 60.65625 260.763375 
Q 59.8575 259.844625 59.8575 258.234 
Q 59.8575 256.61775 60.65625 255.704625 
Q 61.456875 254.789625 62.86875 254.789625 
z
M 68.710547 260.52525 
L 68.710547 264.00525 
L 67.626797 264.00525 
L 67.626797 254.947125 
L 68.710547 254.947125 
L 68.710547 255.94275 
Q 69.051797 255.35775 69.569297 255.074625 
Q 70.088672 254.789625 70.808672 254.789625 
Q 72.004922 254.789625 72.751172 255.738375 
Q 73.499297 256.687125 73.499297 258.234 
Q 73.499297 259.780875 72.751172 260.7315 
Q 72.004922 261.68025 70.808672 261.68025 
Q 70.088672 261.68025 69.569297 261.39525 
Q 69.051797 261.11025 68.710547 260.52525 
z
M 72.379922 258.234 
Q 72.379922 257.04525 71.890547 256.368375 
Q 71.401172 255.6915 70.546172 255.6915 
Q 69.689297 255.6915 69.199922 256.368375 
Q 68.710547 257.04525 68.710547 258.234 
Q 68.710547 259.42275 69.199922 260.099625 
Q 69.689297 260.7765 70.546172 260.7765 
Q 71.401172 260.7765 71.890547 260.099625 
Q 72.379922 259.42275 72.379922 258.234 
z
M 75.174609 258.92025 
L 75.174609 254.947125 
L 76.252734 254.947125 
L 76.252734 258.879 
Q 76.252734 259.810875 76.614609 260.27775 
Q 76.978359 260.74275 77.705859 260.74275 
Q 78.577734 260.74275 79.083984 260.185875 
Q 79.592109 259.629 79.592109 258.667125 
L 79.592109 254.947125 
L 80.670234 254.947125 
L 80.670234 261.509625 
L 79.592109 261.509625 
L 79.592109 260.500875 
Q 79.200234 261.099 78.680859 261.389625 
Q 78.163359 261.68025 77.477109 261.68025 
Q 76.346484 261.68025 75.759609 260.977125 
Q 75.174609 260.274 75.174609 258.92025 
z
M 77.887734 254.789625 
L 77.887734 254.789625 
z
M 82.890703 252.3915 
L 83.968828 252.3915 
L 83.968828 261.509625 
L 82.890703 261.509625 
L 82.890703 252.3915 
z
M 89.207813 258.2115 
Q 87.900937 258.2115 87.396563 258.509625 
Q 86.892188 258.80775 86.892188 259.529625 
Q 86.892188 260.103375 87.270938 260.440875 
Q 87.649687 260.7765 88.298438 260.7765 
Q 89.196562 260.7765 89.738438 260.140875 
Q 90.280313 259.50525 90.280313 258.4515 
L 90.280313 258.2115 
L 89.207813 258.2115 
z
M 91.358438 257.76525 
L 91.358438 261.509625 
L 90.280313 261.509625 
L 90.280313 260.514 
Q 89.910938 261.11025 89.359688 261.39525 
Q 88.808437 261.68025 88.011562 261.68025 
Q 87.004688 261.68025 86.408438 261.114 
Q 85.814063 260.54775 85.814063 259.599 
Q 85.814063 258.49275 86.554688 257.93025 
Q 87.297188 257.36775 88.767188 257.36775 
L 90.280313 257.36775 
L 90.280313 257.260875 
Q 90.280313 256.5165 89.790938 256.109625 
Q 89.301563 255.70275 88.416562 255.70275 
Q 87.854062 255.70275 87.319688 255.83775 
Q 86.787188 255.97275 86.295938 256.24275 
L 86.295938 255.24525 
Q 86.886562 255.0165 87.443438 254.904 
Q 88.000313 254.789625 88.527187 254.789625 
Q 89.952188 254.789625 90.655313 255.528375 
Q 91.358438 256.26525 91.358438 257.76525 
z
M 94.645078 253.083375 
L 94.645078 254.947125 
L 96.865078 254.947125 
L 96.865078 255.78525 
L 94.645078 255.78525 
L 94.645078 259.34775 
Q 94.645078 260.15025 94.864453 260.379 
Q 95.083828 260.60775 95.758828 260.60775 
L 96.865078 260.60775 
L 96.865078 261.509625 
L 95.758828 261.509625 
Q 94.510078 261.509625 94.035703 261.044625 
Q 93.561328 260.57775 93.561328 259.34775 
L 93.561328 255.78525 
L 92.770078 255.78525 
L 92.770078 254.947125 
L 93.561328 254.947125 
L 93.561328 253.083375 
L 94.645078 253.083375 
z
M 98.283281 254.947125 
L 99.361406 254.947125 
L 99.361406 261.509625 
L 98.283281 261.509625 
L 98.283281 254.947125 
z
M 98.283281 252.3915 
L 99.361406 252.3915 
L 99.361406 253.758375 
L 98.283281 253.758375 
L 98.283281 252.3915 
z
M 104.159766 255.70275 
Q 103.293516 255.70275 102.789141 256.379625 
Q 102.284766 257.0565 102.284766 258.234 
Q 102.284766 259.4115 102.785391 260.088375 
Q 103.287891 260.76525 104.159766 260.76525 
Q 105.022266 260.76525 105.524766 260.0865 
Q 106.029141 259.405875 106.029141 258.234 
Q 106.029141 257.06775 105.524766 256.38525 
Q 105.022266 255.70275 104.159766 255.70275 
z
M 104.159766 254.789625 
Q 105.566016 254.789625 106.368516 255.704625 
Q 107.172891 256.61775 107.172891 258.234 
Q 107.172891 259.844625 106.368516 260.763375 
Q 105.566016 261.68025 104.159766 261.68025 
Q 102.747891 261.68025 101.947266 260.763375 
Q 101.148516 259.844625 101.148516 258.234 
Q 101.148516 256.61775 101.947266 255.704625 
Q 102.747891 254.789625 104.159766 254.789625 
z
M 114.415312 257.54775 
L 114.415312 261.509625 
L 113.337187 261.509625 
L 113.337187 257.583375 
Q 113.337187 256.6515 112.973438 256.19025 
Q 112.609688 255.727125 111.884062 255.727125 
Q 111.010312 255.727125 110.505938 256.284 
Q 110.001563 256.839 110.001563 257.800875 
L 110.001563 261.509625 
L 108.917812 261.509625 
L 108.917812 254.947125 
L 110.001563 254.947125 
L 110.001563 255.967125 
Q 110.389688 255.374625 110.912813 255.082125 
Q 111.437813 254.789625 112.124063 254.789625 
Q 113.254688 254.789625 113.834063 255.489 
Q 114.415312 256.188375 114.415312 257.54775 
z
M 127.972734 257.66025 
Q 127.462734 257.66025 127.172109 258.093375 
Q 126.883359 258.5265 126.883359 259.300875 
Q 126.883359 260.062125 127.172109 260.499 
Q 127.462734 260.935875 127.972734 260.935875 
Q 128.471484 260.935875 128.760234 260.499 
Q 129.050859 260.062125 129.050859 259.300875 
Q 129.050859 258.532125 128.760234 258.097125 
Q 128.471484 257.66025 127.972734 257.66025 
z
M 127.972734 256.915875 
Q 128.898984 256.915875 129.442734 257.560875 
Q 129.988359 258.204 129.988359 259.300875 
Q 129.988359 260.395875 129.440859 261.039 
Q 128.893359 261.68025 127.972734 261.68025 
Q 127.035234 261.68025 126.489609 261.039 
Q 125.945859 260.395875 125.945859 259.300875 
Q 125.945859 258.198375 126.493359 257.557125 
Q 127.040859 256.915875 127.972734 256.915875 
z
M 121.925859 253.34775 
Q 121.421484 253.34775 121.130859 253.784625 
Q 120.842109 254.219625 120.842109 254.98275 
Q 120.842109 255.75525 121.128984 256.19025 
Q 121.415859 256.623375 121.925859 256.623375 
Q 122.435859 256.623375 122.724609 256.19025 
Q 123.015234 255.75525 123.015234 254.98275 
Q 123.015234 254.227125 122.722734 253.788375 
Q 122.430234 253.34775 121.925859 253.34775 
z
M 127.217109 252.603375 
L 128.154609 252.603375 
L 122.681484 261.68025 
L 121.743984 261.68025 
L 127.217109 252.603375 
z
M 121.925859 252.603375 
Q 122.852109 252.603375 123.401484 253.244625 
Q 123.952734 253.885875 123.952734 254.98275 
Q 123.952734 256.089 123.405234 256.728375 
Q 122.857734 257.36775 121.925859 257.36775 
Q 120.993984 257.36775 120.452109 256.7265 
Q 119.910234 256.083375 119.910234 254.98275 
Q 119.910234 253.8915 120.453984 253.248375 
Q 120.999609 252.603375 121.925859 252.603375 
z
" style="fill: #ffffff; stroke: #000000; stroke-width: 2"/>
    <path d="M 21.0525 253.927125 
L 19.445625 258.280875 
L 22.663125 258.280875 
L 21.0525 253.927125 
z
M 20.383125 252.760875 
L 21.725625 252.760875 
L 25.059375 261.509625 
L 23.829375 261.509625 
L 23.0325 259.26525 
L 19.089375 259.26525 
L 18.2925 261.509625 
L 17.04375 261.509625 
L 20.383125 252.760875 
z
M 32.677734 253.435875 
L 32.677734 254.68275 
Q 32.079609 254.125875 31.402734 253.852125 
Q 30.725859 253.5765 29.964609 253.5765 
Q 28.464609 253.5765 27.667734 254.493375 
Q 26.870859 255.41025 26.870859 257.144625 
Q 26.870859 258.873375 27.667734 259.79025 
Q 28.464609 260.707125 29.964609 260.707125 
Q 30.725859 260.707125 31.402734 260.4315 
Q 32.079609 260.155875 32.677734 259.599 
L 32.677734 260.8365 
Q 32.057109 261.258375 31.361484 261.47025 
Q 30.667734 261.68025 29.895234 261.68025 
Q 27.907734 261.68025 26.763984 260.46525 
Q 25.622109 259.248375 25.622109 257.144625 
Q 25.622109 255.03525 26.763984 253.82025 
Q 27.907734 252.603375 29.895234 252.603375 
Q 30.678984 252.603375 31.372734 252.8115 
Q 32.068359 253.019625 32.677734 253.435875 
z
M 39.749766 253.04775 
L 39.749766 254.20275 
Q 39.076641 253.88025 38.478516 253.72275 
Q 37.880391 253.563375 37.323516 253.563375 
Q 36.357891 253.563375 35.832891 253.938375 
Q 35.307891 254.313375 35.307891 255.00525 
Q 35.307891 255.5865 35.656641 255.88275 
Q 36.005391 256.177125 36.978516 256.359 
L 37.692891 256.50525 
Q 39.016641 256.758375 39.646641 257.394 
Q 40.276641 258.029625 40.276641 259.094625 
Q 40.276641 260.36775 39.423516 261.024 
Q 38.572266 261.68025 36.926016 261.68025 
Q 36.305391 261.68025 35.604141 261.539625 
Q 34.904766 261.399 34.154766 261.123375 
L 34.154766 259.904625 
Q 34.874766 260.30775 35.566641 260.514 
Q 36.258516 260.718375 36.926016 260.718375 
Q 37.938516 260.718375 38.489766 260.320875 
Q 39.041016 259.9215 39.041016 259.18275 
Q 39.041016 258.539625 38.645391 258.175875 
Q 38.249766 257.812125 37.347891 257.63025 
L 36.626016 257.489625 
Q 35.302266 257.227125 34.709766 256.664625 
Q 34.119141 256.102125 34.119141 255.099 
Q 34.119141 253.938375 34.936641 253.270875 
Q 35.754141 252.603375 37.188516 252.603375 
Q 37.805391 252.603375 38.442891 252.715875 
Q 39.082266 252.8265 39.749766 253.04775 
z
M 42.433828 260.514 
L 44.366953 260.514 
L 44.366953 253.839 
L 42.263203 254.260875 
L 42.263203 253.18275 
L 44.355703 252.760875 
L 45.538828 252.760875 
L 45.538828 260.514 
L 47.471953 260.514 
L 47.471953 261.509625 
L 42.433828 261.509625 
L 42.433828 260.514 
z
M 54.754922 253.734 
L 54.754922 257.020875 
L 56.243672 257.020875 
Q 57.070547 257.020875 57.520547 256.593375 
Q 57.972422 256.165875 57.972422 255.374625 
Q 57.972422 254.589 57.520547 254.1615 
Q 57.070547 253.734 56.243672 253.734 
L 54.754922 253.734 
z
M 53.571797 252.760875 
L 56.243672 252.760875 
Q 57.715547 252.760875 58.467422 253.4265 
Q 59.221172 254.092125 59.221172 255.374625 
Q 59.221172 256.67025 58.467422 257.332125 
Q 57.715547 257.994 56.243672 257.994 
L 54.754922 257.994 
L 54.754922 261.509625 
L 53.571797 261.509625 
L 53.571797 252.760875 
z
M 62.86875 255.70275 
Q 62.0025 255.70275 61.498125 256.379625 
Q 60.99375 257.0565 60.99375 258.234 
Q 60.99375 259.4115 61.494375 260.088375 
Q 61.996875 260.76525 62.86875 260.76525 
Q 63.73125 260.76525 64.23375 260.0865 
Q 64.738125 259.405875 64.738125 258.234 
Q 64.738125 257.06775 64.23375 256.38525 
Q 63.73125 255.70275 62.86875 255.70275 
z
M 62.86875 254.789625 
Q 64.275 254.789625 65.0775 255.704625 
Q 65.881875 256.61775 65.881875 258.234 
Q 65.881875 259.844625 65.0775 260.763375 
Q 64.275 261.68025 62.86875 261.68025 
Q 61.456875 261.68025 60.65625 260.763375 
Q 59.8575 259.844625 59.8575 258.234 
Q 59.8575 256.61775 60.65625 255.704625 
Q 61.456875 254.789625 62.86875 254.789625 
z
M 68.710547 260.52525 
L 68.710547 264.00525 
L 67.626797 264.00525 
L 67.626797 254.947125 
L 68.710547 254.947125 
L 68.710547 255.94275 
Q 69.051797 255.35775 69.569297 255.074625 
Q 70.088672 254.789625 70.808672 254.789625 
Q 72.004922 254.789625 72.751172 255.738375 
Q 73.499297 256.687125 73.499297 258.234 
Q 73.499297 259.780875 72.751172 260.7315 
Q 72.004922 261.68025 70.808672 261.68025 
Q 70.088672 261.68025 69.569297 261.39525 
Q 69.051797 261.11025 68.710547 260.52525 
z
M 72.379922 258.234 
Q 72.379922 257.04525 71.890547 256.368375 
Q 71.401172 255.6915 70.546172 255.6915 
Q 69.689297 255.6915 69.199922 256.368375 
Q 68.710547 257.04525 68.710547 258.234 
Q 68.710547 259.42275 69.199922 260.099625 
Q 69.689297 260.7765 70.546172 260.7765 
Q 71.401172 260.7765 71.890547 260.099625 
Q 72.379922 259.42275 72.379922 258.234 
z
M 75.174609 258.92025 
L 75.174609 254.947125 
L 76.252734 254.947125 
L 76.252734 258.879 
Q 76.252734 259.810875 76.614609 260.27775 
Q 76.978359 260.74275 77.705859 260.74275 
Q 78.577734 260.74275 79.083984 260.185875 
Q 79.592109 259.629 79.592109 258.667125 
L 79.592109 254.947125 
L 80.670234 254.947125 
L 80.670234 261.509625 
L 79.592109 261.509625 
L 79.592109 260.500875 
Q 79.200234 261.099 78.680859 261.389625 
Q 78.163359 261.68025 77.477109 261.68025 
Q 76.346484 261.68025 75.759609 260.977125 
Q 75.174609 260.274 75.174609 258.92025 
z
M 77.887734 254.789625 
L 77.887734 254.789625 
z
M 82.890703 252.3915 
L 83.968828 252.3915 
L 83.968828 261.509625 
L 82.890703 261.509625 
L 82.890703 252.3915 
z
M 89.207813 258.2115 
Q 87.900937 258.2115 87.396563 258.509625 
Q 86.892188 258.80775 86.892188 259.529625 
Q 86.892188 260.103375 87.270938 260.440875 
Q 87.649687 260.7765 88.298438 260.7765 
Q 89.196562 260.7765 89.738438 260.140875 
Q 90.280313 259.50525 90.280313 258.4515 
L 90.280313 258.2115 
L 89.207813 258.2115 
z
M 91.358438 257.76525 
L 91.358438 261.509625 
L 90.280313 261.509625 
L 90.280313 260.514 
Q 89.910938 261.11025 89.359688 261.39525 
Q 88.808437 261.68025 88.011562 261.68025 
Q 87.004688 261.68025 86.408438 261.114 
Q 85.814063 260.54775 85.814063 259.599 
Q 85.814063 258.49275 86.554688 257.93025 
Q 87.297188 257.36775 88.767188 257.36775 
L 90.280313 257.36775 
L 90.280313 257.260875 
Q 90.280313 256.5165 89.790938 256.109625 
Q 89.301563 255.70275 88.416562 255.70275 
Q 87.854062 255.70275 87.319688 255.83775 
Q 86.787188 255.97275 86.295938 256.24275 
L 86.295938 255.24525 
Q 86.886562 255.0165 87.443438 254.904 
Q 88.000313 254.789625 88.527187 254.789625 
Q 89.952188 254.789625 90.655313 255.528375 
Q 91.358438 256.26525 91.358438 257.76525 
z
M 94.645078 253.083375 
L 94.645078 254.947125 
L 96.865078 254.947125 
L 96.865078 255.78525 
L 94.645078 255.78525 
L 94.645078 259.34775 
Q 94.645078 260.15025 94.864453 260.379 
Q 95.083828 260.60775 95.758828 260.60775 
L 96.865078 260.60775 
L 96.865078 261.509625 
L 95.758828 261.509625 
Q 94.510078 261.509625 94.035703 261.044625 
Q 93.561328 260.57775 93.561328 259.34775 
L 93.561328 255.78525 
L 92.770078 255.78525 
L 92.770078 254.947125 
L 93.561328 254.947125 
L 93.561328 253.083375 
L 94.645078 253.083375 
z
M 98.283281 254.947125 
L 99.361406 254.947125 
L 99.361406 261.509625 
L 98.283281 261.509625 
L 98.283281 254.947125 
z
M 98.283281 252.3915 
L 99.361406 252.3915 
L 99.361406 253.758375 
L 98.283281 253.758375 
L 98.283281 252.3915 
z
M 104.159766 255.70275 
Q 103.293516 255.70275 102.789141 256.379625 
Q 102.284766 257.0565 102.284766 258.234 
Q 102.284766 259.4115 102.785391 260.088375 
Q 103.287891 260.76525 104.159766 260.76525 
Q 105.022266 260.76525 105.524766 260.0865 
Q 106.029141 259.405875 106.029141 258.234 
Q 106.029141 257.06775 105.524766 256.38525 
Q 105.022266 255.70275 104.159766 255.70275 
z
M 104.159766 254.789625 
Q 105.566016 254.789625 106.368516 255.704625 
Q 107.172891 256.61775 107.172891 258.234 
Q 107.172891 259.844625 106.368516 260.763375 
Q 105.566016 261.68025 104.159766 261.68025 
Q 102.747891 261.68025 101.947266 260.763375 
Q 101.148516 259.844625 101.148516 258.234 
Q 101.148516 256.61775 101.947266 255.704625 
Q 102.747891 254.789625 104.159766 254.789625 
z
M 114.415312 257.54775 
L 114.415312 261.509625 
L 113.337187 261.509625 
L 113.337187 257.583375 
Q 113.337187 256.6515 112.973438 256.19025 
Q 112.609688 255.727125 111.884062 255.727125 
Q 111.010312 255.727125 110.505938 256.284 
Q 110.001563 256.839 110.001563 257.800875 
L 110.001563 261.509625 
L 108.917812 261.509625 
L 108.917812 254.947125 
L 110.001563 254.947125 
L 110.001563 255.967125 
Q 110.389688 255.374625 110.912813 255.082125 
Q 111.437813 254.789625 112.124063 254.789625 
Q 113.254688 254.789625 113.834063 255.489 
Q 114.415312 256.188375 114.415312 257.54775 
z
M 127.972734 257.66025 
Q 127.462734 257.66025 127.172109 258.093375 
Q 126.883359 258.5265 126.883359 259.300875 
Q 126.883359 260.062125 127.172109 260.499 
Q 127.462734 260.935875 127.972734 260.935875 
Q 128.471484 260.935875 128.760234 260.499 
Q 129.050859 260.062125 129.050859 259.300875 
Q 129.050859 258.532125 128.760234 258.097125 
Q 128.471484 257.66025 127.972734 257.66025 
z
M 127.972734 256.915875 
Q 128.898984 256.915875 129.442734 257.560875 
Q 129.988359 258.204 129.988359 259.300875 
Q 129.988359 260.395875 129.440859 261.039 
Q 128.893359 261.68025 127.972734 261.68025 
Q 127.035234 261.68025 126.489609 261.039 
Q 125.945859 260.395875 125.945859 259.300875 
Q 125.945859 258.198375 126.493359 257.557125 
Q 127.040859 256.915875 127.972734 256.915875 
z
M 121.925859 253.34775 
Q 121.421484 253.34775 121.130859 253.784625 
Q 120.842109 254.219625 120.842109 254.98275 
Q 120.842109 255.75525 121.128984 256.19025 
Q 121.415859 256.623375 121.925859 256.623375 
Q 122.435859 256.623375 122.724609 256.19025 
Q 123.015234 255.75525 123.015234 254.98275 
Q 123.015234 254.227125 122.722734 253.788375 
Q 122.430234 253.34775 121.925859 253.34775 
z
M 127.217109 252.603375 
L 128.154609 252.603375 
L 122.681484 261.68025 
L 121.743984 261.68025 
L 127.217109 252.603375 
z
M 121.925859 252.603375 
Q 122.852109 252.603375 123.401484 253.244625 
Q 123.952734 253.885875 123.952734 254.98275 
Q 123.952734 256.089 123.405234 256.728375 
Q 122.857734 257.36775 121.925859 257.36775 
Q 120.993984 257.36775 120.452109 256.7265 
Q 119.910234 256.083375 119.910234 254.98275 
Q 119.910234 253.8915 120.453984 253.248375 
Q 120.999609 252.603375 121.925859 252.603375 
z
" style="fill: #ffffff"/>
    <path d="M 17.35125 273.69825 
L 17.35125 271.348875 
L 15.418125 271.348875 
L 15.418125 270.37575 
L 18.523125 270.37575 
L 18.523125 274.13325 
Q 17.83875 274.618875 17.011875 274.86825 
Q 16.186875 275.117625 15.249375 275.117625 
Q 13.198125 275.117625 12.039375 273.9195 
Q 10.8825 272.7195 10.8825 270.582 
Q 10.8825 268.437 12.039375 267.238875 
Q 13.198125 266.04075 15.249375 266.04075 
Q 16.104375 266.04075 16.875 266.252625 
Q 17.645625 266.462625 18.29625 266.87325 
L 18.29625 268.13325 
Q 17.64 267.576375 16.90125 267.295125 
Q 16.1625 267.013875 15.34875 267.013875 
Q 13.741875 267.013875 12.935625 267.910125 
Q 12.13125 268.806375 12.13125 270.582 
Q 12.13125 272.352 12.935625 273.24825 
Q 13.741875 274.1445 15.34875 274.1445 
Q 15.975 274.1445 16.46625 274.03575 
Q 16.959375 273.927 17.35125 273.69825 
z
M 24.441328 269.391375 
Q 24.259453 269.286375 24.045703 269.237625 
Q 23.831953 269.187 23.575078 269.187 
Q 22.660078 269.187 22.170703 269.781375 
Q 21.681328 270.37575 21.681328 271.4895 
L 21.681328 274.947 
L 20.597578 274.947 
L 20.597578 268.3845 
L 21.681328 268.3845 
L 21.681328 269.4045 
Q 22.022578 268.806375 22.566328 268.517625 
Q 23.111953 268.227 23.891953 268.227 
Q 24.002578 268.227 24.137578 268.242 
Q 24.272578 268.255125 24.435703 268.285125 
L 24.441328 269.391375 
z
M 27.844922 269.140125 
Q 26.978672 269.140125 26.474297 269.817 
Q 25.969922 270.493875 25.969922 271.671375 
Q 25.969922 272.848875 26.470547 273.52575 
Q 26.973047 274.202625 27.844922 274.202625 
Q 28.707422 274.202625 29.209922 273.523875 
Q 29.714297 272.84325 29.714297 271.671375 
Q 29.714297 270.505125 29.209922 269.822625 
Q 28.707422 269.140125 27.844922 269.140125 
z
M 27.844922 268.227 
Q 29.251172 268.227 30.053672 269.142 
Q 30.858047 270.055125 30.858047 271.671375 
Q 30.858047 273.282 30.053672 274.20075 
Q 29.251172 275.117625 27.844922 275.117625 
Q 26.433047 275.117625 25.632422 274.20075 
Q 24.833672 273.282 24.833672 271.671375 
Q 24.833672 270.055125 25.632422 269.142 
Q 26.433047 268.227 27.844922 268.227 
z
M 32.017969 268.3845 
L 33.096094 268.3845 
L 34.444219 273.505125 
L 35.784844 268.3845 
L 37.056094 268.3845 
L 38.404219 273.505125 
L 39.746719 268.3845 
L 40.824844 268.3845 
L 39.107344 274.947 
L 37.836094 274.947 
L 36.424219 269.567625 
L 35.006719 274.947 
L 33.733594 274.947 
L 32.017969 268.3845 
z
M 43.525547 266.52075 
L 43.525547 268.3845 
L 45.745547 268.3845 
L 45.745547 269.222625 
L 43.525547 269.222625 
L 43.525547 272.785125 
Q 43.525547 273.587625 43.744922 273.816375 
Q 43.964297 274.045125 44.639297 274.045125 
L 45.745547 274.045125 
L 45.745547 274.947 
L 44.639297 274.947 
Q 43.390547 274.947 42.916172 274.482 
Q 42.441797 274.015125 42.441797 272.785125 
L 42.441797 269.222625 
L 41.650547 269.222625 
L 41.650547 268.3845 
L 42.441797 268.3845 
L 42.441797 266.52075 
L 43.525547 266.52075 
z
M 52.62 270.985125 
L 52.62 274.947 
L 51.541875 274.947 
L 51.541875 271.02075 
Q 51.541875 270.088875 51.178125 269.627625 
Q 50.814375 269.1645 50.08875 269.1645 
Q 49.215 269.1645 48.710625 269.721375 
Q 48.20625 270.276375 48.20625 271.23825 
L 48.20625 274.947 
L 47.1225 274.947 
L 47.1225 265.828875 
L 48.20625 265.828875 
L 48.20625 269.4045 
Q 48.594375 268.812 49.1175 268.5195 
Q 49.6425 268.227 50.32875 268.227 
Q 51.459375 268.227 52.03875 268.926375 
Q 52.62 269.62575 52.62 270.985125 
z
M 58.630547 266.19825 
L 63.657422 266.19825 
L 63.657422 267.19575 
L 59.813672 267.19575 
L 59.813672 269.773875 
L 63.282422 269.773875 
L 63.282422 270.7695 
L 59.813672 270.7695 
L 59.813672 274.947 
L 58.630547 274.947 
L 58.630547 266.19825 
z
M 68.418516 269.391375 
Q 68.236641 269.286375 68.022891 269.237625 
Q 67.809141 269.187 67.552266 269.187 
Q 66.637266 269.187 66.147891 269.781375 
Q 65.658516 270.37575 65.658516 271.4895 
L 65.658516 274.947 
L 64.574766 274.947 
L 64.574766 268.3845 
L 65.658516 268.3845 
L 65.658516 269.4045 
Q 65.999766 268.806375 66.543516 268.517625 
Q 67.089141 268.227 67.869141 268.227 
Q 67.979766 268.227 68.114766 268.242 
Q 68.249766 268.255125 68.412891 268.285125 
L 68.418516 269.391375 
z
M 71.822109 269.140125 
Q 70.955859 269.140125 70.451484 269.817 
Q 69.947109 270.493875 69.947109 271.671375 
Q 69.947109 272.848875 70.447734 273.52575 
Q 70.950234 274.202625 71.822109 274.202625 
Q 72.684609 274.202625 73.187109 273.523875 
Q 73.691484 272.84325 73.691484 271.671375 
Q 73.691484 270.505125 73.187109 269.822625 
Q 72.684609 269.140125 71.822109 269.140125 
z
M 71.822109 268.227 
Q 73.228359 268.227 74.030859 269.142 
Q 74.835234 270.055125 74.835234 271.671375 
Q 74.835234 273.282 74.030859 274.20075 
Q 73.228359 275.117625 71.822109 275.117625 
Q 70.410234 275.117625 69.609609 274.20075 
Q 68.810859 273.282 68.810859 271.671375 
Q 68.810859 270.055125 69.609609 269.142 
Q 70.410234 268.227 71.822109 268.227 
z
M 81.730781 269.6445 
Q 82.135781 268.917 82.698281 268.572 
Q 83.260781 268.227 84.022031 268.227 
Q 85.047656 268.227 85.604531 268.945125 
Q 86.161406 269.661375 86.161406 270.985125 
L 86.161406 274.947 
L 85.077656 274.947 
L 85.077656 271.02075 
Q 85.077656 270.077625 84.742031 269.622 
Q 84.408281 269.1645 83.723906 269.1645 
Q 82.885781 269.1645 82.398281 269.721375 
Q 81.912656 270.276375 81.912656 271.23825 
L 81.912656 274.947 
L 80.828906 274.947 
L 80.828906 271.02075 
Q 80.828906 270.072 80.495156 269.61825 
Q 80.161406 269.1645 79.463906 269.1645 
Q 78.637031 269.1645 78.149531 269.72325 
Q 77.663906 270.282 77.663906 271.23825 
L 77.663906 274.947 
L 76.580156 274.947 
L 76.580156 268.3845 
L 77.663906 268.3845 
L 77.663906 269.4045 
Q 78.033281 268.80075 78.548906 268.513875 
Q 79.064531 268.227 79.773281 268.227 
Q 80.489531 268.227 80.990156 268.59075 
Q 81.490781 268.952625 81.730781 269.6445 
z
M 93.297188 273.951375 
L 97.427813 273.951375 
L 97.427813 274.947 
L 91.874063 274.947 
L 91.874063 273.951375 
Q 92.547188 273.253875 93.709688 272.080125 
Q 94.874063 270.9045 95.172188 270.56325 
Q 95.740313 269.92575 95.965313 269.48325 
Q 96.192188 269.04075 96.192188 268.61325 
Q 96.192188 267.91575 95.702813 267.477 
Q 95.213438 267.036375 94.427813 267.036375 
Q 93.870938 267.036375 93.252188 267.2295 
Q 92.635313 267.422625 91.932188 267.816375 
L 91.932188 266.620125 
Q 92.646563 266.33325 93.267188 266.187 
Q 93.889688 266.04075 94.405313 266.04075 
Q 95.764688 266.04075 96.572813 266.721375 
Q 97.380938 267.400125 97.380938 268.536375 
Q 97.380938 269.076375 97.178438 269.560125 
Q 96.977812 270.042 96.443438 270.69825 
Q 96.297188 270.868875 95.511563 271.68075 
Q 94.727812 272.492625 93.297188 273.951375 
z
M 102.443203 266.97825 
Q 101.530078 266.97825 101.068828 267.87825 
Q 100.609453 268.776375 100.609453 270.582 
Q 100.609453 272.380125 101.068828 273.280125 
Q 101.530078 274.180125 102.443203 274.180125 
Q 103.363828 274.180125 103.823203 273.280125 
Q 104.284453 272.380125 104.284453 270.582 
Q 104.284453 268.776375 103.823203 267.87825 
Q 103.363828 266.97825 102.443203 266.97825 
z
M 102.443203 266.04075 
Q 103.915078 266.04075 104.691328 267.205125 
Q 105.467578 268.367625 105.467578 270.582 
Q 105.467578 272.79075 104.691328 273.955125 
Q 103.915078 275.117625 102.443203 275.117625 
Q 100.973203 275.117625 100.196953 273.955125 
Q 99.420703 272.79075 99.420703 270.582 
Q 99.420703 268.367625 100.196953 267.205125 
Q 100.973203 266.04075 102.443203 266.04075 
z
M 107.752969 273.951375 
L 109.686094 273.951375 
L 109.686094 267.276375 
L 107.582344 267.69825 
L 107.582344 266.620125 
L 109.674844 266.19825 
L 110.857969 266.19825 
L 110.857969 273.951375 
L 112.791094 273.951375 
L 112.791094 274.947 
L 107.752969 274.947 
L 107.752969 273.951375 
z
M 115.217109 274.765125 
L 115.217109 273.687 
Q 115.663359 273.898875 116.118984 274.0095 
Q 116.576484 274.120125 117.017109 274.120125 
Q 118.188984 274.120125 118.805859 273.332625 
Q 119.424609 272.545125 119.512734 270.93825 
Q 119.173359 271.442625 118.650234 271.712625 
Q 118.128984 271.982625 117.497109 271.982625 
Q 116.184609 271.982625 115.419609 271.1895 
Q 114.654609 270.3945 114.654609 269.016375 
Q 114.654609 267.670125 115.451484 266.856375 
Q 116.248359 266.04075 117.572109 266.04075 
Q 119.090859 266.04075 119.889609 267.205125 
Q 120.690234 268.367625 120.690234 270.582 
Q 120.690234 272.650125 119.707734 273.883875 
Q 118.727109 275.117625 117.069609 275.117625 
Q 116.623359 275.117625 116.165859 275.0295 
Q 115.710234 274.941375 115.217109 274.765125 
z
M 117.572109 271.056375 
Q 118.368984 271.056375 118.833984 270.512625 
Q 119.300859 269.967 119.300859 269.016375 
Q 119.300859 268.07325 118.833984 267.52575 
Q 118.368984 266.97825 117.572109 266.97825 
Q 116.775234 266.97825 116.310234 267.52575 
Q 115.845234 268.07325 115.845234 269.016375 
Q 115.845234 269.967 116.310234 270.512625 
Q 116.775234 271.056375 117.572109 271.056375 
z
M 127.545703 266.52075 
L 127.545703 268.3845 
L 129.765703 268.3845 
L 129.765703 269.222625 
L 127.545703 269.222625 
L 127.545703 272.785125 
Q 127.545703 273.587625 127.765078 273.816375 
Q 127.984453 274.045125 128.659453 274.045125 
L 129.765703 274.045125 
L 129.765703 274.947 
L 128.659453 274.947 
Q 127.410703 274.947 126.936328 274.482 
Q 126.461953 274.015125 126.461953 272.785125 
L 126.461953 269.222625 
L 125.670703 269.222625 
L 125.670703 268.3845 
L 126.461953 268.3845 
L 126.461953 266.52075 
L 127.545703 266.52075 
z
M 133.726406 269.140125 
Q 132.860156 269.140125 132.355781 269.817 
Q 131.851406 270.493875 131.851406 271.671375 
Q 131.851406 272.848875 132.352031 273.52575 
Q 132.854531 274.202625 133.726406 274.202625 
Q 134.588906 274.202625 135.091406 273.523875 
Q 135.595781 272.84325 135.595781 271.671375 
Q 135.595781 270.505125 135.091406 269.822625 
Q 134.588906 269.140125 133.726406 269.140125 
z
M 133.726406 268.227 
Q 135.132656 268.227 135.935156 269.142 
Q 136.739531 270.055125 136.739531 271.671375 
Q 136.739531 273.282 135.935156 274.20075 
Q 135.132656 275.117625 133.726406 275.117625 
Q 132.314531 275.117625 131.513906 274.20075 
Q 130.715156 273.282 130.715156 271.671375 
Q 130.715156 270.055125 131.513906 269.142 
Q 132.314531 268.227 133.726406 268.227 
z
" style="fill: #ffffff; stroke: #000000; stroke-width: 2"/>
    <path d="M 17.35125 273.69825 
L 17.35125 271.348875 
L 15.418125 271.348875 
L 15.418125 270.37575 
L 18.523125 270.37575 
L 18.523125 274.13325 
Q 17.83875 274.618875 17.011875 274.86825 
Q 16.186875 275.117625 15.249375 275.117625 
Q 13.198125 275.117625 12.039375 273.9195 
Q 10.8825 272.7195 10.8825 270.582 
Q 10.8825 268.437 12.039375 267.238875 
Q 13.198125 266.04075 15.249375 266.04075 
Q 16.104375 266.04075 16.875 266.252625 
Q 17.645625 266.462625 18.29625 266.87325 
L 18.29625 268.13325 
Q 17.64 267.576375 16.90125 267.295125 
Q 16.1625 267.013875 15.34875 267.013875 
Q 13.741875 267.013875 12.935625 267.910125 
Q 12.13125 268.806375 12.13125 270.582 
Q 12.13125 272.352 12.935625 273.24825 
Q 13.741875 274.1445 15.34875 274.1445 
Q 15.975 274.1445 16.46625 274.03575 
Q 16.959375 273.927 17.35125 273.69825 
z
M 24.441328 269.391375 
Q 24.259453 269.286375 24.045703 269.237625 
Q 23.831953 269.187 23.575078 269.187 
Q 22.660078 269.187 22.170703 269.781375 
Q 21.681328 270.37575 21.681328 271.4895 
L 21.681328 274.947 
L 20.597578 274.947 
L 20.597578 268.3845 
L 21.681328 268.3845 
L 21.681328 269.4045 
Q 22.022578 268.806375 22.566328 268.517625 
Q 23.111953 268.227 23.891953 268.227 
Q 24.002578 268.227 24.137578 268.242 
Q 24.272578 268.255125 24.435703 268.285125 
L 24.441328 269.391375 
z
M 27.844922 269.140125 
Q 26.978672 269.140125 26.474297 269.817 
Q 25.969922 270.493875 25.969922 271.671375 
Q 25.969922 272.848875 26.470547 273.52575 
Q 26.973047 274.202625 27.844922 274.202625 
Q 28.707422 274.202625 29.209922 273.523875 
Q 29.714297 272.84325 29.714297 271.671375 
Q 29.714297 270.505125 29.209922 269.822625 
Q 28.707422 269.140125 27.844922 269.140125 
z
M 27.844922 268.227 
Q 29.251172 268.227 30.053672 269.142 
Q 30.858047 270.055125 30.858047 271.671375 
Q 30.858047 273.282 30.053672 274.20075 
Q 29.251172 275.117625 27.844922 275.117625 
Q 26.433047 275.117625 25.632422 274.20075 
Q 24.833672 273.282 24.833672 271.671375 
Q 24.833672 270.055125 25.632422 269.142 
Q 26.433047 268.227 27.844922 268.227 
z
M 32.017969 268.3845 
L 33.096094 268.3845 
L 34.444219 273.505125 
L 35.784844 268.3845 
L 37.056094 268.3845 
L 38.404219 273.505125 
L 39.746719 268.3845 
L 40.824844 268.3845 
L 39.107344 274.947 
L 37.836094 274.947 
L 36.424219 269.567625 
L 35.006719 274.947 
L 33.733594 274.947 
L 32.017969 268.3845 
z
M 43.525547 266.52075 
L 43.525547 268.3845 
L 45.745547 268.3845 
L 45.745547 269.222625 
L 43.525547 269.222625 
L 43.525547 272.785125 
Q 43.525547 273.587625 43.744922 273.816375 
Q 43.964297 274.045125 44.639297 274.045125 
L 45.745547 274.045125 
L 45.745547 274.947 
L 44.639297 274.947 
Q 43.390547 274.947 42.916172 274.482 
Q 42.441797 274.015125 42.441797 272.785125 
L 42.441797 269.222625 
L 41.650547 269.222625 
L 41.650547 268.3845 
L 42.441797 268.3845 
L 42.441797 266.52075 
L 43.525547 266.52075 
z
M 52.62 270.985125 
L 52.62 274.947 
L 51.541875 274.947 
L 51.541875 271.02075 
Q 51.541875 270.088875 51.178125 269.627625 
Q 50.814375 269.1645 50.08875 269.1645 
Q 49.215 269.1645 48.710625 269.721375 
Q 48.20625 270.276375 48.20625 271.23825 
L 48.20625 274.947 
L 47.1225 274.947 
L 47.1225 265.828875 
L 48.20625 265.828875 
L 48.20625 269.4045 
Q 48.594375 268.812 49.1175 268.5195 
Q 49.6425 268.227 50.32875 268.227 
Q 51.459375 268.227 52.03875 268.926375 
Q 52.62 269.62575 52.62 270.985125 
z
M 58.630547 266.19825 
L 63.657422 266.19825 
L 63.657422 267.19575 
L 59.813672 267.19575 
L 59.813672 269.773875 
L 63.282422 269.773875 
L 63.282422 270.7695 
L 59.813672 270.7695 
L 59.813672 274.947 
L 58.630547 274.947 
L 58.630547 266.19825 
z
M 68.418516 269.391375 
Q 68.236641 269.286375 68.022891 269.237625 
Q 67.809141 269.187 67.552266 269.187 
Q 66.637266 269.187 66.147891 269.781375 
Q 65.658516 270.37575 65.658516 271.4895 
L 65.658516 274.947 
L 64.574766 274.947 
L 64.574766 268.3845 
L 65.658516 268.3845 
L 65.658516 269.4045 
Q 65.999766 268.806375 66.543516 268.517625 
Q 67.089141 268.227 67.869141 268.227 
Q 67.979766 268.227 68.114766 268.242 
Q 68.249766 268.255125 68.412891 268.285125 
L 68.418516 269.391375 
z
M 71.822109 269.140125 
Q 70.955859 269.140125 70.451484 269.817 
Q 69.947109 270.493875 69.947109 271.671375 
Q 69.947109 272.848875 70.447734 273.52575 
Q 70.950234 274.202625 71.822109 274.202625 
Q 72.684609 274.202625 73.187109 273.523875 
Q 73.691484 272.84325 73.691484 271.671375 
Q 73.691484 270.505125 73.187109 269.822625 
Q 72.684609 269.140125 71.822109 269.140125 
z
M 71.822109 268.227 
Q 73.228359 268.227 74.030859 269.142 
Q 74.835234 270.055125 74.835234 271.671375 
Q 74.835234 273.282 74.030859 274.20075 
Q 73.228359 275.117625 71.822109 275.117625 
Q 70.410234 275.117625 69.609609 274.20075 
Q 68.810859 273.282 68.810859 271.671375 
Q 68.810859 270.055125 69.609609 269.142 
Q 70.410234 268.227 71.822109 268.227 
z
M 81.730781 269.6445 
Q 82.135781 268.917 82.698281 268.572 
Q 83.260781 268.227 84.022031 268.227 
Q 85.047656 268.227 85.604531 268.945125 
Q 86.161406 269.661375 86.161406 270.985125 
L 86.161406 274.947 
L 85.077656 274.947 
L 85.077656 271.02075 
Q 85.077656 270.077625 84.742031 269.622 
Q 84.408281 269.1645 83.723906 269.1645 
Q 82.885781 269.1645 82.398281 269.721375 
Q 81.912656 270.276375 81.912656 271.23825 
L 81.912656 274.947 
L 80.828906 274.947 
L 80.828906 271.02075 
Q 80.828906 270.072 80.495156 269.61825 
Q 80.161406 269.1645 79.463906 269.1645 
Q 78.637031 269.1645 78.149531 269.72325 
Q 77.663906 270.282 77.663906 271.23825 
L 77.663906 274.947 
L 76.580156 274.947 
L 76.580156 268.3845 
L 77.663906 268.3845 
L 77.663906 269.4045 
Q 78.033281 268.80075 78.548906 268.513875 
Q 79.064531 268.227 79.773281 268.227 
Q 80.489531 268.227 80.990156 268.59075 
Q 81.490781 268.952625 81.730781 269.6445 
z
M 93.297188 273.951375 
L 97.427813 273.951375 
L 97.427813 274.947 
L 91.874063 274.947 
L 91.874063 273.951375 
Q 92.547188 273.253875 93.709688 272.080125 
Q 94.874063 270.9045 95.172188 270.56325 
Q 95.740313 269.92575 95.965313 269.48325 
Q 96.192188 269.04075 96.192188 268.61325 
Q 96.192188 267.91575 95.702813 267.477 
Q 95.213438 267.036375 94.427813 267.036375 
Q 93.870938 267.036375 93.252188 267.2295 
Q 92.635313 267.422625 91.932188 267.816375 
L 91.932188 266.620125 
Q 92.646563 266.33325 93.267188 266.187 
Q 93.889688 266.04075 94.405313 266.04075 
Q 95.764688 266.04075 96.572813 266.721375 
Q 97.380938 267.400125 97.380938 268.536375 
Q 97.380938 269.076375 97.178438 269.560125 
Q 96.977812 270.042 96.443438 270.69825 
Q 96.297188 270.868875 95.511563 271.68075 
Q 94.727812 272.492625 93.297188 273.951375 
z
M 102.443203 266.97825 
Q 101.530078 266.97825 101.068828 267.87825 
Q 100.609453 268.776375 100.609453 270.582 
Q 100.609453 272.380125 101.068828 273.280125 
Q 101.530078 274.180125 102.443203 274.180125 
Q 103.363828 274.180125 103.823203 273.280125 
Q 104.284453 272.380125 104.284453 270.582 
Q 104.284453 268.776375 103.823203 267.87825 
Q 103.363828 266.97825 102.443203 266.97825 
z
M 102.443203 266.04075 
Q 103.915078 266.04075 104.691328 267.205125 
Q 105.467578 268.367625 105.467578 270.582 
Q 105.467578 272.79075 104.691328 273.955125 
Q 103.915078 275.117625 102.443203 275.117625 
Q 100.973203 275.117625 100.196953 273.955125 
Q 99.420703 272.79075 99.420703 270.582 
Q 99.420703 268.367625 100.196953 267.205125 
Q 100.973203 266.04075 102.443203 266.04075 
z
M 107.752969 273.951375 
L 109.686094 273.951375 
L 109.686094 267.276375 
L 107.582344 267.69825 
L 107.582344 266.620125 
L 109.674844 266.19825 
L 110.857969 266.19825 
L 110.857969 273.951375 
L 112.791094 273.951375 
L 112.791094 274.947 
L 107.752969 274.947 
L 107.752969 273.951375 
z
M 115.217109 274.765125 
L 115.217109 273.687 
Q 115.663359 273.898875 116.118984 274.0095 
Q 116.576484 274.120125 117.017109 274.120125 
Q 118.188984 274.120125 118.805859 273.332625 
Q 119.424609 272.545125 119.512734 270.93825 
Q 119.173359 271.442625 118.650234 271.712625 
Q 118.128984 271.982625 117.497109 271.982625 
Q 116.184609 271.982625 115.419609 271.1895 
Q 114.654609 270.3945 114.654609 269.016375 
Q 114.654609 267.670125 115.451484 266.856375 
Q 116.248359 266.04075 117.572109 266.04075 
Q 119.090859 266.04075 119.889609 267.205125 
Q 120.690234 268.367625 120.690234 270.582 
Q 120.690234 272.650125 119.707734 273.883875 
Q 118.727109 275.117625 117.069609 275.117625 
Q 116.623359 275.117625 116.165859 275.0295 
Q 115.710234 274.941375 115.217109 274.765125 
z
M 117.572109 271.056375 
Q 118.368984 271.056375 118.833984 270.512625 
Q 119.300859 269.967 119.300859 269.016375 
Q 119.300859 268.07325 118.833984 267.52575 
Q 118.368984 266.97825 117.572109 266.97825 
Q 116.775234 266.97825 116.310234 267.52575 
Q 115.845234 268.07325 115.845234 269.016375 
Q 115.845234 269.967 116.310234 270.512625 
Q 116.775234 271.056375 117.572109 271.056375 
z
M 127.545703 266.52075 
L 127.545703 268.3845 
L 129.765703 268.3845 
L 129.765703 269.222625 
L 127.545703 269.222625 
L 127.545703 272.785125 
Q 127.545703 273.587625 127.765078 273.816375 
Q 127.984453 274.045125 128.659453 274.045125 
L 129.765703 274.045125 
L 129.765703 274.947 
L 128.659453 274.947 
Q 127.410703 274.947 126.936328 274.482 
Q 126.461953 274.015125 126.461953 272.785125 
L 126.461953 269.222625 
L 125.670703 269.222625 
L 125.670703 268.3845 
L 126.461953 268.3845 
L 126.461953 266.52075 
L 127.545703 266.52075 
z
M 133.726406 269.140125 
Q 132.860156 269.140125 132.355781 269.817 
Q 131.851406 270.493875 131.851406 271.671375 
Q 131.851406 272.848875 132.352031 273.52575 
Q 132.854531 274.202625 133.726406 274.202625 
Q 134.588906 274.202625 135.091406 273.523875 
Q 135.595781 272.84325 135.595781 271.671375 
Q 135.595781 270.505125 135.091406 269.822625 
Q 134.588906 269.140125 133.726406 269.140125 
z
M 133.726406 268.227 
Q 135.132656 268.227 135.935156 269.142 
Q 136.739531 270.055125 136.739531 271.671375 
Q 136.739531 273.282 135.935156 274.20075 
Q 135.132656 275.117625 133.726406 275.117625 
Q 132.314531 275.117625 131.513906 274.20075 
Q 130.715156 273.282 130.715156 271.671375 
Q 130.715156 270.055125 131.513906 269.142 
Q 132.314531 268.227 133.726406 268.227 
z
" style="fill: #ffffff"/>
    <path d="M 60.8325 287.38875 
L 64.963125 287.38875 
L 64.963125 288.384375 
L 59.409375 288.384375 
L 59.409375 287.38875 
Q 60.0825 286.69125 61.245 285.5175 
Q 62.409375 284.341875 62.7075 284.000625 
Q 63.275625 283.363125 63.500625 282.920625 
Q 63.7275 282.478125 63.7275 282.050625 
Q 63.7275 281.353125 63.238125 280.914375 
Q 62.74875 280.47375 61.963125 280.47375 
Q 61.40625 280.47375 60.7875 280.666875 
Q 60.170625 280.86 59.4675 281.25375 
L 59.4675 280.0575 
Q 60.181875 279.770625 60.8025 279.624375 
Q 61.425 279.478125 61.940625 279.478125 
Q 63.3 279.478125 64.108125 280.15875 
Q 64.91625 280.8375 64.91625 281.97375 
Q 64.91625 282.51375 64.71375 282.9975 
Q 64.513125 283.479375 63.97875 284.135625 
Q 63.8325 284.30625 63.046875 285.118125 
Q 62.263125 285.93 60.8325 287.38875 
z
M 69.978516 280.415625 
Q 69.065391 280.415625 68.604141 281.315625 
Q 68.144766 282.21375 68.144766 284.019375 
Q 68.144766 285.8175 68.604141 286.7175 
Q 69.065391 287.6175 69.978516 287.6175 
Q 70.899141 287.6175 71.358516 286.7175 
Q 71.819766 285.8175 71.819766 284.019375 
Q 71.819766 282.21375 71.358516 281.315625 
Q 70.899141 280.415625 69.978516 280.415625 
z
M 69.978516 279.478125 
Q 71.450391 279.478125 72.226641 280.6425 
Q 73.002891 281.805 73.002891 284.019375 
Q 73.002891 286.228125 72.226641 287.3925 
Q 71.450391 288.555 69.978516 288.555 
Q 68.508516 288.555 67.732266 287.3925 
Q 66.956016 286.228125 66.956016 284.019375 
Q 66.956016 281.805 67.732266 280.6425 
Q 68.508516 279.478125 69.978516 279.478125 
z
M 76.102031 287.38875 
L 80.232656 287.38875 
L 80.232656 288.384375 
L 74.678906 288.384375 
L 74.678906 287.38875 
Q 75.352031 286.69125 76.514531 285.5175 
Q 77.678906 284.341875 77.977031 284.000625 
Q 78.545156 283.363125 78.770156 282.920625 
Q 78.997031 282.478125 78.997031 282.050625 
Q 78.997031 281.353125 78.507656 280.914375 
Q 78.018281 280.47375 77.232656 280.47375 
Q 76.675781 280.47375 76.057031 280.666875 
Q 75.440156 280.86 74.737031 281.25375 
L 74.737031 280.0575 
Q 75.451406 279.770625 76.072031 279.624375 
Q 76.694531 279.478125 77.210156 279.478125 
Q 78.569531 279.478125 79.377656 280.15875 
Q 80.185781 280.8375 80.185781 281.97375 
Q 80.185781 282.51375 79.983281 282.9975 
Q 79.782656 283.479375 79.248281 284.135625 
Q 79.102031 284.30625 78.316406 285.118125 
Q 77.532656 285.93 76.102031 287.38875 
z
M 82.923047 287.38875 
L 84.856172 287.38875 
L 84.856172 280.71375 
L 82.752422 281.135625 
L 82.752422 280.0575 
L 84.844922 279.635625 
L 86.028047 279.635625 
L 86.028047 287.38875 
L 87.961172 287.38875 
L 87.961172 288.384375 
L 82.923047 288.384375 
L 82.923047 287.38875 
z
" style="fill: #ffffff; stroke: #000000; stroke-width: 2"/>
    <path d="M 60.8325 287.38875 
L 64.963125 287.38875 
L 64.963125 288.384375 
L 59.409375 288.384375 
L 59.409375 287.38875 
Q 60.0825 286.69125 61.245 285.5175 
Q 62.409375 284.341875 62.7075 284.000625 
Q 63.275625 283.363125 63.500625 282.920625 
Q 63.7275 282.478125 63.7275 282.050625 
Q 63.7275 281.353125 63.238125 280.914375 
Q 62.74875 280.47375 61.963125 280.47375 
Q 61.40625 280.47375 60.7875 280.666875 
Q 60.170625 280.86 59.4675 281.25375 
L 59.4675 280.0575 
Q 60.181875 279.770625 60.8025 279.624375 
Q 61.425 279.478125 61.940625 279.478125 
Q 63.3 279.478125 64.108125 280.15875 
Q 64.91625 280.8375 64.91625 281.97375 
Q 64.91625 282.51375 64.71375 282.9975 
Q 64.513125 283.479375 63.97875 284.135625 
Q 63.8325 284.30625 63.046875 285.118125 
Q 62.263125 285.93 60.8325 287.38875 
z
M 69.978516 280.415625 
Q 69.065391 280.415625 68.604141 281.315625 
Q 68.144766 282.21375 68.144766 284.019375 
Q 68.144766 285.8175 68.604141 286.7175 
Q 69.065391 287.6175 69.978516 287.6175 
Q 70.899141 287.6175 71.358516 286.7175 
Q 71.819766 285.8175 71.819766 284.019375 
Q 71.819766 282.21375 71.358516 281.315625 
Q 70.899141 280.415625 69.978516 280.415625 
z
M 69.978516 279.478125 
Q 71.450391 279.478125 72.226641 280.6425 
Q 73.002891 281.805 73.002891 284.019375 
Q 73.002891 286.228125 72.226641 287.3925 
Q 71.450391 288.555 69.978516 288.555 
Q 68.508516 288.555 67.732266 287.3925 
Q 66.956016 286.228125 66.956016 284.019375 
Q 66.956016 281.805 67.732266 280.6425 
Q 68.508516 279.478125 69.978516 279.478125 
z
M 76.102031 287.38875 
L 80.232656 287.38875 
L 80.232656 288.384375 
L 74.678906 288.384375 
L 74.678906 287.38875 
Q 75.352031 286.69125 76.514531 285.5175 
Q 77.678906 284.341875 77.977031 284.000625 
Q 78.545156 283.363125 78.770156 282.920625 
Q 78.997031 282.478125 78.997031 282.050625 
Q 78.997031 281.353125 78.507656 280.914375 
Q 78.018281 280.47375 77.232656 280.47375 
Q 76.675781 280.47375 76.057031 280.666875 
Q 75.440156 280.86 74.737031 281.25375 
L 74.737031 280.0575 
Q 75.451406 279.770625 76.072031 279.624375 
Q 76.694531 279.478125 77.210156 279.478125 
Q 78.569531 279.478125 79.377656 280.15875 
Q 80.185781 280.8375 80.185781 281.97375 
Q 80.185781 282.51375 79.983281 282.9975 
Q 79.782656 283.479375 79.248281 284.135625 
Q 79.102031 284.30625 78.316406 285.118125 
Q 77.532656 285.93 76.102031 287.38875 
z
M 82.923047 287.38875 
L 84.856172 287.38875 
L 84.856172 280.71375 
L 82.752422 281.135625 
L 82.752422 280.0575 
L 84.844922 279.635625 
L 86.028047 279.635625 
L 86.028047 287.38875 
L 87.961172 287.38875 
L 87.961172 288.384375 
L 82.923047 288.384375 
L 82.923047 287.38875 
z
" style="fill: #ffffff"/>
   </g>
  </g>
  <g id="axes_3">
   <g id="patch_4">
    <path d="M 104.982353 290.88 
L 129.6 290.88 
L 129.6 69.12 
L 104.982353 69.12 
L 104.982353 290.88 
z
" style="fill: none"/>
   </g>
  </g>
  <g id="axes_4">
   <g id="patch_5">
    <path d="M 18 512.64 
L 42.617647 512.64 
L 42.617647 290.88 
L 18 290.88 
L 18 512.64 
z
" style="fill: none"/>
   </g>
  </g>
  <g id="axes_5">
   <g id="patch_6">
    <path d="M 49.182353 512.64 
L 98.417647 512.64 
L 98.417647 290.88 
L 49.182353 290.88 
L 49.182353 512.64 
z
" style="fill: none"/>
   </g>
   <g id="patch_7">
    <path d="M 49.182353 502.56 
L 96.073109 502.56 
L 96.073109 477.36 
L 49.182353 477.36 
z
" clip-path="url(#p91669a7ff9)" style="fill: #d73027"/>
   </g>
   <g id="patch_8">
    <path d="M 49.182353 477.36 
L 96.073109 477.36 
L 96.073109 452.16 
L 49.182353 452.16 
z
" clip-path="url(#p91669a7ff9)" style="fill: #f46d43"/>
   </g>
   <g id="patch_9">
    <path d="M 49.182353 452.16 
L 96.073109 452.16 
L 96.073109 426.96 
L 49.182353 426.96 
z
" clip-path="url(#p91669a7ff9)" style="fill: #fdae61"/>
   </g>
   <g id="patch_10">
    <path d="M 49.182353 426.96 
L 96.073109 426.96 
L 96.073109 401.76 
L 49.182353 401.76 
z
" clip-path="url(#p91669a7ff9)" style="fill: #fee08b"/>
   </g>
   <g id="patch_11">
    <path d="M 49.182353 401.76 
L 96.073109 401.76 
L 96.073109 376.56 
L 49.182353 376.56 
z
" clip-path="url(#p91669a7ff9)" style="fill: #d9ef8b"/>
   </g>
   <g id="patch_12">
    <path d="M 49.182353 376.56 
L 96.073109 376.56 
L 96.073109 351.36 
L 49.182353 351.36 
z
" clip-path="url(#p91669a7ff9)" style="fill: #a6d96a"/>
   </g>
   <g id="patch_13">
    <path d="M 49.182353 351.36 
L 96.073109 351.36 
L 96.073109 326.16 
L 49.182353 326.16 
z
" clip-path="url(#p91669a7ff9)" style="fill: #66bd63"/>
   </g>
   <g id="patch_14">
    <path d="M 49.182353 326.16 
L 96.073109 326.16 
L 96.073109 300.96 
L 49.182353 300.96 
z
" clip-path="url(#p91669a7ff9)" style="fill: #1a9850"/>
   </g>
   <g id="text_2">
    <path d="M 55.985231 503.59125 
L 59.663981 503.59125 
L 59.663981 505.295625 
L 55.985231 505.295625 
L 55.985231 503.59125 
z
M 61.586325 499.149375 
L 67.19445 499.149375 
L 67.19445 500.80875 
L 63.386325 500.80875 
L 63.386325 502.1625 
Q 63.6432 502.09125 63.903825 502.05375 
Q 64.16445 502.014375 64.4457 502.014375 
Q 66.045075 502.014375 66.9357 502.815 
Q 67.826325 503.615625 67.826325 505.044375 
Q 67.826325 506.461875 66.85695 507.26625 
Q 65.887575 508.06875 64.16445 508.06875 
Q 63.420075 508.06875 62.6907 507.924375 
Q 61.961325 507.78 61.241325 507.4875 
L 61.241325 505.711875 
Q 61.9557 506.1225 62.59695 506.32875 
Q 63.2382 506.533125 63.8082 506.533125 
Q 64.627575 506.533125 65.0982 506.131875 
Q 65.5707 505.730625 65.5707 505.044375 
Q 65.5707 504.3525 65.0982 503.955 
Q 64.627575 503.555625 63.8082 503.555625 
Q 63.3207 503.555625 62.76945 503.683125 
Q 62.220075 503.80875 61.586325 504.07125 
L 61.586325 499.149375 
z
M 69.889059 505.63125 
L 71.998434 505.63125 
L 71.998434 507.898125 
L 69.889059 507.898125 
L 69.889059 505.63125 
z
M 78.743278 503.514375 
Q 78.743278 501.87375 78.435778 501.204375 
Q 78.128278 500.533125 77.400778 500.533125 
Q 76.675153 500.533125 76.363903 501.204375 
Q 76.052653 501.87375 76.052653 503.514375 
Q 76.052653 505.17375 76.363903 505.854375 
Q 76.675153 506.533125 77.400778 506.533125 
Q 78.122653 506.533125 78.432028 505.854375 
Q 78.743278 505.17375 78.743278 503.514375 
z
M 80.998903 503.533125 
Q 80.998903 505.70625 80.061403 506.8875 
Q 79.123903 508.06875 77.400778 508.06875 
Q 75.672028 508.06875 74.734528 506.8875 
Q 73.797028 505.70625 73.797028 503.533125 
Q 73.797028 501.3525 74.734528 500.173125 
Q 75.672028 498.991875 77.400778 498.991875 
Q 79.123903 498.991875 80.061403 500.173125 
Q 80.998903 501.3525 80.998903 503.533125 
z
M 85.915387 503.58 
Q 85.322887 503.58 85.026637 503.964375 
Q 84.730387 504.346875 84.730387 505.115625 
Q 84.730387 505.8825 85.026637 506.266875 
Q 85.322887 506.649375 85.915387 506.649375 
Q 86.511637 506.649375 86.807887 506.266875 
Q 87.104137 505.8825 87.104137 505.115625 
Q 87.104137 504.346875 86.807887 503.964375 
Q 86.511637 503.58 85.915387 503.58 
z
M 88.703512 499.378125 
L 88.703512 500.99625 
Q 88.146637 500.731875 87.653512 500.60625 
Q 87.162262 500.480625 86.693512 500.480625 
Q 85.686637 500.480625 85.124137 501.04125 
Q 84.561637 501.6 84.467887 502.700625 
Q 84.854137 502.41375 85.304137 502.27125 
Q 85.756012 502.126875 86.290387 502.126875 
Q 87.631012 502.126875 88.454137 502.9125 
Q 89.277262 503.69625 89.277262 504.9675 
Q 89.277262 506.37375 88.356637 507.22125 
Q 87.437887 508.06875 85.891012 508.06875 
Q 84.186637 508.06875 83.251012 506.9175 
Q 82.317262 505.764375 82.317262 503.649375 
Q 82.317262 501.481875 83.410387 500.2425 
Q 84.503512 499.003125 86.406637 499.003125 
Q 87.010387 499.003125 87.578512 499.096875 
Q 88.146637 499.190625 88.703512 499.378125 
z
" style="stroke: #ffffff"/>
    <path d="M 55.985231 503.59125 
L 59.663981 503.59125 
L 59.663981 505.295625 
L 55.985231 505.295625 
L 55.985231 503.59125 
z
M 61.586325 499.149375 
L 67.19445 499.149375 
L 67.19445 500.80875 
L 63.386325 500.80875 
L 63.386325 502.1625 
Q 63.6432 502.09125 63.903825 502.05375 
Q 64.16445 502.014375 64.4457 502.014375 
Q 66.045075 502.014375 66.9357 502.815 
Q 67.826325 503.615625 67.826325 505.044375 
Q 67.826325 506.461875 66.85695 507.26625 
Q 65.887575 508.06875 64.16445 508.06875 
Q 63.420075 508.06875 62.6907 507.924375 
Q 61.961325 507.78 61.241325 507.4875 
L 61.241325 505.711875 
Q 61.9557 506.1225 62.59695 506.32875 
Q 63.2382 506.533125 63.8082 506.533125 
Q 64.627575 506.533125 65.0982 506.131875 
Q 65.5707 505.730625 65.5707 505.044375 
Q 65.5707 504.3525 65.0982 503.955 
Q 64.627575 503.555625 63.8082 503.555625 
Q 63.3207 503.555625 62.76945 503.683125 
Q 62.220075 503.80875 61.586325 504.07125 
L 61.586325 499.149375 
z
M 69.889059 505.63125 
L 71.998434 505.63125 
L 71.998434 507.898125 
L 69.889059 507.898125 
L 69.889059 505.63125 
z
M 78.743278 503.514375 
Q 78.743278 501.87375 78.435778 501.204375 
Q 78.128278 500.533125 77.400778 500.533125 
Q 76.675153 500.533125 76.363903 501.204375 
Q 76.052653 501.87375 76.052653 503.514375 
Q 76.052653 505.17375 76.363903 505.854375 
Q 76.675153 506.533125 77.400778 506.533125 
Q 78.122653 506.533125 78.432028 505.854375 
Q 78.743278 505.17375 78.743278 503.514375 
z
M 80.998903 503.533125 
Q 80.998903 505.70625 80.061403 506.8875 
Q 79.123903 508.06875 77.400778 508.06875 
Q 75.672028 508.06875 74.734528 506.8875 
Q 73.797028 505.70625 73.797028 503.533125 
Q 73.797028 501.3525 74.734528 500.173125 
Q 75.672028 498.991875 77.400778 498.991875 
Q 79.123903 498.991875 80.061403 500.173125 
Q 80.998903 501.3525 80.998903 503.533125 
z
M 85.915387 503.58 
Q 85.322887 503.58 85.026637 503.964375 
Q 84.730387 504.346875 84.730387 505.115625 
Q 84.730387 505.8825 85.026637 506.266875 
Q 85.322887 506.649375 85.915387 506.649375 
Q 86.511637 506.649375 86.807887 506.266875 
Q 87.104137 505.8825 87.104137 505.115625 
Q 87.104137 504.346875 86.807887 503.964375 
Q 86.511637 503.58 85.915387 503.58 
z
M 88.703512 499.378125 
L 88.703512 500.99625 
Q 88.146637 500.731875 87.653512 500.60625 
Q 87.162262 500.480625 86.693512 500.480625 
Q 85.686637 500.480625 85.124137 501.04125 
Q 84.561637 501.6 84.467887 502.700625 
Q 84.854137 502.41375 85.304137 502.27125 
Q 85.756012 502.126875 86.290387 502.126875 
Q 87.631012 502.126875 88.454137 502.9125 
Q 89.277262 503.69625 89.277262 504.9675 
Q 89.277262 506.37375 88.356637 507.22125 
Q 87.437887 508.06875 85.891012 508.06875 
Q 84.186637 508.06875 83.251012 506.9175 
Q 82.317262 505.764375 82.317262 503.649375 
Q 82.317262 501.481875 83.410387 500.2425 
Q 84.503512 499.003125 86.406637 499.003125 
Q 87.010387 499.003125 87.578512 499.096875 
Q 88.146637 499.190625 88.703512 499.378125 
z
"/>
   </g>
   <g id="text_3">
    <path d="M 67.519294 478.314375 
Q 67.519294 476.67375 67.211794 476.004375 
Q 66.904294 475.333125 66.176794 475.333125 
Q 65.451169 475.333125 65.139919 476.004375 
Q 64.828669 476.67375 64.828669 478.314375 
Q 64.828669 479.97375 65.139919 480.654375 
Q 65.451169 481.333125 66.176794 481.333125 
Q 66.898669 481.333125 67.208044 480.654375 
Q 67.519294 479.97375 67.519294 478.314375 
z
M 69.774919 478.333125 
Q 69.774919 480.50625 68.837419 481.6875 
Q 67.899919 482.86875 66.176794 482.86875 
Q 64.448044 482.86875 63.510544 481.6875 
Q 62.573044 480.50625 62.573044 478.333125 
Q 62.573044 476.1525 63.510544 474.973125 
Q 64.448044 473.791875 66.176794 473.791875 
Q 67.899919 473.791875 68.837419 474.973125 
Q 69.774919 476.1525 69.774919 478.333125 
z
M 71.573278 480.43125 
L 73.682653 480.43125 
L 73.682653 482.698125 
L 71.573278 482.698125 
L 71.573278 480.43125 
z
M 80.427497 478.314375 
Q 80.427497 476.67375 80.119997 476.004375 
Q 79.812497 475.333125 79.084997 475.333125 
Q 78.359372 475.333125 78.048122 476.004375 
Q 77.736872 476.67375 77.736872 478.314375 
Q 77.736872 479.97375 78.048122 480.654375 
Q 78.359372 481.333125 79.084997 481.333125 
Q 79.806872 481.333125 80.116247 480.654375 
Q 80.427497 479.97375 80.427497 478.314375 
z
M 82.683122 478.333125 
Q 82.683122 480.50625 81.745622 481.6875 
Q 80.808122 482.86875 79.084997 482.86875 
Q 77.356247 482.86875 76.418747 481.6875 
Q 75.481247 480.50625 75.481247 478.333125 
Q 75.481247 476.1525 76.418747 474.973125 
Q 77.356247 473.791875 79.084997 473.791875 
Q 80.808122 473.791875 81.745622 474.973125 
Q 82.683122 476.1525 82.683122 478.333125 
z
" style="stroke: #ffffff"/>
    <path d="M 67.519294 478.314375 
Q 67.519294 476.67375 67.211794 476.004375 
Q 66.904294 475.333125 66.176794 475.333125 
Q 65.451169 475.333125 65.139919 476.004375 
Q 64.828669 476.67375 64.828669 478.314375 
Q 64.828669 479.97375 65.139919 480.654375 
Q 65.451169 481.333125 66.176794 481.333125 
Q 66.898669 481.333125 67.208044 480.654375 
Q 67.519294 479.97375 67.519294 478.314375 
z
M 69.774919 478.333125 
Q 69.774919 480.50625 68.837419 481.6875 
Q 67.899919 482.86875 66.176794 482.86875 
Q 64.448044 482.86875 63.510544 481.6875 
Q 62.573044 480.50625 62.573044 478.333125 
Q 62.573044 476.1525 63.510544 474.973125 
Q 64.448044 473.791875 66.176794 473.791875 
Q 67.899919 473.791875 68.837419 474.973125 
Q 69.774919 476.1525 69.774919 478.333125 
z
M 71.573278 480.43125 
L 73.682653 480.43125 
L 73.682653 482.698125 
L 71.573278 482.698125 
L 71.573278 480.43125 
z
M 80.427497 478.314375 
Q 80.427497 476.67375 80.119997 476.004375 
Q 79.812497 475.333125 79.084997 475.333125 
Q 78.359372 475.333125 78.048122 476.004375 
Q 77.736872 476.67375 77.736872 478.314375 
Q 77.736872 479.97375 78.048122 480.654375 
Q 78.359372 481.333125 79.084997 481.333125 
Q 79.806872 481.333125 80.116247 480.654375 
Q 80.427497 479.97375 80.427497 478.314375 
z
M 82.683122 478.333125 
Q 82.683122 480.50625 81.745622 481.6875 
Q 80.808122 482.86875 79.084997 482.86875 
Q 77.356247 482.86875 76.418747 481.6875 
Q 75.481247 480.50625 75.481247 478.333125 
Q 75.481247 476.1525 76.418747 474.973125 
Q 77.356247 473.791875 79.084997 473.791875 
Q 80.808122 473.791875 81.745622 474.973125 
Q 82.683122 476.1525 82.683122 478.333125 
z
"/>
   </g>
   <g id="text_4">
    <path d="M 63.344606 453.114375 
Q 63.344606 451.47375 63.037106 450.804375 
Q 62.729606 450.133125 62.002106 450.133125 
Q 61.276481 450.133125 60.965231 450.804375 
Q 60.653981 451.47375 60.653981 453.114375 
Q 60.653981 454.77375 60.965231 455.454375 
Q 61.276481 456.133125 62.002106 456.133125 
Q 62.723981 456.133125 63.033356 455.454375 
Q 63.344606 454.77375 63.344606 453.114375 
z
M 65.600231 453.133125 
Q 65.600231 455.30625 64.662731 456.4875 
Q 63.725231 457.66875 62.002106 457.66875 
Q 60.273356 457.66875 59.335856 456.4875 
Q 58.398356 455.30625 58.398356 453.133125 
Q 58.398356 450.9525 59.335856 449.773125 
Q 60.273356 448.591875 62.002106 448.591875 
Q 63.725231 448.591875 64.662731 449.773125 
Q 65.600231 450.9525 65.600231 453.133125 
z
M 67.39859 455.23125 
L 69.507965 455.23125 
L 69.507965 457.498125 
L 67.39859 457.498125 
L 67.39859 455.23125 
z
M 75.075309 453.18 
Q 74.482809 453.18 74.186559 453.564375 
Q 73.890309 453.946875 73.890309 454.715625 
Q 73.890309 455.4825 74.186559 455.866875 
Q 74.482809 456.249375 75.075309 456.249375 
Q 75.671559 456.249375 75.967809 455.866875 
Q 76.264059 455.4825 76.264059 454.715625 
Q 76.264059 453.946875 75.967809 453.564375 
Q 75.671559 453.18 75.075309 453.18 
z
M 77.863434 448.978125 
L 77.863434 450.59625 
Q 77.306559 450.331875 76.813434 450.20625 
Q 76.322184 450.080625 75.853434 450.080625 
Q 74.846559 450.080625 74.284059 450.64125 
Q 73.721559 451.2 73.627809 452.300625 
Q 74.014059 452.01375 74.464059 451.87125 
Q 74.915934 451.726875 75.450309 451.726875 
Q 76.790934 451.726875 77.614059 452.5125 
Q 78.437184 453.29625 78.437184 454.5675 
Q 78.437184 455.97375 77.516559 456.82125 
Q 76.597809 457.66875 75.050934 457.66875 
Q 73.346559 457.66875 72.410934 456.5175 
Q 71.477184 455.364375 71.477184 453.249375 
Q 71.477184 451.081875 72.570309 449.8425 
Q 73.663434 448.603125 75.566559 448.603125 
Q 76.170309 448.603125 76.738434 448.696875 
Q 77.306559 448.790625 77.863434 448.978125 
z
M 83.424919 453.18 
Q 82.832419 453.18 82.536169 453.564375 
Q 82.239919 453.946875 82.239919 454.715625 
Q 82.239919 455.4825 82.536169 455.866875 
Q 82.832419 456.249375 83.424919 456.249375 
Q 84.021169 456.249375 84.317419 455.866875 
Q 84.613669 455.4825 84.613669 454.715625 
Q 84.613669 453.946875 84.317419 453.564375 
Q 84.021169 453.18 83.424919 453.18 
z
M 86.213044 448.978125 
L 86.213044 450.59625 
Q 85.656169 450.331875 85.163044 450.20625 
Q 84.671794 450.080625 84.203044 450.080625 
Q 83.196169 450.080625 82.633669 450.64125 
Q 82.071169 451.2 81.977419 452.300625 
Q 82.363669 452.01375 82.813669 451.87125 
Q 83.265544 451.726875 83.799919 451.726875 
Q 85.140544 451.726875 85.963669 452.5125 
Q 86.786794 453.29625 86.786794 454.5675 
Q 86.786794 455.97375 85.866169 456.82125 
Q 84.947419 457.66875 83.400544 457.66875 
Q 81.696169 457.66875 80.760544 456.5175 
Q 79.826794 455.364375 79.826794 453.249375 
Q 79.826794 451.081875 80.919919 449.8425 
Q 82.013044 448.603125 83.916169 448.603125 
Q 84.519919 448.603125 85.088044 448.696875 
Q 85.656169 448.790625 86.213044 448.978125 
z
" style="stroke: #ffffff"/>
    <path d="M 63.344606 453.114375 
Q 63.344606 451.47375 63.037106 450.804375 
Q 62.729606 450.133125 62.002106 450.133125 
Q 61.276481 450.133125 60.965231 450.804375 
Q 60.653981 451.47375 60.653981 453.114375 
Q 60.653981 454.77375 60.965231 455.454375 
Q 61.276481 456.133125 62.002106 456.133125 
Q 62.723981 456.133125 63.033356 455.454375 
Q 63.344606 454.77375 63.344606 453.114375 
z
M 65.600231 453.133125 
Q 65.600231 455.30625 64.662731 456.4875 
Q 63.725231 457.66875 62.002106 457.66875 
Q 60.273356 457.66875 59.335856 456.4875 
Q 58.398356 455.30625 58.398356 453.133125 
Q 58.398356 450.9525 59.335856 449.773125 
Q 60.273356 448.591875 62.002106 448.591875 
Q 63.725231 448.591875 64.662731 449.773125 
Q 65.600231 450.9525 65.600231 453.133125 
z
M 67.39859 455.23125 
L 69.507965 455.23125 
L 69.507965 457.498125 
L 67.39859 457.498125 
L 67.39859 455.23125 
z
M 75.075309 453.18 
Q 74.482809 453.18 74.186559 453.564375 
Q 73.890309 453.946875 73.890309 454.715625 
Q 73.890309 455.4825 74.186559 455.866875 
Q 74.482809 456.249375 75.075309 456.249375 
Q 75.671559 456.249375 75.967809 455.866875 
Q 76.264059 455.4825 76.264059 454.715625 
Q 76.264059 453.946875 75.967809 453.564375 
Q 75.671559 453.18 75.075309 453.18 
z
M 77.863434 448.978125 
L 77.863434 450.59625 
Q 77.306559 450.331875 76.813434 450.20625 
Q 76.322184 450.080625 75.853434 450.080625 
Q 74.846559 450.080625 74.284059 450.64125 
Q 73.721559 451.2 73.627809 452.300625 
Q 74.014059 452.01375 74.464059 451.87125 
Q 74.915934 451.726875 75.450309 451.726875 
Q 76.790934 451.726875 77.614059 452.5125 
Q 78.437184 453.29625 78.437184 454.5675 
Q 78.437184 455.97375 77.516559 456.82125 
Q 76.597809 457.66875 75.050934 457.66875 
Q 73.346559 457.66875 72.410934 456.5175 
Q 71.477184 455.364375 71.477184 453.249375 
Q 71.477184 451.081875 72.570309 449.8425 
Q 73.663434 448.603125 75.566559 448.603125 
Q 76.170309 448.603125 76.738434 448.696875 
Q 77.306559 448.790625 77.863434 448.978125 
z
M 83.424919 453.18 
Q 82.832419 453.18 82.536169 453.564375 
Q 82.239919 453.946875 82.239919 454.715625 
Q 82.239919 455.4825 82.536169 455.866875 
Q 82.832419 456.249375 83.424919 456.249375 
Q 84.021169 456.249375 84.317419 455.866875 
Q 84.613669 455.4825 84.613669 454.715625 
Q 84.613669 453.946875 84.317419 453.564375 
Q 84.021169 453.18 83.424919 453.18 
z
M 86.213044 448.978125 
L 86.213044 450.59625 
Q 85.656169 450.331875 85.163044 450.20625 
Q 84.671794 450.080625 84.203044 450.080625 
Q 83.196169 450.080625 82.633669 450.64125 
Q 82.071169 451.2 81.977419 452.300625 
Q 82.363669 452.01375 82.813669 451.87125 
Q 83.265544 451.726875 83.799919 451.726875 
Q 85.140544 451.726875 85.963669 452.5125 
Q 86.786794 453.29625 86.786794 454.5675 
Q 86.786794 455.97375 85.866169 456.82125 
Q 84.947419 457.66875 83.400544 457.66875 
Q 81.696169 457.66875 80.760544 456.5175 
Q 79.826794 455.364375 79.826794 453.249375 
Q 79.826794 451.081875 80.919919 449.8425 
Q 82.013044 448.603125 83.916169 448.603125 
Q 84.519919 448.603125 85.088044 448.696875 
Q 85.656169 448.790625 86.213044 448.978125 
z
"/>
   </g>
   <g id="text_5">
    <path d="M 63.344606 427.914375 
Q 63.344606 426.27375 63.037106 425.604375 
Q 62.729606 424.933125 62.002106 424.933125 
Q 61.276481 424.933125 60.965231 425.604375 
Q 60.653981 426.27375 60.653981 427.914375 
Q 60.653981 429.57375 60.965231 430.254375 
Q 61.276481 430.933125 62.002106 430.933125 
Q 62.723981 430.933125 63.033356 430.254375 
Q 63.344606 429.57375 63.344606 427.914375 
z
M 65.600231 427.933125 
Q 65.600231 430.10625 64.662731 431.2875 
Q 63.725231 432.46875 62.002106 432.46875 
Q 60.273356 432.46875 59.335856 431.2875 
Q 58.398356 430.10625 58.398356 427.933125 
Q 58.398356 425.7525 59.335856 424.573125 
Q 60.273356 423.391875 62.002106 423.391875 
Q 63.725231 423.391875 64.662731 424.573125 
Q 65.600231 425.7525 65.600231 427.933125 
z
M 67.39859 430.03125 
L 69.507965 430.03125 
L 69.507965 432.298125 
L 67.39859 432.298125 
L 67.39859 430.03125 
z
M 71.934684 432.105 
L 71.934684 430.486875 
Q 72.472809 430.74 72.964059 430.865625 
Q 73.457184 430.99125 73.937184 430.99125 
Q 74.945934 430.99125 75.508434 430.4325 
Q 76.070934 429.871875 76.170309 428.77125 
Q 75.772809 429.06375 75.320934 429.21 
Q 74.869059 429.35625 74.342184 429.35625 
Q 72.999684 429.35625 72.176559 428.574375 
Q 71.353434 427.7925 71.353434 426.515625 
Q 71.353434 425.101875 72.270309 424.2525 
Q 73.187184 423.403125 74.728434 423.403125 
Q 76.440309 423.403125 77.377809 424.558125 
Q 78.315309 425.71125 78.315309 427.820625 
Q 78.315309 429.99 77.218434 431.229375 
Q 76.123434 432.46875 74.212809 432.46875 
Q 73.597809 432.46875 73.035309 432.376875 
Q 72.472809 432.286875 71.934684 432.105 
z
M 74.717184 427.891875 
Q 75.309684 427.891875 75.607809 427.509375 
Q 75.905934 427.125 75.905934 426.35625 
Q 75.905934 425.595 75.607809 425.20875 
Q 75.309684 424.820625 74.717184 424.820625 
Q 74.124684 424.820625 73.826559 425.20875 
Q 73.528434 425.595 73.528434 426.35625 
Q 73.528434 427.125 73.826559 427.509375 
Q 74.124684 427.891875 74.717184 427.891875 
z
M 82.539919 430.640625 
L 86.389294 430.640625 
L 86.389294 432.298125 
L 80.031169 432.298125 
L 80.031169 430.640625 
L 83.224294 427.820625 
Q 83.653669 427.434375 83.858044 427.065 
Q 84.062419 426.695625 84.062419 426.298125 
Q 84.062419 425.683125 83.649919 425.308125 
Q 83.237419 424.933125 82.551169 424.933125 
Q 82.024294 424.933125 81.396169 425.158125 
Q 80.769919 425.383125 80.055544 425.829375 
L 80.055544 423.9075 
Q 80.816794 423.65625 81.561169 423.525 
Q 82.305544 423.391875 83.019919 423.391875 
Q 84.591169 423.391875 85.461169 424.08375 
Q 86.331169 424.77375 86.331169 426.01125 
Q 86.331169 426.725625 85.961794 427.344375 
Q 85.592419 427.96125 84.409294 429 
L 82.539919 430.640625 
z
" style="stroke: #ffffff"/>
    <path d="M 63.344606 427.914375 
Q 63.344606 426.27375 63.037106 425.604375 
Q 62.729606 424.933125 62.002106 424.933125 
Q 61.276481 424.933125 60.965231 425.604375 
Q 60.653981 426.27375 60.653981 427.914375 
Q 60.653981 429.57375 60.965231 430.254375 
Q 61.276481 430.933125 62.002106 430.933125 
Q 62.723981 430.933125 63.033356 430.254375 
Q 63.344606 429.57375 63.344606 427.914375 
z
M 65.600231 427.933125 
Q 65.600231 430.10625 64.662731 431.2875 
Q 63.725231 432.46875 62.002106 432.46875 
Q 60.273356 432.46875 59.335856 431.2875 
Q 58.398356 430.10625 58.398356 427.933125 
Q 58.398356 425.7525 59.335856 424.573125 
Q 60.273356 423.391875 62.002106 423.391875 
Q 63.725231 423.391875 64.662731 424.573125 
Q 65.600231 425.7525 65.600231 427.933125 
z
M 67.39859 430.03125 
L 69.507965 430.03125 
L 69.507965 432.298125 
L 67.39859 432.298125 
L 67.39859 430.03125 
z
M 71.934684 432.105 
L 71.934684 430.486875 
Q 72.472809 430.74 72.964059 430.865625 
Q 73.457184 430.99125 73.937184 430.99125 
Q 74.945934 430.99125 75.508434 430.4325 
Q 76.070934 429.871875 76.170309 428.77125 
Q 75.772809 429.06375 75.320934 429.21 
Q 74.869059 429.35625 74.342184 429.35625 
Q 72.999684 429.35625 72.176559 428.574375 
Q 71.353434 427.7925 71.353434 426.515625 
Q 71.353434 425.101875 72.270309 424.2525 
Q 73.187184 423.403125 74.728434 423.403125 
Q 76.440309 423.403125 77.377809 424.558125 
Q 78.315309 425.71125 78.315309 427.820625 
Q 78.315309 429.99 77.218434 431.229375 
Q 76.123434 432.46875 74.212809 432.46875 
Q 73.597809 432.46875 73.035309 432.376875 
Q 72.472809 432.286875 71.934684 432.105 
z
M 74.717184 427.891875 
Q 75.309684 427.891875 75.607809 427.509375 
Q 75.905934 427.125 75.905934 426.35625 
Q 75.905934 425.595 75.607809 425.20875 
Q 75.309684 424.820625 74.717184 424.820625 
Q 74.124684 424.820625 73.826559 425.20875 
Q 73.528434 425.595 73.528434 426.35625 
Q 73.528434 427.125 73.826559 427.509375 
Q 74.124684 427.891875 74.717184 427.891875 
z
M 82.539919 430.640625 
L 86.389294 430.640625 
L 86.389294 432.298125 
L 80.031169 432.298125 
L 80.031169 430.640625 
L 83.224294 427.820625 
Q 83.653669 427.434375 83.858044 427.065 
Q 84.062419 426.695625 84.062419 426.298125 
Q 84.062419 425.683125 83.649919 425.308125 
Q 83.237419 424.933125 82.551169 424.933125 
Q 82.024294 424.933125 81.396169 425.158125 
Q 80.769919 425.383125 80.055544 425.829375 
L 80.055544 423.9075 
Q 80.816794 423.65625 81.561169 423.525 
Q 82.305544 423.391875 83.019919 423.391875 
Q 84.591169 423.391875 85.461169 424.08375 
Q 86.331169 424.77375 86.331169 426.01125 
Q 86.331169 426.725625 85.961794 427.344375 
Q 85.592419 427.96125 84.409294 429 
L 82.539919 430.640625 
z
"/>
   </g>
   <g id="text_6">
    <path d="M 59.230856 405.54 
L 61.223981 405.54 
L 61.223981 399.885 
L 59.178356 400.306875 
L 59.178356 398.77125 
L 61.210856 398.349375 
L 63.355856 398.349375 
L 63.355856 405.54 
L 65.348981 405.54 
L 65.348981 407.098125 
L 59.230856 407.098125 
L 59.230856 405.54 
z
M 67.39859 404.83125 
L 69.507965 404.83125 
L 69.507965 407.098125 
L 67.39859 407.098125 
L 67.39859 404.83125 
z
M 74.190309 405.440625 
L 78.039684 405.440625 
L 78.039684 407.098125 
L 71.681559 407.098125 
L 71.681559 405.440625 
L 74.874684 402.620625 
Q 75.304059 402.234375 75.508434 401.865 
Q 75.712809 401.495625 75.712809 401.098125 
Q 75.712809 400.483125 75.300309 400.108125 
Q 74.887809 399.733125 74.201559 399.733125 
Q 73.674684 399.733125 73.046559 399.958125 
Q 72.420309 400.183125 71.705934 400.629375 
L 71.705934 398.7075 
Q 72.467184 398.45625 73.211559 398.325 
Q 73.955934 398.191875 74.670309 398.191875 
Q 76.241559 398.191875 77.111559 398.88375 
Q 77.981559 399.57375 77.981559 400.81125 
Q 77.981559 401.525625 77.612184 402.144375 
Q 77.242809 402.76125 76.059684 403.8 
L 74.190309 405.440625 
z
M 80.488669 405.54 
L 82.481794 405.54 
L 82.481794 399.885 
L 80.436169 400.306875 
L 80.436169 398.77125 
L 82.468669 398.349375 
L 84.613669 398.349375 
L 84.613669 405.54 
L 86.606794 405.54 
L 86.606794 407.098125 
L 80.488669 407.098125 
L 80.488669 405.54 
z
" style="stroke: #ffffff"/>
    <path d="M 59.230856 405.54 
L 61.223981 405.54 
L 61.223981 399.885 
L 59.178356 400.306875 
L 59.178356 398.77125 
L 61.210856 398.349375 
L 63.355856 398.349375 
L 63.355856 405.54 
L 65.348981 405.54 
L 65.348981 407.098125 
L 59.230856 407.098125 
L 59.230856 405.54 
z
M 67.39859 404.83125 
L 69.507965 404.83125 
L 69.507965 407.098125 
L 67.39859 407.098125 
L 67.39859 404.83125 
z
M 74.190309 405.440625 
L 78.039684 405.440625 
L 78.039684 407.098125 
L 71.681559 407.098125 
L 71.681559 405.440625 
L 74.874684 402.620625 
Q 75.304059 402.234375 75.508434 401.865 
Q 75.712809 401.495625 75.712809 401.098125 
Q 75.712809 400.483125 75.300309 400.108125 
Q 74.887809 399.733125 74.201559 399.733125 
Q 73.674684 399.733125 73.046559 399.958125 
Q 72.420309 400.183125 71.705934 400.629375 
L 71.705934 398.7075 
Q 72.467184 398.45625 73.211559 398.325 
Q 73.955934 398.191875 74.670309 398.191875 
Q 76.241559 398.191875 77.111559 398.88375 
Q 77.981559 399.57375 77.981559 400.81125 
Q 77.981559 401.525625 77.612184 402.144375 
Q 77.242809 402.76125 76.059684 403.8 
L 74.190309 405.440625 
z
M 80.488669 405.54 
L 82.481794 405.54 
L 82.481794 399.885 
L 80.436169 400.306875 
L 80.436169 398.77125 
L 82.468669 398.349375 
L 84.613669 398.349375 
L 84.613669 405.54 
L 86.606794 405.54 
L 86.606794 407.098125 
L 80.488669 407.098125 
L 80.488669 405.54 
z
"/>
   </g>
   <g id="text_7">
    <path d="M 59.230856 380.34 
L 61.223981 380.34 
L 61.223981 374.685 
L 59.178356 375.106875 
L 59.178356 373.57125 
L 61.210856 373.149375 
L 63.355856 373.149375 
L 63.355856 380.34 
L 65.348981 380.34 
L 65.348981 381.898125 
L 59.230856 381.898125 
L 59.230856 380.34 
z
M 67.39859 379.63125 
L 69.507965 379.63125 
L 69.507965 381.898125 
L 67.39859 381.898125 
L 67.39859 379.63125 
z
M 72.004059 373.149375 
L 77.612184 373.149375 
L 77.612184 374.80875 
L 73.804059 374.80875 
L 73.804059 376.1625 
Q 74.060934 376.09125 74.321559 376.05375 
Q 74.582184 376.014375 74.863434 376.014375 
Q 76.462809 376.014375 77.353434 376.815 
Q 78.244059 377.615625 78.244059 379.044375 
Q 78.244059 380.461875 77.274684 381.26625 
Q 76.305309 382.06875 74.582184 382.06875 
Q 73.837809 382.06875 73.108434 381.924375 
Q 72.379059 381.78 71.659059 381.4875 
L 71.659059 379.711875 
Q 72.373434 380.1225 73.014684 380.32875 
Q 73.655934 380.533125 74.225934 380.533125 
Q 75.045309 380.533125 75.515934 380.131875 
Q 75.988434 379.730625 75.988434 379.044375 
Q 75.988434 378.3525 75.515934 377.955 
Q 75.045309 377.555625 74.225934 377.555625 
Q 73.738434 377.555625 73.187184 377.683125 
Q 72.637809 377.80875 72.004059 378.07125 
L 72.004059 373.149375 
z
M 83.499919 375.0075 
L 81.028669 378.669375 
L 83.499919 378.669375 
L 83.499919 375.0075 
z
M 83.124919 373.149375 
L 85.633669 373.149375 
L 85.633669 378.669375 
L 86.880544 378.669375 
L 86.880544 380.304375 
L 85.633669 380.304375 
L 85.633669 381.898125 
L 83.499919 381.898125 
L 83.499919 380.304375 
L 79.622419 380.304375 
L 79.622419 378.37125 
L 83.124919 373.149375 
z
" style="stroke: #ffffff"/>
    <path d="M 59.230856 380.34 
L 61.223981 380.34 
L 61.223981 374.685 
L 59.178356 375.106875 
L 59.178356 373.57125 
L 61.210856 373.149375 
L 63.355856 373.149375 
L 63.355856 380.34 
L 65.348981 380.34 
L 65.348981 381.898125 
L 59.230856 381.898125 
L 59.230856 380.34 
z
M 67.39859 379.63125 
L 69.507965 379.63125 
L 69.507965 381.898125 
L 67.39859 381.898125 
L 67.39859 379.63125 
z
M 72.004059 373.149375 
L 77.612184 373.149375 
L 77.612184 374.80875 
L 73.804059 374.80875 
L 73.804059 376.1625 
Q 74.060934 376.09125 74.321559 376.05375 
Q 74.582184 376.014375 74.863434 376.014375 
Q 76.462809 376.014375 77.353434 376.815 
Q 78.244059 377.615625 78.244059 379.044375 
Q 78.244059 380.461875 77.274684 381.26625 
Q 76.305309 382.06875 74.582184 382.06875 
Q 73.837809 382.06875 73.108434 381.924375 
Q 72.379059 381.78 71.659059 381.4875 
L 71.659059 379.711875 
Q 72.373434 380.1225 73.014684 380.32875 
Q 73.655934 380.533125 74.225934 380.533125 
Q 75.045309 380.533125 75.515934 380.131875 
Q 75.988434 379.730625 75.988434 379.044375 
Q 75.988434 378.3525 75.515934 377.955 
Q 75.045309 377.555625 74.225934 377.555625 
Q 73.738434 377.555625 73.187184 377.683125 
Q 72.637809 377.80875 72.004059 378.07125 
L 72.004059 373.149375 
z
M 83.499919 375.0075 
L 81.028669 378.669375 
L 83.499919 378.669375 
L 83.499919 375.0075 
z
M 83.124919 373.149375 
L 85.633669 373.149375 
L 85.633669 378.669375 
L 86.880544 378.669375 
L 86.880544 380.304375 
L 85.633669 380.304375 
L 85.633669 381.898125 
L 83.499919 381.898125 
L 83.499919 380.304375 
L 79.622419 380.304375 
L 79.622419 378.37125 
L 83.124919 373.149375 
z
"/>
   </g>
   <g id="text_8">
    <path d="M 59.230856 355.14 
L 61.223981 355.14 
L 61.223981 349.485 
L 59.178356 349.906875 
L 59.178356 348.37125 
L 61.210856 347.949375 
L 63.355856 347.949375 
L 63.355856 355.14 
L 65.348981 355.14 
L 65.348981 356.698125 
L 59.230856 356.698125 
L 59.230856 355.14 
z
M 67.39859 354.43125 
L 69.507965 354.43125 
L 69.507965 356.698125 
L 67.39859 356.698125 
L 67.39859 354.43125 
z
M 71.934684 356.505 
L 71.934684 354.886875 
Q 72.472809 355.14 72.964059 355.265625 
Q 73.457184 355.39125 73.937184 355.39125 
Q 74.945934 355.39125 75.508434 354.8325 
Q 76.070934 354.271875 76.170309 353.17125 
Q 75.772809 353.46375 75.320934 353.61 
Q 74.869059 353.75625 74.342184 353.75625 
Q 72.999684 353.75625 72.176559 352.974375 
Q 71.353434 352.1925 71.353434 350.915625 
Q 71.353434 349.501875 72.270309 348.6525 
Q 73.187184 347.803125 74.728434 347.803125 
Q 76.440309 347.803125 77.377809 348.958125 
Q 78.315309 350.11125 78.315309 352.220625 
Q 78.315309 354.39 77.218434 355.629375 
Q 76.123434 356.86875 74.212809 356.86875 
Q 73.597809 356.86875 73.035309 356.776875 
Q 72.472809 356.686875 71.934684 356.505 
z
M 74.717184 352.291875 
Q 75.309684 352.291875 75.607809 351.909375 
Q 75.905934 351.525 75.905934 350.75625 
Q 75.905934 349.995 75.607809 349.60875 
Q 75.309684 349.220625 74.717184 349.220625 
Q 74.124684 349.220625 73.826559 349.60875 
Q 73.528434 349.995 73.528434 350.75625 
Q 73.528434 351.525 73.826559 351.909375 
Q 74.124684 352.291875 74.717184 352.291875 
z
M 83.259919 352.783125 
Q 82.628044 352.783125 82.286794 353.13 
Q 81.947419 353.475 81.947419 354.12 
Q 81.947419 354.765 82.286794 355.108125 
Q 82.628044 355.449375 83.259919 355.449375 
Q 83.888044 355.449375 84.221794 355.108125 
Q 84.555544 354.765 84.555544 354.12 
Q 84.555544 353.469375 84.221794 353.12625 
Q 83.888044 352.783125 83.259919 352.783125 
z
M 81.613669 352.040625 
Q 80.816794 351.79875 80.411794 351.301875 
Q 80.008669 350.803125 80.008669 350.05875 
Q 80.008669 348.9525 80.833669 348.373125 
Q 81.660544 347.791875 83.259919 347.791875 
Q 84.848044 347.791875 85.673044 348.369375 
Q 86.499919 348.946875 86.499919 350.05875 
Q 86.499919 350.803125 86.093044 351.301875 
Q 85.686169 351.79875 84.889294 352.040625 
Q 85.779919 352.28625 86.233669 352.839375 
Q 86.687419 353.3925 86.687419 354.23625 
Q 86.687419 355.5375 85.823044 356.203125 
Q 84.958669 356.86875 83.259919 356.86875 
Q 81.555544 356.86875 80.685544 356.203125 
Q 79.815544 355.5375 79.815544 354.23625 
Q 79.815544 353.3925 80.269294 352.839375 
Q 80.723044 352.28625 81.613669 352.040625 
z
M 82.140544 350.2875 
Q 82.140544 350.80875 82.431169 351.09 
Q 82.721794 351.37125 83.259919 351.37125 
Q 83.786794 351.37125 84.073669 351.09 
Q 84.362419 350.80875 84.362419 350.2875 
Q 84.362419 349.76625 84.073669 349.48875 
Q 83.786794 349.209375 83.259919 349.209375 
Q 82.721794 349.209375 82.431169 349.490625 
Q 82.140544 349.771875 82.140544 350.2875 
z
" style="stroke: #ffffff"/>
    <path d="M 59.230856 355.14 
L 61.223981 355.14 
L 61.223981 349.485 
L 59.178356 349.906875 
L 59.178356 348.37125 
L 61.210856 347.949375 
L 63.355856 347.949375 
L 63.355856 355.14 
L 65.348981 355.14 
L 65.348981 356.698125 
L 59.230856 356.698125 
L 59.230856 355.14 
z
M 67.39859 354.43125 
L 69.507965 354.43125 
L 69.507965 356.698125 
L 67.39859 356.698125 
L 67.39859 354.43125 
z
M 71.934684 356.505 
L 71.934684 354.886875 
Q 72.472809 355.14 72.964059 355.265625 
Q 73.457184 355.39125 73.937184 355.39125 
Q 74.945934 355.39125 75.508434 354.8325 
Q 76.070934 354.271875 76.170309 353.17125 
Q 75.772809 353.46375 75.320934 353.61 
Q 74.869059 353.75625 74.342184 353.75625 
Q 72.999684 353.75625 72.176559 352.974375 
Q 71.353434 352.1925 71.353434 350.915625 
Q 71.353434 349.501875 72.270309 348.6525 
Q 73.187184 347.803125 74.728434 347.803125 
Q 76.440309 347.803125 77.377809 348.958125 
Q 78.315309 350.11125 78.315309 352.220625 
Q 78.315309 354.39 77.218434 355.629375 
Q 76.123434 356.86875 74.212809 356.86875 
Q 73.597809 356.86875 73.035309 356.776875 
Q 72.472809 356.686875 71.934684 356.505 
z
M 74.717184 352.291875 
Q 75.309684 352.291875 75.607809 351.909375 
Q 75.905934 351.525 75.905934 350.75625 
Q 75.905934 349.995 75.607809 349.60875 
Q 75.309684 349.220625 74.717184 349.220625 
Q 74.124684 349.220625 73.826559 349.60875 
Q 73.528434 349.995 73.528434 350.75625 
Q 73.528434 351.525 73.826559 351.909375 
Q 74.124684 352.291875 74.717184 352.291875 
z
M 83.259919 352.783125 
Q 82.628044 352.783125 82.286794 353.13 
Q 81.947419 353.475 81.947419 354.12 
Q 81.947419 354.765 82.286794 355.108125 
Q 82.628044 355.449375 83.259919 355.449375 
Q 83.888044 355.449375 84.221794 355.108125 
Q 84.555544 354.765 84.555544 354.12 
Q 84.555544 353.469375 84.221794 353.12625 
Q 83.888044 352.783125 83.259919 352.783125 
z
M 81.613669 352.040625 
Q 80.816794 351.79875 80.411794 351.301875 
Q 80.008669 350.803125 80.008669 350.05875 
Q 80.008669 348.9525 80.833669 348.373125 
Q 81.660544 347.791875 83.259919 347.791875 
Q 84.848044 347.791875 85.673044 348.369375 
Q 86.499919 348.946875 86.499919 350.05875 
Q 86.499919 350.803125 86.093044 351.301875 
Q 85.686169 351.79875 84.889294 352.040625 
Q 85.779919 352.28625 86.233669 352.839375 
Q 86.687419 353.3925 86.687419 354.23625 
Q 86.687419 355.5375 85.823044 356.203125 
Q 84.958669 356.86875 83.259919 356.86875 
Q 81.555544 356.86875 80.685544 356.203125 
Q 79.815544 355.5375 79.815544 354.23625 
Q 79.815544 353.3925 80.269294 352.839375 
Q 80.723044 352.28625 81.613669 352.040625 
z
M 82.140544 350.2875 
Q 82.140544 350.80875 82.431169 351.09 
Q 82.721794 351.37125 83.259919 351.37125 
Q 83.786794 351.37125 84.073669 351.09 
Q 84.362419 350.80875 84.362419 350.2875 
Q 84.362419 349.76625 84.073669 349.48875 
Q 83.786794 349.209375 83.259919 349.209375 
Q 82.721794 349.209375 82.431169 349.490625 
Q 82.140544 349.771875 82.140544 350.2875 
z
"/>
   </g>
   <g id="text_9">
    <path d="M 61.282106 329.840625 
L 65.131481 329.840625 
L 65.131481 331.498125 
L 58.773356 331.498125 
L 58.773356 329.840625 
L 61.966481 327.020625 
Q 62.395856 326.634375 62.600231 326.265 
Q 62.804606 325.895625 62.804606 325.498125 
Q 62.804606 324.883125 62.392106 324.508125 
Q 61.979606 324.133125 61.293356 324.133125 
Q 60.766481 324.133125 60.138356 324.358125 
Q 59.512106 324.583125 58.797731 325.029375 
L 58.797731 323.1075 
Q 59.558981 322.85625 60.303356 322.725 
Q 61.047731 322.591875 61.762106 322.591875 
Q 63.333356 322.591875 64.203356 323.28375 
Q 65.073356 323.97375 65.073356 325.21125 
Q 65.073356 325.925625 64.703981 326.544375 
Q 64.334606 327.16125 63.151481 328.2 
L 61.282106 329.840625 
z
M 67.39859 329.23125 
L 69.507965 329.23125 
L 69.507965 331.498125 
L 67.39859 331.498125 
L 67.39859 329.23125 
z
M 71.934684 331.305 
L 71.934684 329.686875 
Q 72.472809 329.94 72.964059 330.065625 
Q 73.457184 330.19125 73.937184 330.19125 
Q 74.945934 330.19125 75.508434 329.6325 
Q 76.070934 329.071875 76.170309 327.97125 
Q 75.772809 328.26375 75.320934 328.41 
Q 74.869059 328.55625 74.342184 328.55625 
Q 72.999684 328.55625 72.176559 327.774375 
Q 71.353434 326.9925 71.353434 325.715625 
Q 71.353434 324.301875 72.270309 323.4525 
Q 73.187184 322.603125 74.728434 322.603125 
Q 76.440309 322.603125 77.377809 323.758125 
Q 78.315309 324.91125 78.315309 327.020625 
Q 78.315309 329.19 77.218434 330.429375 
Q 76.123434 331.66875 74.212809 331.66875 
Q 73.597809 331.66875 73.035309 331.576875 
Q 72.472809 331.486875 71.934684 331.305 
z
M 74.717184 327.091875 
Q 75.309684 327.091875 75.607809 326.709375 
Q 75.905934 326.325 75.905934 325.55625 
Q 75.905934 324.795 75.607809 324.40875 
Q 75.309684 324.020625 74.717184 324.020625 
Q 74.124684 324.020625 73.826559 324.40875 
Q 73.528434 324.795 73.528434 325.55625 
Q 73.528434 326.325 73.826559 326.709375 
Q 74.124684 327.091875 74.717184 327.091875 
z
M 83.259919 327.583125 
Q 82.628044 327.583125 82.286794 327.93 
Q 81.947419 328.275 81.947419 328.92 
Q 81.947419 329.565 82.286794 329.908125 
Q 82.628044 330.249375 83.259919 330.249375 
Q 83.888044 330.249375 84.221794 329.908125 
Q 84.555544 329.565 84.555544 328.92 
Q 84.555544 328.269375 84.221794 327.92625 
Q 83.888044 327.583125 83.259919 327.583125 
z
M 81.613669 326.840625 
Q 80.816794 326.59875 80.411794 326.101875 
Q 80.008669 325.603125 80.008669 324.85875 
Q 80.008669 323.7525 80.833669 323.173125 
Q 81.660544 322.591875 83.259919 322.591875 
Q 84.848044 322.591875 85.673044 323.169375 
Q 86.499919 323.746875 86.499919 324.85875 
Q 86.499919 325.603125 86.093044 326.101875 
Q 85.686169 326.59875 84.889294 326.840625 
Q 85.779919 327.08625 86.233669 327.639375 
Q 86.687419 328.1925 86.687419 329.03625 
Q 86.687419 330.3375 85.823044 331.003125 
Q 84.958669 331.66875 83.259919 331.66875 
Q 81.555544 331.66875 80.685544 331.003125 
Q 79.815544 330.3375 79.815544 329.03625 
Q 79.815544 328.1925 80.269294 327.639375 
Q 80.723044 327.08625 81.613669 326.840625 
z
M 82.140544 325.0875 
Q 82.140544 325.60875 82.431169 325.89 
Q 82.721794 326.17125 83.259919 326.17125 
Q 83.786794 326.17125 84.073669 325.89 
Q 84.362419 325.60875 84.362419 325.0875 
Q 84.362419 324.56625 84.073669 324.28875 
Q 83.786794 324.009375 83.259919 324.009375 
Q 82.721794 324.009375 82.431169 324.290625 
Q 82.140544 324.571875 82.140544 325.0875 
z
" style="stroke: #ffffff"/>
    <path d="M 61.282106 329.840625 
L 65.131481 329.840625 
L 65.131481 331.498125 
L 58.773356 331.498125 
L 58.773356 329.840625 
L 61.966481 327.020625 
Q 62.395856 326.634375 62.600231 326.265 
Q 62.804606 325.895625 62.804606 325.498125 
Q 62.804606 324.883125 62.392106 324.508125 
Q 61.979606 324.133125 61.293356 324.133125 
Q 60.766481 324.133125 60.138356 324.358125 
Q 59.512106 324.583125 58.797731 325.029375 
L 58.797731 323.1075 
Q 59.558981 322.85625 60.303356 322.725 
Q 61.047731 322.591875 61.762106 322.591875 
Q 63.333356 322.591875 64.203356 323.28375 
Q 65.073356 323.97375 65.073356 325.21125 
Q 65.073356 325.925625 64.703981 326.544375 
Q 64.334606 327.16125 63.151481 328.2 
L 61.282106 329.840625 
z
M 67.39859 329.23125 
L 69.507965 329.23125 
L 69.507965 331.498125 
L 67.39859 331.498125 
L 67.39859 329.23125 
z
M 71.934684 331.305 
L 71.934684 329.686875 
Q 72.472809 329.94 72.964059 330.065625 
Q 73.457184 330.19125 73.937184 330.19125 
Q 74.945934 330.19125 75.508434 329.6325 
Q 76.070934 329.071875 76.170309 327.97125 
Q 75.772809 328.26375 75.320934 328.41 
Q 74.869059 328.55625 74.342184 328.55625 
Q 72.999684 328.55625 72.176559 327.774375 
Q 71.353434 326.9925 71.353434 325.715625 
Q 71.353434 324.301875 72.270309 323.4525 
Q 73.187184 322.603125 74.728434 322.603125 
Q 76.440309 322.603125 77.377809 323.758125 
Q 78.315309 324.91125 78.315309 327.020625 
Q 78.315309 329.19 77.218434 330.429375 
Q 76.123434 331.66875 74.212809 331.66875 
Q 73.597809 331.66875 73.035309 331.576875 
Q 72.472809 331.486875 71.934684 331.305 
z
M 74.717184 327.091875 
Q 75.309684 327.091875 75.607809 326.709375 
Q 75.905934 326.325 75.905934 325.55625 
Q 75.905934 324.795 75.607809 324.40875 
Q 75.309684 324.020625 74.717184 324.020625 
Q 74.124684 324.020625 73.826559 324.40875 
Q 73.528434 324.795 73.528434 325.55625 
Q 73.528434 326.325 73.826559 326.709375 
Q 74.124684 327.091875 74.717184 327.091875 
z
M 83.259919 327.583125 
Q 82.628044 327.583125 82.286794 327.93 
Q 81.947419 328.275 81.947419 328.92 
Q 81.947419 329.565 82.286794 329.908125 
Q 82.628044 330.249375 83.259919 330.249375 
Q 83.888044 330.249375 84.221794 329.908125 
Q 84.555544 329.565 84.555544 328.92 
Q 84.555544 328.269375 84.221794 327.92625 
Q 83.888044 327.583125 83.259919 327.583125 
z
M 81.613669 326.840625 
Q 80.816794 326.59875 80.411794 326.101875 
Q 80.008669 325.603125 80.008669 324.85875 
Q 80.008669 323.7525 80.833669 323.173125 
Q 81.660544 322.591875 83.259919 322.591875 
Q 84.848044 322.591875 85.673044 323.169375 
Q 86.499919 323.746875 86.499919 324.85875 
Q 86.499919 325.603125 86.093044 326.101875 
Q 85.686169 326.59875 84.889294 326.840625 
Q 85.779919 327.08625 86.233669 327.639375 
Q 86.687419 328.1925 86.687419 329.03625 
Q 86.687419 330.3375 85.823044 331.003125 
Q 84.958669 331.66875 83.259919 331.66875 
Q 81.555544 331.66875 80.685544 331.003125 
Q 79.815544 330.3375 79.815544 329.03625 
Q 79.815544 328.1925 80.269294 327.639375 
Q 80.723044 327.08625 81.613669 326.840625 
z
M 82.140544 325.0875 
Q 82.140544 325.60875 82.431169 325.89 
Q 82.721794 326.17125 83.259919 326.17125 
Q 83.786794 326.17125 84.073669 325.89 
Q 84.362419 325.60875 84.362419 325.0875 
Q 84.362419 324.56625 84.073669 324.28875 
Q 83.786794 324.009375 83.259919 324.009375 
Q 82.721794 324.009375 82.431169 324.290625 
Q 82.140544 324.571875 82.140544 325.0875 
z
"/>
   </g>
   <g id="text_10">
    <path d="M 62.167106 301.98 
Q 61.574606 301.98 61.278356 302.364375 
Q 60.982106 302.746875 60.982106 303.515625 
Q 60.982106 304.2825 61.278356 304.666875 
Q 61.574606 305.049375 62.167106 305.049375 
Q 62.763356 305.049375 63.059606 304.666875 
Q 63.355856 304.2825 63.355856 303.515625 
Q 63.355856 302.746875 63.059606 302.364375 
Q 62.763356 301.98 62.167106 301.98 
z
M 64.955231 297.778125 
L 64.955231 299.39625 
Q 64.398356 299.131875 63.905231 299.00625 
Q 63.413981 298.880625 62.945231 298.880625 
Q 61.938356 298.880625 61.375856 299.44125 
Q 60.813356 300 60.719606 301.100625 
Q 61.105856 300.81375 61.555856 300.67125 
Q 62.007731 300.526875 62.542106 300.526875 
Q 63.882731 300.526875 64.705856 301.3125 
Q 65.528981 302.09625 65.528981 303.3675 
Q 65.528981 304.77375 64.608356 305.62125 
Q 63.689606 306.46875 62.142731 306.46875 
Q 60.438356 306.46875 59.502731 305.3175 
Q 58.568981 304.164375 58.568981 302.049375 
Q 58.568981 299.881875 59.662106 298.6425 
Q 60.755231 297.403125 62.658356 297.403125 
Q 63.262106 297.403125 63.830231 297.496875 
Q 64.398356 297.590625 64.955231 297.778125 
z
M 67.39859 304.03125 
L 69.507965 304.03125 
L 69.507965 306.298125 
L 67.39859 306.298125 
L 67.39859 304.03125 
z
M 76.322184 301.580625 
Q 77.207184 301.809375 77.666559 302.375625 
Q 78.127809 302.94 78.127809 303.81375 
Q 78.127809 305.115 77.130309 305.791875 
Q 76.134684 306.46875 74.225934 306.46875 
Q 73.550934 306.46875 72.874059 306.36 
Q 72.197184 306.25125 71.535309 306.03375 
L 71.535309 304.29375 
Q 72.169059 304.610625 72.791559 304.771875 
Q 73.415934 304.933125 74.019684 304.933125 
Q 74.915934 304.933125 75.394059 304.62375 
Q 75.872184 304.3125 75.872184 303.73125 
Q 75.872184 303.133125 75.382809 302.825625 
Q 74.893434 302.518125 73.937184 302.518125 
L 73.035309 302.518125 
L 73.035309 301.065 
L 73.984059 301.065 
Q 74.835309 301.065 75.249684 300.79875 
Q 75.665934 300.5325 75.665934 299.986875 
Q 75.665934 299.484375 75.260934 299.20875 
Q 74.857809 298.933125 74.119059 298.933125 
Q 73.575309 298.933125 73.018434 299.056875 
Q 72.461559 299.17875 71.910309 299.41875 
L 71.910309 297.766875 
Q 72.577809 297.579375 73.234059 297.485625 
Q 73.890309 297.391875 74.524059 297.391875 
Q 76.228434 297.391875 77.074059 297.9525 
Q 77.921559 298.51125 77.921559 299.63625 
Q 77.921559 300.403125 77.516559 300.8925 
Q 77.113434 301.381875 76.322184 301.580625 
z
M 79.884919 297.549375 
L 86.477419 297.549375 
L 86.477419 298.820625 
L 83.066794 306.298125 
L 80.869294 306.298125 
L 84.098044 299.20875 
L 79.884919 299.20875 
L 79.884919 297.549375 
z
" style="stroke: #ffffff"/>
    <path d="M 62.167106 301.98 
Q 61.574606 301.98 61.278356 302.364375 
Q 60.982106 302.746875 60.982106 303.515625 
Q 60.982106 304.2825 61.278356 304.666875 
Q 61.574606 305.049375 62.167106 305.049375 
Q 62.763356 305.049375 63.059606 304.666875 
Q 63.355856 304.2825 63.355856 303.515625 
Q 63.355856 302.746875 63.059606 302.364375 
Q 62.763356 301.98 62.167106 301.98 
z
M 64.955231 297.778125 
L 64.955231 299.39625 
Q 64.398356 299.131875 63.905231 299.00625 
Q 63.413981 298.880625 62.945231 298.880625 
Q 61.938356 298.880625 61.375856 299.44125 
Q 60.813356 300 60.719606 301.100625 
Q 61.105856 300.81375 61.555856 300.67125 
Q 62.007731 300.526875 62.542106 300.526875 
Q 63.882731 300.526875 64.705856 301.3125 
Q 65.528981 302.09625 65.528981 303.3675 
Q 65.528981 304.77375 64.608356 305.62125 
Q 63.689606 306.46875 62.142731 306.46875 
Q 60.438356 306.46875 59.502731 305.3175 
Q 58.568981 304.164375 58.568981 302.049375 
Q 58.568981 299.881875 59.662106 298.6425 
Q 60.755231 297.403125 62.658356 297.403125 
Q 63.262106 297.403125 63.830231 297.496875 
Q 64.398356 297.590625 64.955231 297.778125 
z
M 67.39859 304.03125 
L 69.507965 304.03125 
L 69.507965 306.298125 
L 67.39859 306.298125 
L 67.39859 304.03125 
z
M 76.322184 301.580625 
Q 77.207184 301.809375 77.666559 302.375625 
Q 78.127809 302.94 78.127809 303.81375 
Q 78.127809 305.115 77.130309 305.791875 
Q 76.134684 306.46875 74.225934 306.46875 
Q 73.550934 306.46875 72.874059 306.36 
Q 72.197184 306.25125 71.535309 306.03375 
L 71.535309 304.29375 
Q 72.169059 304.610625 72.791559 304.771875 
Q 73.415934 304.933125 74.019684 304.933125 
Q 74.915934 304.933125 75.394059 304.62375 
Q 75.872184 304.3125 75.872184 303.73125 
Q 75.872184 303.133125 75.382809 302.825625 
Q 74.893434 302.518125 73.937184 302.518125 
L 73.035309 302.518125 
L 73.035309 301.065 
L 73.984059 301.065 
Q 74.835309 301.065 75.249684 300.79875 
Q 75.665934 300.5325 75.665934 299.986875 
Q 75.665934 299.484375 75.260934 299.20875 
Q 74.857809 298.933125 74.119059 298.933125 
Q 73.575309 298.933125 73.018434 299.056875 
Q 72.461559 299.17875 71.910309 299.41875 
L 71.910309 297.766875 
Q 72.577809 297.579375 73.234059 297.485625 
Q 73.890309 297.391875 74.524059 297.391875 
Q 76.228434 297.391875 77.074059 297.9525 
Q 77.921559 298.51125 77.921559 299.63625 
Q 77.921559 300.403125 77.516559 300.8925 
Q 77.113434 301.381875 76.322184 301.580625 
z
M 79.884919 297.549375 
L 86.477419 297.549375 
L 86.477419 298.820625 
L 83.066794 306.298125 
L 80.869294 306.298125 
L 84.098044 299.20875 
L 79.884919 299.20875 
L 79.884919 297.549375 
z
"/>
   </g>
  </g>
  <g id="axes_6">
   <g id="patch_15">
    <path d="M 104.982353 512.64 
L 129.6 512.64 
L 129.6 290.88 
L 104.982353 290.88 
L 104.982353 512.64 
z
" style="fill: none"/>
   </g>
  </g>
 </g>
 <defs>
  <clipPath id="p91669a7ff9">
   <rect x="49.182353" y="290.88" width="49.235294" height="221.76"/>
  </clipPath>
 </defs>
</svg>
