<?xml version="1.0" encoding="utf-8" standalone="no"?>
<!DOCTYPE svg PUBLIC "-//W3C//DTD SVG 1.1//EN"
  "http://www.w3.org/Graphics/SVG/1.1/DTD/svg11.dtd">
<svg xmlns:xlink="http://www.w3.org/1999/xlink" width="144pt" height="576pt" viewBox="0 0 144 576" xmlns="http://www.w3.org/2000/svg" version="1.1">
 <metadata>
  <rdf:RDF xmlns:dc="http://purl.org/dc/elements/1.1/" xmlns:cc="http://creativecommons.org/ns#" xmlns:rdf="http://www.w3.org/1999/02/22-rdf-syntax-ns#">
   <cc:Work>
    <dc:type rdf:resource="http://purl.org/dc/dcmitype/StillImage"/>
    <dc:date>2022-04-01T18:39:42.725302</dc:date>
    <dc:format>image/svg+xml</dc:format>
    <dc:creator>
     <cc:Agent>
      <dc:title>Matplotlib v3.5.1, https://matplotlib.org/</dc:title>
     </cc:Agent>
    </dc:creator>
   </cc:Work>
  </rdf:RDF>
 </metadata>
 <defs>
  <style type="text/css">*{stroke-linejoin: round; stroke-linecap: butt}</style>
 </defs>
 <g id="figure_1">
  <g id="patch_1">
   <path d="M 0 576 
L 144 576 
L 144 0 
L 0 0 
L 0 576 
z
" style="fill: none"/>
  </g>
  <g id="axes_1">
   <g id="patch_2">
    <path d="M 18 286.56 
L 42.617647 286.56 
L 42.617647 69.12 
L 18 69.12 
L 18 286.56 
z
" style="fill: none"/>
   </g>
  </g>
  <g id="axes_2">
   <g id="patch_3">
    <path d="M 49.182353 286.56 
L 98.417647 286.56 
L 98.417647 69.12 
L 49.182353 69.12 
L 49.182353 286.56 
z
" style="fill: none"/>
   </g>
   <g id="text_1">
    <path d="M 21.0525 249.607125 
L 19.445625 253.960875 
L 22.663125 253.960875 
L 21.0525 249.607125 
z
M 20.383125 248.440875 
L 21.725625 248.440875 
L 25.059375 257.189625 
L 23.829375 257.189625 
L 23.0325 254.94525 
L 19.089375 254.94525 
L 18.2925 257.189625 
L 17.04375 257.189625 
L 20.383125 248.440875 
z
M 32.677734 249.115875 
L 32.677734 250.36275 
Q 32.079609 249.805875 31.402734 249.532125 
Q 30.725859 249.2565 29.964609 249.2565 
Q 28.464609 249.2565 27.667734 250.173375 
Q 26.870859 251.09025 26.870859 252.824625 
Q 26.870859 254.553375 27.667734 255.47025 
Q 28.464609 256.387125 29.964609 256.387125 
Q 30.725859 256.387125 31.402734 256.1115 
Q 32.079609 255.835875 32.677734 255.279 
L 32.677734 256.5165 
Q 32.057109 256.938375 31.361484 257.15025 
Q 30.667734 257.36025 29.895234 257.36025 
Q 27.907734 257.36025 26.763984 256.14525 
Q 25.622109 254.928375 25.622109 252.824625 
Q 25.622109 250.71525 26.763984 249.50025 
Q 27.907734 248.283375 29.895234 248.283375 
Q 30.678984 248.283375 31.372734 248.4915 
Q 32.068359 248.699625 32.677734 249.115875 
z
M 39.749766 248.72775 
L 39.749766 249.88275 
Q 39.076641 249.56025 38.478516 249.40275 
Q 37.880391 249.243375 37.323516 249.243375 
Q 36.357891 249.243375 35.832891 249.618375 
Q 35.307891 249.993375 35.307891 250.68525 
Q 35.307891 251.2665 35.656641 251.56275 
Q 36.005391 251.857125 36.978516 252.039 
L 37.692891 252.18525 
Q 39.016641 252.438375 39.646641 253.074 
Q 40.276641 253.709625 40.276641 254.774625 
Q 40.276641 256.04775 39.423516 256.704 
Q 38.572266 257.36025 36.926016 257.36025 
Q 36.305391 257.36025 35.604141 257.219625 
Q 34.904766 257.079 34.154766 256.803375 
L 34.154766 255.584625 
Q 34.874766 255.98775 35.566641 256.194 
Q 36.258516 256.398375 36.926016 256.398375 
Q 37.938516 256.398375 38.489766 256.000875 
Q 39.041016 255.6015 39.041016 254.86275 
Q 39.041016 254.219625 38.645391 253.855875 
Q 38.249766 253.492125 37.347891 253.31025 
L 36.626016 253.169625 
Q 35.302266 252.907125 34.709766 252.344625 
Q 34.119141 251.782125 34.119141 250.779 
Q 34.119141 249.618375 34.936641 248.950875 
Q 35.754141 248.283375 37.188516 248.283375 
Q 37.805391 248.283375 38.442891 248.395875 
Q 39.082266 248.5065 39.749766 248.72775 
z
M 42.433828 256.194 
L 44.366953 256.194 
L 44.366953 249.519 
L 42.263203 249.940875 
L 42.263203 248.86275 
L 44.355703 248.440875 
L 45.538828 248.440875 
L 45.538828 256.194 
L 47.471953 256.194 
L 47.471953 257.189625 
L 42.433828 257.189625 
L 42.433828 256.194 
z
M 54.754922 249.414 
L 54.754922 252.700875 
L 56.243672 252.700875 
Q 57.070547 252.700875 57.520547 252.273375 
Q 57.972422 251.845875 57.972422 251.054625 
Q 57.972422 250.269 57.520547 249.8415 
Q 57.070547 249.414 56.243672 249.414 
L 54.754922 249.414 
z
M 53.571797 248.440875 
L 56.243672 248.440875 
Q 57.715547 248.440875 58.467422 249.1065 
Q 59.221172 249.772125 59.221172 251.054625 
Q 59.221172 252.35025 58.467422 253.012125 
Q 57.715547 253.674 56.243672 253.674 
L 54.754922 253.674 
L 54.754922 257.189625 
L 53.571797 257.189625 
L 53.571797 248.440875 
z
M 62.86875 251.38275 
Q 62.0025 251.38275 61.498125 252.059625 
Q 60.99375 252.7365 60.99375 253.914 
Q 60.99375 255.0915 61.494375 255.768375 
Q 61.996875 256.44525 62.86875 256.44525 
Q 63.73125 256.44525 64.23375 255.7665 
Q 64.738125 255.085875 64.738125 253.914 
Q 64.738125 252.74775 64.23375 252.06525 
Q 63.73125 251.38275 62.86875 251.38275 
z
M 62.86875 250.469625 
Q 64.275 250.469625 65.0775 251.384625 
Q 65.881875 252.29775 65.881875 253.914 
Q 65.881875 255.524625 65.0775 256.443375 
Q 64.275 257.36025 62.86875 257.36025 
Q 61.456875 257.36025 60.65625 256.443375 
Q 59.8575 255.524625 59.8575 253.914 
Q 59.8575 252.29775 60.65625 251.384625 
Q 61.456875 250.469625 62.86875 250.469625 
z
M 68.710547 256.20525 
L 68.710547 259.68525 
L 67.626797 259.68525 
L 67.626797 250.627125 
L 68.710547 250.627125 
L 68.710547 251.62275 
Q 69.051797 251.03775 69.569297 250.754625 
Q 70.088672 250.469625 70.808672 250.469625 
Q 72.004922 250.469625 72.751172 251.418375 
Q 73.499297 252.367125 73.499297 253.914 
Q 73.499297 255.460875 72.751172 256.4115 
Q 72.004922 257.36025 70.808672 257.36025 
Q 70.088672 257.36025 69.569297 257.07525 
Q 69.051797 256.79025 68.710547 256.20525 
z
M 72.379922 253.914 
Q 72.379922 252.72525 71.890547 252.048375 
Q 71.401172 251.3715 70.546172 251.3715 
Q 69.689297 251.3715 69.199922 252.048375 
Q 68.710547 252.72525 68.710547 253.914 
Q 68.710547 255.10275 69.199922 255.779625 
Q 69.689297 256.4565 70.546172 256.4565 
Q 71.401172 256.4565 71.890547 255.779625 
Q 72.379922 255.10275 72.379922 253.914 
z
M 75.174609 254.60025 
L 75.174609 250.627125 
L 76.252734 250.627125 
L 76.252734 254.559 
Q 76.252734 255.490875 76.614609 255.95775 
Q 76.978359 256.42275 77.705859 256.42275 
Q 78.577734 256.42275 79.083984 255.865875 
Q 79.592109 255.309 79.592109 254.347125 
L 79.592109 250.627125 
L 80.670234 250.627125 
L 80.670234 257.189625 
L 79.592109 257.189625 
L 79.592109 256.180875 
Q 79.200234 256.779 78.680859 257.069625 
Q 78.163359 257.36025 77.477109 257.36025 
Q 76.346484 257.36025 75.759609 256.657125 
Q 75.174609 255.954 75.174609 254.60025 
z
M 77.887734 250.469625 
L 77.887734 250.469625 
z
M 82.890703 248.0715 
L 83.968828 248.0715 
L 83.968828 257.189625 
L 82.890703 257.189625 
L 82.890703 248.0715 
z
M 89.207813 253.8915 
Q 87.900937 253.8915 87.396563 254.189625 
Q 86.892188 254.48775 86.892188 255.209625 
Q 86.892188 255.783375 87.270938 256.120875 
Q 87.649687 256.4565 88.298438 256.4565 
Q 89.196562 256.4565 89.738438 255.820875 
Q 90.280313 255.18525 90.280313 254.1315 
L 90.280313 253.8915 
L 89.207813 253.8915 
z
M 91.358438 253.44525 
L 91.358438 257.189625 
L 90.280313 257.189625 
L 90.280313 256.194 
Q 89.910938 256.79025 89.359688 257.07525 
Q 88.808437 257.36025 88.011562 257.36025 
Q 87.004688 257.36025 86.408438 256.794 
Q 85.814063 256.22775 85.814063 255.279 
Q 85.814063 254.17275 86.554688 253.61025 
Q 87.297188 253.04775 88.767188 253.04775 
L 90.280313 253.04775 
L 90.280313 252.940875 
Q 90.280313 252.1965 89.790938 251.789625 
Q 89.301563 251.38275 88.416562 251.38275 
Q 87.854062 251.38275 87.319688 251.51775 
Q 86.787188 251.65275 86.295938 251.92275 
L 86.295938 250.92525 
Q 86.886562 250.6965 87.443438 250.584 
Q 88.000313 250.469625 88.527187 250.469625 
Q 89.952188 250.469625 90.655313 251.208375 
Q 91.358438 251.94525 91.358438 253.44525 
z
M 94.645078 248.763375 
L 94.645078 250.627125 
L 96.865078 250.627125 
L 96.865078 251.46525 
L 94.645078 251.46525 
L 94.645078 255.02775 
Q 94.645078 255.83025 94.864453 256.059 
Q 95.083828 256.28775 95.758828 256.28775 
L 96.865078 256.28775 
L 96.865078 257.189625 
L 95.758828 257.189625 
Q 94.510078 257.189625 94.035703 256.724625 
Q 93.561328 256.25775 93.561328 255.02775 
L 93.561328 251.46525 
L 92.770078 251.46525 
L 92.770078 250.627125 
L 93.561328 250.627125 
L 93.561328 248.763375 
L 94.645078 248.763375 
z
M 98.283281 250.627125 
L 99.361406 250.627125 
L 99.361406 257.189625 
L 98.283281 257.189625 
L 98.283281 250.627125 
z
M 98.283281 248.0715 
L 99.361406 248.0715 
L 99.361406 249.438375 
L 98.283281 249.438375 
L 98.283281 248.0715 
z
M 104.159766 251.38275 
Q 103.293516 251.38275 102.789141 252.059625 
Q 102.284766 252.7365 102.284766 253.914 
Q 102.284766 255.0915 102.785391 255.768375 
Q 103.287891 256.44525 104.159766 256.44525 
Q 105.022266 256.44525 105.524766 255.7665 
Q 106.029141 255.085875 106.029141 253.914 
Q 106.029141 252.74775 105.524766 252.06525 
Q 105.022266 251.38275 104.159766 251.38275 
z
M 104.159766 250.469625 
Q 105.566016 250.469625 106.368516 251.384625 
Q 107.172891 252.29775 107.172891 253.914 
Q 107.172891 255.524625 106.368516 256.443375 
Q 105.566016 257.36025 104.159766 257.36025 
Q 102.747891 257.36025 101.947266 256.443375 
Q 101.148516 255.524625 101.148516 253.914 
Q 101.148516 252.29775 101.947266 251.384625 
Q 102.747891 250.469625 104.159766 250.469625 
z
M 114.415312 253.22775 
L 114.415312 257.189625 
L 113.337187 257.189625 
L 113.337187 253.263375 
Q 113.337187 252.3315 112.973438 251.87025 
Q 112.609688 251.407125 111.884062 251.407125 
Q 111.010312 251.407125 110.505938 251.964 
Q 110.001563 252.519 110.001563 253.480875 
L 110.001563 257.189625 
L 108.917812 257.189625 
L 108.917812 250.627125 
L 110.001563 250.627125 
L 110.001563 251.647125 
Q 110.389688 251.054625 110.912813 250.762125 
Q 111.437813 250.469625 112.124063 250.469625 
Q 113.254688 250.469625 113.834063 251.169 
Q 114.415312 251.868375 114.415312 253.22775 
z
M 127.972734 253.34025 
Q 127.462734 253.34025 127.172109 253.773375 
Q 126.883359 254.2065 126.883359 254.980875 
Q 126.883359 255.742125 127.172109 256.179 
Q 127.462734 256.615875 127.972734 256.615875 
Q 128.471484 256.615875 128.760234 256.179 
Q 129.050859 255.742125 129.050859 254.980875 
Q 129.050859 254.212125 128.760234 253.777125 
Q 128.471484 253.34025 127.972734 253.34025 
z
M 127.972734 252.595875 
Q 128.898984 252.595875 129.442734 253.240875 
Q 129.988359 253.884 129.988359 254.980875 
Q 129.988359 256.075875 129.440859 256.719 
Q 128.893359 257.36025 127.972734 257.36025 
Q 127.035234 257.36025 126.489609 256.719 
Q 125.945859 256.075875 125.945859 254.980875 
Q 125.945859 253.878375 126.493359 253.237125 
Q 127.040859 252.595875 127.972734 252.595875 
z
M 121.925859 249.02775 
Q 121.421484 249.02775 121.130859 249.464625 
Q 120.842109 249.899625 120.842109 250.66275 
Q 120.842109 251.43525 121.128984 251.87025 
Q 121.415859 252.303375 121.925859 252.303375 
Q 122.435859 252.303375 122.724609 251.87025 
Q 123.015234 251.43525 123.015234 250.66275 
Q 123.015234 249.907125 122.722734 249.468375 
Q 122.430234 249.02775 121.925859 249.02775 
z
M 127.217109 248.283375 
L 128.154609 248.283375 
L 122.681484 257.36025 
L 121.743984 257.36025 
L 127.217109 248.283375 
z
M 121.925859 248.283375 
Q 122.852109 248.283375 123.401484 248.924625 
Q 123.952734 249.565875 123.952734 250.66275 
Q 123.952734 251.769 123.405234 252.408375 
Q 122.857734 253.04775 121.925859 253.04775 
Q 120.993984 253.04775 120.452109 252.4065 
Q 119.910234 251.763375 119.910234 250.66275 
Q 119.910234 249.5715 120.453984 248.928375 
Q 120.999609 248.283375 121.925859 248.283375 
z
" style="fill: #ffffff; stroke: #000000; stroke-width: 2"/>
    <path d="M 21.0525 249.607125 
L 19.445625 253.960875 
L 22.663125 253.960875 
L 21.0525 249.607125 
z
M 20.383125 248.440875 
L 21.725625 248.440875 
L 25.059375 257.189625 
L 23.829375 257.189625 
L 23.0325 254.94525 
L 19.089375 254.94525 
L 18.2925 257.189625 
L 17.04375 257.189625 
L 20.383125 248.440875 
z
M 32.677734 249.115875 
L 32.677734 250.36275 
Q 32.079609 249.805875 31.402734 249.532125 
Q 30.725859 249.2565 29.964609 249.2565 
Q 28.464609 249.2565 27.667734 250.173375 
Q 26.870859 251.09025 26.870859 252.824625 
Q 26.870859 254.553375 27.667734 255.47025 
Q 28.464609 256.387125 29.964609 256.387125 
Q 30.725859 256.387125 31.402734 256.1115 
Q 32.079609 255.835875 32.677734 255.279 
L 32.677734 256.5165 
Q 32.057109 256.938375 31.361484 257.15025 
Q 30.667734 257.36025 29.895234 257.36025 
Q 27.907734 257.36025 26.763984 256.14525 
Q 25.622109 254.928375 25.622109 252.824625 
Q 25.622109 250.71525 26.763984 249.50025 
Q 27.907734 248.283375 29.895234 248.283375 
Q 30.678984 248.283375 31.372734 248.4915 
Q 32.068359 248.699625 32.677734 249.115875 
z
M 39.749766 248.72775 
L 39.749766 249.88275 
Q 39.076641 249.56025 38.478516 249.40275 
Q 37.880391 249.243375 37.323516 249.243375 
Q 36.357891 249.243375 35.832891 249.618375 
Q 35.307891 249.993375 35.307891 250.68525 
Q 35.307891 251.2665 35.656641 251.56275 
Q 36.005391 251.857125 36.978516 252.039 
L 37.692891 252.18525 
Q 39.016641 252.438375 39.646641 253.074 
Q 40.276641 253.709625 40.276641 254.774625 
Q 40.276641 256.04775 39.423516 256.704 
Q 38.572266 257.36025 36.926016 257.36025 
Q 36.305391 257.36025 35.604141 257.219625 
Q 34.904766 257.079 34.154766 256.803375 
L 34.154766 255.584625 
Q 34.874766 255.98775 35.566641 256.194 
Q 36.258516 256.398375 36.926016 256.398375 
Q 37.938516 256.398375 38.489766 256.000875 
Q 39.041016 255.6015 39.041016 254.86275 
Q 39.041016 254.219625 38.645391 253.855875 
Q 38.249766 253.492125 37.347891 253.31025 
L 36.626016 253.169625 
Q 35.302266 252.907125 34.709766 252.344625 
Q 34.119141 251.782125 34.119141 250.779 
Q 34.119141 249.618375 34.936641 248.950875 
Q 35.754141 248.283375 37.188516 248.283375 
Q 37.805391 248.283375 38.442891 248.395875 
Q 39.082266 248.5065 39.749766 248.72775 
z
M 42.433828 256.194 
L 44.366953 256.194 
L 44.366953 249.519 
L 42.263203 249.940875 
L 42.263203 248.86275 
L 44.355703 248.440875 
L 45.538828 248.440875 
L 45.538828 256.194 
L 47.471953 256.194 
L 47.471953 257.189625 
L 42.433828 257.189625 
L 42.433828 256.194 
z
M 54.754922 249.414 
L 54.754922 252.700875 
L 56.243672 252.700875 
Q 57.070547 252.700875 57.520547 252.273375 
Q 57.972422 251.845875 57.972422 251.054625 
Q 57.972422 250.269 57.520547 249.8415 
Q 57.070547 249.414 56.243672 249.414 
L 54.754922 249.414 
z
M 53.571797 248.440875 
L 56.243672 248.440875 
Q 57.715547 248.440875 58.467422 249.1065 
Q 59.221172 249.772125 59.221172 251.054625 
Q 59.221172 252.35025 58.467422 253.012125 
Q 57.715547 253.674 56.243672 253.674 
L 54.754922 253.674 
L 54.754922 257.189625 
L 53.571797 257.189625 
L 53.571797 248.440875 
z
M 62.86875 251.38275 
Q 62.0025 251.38275 61.498125 252.059625 
Q 60.99375 252.7365 60.99375 253.914 
Q 60.99375 255.0915 61.494375 255.768375 
Q 61.996875 256.44525 62.86875 256.44525 
Q 63.73125 256.44525 64.23375 255.7665 
Q 64.738125 255.085875 64.738125 253.914 
Q 64.738125 252.74775 64.23375 252.06525 
Q 63.73125 251.38275 62.86875 251.38275 
z
M 62.86875 250.469625 
Q 64.275 250.469625 65.0775 251.384625 
Q 65.881875 252.29775 65.881875 253.914 
Q 65.881875 255.524625 65.0775 256.443375 
Q 64.275 257.36025 62.86875 257.36025 
Q 61.456875 257.36025 60.65625 256.443375 
Q 59.8575 255.524625 59.8575 253.914 
Q 59.8575 252.29775 60.65625 251.384625 
Q 61.456875 250.469625 62.86875 250.469625 
z
M 68.710547 256.20525 
L 68.710547 259.68525 
L 67.626797 259.68525 
L 67.626797 250.627125 
L 68.710547 250.627125 
L 68.710547 251.62275 
Q 69.051797 251.03775 69.569297 250.754625 
Q 70.088672 250.469625 70.808672 250.469625 
Q 72.004922 250.469625 72.751172 251.418375 
Q 73.499297 252.367125 73.499297 253.914 
Q 73.499297 255.460875 72.751172 256.4115 
Q 72.004922 257.36025 70.808672 257.36025 
Q 70.088672 257.36025 69.569297 257.07525 
Q 69.051797 256.79025 68.710547 256.20525 
z
M 72.379922 253.914 
Q 72.379922 252.72525 71.890547 252.048375 
Q 71.401172 251.3715 70.546172 251.3715 
Q 69.689297 251.3715 69.199922 252.048375 
Q 68.710547 252.72525 68.710547 253.914 
Q 68.710547 255.10275 69.199922 255.779625 
Q 69.689297 256.4565 70.546172 256.4565 
Q 71.401172 256.4565 71.890547 255.779625 
Q 72.379922 255.10275 72.379922 253.914 
z
M 75.174609 254.60025 
L 75.174609 250.627125 
L 76.252734 250.627125 
L 76.252734 254.559 
Q 76.252734 255.490875 76.614609 255.95775 
Q 76.978359 256.42275 77.705859 256.42275 
Q 78.577734 256.42275 79.083984 255.865875 
Q 79.592109 255.309 79.592109 254.347125 
L 79.592109 250.627125 
L 80.670234 250.627125 
L 80.670234 257.189625 
L 79.592109 257.189625 
L 79.592109 256.180875 
Q 79.200234 256.779 78.680859 257.069625 
Q 78.163359 257.36025 77.477109 257.36025 
Q 76.346484 257.36025 75.759609 256.657125 
Q 75.174609 255.954 75.174609 254.60025 
z
M 77.887734 250.469625 
L 77.887734 250.469625 
z
M 82.890703 248.0715 
L 83.968828 248.0715 
L 83.968828 257.189625 
L 82.890703 257.189625 
L 82.890703 248.0715 
z
M 89.207813 253.8915 
Q 87.900937 253.8915 87.396563 254.189625 
Q 86.892188 254.48775 86.892188 255.209625 
Q 86.892188 255.783375 87.270938 256.120875 
Q 87.649687 256.4565 88.298438 256.4565 
Q 89.196562 256.4565 89.738438 255.820875 
Q 90.280313 255.18525 90.280313 254.1315 
L 90.280313 253.8915 
L 89.207813 253.8915 
z
M 91.358438 253.44525 
L 91.358438 257.189625 
L 90.280313 257.189625 
L 90.280313 256.194 
Q 89.910938 256.79025 89.359688 257.07525 
Q 88.808437 257.36025 88.011562 257.36025 
Q 87.004688 257.36025 86.408438 256.794 
Q 85.814063 256.22775 85.814063 255.279 
Q 85.814063 254.17275 86.554688 253.61025 
Q 87.297188 253.04775 88.767188 253.04775 
L 90.280313 253.04775 
L 90.280313 252.940875 
Q 90.280313 252.1965 89.790938 251.789625 
Q 89.301563 251.38275 88.416562 251.38275 
Q 87.854062 251.38275 87.319688 251.51775 
Q 86.787188 251.65275 86.295938 251.92275 
L 86.295938 250.92525 
Q 86.886562 250.6965 87.443438 250.584 
Q 88.000313 250.469625 88.527187 250.469625 
Q 89.952188 250.469625 90.655313 251.208375 
Q 91.358438 251.94525 91.358438 253.44525 
z
M 94.645078 248.763375 
L 94.645078 250.627125 
L 96.865078 250.627125 
L 96.865078 251.46525 
L 94.645078 251.46525 
L 94.645078 255.02775 
Q 94.645078 255.83025 94.864453 256.059 
Q 95.083828 256.28775 95.758828 256.28775 
L 96.865078 256.28775 
L 96.865078 257.189625 
L 95.758828 257.189625 
Q 94.510078 257.189625 94.035703 256.724625 
Q 93.561328 256.25775 93.561328 255.02775 
L 93.561328 251.46525 
L 92.770078 251.46525 
L 92.770078 250.627125 
L 93.561328 250.627125 
L 93.561328 248.763375 
L 94.645078 248.763375 
z
M 98.283281 250.627125 
L 99.361406 250.627125 
L 99.361406 257.189625 
L 98.283281 257.189625 
L 98.283281 250.627125 
z
M 98.283281 248.0715 
L 99.361406 248.0715 
L 99.361406 249.438375 
L 98.283281 249.438375 
L 98.283281 248.0715 
z
M 104.159766 251.38275 
Q 103.293516 251.38275 102.789141 252.059625 
Q 102.284766 252.7365 102.284766 253.914 
Q 102.284766 255.0915 102.785391 255.768375 
Q 103.287891 256.44525 104.159766 256.44525 
Q 105.022266 256.44525 105.524766 255.7665 
Q 106.029141 255.085875 106.029141 253.914 
Q 106.029141 252.74775 105.524766 252.06525 
Q 105.022266 251.38275 104.159766 251.38275 
z
M 104.159766 250.469625 
Q 105.566016 250.469625 106.368516 251.384625 
Q 107.172891 252.29775 107.172891 253.914 
Q 107.172891 255.524625 106.368516 256.443375 
Q 105.566016 257.36025 104.159766 257.36025 
Q 102.747891 257.36025 101.947266 256.443375 
Q 101.148516 255.524625 101.148516 253.914 
Q 101.148516 252.29775 101.947266 251.384625 
Q 102.747891 250.469625 104.159766 250.469625 
z
M 114.415312 253.22775 
L 114.415312 257.189625 
L 113.337187 257.189625 
L 113.337187 253.263375 
Q 113.337187 252.3315 112.973438 251.87025 
Q 112.609688 251.407125 111.884062 251.407125 
Q 111.010312 251.407125 110.505938 251.964 
Q 110.001563 252.519 110.001563 253.480875 
L 110.001563 257.189625 
L 108.917812 257.189625 
L 108.917812 250.627125 
L 110.001563 250.627125 
L 110.001563 251.647125 
Q 110.389688 251.054625 110.912813 250.762125 
Q 111.437813 250.469625 112.124063 250.469625 
Q 113.254688 250.469625 113.834063 251.169 
Q 114.415312 251.868375 114.415312 253.22775 
z
M 127.972734 253.34025 
Q 127.462734 253.34025 127.172109 253.773375 
Q 126.883359 254.2065 126.883359 254.980875 
Q 126.883359 255.742125 127.172109 256.179 
Q 127.462734 256.615875 127.972734 256.615875 
Q 128.471484 256.615875 128.760234 256.179 
Q 129.050859 255.742125 129.050859 254.980875 
Q 129.050859 254.212125 128.760234 253.777125 
Q 128.471484 253.34025 127.972734 253.34025 
z
M 127.972734 252.595875 
Q 128.898984 252.595875 129.442734 253.240875 
Q 129.988359 253.884 129.988359 254.980875 
Q 129.988359 256.075875 129.440859 256.719 
Q 128.893359 257.36025 127.972734 257.36025 
Q 127.035234 257.36025 126.489609 256.719 
Q 125.945859 256.075875 125.945859 254.980875 
Q 125.945859 253.878375 126.493359 253.237125 
Q 127.040859 252.595875 127.972734 252.595875 
z
M 121.925859 249.02775 
Q 121.421484 249.02775 121.130859 249.464625 
Q 120.842109 249.899625 120.842109 250.66275 
Q 120.842109 251.43525 121.128984 251.87025 
Q 121.415859 252.303375 121.925859 252.303375 
Q 122.435859 252.303375 122.724609 251.87025 
Q 123.015234 251.43525 123.015234 250.66275 
Q 123.015234 249.907125 122.722734 249.468375 
Q 122.430234 249.02775 121.925859 249.02775 
z
M 127.217109 248.283375 
L 128.154609 248.283375 
L 122.681484 257.36025 
L 121.743984 257.36025 
L 127.217109 248.283375 
z
M 121.925859 248.283375 
Q 122.852109 248.283375 123.401484 248.924625 
Q 123.952734 249.565875 123.952734 250.66275 
Q 123.952734 251.769 123.405234 252.408375 
Q 122.857734 253.04775 121.925859 253.04775 
Q 120.993984 253.04775 120.452109 252.4065 
Q 119.910234 251.763375 119.910234 250.66275 
Q 119.910234 249.5715 120.453984 248.928375 
Q 120.999609 248.283375 121.925859 248.283375 
z
" style="fill: #ffffff"/>
    <path d="M 17.35125 269.37825 
L 17.35125 267.028875 
L 15.418125 267.028875 
L 15.418125 266.05575 
L 18.523125 266.05575 
L 18.523125 269.81325 
Q 17.83875 270.298875 17.011875 270.54825 
Q 16.186875 270.797625 15.249375 270.797625 
Q 13.198125 270.797625 12.039375 269.5995 
Q 10.8825 268.3995 10.8825 266.262 
Q 10.8825 264.117 12.039375 262.918875 
Q 13.198125 261.72075 15.249375 261.72075 
Q 16.104375 261.72075 16.875 261.932625 
Q 17.645625 262.142625 18.29625 262.55325 
L 18.29625 263.81325 
Q 17.64 263.256375 16.90125 262.975125 
Q 16.1625 262.693875 15.34875 262.693875 
Q 13.741875 262.693875 12.935625 263.590125 
Q 12.13125 264.486375 12.13125 266.262 
Q 12.13125 268.032 12.935625 268.92825 
Q 13.741875 269.8245 15.34875 269.8245 
Q 15.975 269.8245 16.46625 269.71575 
Q 16.959375 269.607 17.35125 269.37825 
z
M 24.441328 265.071375 
Q 24.259453 264.966375 24.045703 264.917625 
Q 23.831953 264.867 23.575078 264.867 
Q 22.660078 264.867 22.170703 265.461375 
Q 21.681328 266.05575 21.681328 267.1695 
L 21.681328 270.627 
L 20.597578 270.627 
L 20.597578 264.0645 
L 21.681328 264.0645 
L 21.681328 265.0845 
Q 22.022578 264.486375 22.566328 264.197625 
Q 23.111953 263.907 23.891953 263.907 
Q 24.002578 263.907 24.137578 263.922 
Q 24.272578 263.935125 24.435703 263.965125 
L 24.441328 265.071375 
z
M 27.844922 264.820125 
Q 26.978672 264.820125 26.474297 265.497 
Q 25.969922 266.173875 25.969922 267.351375 
Q 25.969922 268.528875 26.470547 269.20575 
Q 26.973047 269.882625 27.844922 269.882625 
Q 28.707422 269.882625 29.209922 269.203875 
Q 29.714297 268.52325 29.714297 267.351375 
Q 29.714297 266.185125 29.209922 265.502625 
Q 28.707422 264.820125 27.844922 264.820125 
z
M 27.844922 263.907 
Q 29.251172 263.907 30.053672 264.822 
Q 30.858047 265.735125 30.858047 267.351375 
Q 30.858047 268.962 30.053672 269.88075 
Q 29.251172 270.797625 27.844922 270.797625 
Q 26.433047 270.797625 25.632422 269.88075 
Q 24.833672 268.962 24.833672 267.351375 
Q 24.833672 265.735125 25.632422 264.822 
Q 26.433047 263.907 27.844922 263.907 
z
M 32.017969 264.0645 
L 33.096094 264.0645 
L 34.444219 269.185125 
L 35.784844 264.0645 
L 37.056094 264.0645 
L 38.404219 269.185125 
L 39.746719 264.0645 
L 40.824844 264.0645 
L 39.107344 270.627 
L 37.836094 270.627 
L 36.424219 265.247625 
L 35.006719 270.627 
L 33.733594 270.627 
L 32.017969 264.0645 
z
M 43.525547 262.20075 
L 43.525547 264.0645 
L 45.745547 264.0645 
L 45.745547 264.902625 
L 43.525547 264.902625 
L 43.525547 268.465125 
Q 43.525547 269.267625 43.744922 269.496375 
Q 43.964297 269.725125 44.639297 269.725125 
L 45.745547 269.725125 
L 45.745547 270.627 
L 44.639297 270.627 
Q 43.390547 270.627 42.916172 270.162 
Q 42.441797 269.695125 42.441797 268.465125 
L 42.441797 264.902625 
L 41.650547 264.902625 
L 41.650547 264.0645 
L 42.441797 264.0645 
L 42.441797 262.20075 
L 43.525547 262.20075 
z
M 52.62 266.665125 
L 52.62 270.627 
L 51.541875 270.627 
L 51.541875 266.70075 
Q 51.541875 265.768875 51.178125 265.307625 
Q 50.814375 264.8445 50.08875 264.8445 
Q 49.215 264.8445 48.710625 265.401375 
Q 48.20625 265.956375 48.20625 266.91825 
L 48.20625 270.627 
L 47.1225 270.627 
L 47.1225 261.508875 
L 48.20625 261.508875 
L 48.20625 265.0845 
Q 48.594375 264.492 49.1175 264.1995 
Q 49.6425 263.907 50.32875 263.907 
Q 51.459375 263.907 52.03875 264.606375 
Q 52.62 265.30575 52.62 266.665125 
z
M 58.630547 261.87825 
L 63.657422 261.87825 
L 63.657422 262.87575 
L 59.813672 262.87575 
L 59.813672 265.453875 
L 63.282422 265.453875 
L 63.282422 266.4495 
L 59.813672 266.4495 
L 59.813672 270.627 
L 58.630547 270.627 
L 58.630547 261.87825 
z
M 68.418516 265.071375 
Q 68.236641 264.966375 68.022891 264.917625 
Q 67.809141 264.867 67.552266 264.867 
Q 66.637266 264.867 66.147891 265.461375 
Q 65.658516 266.05575 65.658516 267.1695 
L 65.658516 270.627 
L 64.574766 270.627 
L 64.574766 264.0645 
L 65.658516 264.0645 
L 65.658516 265.0845 
Q 65.999766 264.486375 66.543516 264.197625 
Q 67.089141 263.907 67.869141 263.907 
Q 67.979766 263.907 68.114766 263.922 
Q 68.249766 263.935125 68.412891 263.965125 
L 68.418516 265.071375 
z
M 71.822109 264.820125 
Q 70.955859 264.820125 70.451484 265.497 
Q 69.947109 266.173875 69.947109 267.351375 
Q 69.947109 268.528875 70.447734 269.20575 
Q 70.950234 269.882625 71.822109 269.882625 
Q 72.684609 269.882625 73.187109 269.203875 
Q 73.691484 268.52325 73.691484 267.351375 
Q 73.691484 266.185125 73.187109 265.502625 
Q 72.684609 264.820125 71.822109 264.820125 
z
M 71.822109 263.907 
Q 73.228359 263.907 74.030859 264.822 
Q 74.835234 265.735125 74.835234 267.351375 
Q 74.835234 268.962 74.030859 269.88075 
Q 73.228359 270.797625 71.822109 270.797625 
Q 70.410234 270.797625 69.609609 269.88075 
Q 68.810859 268.962 68.810859 267.351375 
Q 68.810859 265.735125 69.609609 264.822 
Q 70.410234 263.907 71.822109 263.907 
z
M 81.730781 265.3245 
Q 82.135781 264.597 82.698281 264.252 
Q 83.260781 263.907 84.022031 263.907 
Q 85.047656 263.907 85.604531 264.625125 
Q 86.161406 265.341375 86.161406 266.665125 
L 86.161406 270.627 
L 85.077656 270.627 
L 85.077656 266.70075 
Q 85.077656 265.757625 84.742031 265.302 
Q 84.408281 264.8445 83.723906 264.8445 
Q 82.885781 264.8445 82.398281 265.401375 
Q 81.912656 265.956375 81.912656 266.91825 
L 81.912656 270.627 
L 80.828906 270.627 
L 80.828906 266.70075 
Q 80.828906 265.752 80.495156 265.29825 
Q 80.161406 264.8445 79.463906 264.8445 
Q 78.637031 264.8445 78.149531 265.40325 
Q 77.663906 265.962 77.663906 266.91825 
L 77.663906 270.627 
L 76.580156 270.627 
L 76.580156 264.0645 
L 77.663906 264.0645 
L 77.663906 265.0845 
Q 78.033281 264.48075 78.548906 264.193875 
Q 79.064531 263.907 79.773281 263.907 
Q 80.489531 263.907 80.990156 264.27075 
Q 81.490781 264.632625 81.730781 265.3245 
z
M 93.297188 269.631375 
L 97.427813 269.631375 
L 97.427813 270.627 
L 91.874063 270.627 
L 91.874063 269.631375 
Q 92.547188 268.933875 93.709688 267.760125 
Q 94.874063 266.5845 95.172188 266.24325 
Q 95.740313 265.60575 95.965313 265.16325 
Q 96.192188 264.72075 96.192188 264.29325 
Q 96.192188 263.59575 95.702813 263.157 
Q 95.213438 262.716375 94.427813 262.716375 
Q 93.870938 262.716375 93.252188 262.9095 
Q 92.635313 263.102625 91.932188 263.496375 
L 91.932188 262.300125 
Q 92.646563 262.01325 93.267188 261.867 
Q 93.889688 261.72075 94.405313 261.72075 
Q 95.764688 261.72075 96.572813 262.401375 
Q 97.380938 263.080125 97.380938 264.216375 
Q 97.380938 264.756375 97.178438 265.240125 
Q 96.977812 265.722 96.443438 266.37825 
Q 96.297188 266.548875 95.511563 267.36075 
Q 94.727812 268.172625 93.297188 269.631375 
z
M 102.443203 262.65825 
Q 101.530078 262.65825 101.068828 263.55825 
Q 100.609453 264.456375 100.609453 266.262 
Q 100.609453 268.060125 101.068828 268.960125 
Q 101.530078 269.860125 102.443203 269.860125 
Q 103.363828 269.860125 103.823203 268.960125 
Q 104.284453 268.060125 104.284453 266.262 
Q 104.284453 264.456375 103.823203 263.55825 
Q 103.363828 262.65825 102.443203 262.65825 
z
M 102.443203 261.72075 
Q 103.915078 261.72075 104.691328 262.885125 
Q 105.467578 264.047625 105.467578 266.262 
Q 105.467578 268.47075 104.691328 269.635125 
Q 103.915078 270.797625 102.443203 270.797625 
Q 100.973203 270.797625 100.196953 269.635125 
Q 99.420703 268.47075 99.420703 266.262 
Q 99.420703 264.047625 100.196953 262.885125 
Q 100.973203 261.72075 102.443203 261.72075 
z
M 107.752969 269.631375 
L 109.686094 269.631375 
L 109.686094 262.956375 
L 107.582344 263.37825 
L 107.582344 262.300125 
L 109.674844 261.87825 
L 110.857969 261.87825 
L 110.857969 269.631375 
L 112.791094 269.631375 
L 112.791094 270.627 
L 107.752969 270.627 
L 107.752969 269.631375 
z
M 117.712734 266.472 
Q 116.868984 266.472 116.385234 266.923875 
Q 115.903359 267.37575 115.903359 268.165125 
Q 115.903359 268.956375 116.385234 269.40825 
Q 116.868984 269.860125 117.712734 269.860125 
Q 118.556484 269.860125 119.042109 269.406375 
Q 119.529609 268.95075 119.529609 268.165125 
Q 119.529609 267.37575 119.045859 266.923875 
Q 118.563984 266.472 117.712734 266.472 
z
M 116.529609 265.9695 
Q 115.768359 265.782 115.342734 265.26075 
Q 114.918984 264.737625 114.918984 263.987625 
Q 114.918984 262.9395 115.665234 262.330125 
Q 116.413359 261.72075 117.712734 261.72075 
Q 119.019609 261.72075 119.763984 262.330125 
Q 120.508359 262.9395 120.508359 263.987625 
Q 120.508359 264.737625 120.082734 265.26075 
Q 119.658984 265.782 118.903359 265.9695 
Q 119.758359 266.16825 120.234609 266.7495 
Q 120.712734 267.328875 120.712734 268.165125 
Q 120.712734 269.43825 119.936484 270.118875 
Q 119.160234 270.797625 117.712734 270.797625 
Q 116.267109 270.797625 115.488984 270.118875 
Q 114.712734 269.43825 114.712734 268.165125 
Q 114.712734 267.328875 115.192734 266.7495 
Q 115.674609 266.16825 116.529609 265.9695 
z
M 116.096484 264.100125 
Q 116.096484 264.778875 116.520234 265.1595 
Q 116.945859 265.540125 117.712734 265.540125 
Q 118.475859 265.540125 118.905234 265.1595 
Q 119.336484 264.778875 119.336484 264.100125 
Q 119.336484 263.4195 118.905234 263.038875 
Q 118.475859 262.65825 117.712734 262.65825 
Q 116.945859 262.65825 116.520234 263.038875 
Q 116.096484 263.4195 116.096484 264.100125 
z
M 127.545703 262.20075 
L 127.545703 264.0645 
L 129.765703 264.0645 
L 129.765703 264.902625 
L 127.545703 264.902625 
L 127.545703 268.465125 
Q 127.545703 269.267625 127.765078 269.496375 
Q 127.984453 269.725125 128.659453 269.725125 
L 129.765703 269.725125 
L 129.765703 270.627 
L 128.659453 270.627 
Q 127.410703 270.627 126.936328 270.162 
Q 126.461953 269.695125 126.461953 268.465125 
L 126.461953 264.902625 
L 125.670703 264.902625 
L 125.670703 264.0645 
L 126.461953 264.0645 
L 126.461953 262.20075 
L 127.545703 262.20075 
z
M 133.726406 264.820125 
Q 132.860156 264.820125 132.355781 265.497 
Q 131.851406 266.173875 131.851406 267.351375 
Q 131.851406 268.528875 132.352031 269.20575 
Q 132.854531 269.882625 133.726406 269.882625 
Q 134.588906 269.882625 135.091406 269.203875 
Q 135.595781 268.52325 135.595781 267.351375 
Q 135.595781 266.185125 135.091406 265.502625 
Q 134.588906 264.820125 133.726406 264.820125 
z
M 133.726406 263.907 
Q 135.132656 263.907 135.935156 264.822 
Q 136.739531 265.735125 136.739531 267.351375 
Q 136.739531 268.962 135.935156 269.88075 
Q 135.132656 270.797625 133.726406 270.797625 
Q 132.314531 270.797625 131.513906 269.88075 
Q 130.715156 268.962 130.715156 267.351375 
Q 130.715156 265.735125 131.513906 264.822 
Q 132.314531 263.907 133.726406 263.907 
z
" style="fill: #ffffff; stroke: #000000; stroke-width: 2"/>
    <path d="M 17.35125 269.37825 
L 17.35125 267.028875 
L 15.418125 267.028875 
L 15.418125 266.05575 
L 18.523125 266.05575 
L 18.523125 269.81325 
Q 17.83875 270.298875 17.011875 270.54825 
Q 16.186875 270.797625 15.249375 270.797625 
Q 13.198125 270.797625 12.039375 269.5995 
Q 10.8825 268.3995 10.8825 266.262 
Q 10.8825 264.117 12.039375 262.918875 
Q 13.198125 261.72075 15.249375 261.72075 
Q 16.104375 261.72075 16.875 261.932625 
Q 17.645625 262.142625 18.29625 262.55325 
L 18.29625 263.81325 
Q 17.64 263.256375 16.90125 262.975125 
Q 16.1625 262.693875 15.34875 262.693875 
Q 13.741875 262.693875 12.935625 263.590125 
Q 12.13125 264.486375 12.13125 266.262 
Q 12.13125 268.032 12.935625 268.92825 
Q 13.741875 269.8245 15.34875 269.8245 
Q 15.975 269.8245 16.46625 269.71575 
Q 16.959375 269.607 17.35125 269.37825 
z
M 24.441328 265.071375 
Q 24.259453 264.966375 24.045703 264.917625 
Q 23.831953 264.867 23.575078 264.867 
Q 22.660078 264.867 22.170703 265.461375 
Q 21.681328 266.05575 21.681328 267.1695 
L 21.681328 270.627 
L 20.597578 270.627 
L 20.597578 264.0645 
L 21.681328 264.0645 
L 21.681328 265.0845 
Q 22.022578 264.486375 22.566328 264.197625 
Q 23.111953 263.907 23.891953 263.907 
Q 24.002578 263.907 24.137578 263.922 
Q 24.272578 263.935125 24.435703 263.965125 
L 24.441328 265.071375 
z
M 27.844922 264.820125 
Q 26.978672 264.820125 26.474297 265.497 
Q 25.969922 266.173875 25.969922 267.351375 
Q 25.969922 268.528875 26.470547 269.20575 
Q 26.973047 269.882625 27.844922 269.882625 
Q 28.707422 269.882625 29.209922 269.203875 
Q 29.714297 268.52325 29.714297 267.351375 
Q 29.714297 266.185125 29.209922 265.502625 
Q 28.707422 264.820125 27.844922 264.820125 
z
M 27.844922 263.907 
Q 29.251172 263.907 30.053672 264.822 
Q 30.858047 265.735125 30.858047 267.351375 
Q 30.858047 268.962 30.053672 269.88075 
Q 29.251172 270.797625 27.844922 270.797625 
Q 26.433047 270.797625 25.632422 269.88075 
Q 24.833672 268.962 24.833672 267.351375 
Q 24.833672 265.735125 25.632422 264.822 
Q 26.433047 263.907 27.844922 263.907 
z
M 32.017969 264.0645 
L 33.096094 264.0645 
L 34.444219 269.185125 
L 35.784844 264.0645 
L 37.056094 264.0645 
L 38.404219 269.185125 
L 39.746719 264.0645 
L 40.824844 264.0645 
L 39.107344 270.627 
L 37.836094 270.627 
L 36.424219 265.247625 
L 35.006719 270.627 
L 33.733594 270.627 
L 32.017969 264.0645 
z
M 43.525547 262.20075 
L 43.525547 264.0645 
L 45.745547 264.0645 
L 45.745547 264.902625 
L 43.525547 264.902625 
L 43.525547 268.465125 
Q 43.525547 269.267625 43.744922 269.496375 
Q 43.964297 269.725125 44.639297 269.725125 
L 45.745547 269.725125 
L 45.745547 270.627 
L 44.639297 270.627 
Q 43.390547 270.627 42.916172 270.162 
Q 42.441797 269.695125 42.441797 268.465125 
L 42.441797 264.902625 
L 41.650547 264.902625 
L 41.650547 264.0645 
L 42.441797 264.0645 
L 42.441797 262.20075 
L 43.525547 262.20075 
z
M 52.62 266.665125 
L 52.62 270.627 
L 51.541875 270.627 
L 51.541875 266.70075 
Q 51.541875 265.768875 51.178125 265.307625 
Q 50.814375 264.8445 50.08875 264.8445 
Q 49.215 264.8445 48.710625 265.401375 
Q 48.20625 265.956375 48.20625 266.91825 
L 48.20625 270.627 
L 47.1225 270.627 
L 47.1225 261.508875 
L 48.20625 261.508875 
L 48.20625 265.0845 
Q 48.594375 264.492 49.1175 264.1995 
Q 49.6425 263.907 50.32875 263.907 
Q 51.459375 263.907 52.03875 264.606375 
Q 52.62 265.30575 52.62 266.665125 
z
M 58.630547 261.87825 
L 63.657422 261.87825 
L 63.657422 262.87575 
L 59.813672 262.87575 
L 59.813672 265.453875 
L 63.282422 265.453875 
L 63.282422 266.4495 
L 59.813672 266.4495 
L 59.813672 270.627 
L 58.630547 270.627 
L 58.630547 261.87825 
z
M 68.418516 265.071375 
Q 68.236641 264.966375 68.022891 264.917625 
Q 67.809141 264.867 67.552266 264.867 
Q 66.637266 264.867 66.147891 265.461375 
Q 65.658516 266.05575 65.658516 267.1695 
L 65.658516 270.627 
L 64.574766 270.627 
L 64.574766 264.0645 
L 65.658516 264.0645 
L 65.658516 265.0845 
Q 65.999766 264.486375 66.543516 264.197625 
Q 67.089141 263.907 67.869141 263.907 
Q 67.979766 263.907 68.114766 263.922 
Q 68.249766 263.935125 68.412891 263.965125 
L 68.418516 265.071375 
z
M 71.822109 264.820125 
Q 70.955859 264.820125 70.451484 265.497 
Q 69.947109 266.173875 69.947109 267.351375 
Q 69.947109 268.528875 70.447734 269.20575 
Q 70.950234 269.882625 71.822109 269.882625 
Q 72.684609 269.882625 73.187109 269.203875 
Q 73.691484 268.52325 73.691484 267.351375 
Q 73.691484 266.185125 73.187109 265.502625 
Q 72.684609 264.820125 71.822109 264.820125 
z
M 71.822109 263.907 
Q 73.228359 263.907 74.030859 264.822 
Q 74.835234 265.735125 74.835234 267.351375 
Q 74.835234 268.962 74.030859 269.88075 
Q 73.228359 270.797625 71.822109 270.797625 
Q 70.410234 270.797625 69.609609 269.88075 
Q 68.810859 268.962 68.810859 267.351375 
Q 68.810859 265.735125 69.609609 264.822 
Q 70.410234 263.907 71.822109 263.907 
z
M 81.730781 265.3245 
Q 82.135781 264.597 82.698281 264.252 
Q 83.260781 263.907 84.022031 263.907 
Q 85.047656 263.907 85.604531 264.625125 
Q 86.161406 265.341375 86.161406 266.665125 
L 86.161406 270.627 
L 85.077656 270.627 
L 85.077656 266.70075 
Q 85.077656 265.757625 84.742031 265.302 
Q 84.408281 264.8445 83.723906 264.8445 
Q 82.885781 264.8445 82.398281 265.401375 
Q 81.912656 265.956375 81.912656 266.91825 
L 81.912656 270.627 
L 80.828906 270.627 
L 80.828906 266.70075 
Q 80.828906 265.752 80.495156 265.29825 
Q 80.161406 264.8445 79.463906 264.8445 
Q 78.637031 264.8445 78.149531 265.40325 
Q 77.663906 265.962 77.663906 266.91825 
L 77.663906 270.627 
L 76.580156 270.627 
L 76.580156 264.0645 
L 77.663906 264.0645 
L 77.663906 265.0845 
Q 78.033281 264.48075 78.548906 264.193875 
Q 79.064531 263.907 79.773281 263.907 
Q 80.489531 263.907 80.990156 264.27075 
Q 81.490781 264.632625 81.730781 265.3245 
z
M 93.297188 269.631375 
L 97.427813 269.631375 
L 97.427813 270.627 
L 91.874063 270.627 
L 91.874063 269.631375 
Q 92.547188 268.933875 93.709688 267.760125 
Q 94.874063 266.5845 95.172188 266.24325 
Q 95.740313 265.60575 95.965313 265.16325 
Q 96.192188 264.72075 96.192188 264.29325 
Q 96.192188 263.59575 95.702813 263.157 
Q 95.213438 262.716375 94.427813 262.716375 
Q 93.870938 262.716375 93.252188 262.9095 
Q 92.635313 263.102625 91.932188 263.496375 
L 91.932188 262.300125 
Q 92.646563 262.01325 93.267188 261.867 
Q 93.889688 261.72075 94.405313 261.72075 
Q 95.764688 261.72075 96.572813 262.401375 
Q 97.380938 263.080125 97.380938 264.216375 
Q 97.380938 264.756375 97.178438 265.240125 
Q 96.977812 265.722 96.443438 266.37825 
Q 96.297188 266.548875 95.511563 267.36075 
Q 94.727812 268.172625 93.297188 269.631375 
z
M 102.443203 262.65825 
Q 101.530078 262.65825 101.068828 263.55825 
Q 100.609453 264.456375 100.609453 266.262 
Q 100.609453 268.060125 101.068828 268.960125 
Q 101.530078 269.860125 102.443203 269.860125 
Q 103.363828 269.860125 103.823203 268.960125 
Q 104.284453 268.060125 104.284453 266.262 
Q 104.284453 264.456375 103.823203 263.55825 
Q 103.363828 262.65825 102.443203 262.65825 
z
M 102.443203 261.72075 
Q 103.915078 261.72075 104.691328 262.885125 
Q 105.467578 264.047625 105.467578 266.262 
Q 105.467578 268.47075 104.691328 269.635125 
Q 103.915078 270.797625 102.443203 270.797625 
Q 100.973203 270.797625 100.196953 269.635125 
Q 99.420703 268.47075 99.420703 266.262 
Q 99.420703 264.047625 100.196953 262.885125 
Q 100.973203 261.72075 102.443203 261.72075 
z
M 107.752969 269.631375 
L 109.686094 269.631375 
L 109.686094 262.956375 
L 107.582344 263.37825 
L 107.582344 262.300125 
L 109.674844 261.87825 
L 110.857969 261.87825 
L 110.857969 269.631375 
L 112.791094 269.631375 
L 112.791094 270.627 
L 107.752969 270.627 
L 107.752969 269.631375 
z
M 117.712734 266.472 
Q 116.868984 266.472 116.385234 266.923875 
Q 115.903359 267.37575 115.903359 268.165125 
Q 115.903359 268.956375 116.385234 269.40825 
Q 116.868984 269.860125 117.712734 269.860125 
Q 118.556484 269.860125 119.042109 269.406375 
Q 119.529609 268.95075 119.529609 268.165125 
Q 119.529609 267.37575 119.045859 266.923875 
Q 118.563984 266.472 117.712734 266.472 
z
M 116.529609 265.9695 
Q 115.768359 265.782 115.342734 265.26075 
Q 114.918984 264.737625 114.918984 263.987625 
Q 114.918984 262.9395 115.665234 262.330125 
Q 116.413359 261.72075 117.712734 261.72075 
Q 119.019609 261.72075 119.763984 262.330125 
Q 120.508359 262.9395 120.508359 263.987625 
Q 120.508359 264.737625 120.082734 265.26075 
Q 119.658984 265.782 118.903359 265.9695 
Q 119.758359 266.16825 120.234609 266.7495 
Q 120.712734 267.328875 120.712734 268.165125 
Q 120.712734 269.43825 119.936484 270.118875 
Q 119.160234 270.797625 117.712734 270.797625 
Q 116.267109 270.797625 115.488984 270.118875 
Q 114.712734 269.43825 114.712734 268.165125 
Q 114.712734 267.328875 115.192734 266.7495 
Q 115.674609 266.16825 116.529609 265.9695 
z
M 116.096484 264.100125 
Q 116.096484 264.778875 116.520234 265.1595 
Q 116.945859 265.540125 117.712734 265.540125 
Q 118.475859 265.540125 118.905234 265.1595 
Q 119.336484 264.778875 119.336484 264.100125 
Q 119.336484 263.4195 118.905234 263.038875 
Q 118.475859 262.65825 117.712734 262.65825 
Q 116.945859 262.65825 116.520234 263.038875 
Q 116.096484 263.4195 116.096484 264.100125 
z
M 127.545703 262.20075 
L 127.545703 264.0645 
L 129.765703 264.0645 
L 129.765703 264.902625 
L 127.545703 264.902625 
L 127.545703 268.465125 
Q 127.545703 269.267625 127.765078 269.496375 
Q 127.984453 269.725125 128.659453 269.725125 
L 129.765703 269.725125 
L 129.765703 270.627 
L 128.659453 270.627 
Q 127.410703 270.627 126.936328 270.162 
Q 126.461953 269.695125 126.461953 268.465125 
L 126.461953 264.902625 
L 125.670703 264.902625 
L 125.670703 264.0645 
L 126.461953 264.0645 
L 126.461953 262.20075 
L 127.545703 262.20075 
z
M 133.726406 264.820125 
Q 132.860156 264.820125 132.355781 265.497 
Q 131.851406 266.173875 131.851406 267.351375 
Q 131.851406 268.528875 132.352031 269.20575 
Q 132.854531 269.882625 133.726406 269.882625 
Q 134.588906 269.882625 135.091406 269.203875 
Q 135.595781 268.52325 135.595781 267.351375 
Q 135.595781 266.185125 135.091406 265.502625 
Q 134.588906 264.820125 133.726406 264.820125 
z
M 133.726406 263.907 
Q 135.132656 263.907 135.935156 264.822 
Q 136.739531 265.735125 136.739531 267.351375 
Q 136.739531 268.962 135.935156 269.88075 
Q 135.132656 270.797625 133.726406 270.797625 
Q 132.314531 270.797625 131.513906 269.88075 
Q 130.715156 268.962 130.715156 267.351375 
Q 130.715156 265.735125 131.513906 264.822 
Q 132.314531 263.907 133.726406 263.907 
z
" style="fill: #ffffff"/>
    <path d="M 60.8325 283.06875 
L 64.963125 283.06875 
L 64.963125 284.064375 
L 59.409375 284.064375 
L 59.409375 283.06875 
Q 60.0825 282.37125 61.245 281.1975 
Q 62.409375 280.021875 62.7075 279.680625 
Q 63.275625 279.043125 63.500625 278.600625 
Q 63.7275 278.158125 63.7275 277.730625 
Q 63.7275 277.033125 63.238125 276.594375 
Q 62.74875 276.15375 61.963125 276.15375 
Q 61.40625 276.15375 60.7875 276.346875 
Q 60.170625 276.54 59.4675 276.93375 
L 59.4675 275.7375 
Q 60.181875 275.450625 60.8025 275.304375 
Q 61.425 275.158125 61.940625 275.158125 
Q 63.3 275.158125 64.108125 275.83875 
Q 64.91625 276.5175 64.91625 277.65375 
Q 64.91625 278.19375 64.71375 278.6775 
Q 64.513125 279.159375 63.97875 279.815625 
Q 63.8325 279.98625 63.046875 280.798125 
Q 62.263125 281.61 60.8325 283.06875 
z
M 69.978516 276.095625 
Q 69.065391 276.095625 68.604141 276.995625 
Q 68.144766 277.89375 68.144766 279.699375 
Q 68.144766 281.4975 68.604141 282.3975 
Q 69.065391 283.2975 69.978516 283.2975 
Q 70.899141 283.2975 71.358516 282.3975 
Q 71.819766 281.4975 71.819766 279.699375 
Q 71.819766 277.89375 71.358516 276.995625 
Q 70.899141 276.095625 69.978516 276.095625 
z
M 69.978516 275.158125 
Q 71.450391 275.158125 72.226641 276.3225 
Q 73.002891 277.485 73.002891 279.699375 
Q 73.002891 281.908125 72.226641 283.0725 
Q 71.450391 284.235 69.978516 284.235 
Q 68.508516 284.235 67.732266 283.0725 
Q 66.956016 281.908125 66.956016 279.699375 
Q 66.956016 277.485 67.732266 276.3225 
Q 68.508516 275.158125 69.978516 275.158125 
z
M 75.288281 283.06875 
L 77.221406 283.06875 
L 77.221406 276.39375 
L 75.117656 276.815625 
L 75.117656 275.7375 
L 77.210156 275.315625 
L 78.393281 275.315625 
L 78.393281 283.06875 
L 80.326406 283.06875 
L 80.326406 284.064375 
L 75.288281 284.064375 
L 75.288281 283.06875 
z
M 82.752422 283.8825 
L 82.752422 282.804375 
Q 83.198672 283.01625 83.654297 283.126875 
Q 84.111797 283.2375 84.552422 283.2375 
Q 85.724297 283.2375 86.341172 282.45 
Q 86.959922 281.6625 87.048047 280.055625 
Q 86.708672 280.56 86.185547 280.83 
Q 85.664297 281.1 85.032422 281.1 
Q 83.719922 281.1 82.954922 280.306875 
Q 82.189922 279.511875 82.189922 278.13375 
Q 82.189922 276.7875 82.986797 275.97375 
Q 83.783672 275.158125 85.107422 275.158125 
Q 86.626172 275.158125 87.424922 276.3225 
Q 88.225547 277.485 88.225547 279.699375 
Q 88.225547 281.7675 87.243047 283.00125 
Q 86.262422 284.235 84.604922 284.235 
Q 84.158672 284.235 83.701172 284.146875 
Q 83.245547 284.05875 82.752422 283.8825 
z
M 85.107422 280.17375 
Q 85.904297 280.17375 86.369297 279.63 
Q 86.836172 279.084375 86.836172 278.13375 
Q 86.836172 277.190625 86.369297 276.643125 
Q 85.904297 276.095625 85.107422 276.095625 
Q 84.310547 276.095625 83.845547 276.643125 
Q 83.380547 277.190625 83.380547 278.13375 
Q 83.380547 279.084375 83.845547 279.63 
Q 84.310547 280.17375 85.107422 280.17375 
z
" style="fill: #ffffff; stroke: #000000; stroke-width: 2"/>
    <path d="M 60.8325 283.06875 
L 64.963125 283.06875 
L 64.963125 284.064375 
L 59.409375 284.064375 
L 59.409375 283.06875 
Q 60.0825 282.37125 61.245 281.1975 
Q 62.409375 280.021875 62.7075 279.680625 
Q 63.275625 279.043125 63.500625 278.600625 
Q 63.7275 278.158125 63.7275 277.730625 
Q 63.7275 277.033125 63.238125 276.594375 
Q 62.74875 276.15375 61.963125 276.15375 
Q 61.40625 276.15375 60.7875 276.346875 
Q 60.170625 276.54 59.4675 276.93375 
L 59.4675 275.7375 
Q 60.181875 275.450625 60.8025 275.304375 
Q 61.425 275.158125 61.940625 275.158125 
Q 63.3 275.158125 64.108125 275.83875 
Q 64.91625 276.5175 64.91625 277.65375 
Q 64.91625 278.19375 64.71375 278.6775 
Q 64.513125 279.159375 63.97875 279.815625 
Q 63.8325 279.98625 63.046875 280.798125 
Q 62.263125 281.61 60.8325 283.06875 
z
M 69.978516 276.095625 
Q 69.065391 276.095625 68.604141 276.995625 
Q 68.144766 277.89375 68.144766 279.699375 
Q 68.144766 281.4975 68.604141 282.3975 
Q 69.065391 283.2975 69.978516 283.2975 
Q 70.899141 283.2975 71.358516 282.3975 
Q 71.819766 281.4975 71.819766 279.699375 
Q 71.819766 277.89375 71.358516 276.995625 
Q 70.899141 276.095625 69.978516 276.095625 
z
M 69.978516 275.158125 
Q 71.450391 275.158125 72.226641 276.3225 
Q 73.002891 277.485 73.002891 279.699375 
Q 73.002891 281.908125 72.226641 283.0725 
Q 71.450391 284.235 69.978516 284.235 
Q 68.508516 284.235 67.732266 283.0725 
Q 66.956016 281.908125 66.956016 279.699375 
Q 66.956016 277.485 67.732266 276.3225 
Q 68.508516 275.158125 69.978516 275.158125 
z
M 75.288281 283.06875 
L 77.221406 283.06875 
L 77.221406 276.39375 
L 75.117656 276.815625 
L 75.117656 275.7375 
L 77.210156 275.315625 
L 78.393281 275.315625 
L 78.393281 283.06875 
L 80.326406 283.06875 
L 80.326406 284.064375 
L 75.288281 284.064375 
L 75.288281 283.06875 
z
M 82.752422 283.8825 
L 82.752422 282.804375 
Q 83.198672 283.01625 83.654297 283.126875 
Q 84.111797 283.2375 84.552422 283.2375 
Q 85.724297 283.2375 86.341172 282.45 
Q 86.959922 281.6625 87.048047 280.055625 
Q 86.708672 280.56 86.185547 280.83 
Q 85.664297 281.1 85.032422 281.1 
Q 83.719922 281.1 82.954922 280.306875 
Q 82.189922 279.511875 82.189922 278.13375 
Q 82.189922 276.7875 82.986797 275.97375 
Q 83.783672 275.158125 85.107422 275.158125 
Q 86.626172 275.158125 87.424922 276.3225 
Q 88.225547 277.485 88.225547 279.699375 
Q 88.225547 281.7675 87.243047 283.00125 
Q 86.262422 284.235 84.604922 284.235 
Q 84.158672 284.235 83.701172 284.146875 
Q 83.245547 284.05875 82.752422 283.8825 
z
M 85.107422 280.17375 
Q 85.904297 280.17375 86.369297 279.63 
Q 86.836172 279.084375 86.836172 278.13375 
Q 86.836172 277.190625 86.369297 276.643125 
Q 85.904297 276.095625 85.107422 276.095625 
Q 84.310547 276.095625 83.845547 276.643125 
Q 83.380547 277.190625 83.380547 278.13375 
Q 83.380547 279.084375 83.845547 279.63 
Q 84.310547 280.17375 85.107422 280.17375 
z
" style="fill: #ffffff"/>
   </g>
  </g>
  <g id="axes_3">
   <g id="patch_4">
    <path d="M 104.982353 286.56 
L 129.6 286.56 
L 129.6 69.12 
L 104.982353 69.12 
L 104.982353 286.56 
z
" style="fill: none"/>
   </g>
  </g>
  <g id="axes_4">
   <g id="patch_5">
    <path d="M 18 504 
L 42.617647 504 
L 42.617647 286.56 
L 18 286.56 
L 18 504 
z
" style="fill: none"/>
   </g>
  </g>
  <g id="axes_5">
   <g id="patch_6">
    <path d="M 49.182353 504 
L 98.417647 504 
L 98.417647 286.56 
L 49.182353 286.56 
L 49.182353 504 
z
" style="fill: none"/>
   </g>
   <g id="patch_7">
    <path d="M 49.182353 494.116364 
L 96.073109 494.116364 
L 96.073109 469.407273 
L 49.182353 469.407273 
z
" clip-path="url(#pfb1c56f9db)" style="fill: #d73027"/>
   </g>
   <g id="patch_8">
    <path d="M 49.182353 469.407273 
L 96.073109 469.407273 
L 96.073109 444.698182 
L 49.182353 444.698182 
z
" clip-path="url(#pfb1c56f9db)" style="fill: #f46d43"/>
   </g>
   <g id="patch_9">
    <path d="M 49.182353 444.698182 
L 96.073109 444.698182 
L 96.073109 419.989091 
L 49.182353 419.989091 
z
" clip-path="url(#pfb1c56f9db)" style="fill: #fdae61"/>
   </g>
   <g id="patch_10">
    <path d="M 49.182353 419.989091 
L 96.073109 419.989091 
L 96.073109 395.28 
L 49.182353 395.28 
z
" clip-path="url(#pfb1c56f9db)" style="fill: #fee08b"/>
   </g>
   <g id="patch_11">
    <path d="M 49.182353 395.28 
L 96.073109 395.28 
L 96.073109 370.570909 
L 49.182353 370.570909 
z
" clip-path="url(#pfb1c56f9db)" style="fill: #d9ef8b"/>
   </g>
   <g id="patch_12">
    <path d="M 49.182353 370.570909 
L 96.073109 370.570909 
L 96.073109 345.861818 
L 49.182353 345.861818 
z
" clip-path="url(#pfb1c56f9db)" style="fill: #a6d96a"/>
   </g>
   <g id="patch_13">
    <path d="M 49.182353 345.861818 
L 96.073109 345.861818 
L 96.073109 321.152727 
L 49.182353 321.152727 
z
" clip-path="url(#pfb1c56f9db)" style="fill: #66bd63"/>
   </g>
   <g id="patch_14">
    <path d="M 49.182353 321.152727 
L 96.073109 321.152727 
L 96.073109 296.443636 
L 49.182353 296.443636 
z
" clip-path="url(#pfb1c56f9db)" style="fill: #1a9850"/>
   </g>
   <g id="text_2">
    <path d="M 60.159919 495.22125 
L 63.838669 495.22125 
L 63.838669 496.925625 
L 60.159919 496.925625 
L 60.159919 495.22125 
z
M 70.009762 495.144375 
Q 70.009762 493.50375 69.702262 492.834375 
Q 69.394762 492.163125 68.667262 492.163125 
Q 67.941637 492.163125 67.630387 492.834375 
Q 67.319137 493.50375 67.319137 495.144375 
Q 67.319137 496.80375 67.630387 497.484375 
Q 67.941637 498.163125 68.667262 498.163125 
Q 69.389137 498.163125 69.698512 497.484375 
Q 70.009762 496.80375 70.009762 495.144375 
z
M 72.265387 495.163125 
Q 72.265387 497.33625 71.327887 498.5175 
Q 70.390387 499.69875 68.667262 499.69875 
Q 66.938512 499.69875 66.001012 498.5175 
Q 65.063512 497.33625 65.063512 495.163125 
Q 65.063512 492.9825 66.001012 491.803125 
Q 66.938512 490.621875 68.667262 490.621875 
Q 70.390387 490.621875 71.327887 491.803125 
Q 72.265387 492.9825 72.265387 495.163125 
z
M 74.063747 497.26125 
L 76.173122 497.26125 
L 76.173122 499.528125 
L 74.063747 499.528125 
L 74.063747 497.26125 
z
M 81.575465 495.613125 
Q 80.94359 495.613125 80.60234 495.96 
Q 80.262965 496.305 80.262965 496.95 
Q 80.262965 497.595 80.60234 497.938125 
Q 80.94359 498.279375 81.575465 498.279375 
Q 82.20359 498.279375 82.53734 497.938125 
Q 82.87109 497.595 82.87109 496.95 
Q 82.87109 496.299375 82.53734 495.95625 
Q 82.20359 495.613125 81.575465 495.613125 
z
M 79.929215 494.870625 
Q 79.13234 494.62875 78.72734 494.131875 
Q 78.324215 493.633125 78.324215 492.88875 
Q 78.324215 491.7825 79.149215 491.203125 
Q 79.97609 490.621875 81.575465 490.621875 
Q 83.16359 490.621875 83.98859 491.199375 
Q 84.815465 491.776875 84.815465 492.88875 
Q 84.815465 493.633125 84.40859 494.131875 
Q 84.001715 494.62875 83.20484 494.870625 
Q 84.095465 495.11625 84.549215 495.669375 
Q 85.002965 496.2225 85.002965 497.06625 
Q 85.002965 498.3675 84.13859 499.033125 
Q 83.274215 499.69875 81.575465 499.69875 
Q 79.87109 499.69875 79.00109 499.033125 
Q 78.13109 498.3675 78.13109 497.06625 
Q 78.13109 496.2225 78.58484 495.669375 
Q 79.03859 495.11625 79.929215 494.870625 
z
M 80.45609 493.1175 
Q 80.45609 493.63875 80.746715 493.92 
Q 81.03734 494.20125 81.575465 494.20125 
Q 82.10234 494.20125 82.389215 493.92 
Q 82.677965 493.63875 82.677965 493.1175 
Q 82.677965 492.59625 82.389215 492.31875 
Q 82.10234 492.039375 81.575465 492.039375 
Q 81.03734 492.039375 80.746715 492.320625 
Q 80.45609 492.601875 80.45609 493.1175 
z
" style="stroke: #ffffff"/>
    <path d="M 60.159919 495.22125 
L 63.838669 495.22125 
L 63.838669 496.925625 
L 60.159919 496.925625 
L 60.159919 495.22125 
z
M 70.009762 495.144375 
Q 70.009762 493.50375 69.702262 492.834375 
Q 69.394762 492.163125 68.667262 492.163125 
Q 67.941637 492.163125 67.630387 492.834375 
Q 67.319137 493.50375 67.319137 495.144375 
Q 67.319137 496.80375 67.630387 497.484375 
Q 67.941637 498.163125 68.667262 498.163125 
Q 69.389137 498.163125 69.698512 497.484375 
Q 70.009762 496.80375 70.009762 495.144375 
z
M 72.265387 495.163125 
Q 72.265387 497.33625 71.327887 498.5175 
Q 70.390387 499.69875 68.667262 499.69875 
Q 66.938512 499.69875 66.001012 498.5175 
Q 65.063512 497.33625 65.063512 495.163125 
Q 65.063512 492.9825 66.001012 491.803125 
Q 66.938512 490.621875 68.667262 490.621875 
Q 70.390387 490.621875 71.327887 491.803125 
Q 72.265387 492.9825 72.265387 495.163125 
z
M 74.063747 497.26125 
L 76.173122 497.26125 
L 76.173122 499.528125 
L 74.063747 499.528125 
L 74.063747 497.26125 
z
M 81.575465 495.613125 
Q 80.94359 495.613125 80.60234 495.96 
Q 80.262965 496.305 80.262965 496.95 
Q 80.262965 497.595 80.60234 497.938125 
Q 80.94359 498.279375 81.575465 498.279375 
Q 82.20359 498.279375 82.53734 497.938125 
Q 82.87109 497.595 82.87109 496.95 
Q 82.87109 496.299375 82.53734 495.95625 
Q 82.20359 495.613125 81.575465 495.613125 
z
M 79.929215 494.870625 
Q 79.13234 494.62875 78.72734 494.131875 
Q 78.324215 493.633125 78.324215 492.88875 
Q 78.324215 491.7825 79.149215 491.203125 
Q 79.97609 490.621875 81.575465 490.621875 
Q 83.16359 490.621875 83.98859 491.199375 
Q 84.815465 491.776875 84.815465 492.88875 
Q 84.815465 493.633125 84.40859 494.131875 
Q 84.001715 494.62875 83.20484 494.870625 
Q 84.095465 495.11625 84.549215 495.669375 
Q 85.002965 496.2225 85.002965 497.06625 
Q 85.002965 498.3675 84.13859 499.033125 
Q 83.274215 499.69875 81.575465 499.69875 
Q 79.87109 499.69875 79.00109 499.033125 
Q 78.13109 498.3675 78.13109 497.06625 
Q 78.13109 496.2225 78.58484 495.669375 
Q 79.03859 495.11625 79.929215 494.870625 
z
M 80.45609 493.1175 
Q 80.45609 493.63875 80.746715 493.92 
Q 81.03734 494.20125 81.575465 494.20125 
Q 82.10234 494.20125 82.389215 493.92 
Q 82.677965 493.63875 82.677965 493.1175 
Q 82.677965 492.59625 82.389215 492.31875 
Q 82.10234 492.039375 81.575465 492.039375 
Q 81.03734 492.039375 80.746715 492.320625 
Q 80.45609 492.601875 80.45609 493.1175 
z
"/>
   </g>
   <g id="text_3">
    <path d="M 55.985231 470.512159 
L 59.663981 470.512159 
L 59.663981 472.216534 
L 55.985231 472.216534 
L 55.985231 470.512159 
z
M 65.835075 470.435284 
Q 65.835075 468.794659 65.527575 468.125284 
Q 65.220075 467.454034 64.492575 467.454034 
Q 63.76695 467.454034 63.4557 468.125284 
Q 63.14445 468.794659 63.14445 470.435284 
Q 63.14445 472.094659 63.4557 472.775284 
Q 63.76695 473.454034 64.492575 473.454034 
Q 65.21445 473.454034 65.523825 472.775284 
Q 65.835075 472.094659 65.835075 470.435284 
z
M 68.0907 470.454034 
Q 68.0907 472.627159 67.1532 473.808409 
Q 66.2157 474.989659 64.492575 474.989659 
Q 62.763825 474.989659 61.826325 473.808409 
Q 60.888825 472.627159 60.888825 470.454034 
Q 60.888825 468.273409 61.826325 467.094034 
Q 62.763825 465.912784 64.492575 465.912784 
Q 66.2157 465.912784 67.1532 467.094034 
Q 68.0907 468.273409 68.0907 470.454034 
z
M 69.889059 472.552159 
L 71.998434 472.552159 
L 71.998434 474.819034 
L 69.889059 474.819034 
L 69.889059 472.552159 
z
M 78.812653 470.101534 
Q 79.697653 470.330284 80.157028 470.896534 
Q 80.618278 471.460909 80.618278 472.334659 
Q 80.618278 473.635909 79.620778 474.312784 
Q 78.625153 474.989659 76.716403 474.989659 
Q 76.041403 474.989659 75.364528 474.880909 
Q 74.687653 474.772159 74.025778 474.554659 
L 74.025778 472.814659 
Q 74.659528 473.131534 75.282028 473.292784 
Q 75.906403 473.454034 76.510153 473.454034 
Q 77.406403 473.454034 77.884528 473.144659 
Q 78.362653 472.833409 78.362653 472.252159 
Q 78.362653 471.654034 77.873278 471.346534 
Q 77.383903 471.039034 76.427653 471.039034 
L 75.525778 471.039034 
L 75.525778 469.585909 
L 76.474528 469.585909 
Q 77.325778 469.585909 77.740153 469.319659 
Q 78.156403 469.053409 78.156403 468.507784 
Q 78.156403 468.005284 77.751403 467.729659 
Q 77.348278 467.454034 76.609528 467.454034 
Q 76.065778 467.454034 75.508903 467.577784 
Q 74.952028 467.699659 74.400778 467.939659 
L 74.400778 466.287784 
Q 75.068278 466.100284 75.724528 466.006534 
Q 76.380778 465.912784 77.014528 465.912784 
Q 78.718903 465.912784 79.564528 466.473409 
Q 80.412028 467.032159 80.412028 468.157159 
Q 80.412028 468.924034 80.007028 469.413409 
Q 79.603903 469.902784 78.812653 470.101534 
z
M 85.030387 473.161534 
L 88.879762 473.161534 
L 88.879762 474.819034 
L 82.521637 474.819034 
L 82.521637 473.161534 
L 85.714762 470.341534 
Q 86.144137 469.955284 86.348512 469.585909 
Q 86.552887 469.216534 86.552887 468.819034 
Q 86.552887 468.204034 86.140387 467.829034 
Q 85.727887 467.454034 85.041637 467.454034 
Q 84.514762 467.454034 83.886637 467.679034 
Q 83.260387 467.904034 82.546012 468.350284 
L 82.546012 466.428409 
Q 83.307262 466.177159 84.051637 466.045909 
Q 84.796012 465.912784 85.510387 465.912784 
Q 87.081637 465.912784 87.951637 466.604659 
Q 88.821637 467.294659 88.821637 468.532159 
Q 88.821637 469.246534 88.452262 469.865284 
Q 88.082887 470.482159 86.899762 471.520909 
L 85.030387 473.161534 
z
" style="stroke: #ffffff"/>
    <path d="M 55.985231 470.512159 
L 59.663981 470.512159 
L 59.663981 472.216534 
L 55.985231 472.216534 
L 55.985231 470.512159 
z
M 65.835075 470.435284 
Q 65.835075 468.794659 65.527575 468.125284 
Q 65.220075 467.454034 64.492575 467.454034 
Q 63.76695 467.454034 63.4557 468.125284 
Q 63.14445 468.794659 63.14445 470.435284 
Q 63.14445 472.094659 63.4557 472.775284 
Q 63.76695 473.454034 64.492575 473.454034 
Q 65.21445 473.454034 65.523825 472.775284 
Q 65.835075 472.094659 65.835075 470.435284 
z
M 68.0907 470.454034 
Q 68.0907 472.627159 67.1532 473.808409 
Q 66.2157 474.989659 64.492575 474.989659 
Q 62.763825 474.989659 61.826325 473.808409 
Q 60.888825 472.627159 60.888825 470.454034 
Q 60.888825 468.273409 61.826325 467.094034 
Q 62.763825 465.912784 64.492575 465.912784 
Q 66.2157 465.912784 67.1532 467.094034 
Q 68.0907 468.273409 68.0907 470.454034 
z
M 69.889059 472.552159 
L 71.998434 472.552159 
L 71.998434 474.819034 
L 69.889059 474.819034 
L 69.889059 472.552159 
z
M 78.812653 470.101534 
Q 79.697653 470.330284 80.157028 470.896534 
Q 80.618278 471.460909 80.618278 472.334659 
Q 80.618278 473.635909 79.620778 474.312784 
Q 78.625153 474.989659 76.716403 474.989659 
Q 76.041403 474.989659 75.364528 474.880909 
Q 74.687653 474.772159 74.025778 474.554659 
L 74.025778 472.814659 
Q 74.659528 473.131534 75.282028 473.292784 
Q 75.906403 473.454034 76.510153 473.454034 
Q 77.406403 473.454034 77.884528 473.144659 
Q 78.362653 472.833409 78.362653 472.252159 
Q 78.362653 471.654034 77.873278 471.346534 
Q 77.383903 471.039034 76.427653 471.039034 
L 75.525778 471.039034 
L 75.525778 469.585909 
L 76.474528 469.585909 
Q 77.325778 469.585909 77.740153 469.319659 
Q 78.156403 469.053409 78.156403 468.507784 
Q 78.156403 468.005284 77.751403 467.729659 
Q 77.348278 467.454034 76.609528 467.454034 
Q 76.065778 467.454034 75.508903 467.577784 
Q 74.952028 467.699659 74.400778 467.939659 
L 74.400778 466.287784 
Q 75.068278 466.100284 75.724528 466.006534 
Q 76.380778 465.912784 77.014528 465.912784 
Q 78.718903 465.912784 79.564528 466.473409 
Q 80.412028 467.032159 80.412028 468.157159 
Q 80.412028 468.924034 80.007028 469.413409 
Q 79.603903 469.902784 78.812653 470.101534 
z
M 85.030387 473.161534 
L 88.879762 473.161534 
L 88.879762 474.819034 
L 82.521637 474.819034 
L 82.521637 473.161534 
L 85.714762 470.341534 
Q 86.144137 469.955284 86.348512 469.585909 
Q 86.552887 469.216534 86.552887 468.819034 
Q 86.552887 468.204034 86.140387 467.829034 
Q 85.727887 467.454034 85.041637 467.454034 
Q 84.514762 467.454034 83.886637 467.679034 
Q 83.260387 467.904034 82.546012 468.350284 
L 82.546012 466.428409 
Q 83.307262 466.177159 84.051637 466.045909 
Q 84.796012 465.912784 85.510387 465.912784 
Q 87.081637 465.912784 87.951637 466.604659 
Q 88.821637 467.294659 88.821637 468.532159 
Q 88.821637 469.246534 88.452262 469.865284 
Q 88.082887 470.482159 86.899762 471.520909 
L 85.030387 473.161534 
z
"/>
   </g>
   <g id="text_4">
    <path d="M 55.985231 445.803068 
L 59.663981 445.803068 
L 59.663981 447.507443 
L 55.985231 447.507443 
L 55.985231 445.803068 
z
M 65.835075 445.726193 
Q 65.835075 444.085568 65.527575 443.416193 
Q 65.220075 442.744943 64.492575 442.744943 
Q 63.76695 442.744943 63.4557 443.416193 
Q 63.14445 444.085568 63.14445 445.726193 
Q 63.14445 447.385568 63.4557 448.066193 
Q 63.76695 448.744943 64.492575 448.744943 
Q 65.21445 448.744943 65.523825 448.066193 
Q 65.835075 447.385568 65.835075 445.726193 
z
M 68.0907 445.744943 
Q 68.0907 447.918068 67.1532 449.099318 
Q 66.2157 450.280568 64.492575 450.280568 
Q 62.763825 450.280568 61.826325 449.099318 
Q 60.888825 447.918068 60.888825 445.744943 
Q 60.888825 443.564318 61.826325 442.384943 
Q 62.763825 441.203693 64.492575 441.203693 
Q 66.2157 441.203693 67.1532 442.384943 
Q 68.0907 443.564318 68.0907 445.744943 
z
M 69.889059 447.843068 
L 71.998434 447.843068 
L 71.998434 450.109943 
L 69.889059 450.109943 
L 69.889059 447.843068 
z
M 78.743278 445.726193 
Q 78.743278 444.085568 78.435778 443.416193 
Q 78.128278 442.744943 77.400778 442.744943 
Q 76.675153 442.744943 76.363903 443.416193 
Q 76.052653 444.085568 76.052653 445.726193 
Q 76.052653 447.385568 76.363903 448.066193 
Q 76.675153 448.744943 77.400778 448.744943 
Q 78.122653 448.744943 78.432028 448.066193 
Q 78.743278 447.385568 78.743278 445.726193 
z
M 80.998903 445.744943 
Q 80.998903 447.918068 80.061403 449.099318 
Q 79.123903 450.280568 77.400778 450.280568 
Q 75.672028 450.280568 74.734528 449.099318 
Q 73.797028 447.918068 73.797028 445.744943 
Q 73.797028 443.564318 74.734528 442.384943 
Q 75.672028 441.203693 77.400778 441.203693 
Q 79.123903 441.203693 80.061403 442.384943 
Q 80.998903 443.564318 80.998903 445.744943 
z
M 85.915387 445.791818 
Q 85.322887 445.791818 85.026637 446.176193 
Q 84.730387 446.558693 84.730387 447.327443 
Q 84.730387 448.094318 85.026637 448.478693 
Q 85.322887 448.861193 85.915387 448.861193 
Q 86.511637 448.861193 86.807887 448.478693 
Q 87.104137 448.094318 87.104137 447.327443 
Q 87.104137 446.558693 86.807887 446.176193 
Q 86.511637 445.791818 85.915387 445.791818 
z
M 88.703512 441.589943 
L 88.703512 443.208068 
Q 88.146637 442.943693 87.653512 442.818068 
Q 87.162262 442.692443 86.693512 442.692443 
Q 85.686637 442.692443 85.124137 443.253068 
Q 84.561637 443.811818 84.467887 444.912443 
Q 84.854137 444.625568 85.304137 444.483068 
Q 85.756012 444.338693 86.290387 444.338693 
Q 87.631012 444.338693 88.454137 445.124318 
Q 89.277262 445.908068 89.277262 447.179318 
Q 89.277262 448.585568 88.356637 449.433068 
Q 87.437887 450.280568 85.891012 450.280568 
Q 84.186637 450.280568 83.251012 449.129318 
Q 82.317262 447.976193 82.317262 445.861193 
Q 82.317262 443.693693 83.410387 442.454318 
Q 84.503512 441.214943 86.406637 441.214943 
Q 87.010387 441.214943 87.578512 441.308693 
Q 88.146637 441.402443 88.703512 441.589943 
z
" style="stroke: #ffffff"/>
    <path d="M 55.985231 445.803068 
L 59.663981 445.803068 
L 59.663981 447.507443 
L 55.985231 447.507443 
L 55.985231 445.803068 
z
M 65.835075 445.726193 
Q 65.835075 444.085568 65.527575 443.416193 
Q 65.220075 442.744943 64.492575 442.744943 
Q 63.76695 442.744943 63.4557 443.416193 
Q 63.14445 444.085568 63.14445 445.726193 
Q 63.14445 447.385568 63.4557 448.066193 
Q 63.76695 448.744943 64.492575 448.744943 
Q 65.21445 448.744943 65.523825 448.066193 
Q 65.835075 447.385568 65.835075 445.726193 
z
M 68.0907 445.744943 
Q 68.0907 447.918068 67.1532 449.099318 
Q 66.2157 450.280568 64.492575 450.280568 
Q 62.763825 450.280568 61.826325 449.099318 
Q 60.888825 447.918068 60.888825 445.744943 
Q 60.888825 443.564318 61.826325 442.384943 
Q 62.763825 441.203693 64.492575 441.203693 
Q 66.2157 441.203693 67.1532 442.384943 
Q 68.0907 443.564318 68.0907 445.744943 
z
M 69.889059 447.843068 
L 71.998434 447.843068 
L 71.998434 450.109943 
L 69.889059 450.109943 
L 69.889059 447.843068 
z
M 78.743278 445.726193 
Q 78.743278 444.085568 78.435778 443.416193 
Q 78.128278 442.744943 77.400778 442.744943 
Q 76.675153 442.744943 76.363903 443.416193 
Q 76.052653 444.085568 76.052653 445.726193 
Q 76.052653 447.385568 76.363903 448.066193 
Q 76.675153 448.744943 77.400778 448.744943 
Q 78.122653 448.744943 78.432028 448.066193 
Q 78.743278 447.385568 78.743278 445.726193 
z
M 80.998903 445.744943 
Q 80.998903 447.918068 80.061403 449.099318 
Q 79.123903 450.280568 77.400778 450.280568 
Q 75.672028 450.280568 74.734528 449.099318 
Q 73.797028 447.918068 73.797028 445.744943 
Q 73.797028 443.564318 74.734528 442.384943 
Q 75.672028 441.203693 77.400778 441.203693 
Q 79.123903 441.203693 80.061403 442.384943 
Q 80.998903 443.564318 80.998903 445.744943 
z
M 85.915387 445.791818 
Q 85.322887 445.791818 85.026637 446.176193 
Q 84.730387 446.558693 84.730387 447.327443 
Q 84.730387 448.094318 85.026637 448.478693 
Q 85.322887 448.861193 85.915387 448.861193 
Q 86.511637 448.861193 86.807887 448.478693 
Q 87.104137 448.094318 87.104137 447.327443 
Q 87.104137 446.558693 86.807887 446.176193 
Q 86.511637 445.791818 85.915387 445.791818 
z
M 88.703512 441.589943 
L 88.703512 443.208068 
Q 88.146637 442.943693 87.653512 442.818068 
Q 87.162262 442.692443 86.693512 442.692443 
Q 85.686637 442.692443 85.124137 443.253068 
Q 84.561637 443.811818 84.467887 444.912443 
Q 84.854137 444.625568 85.304137 444.483068 
Q 85.756012 444.338693 86.290387 444.338693 
Q 87.631012 444.338693 88.454137 445.124318 
Q 89.277262 445.908068 89.277262 447.179318 
Q 89.277262 448.585568 88.356637 449.433068 
Q 87.437887 450.280568 85.891012 450.280568 
Q 84.186637 450.280568 83.251012 449.129318 
Q 82.317262 447.976193 82.317262 445.861193 
Q 82.317262 443.693693 83.410387 442.454318 
Q 84.503512 441.214943 86.406637 441.214943 
Q 87.010387 441.214943 87.578512 441.308693 
Q 88.146637 441.402443 88.703512 441.589943 
z
"/>
   </g>
   <g id="text_5">
    <path d="M 63.344606 421.017102 
Q 63.344606 419.376477 63.037106 418.707102 
Q 62.729606 418.035852 62.002106 418.035852 
Q 61.276481 418.035852 60.965231 418.707102 
Q 60.653981 419.376477 60.653981 421.017102 
Q 60.653981 422.676477 60.965231 423.357102 
Q 61.276481 424.035852 62.002106 424.035852 
Q 62.723981 424.035852 63.033356 423.357102 
Q 63.344606 422.676477 63.344606 421.017102 
z
M 65.600231 421.035852 
Q 65.600231 423.208977 64.662731 424.390227 
Q 63.725231 425.571477 62.002106 425.571477 
Q 60.273356 425.571477 59.335856 424.390227 
Q 58.398356 423.208977 58.398356 421.035852 
Q 58.398356 418.855227 59.335856 417.675852 
Q 60.273356 416.494602 62.002106 416.494602 
Q 63.725231 416.494602 64.662731 417.675852 
Q 65.600231 418.855227 65.600231 421.035852 
z
M 67.39859 423.133977 
L 69.507965 423.133977 
L 69.507965 425.400852 
L 67.39859 425.400852 
L 67.39859 423.133977 
z
M 76.252809 421.017102 
Q 76.252809 419.376477 75.945309 418.707102 
Q 75.637809 418.035852 74.910309 418.035852 
Q 74.184684 418.035852 73.873434 418.707102 
Q 73.562184 419.376477 73.562184 421.017102 
Q 73.562184 422.676477 73.873434 423.357102 
Q 74.184684 424.035852 74.910309 424.035852 
Q 75.632184 424.035852 75.941559 423.357102 
Q 76.252809 422.676477 76.252809 421.017102 
z
M 78.508434 421.035852 
Q 78.508434 423.208977 77.570934 424.390227 
Q 76.633434 425.571477 74.910309 425.571477 
Q 73.181559 425.571477 72.244059 424.390227 
Q 71.306559 423.208977 71.306559 421.035852 
Q 71.306559 418.855227 72.244059 417.675852 
Q 73.181559 416.494602 74.910309 416.494602 
Q 76.633434 416.494602 77.570934 417.675852 
Q 78.508434 418.855227 78.508434 421.035852 
z
M 79.884919 416.652102 
L 86.477419 416.652102 
L 86.477419 417.923352 
L 83.066794 425.400852 
L 80.869294 425.400852 
L 84.098044 418.311477 
L 79.884919 418.311477 
L 79.884919 416.652102 
z
" style="stroke: #ffffff"/>
    <path d="M 63.344606 421.017102 
Q 63.344606 419.376477 63.037106 418.707102 
Q 62.729606 418.035852 62.002106 418.035852 
Q 61.276481 418.035852 60.965231 418.707102 
Q 60.653981 419.376477 60.653981 421.017102 
Q 60.653981 422.676477 60.965231 423.357102 
Q 61.276481 424.035852 62.002106 424.035852 
Q 62.723981 424.035852 63.033356 423.357102 
Q 63.344606 422.676477 63.344606 421.017102 
z
M 65.600231 421.035852 
Q 65.600231 423.208977 64.662731 424.390227 
Q 63.725231 425.571477 62.002106 425.571477 
Q 60.273356 425.571477 59.335856 424.390227 
Q 58.398356 423.208977 58.398356 421.035852 
Q 58.398356 418.855227 59.335856 417.675852 
Q 60.273356 416.494602 62.002106 416.494602 
Q 63.725231 416.494602 64.662731 417.675852 
Q 65.600231 418.855227 65.600231 421.035852 
z
M 67.39859 423.133977 
L 69.507965 423.133977 
L 69.507965 425.400852 
L 67.39859 425.400852 
L 67.39859 423.133977 
z
M 76.252809 421.017102 
Q 76.252809 419.376477 75.945309 418.707102 
Q 75.637809 418.035852 74.910309 418.035852 
Q 74.184684 418.035852 73.873434 418.707102 
Q 73.562184 419.376477 73.562184 421.017102 
Q 73.562184 422.676477 73.873434 423.357102 
Q 74.184684 424.035852 74.910309 424.035852 
Q 75.632184 424.035852 75.941559 423.357102 
Q 76.252809 422.676477 76.252809 421.017102 
z
M 78.508434 421.035852 
Q 78.508434 423.208977 77.570934 424.390227 
Q 76.633434 425.571477 74.910309 425.571477 
Q 73.181559 425.571477 72.244059 424.390227 
Q 71.306559 423.208977 71.306559 421.035852 
Q 71.306559 418.855227 72.244059 417.675852 
Q 73.181559 416.494602 74.910309 416.494602 
Q 76.633434 416.494602 77.570934 417.675852 
Q 78.508434 418.855227 78.508434 421.035852 
z
M 79.884919 416.652102 
L 86.477419 416.652102 
L 86.477419 417.923352 
L 83.066794 425.400852 
L 80.869294 425.400852 
L 84.098044 418.311477 
L 79.884919 418.311477 
L 79.884919 416.652102 
z
"/>
   </g>
   <g id="text_6">
    <path d="M 63.344606 396.308011 
Q 63.344606 394.667386 63.037106 393.998011 
Q 62.729606 393.326761 62.002106 393.326761 
Q 61.276481 393.326761 60.965231 393.998011 
Q 60.653981 394.667386 60.653981 396.308011 
Q 60.653981 397.967386 60.965231 398.648011 
Q 61.276481 399.326761 62.002106 399.326761 
Q 62.723981 399.326761 63.033356 398.648011 
Q 63.344606 397.967386 63.344606 396.308011 
z
M 65.600231 396.326761 
Q 65.600231 398.499886 64.662731 399.681136 
Q 63.725231 400.862386 62.002106 400.862386 
Q 60.273356 400.862386 59.335856 399.681136 
Q 58.398356 398.499886 58.398356 396.326761 
Q 58.398356 394.146136 59.335856 392.966761 
Q 60.273356 391.785511 62.002106 391.785511 
Q 63.725231 391.785511 64.662731 392.966761 
Q 65.600231 394.146136 65.600231 396.326761 
z
M 67.39859 398.424886 
L 69.507965 398.424886 
L 69.507965 400.691761 
L 67.39859 400.691761 
L 67.39859 398.424886 
z
M 74.190309 399.034261 
L 78.039684 399.034261 
L 78.039684 400.691761 
L 71.681559 400.691761 
L 71.681559 399.034261 
L 74.874684 396.214261 
Q 75.304059 395.828011 75.508434 395.458636 
Q 75.712809 395.089261 75.712809 394.691761 
Q 75.712809 394.076761 75.300309 393.701761 
Q 74.887809 393.326761 74.201559 393.326761 
Q 73.674684 393.326761 73.046559 393.551761 
Q 72.420309 393.776761 71.705934 394.223011 
L 71.705934 392.301136 
Q 72.467184 392.049886 73.211559 391.918636 
Q 73.955934 391.785511 74.670309 391.785511 
Q 76.241559 391.785511 77.111559 392.477386 
Q 77.981559 393.167386 77.981559 394.404886 
Q 77.981559 395.119261 77.612184 395.738011 
Q 77.242809 396.354886 76.059684 397.393636 
L 74.190309 399.034261 
z
M 80.488669 399.133636 
L 82.481794 399.133636 
L 82.481794 393.478636 
L 80.436169 393.900511 
L 80.436169 392.364886 
L 82.468669 391.943011 
L 84.613669 391.943011 
L 84.613669 399.133636 
L 86.606794 399.133636 
L 86.606794 400.691761 
L 80.488669 400.691761 
L 80.488669 399.133636 
z
" style="stroke: #ffffff"/>
    <path d="M 63.344606 396.308011 
Q 63.344606 394.667386 63.037106 393.998011 
Q 62.729606 393.326761 62.002106 393.326761 
Q 61.276481 393.326761 60.965231 393.998011 
Q 60.653981 394.667386 60.653981 396.308011 
Q 60.653981 397.967386 60.965231 398.648011 
Q 61.276481 399.326761 62.002106 399.326761 
Q 62.723981 399.326761 63.033356 398.648011 
Q 63.344606 397.967386 63.344606 396.308011 
z
M 65.600231 396.326761 
Q 65.600231 398.499886 64.662731 399.681136 
Q 63.725231 400.862386 62.002106 400.862386 
Q 60.273356 400.862386 59.335856 399.681136 
Q 58.398356 398.499886 58.398356 396.326761 
Q 58.398356 394.146136 59.335856 392.966761 
Q 60.273356 391.785511 62.002106 391.785511 
Q 63.725231 391.785511 64.662731 392.966761 
Q 65.600231 394.146136 65.600231 396.326761 
z
M 67.39859 398.424886 
L 69.507965 398.424886 
L 69.507965 400.691761 
L 67.39859 400.691761 
L 67.39859 398.424886 
z
M 74.190309 399.034261 
L 78.039684 399.034261 
L 78.039684 400.691761 
L 71.681559 400.691761 
L 71.681559 399.034261 
L 74.874684 396.214261 
Q 75.304059 395.828011 75.508434 395.458636 
Q 75.712809 395.089261 75.712809 394.691761 
Q 75.712809 394.076761 75.300309 393.701761 
Q 74.887809 393.326761 74.201559 393.326761 
Q 73.674684 393.326761 73.046559 393.551761 
Q 72.420309 393.776761 71.705934 394.223011 
L 71.705934 392.301136 
Q 72.467184 392.049886 73.211559 391.918636 
Q 73.955934 391.785511 74.670309 391.785511 
Q 76.241559 391.785511 77.111559 392.477386 
Q 77.981559 393.167386 77.981559 394.404886 
Q 77.981559 395.119261 77.612184 395.738011 
Q 77.242809 396.354886 76.059684 397.393636 
L 74.190309 399.034261 
z
M 80.488669 399.133636 
L 82.481794 399.133636 
L 82.481794 393.478636 
L 80.436169 393.900511 
L 80.436169 392.364886 
L 82.468669 391.943011 
L 84.613669 391.943011 
L 84.613669 399.133636 
L 86.606794 399.133636 
L 86.606794 400.691761 
L 80.488669 400.691761 
L 80.488669 399.133636 
z
"/>
   </g>
   <g id="text_7">
    <path d="M 63.344606 371.59892 
Q 63.344606 369.958295 63.037106 369.28892 
Q 62.729606 368.61767 62.002106 368.61767 
Q 61.276481 368.61767 60.965231 369.28892 
Q 60.653981 369.958295 60.653981 371.59892 
Q 60.653981 373.258295 60.965231 373.93892 
Q 61.276481 374.61767 62.002106 374.61767 
Q 62.723981 374.61767 63.033356 373.93892 
Q 63.344606 373.258295 63.344606 371.59892 
z
M 65.600231 371.61767 
Q 65.600231 373.790795 64.662731 374.972045 
Q 63.725231 376.153295 62.002106 376.153295 
Q 60.273356 376.153295 59.335856 374.972045 
Q 58.398356 373.790795 58.398356 371.61767 
Q 58.398356 369.437045 59.335856 368.25767 
Q 60.273356 367.07642 62.002106 367.07642 
Q 63.725231 367.07642 64.662731 368.25767 
Q 65.600231 369.437045 65.600231 371.61767 
z
M 67.39859 373.715795 
L 69.507965 373.715795 
L 69.507965 375.98267 
L 67.39859 375.98267 
L 67.39859 373.715795 
z
M 76.322184 371.26517 
Q 77.207184 371.49392 77.666559 372.06017 
Q 78.127809 372.624545 78.127809 373.498295 
Q 78.127809 374.799545 77.130309 375.47642 
Q 76.134684 376.153295 74.225934 376.153295 
Q 73.550934 376.153295 72.874059 376.044545 
Q 72.197184 375.935795 71.535309 375.718295 
L 71.535309 373.978295 
Q 72.169059 374.29517 72.791559 374.45642 
Q 73.415934 374.61767 74.019684 374.61767 
Q 74.915934 374.61767 75.394059 374.308295 
Q 75.872184 373.997045 75.872184 373.415795 
Q 75.872184 372.81767 75.382809 372.51017 
Q 74.893434 372.20267 73.937184 372.20267 
L 73.035309 372.20267 
L 73.035309 370.749545 
L 73.984059 370.749545 
Q 74.835309 370.749545 75.249684 370.483295 
Q 75.665934 370.217045 75.665934 369.67142 
Q 75.665934 369.16892 75.260934 368.893295 
Q 74.857809 368.61767 74.119059 368.61767 
Q 73.575309 368.61767 73.018434 368.74142 
Q 72.461559 368.863295 71.910309 369.103295 
L 71.910309 367.45142 
Q 72.577809 367.26392 73.234059 367.17017 
Q 73.890309 367.07642 74.524059 367.07642 
Q 76.228434 367.07642 77.074059 367.637045 
Q 77.921559 368.195795 77.921559 369.320795 
Q 77.921559 370.08767 77.516559 370.577045 
Q 77.113434 371.06642 76.322184 371.26517 
z
M 79.884919 367.23392 
L 86.477419 367.23392 
L 86.477419 368.50517 
L 83.066794 375.98267 
L 80.869294 375.98267 
L 84.098044 368.893295 
L 79.884919 368.893295 
L 79.884919 367.23392 
z
" style="stroke: #ffffff"/>
    <path d="M 63.344606 371.59892 
Q 63.344606 369.958295 63.037106 369.28892 
Q 62.729606 368.61767 62.002106 368.61767 
Q 61.276481 368.61767 60.965231 369.28892 
Q 60.653981 369.958295 60.653981 371.59892 
Q 60.653981 373.258295 60.965231 373.93892 
Q 61.276481 374.61767 62.002106 374.61767 
Q 62.723981 374.61767 63.033356 373.93892 
Q 63.344606 373.258295 63.344606 371.59892 
z
M 65.600231 371.61767 
Q 65.600231 373.790795 64.662731 374.972045 
Q 63.725231 376.153295 62.002106 376.153295 
Q 60.273356 376.153295 59.335856 374.972045 
Q 58.398356 373.790795 58.398356 371.61767 
Q 58.398356 369.437045 59.335856 368.25767 
Q 60.273356 367.07642 62.002106 367.07642 
Q 63.725231 367.07642 64.662731 368.25767 
Q 65.600231 369.437045 65.600231 371.61767 
z
M 67.39859 373.715795 
L 69.507965 373.715795 
L 69.507965 375.98267 
L 67.39859 375.98267 
L 67.39859 373.715795 
z
M 76.322184 371.26517 
Q 77.207184 371.49392 77.666559 372.06017 
Q 78.127809 372.624545 78.127809 373.498295 
Q 78.127809 374.799545 77.130309 375.47642 
Q 76.134684 376.153295 74.225934 376.153295 
Q 73.550934 376.153295 72.874059 376.044545 
Q 72.197184 375.935795 71.535309 375.718295 
L 71.535309 373.978295 
Q 72.169059 374.29517 72.791559 374.45642 
Q 73.415934 374.61767 74.019684 374.61767 
Q 74.915934 374.61767 75.394059 374.308295 
Q 75.872184 373.997045 75.872184 373.415795 
Q 75.872184 372.81767 75.382809 372.51017 
Q 74.893434 372.20267 73.937184 372.20267 
L 73.035309 372.20267 
L 73.035309 370.749545 
L 73.984059 370.749545 
Q 74.835309 370.749545 75.249684 370.483295 
Q 75.665934 370.217045 75.665934 369.67142 
Q 75.665934 369.16892 75.260934 368.893295 
Q 74.857809 368.61767 74.119059 368.61767 
Q 73.575309 368.61767 73.018434 368.74142 
Q 72.461559 368.863295 71.910309 369.103295 
L 71.910309 367.45142 
Q 72.577809 367.26392 73.234059 367.17017 
Q 73.890309 367.07642 74.524059 367.07642 
Q 76.228434 367.07642 77.074059 367.637045 
Q 77.921559 368.195795 77.921559 369.320795 
Q 77.921559 370.08767 77.516559 370.577045 
Q 77.113434 371.06642 76.322184 371.26517 
z
M 79.884919 367.23392 
L 86.477419 367.23392 
L 86.477419 368.50517 
L 83.066794 375.98267 
L 80.869294 375.98267 
L 84.098044 368.893295 
L 79.884919 368.893295 
L 79.884919 367.23392 
z
"/>
   </g>
   <g id="text_8">
    <path d="M 63.344606 346.88983 
Q 63.344606 345.249205 63.037106 344.57983 
Q 62.729606 343.90858 62.002106 343.90858 
Q 61.276481 343.90858 60.965231 344.57983 
Q 60.653981 345.249205 60.653981 346.88983 
Q 60.653981 348.549205 60.965231 349.22983 
Q 61.276481 349.90858 62.002106 349.90858 
Q 62.723981 349.90858 63.033356 349.22983 
Q 63.344606 348.549205 63.344606 346.88983 
z
M 65.600231 346.90858 
Q 65.600231 349.081705 64.662731 350.262955 
Q 63.725231 351.444205 62.002106 351.444205 
Q 60.273356 351.444205 59.335856 350.262955 
Q 58.398356 349.081705 58.398356 346.90858 
Q 58.398356 344.727955 59.335856 343.54858 
Q 60.273356 342.36733 62.002106 342.36733 
Q 63.725231 342.36733 64.662731 343.54858 
Q 65.600231 344.727955 65.600231 346.90858 
z
M 67.39859 349.006705 
L 69.507965 349.006705 
L 69.507965 351.27358 
L 67.39859 351.27358 
L 67.39859 349.006705 
z
M 75.075309 346.955455 
Q 74.482809 346.955455 74.186559 347.33983 
Q 73.890309 347.72233 73.890309 348.49108 
Q 73.890309 349.257955 74.186559 349.64233 
Q 74.482809 350.02483 75.075309 350.02483 
Q 75.671559 350.02483 75.967809 349.64233 
Q 76.264059 349.257955 76.264059 348.49108 
Q 76.264059 347.72233 75.967809 347.33983 
Q 75.671559 346.955455 75.075309 346.955455 
z
M 77.863434 342.75358 
L 77.863434 344.371705 
Q 77.306559 344.10733 76.813434 343.981705 
Q 76.322184 343.85608 75.853434 343.85608 
Q 74.846559 343.85608 74.284059 344.416705 
Q 73.721559 344.975455 73.627809 346.07608 
Q 74.014059 345.789205 74.464059 345.646705 
Q 74.915934 345.50233 75.450309 345.50233 
Q 76.790934 345.50233 77.614059 346.287955 
Q 78.437184 347.071705 78.437184 348.342955 
Q 78.437184 349.749205 77.516559 350.596705 
Q 76.597809 351.444205 75.050934 351.444205 
Q 73.346559 351.444205 72.410934 350.292955 
Q 71.477184 349.13983 71.477184 347.02483 
Q 71.477184 344.85733 72.570309 343.617955 
Q 73.663434 342.37858 75.566559 342.37858 
Q 76.170309 342.37858 76.738434 342.47233 
Q 77.306559 342.56608 77.863434 342.75358 
z
M 83.424919 346.955455 
Q 82.832419 346.955455 82.536169 347.33983 
Q 82.239919 347.72233 82.239919 348.49108 
Q 82.239919 349.257955 82.536169 349.64233 
Q 82.832419 350.02483 83.424919 350.02483 
Q 84.021169 350.02483 84.317419 349.64233 
Q 84.613669 349.257955 84.613669 348.49108 
Q 84.613669 347.72233 84.317419 347.33983 
Q 84.021169 346.955455 83.424919 346.955455 
z
M 86.213044 342.75358 
L 86.213044 344.371705 
Q 85.656169 344.10733 85.163044 343.981705 
Q 84.671794 343.85608 84.203044 343.85608 
Q 83.196169 343.85608 82.633669 344.416705 
Q 82.071169 344.975455 81.977419 346.07608 
Q 82.363669 345.789205 82.813669 345.646705 
Q 83.265544 345.50233 83.799919 345.50233 
Q 85.140544 345.50233 85.963669 346.287955 
Q 86.786794 347.071705 86.786794 348.342955 
Q 86.786794 349.749205 85.866169 350.596705 
Q 84.947419 351.444205 83.400544 351.444205 
Q 81.696169 351.444205 80.760544 350.292955 
Q 79.826794 349.13983 79.826794 347.02483 
Q 79.826794 344.85733 80.919919 343.617955 
Q 82.013044 342.37858 83.916169 342.37858 
Q 84.519919 342.37858 85.088044 342.47233 
Q 85.656169 342.56608 86.213044 342.75358 
z
" style="stroke: #ffffff"/>
    <path d="M 63.344606 346.88983 
Q 63.344606 345.249205 63.037106 344.57983 
Q 62.729606 343.90858 62.002106 343.90858 
Q 61.276481 343.90858 60.965231 344.57983 
Q 60.653981 345.249205 60.653981 346.88983 
Q 60.653981 348.549205 60.965231 349.22983 
Q 61.276481 349.90858 62.002106 349.90858 
Q 62.723981 349.90858 63.033356 349.22983 
Q 63.344606 348.549205 63.344606 346.88983 
z
M 65.600231 346.90858 
Q 65.600231 349.081705 64.662731 350.262955 
Q 63.725231 351.444205 62.002106 351.444205 
Q 60.273356 351.444205 59.335856 350.262955 
Q 58.398356 349.081705 58.398356 346.90858 
Q 58.398356 344.727955 59.335856 343.54858 
Q 60.273356 342.36733 62.002106 342.36733 
Q 63.725231 342.36733 64.662731 343.54858 
Q 65.600231 344.727955 65.600231 346.90858 
z
M 67.39859 349.006705 
L 69.507965 349.006705 
L 69.507965 351.27358 
L 67.39859 351.27358 
L 67.39859 349.006705 
z
M 75.075309 346.955455 
Q 74.482809 346.955455 74.186559 347.33983 
Q 73.890309 347.72233 73.890309 348.49108 
Q 73.890309 349.257955 74.186559 349.64233 
Q 74.482809 350.02483 75.075309 350.02483 
Q 75.671559 350.02483 75.967809 349.64233 
Q 76.264059 349.257955 76.264059 348.49108 
Q 76.264059 347.72233 75.967809 347.33983 
Q 75.671559 346.955455 75.075309 346.955455 
z
M 77.863434 342.75358 
L 77.863434 344.371705 
Q 77.306559 344.10733 76.813434 343.981705 
Q 76.322184 343.85608 75.853434 343.85608 
Q 74.846559 343.85608 74.284059 344.416705 
Q 73.721559 344.975455 73.627809 346.07608 
Q 74.014059 345.789205 74.464059 345.646705 
Q 74.915934 345.50233 75.450309 345.50233 
Q 76.790934 345.50233 77.614059 346.287955 
Q 78.437184 347.071705 78.437184 348.342955 
Q 78.437184 349.749205 77.516559 350.596705 
Q 76.597809 351.444205 75.050934 351.444205 
Q 73.346559 351.444205 72.410934 350.292955 
Q 71.477184 349.13983 71.477184 347.02483 
Q 71.477184 344.85733 72.570309 343.617955 
Q 73.663434 342.37858 75.566559 342.37858 
Q 76.170309 342.37858 76.738434 342.47233 
Q 77.306559 342.56608 77.863434 342.75358 
z
M 83.424919 346.955455 
Q 82.832419 346.955455 82.536169 347.33983 
Q 82.239919 347.72233 82.239919 348.49108 
Q 82.239919 349.257955 82.536169 349.64233 
Q 82.832419 350.02483 83.424919 350.02483 
Q 84.021169 350.02483 84.317419 349.64233 
Q 84.613669 349.257955 84.613669 348.49108 
Q 84.613669 347.72233 84.317419 347.33983 
Q 84.021169 346.955455 83.424919 346.955455 
z
M 86.213044 342.75358 
L 86.213044 344.371705 
Q 85.656169 344.10733 85.163044 343.981705 
Q 84.671794 343.85608 84.203044 343.85608 
Q 83.196169 343.85608 82.633669 344.416705 
Q 82.071169 344.975455 81.977419 346.07608 
Q 82.363669 345.789205 82.813669 345.646705 
Q 83.265544 345.50233 83.799919 345.50233 
Q 85.140544 345.50233 85.963669 346.287955 
Q 86.786794 347.071705 86.786794 348.342955 
Q 86.786794 349.749205 85.866169 350.596705 
Q 84.947419 351.444205 83.400544 351.444205 
Q 81.696169 351.444205 80.760544 350.292955 
Q 79.826794 349.13983 79.826794 347.02483 
Q 79.826794 344.85733 80.919919 343.617955 
Q 82.013044 342.37858 83.916169 342.37858 
Q 84.519919 342.37858 85.088044 342.47233 
Q 85.656169 342.56608 86.213044 342.75358 
z
"/>
   </g>
   <g id="text_9">
    <path d="M 59.230856 325.006364 
L 61.223981 325.006364 
L 61.223981 319.351364 
L 59.178356 319.773239 
L 59.178356 318.237614 
L 61.210856 317.815739 
L 63.355856 317.815739 
L 63.355856 325.006364 
L 65.348981 325.006364 
L 65.348981 326.564489 
L 59.230856 326.564489 
L 59.230856 325.006364 
z
M 67.39859 324.297614 
L 69.507965 324.297614 
L 69.507965 326.564489 
L 67.39859 326.564489 
L 67.39859 324.297614 
z
M 76.252809 322.180739 
Q 76.252809 320.540114 75.945309 319.870739 
Q 75.637809 319.199489 74.910309 319.199489 
Q 74.184684 319.199489 73.873434 319.870739 
Q 73.562184 320.540114 73.562184 322.180739 
Q 73.562184 323.840114 73.873434 324.520739 
Q 74.184684 325.199489 74.910309 325.199489 
Q 75.632184 325.199489 75.941559 324.520739 
Q 76.252809 323.840114 76.252809 322.180739 
z
M 78.508434 322.199489 
Q 78.508434 324.372614 77.570934 325.553864 
Q 76.633434 326.735114 74.910309 326.735114 
Q 73.181559 326.735114 72.244059 325.553864 
Q 71.306559 324.372614 71.306559 322.199489 
Q 71.306559 320.018864 72.244059 318.839489 
Q 73.181559 317.658239 74.910309 317.658239 
Q 76.633434 317.658239 77.570934 318.839489 
Q 78.508434 320.018864 78.508434 322.199489 
z
M 83.499919 319.673864 
L 81.028669 323.335739 
L 83.499919 323.335739 
L 83.499919 319.673864 
z
M 83.124919 317.815739 
L 85.633669 317.815739 
L 85.633669 323.335739 
L 86.880544 323.335739 
L 86.880544 324.970739 
L 85.633669 324.970739 
L 85.633669 326.564489 
L 83.499919 326.564489 
L 83.499919 324.970739 
L 79.622419 324.970739 
L 79.622419 323.037614 
L 83.124919 317.815739 
z
" style="stroke: #ffffff"/>
    <path d="M 59.230856 325.006364 
L 61.223981 325.006364 
L 61.223981 319.351364 
L 59.178356 319.773239 
L 59.178356 318.237614 
L 61.210856 317.815739 
L 63.355856 317.815739 
L 63.355856 325.006364 
L 65.348981 325.006364 
L 65.348981 326.564489 
L 59.230856 326.564489 
L 59.230856 325.006364 
z
M 67.39859 324.297614 
L 69.507965 324.297614 
L 69.507965 326.564489 
L 67.39859 326.564489 
L 67.39859 324.297614 
z
M 76.252809 322.180739 
Q 76.252809 320.540114 75.945309 319.870739 
Q 75.637809 319.199489 74.910309 319.199489 
Q 74.184684 319.199489 73.873434 319.870739 
Q 73.562184 320.540114 73.562184 322.180739 
Q 73.562184 323.840114 73.873434 324.520739 
Q 74.184684 325.199489 74.910309 325.199489 
Q 75.632184 325.199489 75.941559 324.520739 
Q 76.252809 323.840114 76.252809 322.180739 
z
M 78.508434 322.199489 
Q 78.508434 324.372614 77.570934 325.553864 
Q 76.633434 326.735114 74.910309 326.735114 
Q 73.181559 326.735114 72.244059 325.553864 
Q 71.306559 324.372614 71.306559 322.199489 
Q 71.306559 320.018864 72.244059 318.839489 
Q 73.181559 317.658239 74.910309 317.658239 
Q 76.633434 317.658239 77.570934 318.839489 
Q 78.508434 320.018864 78.508434 322.199489 
z
M 83.499919 319.673864 
L 81.028669 323.335739 
L 83.499919 323.335739 
L 83.499919 319.673864 
z
M 83.124919 317.815739 
L 85.633669 317.815739 
L 85.633669 323.335739 
L 86.880544 323.335739 
L 86.880544 324.970739 
L 85.633669 324.970739 
L 85.633669 326.564489 
L 83.499919 326.564489 
L 83.499919 324.970739 
L 79.622419 324.970739 
L 79.622419 323.037614 
L 83.124919 317.815739 
z
"/>
   </g>
   <g id="text_10">
    <path d="M 59.230856 300.297273 
L 61.223981 300.297273 
L 61.223981 294.642273 
L 59.178356 295.064148 
L 59.178356 293.528523 
L 61.210856 293.106648 
L 63.355856 293.106648 
L 63.355856 300.297273 
L 65.348981 300.297273 
L 65.348981 301.855398 
L 59.230856 301.855398 
L 59.230856 300.297273 
z
M 67.39859 299.588523 
L 69.507965 299.588523 
L 69.507965 301.855398 
L 67.39859 301.855398 
L 67.39859 299.588523 
z
M 74.910309 297.940398 
Q 74.278434 297.940398 73.937184 298.287273 
Q 73.597809 298.632273 73.597809 299.277273 
Q 73.597809 299.922273 73.937184 300.265398 
Q 74.278434 300.606648 74.910309 300.606648 
Q 75.538434 300.606648 75.872184 300.265398 
Q 76.205934 299.922273 76.205934 299.277273 
Q 76.205934 298.626648 75.872184 298.283523 
Q 75.538434 297.940398 74.910309 297.940398 
z
M 73.264059 297.197898 
Q 72.467184 296.956023 72.062184 296.459148 
Q 71.659059 295.960398 71.659059 295.216023 
Q 71.659059 294.109773 72.484059 293.530398 
Q 73.310934 292.949148 74.910309 292.949148 
Q 76.498434 292.949148 77.323434 293.526648 
Q 78.150309 294.104148 78.150309 295.216023 
Q 78.150309 295.960398 77.743434 296.459148 
Q 77.336559 296.956023 76.539684 297.197898 
Q 77.430309 297.443523 77.884059 297.996648 
Q 78.337809 298.549773 78.337809 299.393523 
Q 78.337809 300.694773 77.473434 301.360398 
Q 76.609059 302.026023 74.910309 302.026023 
Q 73.205934 302.026023 72.335934 301.360398 
Q 71.465934 300.694773 71.465934 299.393523 
Q 71.465934 298.549773 71.919684 297.996648 
Q 72.373434 297.443523 73.264059 297.197898 
z
M 73.790934 295.444773 
Q 73.790934 295.966023 74.081559 296.247273 
Q 74.372184 296.528523 74.910309 296.528523 
Q 75.437184 296.528523 75.724059 296.247273 
Q 76.012809 295.966023 76.012809 295.444773 
Q 76.012809 294.923523 75.724059 294.646023 
Q 75.437184 294.366648 74.910309 294.366648 
Q 74.372184 294.366648 74.081559 294.647898 
Q 73.790934 294.929148 73.790934 295.444773 
z
M 79.884919 293.106648 
L 86.477419 293.106648 
L 86.477419 294.377898 
L 83.066794 301.855398 
L 80.869294 301.855398 
L 84.098044 294.766023 
L 79.884919 294.766023 
L 79.884919 293.106648 
z
" style="stroke: #ffffff"/>
    <path d="M 59.230856 300.297273 
L 61.223981 300.297273 
L 61.223981 294.642273 
L 59.178356 295.064148 
L 59.178356 293.528523 
L 61.210856 293.106648 
L 63.355856 293.106648 
L 63.355856 300.297273 
L 65.348981 300.297273 
L 65.348981 301.855398 
L 59.230856 301.855398 
L 59.230856 300.297273 
z
M 67.39859 299.588523 
L 69.507965 299.588523 
L 69.507965 301.855398 
L 67.39859 301.855398 
L 67.39859 299.588523 
z
M 74.910309 297.940398 
Q 74.278434 297.940398 73.937184 298.287273 
Q 73.597809 298.632273 73.597809 299.277273 
Q 73.597809 299.922273 73.937184 300.265398 
Q 74.278434 300.606648 74.910309 300.606648 
Q 75.538434 300.606648 75.872184 300.265398 
Q 76.205934 299.922273 76.205934 299.277273 
Q 76.205934 298.626648 75.872184 298.283523 
Q 75.538434 297.940398 74.910309 297.940398 
z
M 73.264059 297.197898 
Q 72.467184 296.956023 72.062184 296.459148 
Q 71.659059 295.960398 71.659059 295.216023 
Q 71.659059 294.109773 72.484059 293.530398 
Q 73.310934 292.949148 74.910309 292.949148 
Q 76.498434 292.949148 77.323434 293.526648 
Q 78.150309 294.104148 78.150309 295.216023 
Q 78.150309 295.960398 77.743434 296.459148 
Q 77.336559 296.956023 76.539684 297.197898 
Q 77.430309 297.443523 77.884059 297.996648 
Q 78.337809 298.549773 78.337809 299.393523 
Q 78.337809 300.694773 77.473434 301.360398 
Q 76.609059 302.026023 74.910309 302.026023 
Q 73.205934 302.026023 72.335934 301.360398 
Q 71.465934 300.694773 71.465934 299.393523 
Q 71.465934 298.549773 71.919684 297.996648 
Q 72.373434 297.443523 73.264059 297.197898 
z
M 73.790934 295.444773 
Q 73.790934 295.966023 74.081559 296.247273 
Q 74.372184 296.528523 74.910309 296.528523 
Q 75.437184 296.528523 75.724059 296.247273 
Q 76.012809 295.966023 76.012809 295.444773 
Q 76.012809 294.923523 75.724059 294.646023 
Q 75.437184 294.366648 74.910309 294.366648 
Q 74.372184 294.366648 74.081559 294.647898 
Q 73.790934 294.929148 73.790934 295.444773 
z
M 79.884919 293.106648 
L 86.477419 293.106648 
L 86.477419 294.377898 
L 83.066794 301.855398 
L 80.869294 301.855398 
L 84.098044 294.766023 
L 79.884919 294.766023 
L 79.884919 293.106648 
z
"/>
   </g>
  </g>
  <g id="axes_6">
   <g id="patch_15">
    <path d="M 104.982353 504 
L 129.6 504 
L 129.6 286.56 
L 104.982353 286.56 
L 104.982353 504 
z
" style="fill: none"/>
   </g>
  </g>
 </g>
 <defs>
  <clipPath id="pfb1c56f9db">
   <rect x="49.182353" y="286.56" width="49.235294" height="217.44"/>
  </clipPath>
 </defs>
</svg>
