<?xml version="1.0" encoding="utf-8" standalone="no"?>
<!DOCTYPE svg PUBLIC "-//W3C//DTD SVG 1.1//EN"
  "http://www.w3.org/Graphics/SVG/1.1/DTD/svg11.dtd">
<svg xmlns:xlink="http://www.w3.org/1999/xlink" width="144pt" height="576pt" viewBox="0 0 144 576" xmlns="http://www.w3.org/2000/svg" version="1.1">
 <metadata>
  <rdf:RDF xmlns:dc="http://purl.org/dc/elements/1.1/" xmlns:cc="http://creativecommons.org/ns#" xmlns:rdf="http://www.w3.org/1999/02/22-rdf-syntax-ns#">
   <cc:Work>
    <dc:type rdf:resource="http://purl.org/dc/dcmitype/StillImage"/>
    <dc:date>2022-04-01T18:32:31.314532</dc:date>
    <dc:format>image/svg+xml</dc:format>
    <dc:creator>
     <cc:Agent>
      <dc:title>Matplotlib v3.5.1, https://matplotlib.org/</dc:title>
     </cc:Agent>
    </dc:creator>
   </cc:Work>
  </rdf:RDF>
 </metadata>
 <defs>
  <style type="text/css">*{stroke-linejoin: round; stroke-linecap: butt}</style>
 </defs>
 <g id="figure_1">
  <g id="patch_1">
   <path d="M 0 576 
L 144 576 
L 144 0 
L 0 0 
L 0 576 
z
" style="fill: none"/>
  </g>
  <g id="axes_1">
   <g id="patch_2">
    <path d="M 18 286.56 
L 42.617647 286.56 
L 42.617647 69.12 
L 18 69.12 
L 18 286.56 
z
" style="fill: none"/>
   </g>
  </g>
  <g id="axes_2">
   <g id="patch_3">
    <path d="M 49.182353 286.56 
L 98.417647 286.56 
L 98.417647 69.12 
L 49.182353 69.12 
L 49.182353 286.56 
z
" style="fill: none"/>
   </g>
   <g id="text_1">
    <path d="M 21.0525 249.607125 
L 19.445625 253.960875 
L 22.663125 253.960875 
L 21.0525 249.607125 
z
M 20.383125 248.440875 
L 21.725625 248.440875 
L 25.059375 257.189625 
L 23.829375 257.189625 
L 23.0325 254.94525 
L 19.089375 254.94525 
L 18.2925 257.189625 
L 17.04375 257.189625 
L 20.383125 248.440875 
z
M 32.677734 249.115875 
L 32.677734 250.36275 
Q 32.079609 249.805875 31.402734 249.532125 
Q 30.725859 249.2565 29.964609 249.2565 
Q 28.464609 249.2565 27.667734 250.173375 
Q 26.870859 251.09025 26.870859 252.824625 
Q 26.870859 254.553375 27.667734 255.47025 
Q 28.464609 256.387125 29.964609 256.387125 
Q 30.725859 256.387125 31.402734 256.1115 
Q 32.079609 255.835875 32.677734 255.279 
L 32.677734 256.5165 
Q 32.057109 256.938375 31.361484 257.15025 
Q 30.667734 257.36025 29.895234 257.36025 
Q 27.907734 257.36025 26.763984 256.14525 
Q 25.622109 254.928375 25.622109 252.824625 
Q 25.622109 250.71525 26.763984 249.50025 
Q 27.907734 248.283375 29.895234 248.283375 
Q 30.678984 248.283375 31.372734 248.4915 
Q 32.068359 248.699625 32.677734 249.115875 
z
M 39.749766 248.72775 
L 39.749766 249.88275 
Q 39.076641 249.56025 38.478516 249.40275 
Q 37.880391 249.243375 37.323516 249.243375 
Q 36.357891 249.243375 35.832891 249.618375 
Q 35.307891 249.993375 35.307891 250.68525 
Q 35.307891 251.2665 35.656641 251.56275 
Q 36.005391 251.857125 36.978516 252.039 
L 37.692891 252.18525 
Q 39.016641 252.438375 39.646641 253.074 
Q 40.276641 253.709625 40.276641 254.774625 
Q 40.276641 256.04775 39.423516 256.704 
Q 38.572266 257.36025 36.926016 257.36025 
Q 36.305391 257.36025 35.604141 257.219625 
Q 34.904766 257.079 34.154766 256.803375 
L 34.154766 255.584625 
Q 34.874766 255.98775 35.566641 256.194 
Q 36.258516 256.398375 36.926016 256.398375 
Q 37.938516 256.398375 38.489766 256.000875 
Q 39.041016 255.6015 39.041016 254.86275 
Q 39.041016 254.219625 38.645391 253.855875 
Q 38.249766 253.492125 37.347891 253.31025 
L 36.626016 253.169625 
Q 35.302266 252.907125 34.709766 252.344625 
Q 34.119141 251.782125 34.119141 250.779 
Q 34.119141 249.618375 34.936641 248.950875 
Q 35.754141 248.283375 37.188516 248.283375 
Q 37.805391 248.283375 38.442891 248.395875 
Q 39.082266 248.5065 39.749766 248.72775 
z
M 42.240703 248.440875 
L 46.886953 248.440875 
L 46.886953 249.438375 
L 43.324453 249.438375 
L 43.324453 251.5815 
Q 43.581328 251.493375 43.838203 251.45025 
Q 44.096953 251.407125 44.355703 251.407125 
Q 45.820078 251.407125 46.675078 252.209625 
Q 47.531953 253.012125 47.531953 254.38275 
Q 47.531953 255.794625 46.652578 256.578375 
Q 45.773203 257.36025 44.173828 257.36025 
Q 43.622578 257.36025 43.050703 257.2665 
Q 42.480703 257.17275 41.871328 256.98525 
L 41.871328 255.794625 
Q 42.398203 256.0815 42.960703 256.222125 
Q 43.523203 256.36275 44.149453 256.36275 
Q 45.163828 256.36275 45.754453 255.83025 
Q 46.346953 255.29775 46.346953 254.38275 
Q 46.346953 253.469625 45.754453 252.937125 
Q 45.163828 252.40275 44.149453 252.40275 
Q 43.675078 252.40275 43.202578 252.50775 
Q 42.731953 252.61275 42.240703 252.835875 
L 42.240703 248.440875 
z
M 54.754922 249.414 
L 54.754922 252.700875 
L 56.243672 252.700875 
Q 57.070547 252.700875 57.520547 252.273375 
Q 57.972422 251.845875 57.972422 251.054625 
Q 57.972422 250.269 57.520547 249.8415 
Q 57.070547 249.414 56.243672 249.414 
L 54.754922 249.414 
z
M 53.571797 248.440875 
L 56.243672 248.440875 
Q 57.715547 248.440875 58.467422 249.1065 
Q 59.221172 249.772125 59.221172 251.054625 
Q 59.221172 252.35025 58.467422 253.012125 
Q 57.715547 253.674 56.243672 253.674 
L 54.754922 253.674 
L 54.754922 257.189625 
L 53.571797 257.189625 
L 53.571797 248.440875 
z
M 62.86875 251.38275 
Q 62.0025 251.38275 61.498125 252.059625 
Q 60.99375 252.7365 60.99375 253.914 
Q 60.99375 255.0915 61.494375 255.768375 
Q 61.996875 256.44525 62.86875 256.44525 
Q 63.73125 256.44525 64.23375 255.7665 
Q 64.738125 255.085875 64.738125 253.914 
Q 64.738125 252.74775 64.23375 252.06525 
Q 63.73125 251.38275 62.86875 251.38275 
z
M 62.86875 250.469625 
Q 64.275 250.469625 65.0775 251.384625 
Q 65.881875 252.29775 65.881875 253.914 
Q 65.881875 255.524625 65.0775 256.443375 
Q 64.275 257.36025 62.86875 257.36025 
Q 61.456875 257.36025 60.65625 256.443375 
Q 59.8575 255.524625 59.8575 253.914 
Q 59.8575 252.29775 60.65625 251.384625 
Q 61.456875 250.469625 62.86875 250.469625 
z
M 68.710547 256.20525 
L 68.710547 259.68525 
L 67.626797 259.68525 
L 67.626797 250.627125 
L 68.710547 250.627125 
L 68.710547 251.62275 
Q 69.051797 251.03775 69.569297 250.754625 
Q 70.088672 250.469625 70.808672 250.469625 
Q 72.004922 250.469625 72.751172 251.418375 
Q 73.499297 252.367125 73.499297 253.914 
Q 73.499297 255.460875 72.751172 256.4115 
Q 72.004922 257.36025 70.808672 257.36025 
Q 70.088672 257.36025 69.569297 257.07525 
Q 69.051797 256.79025 68.710547 256.20525 
z
M 72.379922 253.914 
Q 72.379922 252.72525 71.890547 252.048375 
Q 71.401172 251.3715 70.546172 251.3715 
Q 69.689297 251.3715 69.199922 252.048375 
Q 68.710547 252.72525 68.710547 253.914 
Q 68.710547 255.10275 69.199922 255.779625 
Q 69.689297 256.4565 70.546172 256.4565 
Q 71.401172 256.4565 71.890547 255.779625 
Q 72.379922 255.10275 72.379922 253.914 
z
M 75.174609 254.60025 
L 75.174609 250.627125 
L 76.252734 250.627125 
L 76.252734 254.559 
Q 76.252734 255.490875 76.614609 255.95775 
Q 76.978359 256.42275 77.705859 256.42275 
Q 78.577734 256.42275 79.083984 255.865875 
Q 79.592109 255.309 79.592109 254.347125 
L 79.592109 250.627125 
L 80.670234 250.627125 
L 80.670234 257.189625 
L 79.592109 257.189625 
L 79.592109 256.180875 
Q 79.200234 256.779 78.680859 257.069625 
Q 78.163359 257.36025 77.477109 257.36025 
Q 76.346484 257.36025 75.759609 256.657125 
Q 75.174609 255.954 75.174609 254.60025 
z
M 77.887734 250.469625 
L 77.887734 250.469625 
z
M 82.890703 248.0715 
L 83.968828 248.0715 
L 83.968828 257.189625 
L 82.890703 257.189625 
L 82.890703 248.0715 
z
M 89.207813 253.8915 
Q 87.900937 253.8915 87.396563 254.189625 
Q 86.892188 254.48775 86.892188 255.209625 
Q 86.892188 255.783375 87.270938 256.120875 
Q 87.649687 256.4565 88.298438 256.4565 
Q 89.196562 256.4565 89.738438 255.820875 
Q 90.280313 255.18525 90.280313 254.1315 
L 90.280313 253.8915 
L 89.207813 253.8915 
z
M 91.358438 253.44525 
L 91.358438 257.189625 
L 90.280313 257.189625 
L 90.280313 256.194 
Q 89.910938 256.79025 89.359688 257.07525 
Q 88.808437 257.36025 88.011562 257.36025 
Q 87.004688 257.36025 86.408438 256.794 
Q 85.814063 256.22775 85.814063 255.279 
Q 85.814063 254.17275 86.554688 253.61025 
Q 87.297188 253.04775 88.767188 253.04775 
L 90.280313 253.04775 
L 90.280313 252.940875 
Q 90.280313 252.1965 89.790938 251.789625 
Q 89.301563 251.38275 88.416562 251.38275 
Q 87.854062 251.38275 87.319688 251.51775 
Q 86.787188 251.65275 86.295938 251.92275 
L 86.295938 250.92525 
Q 86.886562 250.6965 87.443438 250.584 
Q 88.000313 250.469625 88.527187 250.469625 
Q 89.952188 250.469625 90.655313 251.208375 
Q 91.358438 251.94525 91.358438 253.44525 
z
M 94.645078 248.763375 
L 94.645078 250.627125 
L 96.865078 250.627125 
L 96.865078 251.46525 
L 94.645078 251.46525 
L 94.645078 255.02775 
Q 94.645078 255.83025 94.864453 256.059 
Q 95.083828 256.28775 95.758828 256.28775 
L 96.865078 256.28775 
L 96.865078 257.189625 
L 95.758828 257.189625 
Q 94.510078 257.189625 94.035703 256.724625 
Q 93.561328 256.25775 93.561328 255.02775 
L 93.561328 251.46525 
L 92.770078 251.46525 
L 92.770078 250.627125 
L 93.561328 250.627125 
L 93.561328 248.763375 
L 94.645078 248.763375 
z
M 98.283281 250.627125 
L 99.361406 250.627125 
L 99.361406 257.189625 
L 98.283281 257.189625 
L 98.283281 250.627125 
z
M 98.283281 248.0715 
L 99.361406 248.0715 
L 99.361406 249.438375 
L 98.283281 249.438375 
L 98.283281 248.0715 
z
M 104.159766 251.38275 
Q 103.293516 251.38275 102.789141 252.059625 
Q 102.284766 252.7365 102.284766 253.914 
Q 102.284766 255.0915 102.785391 255.768375 
Q 103.287891 256.44525 104.159766 256.44525 
Q 105.022266 256.44525 105.524766 255.7665 
Q 106.029141 255.085875 106.029141 253.914 
Q 106.029141 252.74775 105.524766 252.06525 
Q 105.022266 251.38275 104.159766 251.38275 
z
M 104.159766 250.469625 
Q 105.566016 250.469625 106.368516 251.384625 
Q 107.172891 252.29775 107.172891 253.914 
Q 107.172891 255.524625 106.368516 256.443375 
Q 105.566016 257.36025 104.159766 257.36025 
Q 102.747891 257.36025 101.947266 256.443375 
Q 101.148516 255.524625 101.148516 253.914 
Q 101.148516 252.29775 101.947266 251.384625 
Q 102.747891 250.469625 104.159766 250.469625 
z
M 114.415312 253.22775 
L 114.415312 257.189625 
L 113.337187 257.189625 
L 113.337187 253.263375 
Q 113.337187 252.3315 112.973438 251.87025 
Q 112.609688 251.407125 111.884062 251.407125 
Q 111.010312 251.407125 110.505938 251.964 
Q 110.001563 252.519 110.001563 253.480875 
L 110.001563 257.189625 
L 108.917812 257.189625 
L 108.917812 250.627125 
L 110.001563 250.627125 
L 110.001563 251.647125 
Q 110.389688 251.054625 110.912813 250.762125 
Q 111.437813 250.469625 112.124063 250.469625 
Q 113.254688 250.469625 113.834063 251.169 
Q 114.415312 251.868375 114.415312 253.22775 
z
M 127.972734 253.34025 
Q 127.462734 253.34025 127.172109 253.773375 
Q 126.883359 254.2065 126.883359 254.980875 
Q 126.883359 255.742125 127.172109 256.179 
Q 127.462734 256.615875 127.972734 256.615875 
Q 128.471484 256.615875 128.760234 256.179 
Q 129.050859 255.742125 129.050859 254.980875 
Q 129.050859 254.212125 128.760234 253.777125 
Q 128.471484 253.34025 127.972734 253.34025 
z
M 127.972734 252.595875 
Q 128.898984 252.595875 129.442734 253.240875 
Q 129.988359 253.884 129.988359 254.980875 
Q 129.988359 256.075875 129.440859 256.719 
Q 128.893359 257.36025 127.972734 257.36025 
Q 127.035234 257.36025 126.489609 256.719 
Q 125.945859 256.075875 125.945859 254.980875 
Q 125.945859 253.878375 126.493359 253.237125 
Q 127.040859 252.595875 127.972734 252.595875 
z
M 121.925859 249.02775 
Q 121.421484 249.02775 121.130859 249.464625 
Q 120.842109 249.899625 120.842109 250.66275 
Q 120.842109 251.43525 121.128984 251.87025 
Q 121.415859 252.303375 121.925859 252.303375 
Q 122.435859 252.303375 122.724609 251.87025 
Q 123.015234 251.43525 123.015234 250.66275 
Q 123.015234 249.907125 122.722734 249.468375 
Q 122.430234 249.02775 121.925859 249.02775 
z
M 127.217109 248.283375 
L 128.154609 248.283375 
L 122.681484 257.36025 
L 121.743984 257.36025 
L 127.217109 248.283375 
z
M 121.925859 248.283375 
Q 122.852109 248.283375 123.401484 248.924625 
Q 123.952734 249.565875 123.952734 250.66275 
Q 123.952734 251.769 123.405234 252.408375 
Q 122.857734 253.04775 121.925859 253.04775 
Q 120.993984 253.04775 120.452109 252.4065 
Q 119.910234 251.763375 119.910234 250.66275 
Q 119.910234 249.5715 120.453984 248.928375 
Q 120.999609 248.283375 121.925859 248.283375 
z
" style="fill: #ffffff; stroke: #000000; stroke-width: 2"/>
    <path d="M 21.0525 249.607125 
L 19.445625 253.960875 
L 22.663125 253.960875 
L 21.0525 249.607125 
z
M 20.383125 248.440875 
L 21.725625 248.440875 
L 25.059375 257.189625 
L 23.829375 257.189625 
L 23.0325 254.94525 
L 19.089375 254.94525 
L 18.2925 257.189625 
L 17.04375 257.189625 
L 20.383125 248.440875 
z
M 32.677734 249.115875 
L 32.677734 250.36275 
Q 32.079609 249.805875 31.402734 249.532125 
Q 30.725859 249.2565 29.964609 249.2565 
Q 28.464609 249.2565 27.667734 250.173375 
Q 26.870859 251.09025 26.870859 252.824625 
Q 26.870859 254.553375 27.667734 255.47025 
Q 28.464609 256.387125 29.964609 256.387125 
Q 30.725859 256.387125 31.402734 256.1115 
Q 32.079609 255.835875 32.677734 255.279 
L 32.677734 256.5165 
Q 32.057109 256.938375 31.361484 257.15025 
Q 30.667734 257.36025 29.895234 257.36025 
Q 27.907734 257.36025 26.763984 256.14525 
Q 25.622109 254.928375 25.622109 252.824625 
Q 25.622109 250.71525 26.763984 249.50025 
Q 27.907734 248.283375 29.895234 248.283375 
Q 30.678984 248.283375 31.372734 248.4915 
Q 32.068359 248.699625 32.677734 249.115875 
z
M 39.749766 248.72775 
L 39.749766 249.88275 
Q 39.076641 249.56025 38.478516 249.40275 
Q 37.880391 249.243375 37.323516 249.243375 
Q 36.357891 249.243375 35.832891 249.618375 
Q 35.307891 249.993375 35.307891 250.68525 
Q 35.307891 251.2665 35.656641 251.56275 
Q 36.005391 251.857125 36.978516 252.039 
L 37.692891 252.18525 
Q 39.016641 252.438375 39.646641 253.074 
Q 40.276641 253.709625 40.276641 254.774625 
Q 40.276641 256.04775 39.423516 256.704 
Q 38.572266 257.36025 36.926016 257.36025 
Q 36.305391 257.36025 35.604141 257.219625 
Q 34.904766 257.079 34.154766 256.803375 
L 34.154766 255.584625 
Q 34.874766 255.98775 35.566641 256.194 
Q 36.258516 256.398375 36.926016 256.398375 
Q 37.938516 256.398375 38.489766 256.000875 
Q 39.041016 255.6015 39.041016 254.86275 
Q 39.041016 254.219625 38.645391 253.855875 
Q 38.249766 253.492125 37.347891 253.31025 
L 36.626016 253.169625 
Q 35.302266 252.907125 34.709766 252.344625 
Q 34.119141 251.782125 34.119141 250.779 
Q 34.119141 249.618375 34.936641 248.950875 
Q 35.754141 248.283375 37.188516 248.283375 
Q 37.805391 248.283375 38.442891 248.395875 
Q 39.082266 248.5065 39.749766 248.72775 
z
M 42.240703 248.440875 
L 46.886953 248.440875 
L 46.886953 249.438375 
L 43.324453 249.438375 
L 43.324453 251.5815 
Q 43.581328 251.493375 43.838203 251.45025 
Q 44.096953 251.407125 44.355703 251.407125 
Q 45.820078 251.407125 46.675078 252.209625 
Q 47.531953 253.012125 47.531953 254.38275 
Q 47.531953 255.794625 46.652578 256.578375 
Q 45.773203 257.36025 44.173828 257.36025 
Q 43.622578 257.36025 43.050703 257.2665 
Q 42.480703 257.17275 41.871328 256.98525 
L 41.871328 255.794625 
Q 42.398203 256.0815 42.960703 256.222125 
Q 43.523203 256.36275 44.149453 256.36275 
Q 45.163828 256.36275 45.754453 255.83025 
Q 46.346953 255.29775 46.346953 254.38275 
Q 46.346953 253.469625 45.754453 252.937125 
Q 45.163828 252.40275 44.149453 252.40275 
Q 43.675078 252.40275 43.202578 252.50775 
Q 42.731953 252.61275 42.240703 252.835875 
L 42.240703 248.440875 
z
M 54.754922 249.414 
L 54.754922 252.700875 
L 56.243672 252.700875 
Q 57.070547 252.700875 57.520547 252.273375 
Q 57.972422 251.845875 57.972422 251.054625 
Q 57.972422 250.269 57.520547 249.8415 
Q 57.070547 249.414 56.243672 249.414 
L 54.754922 249.414 
z
M 53.571797 248.440875 
L 56.243672 248.440875 
Q 57.715547 248.440875 58.467422 249.1065 
Q 59.221172 249.772125 59.221172 251.054625 
Q 59.221172 252.35025 58.467422 253.012125 
Q 57.715547 253.674 56.243672 253.674 
L 54.754922 253.674 
L 54.754922 257.189625 
L 53.571797 257.189625 
L 53.571797 248.440875 
z
M 62.86875 251.38275 
Q 62.0025 251.38275 61.498125 252.059625 
Q 60.99375 252.7365 60.99375 253.914 
Q 60.99375 255.0915 61.494375 255.768375 
Q 61.996875 256.44525 62.86875 256.44525 
Q 63.73125 256.44525 64.23375 255.7665 
Q 64.738125 255.085875 64.738125 253.914 
Q 64.738125 252.74775 64.23375 252.06525 
Q 63.73125 251.38275 62.86875 251.38275 
z
M 62.86875 250.469625 
Q 64.275 250.469625 65.0775 251.384625 
Q 65.881875 252.29775 65.881875 253.914 
Q 65.881875 255.524625 65.0775 256.443375 
Q 64.275 257.36025 62.86875 257.36025 
Q 61.456875 257.36025 60.65625 256.443375 
Q 59.8575 255.524625 59.8575 253.914 
Q 59.8575 252.29775 60.65625 251.384625 
Q 61.456875 250.469625 62.86875 250.469625 
z
M 68.710547 256.20525 
L 68.710547 259.68525 
L 67.626797 259.68525 
L 67.626797 250.627125 
L 68.710547 250.627125 
L 68.710547 251.62275 
Q 69.051797 251.03775 69.569297 250.754625 
Q 70.088672 250.469625 70.808672 250.469625 
Q 72.004922 250.469625 72.751172 251.418375 
Q 73.499297 252.367125 73.499297 253.914 
Q 73.499297 255.460875 72.751172 256.4115 
Q 72.004922 257.36025 70.808672 257.36025 
Q 70.088672 257.36025 69.569297 257.07525 
Q 69.051797 256.79025 68.710547 256.20525 
z
M 72.379922 253.914 
Q 72.379922 252.72525 71.890547 252.048375 
Q 71.401172 251.3715 70.546172 251.3715 
Q 69.689297 251.3715 69.199922 252.048375 
Q 68.710547 252.72525 68.710547 253.914 
Q 68.710547 255.10275 69.199922 255.779625 
Q 69.689297 256.4565 70.546172 256.4565 
Q 71.401172 256.4565 71.890547 255.779625 
Q 72.379922 255.10275 72.379922 253.914 
z
M 75.174609 254.60025 
L 75.174609 250.627125 
L 76.252734 250.627125 
L 76.252734 254.559 
Q 76.252734 255.490875 76.614609 255.95775 
Q 76.978359 256.42275 77.705859 256.42275 
Q 78.577734 256.42275 79.083984 255.865875 
Q 79.592109 255.309 79.592109 254.347125 
L 79.592109 250.627125 
L 80.670234 250.627125 
L 80.670234 257.189625 
L 79.592109 257.189625 
L 79.592109 256.180875 
Q 79.200234 256.779 78.680859 257.069625 
Q 78.163359 257.36025 77.477109 257.36025 
Q 76.346484 257.36025 75.759609 256.657125 
Q 75.174609 255.954 75.174609 254.60025 
z
M 77.887734 250.469625 
L 77.887734 250.469625 
z
M 82.890703 248.0715 
L 83.968828 248.0715 
L 83.968828 257.189625 
L 82.890703 257.189625 
L 82.890703 248.0715 
z
M 89.207813 253.8915 
Q 87.900937 253.8915 87.396563 254.189625 
Q 86.892188 254.48775 86.892188 255.209625 
Q 86.892188 255.783375 87.270938 256.120875 
Q 87.649687 256.4565 88.298438 256.4565 
Q 89.196562 256.4565 89.738438 255.820875 
Q 90.280313 255.18525 90.280313 254.1315 
L 90.280313 253.8915 
L 89.207813 253.8915 
z
M 91.358438 253.44525 
L 91.358438 257.189625 
L 90.280313 257.189625 
L 90.280313 256.194 
Q 89.910938 256.79025 89.359688 257.07525 
Q 88.808437 257.36025 88.011562 257.36025 
Q 87.004688 257.36025 86.408438 256.794 
Q 85.814063 256.22775 85.814063 255.279 
Q 85.814063 254.17275 86.554688 253.61025 
Q 87.297188 253.04775 88.767188 253.04775 
L 90.280313 253.04775 
L 90.280313 252.940875 
Q 90.280313 252.1965 89.790938 251.789625 
Q 89.301563 251.38275 88.416562 251.38275 
Q 87.854062 251.38275 87.319688 251.51775 
Q 86.787188 251.65275 86.295938 251.92275 
L 86.295938 250.92525 
Q 86.886562 250.6965 87.443438 250.584 
Q 88.000313 250.469625 88.527187 250.469625 
Q 89.952188 250.469625 90.655313 251.208375 
Q 91.358438 251.94525 91.358438 253.44525 
z
M 94.645078 248.763375 
L 94.645078 250.627125 
L 96.865078 250.627125 
L 96.865078 251.46525 
L 94.645078 251.46525 
L 94.645078 255.02775 
Q 94.645078 255.83025 94.864453 256.059 
Q 95.083828 256.28775 95.758828 256.28775 
L 96.865078 256.28775 
L 96.865078 257.189625 
L 95.758828 257.189625 
Q 94.510078 257.189625 94.035703 256.724625 
Q 93.561328 256.25775 93.561328 255.02775 
L 93.561328 251.46525 
L 92.770078 251.46525 
L 92.770078 250.627125 
L 93.561328 250.627125 
L 93.561328 248.763375 
L 94.645078 248.763375 
z
M 98.283281 250.627125 
L 99.361406 250.627125 
L 99.361406 257.189625 
L 98.283281 257.189625 
L 98.283281 250.627125 
z
M 98.283281 248.0715 
L 99.361406 248.0715 
L 99.361406 249.438375 
L 98.283281 249.438375 
L 98.283281 248.0715 
z
M 104.159766 251.38275 
Q 103.293516 251.38275 102.789141 252.059625 
Q 102.284766 252.7365 102.284766 253.914 
Q 102.284766 255.0915 102.785391 255.768375 
Q 103.287891 256.44525 104.159766 256.44525 
Q 105.022266 256.44525 105.524766 255.7665 
Q 106.029141 255.085875 106.029141 253.914 
Q 106.029141 252.74775 105.524766 252.06525 
Q 105.022266 251.38275 104.159766 251.38275 
z
M 104.159766 250.469625 
Q 105.566016 250.469625 106.368516 251.384625 
Q 107.172891 252.29775 107.172891 253.914 
Q 107.172891 255.524625 106.368516 256.443375 
Q 105.566016 257.36025 104.159766 257.36025 
Q 102.747891 257.36025 101.947266 256.443375 
Q 101.148516 255.524625 101.148516 253.914 
Q 101.148516 252.29775 101.947266 251.384625 
Q 102.747891 250.469625 104.159766 250.469625 
z
M 114.415312 253.22775 
L 114.415312 257.189625 
L 113.337187 257.189625 
L 113.337187 253.263375 
Q 113.337187 252.3315 112.973438 251.87025 
Q 112.609688 251.407125 111.884062 251.407125 
Q 111.010312 251.407125 110.505938 251.964 
Q 110.001563 252.519 110.001563 253.480875 
L 110.001563 257.189625 
L 108.917812 257.189625 
L 108.917812 250.627125 
L 110.001563 250.627125 
L 110.001563 251.647125 
Q 110.389688 251.054625 110.912813 250.762125 
Q 111.437813 250.469625 112.124063 250.469625 
Q 113.254688 250.469625 113.834063 251.169 
Q 114.415312 251.868375 114.415312 253.22775 
z
M 127.972734 253.34025 
Q 127.462734 253.34025 127.172109 253.773375 
Q 126.883359 254.2065 126.883359 254.980875 
Q 126.883359 255.742125 127.172109 256.179 
Q 127.462734 256.615875 127.972734 256.615875 
Q 128.471484 256.615875 128.760234 256.179 
Q 129.050859 255.742125 129.050859 254.980875 
Q 129.050859 254.212125 128.760234 253.777125 
Q 128.471484 253.34025 127.972734 253.34025 
z
M 127.972734 252.595875 
Q 128.898984 252.595875 129.442734 253.240875 
Q 129.988359 253.884 129.988359 254.980875 
Q 129.988359 256.075875 129.440859 256.719 
Q 128.893359 257.36025 127.972734 257.36025 
Q 127.035234 257.36025 126.489609 256.719 
Q 125.945859 256.075875 125.945859 254.980875 
Q 125.945859 253.878375 126.493359 253.237125 
Q 127.040859 252.595875 127.972734 252.595875 
z
M 121.925859 249.02775 
Q 121.421484 249.02775 121.130859 249.464625 
Q 120.842109 249.899625 120.842109 250.66275 
Q 120.842109 251.43525 121.128984 251.87025 
Q 121.415859 252.303375 121.925859 252.303375 
Q 122.435859 252.303375 122.724609 251.87025 
Q 123.015234 251.43525 123.015234 250.66275 
Q 123.015234 249.907125 122.722734 249.468375 
Q 122.430234 249.02775 121.925859 249.02775 
z
M 127.217109 248.283375 
L 128.154609 248.283375 
L 122.681484 257.36025 
L 121.743984 257.36025 
L 127.217109 248.283375 
z
M 121.925859 248.283375 
Q 122.852109 248.283375 123.401484 248.924625 
Q 123.952734 249.565875 123.952734 250.66275 
Q 123.952734 251.769 123.405234 252.408375 
Q 122.857734 253.04775 121.925859 253.04775 
Q 120.993984 253.04775 120.452109 252.4065 
Q 119.910234 251.763375 119.910234 250.66275 
Q 119.910234 249.5715 120.453984 248.928375 
Q 120.999609 248.283375 121.925859 248.283375 
z
" style="fill: #ffffff"/>
    <path d="M 17.35125 269.37825 
L 17.35125 267.028875 
L 15.418125 267.028875 
L 15.418125 266.05575 
L 18.523125 266.05575 
L 18.523125 269.81325 
Q 17.83875 270.298875 17.011875 270.54825 
Q 16.186875 270.797625 15.249375 270.797625 
Q 13.198125 270.797625 12.039375 269.5995 
Q 10.8825 268.3995 10.8825 266.262 
Q 10.8825 264.117 12.039375 262.918875 
Q 13.198125 261.72075 15.249375 261.72075 
Q 16.104375 261.72075 16.875 261.932625 
Q 17.645625 262.142625 18.29625 262.55325 
L 18.29625 263.81325 
Q 17.64 263.256375 16.90125 262.975125 
Q 16.1625 262.693875 15.34875 262.693875 
Q 13.741875 262.693875 12.935625 263.590125 
Q 12.13125 264.486375 12.13125 266.262 
Q 12.13125 268.032 12.935625 268.92825 
Q 13.741875 269.8245 15.34875 269.8245 
Q 15.975 269.8245 16.46625 269.71575 
Q 16.959375 269.607 17.35125 269.37825 
z
M 24.441328 265.071375 
Q 24.259453 264.966375 24.045703 264.917625 
Q 23.831953 264.867 23.575078 264.867 
Q 22.660078 264.867 22.170703 265.461375 
Q 21.681328 266.05575 21.681328 267.1695 
L 21.681328 270.627 
L 20.597578 270.627 
L 20.597578 264.0645 
L 21.681328 264.0645 
L 21.681328 265.0845 
Q 22.022578 264.486375 22.566328 264.197625 
Q 23.111953 263.907 23.891953 263.907 
Q 24.002578 263.907 24.137578 263.922 
Q 24.272578 263.935125 24.435703 263.965125 
L 24.441328 265.071375 
z
M 27.844922 264.820125 
Q 26.978672 264.820125 26.474297 265.497 
Q 25.969922 266.173875 25.969922 267.351375 
Q 25.969922 268.528875 26.470547 269.20575 
Q 26.973047 269.882625 27.844922 269.882625 
Q 28.707422 269.882625 29.209922 269.203875 
Q 29.714297 268.52325 29.714297 267.351375 
Q 29.714297 266.185125 29.209922 265.502625 
Q 28.707422 264.820125 27.844922 264.820125 
z
M 27.844922 263.907 
Q 29.251172 263.907 30.053672 264.822 
Q 30.858047 265.735125 30.858047 267.351375 
Q 30.858047 268.962 30.053672 269.88075 
Q 29.251172 270.797625 27.844922 270.797625 
Q 26.433047 270.797625 25.632422 269.88075 
Q 24.833672 268.962 24.833672 267.351375 
Q 24.833672 265.735125 25.632422 264.822 
Q 26.433047 263.907 27.844922 263.907 
z
M 32.017969 264.0645 
L 33.096094 264.0645 
L 34.444219 269.185125 
L 35.784844 264.0645 
L 37.056094 264.0645 
L 38.404219 269.185125 
L 39.746719 264.0645 
L 40.824844 264.0645 
L 39.107344 270.627 
L 37.836094 270.627 
L 36.424219 265.247625 
L 35.006719 270.627 
L 33.733594 270.627 
L 32.017969 264.0645 
z
M 43.525547 262.20075 
L 43.525547 264.0645 
L 45.745547 264.0645 
L 45.745547 264.902625 
L 43.525547 264.902625 
L 43.525547 268.465125 
Q 43.525547 269.267625 43.744922 269.496375 
Q 43.964297 269.725125 44.639297 269.725125 
L 45.745547 269.725125 
L 45.745547 270.627 
L 44.639297 270.627 
Q 43.390547 270.627 42.916172 270.162 
Q 42.441797 269.695125 42.441797 268.465125 
L 42.441797 264.902625 
L 41.650547 264.902625 
L 41.650547 264.0645 
L 42.441797 264.0645 
L 42.441797 262.20075 
L 43.525547 262.20075 
z
M 52.62 266.665125 
L 52.62 270.627 
L 51.541875 270.627 
L 51.541875 266.70075 
Q 51.541875 265.768875 51.178125 265.307625 
Q 50.814375 264.8445 50.08875 264.8445 
Q 49.215 264.8445 48.710625 265.401375 
Q 48.20625 265.956375 48.20625 266.91825 
L 48.20625 270.627 
L 47.1225 270.627 
L 47.1225 261.508875 
L 48.20625 261.508875 
L 48.20625 265.0845 
Q 48.594375 264.492 49.1175 264.1995 
Q 49.6425 263.907 50.32875 263.907 
Q 51.459375 263.907 52.03875 264.606375 
Q 52.62 265.30575 52.62 266.665125 
z
M 58.630547 261.87825 
L 63.657422 261.87825 
L 63.657422 262.87575 
L 59.813672 262.87575 
L 59.813672 265.453875 
L 63.282422 265.453875 
L 63.282422 266.4495 
L 59.813672 266.4495 
L 59.813672 270.627 
L 58.630547 270.627 
L 58.630547 261.87825 
z
M 68.418516 265.071375 
Q 68.236641 264.966375 68.022891 264.917625 
Q 67.809141 264.867 67.552266 264.867 
Q 66.637266 264.867 66.147891 265.461375 
Q 65.658516 266.05575 65.658516 267.1695 
L 65.658516 270.627 
L 64.574766 270.627 
L 64.574766 264.0645 
L 65.658516 264.0645 
L 65.658516 265.0845 
Q 65.999766 264.486375 66.543516 264.197625 
Q 67.089141 263.907 67.869141 263.907 
Q 67.979766 263.907 68.114766 263.922 
Q 68.249766 263.935125 68.412891 263.965125 
L 68.418516 265.071375 
z
M 71.822109 264.820125 
Q 70.955859 264.820125 70.451484 265.497 
Q 69.947109 266.173875 69.947109 267.351375 
Q 69.947109 268.528875 70.447734 269.20575 
Q 70.950234 269.882625 71.822109 269.882625 
Q 72.684609 269.882625 73.187109 269.203875 
Q 73.691484 268.52325 73.691484 267.351375 
Q 73.691484 266.185125 73.187109 265.502625 
Q 72.684609 264.820125 71.822109 264.820125 
z
M 71.822109 263.907 
Q 73.228359 263.907 74.030859 264.822 
Q 74.835234 265.735125 74.835234 267.351375 
Q 74.835234 268.962 74.030859 269.88075 
Q 73.228359 270.797625 71.822109 270.797625 
Q 70.410234 270.797625 69.609609 269.88075 
Q 68.810859 268.962 68.810859 267.351375 
Q 68.810859 265.735125 69.609609 264.822 
Q 70.410234 263.907 71.822109 263.907 
z
M 81.730781 265.3245 
Q 82.135781 264.597 82.698281 264.252 
Q 83.260781 263.907 84.022031 263.907 
Q 85.047656 263.907 85.604531 264.625125 
Q 86.161406 265.341375 86.161406 266.665125 
L 86.161406 270.627 
L 85.077656 270.627 
L 85.077656 266.70075 
Q 85.077656 265.757625 84.742031 265.302 
Q 84.408281 264.8445 83.723906 264.8445 
Q 82.885781 264.8445 82.398281 265.401375 
Q 81.912656 265.956375 81.912656 266.91825 
L 81.912656 270.627 
L 80.828906 270.627 
L 80.828906 266.70075 
Q 80.828906 265.752 80.495156 265.29825 
Q 80.161406 264.8445 79.463906 264.8445 
Q 78.637031 264.8445 78.149531 265.40325 
Q 77.663906 265.962 77.663906 266.91825 
L 77.663906 270.627 
L 76.580156 270.627 
L 76.580156 264.0645 
L 77.663906 264.0645 
L 77.663906 265.0845 
Q 78.033281 264.48075 78.548906 264.193875 
Q 79.064531 263.907 79.773281 263.907 
Q 80.489531 263.907 80.990156 264.27075 
Q 81.490781 264.632625 81.730781 265.3245 
z
M 93.297188 269.631375 
L 97.427813 269.631375 
L 97.427813 270.627 
L 91.874063 270.627 
L 91.874063 269.631375 
Q 92.547188 268.933875 93.709688 267.760125 
Q 94.874063 266.5845 95.172188 266.24325 
Q 95.740313 265.60575 95.965313 265.16325 
Q 96.192188 264.72075 96.192188 264.29325 
Q 96.192188 263.59575 95.702813 263.157 
Q 95.213438 262.716375 94.427813 262.716375 
Q 93.870938 262.716375 93.252188 262.9095 
Q 92.635313 263.102625 91.932188 263.496375 
L 91.932188 262.300125 
Q 92.646563 262.01325 93.267188 261.867 
Q 93.889688 261.72075 94.405313 261.72075 
Q 95.764688 261.72075 96.572813 262.401375 
Q 97.380938 263.080125 97.380938 264.216375 
Q 97.380938 264.756375 97.178438 265.240125 
Q 96.977812 265.722 96.443438 266.37825 
Q 96.297188 266.548875 95.511563 267.36075 
Q 94.727812 268.172625 93.297188 269.631375 
z
M 102.443203 262.65825 
Q 101.530078 262.65825 101.068828 263.55825 
Q 100.609453 264.456375 100.609453 266.262 
Q 100.609453 268.060125 101.068828 268.960125 
Q 101.530078 269.860125 102.443203 269.860125 
Q 103.363828 269.860125 103.823203 268.960125 
Q 104.284453 268.060125 104.284453 266.262 
Q 104.284453 264.456375 103.823203 263.55825 
Q 103.363828 262.65825 102.443203 262.65825 
z
M 102.443203 261.72075 
Q 103.915078 261.72075 104.691328 262.885125 
Q 105.467578 264.047625 105.467578 266.262 
Q 105.467578 268.47075 104.691328 269.635125 
Q 103.915078 270.797625 102.443203 270.797625 
Q 100.973203 270.797625 100.196953 269.635125 
Q 99.420703 268.47075 99.420703 266.262 
Q 99.420703 264.047625 100.196953 262.885125 
Q 100.973203 261.72075 102.443203 261.72075 
z
M 107.752969 269.631375 
L 109.686094 269.631375 
L 109.686094 262.956375 
L 107.582344 263.37825 
L 107.582344 262.300125 
L 109.674844 261.87825 
L 110.857969 261.87825 
L 110.857969 269.631375 
L 112.791094 269.631375 
L 112.791094 270.627 
L 107.752969 270.627 
L 107.752969 269.631375 
z
M 115.194609 261.87825 
L 119.840859 261.87825 
L 119.840859 262.87575 
L 116.278359 262.87575 
L 116.278359 265.018875 
Q 116.535234 264.93075 116.792109 264.887625 
Q 117.050859 264.8445 117.309609 264.8445 
Q 118.773984 264.8445 119.628984 265.647 
Q 120.485859 266.4495 120.485859 267.820125 
Q 120.485859 269.232 119.606484 270.01575 
Q 118.727109 270.797625 117.127734 270.797625 
Q 116.576484 270.797625 116.004609 270.703875 
Q 115.434609 270.610125 114.825234 270.422625 
L 114.825234 269.232 
Q 115.352109 269.518875 115.914609 269.6595 
Q 116.477109 269.800125 117.103359 269.800125 
Q 118.117734 269.800125 118.708359 269.267625 
Q 119.300859 268.735125 119.300859 267.820125 
Q 119.300859 266.907 118.708359 266.3745 
Q 118.117734 265.840125 117.103359 265.840125 
Q 116.628984 265.840125 116.156484 265.945125 
Q 115.685859 266.050125 115.194609 266.27325 
L 115.194609 261.87825 
z
M 127.545703 262.20075 
L 127.545703 264.0645 
L 129.765703 264.0645 
L 129.765703 264.902625 
L 127.545703 264.902625 
L 127.545703 268.465125 
Q 127.545703 269.267625 127.765078 269.496375 
Q 127.984453 269.725125 128.659453 269.725125 
L 129.765703 269.725125 
L 129.765703 270.627 
L 128.659453 270.627 
Q 127.410703 270.627 126.936328 270.162 
Q 126.461953 269.695125 126.461953 268.465125 
L 126.461953 264.902625 
L 125.670703 264.902625 
L 125.670703 264.0645 
L 126.461953 264.0645 
L 126.461953 262.20075 
L 127.545703 262.20075 
z
M 133.726406 264.820125 
Q 132.860156 264.820125 132.355781 265.497 
Q 131.851406 266.173875 131.851406 267.351375 
Q 131.851406 268.528875 132.352031 269.20575 
Q 132.854531 269.882625 133.726406 269.882625 
Q 134.588906 269.882625 135.091406 269.203875 
Q 135.595781 268.52325 135.595781 267.351375 
Q 135.595781 266.185125 135.091406 265.502625 
Q 134.588906 264.820125 133.726406 264.820125 
z
M 133.726406 263.907 
Q 135.132656 263.907 135.935156 264.822 
Q 136.739531 265.735125 136.739531 267.351375 
Q 136.739531 268.962 135.935156 269.88075 
Q 135.132656 270.797625 133.726406 270.797625 
Q 132.314531 270.797625 131.513906 269.88075 
Q 130.715156 268.962 130.715156 267.351375 
Q 130.715156 265.735125 131.513906 264.822 
Q 132.314531 263.907 133.726406 263.907 
z
" style="fill: #ffffff; stroke: #000000; stroke-width: 2"/>
    <path d="M 17.35125 269.37825 
L 17.35125 267.028875 
L 15.418125 267.028875 
L 15.418125 266.05575 
L 18.523125 266.05575 
L 18.523125 269.81325 
Q 17.83875 270.298875 17.011875 270.54825 
Q 16.186875 270.797625 15.249375 270.797625 
Q 13.198125 270.797625 12.039375 269.5995 
Q 10.8825 268.3995 10.8825 266.262 
Q 10.8825 264.117 12.039375 262.918875 
Q 13.198125 261.72075 15.249375 261.72075 
Q 16.104375 261.72075 16.875 261.932625 
Q 17.645625 262.142625 18.29625 262.55325 
L 18.29625 263.81325 
Q 17.64 263.256375 16.90125 262.975125 
Q 16.1625 262.693875 15.34875 262.693875 
Q 13.741875 262.693875 12.935625 263.590125 
Q 12.13125 264.486375 12.13125 266.262 
Q 12.13125 268.032 12.935625 268.92825 
Q 13.741875 269.8245 15.34875 269.8245 
Q 15.975 269.8245 16.46625 269.71575 
Q 16.959375 269.607 17.35125 269.37825 
z
M 24.441328 265.071375 
Q 24.259453 264.966375 24.045703 264.917625 
Q 23.831953 264.867 23.575078 264.867 
Q 22.660078 264.867 22.170703 265.461375 
Q 21.681328 266.05575 21.681328 267.1695 
L 21.681328 270.627 
L 20.597578 270.627 
L 20.597578 264.0645 
L 21.681328 264.0645 
L 21.681328 265.0845 
Q 22.022578 264.486375 22.566328 264.197625 
Q 23.111953 263.907 23.891953 263.907 
Q 24.002578 263.907 24.137578 263.922 
Q 24.272578 263.935125 24.435703 263.965125 
L 24.441328 265.071375 
z
M 27.844922 264.820125 
Q 26.978672 264.820125 26.474297 265.497 
Q 25.969922 266.173875 25.969922 267.351375 
Q 25.969922 268.528875 26.470547 269.20575 
Q 26.973047 269.882625 27.844922 269.882625 
Q 28.707422 269.882625 29.209922 269.203875 
Q 29.714297 268.52325 29.714297 267.351375 
Q 29.714297 266.185125 29.209922 265.502625 
Q 28.707422 264.820125 27.844922 264.820125 
z
M 27.844922 263.907 
Q 29.251172 263.907 30.053672 264.822 
Q 30.858047 265.735125 30.858047 267.351375 
Q 30.858047 268.962 30.053672 269.88075 
Q 29.251172 270.797625 27.844922 270.797625 
Q 26.433047 270.797625 25.632422 269.88075 
Q 24.833672 268.962 24.833672 267.351375 
Q 24.833672 265.735125 25.632422 264.822 
Q 26.433047 263.907 27.844922 263.907 
z
M 32.017969 264.0645 
L 33.096094 264.0645 
L 34.444219 269.185125 
L 35.784844 264.0645 
L 37.056094 264.0645 
L 38.404219 269.185125 
L 39.746719 264.0645 
L 40.824844 264.0645 
L 39.107344 270.627 
L 37.836094 270.627 
L 36.424219 265.247625 
L 35.006719 270.627 
L 33.733594 270.627 
L 32.017969 264.0645 
z
M 43.525547 262.20075 
L 43.525547 264.0645 
L 45.745547 264.0645 
L 45.745547 264.902625 
L 43.525547 264.902625 
L 43.525547 268.465125 
Q 43.525547 269.267625 43.744922 269.496375 
Q 43.964297 269.725125 44.639297 269.725125 
L 45.745547 269.725125 
L 45.745547 270.627 
L 44.639297 270.627 
Q 43.390547 270.627 42.916172 270.162 
Q 42.441797 269.695125 42.441797 268.465125 
L 42.441797 264.902625 
L 41.650547 264.902625 
L 41.650547 264.0645 
L 42.441797 264.0645 
L 42.441797 262.20075 
L 43.525547 262.20075 
z
M 52.62 266.665125 
L 52.62 270.627 
L 51.541875 270.627 
L 51.541875 266.70075 
Q 51.541875 265.768875 51.178125 265.307625 
Q 50.814375 264.8445 50.08875 264.8445 
Q 49.215 264.8445 48.710625 265.401375 
Q 48.20625 265.956375 48.20625 266.91825 
L 48.20625 270.627 
L 47.1225 270.627 
L 47.1225 261.508875 
L 48.20625 261.508875 
L 48.20625 265.0845 
Q 48.594375 264.492 49.1175 264.1995 
Q 49.6425 263.907 50.32875 263.907 
Q 51.459375 263.907 52.03875 264.606375 
Q 52.62 265.30575 52.62 266.665125 
z
M 58.630547 261.87825 
L 63.657422 261.87825 
L 63.657422 262.87575 
L 59.813672 262.87575 
L 59.813672 265.453875 
L 63.282422 265.453875 
L 63.282422 266.4495 
L 59.813672 266.4495 
L 59.813672 270.627 
L 58.630547 270.627 
L 58.630547 261.87825 
z
M 68.418516 265.071375 
Q 68.236641 264.966375 68.022891 264.917625 
Q 67.809141 264.867 67.552266 264.867 
Q 66.637266 264.867 66.147891 265.461375 
Q 65.658516 266.05575 65.658516 267.1695 
L 65.658516 270.627 
L 64.574766 270.627 
L 64.574766 264.0645 
L 65.658516 264.0645 
L 65.658516 265.0845 
Q 65.999766 264.486375 66.543516 264.197625 
Q 67.089141 263.907 67.869141 263.907 
Q 67.979766 263.907 68.114766 263.922 
Q 68.249766 263.935125 68.412891 263.965125 
L 68.418516 265.071375 
z
M 71.822109 264.820125 
Q 70.955859 264.820125 70.451484 265.497 
Q 69.947109 266.173875 69.947109 267.351375 
Q 69.947109 268.528875 70.447734 269.20575 
Q 70.950234 269.882625 71.822109 269.882625 
Q 72.684609 269.882625 73.187109 269.203875 
Q 73.691484 268.52325 73.691484 267.351375 
Q 73.691484 266.185125 73.187109 265.502625 
Q 72.684609 264.820125 71.822109 264.820125 
z
M 71.822109 263.907 
Q 73.228359 263.907 74.030859 264.822 
Q 74.835234 265.735125 74.835234 267.351375 
Q 74.835234 268.962 74.030859 269.88075 
Q 73.228359 270.797625 71.822109 270.797625 
Q 70.410234 270.797625 69.609609 269.88075 
Q 68.810859 268.962 68.810859 267.351375 
Q 68.810859 265.735125 69.609609 264.822 
Q 70.410234 263.907 71.822109 263.907 
z
M 81.730781 265.3245 
Q 82.135781 264.597 82.698281 264.252 
Q 83.260781 263.907 84.022031 263.907 
Q 85.047656 263.907 85.604531 264.625125 
Q 86.161406 265.341375 86.161406 266.665125 
L 86.161406 270.627 
L 85.077656 270.627 
L 85.077656 266.70075 
Q 85.077656 265.757625 84.742031 265.302 
Q 84.408281 264.8445 83.723906 264.8445 
Q 82.885781 264.8445 82.398281 265.401375 
Q 81.912656 265.956375 81.912656 266.91825 
L 81.912656 270.627 
L 80.828906 270.627 
L 80.828906 266.70075 
Q 80.828906 265.752 80.495156 265.29825 
Q 80.161406 264.8445 79.463906 264.8445 
Q 78.637031 264.8445 78.149531 265.40325 
Q 77.663906 265.962 77.663906 266.91825 
L 77.663906 270.627 
L 76.580156 270.627 
L 76.580156 264.0645 
L 77.663906 264.0645 
L 77.663906 265.0845 
Q 78.033281 264.48075 78.548906 264.193875 
Q 79.064531 263.907 79.773281 263.907 
Q 80.489531 263.907 80.990156 264.27075 
Q 81.490781 264.632625 81.730781 265.3245 
z
M 93.297188 269.631375 
L 97.427813 269.631375 
L 97.427813 270.627 
L 91.874063 270.627 
L 91.874063 269.631375 
Q 92.547188 268.933875 93.709688 267.760125 
Q 94.874063 266.5845 95.172188 266.24325 
Q 95.740313 265.60575 95.965313 265.16325 
Q 96.192188 264.72075 96.192188 264.29325 
Q 96.192188 263.59575 95.702813 263.157 
Q 95.213438 262.716375 94.427813 262.716375 
Q 93.870938 262.716375 93.252188 262.9095 
Q 92.635313 263.102625 91.932188 263.496375 
L 91.932188 262.300125 
Q 92.646563 262.01325 93.267188 261.867 
Q 93.889688 261.72075 94.405313 261.72075 
Q 95.764688 261.72075 96.572813 262.401375 
Q 97.380938 263.080125 97.380938 264.216375 
Q 97.380938 264.756375 97.178438 265.240125 
Q 96.977812 265.722 96.443438 266.37825 
Q 96.297188 266.548875 95.511563 267.36075 
Q 94.727812 268.172625 93.297188 269.631375 
z
M 102.443203 262.65825 
Q 101.530078 262.65825 101.068828 263.55825 
Q 100.609453 264.456375 100.609453 266.262 
Q 100.609453 268.060125 101.068828 268.960125 
Q 101.530078 269.860125 102.443203 269.860125 
Q 103.363828 269.860125 103.823203 268.960125 
Q 104.284453 268.060125 104.284453 266.262 
Q 104.284453 264.456375 103.823203 263.55825 
Q 103.363828 262.65825 102.443203 262.65825 
z
M 102.443203 261.72075 
Q 103.915078 261.72075 104.691328 262.885125 
Q 105.467578 264.047625 105.467578 266.262 
Q 105.467578 268.47075 104.691328 269.635125 
Q 103.915078 270.797625 102.443203 270.797625 
Q 100.973203 270.797625 100.196953 269.635125 
Q 99.420703 268.47075 99.420703 266.262 
Q 99.420703 264.047625 100.196953 262.885125 
Q 100.973203 261.72075 102.443203 261.72075 
z
M 107.752969 269.631375 
L 109.686094 269.631375 
L 109.686094 262.956375 
L 107.582344 263.37825 
L 107.582344 262.300125 
L 109.674844 261.87825 
L 110.857969 261.87825 
L 110.857969 269.631375 
L 112.791094 269.631375 
L 112.791094 270.627 
L 107.752969 270.627 
L 107.752969 269.631375 
z
M 115.194609 261.87825 
L 119.840859 261.87825 
L 119.840859 262.87575 
L 116.278359 262.87575 
L 116.278359 265.018875 
Q 116.535234 264.93075 116.792109 264.887625 
Q 117.050859 264.8445 117.309609 264.8445 
Q 118.773984 264.8445 119.628984 265.647 
Q 120.485859 266.4495 120.485859 267.820125 
Q 120.485859 269.232 119.606484 270.01575 
Q 118.727109 270.797625 117.127734 270.797625 
Q 116.576484 270.797625 116.004609 270.703875 
Q 115.434609 270.610125 114.825234 270.422625 
L 114.825234 269.232 
Q 115.352109 269.518875 115.914609 269.6595 
Q 116.477109 269.800125 117.103359 269.800125 
Q 118.117734 269.800125 118.708359 269.267625 
Q 119.300859 268.735125 119.300859 267.820125 
Q 119.300859 266.907 118.708359 266.3745 
Q 118.117734 265.840125 117.103359 265.840125 
Q 116.628984 265.840125 116.156484 265.945125 
Q 115.685859 266.050125 115.194609 266.27325 
L 115.194609 261.87825 
z
M 127.545703 262.20075 
L 127.545703 264.0645 
L 129.765703 264.0645 
L 129.765703 264.902625 
L 127.545703 264.902625 
L 127.545703 268.465125 
Q 127.545703 269.267625 127.765078 269.496375 
Q 127.984453 269.725125 128.659453 269.725125 
L 129.765703 269.725125 
L 129.765703 270.627 
L 128.659453 270.627 
Q 127.410703 270.627 126.936328 270.162 
Q 126.461953 269.695125 126.461953 268.465125 
L 126.461953 264.902625 
L 125.670703 264.902625 
L 125.670703 264.0645 
L 126.461953 264.0645 
L 126.461953 262.20075 
L 127.545703 262.20075 
z
M 133.726406 264.820125 
Q 132.860156 264.820125 132.355781 265.497 
Q 131.851406 266.173875 131.851406 267.351375 
Q 131.851406 268.528875 132.352031 269.20575 
Q 132.854531 269.882625 133.726406 269.882625 
Q 134.588906 269.882625 135.091406 269.203875 
Q 135.595781 268.52325 135.595781 267.351375 
Q 135.595781 266.185125 135.091406 265.502625 
Q 134.588906 264.820125 133.726406 264.820125 
z
M 133.726406 263.907 
Q 135.132656 263.907 135.935156 264.822 
Q 136.739531 265.735125 136.739531 267.351375 
Q 136.739531 268.962 135.935156 269.88075 
Q 135.132656 270.797625 133.726406 270.797625 
Q 132.314531 270.797625 131.513906 269.88075 
Q 130.715156 268.962 130.715156 267.351375 
Q 130.715156 265.735125 131.513906 264.822 
Q 132.314531 263.907 133.726406 263.907 
z
" style="fill: #ffffff"/>
    <path d="M 60.8325 283.06875 
L 64.963125 283.06875 
L 64.963125 284.064375 
L 59.409375 284.064375 
L 59.409375 283.06875 
Q 60.0825 282.37125 61.245 281.1975 
Q 62.409375 280.021875 62.7075 279.680625 
Q 63.275625 279.043125 63.500625 278.600625 
Q 63.7275 278.158125 63.7275 277.730625 
Q 63.7275 277.033125 63.238125 276.594375 
Q 62.74875 276.15375 61.963125 276.15375 
Q 61.40625 276.15375 60.7875 276.346875 
Q 60.170625 276.54 59.4675 276.93375 
L 59.4675 275.7375 
Q 60.181875 275.450625 60.8025 275.304375 
Q 61.425 275.158125 61.940625 275.158125 
Q 63.3 275.158125 64.108125 275.83875 
Q 64.91625 276.5175 64.91625 277.65375 
Q 64.91625 278.19375 64.71375 278.6775 
Q 64.513125 279.159375 63.97875 279.815625 
Q 63.8325 279.98625 63.046875 280.798125 
Q 62.263125 281.61 60.8325 283.06875 
z
M 69.978516 276.095625 
Q 69.065391 276.095625 68.604141 276.995625 
Q 68.144766 277.89375 68.144766 279.699375 
Q 68.144766 281.4975 68.604141 282.3975 
Q 69.065391 283.2975 69.978516 283.2975 
Q 70.899141 283.2975 71.358516 282.3975 
Q 71.819766 281.4975 71.819766 279.699375 
Q 71.819766 277.89375 71.358516 276.995625 
Q 70.899141 276.095625 69.978516 276.095625 
z
M 69.978516 275.158125 
Q 71.450391 275.158125 72.226641 276.3225 
Q 73.002891 277.485 73.002891 279.699375 
Q 73.002891 281.908125 72.226641 283.0725 
Q 71.450391 284.235 69.978516 284.235 
Q 68.508516 284.235 67.732266 283.0725 
Q 66.956016 281.908125 66.956016 279.699375 
Q 66.956016 277.485 67.732266 276.3225 
Q 68.508516 275.158125 69.978516 275.158125 
z
M 76.102031 283.06875 
L 80.232656 283.06875 
L 80.232656 284.064375 
L 74.678906 284.064375 
L 74.678906 283.06875 
Q 75.352031 282.37125 76.514531 281.1975 
Q 77.678906 280.021875 77.977031 279.680625 
Q 78.545156 279.043125 78.770156 278.600625 
Q 78.997031 278.158125 78.997031 277.730625 
Q 78.997031 277.033125 78.507656 276.594375 
Q 78.018281 276.15375 77.232656 276.15375 
Q 76.675781 276.15375 76.057031 276.346875 
Q 75.440156 276.54 74.737031 276.93375 
L 74.737031 275.7375 
Q 75.451406 275.450625 76.072031 275.304375 
Q 76.694531 275.158125 77.210156 275.158125 
Q 78.569531 275.158125 79.377656 275.83875 
Q 80.185781 276.5175 80.185781 277.65375 
Q 80.185781 278.19375 79.983281 278.6775 
Q 79.782656 279.159375 79.248281 279.815625 
Q 79.102031 279.98625 78.316406 280.798125 
Q 77.532656 281.61 76.102031 283.06875 
z
M 85.248047 276.095625 
Q 84.334922 276.095625 83.873672 276.995625 
Q 83.414297 277.89375 83.414297 279.699375 
Q 83.414297 281.4975 83.873672 282.3975 
Q 84.334922 283.2975 85.248047 283.2975 
Q 86.168672 283.2975 86.628047 282.3975 
Q 87.089297 281.4975 87.089297 279.699375 
Q 87.089297 277.89375 86.628047 276.995625 
Q 86.168672 276.095625 85.248047 276.095625 
z
M 85.248047 275.158125 
Q 86.719922 275.158125 87.496172 276.3225 
Q 88.272422 277.485 88.272422 279.699375 
Q 88.272422 281.908125 87.496172 283.0725 
Q 86.719922 284.235 85.248047 284.235 
Q 83.778047 284.235 83.001797 283.0725 
Q 82.225547 281.908125 82.225547 279.699375 
Q 82.225547 277.485 83.001797 276.3225 
Q 83.778047 275.158125 85.248047 275.158125 
z
" style="fill: #ffffff; stroke: #000000; stroke-width: 2"/>
    <path d="M 60.8325 283.06875 
L 64.963125 283.06875 
L 64.963125 284.064375 
L 59.409375 284.064375 
L 59.409375 283.06875 
Q 60.0825 282.37125 61.245 281.1975 
Q 62.409375 280.021875 62.7075 279.680625 
Q 63.275625 279.043125 63.500625 278.600625 
Q 63.7275 278.158125 63.7275 277.730625 
Q 63.7275 277.033125 63.238125 276.594375 
Q 62.74875 276.15375 61.963125 276.15375 
Q 61.40625 276.15375 60.7875 276.346875 
Q 60.170625 276.54 59.4675 276.93375 
L 59.4675 275.7375 
Q 60.181875 275.450625 60.8025 275.304375 
Q 61.425 275.158125 61.940625 275.158125 
Q 63.3 275.158125 64.108125 275.83875 
Q 64.91625 276.5175 64.91625 277.65375 
Q 64.91625 278.19375 64.71375 278.6775 
Q 64.513125 279.159375 63.97875 279.815625 
Q 63.8325 279.98625 63.046875 280.798125 
Q 62.263125 281.61 60.8325 283.06875 
z
M 69.978516 276.095625 
Q 69.065391 276.095625 68.604141 276.995625 
Q 68.144766 277.89375 68.144766 279.699375 
Q 68.144766 281.4975 68.604141 282.3975 
Q 69.065391 283.2975 69.978516 283.2975 
Q 70.899141 283.2975 71.358516 282.3975 
Q 71.819766 281.4975 71.819766 279.699375 
Q 71.819766 277.89375 71.358516 276.995625 
Q 70.899141 276.095625 69.978516 276.095625 
z
M 69.978516 275.158125 
Q 71.450391 275.158125 72.226641 276.3225 
Q 73.002891 277.485 73.002891 279.699375 
Q 73.002891 281.908125 72.226641 283.0725 
Q 71.450391 284.235 69.978516 284.235 
Q 68.508516 284.235 67.732266 283.0725 
Q 66.956016 281.908125 66.956016 279.699375 
Q 66.956016 277.485 67.732266 276.3225 
Q 68.508516 275.158125 69.978516 275.158125 
z
M 76.102031 283.06875 
L 80.232656 283.06875 
L 80.232656 284.064375 
L 74.678906 284.064375 
L 74.678906 283.06875 
Q 75.352031 282.37125 76.514531 281.1975 
Q 77.678906 280.021875 77.977031 279.680625 
Q 78.545156 279.043125 78.770156 278.600625 
Q 78.997031 278.158125 78.997031 277.730625 
Q 78.997031 277.033125 78.507656 276.594375 
Q 78.018281 276.15375 77.232656 276.15375 
Q 76.675781 276.15375 76.057031 276.346875 
Q 75.440156 276.54 74.737031 276.93375 
L 74.737031 275.7375 
Q 75.451406 275.450625 76.072031 275.304375 
Q 76.694531 275.158125 77.210156 275.158125 
Q 78.569531 275.158125 79.377656 275.83875 
Q 80.185781 276.5175 80.185781 277.65375 
Q 80.185781 278.19375 79.983281 278.6775 
Q 79.782656 279.159375 79.248281 279.815625 
Q 79.102031 279.98625 78.316406 280.798125 
Q 77.532656 281.61 76.102031 283.06875 
z
M 85.248047 276.095625 
Q 84.334922 276.095625 83.873672 276.995625 
Q 83.414297 277.89375 83.414297 279.699375 
Q 83.414297 281.4975 83.873672 282.3975 
Q 84.334922 283.2975 85.248047 283.2975 
Q 86.168672 283.2975 86.628047 282.3975 
Q 87.089297 281.4975 87.089297 279.699375 
Q 87.089297 277.89375 86.628047 276.995625 
Q 86.168672 276.095625 85.248047 276.095625 
z
M 85.248047 275.158125 
Q 86.719922 275.158125 87.496172 276.3225 
Q 88.272422 277.485 88.272422 279.699375 
Q 88.272422 281.908125 87.496172 283.0725 
Q 86.719922 284.235 85.248047 284.235 
Q 83.778047 284.235 83.001797 283.0725 
Q 82.225547 281.908125 82.225547 279.699375 
Q 82.225547 277.485 83.001797 276.3225 
Q 83.778047 275.158125 85.248047 275.158125 
z
" style="fill: #ffffff"/>
   </g>
  </g>
  <g id="axes_3">
   <g id="patch_4">
    <path d="M 104.982353 286.56 
L 129.6 286.56 
L 129.6 69.12 
L 104.982353 69.12 
L 104.982353 286.56 
z
" style="fill: none"/>
   </g>
  </g>
  <g id="axes_4">
   <g id="patch_5">
    <path d="M 18 504 
L 42.617647 504 
L 42.617647 286.56 
L 18 286.56 
L 18 504 
z
" style="fill: none"/>
   </g>
  </g>
  <g id="axes_5">
   <g id="patch_6">
    <path d="M 49.182353 504 
L 98.417647 504 
L 98.417647 286.56 
L 49.182353 286.56 
L 49.182353 504 
z
" style="fill: none"/>
   </g>
   <g id="patch_7">
    <path d="M 49.182353 494.116364 
L 96.073109 494.116364 
L 96.073109 469.407273 
L 49.182353 469.407273 
z
" clip-path="url(#p49e9244535)" style="fill: #d73027"/>
   </g>
   <g id="patch_8">
    <path d="M 49.182353 469.407273 
L 96.073109 469.407273 
L 96.073109 444.698182 
L 49.182353 444.698182 
z
" clip-path="url(#p49e9244535)" style="fill: #f46d43"/>
   </g>
   <g id="patch_9">
    <path d="M 49.182353 444.698182 
L 96.073109 444.698182 
L 96.073109 419.989091 
L 49.182353 419.989091 
z
" clip-path="url(#p49e9244535)" style="fill: #fdae61"/>
   </g>
   <g id="patch_10">
    <path d="M 49.182353 419.989091 
L 96.073109 419.989091 
L 96.073109 395.28 
L 49.182353 395.28 
z
" clip-path="url(#p49e9244535)" style="fill: #fee08b"/>
   </g>
   <g id="patch_11">
    <path d="M 49.182353 395.28 
L 96.073109 395.28 
L 96.073109 370.570909 
L 49.182353 370.570909 
z
" clip-path="url(#p49e9244535)" style="fill: #d9ef8b"/>
   </g>
   <g id="patch_12">
    <path d="M 49.182353 370.570909 
L 96.073109 370.570909 
L 96.073109 345.861818 
L 49.182353 345.861818 
z
" clip-path="url(#p49e9244535)" style="fill: #a6d96a"/>
   </g>
   <g id="patch_13">
    <path d="M 49.182353 345.861818 
L 96.073109 345.861818 
L 96.073109 321.152727 
L 49.182353 321.152727 
z
" clip-path="url(#p49e9244535)" style="fill: #66bd63"/>
   </g>
   <g id="patch_14">
    <path d="M 49.182353 321.152727 
L 96.073109 321.152727 
L 96.073109 296.443636 
L 49.182353 296.443636 
z
" clip-path="url(#p49e9244535)" style="fill: #1a9850"/>
   </g>
   <g id="text_2">
    <path d="M 55.985231 495.22125 
L 59.663981 495.22125 
L 59.663981 496.925625 
L 55.985231 496.925625 
L 55.985231 495.22125 
z
M 65.90445 494.810625 
Q 66.78945 495.039375 67.248825 495.605625 
Q 67.710075 496.17 67.710075 497.04375 
Q 67.710075 498.345 66.712575 499.021875 
Q 65.71695 499.69875 63.8082 499.69875 
Q 63.1332 499.69875 62.456325 499.59 
Q 61.77945 499.48125 61.117575 499.26375 
L 61.117575 497.52375 
Q 61.751325 497.840625 62.373825 498.001875 
Q 62.9982 498.163125 63.60195 498.163125 
Q 64.4982 498.163125 64.976325 497.85375 
Q 65.45445 497.5425 65.45445 496.96125 
Q 65.45445 496.363125 64.965075 496.055625 
Q 64.4757 495.748125 63.51945 495.748125 
L 62.617575 495.748125 
L 62.617575 494.295 
L 63.566325 494.295 
Q 64.417575 494.295 64.83195 494.02875 
Q 65.2482 493.7625 65.2482 493.216875 
Q 65.2482 492.714375 64.8432 492.43875 
Q 64.440075 492.163125 63.701325 492.163125 
Q 63.157575 492.163125 62.6007 492.286875 
Q 62.043825 492.40875 61.492575 492.64875 
L 61.492575 490.996875 
Q 62.160075 490.809375 62.816325 490.715625 
Q 63.472575 490.621875 64.106325 490.621875 
Q 65.8107 490.621875 66.656325 491.1825 
Q 67.503825 491.74125 67.503825 492.86625 
Q 67.503825 493.633125 67.098825 494.1225 
Q 66.6957 494.611875 65.90445 494.810625 
z
M 74.184684 495.144375 
Q 74.184684 493.50375 73.877184 492.834375 
Q 73.569684 492.163125 72.842184 492.163125 
Q 72.116559 492.163125 71.805309 492.834375 
Q 71.494059 493.50375 71.494059 495.144375 
Q 71.494059 496.80375 71.805309 497.484375 
Q 72.116559 498.163125 72.842184 498.163125 
Q 73.564059 498.163125 73.873434 497.484375 
Q 74.184684 496.80375 74.184684 495.144375 
z
M 76.440309 495.163125 
Q 76.440309 497.33625 75.502809 498.5175 
Q 74.565309 499.69875 72.842184 499.69875 
Q 71.113434 499.69875 70.175934 498.5175 
Q 69.238434 497.33625 69.238434 495.163125 
Q 69.238434 492.9825 70.175934 491.803125 
Q 71.113434 490.621875 72.842184 490.621875 
Q 74.565309 490.621875 75.502809 491.803125 
Q 76.440309 492.9825 76.440309 495.163125 
z
M 78.238669 497.26125 
L 80.348044 497.26125 
L 80.348044 499.528125 
L 78.238669 499.528125 
L 78.238669 497.26125 
z
M 85.750387 495.613125 
Q 85.118512 495.613125 84.777262 495.96 
Q 84.437887 496.305 84.437887 496.95 
Q 84.437887 497.595 84.777262 497.938125 
Q 85.118512 498.279375 85.750387 498.279375 
Q 86.378512 498.279375 86.712262 497.938125 
Q 87.046012 497.595 87.046012 496.95 
Q 87.046012 496.299375 86.712262 495.95625 
Q 86.378512 495.613125 85.750387 495.613125 
z
M 84.104137 494.870625 
Q 83.307262 494.62875 82.902262 494.131875 
Q 82.499137 493.633125 82.499137 492.88875 
Q 82.499137 491.7825 83.324137 491.203125 
Q 84.151012 490.621875 85.750387 490.621875 
Q 87.338512 490.621875 88.163512 491.199375 
Q 88.990387 491.776875 88.990387 492.88875 
Q 88.990387 493.633125 88.583512 494.131875 
Q 88.176637 494.62875 87.379762 494.870625 
Q 88.270387 495.11625 88.724137 495.669375 
Q 89.177887 496.2225 89.177887 497.06625 
Q 89.177887 498.3675 88.313512 499.033125 
Q 87.449137 499.69875 85.750387 499.69875 
Q 84.046012 499.69875 83.176012 499.033125 
Q 82.306012 498.3675 82.306012 497.06625 
Q 82.306012 496.2225 82.759762 495.669375 
Q 83.213512 495.11625 84.104137 494.870625 
z
M 84.631012 493.1175 
Q 84.631012 493.63875 84.921637 493.92 
Q 85.212262 494.20125 85.750387 494.20125 
Q 86.277262 494.20125 86.564137 493.92 
Q 86.852887 493.63875 86.852887 493.1175 
Q 86.852887 492.59625 86.564137 492.31875 
Q 86.277262 492.039375 85.750387 492.039375 
Q 85.212262 492.039375 84.921637 492.320625 
Q 84.631012 492.601875 84.631012 493.1175 
z
" style="stroke: #ffffff"/>
    <path d="M 55.985231 495.22125 
L 59.663981 495.22125 
L 59.663981 496.925625 
L 55.985231 496.925625 
L 55.985231 495.22125 
z
M 65.90445 494.810625 
Q 66.78945 495.039375 67.248825 495.605625 
Q 67.710075 496.17 67.710075 497.04375 
Q 67.710075 498.345 66.712575 499.021875 
Q 65.71695 499.69875 63.8082 499.69875 
Q 63.1332 499.69875 62.456325 499.59 
Q 61.77945 499.48125 61.117575 499.26375 
L 61.117575 497.52375 
Q 61.751325 497.840625 62.373825 498.001875 
Q 62.9982 498.163125 63.60195 498.163125 
Q 64.4982 498.163125 64.976325 497.85375 
Q 65.45445 497.5425 65.45445 496.96125 
Q 65.45445 496.363125 64.965075 496.055625 
Q 64.4757 495.748125 63.51945 495.748125 
L 62.617575 495.748125 
L 62.617575 494.295 
L 63.566325 494.295 
Q 64.417575 494.295 64.83195 494.02875 
Q 65.2482 493.7625 65.2482 493.216875 
Q 65.2482 492.714375 64.8432 492.43875 
Q 64.440075 492.163125 63.701325 492.163125 
Q 63.157575 492.163125 62.6007 492.286875 
Q 62.043825 492.40875 61.492575 492.64875 
L 61.492575 490.996875 
Q 62.160075 490.809375 62.816325 490.715625 
Q 63.472575 490.621875 64.106325 490.621875 
Q 65.8107 490.621875 66.656325 491.1825 
Q 67.503825 491.74125 67.503825 492.86625 
Q 67.503825 493.633125 67.098825 494.1225 
Q 66.6957 494.611875 65.90445 494.810625 
z
M 74.184684 495.144375 
Q 74.184684 493.50375 73.877184 492.834375 
Q 73.569684 492.163125 72.842184 492.163125 
Q 72.116559 492.163125 71.805309 492.834375 
Q 71.494059 493.50375 71.494059 495.144375 
Q 71.494059 496.80375 71.805309 497.484375 
Q 72.116559 498.163125 72.842184 498.163125 
Q 73.564059 498.163125 73.873434 497.484375 
Q 74.184684 496.80375 74.184684 495.144375 
z
M 76.440309 495.163125 
Q 76.440309 497.33625 75.502809 498.5175 
Q 74.565309 499.69875 72.842184 499.69875 
Q 71.113434 499.69875 70.175934 498.5175 
Q 69.238434 497.33625 69.238434 495.163125 
Q 69.238434 492.9825 70.175934 491.803125 
Q 71.113434 490.621875 72.842184 490.621875 
Q 74.565309 490.621875 75.502809 491.803125 
Q 76.440309 492.9825 76.440309 495.163125 
z
M 78.238669 497.26125 
L 80.348044 497.26125 
L 80.348044 499.528125 
L 78.238669 499.528125 
L 78.238669 497.26125 
z
M 85.750387 495.613125 
Q 85.118512 495.613125 84.777262 495.96 
Q 84.437887 496.305 84.437887 496.95 
Q 84.437887 497.595 84.777262 497.938125 
Q 85.118512 498.279375 85.750387 498.279375 
Q 86.378512 498.279375 86.712262 497.938125 
Q 87.046012 497.595 87.046012 496.95 
Q 87.046012 496.299375 86.712262 495.95625 
Q 86.378512 495.613125 85.750387 495.613125 
z
M 84.104137 494.870625 
Q 83.307262 494.62875 82.902262 494.131875 
Q 82.499137 493.633125 82.499137 492.88875 
Q 82.499137 491.7825 83.324137 491.203125 
Q 84.151012 490.621875 85.750387 490.621875 
Q 87.338512 490.621875 88.163512 491.199375 
Q 88.990387 491.776875 88.990387 492.88875 
Q 88.990387 493.633125 88.583512 494.131875 
Q 88.176637 494.62875 87.379762 494.870625 
Q 88.270387 495.11625 88.724137 495.669375 
Q 89.177887 496.2225 89.177887 497.06625 
Q 89.177887 498.3675 88.313512 499.033125 
Q 87.449137 499.69875 85.750387 499.69875 
Q 84.046012 499.69875 83.176012 499.033125 
Q 82.306012 498.3675 82.306012 497.06625 
Q 82.306012 496.2225 82.759762 495.669375 
Q 83.213512 495.11625 84.104137 494.870625 
z
M 84.631012 493.1175 
Q 84.631012 493.63875 84.921637 493.92 
Q 85.212262 494.20125 85.750387 494.20125 
Q 86.277262 494.20125 86.564137 493.92 
Q 86.852887 493.63875 86.852887 493.1175 
Q 86.852887 492.59625 86.564137 492.31875 
Q 86.277262 492.039375 85.750387 492.039375 
Q 85.212262 492.039375 84.921637 492.320625 
Q 84.631012 492.601875 84.631012 493.1175 
z
"/>
   </g>
   <g id="text_3">
    <path d="M 55.985231 470.512159 
L 59.663981 470.512159 
L 59.663981 472.216534 
L 55.985231 472.216534 
L 55.985231 470.512159 
z
M 64.732575 467.928409 
L 62.261325 471.590284 
L 64.732575 471.590284 
L 64.732575 467.928409 
z
M 64.357575 466.070284 
L 66.866325 466.070284 
L 66.866325 471.590284 
L 68.1132 471.590284 
L 68.1132 473.225284 
L 66.866325 473.225284 
L 66.866325 474.819034 
L 64.732575 474.819034 
L 64.732575 473.225284 
L 60.855075 473.225284 
L 60.855075 471.292159 
L 64.357575 466.070284 
z
M 69.889059 472.552159 
L 71.998434 472.552159 
L 71.998434 474.819034 
L 69.889059 474.819034 
L 69.889059 472.552159 
z
M 74.629528 473.260909 
L 76.622653 473.260909 
L 76.622653 467.605909 
L 74.577028 468.027784 
L 74.577028 466.492159 
L 76.609528 466.070284 
L 78.754528 466.070284 
L 78.754528 473.260909 
L 80.747653 473.260909 
L 80.747653 474.819034 
L 74.629528 474.819034 
L 74.629528 473.260909 
z
M 82.774762 474.625909 
L 82.774762 473.007784 
Q 83.312887 473.260909 83.804137 473.386534 
Q 84.297262 473.512159 84.777262 473.512159 
Q 85.786012 473.512159 86.348512 472.953409 
Q 86.911012 472.392784 87.010387 471.292159 
Q 86.612887 471.584659 86.161012 471.730909 
Q 85.709137 471.877159 85.182262 471.877159 
Q 83.839762 471.877159 83.016637 471.095284 
Q 82.193512 470.313409 82.193512 469.036534 
Q 82.193512 467.622784 83.110387 466.773409 
Q 84.027262 465.924034 85.568512 465.924034 
Q 87.280387 465.924034 88.217887 467.079034 
Q 89.155387 468.232159 89.155387 470.341534 
Q 89.155387 472.510909 88.058512 473.750284 
Q 86.963512 474.989659 85.052887 474.989659 
Q 84.437887 474.989659 83.875387 474.897784 
Q 83.312887 474.807784 82.774762 474.625909 
z
M 85.557262 470.412784 
Q 86.149762 470.412784 86.447887 470.030284 
Q 86.746012 469.645909 86.746012 468.877159 
Q 86.746012 468.115909 86.447887 467.729659 
Q 86.149762 467.341534 85.557262 467.341534 
Q 84.964762 467.341534 84.666637 467.729659 
Q 84.368512 468.115909 84.368512 468.877159 
Q 84.368512 469.645909 84.666637 470.030284 
Q 84.964762 470.412784 85.557262 470.412784 
z
" style="stroke: #ffffff"/>
    <path d="M 55.985231 470.512159 
L 59.663981 470.512159 
L 59.663981 472.216534 
L 55.985231 472.216534 
L 55.985231 470.512159 
z
M 64.732575 467.928409 
L 62.261325 471.590284 
L 64.732575 471.590284 
L 64.732575 467.928409 
z
M 64.357575 466.070284 
L 66.866325 466.070284 
L 66.866325 471.590284 
L 68.1132 471.590284 
L 68.1132 473.225284 
L 66.866325 473.225284 
L 66.866325 474.819034 
L 64.732575 474.819034 
L 64.732575 473.225284 
L 60.855075 473.225284 
L 60.855075 471.292159 
L 64.357575 466.070284 
z
M 69.889059 472.552159 
L 71.998434 472.552159 
L 71.998434 474.819034 
L 69.889059 474.819034 
L 69.889059 472.552159 
z
M 74.629528 473.260909 
L 76.622653 473.260909 
L 76.622653 467.605909 
L 74.577028 468.027784 
L 74.577028 466.492159 
L 76.609528 466.070284 
L 78.754528 466.070284 
L 78.754528 473.260909 
L 80.747653 473.260909 
L 80.747653 474.819034 
L 74.629528 474.819034 
L 74.629528 473.260909 
z
M 82.774762 474.625909 
L 82.774762 473.007784 
Q 83.312887 473.260909 83.804137 473.386534 
Q 84.297262 473.512159 84.777262 473.512159 
Q 85.786012 473.512159 86.348512 472.953409 
Q 86.911012 472.392784 87.010387 471.292159 
Q 86.612887 471.584659 86.161012 471.730909 
Q 85.709137 471.877159 85.182262 471.877159 
Q 83.839762 471.877159 83.016637 471.095284 
Q 82.193512 470.313409 82.193512 469.036534 
Q 82.193512 467.622784 83.110387 466.773409 
Q 84.027262 465.924034 85.568512 465.924034 
Q 87.280387 465.924034 88.217887 467.079034 
Q 89.155387 468.232159 89.155387 470.341534 
Q 89.155387 472.510909 88.058512 473.750284 
Q 86.963512 474.989659 85.052887 474.989659 
Q 84.437887 474.989659 83.875387 474.897784 
Q 83.312887 474.807784 82.774762 474.625909 
z
M 85.557262 470.412784 
Q 86.149762 470.412784 86.447887 470.030284 
Q 86.746012 469.645909 86.746012 468.877159 
Q 86.746012 468.115909 86.447887 467.729659 
Q 86.149762 467.341534 85.557262 467.341534 
Q 84.964762 467.341534 84.666637 467.729659 
Q 84.368512 468.115909 84.368512 468.877159 
Q 84.368512 469.645909 84.666637 470.030284 
Q 84.964762 470.412784 85.557262 470.412784 
z
"/>
   </g>
   <g id="text_4">
    <path d="M 55.985231 445.803068 
L 59.663981 445.803068 
L 59.663981 447.507443 
L 55.985231 447.507443 
L 55.985231 445.803068 
z
M 63.772575 448.452443 
L 67.62195 448.452443 
L 67.62195 450.109943 
L 61.263825 450.109943 
L 61.263825 448.452443 
L 64.45695 445.632443 
Q 64.886325 445.246193 65.0907 444.876818 
Q 65.295075 444.507443 65.295075 444.109943 
Q 65.295075 443.494943 64.882575 443.119943 
Q 64.470075 442.744943 63.783825 442.744943 
Q 63.25695 442.744943 62.628825 442.969943 
Q 62.002575 443.194943 61.2882 443.641193 
L 61.2882 441.719318 
Q 62.04945 441.468068 62.793825 441.336818 
Q 63.5382 441.203693 64.252575 441.203693 
Q 65.823825 441.203693 66.693825 441.895568 
Q 67.563825 442.585568 67.563825 443.823068 
Q 67.563825 444.537443 67.19445 445.156193 
Q 66.825075 445.773068 65.64195 446.811818 
L 63.772575 448.452443 
z
M 69.889059 447.843068 
L 71.998434 447.843068 
L 71.998434 450.109943 
L 69.889059 450.109943 
L 69.889059 447.843068 
z
M 77.565778 445.791818 
Q 76.973278 445.791818 76.677028 446.176193 
Q 76.380778 446.558693 76.380778 447.327443 
Q 76.380778 448.094318 76.677028 448.478693 
Q 76.973278 448.861193 77.565778 448.861193 
Q 78.162028 448.861193 78.458278 448.478693 
Q 78.754528 448.094318 78.754528 447.327443 
Q 78.754528 446.558693 78.458278 446.176193 
Q 78.162028 445.791818 77.565778 445.791818 
z
M 80.353903 441.589943 
L 80.353903 443.208068 
Q 79.797028 442.943693 79.303903 442.818068 
Q 78.812653 442.692443 78.343903 442.692443 
Q 77.337028 442.692443 76.774528 443.253068 
Q 76.212028 443.811818 76.118278 444.912443 
Q 76.504528 444.625568 76.954528 444.483068 
Q 77.406403 444.338693 77.940778 444.338693 
Q 79.281403 444.338693 80.104528 445.124318 
Q 80.927653 445.908068 80.927653 447.179318 
Q 80.927653 448.585568 80.007028 449.433068 
Q 79.088278 450.280568 77.541403 450.280568 
Q 75.837028 450.280568 74.901403 449.129318 
Q 73.967653 447.976193 73.967653 445.861193 
Q 73.967653 443.693693 75.060778 442.454318 
Q 76.153903 441.214943 78.057028 441.214943 
Q 78.660778 441.214943 79.228903 441.308693 
Q 79.797028 441.402443 80.353903 441.589943 
z
M 85.915387 445.791818 
Q 85.322887 445.791818 85.026637 446.176193 
Q 84.730387 446.558693 84.730387 447.327443 
Q 84.730387 448.094318 85.026637 448.478693 
Q 85.322887 448.861193 85.915387 448.861193 
Q 86.511637 448.861193 86.807887 448.478693 
Q 87.104137 448.094318 87.104137 447.327443 
Q 87.104137 446.558693 86.807887 446.176193 
Q 86.511637 445.791818 85.915387 445.791818 
z
M 88.703512 441.589943 
L 88.703512 443.208068 
Q 88.146637 442.943693 87.653512 442.818068 
Q 87.162262 442.692443 86.693512 442.692443 
Q 85.686637 442.692443 85.124137 443.253068 
Q 84.561637 443.811818 84.467887 444.912443 
Q 84.854137 444.625568 85.304137 444.483068 
Q 85.756012 444.338693 86.290387 444.338693 
Q 87.631012 444.338693 88.454137 445.124318 
Q 89.277262 445.908068 89.277262 447.179318 
Q 89.277262 448.585568 88.356637 449.433068 
Q 87.437887 450.280568 85.891012 450.280568 
Q 84.186637 450.280568 83.251012 449.129318 
Q 82.317262 447.976193 82.317262 445.861193 
Q 82.317262 443.693693 83.410387 442.454318 
Q 84.503512 441.214943 86.406637 441.214943 
Q 87.010387 441.214943 87.578512 441.308693 
Q 88.146637 441.402443 88.703512 441.589943 
z
" style="stroke: #ffffff"/>
    <path d="M 55.985231 445.803068 
L 59.663981 445.803068 
L 59.663981 447.507443 
L 55.985231 447.507443 
L 55.985231 445.803068 
z
M 63.772575 448.452443 
L 67.62195 448.452443 
L 67.62195 450.109943 
L 61.263825 450.109943 
L 61.263825 448.452443 
L 64.45695 445.632443 
Q 64.886325 445.246193 65.0907 444.876818 
Q 65.295075 444.507443 65.295075 444.109943 
Q 65.295075 443.494943 64.882575 443.119943 
Q 64.470075 442.744943 63.783825 442.744943 
Q 63.25695 442.744943 62.628825 442.969943 
Q 62.002575 443.194943 61.2882 443.641193 
L 61.2882 441.719318 
Q 62.04945 441.468068 62.793825 441.336818 
Q 63.5382 441.203693 64.252575 441.203693 
Q 65.823825 441.203693 66.693825 441.895568 
Q 67.563825 442.585568 67.563825 443.823068 
Q 67.563825 444.537443 67.19445 445.156193 
Q 66.825075 445.773068 65.64195 446.811818 
L 63.772575 448.452443 
z
M 69.889059 447.843068 
L 71.998434 447.843068 
L 71.998434 450.109943 
L 69.889059 450.109943 
L 69.889059 447.843068 
z
M 77.565778 445.791818 
Q 76.973278 445.791818 76.677028 446.176193 
Q 76.380778 446.558693 76.380778 447.327443 
Q 76.380778 448.094318 76.677028 448.478693 
Q 76.973278 448.861193 77.565778 448.861193 
Q 78.162028 448.861193 78.458278 448.478693 
Q 78.754528 448.094318 78.754528 447.327443 
Q 78.754528 446.558693 78.458278 446.176193 
Q 78.162028 445.791818 77.565778 445.791818 
z
M 80.353903 441.589943 
L 80.353903 443.208068 
Q 79.797028 442.943693 79.303903 442.818068 
Q 78.812653 442.692443 78.343903 442.692443 
Q 77.337028 442.692443 76.774528 443.253068 
Q 76.212028 443.811818 76.118278 444.912443 
Q 76.504528 444.625568 76.954528 444.483068 
Q 77.406403 444.338693 77.940778 444.338693 
Q 79.281403 444.338693 80.104528 445.124318 
Q 80.927653 445.908068 80.927653 447.179318 
Q 80.927653 448.585568 80.007028 449.433068 
Q 79.088278 450.280568 77.541403 450.280568 
Q 75.837028 450.280568 74.901403 449.129318 
Q 73.967653 447.976193 73.967653 445.861193 
Q 73.967653 443.693693 75.060778 442.454318 
Q 76.153903 441.214943 78.057028 441.214943 
Q 78.660778 441.214943 79.228903 441.308693 
Q 79.797028 441.402443 80.353903 441.589943 
z
M 85.915387 445.791818 
Q 85.322887 445.791818 85.026637 446.176193 
Q 84.730387 446.558693 84.730387 447.327443 
Q 84.730387 448.094318 85.026637 448.478693 
Q 85.322887 448.861193 85.915387 448.861193 
Q 86.511637 448.861193 86.807887 448.478693 
Q 87.104137 448.094318 87.104137 447.327443 
Q 87.104137 446.558693 86.807887 446.176193 
Q 86.511637 445.791818 85.915387 445.791818 
z
M 88.703512 441.589943 
L 88.703512 443.208068 
Q 88.146637 442.943693 87.653512 442.818068 
Q 87.162262 442.692443 86.693512 442.692443 
Q 85.686637 442.692443 85.124137 443.253068 
Q 84.561637 443.811818 84.467887 444.912443 
Q 84.854137 444.625568 85.304137 444.483068 
Q 85.756012 444.338693 86.290387 444.338693 
Q 87.631012 444.338693 88.454137 445.124318 
Q 89.277262 445.908068 89.277262 447.179318 
Q 89.277262 448.585568 88.356637 449.433068 
Q 87.437887 450.280568 85.891012 450.280568 
Q 84.186637 450.280568 83.251012 449.129318 
Q 82.317262 447.976193 82.317262 445.861193 
Q 82.317262 443.693693 83.410387 442.454318 
Q 84.503512 441.214943 86.406637 441.214943 
Q 87.010387 441.214943 87.578512 441.308693 
Q 88.146637 441.402443 88.703512 441.589943 
z
"/>
   </g>
   <g id="text_5">
    <path d="M 55.985231 421.093977 
L 59.663981 421.093977 
L 59.663981 422.798352 
L 55.985231 422.798352 
L 55.985231 421.093977 
z
M 61.721325 423.842727 
L 63.71445 423.842727 
L 63.71445 418.187727 
L 61.668825 418.609602 
L 61.668825 417.073977 
L 63.701325 416.652102 
L 65.846325 416.652102 
L 65.846325 423.842727 
L 67.83945 423.842727 
L 67.83945 425.400852 
L 61.721325 425.400852 
L 61.721325 423.842727 
z
M 69.889059 423.133977 
L 71.998434 423.133977 
L 71.998434 425.400852 
L 69.889059 425.400852 
L 69.889059 423.133977 
z
M 77.640778 418.510227 
L 75.169528 422.172102 
L 77.640778 422.172102 
L 77.640778 418.510227 
z
M 77.265778 416.652102 
L 79.774528 416.652102 
L 79.774528 422.172102 
L 81.021403 422.172102 
L 81.021403 423.807102 
L 79.774528 423.807102 
L 79.774528 425.400852 
L 77.640778 425.400852 
L 77.640778 423.807102 
L 73.763278 423.807102 
L 73.763278 421.873977 
L 77.265778 416.652102 
z
M 82.844137 416.652102 
L 88.452262 416.652102 
L 88.452262 418.311477 
L 84.644137 418.311477 
L 84.644137 419.665227 
Q 84.901012 419.593977 85.161637 419.556477 
Q 85.422262 419.517102 85.703512 419.517102 
Q 87.302887 419.517102 88.193512 420.317727 
Q 89.084137 421.118352 89.084137 422.547102 
Q 89.084137 423.964602 88.114762 424.768977 
Q 87.145387 425.571477 85.422262 425.571477 
Q 84.677887 425.571477 83.948512 425.427102 
Q 83.219137 425.282727 82.499137 424.990227 
L 82.499137 423.214602 
Q 83.213512 423.625227 83.854762 423.831477 
Q 84.496012 424.035852 85.066012 424.035852 
Q 85.885387 424.035852 86.356012 423.634602 
Q 86.828512 423.233352 86.828512 422.547102 
Q 86.828512 421.855227 86.356012 421.457727 
Q 85.885387 421.058352 85.066012 421.058352 
Q 84.578512 421.058352 84.027262 421.185852 
Q 83.477887 421.311477 82.844137 421.573977 
L 82.844137 416.652102 
z
" style="stroke: #ffffff"/>
    <path d="M 55.985231 421.093977 
L 59.663981 421.093977 
L 59.663981 422.798352 
L 55.985231 422.798352 
L 55.985231 421.093977 
z
M 61.721325 423.842727 
L 63.71445 423.842727 
L 63.71445 418.187727 
L 61.668825 418.609602 
L 61.668825 417.073977 
L 63.701325 416.652102 
L 65.846325 416.652102 
L 65.846325 423.842727 
L 67.83945 423.842727 
L 67.83945 425.400852 
L 61.721325 425.400852 
L 61.721325 423.842727 
z
M 69.889059 423.133977 
L 71.998434 423.133977 
L 71.998434 425.400852 
L 69.889059 425.400852 
L 69.889059 423.133977 
z
M 77.640778 418.510227 
L 75.169528 422.172102 
L 77.640778 422.172102 
L 77.640778 418.510227 
z
M 77.265778 416.652102 
L 79.774528 416.652102 
L 79.774528 422.172102 
L 81.021403 422.172102 
L 81.021403 423.807102 
L 79.774528 423.807102 
L 79.774528 425.400852 
L 77.640778 425.400852 
L 77.640778 423.807102 
L 73.763278 423.807102 
L 73.763278 421.873977 
L 77.265778 416.652102 
z
M 82.844137 416.652102 
L 88.452262 416.652102 
L 88.452262 418.311477 
L 84.644137 418.311477 
L 84.644137 419.665227 
Q 84.901012 419.593977 85.161637 419.556477 
Q 85.422262 419.517102 85.703512 419.517102 
Q 87.302887 419.517102 88.193512 420.317727 
Q 89.084137 421.118352 89.084137 422.547102 
Q 89.084137 423.964602 88.114762 424.768977 
Q 87.145387 425.571477 85.422262 425.571477 
Q 84.677887 425.571477 83.948512 425.427102 
Q 83.219137 425.282727 82.499137 424.990227 
L 82.499137 423.214602 
Q 83.213512 423.625227 83.854762 423.831477 
Q 84.496012 424.035852 85.066012 424.035852 
Q 85.885387 424.035852 86.356012 423.634602 
Q 86.828512 423.233352 86.828512 422.547102 
Q 86.828512 421.855227 86.356012 421.457727 
Q 85.885387 421.058352 85.066012 421.058352 
Q 84.578512 421.058352 84.027262 421.185852 
Q 83.477887 421.311477 82.844137 421.573977 
L 82.844137 416.652102 
z
"/>
   </g>
   <g id="text_6">
    <path d="M 55.985231 396.384886 
L 59.663981 396.384886 
L 59.663981 398.089261 
L 55.985231 398.089261 
L 55.985231 396.384886 
z
M 65.835075 396.308011 
Q 65.835075 394.667386 65.527575 393.998011 
Q 65.220075 393.326761 64.492575 393.326761 
Q 63.76695 393.326761 63.4557 393.998011 
Q 63.14445 394.667386 63.14445 396.308011 
Q 63.14445 397.967386 63.4557 398.648011 
Q 63.76695 399.326761 64.492575 399.326761 
Q 65.21445 399.326761 65.523825 398.648011 
Q 65.835075 397.967386 65.835075 396.308011 
z
M 68.0907 396.326761 
Q 68.0907 398.499886 67.1532 399.681136 
Q 66.2157 400.862386 64.492575 400.862386 
Q 62.763825 400.862386 61.826325 399.681136 
Q 60.888825 398.499886 60.888825 396.326761 
Q 60.888825 394.146136 61.826325 392.966761 
Q 62.763825 391.785511 64.492575 391.785511 
Q 66.2157 391.785511 67.1532 392.966761 
Q 68.0907 394.146136 68.0907 396.326761 
z
M 69.889059 398.424886 
L 71.998434 398.424886 
L 71.998434 400.691761 
L 69.889059 400.691761 
L 69.889059 398.424886 
z
M 77.640778 393.801136 
L 75.169528 397.463011 
L 77.640778 397.463011 
L 77.640778 393.801136 
z
M 77.265778 391.943011 
L 79.774528 391.943011 
L 79.774528 397.463011 
L 81.021403 397.463011 
L 81.021403 399.098011 
L 79.774528 399.098011 
L 79.774528 400.691761 
L 77.640778 400.691761 
L 77.640778 399.098011 
L 73.763278 399.098011 
L 73.763278 397.164886 
L 77.265778 391.943011 
z
M 85.030387 399.034261 
L 88.879762 399.034261 
L 88.879762 400.691761 
L 82.521637 400.691761 
L 82.521637 399.034261 
L 85.714762 396.214261 
Q 86.144137 395.828011 86.348512 395.458636 
Q 86.552887 395.089261 86.552887 394.691761 
Q 86.552887 394.076761 86.140387 393.701761 
Q 85.727887 393.326761 85.041637 393.326761 
Q 84.514762 393.326761 83.886637 393.551761 
Q 83.260387 393.776761 82.546012 394.223011 
L 82.546012 392.301136 
Q 83.307262 392.049886 84.051637 391.918636 
Q 84.796012 391.785511 85.510387 391.785511 
Q 87.081637 391.785511 87.951637 392.477386 
Q 88.821637 393.167386 88.821637 394.404886 
Q 88.821637 395.119261 88.452262 395.738011 
Q 88.082887 396.354886 86.899762 397.393636 
L 85.030387 399.034261 
z
" style="stroke: #ffffff"/>
    <path d="M 55.985231 396.384886 
L 59.663981 396.384886 
L 59.663981 398.089261 
L 55.985231 398.089261 
L 55.985231 396.384886 
z
M 65.835075 396.308011 
Q 65.835075 394.667386 65.527575 393.998011 
Q 65.220075 393.326761 64.492575 393.326761 
Q 63.76695 393.326761 63.4557 393.998011 
Q 63.14445 394.667386 63.14445 396.308011 
Q 63.14445 397.967386 63.4557 398.648011 
Q 63.76695 399.326761 64.492575 399.326761 
Q 65.21445 399.326761 65.523825 398.648011 
Q 65.835075 397.967386 65.835075 396.308011 
z
M 68.0907 396.326761 
Q 68.0907 398.499886 67.1532 399.681136 
Q 66.2157 400.862386 64.492575 400.862386 
Q 62.763825 400.862386 61.826325 399.681136 
Q 60.888825 398.499886 60.888825 396.326761 
Q 60.888825 394.146136 61.826325 392.966761 
Q 62.763825 391.785511 64.492575 391.785511 
Q 66.2157 391.785511 67.1532 392.966761 
Q 68.0907 394.146136 68.0907 396.326761 
z
M 69.889059 398.424886 
L 71.998434 398.424886 
L 71.998434 400.691761 
L 69.889059 400.691761 
L 69.889059 398.424886 
z
M 77.640778 393.801136 
L 75.169528 397.463011 
L 77.640778 397.463011 
L 77.640778 393.801136 
z
M 77.265778 391.943011 
L 79.774528 391.943011 
L 79.774528 397.463011 
L 81.021403 397.463011 
L 81.021403 399.098011 
L 79.774528 399.098011 
L 79.774528 400.691761 
L 77.640778 400.691761 
L 77.640778 399.098011 
L 73.763278 399.098011 
L 73.763278 397.164886 
L 77.265778 391.943011 
z
M 85.030387 399.034261 
L 88.879762 399.034261 
L 88.879762 400.691761 
L 82.521637 400.691761 
L 82.521637 399.034261 
L 85.714762 396.214261 
Q 86.144137 395.828011 86.348512 395.458636 
Q 86.552887 395.089261 86.552887 394.691761 
Q 86.552887 394.076761 86.140387 393.701761 
Q 85.727887 393.326761 85.041637 393.326761 
Q 84.514762 393.326761 83.886637 393.551761 
Q 83.260387 393.776761 82.546012 394.223011 
L 82.546012 392.301136 
Q 83.307262 392.049886 84.051637 391.918636 
Q 84.796012 391.785511 85.510387 391.785511 
Q 87.081637 391.785511 87.951637 392.477386 
Q 88.821637 393.167386 88.821637 394.404886 
Q 88.821637 395.119261 88.452262 395.738011 
Q 88.082887 396.354886 86.899762 397.393636 
L 85.030387 399.034261 
z
"/>
   </g>
   <g id="text_7">
    <path d="M 63.344606 371.59892 
Q 63.344606 369.958295 63.037106 369.28892 
Q 62.729606 368.61767 62.002106 368.61767 
Q 61.276481 368.61767 60.965231 369.28892 
Q 60.653981 369.958295 60.653981 371.59892 
Q 60.653981 373.258295 60.965231 373.93892 
Q 61.276481 374.61767 62.002106 374.61767 
Q 62.723981 374.61767 63.033356 373.93892 
Q 63.344606 373.258295 63.344606 371.59892 
z
M 65.600231 371.61767 
Q 65.600231 373.790795 64.662731 374.972045 
Q 63.725231 376.153295 62.002106 376.153295 
Q 60.273356 376.153295 59.335856 374.972045 
Q 58.398356 373.790795 58.398356 371.61767 
Q 58.398356 369.437045 59.335856 368.25767 
Q 60.273356 367.07642 62.002106 367.07642 
Q 63.725231 367.07642 64.662731 368.25767 
Q 65.600231 369.437045 65.600231 371.61767 
z
M 67.39859 373.715795 
L 69.507965 373.715795 
L 69.507965 375.98267 
L 67.39859 375.98267 
L 67.39859 373.715795 
z
M 71.934684 375.789545 
L 71.934684 374.17142 
Q 72.472809 374.424545 72.964059 374.55017 
Q 73.457184 374.675795 73.937184 374.675795 
Q 74.945934 374.675795 75.508434 374.117045 
Q 76.070934 373.55642 76.170309 372.455795 
Q 75.772809 372.748295 75.320934 372.894545 
Q 74.869059 373.040795 74.342184 373.040795 
Q 72.999684 373.040795 72.176559 372.25892 
Q 71.353434 371.477045 71.353434 370.20017 
Q 71.353434 368.78642 72.270309 367.937045 
Q 73.187184 367.08767 74.728434 367.08767 
Q 76.440309 367.08767 77.377809 368.24267 
Q 78.315309 369.395795 78.315309 371.50517 
Q 78.315309 373.674545 77.218434 374.91392 
Q 76.123434 376.153295 74.212809 376.153295 
Q 73.597809 376.153295 73.035309 376.06142 
Q 72.472809 375.97142 71.934684 375.789545 
z
M 74.717184 371.57642 
Q 75.309684 371.57642 75.607809 371.19392 
Q 75.905934 370.809545 75.905934 370.040795 
Q 75.905934 369.279545 75.607809 368.893295 
Q 75.309684 368.50517 74.717184 368.50517 
Q 74.124684 368.50517 73.826559 368.893295 
Q 73.528434 369.279545 73.528434 370.040795 
Q 73.528434 370.809545 73.826559 371.19392 
Q 74.124684 371.57642 74.717184 371.57642 
z
M 80.488669 374.424545 
L 82.481794 374.424545 
L 82.481794 368.769545 
L 80.436169 369.19142 
L 80.436169 367.655795 
L 82.468669 367.23392 
L 84.613669 367.23392 
L 84.613669 374.424545 
L 86.606794 374.424545 
L 86.606794 375.98267 
L 80.488669 375.98267 
L 80.488669 374.424545 
z
" style="stroke: #ffffff"/>
    <path d="M 63.344606 371.59892 
Q 63.344606 369.958295 63.037106 369.28892 
Q 62.729606 368.61767 62.002106 368.61767 
Q 61.276481 368.61767 60.965231 369.28892 
Q 60.653981 369.958295 60.653981 371.59892 
Q 60.653981 373.258295 60.965231 373.93892 
Q 61.276481 374.61767 62.002106 374.61767 
Q 62.723981 374.61767 63.033356 373.93892 
Q 63.344606 373.258295 63.344606 371.59892 
z
M 65.600231 371.61767 
Q 65.600231 373.790795 64.662731 374.972045 
Q 63.725231 376.153295 62.002106 376.153295 
Q 60.273356 376.153295 59.335856 374.972045 
Q 58.398356 373.790795 58.398356 371.61767 
Q 58.398356 369.437045 59.335856 368.25767 
Q 60.273356 367.07642 62.002106 367.07642 
Q 63.725231 367.07642 64.662731 368.25767 
Q 65.600231 369.437045 65.600231 371.61767 
z
M 67.39859 373.715795 
L 69.507965 373.715795 
L 69.507965 375.98267 
L 67.39859 375.98267 
L 67.39859 373.715795 
z
M 71.934684 375.789545 
L 71.934684 374.17142 
Q 72.472809 374.424545 72.964059 374.55017 
Q 73.457184 374.675795 73.937184 374.675795 
Q 74.945934 374.675795 75.508434 374.117045 
Q 76.070934 373.55642 76.170309 372.455795 
Q 75.772809 372.748295 75.320934 372.894545 
Q 74.869059 373.040795 74.342184 373.040795 
Q 72.999684 373.040795 72.176559 372.25892 
Q 71.353434 371.477045 71.353434 370.20017 
Q 71.353434 368.78642 72.270309 367.937045 
Q 73.187184 367.08767 74.728434 367.08767 
Q 76.440309 367.08767 77.377809 368.24267 
Q 78.315309 369.395795 78.315309 371.50517 
Q 78.315309 373.674545 77.218434 374.91392 
Q 76.123434 376.153295 74.212809 376.153295 
Q 73.597809 376.153295 73.035309 376.06142 
Q 72.472809 375.97142 71.934684 375.789545 
z
M 74.717184 371.57642 
Q 75.309684 371.57642 75.607809 371.19392 
Q 75.905934 370.809545 75.905934 370.040795 
Q 75.905934 369.279545 75.607809 368.893295 
Q 75.309684 368.50517 74.717184 368.50517 
Q 74.124684 368.50517 73.826559 368.893295 
Q 73.528434 369.279545 73.528434 370.040795 
Q 73.528434 370.809545 73.826559 371.19392 
Q 74.124684 371.57642 74.717184 371.57642 
z
M 80.488669 374.424545 
L 82.481794 374.424545 
L 82.481794 368.769545 
L 80.436169 369.19142 
L 80.436169 367.655795 
L 82.468669 367.23392 
L 84.613669 367.23392 
L 84.613669 374.424545 
L 86.606794 374.424545 
L 86.606794 375.98267 
L 80.488669 375.98267 
L 80.488669 374.424545 
z
"/>
   </g>
   <g id="text_8">
    <path d="M 65.456794 349.61608 
L 69.306169 349.61608 
L 69.306169 351.27358 
L 62.948044 351.27358 
L 62.948044 349.61608 
L 66.141169 346.79608 
Q 66.570544 346.40983 66.774919 346.040455 
Q 66.979294 345.67108 66.979294 345.27358 
Q 66.979294 344.65858 66.566794 344.28358 
Q 66.154294 343.90858 65.468044 343.90858 
Q 64.941169 343.90858 64.313044 344.13358 
Q 63.686794 344.35858 62.972419 344.80483 
L 62.972419 342.882955 
Q 63.733669 342.631705 64.478044 342.500455 
Q 65.222419 342.36733 65.936794 342.36733 
Q 67.508044 342.36733 68.378044 343.059205 
Q 69.248044 343.749205 69.248044 344.986705 
Q 69.248044 345.70108 68.878669 346.31983 
Q 68.509294 346.936705 67.326169 347.975455 
L 65.456794 349.61608 
z
M 71.573278 349.006705 
L 73.682653 349.006705 
L 73.682653 351.27358 
L 71.573278 351.27358 
L 71.573278 349.006705 
z
M 75.709997 342.52483 
L 82.302497 342.52483 
L 82.302497 343.79608 
L 78.891872 351.27358 
L 76.694372 351.27358 
L 79.923122 344.184205 
L 75.709997 344.184205 
L 75.709997 342.52483 
z
" style="stroke: #ffffff"/>
    <path d="M 65.456794 349.61608 
L 69.306169 349.61608 
L 69.306169 351.27358 
L 62.948044 351.27358 
L 62.948044 349.61608 
L 66.141169 346.79608 
Q 66.570544 346.40983 66.774919 346.040455 
Q 66.979294 345.67108 66.979294 345.27358 
Q 66.979294 344.65858 66.566794 344.28358 
Q 66.154294 343.90858 65.468044 343.90858 
Q 64.941169 343.90858 64.313044 344.13358 
Q 63.686794 344.35858 62.972419 344.80483 
L 62.972419 342.882955 
Q 63.733669 342.631705 64.478044 342.500455 
Q 65.222419 342.36733 65.936794 342.36733 
Q 67.508044 342.36733 68.378044 343.059205 
Q 69.248044 343.749205 69.248044 344.986705 
Q 69.248044 345.70108 68.878669 346.31983 
Q 68.509294 346.936705 67.326169 347.975455 
L 65.456794 349.61608 
z
M 71.573278 349.006705 
L 73.682653 349.006705 
L 73.682653 351.27358 
L 71.573278 351.27358 
L 71.573278 349.006705 
z
M 75.709997 342.52483 
L 82.302497 342.52483 
L 82.302497 343.79608 
L 78.891872 351.27358 
L 76.694372 351.27358 
L 79.923122 344.184205 
L 75.709997 344.184205 
L 75.709997 342.52483 
z
"/>
   </g>
   <g id="text_9">
    <path d="M 59.095856 317.815739 
L 64.703981 317.815739 
L 64.703981 319.475114 
L 60.895856 319.475114 
L 60.895856 320.828864 
Q 61.152731 320.757614 61.413356 320.720114 
Q 61.673981 320.680739 61.955231 320.680739 
Q 63.554606 320.680739 64.445231 321.481364 
Q 65.335856 322.281989 65.335856 323.710739 
Q 65.335856 325.128239 64.366481 325.932614 
Q 63.397106 326.735114 61.673981 326.735114 
Q 60.929606 326.735114 60.200231 326.590739 
Q 59.470856 326.446364 58.750856 326.153864 
L 58.750856 324.378239 
Q 59.465231 324.788864 60.106481 324.995114 
Q 60.747731 325.199489 61.317731 325.199489 
Q 62.137106 325.199489 62.607731 324.798239 
Q 63.080231 324.396989 63.080231 323.710739 
Q 63.080231 323.018864 62.607731 322.621364 
Q 62.137106 322.221989 61.317731 322.221989 
Q 60.830231 322.221989 60.278981 322.349489 
Q 59.729606 322.475114 59.095856 322.737614 
L 59.095856 317.815739 
z
M 67.39859 324.297614 
L 69.507965 324.297614 
L 69.507965 326.564489 
L 67.39859 326.564489 
L 67.39859 324.297614 
z
M 75.075309 322.246364 
Q 74.482809 322.246364 74.186559 322.630739 
Q 73.890309 323.013239 73.890309 323.781989 
Q 73.890309 324.548864 74.186559 324.933239 
Q 74.482809 325.315739 75.075309 325.315739 
Q 75.671559 325.315739 75.967809 324.933239 
Q 76.264059 324.548864 76.264059 323.781989 
Q 76.264059 323.013239 75.967809 322.630739 
Q 75.671559 322.246364 75.075309 322.246364 
z
M 77.863434 318.044489 
L 77.863434 319.662614 
Q 77.306559 319.398239 76.813434 319.272614 
Q 76.322184 319.146989 75.853434 319.146989 
Q 74.846559 319.146989 74.284059 319.707614 
Q 73.721559 320.266364 73.627809 321.366989 
Q 74.014059 321.080114 74.464059 320.937614 
Q 74.915934 320.793239 75.450309 320.793239 
Q 76.790934 320.793239 77.614059 321.578864 
Q 78.437184 322.362614 78.437184 323.633864 
Q 78.437184 325.040114 77.516559 325.887614 
Q 76.597809 326.735114 75.050934 326.735114 
Q 73.346559 326.735114 72.410934 325.583864 
Q 71.477184 324.430739 71.477184 322.315739 
Q 71.477184 320.148239 72.570309 318.908864 
Q 73.663434 317.669489 75.566559 317.669489 
Q 76.170309 317.669489 76.738434 317.763239 
Q 77.306559 317.856989 77.863434 318.044489 
z
M 80.353669 317.815739 
L 85.961794 317.815739 
L 85.961794 319.475114 
L 82.153669 319.475114 
L 82.153669 320.828864 
Q 82.410544 320.757614 82.671169 320.720114 
Q 82.931794 320.680739 83.213044 320.680739 
Q 84.812419 320.680739 85.703044 321.481364 
Q 86.593669 322.281989 86.593669 323.710739 
Q 86.593669 325.128239 85.624294 325.932614 
Q 84.654919 326.735114 82.931794 326.735114 
Q 82.187419 326.735114 81.458044 326.590739 
Q 80.728669 326.446364 80.008669 326.153864 
L 80.008669 324.378239 
Q 80.723044 324.788864 81.364294 324.995114 
Q 82.005544 325.199489 82.575544 325.199489 
Q 83.394919 325.199489 83.865544 324.798239 
Q 84.338044 324.396989 84.338044 323.710739 
Q 84.338044 323.018864 83.865544 322.621364 
Q 83.394919 322.221989 82.575544 322.221989 
Q 82.088044 322.221989 81.536794 322.349489 
Q 80.987419 322.475114 80.353669 322.737614 
L 80.353669 317.815739 
z
" style="stroke: #ffffff"/>
    <path d="M 59.095856 317.815739 
L 64.703981 317.815739 
L 64.703981 319.475114 
L 60.895856 319.475114 
L 60.895856 320.828864 
Q 61.152731 320.757614 61.413356 320.720114 
Q 61.673981 320.680739 61.955231 320.680739 
Q 63.554606 320.680739 64.445231 321.481364 
Q 65.335856 322.281989 65.335856 323.710739 
Q 65.335856 325.128239 64.366481 325.932614 
Q 63.397106 326.735114 61.673981 326.735114 
Q 60.929606 326.735114 60.200231 326.590739 
Q 59.470856 326.446364 58.750856 326.153864 
L 58.750856 324.378239 
Q 59.465231 324.788864 60.106481 324.995114 
Q 60.747731 325.199489 61.317731 325.199489 
Q 62.137106 325.199489 62.607731 324.798239 
Q 63.080231 324.396989 63.080231 323.710739 
Q 63.080231 323.018864 62.607731 322.621364 
Q 62.137106 322.221989 61.317731 322.221989 
Q 60.830231 322.221989 60.278981 322.349489 
Q 59.729606 322.475114 59.095856 322.737614 
L 59.095856 317.815739 
z
M 67.39859 324.297614 
L 69.507965 324.297614 
L 69.507965 326.564489 
L 67.39859 326.564489 
L 67.39859 324.297614 
z
M 75.075309 322.246364 
Q 74.482809 322.246364 74.186559 322.630739 
Q 73.890309 323.013239 73.890309 323.781989 
Q 73.890309 324.548864 74.186559 324.933239 
Q 74.482809 325.315739 75.075309 325.315739 
Q 75.671559 325.315739 75.967809 324.933239 
Q 76.264059 324.548864 76.264059 323.781989 
Q 76.264059 323.013239 75.967809 322.630739 
Q 75.671559 322.246364 75.075309 322.246364 
z
M 77.863434 318.044489 
L 77.863434 319.662614 
Q 77.306559 319.398239 76.813434 319.272614 
Q 76.322184 319.146989 75.853434 319.146989 
Q 74.846559 319.146989 74.284059 319.707614 
Q 73.721559 320.266364 73.627809 321.366989 
Q 74.014059 321.080114 74.464059 320.937614 
Q 74.915934 320.793239 75.450309 320.793239 
Q 76.790934 320.793239 77.614059 321.578864 
Q 78.437184 322.362614 78.437184 323.633864 
Q 78.437184 325.040114 77.516559 325.887614 
Q 76.597809 326.735114 75.050934 326.735114 
Q 73.346559 326.735114 72.410934 325.583864 
Q 71.477184 324.430739 71.477184 322.315739 
Q 71.477184 320.148239 72.570309 318.908864 
Q 73.663434 317.669489 75.566559 317.669489 
Q 76.170309 317.669489 76.738434 317.763239 
Q 77.306559 317.856989 77.863434 318.044489 
z
M 80.353669 317.815739 
L 85.961794 317.815739 
L 85.961794 319.475114 
L 82.153669 319.475114 
L 82.153669 320.828864 
Q 82.410544 320.757614 82.671169 320.720114 
Q 82.931794 320.680739 83.213044 320.680739 
Q 84.812419 320.680739 85.703044 321.481364 
Q 86.593669 322.281989 86.593669 323.710739 
Q 86.593669 325.128239 85.624294 325.932614 
Q 84.654919 326.735114 82.931794 326.735114 
Q 82.187419 326.735114 81.458044 326.590739 
Q 80.728669 326.446364 80.008669 326.153864 
L 80.008669 324.378239 
Q 80.723044 324.788864 81.364294 324.995114 
Q 82.005544 325.199489 82.575544 325.199489 
Q 83.394919 325.199489 83.865544 324.798239 
Q 84.338044 324.396989 84.338044 323.710739 
Q 84.338044 323.018864 83.865544 322.621364 
Q 83.394919 322.221989 82.575544 322.221989 
Q 82.088044 322.221989 81.536794 322.349489 
Q 80.987419 322.475114 80.353669 322.737614 
L 80.353669 317.815739 
z
"/>
   </g>
   <g id="text_10">
    <path d="M 53.892731 294.964773 
L 51.421481 298.626648 
L 53.892731 298.626648 
L 53.892731 294.964773 
z
M 53.517731 293.106648 
L 56.026481 293.106648 
L 56.026481 298.626648 
L 57.273356 298.626648 
L 57.273356 300.261648 
L 56.026481 300.261648 
L 56.026481 301.855398 
L 53.892731 301.855398 
L 53.892731 300.261648 
L 50.015231 300.261648 
L 50.015231 298.328523 
L 53.517731 293.106648 
z
M 59.23109 300.297273 
L 61.224215 300.297273 
L 61.224215 294.642273 
L 59.17859 295.064148 
L 59.17859 293.528523 
L 61.21109 293.106648 
L 63.35609 293.106648 
L 63.35609 300.297273 
L 65.349215 300.297273 
L 65.349215 301.855398 
L 59.23109 301.855398 
L 59.23109 300.297273 
z
M 69.63195 300.197898 
L 73.481325 300.197898 
L 73.481325 301.855398 
L 67.1232 301.855398 
L 67.1232 300.197898 
L 70.316325 297.377898 
Q 70.7457 296.991648 70.950075 296.622273 
Q 71.15445 296.252898 71.15445 295.855398 
Q 71.15445 295.240398 70.74195 294.865398 
Q 70.32945 294.490398 69.6432 294.490398 
Q 69.116325 294.490398 68.4882 294.715398 
Q 67.86195 294.940398 67.147575 295.386648 
L 67.147575 293.464773 
Q 67.908825 293.213523 68.6532 293.082273 
Q 69.397575 292.949148 70.11195 292.949148 
Q 71.6832 292.949148 72.5532 293.641023 
Q 73.4232 294.331023 73.4232 295.568523 
Q 73.4232 296.282898 73.053825 296.901648 
Q 72.68445 297.518523 71.501325 298.557273 
L 69.63195 300.197898 
z
M 75.748434 299.588523 
L 77.857809 299.588523 
L 77.857809 301.855398 
L 75.748434 301.855398 
L 75.748434 299.588523 
z
M 80.284528 301.662273 
L 80.284528 300.044148 
Q 80.822653 300.297273 81.313903 300.422898 
Q 81.807028 300.548523 82.287028 300.548523 
Q 83.295778 300.548523 83.858278 299.989773 
Q 84.420778 299.429148 84.520153 298.328523 
Q 84.122653 298.621023 83.670778 298.767273 
Q 83.218903 298.913523 82.692028 298.913523 
Q 81.349528 298.913523 80.526403 298.131648 
Q 79.703278 297.349773 79.703278 296.072898 
Q 79.703278 294.659148 80.620153 293.809773 
Q 81.537028 292.960398 83.078278 292.960398 
Q 84.790153 292.960398 85.727653 294.115398 
Q 86.665153 295.268523 86.665153 297.377898 
Q 86.665153 299.547273 85.568278 300.786648 
Q 84.473278 302.026023 82.562653 302.026023 
Q 81.947653 302.026023 81.385153 301.934148 
Q 80.822653 301.844148 80.284528 301.662273 
z
M 83.067028 297.449148 
Q 83.659528 297.449148 83.957653 297.066648 
Q 84.255778 296.682273 84.255778 295.913523 
Q 84.255778 295.152273 83.957653 294.766023 
Q 83.659528 294.377898 83.067028 294.377898 
Q 82.474528 294.377898 82.176403 294.766023 
Q 81.878278 295.152273 81.878278 295.913523 
Q 81.878278 296.682273 82.176403 297.066648 
Q 82.474528 297.449148 83.067028 297.449148 
z
M 91.849762 294.964773 
L 89.378512 298.626648 
L 91.849762 298.626648 
L 91.849762 294.964773 
z
M 91.474762 293.106648 
L 93.983512 293.106648 
L 93.983512 298.626648 
L 95.230387 298.626648 
L 95.230387 300.261648 
L 93.983512 300.261648 
L 93.983512 301.855398 
L 91.849762 301.855398 
L 91.849762 300.261648 
L 87.972262 300.261648 
L 87.972262 298.328523 
L 91.474762 293.106648 
z
" style="stroke: #ffffff"/>
    <path d="M 53.892731 294.964773 
L 51.421481 298.626648 
L 53.892731 298.626648 
L 53.892731 294.964773 
z
M 53.517731 293.106648 
L 56.026481 293.106648 
L 56.026481 298.626648 
L 57.273356 298.626648 
L 57.273356 300.261648 
L 56.026481 300.261648 
L 56.026481 301.855398 
L 53.892731 301.855398 
L 53.892731 300.261648 
L 50.015231 300.261648 
L 50.015231 298.328523 
L 53.517731 293.106648 
z
M 59.23109 300.297273 
L 61.224215 300.297273 
L 61.224215 294.642273 
L 59.17859 295.064148 
L 59.17859 293.528523 
L 61.21109 293.106648 
L 63.35609 293.106648 
L 63.35609 300.297273 
L 65.349215 300.297273 
L 65.349215 301.855398 
L 59.23109 301.855398 
L 59.23109 300.297273 
z
M 69.63195 300.197898 
L 73.481325 300.197898 
L 73.481325 301.855398 
L 67.1232 301.855398 
L 67.1232 300.197898 
L 70.316325 297.377898 
Q 70.7457 296.991648 70.950075 296.622273 
Q 71.15445 296.252898 71.15445 295.855398 
Q 71.15445 295.240398 70.74195 294.865398 
Q 70.32945 294.490398 69.6432 294.490398 
Q 69.116325 294.490398 68.4882 294.715398 
Q 67.86195 294.940398 67.147575 295.386648 
L 67.147575 293.464773 
Q 67.908825 293.213523 68.6532 293.082273 
Q 69.397575 292.949148 70.11195 292.949148 
Q 71.6832 292.949148 72.5532 293.641023 
Q 73.4232 294.331023 73.4232 295.568523 
Q 73.4232 296.282898 73.053825 296.901648 
Q 72.68445 297.518523 71.501325 298.557273 
L 69.63195 300.197898 
z
M 75.748434 299.588523 
L 77.857809 299.588523 
L 77.857809 301.855398 
L 75.748434 301.855398 
L 75.748434 299.588523 
z
M 80.284528 301.662273 
L 80.284528 300.044148 
Q 80.822653 300.297273 81.313903 300.422898 
Q 81.807028 300.548523 82.287028 300.548523 
Q 83.295778 300.548523 83.858278 299.989773 
Q 84.420778 299.429148 84.520153 298.328523 
Q 84.122653 298.621023 83.670778 298.767273 
Q 83.218903 298.913523 82.692028 298.913523 
Q 81.349528 298.913523 80.526403 298.131648 
Q 79.703278 297.349773 79.703278 296.072898 
Q 79.703278 294.659148 80.620153 293.809773 
Q 81.537028 292.960398 83.078278 292.960398 
Q 84.790153 292.960398 85.727653 294.115398 
Q 86.665153 295.268523 86.665153 297.377898 
Q 86.665153 299.547273 85.568278 300.786648 
Q 84.473278 302.026023 82.562653 302.026023 
Q 81.947653 302.026023 81.385153 301.934148 
Q 80.822653 301.844148 80.284528 301.662273 
z
M 83.067028 297.449148 
Q 83.659528 297.449148 83.957653 297.066648 
Q 84.255778 296.682273 84.255778 295.913523 
Q 84.255778 295.152273 83.957653 294.766023 
Q 83.659528 294.377898 83.067028 294.377898 
Q 82.474528 294.377898 82.176403 294.766023 
Q 81.878278 295.152273 81.878278 295.913523 
Q 81.878278 296.682273 82.176403 297.066648 
Q 82.474528 297.449148 83.067028 297.449148 
z
M 91.849762 294.964773 
L 89.378512 298.626648 
L 91.849762 298.626648 
L 91.849762 294.964773 
z
M 91.474762 293.106648 
L 93.983512 293.106648 
L 93.983512 298.626648 
L 95.230387 298.626648 
L 95.230387 300.261648 
L 93.983512 300.261648 
L 93.983512 301.855398 
L 91.849762 301.855398 
L 91.849762 300.261648 
L 87.972262 300.261648 
L 87.972262 298.328523 
L 91.474762 293.106648 
z
"/>
   </g>
  </g>
  <g id="axes_6">
   <g id="patch_15">
    <path d="M 104.982353 504 
L 129.6 504 
L 129.6 286.56 
L 104.982353 286.56 
L 104.982353 504 
z
" style="fill: none"/>
   </g>
  </g>
 </g>
 <defs>
  <clipPath id="p49e9244535">
   <rect x="49.182353" y="286.56" width="49.235294" height="217.44"/>
  </clipPath>
 </defs>
</svg>
