<?xml version="1.0" encoding="utf-8" standalone="no"?>
<!DOCTYPE svg PUBLIC "-//W3C//DTD SVG 1.1//EN"
  "http://www.w3.org/Graphics/SVG/1.1/DTD/svg11.dtd">
<svg xmlns:xlink="http://www.w3.org/1999/xlink" width="144pt" height="576pt" viewBox="0 0 144 576" xmlns="http://www.w3.org/2000/svg" version="1.1">
 <metadata>
  <rdf:RDF xmlns:dc="http://purl.org/dc/elements/1.1/" xmlns:cc="http://creativecommons.org/ns#" xmlns:rdf="http://www.w3.org/1999/02/22-rdf-syntax-ns#">
   <cc:Work>
    <dc:type rdf:resource="http://purl.org/dc/dcmitype/StillImage"/>
    <dc:date>2023-08-03T01:10:31.129443</dc:date>
    <dc:format>image/svg+xml</dc:format>
    <dc:creator>
     <cc:Agent>
      <dc:title>Matplotlib v3.5.1, https://matplotlib.org/</dc:title>
     </cc:Agent>
    </dc:creator>
   </cc:Work>
  </rdf:RDF>
 </metadata>
 <defs>
  <style type="text/css">*{stroke-linejoin: round; stroke-linecap: butt}</style>
 </defs>
 <g id="figure_1">
  <g id="patch_1">
   <path d="M 0 576 
L 144 576 
L 144 0 
L 0 0 
L 0 576 
z
" style="fill: none"/>
  </g>
  <g id="axes_1">
   <g id="patch_2">
    <path d="M 18 290.88 
L 42.617647 290.88 
L 42.617647 69.12 
L 18 69.12 
L 18 290.88 
z
" style="fill: none"/>
   </g>
  </g>
  <g id="axes_2">
   <g id="patch_3">
    <path d="M 49.182353 290.88 
L 98.417647 290.88 
L 98.417647 69.12 
L 49.182353 69.12 
L 49.182353 290.88 
z
" style="fill: none"/>
   </g>
   <g id="text_1">
    <path d="M 21.0525 253.927125 
L 19.445625 258.280875 
L 22.663125 258.280875 
L 21.0525 253.927125 
z
M 20.383125 252.760875 
L 21.725625 252.760875 
L 25.059375 261.509625 
L 23.829375 261.509625 
L 23.0325 259.26525 
L 19.089375 259.26525 
L 18.2925 261.509625 
L 17.04375 261.509625 
L 20.383125 252.760875 
z
M 32.677734 253.435875 
L 32.677734 254.68275 
Q 32.079609 254.125875 31.402734 253.852125 
Q 30.725859 253.5765 29.964609 253.5765 
Q 28.464609 253.5765 27.667734 254.493375 
Q 26.870859 255.41025 26.870859 257.144625 
Q 26.870859 258.873375 27.667734 259.79025 
Q 28.464609 260.707125 29.964609 260.707125 
Q 30.725859 260.707125 31.402734 260.4315 
Q 32.079609 260.155875 32.677734 259.599 
L 32.677734 260.8365 
Q 32.057109 261.258375 31.361484 261.47025 
Q 30.667734 261.68025 29.895234 261.68025 
Q 27.907734 261.68025 26.763984 260.46525 
Q 25.622109 259.248375 25.622109 257.144625 
Q 25.622109 255.03525 26.763984 253.82025 
Q 27.907734 252.603375 29.895234 252.603375 
Q 30.678984 252.603375 31.372734 252.8115 
Q 32.068359 253.019625 32.677734 253.435875 
z
M 39.749766 253.04775 
L 39.749766 254.20275 
Q 39.076641 253.88025 38.478516 253.72275 
Q 37.880391 253.563375 37.323516 253.563375 
Q 36.357891 253.563375 35.832891 253.938375 
Q 35.307891 254.313375 35.307891 255.00525 
Q 35.307891 255.5865 35.656641 255.88275 
Q 36.005391 256.177125 36.978516 256.359 
L 37.692891 256.50525 
Q 39.016641 256.758375 39.646641 257.394 
Q 40.276641 258.029625 40.276641 259.094625 
Q 40.276641 260.36775 39.423516 261.024 
Q 38.572266 261.68025 36.926016 261.68025 
Q 36.305391 261.68025 35.604141 261.539625 
Q 34.904766 261.399 34.154766 261.123375 
L 34.154766 259.904625 
Q 34.874766 260.30775 35.566641 260.514 
Q 36.258516 260.718375 36.926016 260.718375 
Q 37.938516 260.718375 38.489766 260.320875 
Q 39.041016 259.9215 39.041016 259.18275 
Q 39.041016 258.539625 38.645391 258.175875 
Q 38.249766 257.812125 37.347891 257.63025 
L 36.626016 257.489625 
Q 35.302266 257.227125 34.709766 256.664625 
Q 34.119141 256.102125 34.119141 255.099 
Q 34.119141 253.938375 34.936641 253.270875 
Q 35.754141 252.603375 37.188516 252.603375 
Q 37.805391 252.603375 38.442891 252.715875 
Q 39.082266 252.8265 39.749766 253.04775 
z
M 42.240703 252.760875 
L 46.886953 252.760875 
L 46.886953 253.758375 
L 43.324453 253.758375 
L 43.324453 255.9015 
Q 43.581328 255.813375 43.838203 255.77025 
Q 44.096953 255.727125 44.355703 255.727125 
Q 45.820078 255.727125 46.675078 256.529625 
Q 47.531953 257.332125 47.531953 258.70275 
Q 47.531953 260.114625 46.652578 260.898375 
Q 45.773203 261.68025 44.173828 261.68025 
Q 43.622578 261.68025 43.050703 261.5865 
Q 42.480703 261.49275 41.871328 261.30525 
L 41.871328 260.114625 
Q 42.398203 260.4015 42.960703 260.542125 
Q 43.523203 260.68275 44.149453 260.68275 
Q 45.163828 260.68275 45.754453 260.15025 
Q 46.346953 259.61775 46.346953 258.70275 
Q 46.346953 257.789625 45.754453 257.257125 
Q 45.163828 256.72275 44.149453 256.72275 
Q 43.675078 256.72275 43.202578 256.82775 
Q 42.731953 256.93275 42.240703 257.155875 
L 42.240703 252.760875 
z
M 54.754922 253.734 
L 54.754922 257.020875 
L 56.243672 257.020875 
Q 57.070547 257.020875 57.520547 256.593375 
Q 57.972422 256.165875 57.972422 255.374625 
Q 57.972422 254.589 57.520547 254.1615 
Q 57.070547 253.734 56.243672 253.734 
L 54.754922 253.734 
z
M 53.571797 252.760875 
L 56.243672 252.760875 
Q 57.715547 252.760875 58.467422 253.4265 
Q 59.221172 254.092125 59.221172 255.374625 
Q 59.221172 256.67025 58.467422 257.332125 
Q 57.715547 257.994 56.243672 257.994 
L 54.754922 257.994 
L 54.754922 261.509625 
L 53.571797 261.509625 
L 53.571797 252.760875 
z
M 62.86875 255.70275 
Q 62.0025 255.70275 61.498125 256.379625 
Q 60.99375 257.0565 60.99375 258.234 
Q 60.99375 259.4115 61.494375 260.088375 
Q 61.996875 260.76525 62.86875 260.76525 
Q 63.73125 260.76525 64.23375 260.0865 
Q 64.738125 259.405875 64.738125 258.234 
Q 64.738125 257.06775 64.23375 256.38525 
Q 63.73125 255.70275 62.86875 255.70275 
z
M 62.86875 254.789625 
Q 64.275 254.789625 65.0775 255.704625 
Q 65.881875 256.61775 65.881875 258.234 
Q 65.881875 259.844625 65.0775 260.763375 
Q 64.275 261.68025 62.86875 261.68025 
Q 61.456875 261.68025 60.65625 260.763375 
Q 59.8575 259.844625 59.8575 258.234 
Q 59.8575 256.61775 60.65625 255.704625 
Q 61.456875 254.789625 62.86875 254.789625 
z
M 68.710547 260.52525 
L 68.710547 264.00525 
L 67.626797 264.00525 
L 67.626797 254.947125 
L 68.710547 254.947125 
L 68.710547 255.94275 
Q 69.051797 255.35775 69.569297 255.074625 
Q 70.088672 254.789625 70.808672 254.789625 
Q 72.004922 254.789625 72.751172 255.738375 
Q 73.499297 256.687125 73.499297 258.234 
Q 73.499297 259.780875 72.751172 260.7315 
Q 72.004922 261.68025 70.808672 261.68025 
Q 70.088672 261.68025 69.569297 261.39525 
Q 69.051797 261.11025 68.710547 260.52525 
z
M 72.379922 258.234 
Q 72.379922 257.04525 71.890547 256.368375 
Q 71.401172 255.6915 70.546172 255.6915 
Q 69.689297 255.6915 69.199922 256.368375 
Q 68.710547 257.04525 68.710547 258.234 
Q 68.710547 259.42275 69.199922 260.099625 
Q 69.689297 260.7765 70.546172 260.7765 
Q 71.401172 260.7765 71.890547 260.099625 
Q 72.379922 259.42275 72.379922 258.234 
z
M 75.174609 258.92025 
L 75.174609 254.947125 
L 76.252734 254.947125 
L 76.252734 258.879 
Q 76.252734 259.810875 76.614609 260.27775 
Q 76.978359 260.74275 77.705859 260.74275 
Q 78.577734 260.74275 79.083984 260.185875 
Q 79.592109 259.629 79.592109 258.667125 
L 79.592109 254.947125 
L 80.670234 254.947125 
L 80.670234 261.509625 
L 79.592109 261.509625 
L 79.592109 260.500875 
Q 79.200234 261.099 78.680859 261.389625 
Q 78.163359 261.68025 77.477109 261.68025 
Q 76.346484 261.68025 75.759609 260.977125 
Q 75.174609 260.274 75.174609 258.92025 
z
M 77.887734 254.789625 
L 77.887734 254.789625 
z
M 82.890703 252.3915 
L 83.968828 252.3915 
L 83.968828 261.509625 
L 82.890703 261.509625 
L 82.890703 252.3915 
z
M 89.207813 258.2115 
Q 87.900937 258.2115 87.396563 258.509625 
Q 86.892188 258.80775 86.892188 259.529625 
Q 86.892188 260.103375 87.270938 260.440875 
Q 87.649687 260.7765 88.298438 260.7765 
Q 89.196562 260.7765 89.738438 260.140875 
Q 90.280313 259.50525 90.280313 258.4515 
L 90.280313 258.2115 
L 89.207813 258.2115 
z
M 91.358438 257.76525 
L 91.358438 261.509625 
L 90.280313 261.509625 
L 90.280313 260.514 
Q 89.910938 261.11025 89.359688 261.39525 
Q 88.808437 261.68025 88.011562 261.68025 
Q 87.004688 261.68025 86.408438 261.114 
Q 85.814063 260.54775 85.814063 259.599 
Q 85.814063 258.49275 86.554688 257.93025 
Q 87.297188 257.36775 88.767188 257.36775 
L 90.280313 257.36775 
L 90.280313 257.260875 
Q 90.280313 256.5165 89.790938 256.109625 
Q 89.301563 255.70275 88.416562 255.70275 
Q 87.854062 255.70275 87.319688 255.83775 
Q 86.787188 255.97275 86.295938 256.24275 
L 86.295938 255.24525 
Q 86.886562 255.0165 87.443438 254.904 
Q 88.000313 254.789625 88.527187 254.789625 
Q 89.952188 254.789625 90.655313 255.528375 
Q 91.358438 256.26525 91.358438 257.76525 
z
M 94.645078 253.083375 
L 94.645078 254.947125 
L 96.865078 254.947125 
L 96.865078 255.78525 
L 94.645078 255.78525 
L 94.645078 259.34775 
Q 94.645078 260.15025 94.864453 260.379 
Q 95.083828 260.60775 95.758828 260.60775 
L 96.865078 260.60775 
L 96.865078 261.509625 
L 95.758828 261.509625 
Q 94.510078 261.509625 94.035703 261.044625 
Q 93.561328 260.57775 93.561328 259.34775 
L 93.561328 255.78525 
L 92.770078 255.78525 
L 92.770078 254.947125 
L 93.561328 254.947125 
L 93.561328 253.083375 
L 94.645078 253.083375 
z
M 98.283281 254.947125 
L 99.361406 254.947125 
L 99.361406 261.509625 
L 98.283281 261.509625 
L 98.283281 254.947125 
z
M 98.283281 252.3915 
L 99.361406 252.3915 
L 99.361406 253.758375 
L 98.283281 253.758375 
L 98.283281 252.3915 
z
M 104.159766 255.70275 
Q 103.293516 255.70275 102.789141 256.379625 
Q 102.284766 257.0565 102.284766 258.234 
Q 102.284766 259.4115 102.785391 260.088375 
Q 103.287891 260.76525 104.159766 260.76525 
Q 105.022266 260.76525 105.524766 260.0865 
Q 106.029141 259.405875 106.029141 258.234 
Q 106.029141 257.06775 105.524766 256.38525 
Q 105.022266 255.70275 104.159766 255.70275 
z
M 104.159766 254.789625 
Q 105.566016 254.789625 106.368516 255.704625 
Q 107.172891 256.61775 107.172891 258.234 
Q 107.172891 259.844625 106.368516 260.763375 
Q 105.566016 261.68025 104.159766 261.68025 
Q 102.747891 261.68025 101.947266 260.763375 
Q 101.148516 259.844625 101.148516 258.234 
Q 101.148516 256.61775 101.947266 255.704625 
Q 102.747891 254.789625 104.159766 254.789625 
z
M 114.415312 257.54775 
L 114.415312 261.509625 
L 113.337187 261.509625 
L 113.337187 257.583375 
Q 113.337187 256.6515 112.973438 256.19025 
Q 112.609688 255.727125 111.884062 255.727125 
Q 111.010312 255.727125 110.505938 256.284 
Q 110.001563 256.839 110.001563 257.800875 
L 110.001563 261.509625 
L 108.917812 261.509625 
L 108.917812 254.947125 
L 110.001563 254.947125 
L 110.001563 255.967125 
Q 110.389688 255.374625 110.912813 255.082125 
Q 111.437813 254.789625 112.124063 254.789625 
Q 113.254688 254.789625 113.834063 255.489 
Q 114.415312 256.188375 114.415312 257.54775 
z
M 127.972734 257.66025 
Q 127.462734 257.66025 127.172109 258.093375 
Q 126.883359 258.5265 126.883359 259.300875 
Q 126.883359 260.062125 127.172109 260.499 
Q 127.462734 260.935875 127.972734 260.935875 
Q 128.471484 260.935875 128.760234 260.499 
Q 129.050859 260.062125 129.050859 259.300875 
Q 129.050859 258.532125 128.760234 258.097125 
Q 128.471484 257.66025 127.972734 257.66025 
z
M 127.972734 256.915875 
Q 128.898984 256.915875 129.442734 257.560875 
Q 129.988359 258.204 129.988359 259.300875 
Q 129.988359 260.395875 129.440859 261.039 
Q 128.893359 261.68025 127.972734 261.68025 
Q 127.035234 261.68025 126.489609 261.039 
Q 125.945859 260.395875 125.945859 259.300875 
Q 125.945859 258.198375 126.493359 257.557125 
Q 127.040859 256.915875 127.972734 256.915875 
z
M 121.925859 253.34775 
Q 121.421484 253.34775 121.130859 253.784625 
Q 120.842109 254.219625 120.842109 254.98275 
Q 120.842109 255.75525 121.128984 256.19025 
Q 121.415859 256.623375 121.925859 256.623375 
Q 122.435859 256.623375 122.724609 256.19025 
Q 123.015234 255.75525 123.015234 254.98275 
Q 123.015234 254.227125 122.722734 253.788375 
Q 122.430234 253.34775 121.925859 253.34775 
z
M 127.217109 252.603375 
L 128.154609 252.603375 
L 122.681484 261.68025 
L 121.743984 261.68025 
L 127.217109 252.603375 
z
M 121.925859 252.603375 
Q 122.852109 252.603375 123.401484 253.244625 
Q 123.952734 253.885875 123.952734 254.98275 
Q 123.952734 256.089 123.405234 256.728375 
Q 122.857734 257.36775 121.925859 257.36775 
Q 120.993984 257.36775 120.452109 256.7265 
Q 119.910234 256.083375 119.910234 254.98275 
Q 119.910234 253.8915 120.453984 253.248375 
Q 120.999609 252.603375 121.925859 252.603375 
z
" style="fill: #ffffff; stroke: #000000; stroke-width: 2"/>
    <path d="M 21.0525 253.927125 
L 19.445625 258.280875 
L 22.663125 258.280875 
L 21.0525 253.927125 
z
M 20.383125 252.760875 
L 21.725625 252.760875 
L 25.059375 261.509625 
L 23.829375 261.509625 
L 23.0325 259.26525 
L 19.089375 259.26525 
L 18.2925 261.509625 
L 17.04375 261.509625 
L 20.383125 252.760875 
z
M 32.677734 253.435875 
L 32.677734 254.68275 
Q 32.079609 254.125875 31.402734 253.852125 
Q 30.725859 253.5765 29.964609 253.5765 
Q 28.464609 253.5765 27.667734 254.493375 
Q 26.870859 255.41025 26.870859 257.144625 
Q 26.870859 258.873375 27.667734 259.79025 
Q 28.464609 260.707125 29.964609 260.707125 
Q 30.725859 260.707125 31.402734 260.4315 
Q 32.079609 260.155875 32.677734 259.599 
L 32.677734 260.8365 
Q 32.057109 261.258375 31.361484 261.47025 
Q 30.667734 261.68025 29.895234 261.68025 
Q 27.907734 261.68025 26.763984 260.46525 
Q 25.622109 259.248375 25.622109 257.144625 
Q 25.622109 255.03525 26.763984 253.82025 
Q 27.907734 252.603375 29.895234 252.603375 
Q 30.678984 252.603375 31.372734 252.8115 
Q 32.068359 253.019625 32.677734 253.435875 
z
M 39.749766 253.04775 
L 39.749766 254.20275 
Q 39.076641 253.88025 38.478516 253.72275 
Q 37.880391 253.563375 37.323516 253.563375 
Q 36.357891 253.563375 35.832891 253.938375 
Q 35.307891 254.313375 35.307891 255.00525 
Q 35.307891 255.5865 35.656641 255.88275 
Q 36.005391 256.177125 36.978516 256.359 
L 37.692891 256.50525 
Q 39.016641 256.758375 39.646641 257.394 
Q 40.276641 258.029625 40.276641 259.094625 
Q 40.276641 260.36775 39.423516 261.024 
Q 38.572266 261.68025 36.926016 261.68025 
Q 36.305391 261.68025 35.604141 261.539625 
Q 34.904766 261.399 34.154766 261.123375 
L 34.154766 259.904625 
Q 34.874766 260.30775 35.566641 260.514 
Q 36.258516 260.718375 36.926016 260.718375 
Q 37.938516 260.718375 38.489766 260.320875 
Q 39.041016 259.9215 39.041016 259.18275 
Q 39.041016 258.539625 38.645391 258.175875 
Q 38.249766 257.812125 37.347891 257.63025 
L 36.626016 257.489625 
Q 35.302266 257.227125 34.709766 256.664625 
Q 34.119141 256.102125 34.119141 255.099 
Q 34.119141 253.938375 34.936641 253.270875 
Q 35.754141 252.603375 37.188516 252.603375 
Q 37.805391 252.603375 38.442891 252.715875 
Q 39.082266 252.8265 39.749766 253.04775 
z
M 42.240703 252.760875 
L 46.886953 252.760875 
L 46.886953 253.758375 
L 43.324453 253.758375 
L 43.324453 255.9015 
Q 43.581328 255.813375 43.838203 255.77025 
Q 44.096953 255.727125 44.355703 255.727125 
Q 45.820078 255.727125 46.675078 256.529625 
Q 47.531953 257.332125 47.531953 258.70275 
Q 47.531953 260.114625 46.652578 260.898375 
Q 45.773203 261.68025 44.173828 261.68025 
Q 43.622578 261.68025 43.050703 261.5865 
Q 42.480703 261.49275 41.871328 261.30525 
L 41.871328 260.114625 
Q 42.398203 260.4015 42.960703 260.542125 
Q 43.523203 260.68275 44.149453 260.68275 
Q 45.163828 260.68275 45.754453 260.15025 
Q 46.346953 259.61775 46.346953 258.70275 
Q 46.346953 257.789625 45.754453 257.257125 
Q 45.163828 256.72275 44.149453 256.72275 
Q 43.675078 256.72275 43.202578 256.82775 
Q 42.731953 256.93275 42.240703 257.155875 
L 42.240703 252.760875 
z
M 54.754922 253.734 
L 54.754922 257.020875 
L 56.243672 257.020875 
Q 57.070547 257.020875 57.520547 256.593375 
Q 57.972422 256.165875 57.972422 255.374625 
Q 57.972422 254.589 57.520547 254.1615 
Q 57.070547 253.734 56.243672 253.734 
L 54.754922 253.734 
z
M 53.571797 252.760875 
L 56.243672 252.760875 
Q 57.715547 252.760875 58.467422 253.4265 
Q 59.221172 254.092125 59.221172 255.374625 
Q 59.221172 256.67025 58.467422 257.332125 
Q 57.715547 257.994 56.243672 257.994 
L 54.754922 257.994 
L 54.754922 261.509625 
L 53.571797 261.509625 
L 53.571797 252.760875 
z
M 62.86875 255.70275 
Q 62.0025 255.70275 61.498125 256.379625 
Q 60.99375 257.0565 60.99375 258.234 
Q 60.99375 259.4115 61.494375 260.088375 
Q 61.996875 260.76525 62.86875 260.76525 
Q 63.73125 260.76525 64.23375 260.0865 
Q 64.738125 259.405875 64.738125 258.234 
Q 64.738125 257.06775 64.23375 256.38525 
Q 63.73125 255.70275 62.86875 255.70275 
z
M 62.86875 254.789625 
Q 64.275 254.789625 65.0775 255.704625 
Q 65.881875 256.61775 65.881875 258.234 
Q 65.881875 259.844625 65.0775 260.763375 
Q 64.275 261.68025 62.86875 261.68025 
Q 61.456875 261.68025 60.65625 260.763375 
Q 59.8575 259.844625 59.8575 258.234 
Q 59.8575 256.61775 60.65625 255.704625 
Q 61.456875 254.789625 62.86875 254.789625 
z
M 68.710547 260.52525 
L 68.710547 264.00525 
L 67.626797 264.00525 
L 67.626797 254.947125 
L 68.710547 254.947125 
L 68.710547 255.94275 
Q 69.051797 255.35775 69.569297 255.074625 
Q 70.088672 254.789625 70.808672 254.789625 
Q 72.004922 254.789625 72.751172 255.738375 
Q 73.499297 256.687125 73.499297 258.234 
Q 73.499297 259.780875 72.751172 260.7315 
Q 72.004922 261.68025 70.808672 261.68025 
Q 70.088672 261.68025 69.569297 261.39525 
Q 69.051797 261.11025 68.710547 260.52525 
z
M 72.379922 258.234 
Q 72.379922 257.04525 71.890547 256.368375 
Q 71.401172 255.6915 70.546172 255.6915 
Q 69.689297 255.6915 69.199922 256.368375 
Q 68.710547 257.04525 68.710547 258.234 
Q 68.710547 259.42275 69.199922 260.099625 
Q 69.689297 260.7765 70.546172 260.7765 
Q 71.401172 260.7765 71.890547 260.099625 
Q 72.379922 259.42275 72.379922 258.234 
z
M 75.174609 258.92025 
L 75.174609 254.947125 
L 76.252734 254.947125 
L 76.252734 258.879 
Q 76.252734 259.810875 76.614609 260.27775 
Q 76.978359 260.74275 77.705859 260.74275 
Q 78.577734 260.74275 79.083984 260.185875 
Q 79.592109 259.629 79.592109 258.667125 
L 79.592109 254.947125 
L 80.670234 254.947125 
L 80.670234 261.509625 
L 79.592109 261.509625 
L 79.592109 260.500875 
Q 79.200234 261.099 78.680859 261.389625 
Q 78.163359 261.68025 77.477109 261.68025 
Q 76.346484 261.68025 75.759609 260.977125 
Q 75.174609 260.274 75.174609 258.92025 
z
M 77.887734 254.789625 
L 77.887734 254.789625 
z
M 82.890703 252.3915 
L 83.968828 252.3915 
L 83.968828 261.509625 
L 82.890703 261.509625 
L 82.890703 252.3915 
z
M 89.207813 258.2115 
Q 87.900937 258.2115 87.396563 258.509625 
Q 86.892188 258.80775 86.892188 259.529625 
Q 86.892188 260.103375 87.270938 260.440875 
Q 87.649687 260.7765 88.298438 260.7765 
Q 89.196562 260.7765 89.738438 260.140875 
Q 90.280313 259.50525 90.280313 258.4515 
L 90.280313 258.2115 
L 89.207813 258.2115 
z
M 91.358438 257.76525 
L 91.358438 261.509625 
L 90.280313 261.509625 
L 90.280313 260.514 
Q 89.910938 261.11025 89.359688 261.39525 
Q 88.808437 261.68025 88.011562 261.68025 
Q 87.004688 261.68025 86.408438 261.114 
Q 85.814063 260.54775 85.814063 259.599 
Q 85.814063 258.49275 86.554688 257.93025 
Q 87.297188 257.36775 88.767188 257.36775 
L 90.280313 257.36775 
L 90.280313 257.260875 
Q 90.280313 256.5165 89.790938 256.109625 
Q 89.301563 255.70275 88.416562 255.70275 
Q 87.854062 255.70275 87.319688 255.83775 
Q 86.787188 255.97275 86.295938 256.24275 
L 86.295938 255.24525 
Q 86.886562 255.0165 87.443438 254.904 
Q 88.000313 254.789625 88.527187 254.789625 
Q 89.952188 254.789625 90.655313 255.528375 
Q 91.358438 256.26525 91.358438 257.76525 
z
M 94.645078 253.083375 
L 94.645078 254.947125 
L 96.865078 254.947125 
L 96.865078 255.78525 
L 94.645078 255.78525 
L 94.645078 259.34775 
Q 94.645078 260.15025 94.864453 260.379 
Q 95.083828 260.60775 95.758828 260.60775 
L 96.865078 260.60775 
L 96.865078 261.509625 
L 95.758828 261.509625 
Q 94.510078 261.509625 94.035703 261.044625 
Q 93.561328 260.57775 93.561328 259.34775 
L 93.561328 255.78525 
L 92.770078 255.78525 
L 92.770078 254.947125 
L 93.561328 254.947125 
L 93.561328 253.083375 
L 94.645078 253.083375 
z
M 98.283281 254.947125 
L 99.361406 254.947125 
L 99.361406 261.509625 
L 98.283281 261.509625 
L 98.283281 254.947125 
z
M 98.283281 252.3915 
L 99.361406 252.3915 
L 99.361406 253.758375 
L 98.283281 253.758375 
L 98.283281 252.3915 
z
M 104.159766 255.70275 
Q 103.293516 255.70275 102.789141 256.379625 
Q 102.284766 257.0565 102.284766 258.234 
Q 102.284766 259.4115 102.785391 260.088375 
Q 103.287891 260.76525 104.159766 260.76525 
Q 105.022266 260.76525 105.524766 260.0865 
Q 106.029141 259.405875 106.029141 258.234 
Q 106.029141 257.06775 105.524766 256.38525 
Q 105.022266 255.70275 104.159766 255.70275 
z
M 104.159766 254.789625 
Q 105.566016 254.789625 106.368516 255.704625 
Q 107.172891 256.61775 107.172891 258.234 
Q 107.172891 259.844625 106.368516 260.763375 
Q 105.566016 261.68025 104.159766 261.68025 
Q 102.747891 261.68025 101.947266 260.763375 
Q 101.148516 259.844625 101.148516 258.234 
Q 101.148516 256.61775 101.947266 255.704625 
Q 102.747891 254.789625 104.159766 254.789625 
z
M 114.415312 257.54775 
L 114.415312 261.509625 
L 113.337187 261.509625 
L 113.337187 257.583375 
Q 113.337187 256.6515 112.973438 256.19025 
Q 112.609688 255.727125 111.884062 255.727125 
Q 111.010312 255.727125 110.505938 256.284 
Q 110.001563 256.839 110.001563 257.800875 
L 110.001563 261.509625 
L 108.917812 261.509625 
L 108.917812 254.947125 
L 110.001563 254.947125 
L 110.001563 255.967125 
Q 110.389688 255.374625 110.912813 255.082125 
Q 111.437813 254.789625 112.124063 254.789625 
Q 113.254688 254.789625 113.834063 255.489 
Q 114.415312 256.188375 114.415312 257.54775 
z
M 127.972734 257.66025 
Q 127.462734 257.66025 127.172109 258.093375 
Q 126.883359 258.5265 126.883359 259.300875 
Q 126.883359 260.062125 127.172109 260.499 
Q 127.462734 260.935875 127.972734 260.935875 
Q 128.471484 260.935875 128.760234 260.499 
Q 129.050859 260.062125 129.050859 259.300875 
Q 129.050859 258.532125 128.760234 258.097125 
Q 128.471484 257.66025 127.972734 257.66025 
z
M 127.972734 256.915875 
Q 128.898984 256.915875 129.442734 257.560875 
Q 129.988359 258.204 129.988359 259.300875 
Q 129.988359 260.395875 129.440859 261.039 
Q 128.893359 261.68025 127.972734 261.68025 
Q 127.035234 261.68025 126.489609 261.039 
Q 125.945859 260.395875 125.945859 259.300875 
Q 125.945859 258.198375 126.493359 257.557125 
Q 127.040859 256.915875 127.972734 256.915875 
z
M 121.925859 253.34775 
Q 121.421484 253.34775 121.130859 253.784625 
Q 120.842109 254.219625 120.842109 254.98275 
Q 120.842109 255.75525 121.128984 256.19025 
Q 121.415859 256.623375 121.925859 256.623375 
Q 122.435859 256.623375 122.724609 256.19025 
Q 123.015234 255.75525 123.015234 254.98275 
Q 123.015234 254.227125 122.722734 253.788375 
Q 122.430234 253.34775 121.925859 253.34775 
z
M 127.217109 252.603375 
L 128.154609 252.603375 
L 122.681484 261.68025 
L 121.743984 261.68025 
L 127.217109 252.603375 
z
M 121.925859 252.603375 
Q 122.852109 252.603375 123.401484 253.244625 
Q 123.952734 253.885875 123.952734 254.98275 
Q 123.952734 256.089 123.405234 256.728375 
Q 122.857734 257.36775 121.925859 257.36775 
Q 120.993984 257.36775 120.452109 256.7265 
Q 119.910234 256.083375 119.910234 254.98275 
Q 119.910234 253.8915 120.453984 253.248375 
Q 120.999609 252.603375 121.925859 252.603375 
z
" style="fill: #ffffff"/>
    <path d="M 17.35125 273.69825 
L 17.35125 271.348875 
L 15.418125 271.348875 
L 15.418125 270.37575 
L 18.523125 270.37575 
L 18.523125 274.13325 
Q 17.83875 274.618875 17.011875 274.86825 
Q 16.186875 275.117625 15.249375 275.117625 
Q 13.198125 275.117625 12.039375 273.9195 
Q 10.8825 272.7195 10.8825 270.582 
Q 10.8825 268.437 12.039375 267.238875 
Q 13.198125 266.04075 15.249375 266.04075 
Q 16.104375 266.04075 16.875 266.252625 
Q 17.645625 266.462625 18.29625 266.87325 
L 18.29625 268.13325 
Q 17.64 267.576375 16.90125 267.295125 
Q 16.1625 267.013875 15.34875 267.013875 
Q 13.741875 267.013875 12.935625 267.910125 
Q 12.13125 268.806375 12.13125 270.582 
Q 12.13125 272.352 12.935625 273.24825 
Q 13.741875 274.1445 15.34875 274.1445 
Q 15.975 274.1445 16.46625 274.03575 
Q 16.959375 273.927 17.35125 273.69825 
z
M 24.441328 269.391375 
Q 24.259453 269.286375 24.045703 269.237625 
Q 23.831953 269.187 23.575078 269.187 
Q 22.660078 269.187 22.170703 269.781375 
Q 21.681328 270.37575 21.681328 271.4895 
L 21.681328 274.947 
L 20.597578 274.947 
L 20.597578 268.3845 
L 21.681328 268.3845 
L 21.681328 269.4045 
Q 22.022578 268.806375 22.566328 268.517625 
Q 23.111953 268.227 23.891953 268.227 
Q 24.002578 268.227 24.137578 268.242 
Q 24.272578 268.255125 24.435703 268.285125 
L 24.441328 269.391375 
z
M 27.844922 269.140125 
Q 26.978672 269.140125 26.474297 269.817 
Q 25.969922 270.493875 25.969922 271.671375 
Q 25.969922 272.848875 26.470547 273.52575 
Q 26.973047 274.202625 27.844922 274.202625 
Q 28.707422 274.202625 29.209922 273.523875 
Q 29.714297 272.84325 29.714297 271.671375 
Q 29.714297 270.505125 29.209922 269.822625 
Q 28.707422 269.140125 27.844922 269.140125 
z
M 27.844922 268.227 
Q 29.251172 268.227 30.053672 269.142 
Q 30.858047 270.055125 30.858047 271.671375 
Q 30.858047 273.282 30.053672 274.20075 
Q 29.251172 275.117625 27.844922 275.117625 
Q 26.433047 275.117625 25.632422 274.20075 
Q 24.833672 273.282 24.833672 271.671375 
Q 24.833672 270.055125 25.632422 269.142 
Q 26.433047 268.227 27.844922 268.227 
z
M 32.017969 268.3845 
L 33.096094 268.3845 
L 34.444219 273.505125 
L 35.784844 268.3845 
L 37.056094 268.3845 
L 38.404219 273.505125 
L 39.746719 268.3845 
L 40.824844 268.3845 
L 39.107344 274.947 
L 37.836094 274.947 
L 36.424219 269.567625 
L 35.006719 274.947 
L 33.733594 274.947 
L 32.017969 268.3845 
z
M 43.525547 266.52075 
L 43.525547 268.3845 
L 45.745547 268.3845 
L 45.745547 269.222625 
L 43.525547 269.222625 
L 43.525547 272.785125 
Q 43.525547 273.587625 43.744922 273.816375 
Q 43.964297 274.045125 44.639297 274.045125 
L 45.745547 274.045125 
L 45.745547 274.947 
L 44.639297 274.947 
Q 43.390547 274.947 42.916172 274.482 
Q 42.441797 274.015125 42.441797 272.785125 
L 42.441797 269.222625 
L 41.650547 269.222625 
L 41.650547 268.3845 
L 42.441797 268.3845 
L 42.441797 266.52075 
L 43.525547 266.52075 
z
M 52.62 270.985125 
L 52.62 274.947 
L 51.541875 274.947 
L 51.541875 271.02075 
Q 51.541875 270.088875 51.178125 269.627625 
Q 50.814375 269.1645 50.08875 269.1645 
Q 49.215 269.1645 48.710625 269.721375 
Q 48.20625 270.276375 48.20625 271.23825 
L 48.20625 274.947 
L 47.1225 274.947 
L 47.1225 265.828875 
L 48.20625 265.828875 
L 48.20625 269.4045 
Q 48.594375 268.812 49.1175 268.5195 
Q 49.6425 268.227 50.32875 268.227 
Q 51.459375 268.227 52.03875 268.926375 
Q 52.62 269.62575 52.62 270.985125 
z
M 58.630547 266.19825 
L 63.657422 266.19825 
L 63.657422 267.19575 
L 59.813672 267.19575 
L 59.813672 269.773875 
L 63.282422 269.773875 
L 63.282422 270.7695 
L 59.813672 270.7695 
L 59.813672 274.947 
L 58.630547 274.947 
L 58.630547 266.19825 
z
M 68.418516 269.391375 
Q 68.236641 269.286375 68.022891 269.237625 
Q 67.809141 269.187 67.552266 269.187 
Q 66.637266 269.187 66.147891 269.781375 
Q 65.658516 270.37575 65.658516 271.4895 
L 65.658516 274.947 
L 64.574766 274.947 
L 64.574766 268.3845 
L 65.658516 268.3845 
L 65.658516 269.4045 
Q 65.999766 268.806375 66.543516 268.517625 
Q 67.089141 268.227 67.869141 268.227 
Q 67.979766 268.227 68.114766 268.242 
Q 68.249766 268.255125 68.412891 268.285125 
L 68.418516 269.391375 
z
M 71.822109 269.140125 
Q 70.955859 269.140125 70.451484 269.817 
Q 69.947109 270.493875 69.947109 271.671375 
Q 69.947109 272.848875 70.447734 273.52575 
Q 70.950234 274.202625 71.822109 274.202625 
Q 72.684609 274.202625 73.187109 273.523875 
Q 73.691484 272.84325 73.691484 271.671375 
Q 73.691484 270.505125 73.187109 269.822625 
Q 72.684609 269.140125 71.822109 269.140125 
z
M 71.822109 268.227 
Q 73.228359 268.227 74.030859 269.142 
Q 74.835234 270.055125 74.835234 271.671375 
Q 74.835234 273.282 74.030859 274.20075 
Q 73.228359 275.117625 71.822109 275.117625 
Q 70.410234 275.117625 69.609609 274.20075 
Q 68.810859 273.282 68.810859 271.671375 
Q 68.810859 270.055125 69.609609 269.142 
Q 70.410234 268.227 71.822109 268.227 
z
M 81.730781 269.6445 
Q 82.135781 268.917 82.698281 268.572 
Q 83.260781 268.227 84.022031 268.227 
Q 85.047656 268.227 85.604531 268.945125 
Q 86.161406 269.661375 86.161406 270.985125 
L 86.161406 274.947 
L 85.077656 274.947 
L 85.077656 271.02075 
Q 85.077656 270.077625 84.742031 269.622 
Q 84.408281 269.1645 83.723906 269.1645 
Q 82.885781 269.1645 82.398281 269.721375 
Q 81.912656 270.276375 81.912656 271.23825 
L 81.912656 274.947 
L 80.828906 274.947 
L 80.828906 271.02075 
Q 80.828906 270.072 80.495156 269.61825 
Q 80.161406 269.1645 79.463906 269.1645 
Q 78.637031 269.1645 78.149531 269.72325 
Q 77.663906 270.282 77.663906 271.23825 
L 77.663906 274.947 
L 76.580156 274.947 
L 76.580156 268.3845 
L 77.663906 268.3845 
L 77.663906 269.4045 
Q 78.033281 268.80075 78.548906 268.513875 
Q 79.064531 268.227 79.773281 268.227 
Q 80.489531 268.227 80.990156 268.59075 
Q 81.490781 268.952625 81.730781 269.6445 
z
M 93.297188 273.951375 
L 97.427813 273.951375 
L 97.427813 274.947 
L 91.874063 274.947 
L 91.874063 273.951375 
Q 92.547188 273.253875 93.709688 272.080125 
Q 94.874063 270.9045 95.172188 270.56325 
Q 95.740313 269.92575 95.965313 269.48325 
Q 96.192188 269.04075 96.192188 268.61325 
Q 96.192188 267.91575 95.702813 267.477 
Q 95.213438 267.036375 94.427813 267.036375 
Q 93.870938 267.036375 93.252188 267.2295 
Q 92.635313 267.422625 91.932188 267.816375 
L 91.932188 266.620125 
Q 92.646563 266.33325 93.267188 266.187 
Q 93.889688 266.04075 94.405313 266.04075 
Q 95.764688 266.04075 96.572813 266.721375 
Q 97.380938 267.400125 97.380938 268.536375 
Q 97.380938 269.076375 97.178438 269.560125 
Q 96.977812 270.042 96.443438 270.69825 
Q 96.297188 270.868875 95.511563 271.68075 
Q 94.727812 272.492625 93.297188 273.951375 
z
M 102.443203 266.97825 
Q 101.530078 266.97825 101.068828 267.87825 
Q 100.609453 268.776375 100.609453 270.582 
Q 100.609453 272.380125 101.068828 273.280125 
Q 101.530078 274.180125 102.443203 274.180125 
Q 103.363828 274.180125 103.823203 273.280125 
Q 104.284453 272.380125 104.284453 270.582 
Q 104.284453 268.776375 103.823203 267.87825 
Q 103.363828 266.97825 102.443203 266.97825 
z
M 102.443203 266.04075 
Q 103.915078 266.04075 104.691328 267.205125 
Q 105.467578 268.367625 105.467578 270.582 
Q 105.467578 272.79075 104.691328 273.955125 
Q 103.915078 275.117625 102.443203 275.117625 
Q 100.973203 275.117625 100.196953 273.955125 
Q 99.420703 272.79075 99.420703 270.582 
Q 99.420703 268.367625 100.196953 267.205125 
Q 100.973203 266.04075 102.443203 266.04075 
z
M 107.752969 273.951375 
L 109.686094 273.951375 
L 109.686094 267.276375 
L 107.582344 267.69825 
L 107.582344 266.620125 
L 109.674844 266.19825 
L 110.857969 266.19825 
L 110.857969 273.951375 
L 112.791094 273.951375 
L 112.791094 274.947 
L 107.752969 274.947 
L 107.752969 273.951375 
z
M 115.387734 273.951375 
L 117.320859 273.951375 
L 117.320859 267.276375 
L 115.217109 267.69825 
L 115.217109 266.620125 
L 117.309609 266.19825 
L 118.492734 266.19825 
L 118.492734 273.951375 
L 120.425859 273.951375 
L 120.425859 274.947 
L 115.387734 274.947 
L 115.387734 273.951375 
z
M 127.545703 266.52075 
L 127.545703 268.3845 
L 129.765703 268.3845 
L 129.765703 269.222625 
L 127.545703 269.222625 
L 127.545703 272.785125 
Q 127.545703 273.587625 127.765078 273.816375 
Q 127.984453 274.045125 128.659453 274.045125 
L 129.765703 274.045125 
L 129.765703 274.947 
L 128.659453 274.947 
Q 127.410703 274.947 126.936328 274.482 
Q 126.461953 274.015125 126.461953 272.785125 
L 126.461953 269.222625 
L 125.670703 269.222625 
L 125.670703 268.3845 
L 126.461953 268.3845 
L 126.461953 266.52075 
L 127.545703 266.52075 
z
M 133.726406 269.140125 
Q 132.860156 269.140125 132.355781 269.817 
Q 131.851406 270.493875 131.851406 271.671375 
Q 131.851406 272.848875 132.352031 273.52575 
Q 132.854531 274.202625 133.726406 274.202625 
Q 134.588906 274.202625 135.091406 273.523875 
Q 135.595781 272.84325 135.595781 271.671375 
Q 135.595781 270.505125 135.091406 269.822625 
Q 134.588906 269.140125 133.726406 269.140125 
z
M 133.726406 268.227 
Q 135.132656 268.227 135.935156 269.142 
Q 136.739531 270.055125 136.739531 271.671375 
Q 136.739531 273.282 135.935156 274.20075 
Q 135.132656 275.117625 133.726406 275.117625 
Q 132.314531 275.117625 131.513906 274.20075 
Q 130.715156 273.282 130.715156 271.671375 
Q 130.715156 270.055125 131.513906 269.142 
Q 132.314531 268.227 133.726406 268.227 
z
" style="fill: #ffffff; stroke: #000000; stroke-width: 2"/>
    <path d="M 17.35125 273.69825 
L 17.35125 271.348875 
L 15.418125 271.348875 
L 15.418125 270.37575 
L 18.523125 270.37575 
L 18.523125 274.13325 
Q 17.83875 274.618875 17.011875 274.86825 
Q 16.186875 275.117625 15.249375 275.117625 
Q 13.198125 275.117625 12.039375 273.9195 
Q 10.8825 272.7195 10.8825 270.582 
Q 10.8825 268.437 12.039375 267.238875 
Q 13.198125 266.04075 15.249375 266.04075 
Q 16.104375 266.04075 16.875 266.252625 
Q 17.645625 266.462625 18.29625 266.87325 
L 18.29625 268.13325 
Q 17.64 267.576375 16.90125 267.295125 
Q 16.1625 267.013875 15.34875 267.013875 
Q 13.741875 267.013875 12.935625 267.910125 
Q 12.13125 268.806375 12.13125 270.582 
Q 12.13125 272.352 12.935625 273.24825 
Q 13.741875 274.1445 15.34875 274.1445 
Q 15.975 274.1445 16.46625 274.03575 
Q 16.959375 273.927 17.35125 273.69825 
z
M 24.441328 269.391375 
Q 24.259453 269.286375 24.045703 269.237625 
Q 23.831953 269.187 23.575078 269.187 
Q 22.660078 269.187 22.170703 269.781375 
Q 21.681328 270.37575 21.681328 271.4895 
L 21.681328 274.947 
L 20.597578 274.947 
L 20.597578 268.3845 
L 21.681328 268.3845 
L 21.681328 269.4045 
Q 22.022578 268.806375 22.566328 268.517625 
Q 23.111953 268.227 23.891953 268.227 
Q 24.002578 268.227 24.137578 268.242 
Q 24.272578 268.255125 24.435703 268.285125 
L 24.441328 269.391375 
z
M 27.844922 269.140125 
Q 26.978672 269.140125 26.474297 269.817 
Q 25.969922 270.493875 25.969922 271.671375 
Q 25.969922 272.848875 26.470547 273.52575 
Q 26.973047 274.202625 27.844922 274.202625 
Q 28.707422 274.202625 29.209922 273.523875 
Q 29.714297 272.84325 29.714297 271.671375 
Q 29.714297 270.505125 29.209922 269.822625 
Q 28.707422 269.140125 27.844922 269.140125 
z
M 27.844922 268.227 
Q 29.251172 268.227 30.053672 269.142 
Q 30.858047 270.055125 30.858047 271.671375 
Q 30.858047 273.282 30.053672 274.20075 
Q 29.251172 275.117625 27.844922 275.117625 
Q 26.433047 275.117625 25.632422 274.20075 
Q 24.833672 273.282 24.833672 271.671375 
Q 24.833672 270.055125 25.632422 269.142 
Q 26.433047 268.227 27.844922 268.227 
z
M 32.017969 268.3845 
L 33.096094 268.3845 
L 34.444219 273.505125 
L 35.784844 268.3845 
L 37.056094 268.3845 
L 38.404219 273.505125 
L 39.746719 268.3845 
L 40.824844 268.3845 
L 39.107344 274.947 
L 37.836094 274.947 
L 36.424219 269.567625 
L 35.006719 274.947 
L 33.733594 274.947 
L 32.017969 268.3845 
z
M 43.525547 266.52075 
L 43.525547 268.3845 
L 45.745547 268.3845 
L 45.745547 269.222625 
L 43.525547 269.222625 
L 43.525547 272.785125 
Q 43.525547 273.587625 43.744922 273.816375 
Q 43.964297 274.045125 44.639297 274.045125 
L 45.745547 274.045125 
L 45.745547 274.947 
L 44.639297 274.947 
Q 43.390547 274.947 42.916172 274.482 
Q 42.441797 274.015125 42.441797 272.785125 
L 42.441797 269.222625 
L 41.650547 269.222625 
L 41.650547 268.3845 
L 42.441797 268.3845 
L 42.441797 266.52075 
L 43.525547 266.52075 
z
M 52.62 270.985125 
L 52.62 274.947 
L 51.541875 274.947 
L 51.541875 271.02075 
Q 51.541875 270.088875 51.178125 269.627625 
Q 50.814375 269.1645 50.08875 269.1645 
Q 49.215 269.1645 48.710625 269.721375 
Q 48.20625 270.276375 48.20625 271.23825 
L 48.20625 274.947 
L 47.1225 274.947 
L 47.1225 265.828875 
L 48.20625 265.828875 
L 48.20625 269.4045 
Q 48.594375 268.812 49.1175 268.5195 
Q 49.6425 268.227 50.32875 268.227 
Q 51.459375 268.227 52.03875 268.926375 
Q 52.62 269.62575 52.62 270.985125 
z
M 58.630547 266.19825 
L 63.657422 266.19825 
L 63.657422 267.19575 
L 59.813672 267.19575 
L 59.813672 269.773875 
L 63.282422 269.773875 
L 63.282422 270.7695 
L 59.813672 270.7695 
L 59.813672 274.947 
L 58.630547 274.947 
L 58.630547 266.19825 
z
M 68.418516 269.391375 
Q 68.236641 269.286375 68.022891 269.237625 
Q 67.809141 269.187 67.552266 269.187 
Q 66.637266 269.187 66.147891 269.781375 
Q 65.658516 270.37575 65.658516 271.4895 
L 65.658516 274.947 
L 64.574766 274.947 
L 64.574766 268.3845 
L 65.658516 268.3845 
L 65.658516 269.4045 
Q 65.999766 268.806375 66.543516 268.517625 
Q 67.089141 268.227 67.869141 268.227 
Q 67.979766 268.227 68.114766 268.242 
Q 68.249766 268.255125 68.412891 268.285125 
L 68.418516 269.391375 
z
M 71.822109 269.140125 
Q 70.955859 269.140125 70.451484 269.817 
Q 69.947109 270.493875 69.947109 271.671375 
Q 69.947109 272.848875 70.447734 273.52575 
Q 70.950234 274.202625 71.822109 274.202625 
Q 72.684609 274.202625 73.187109 273.523875 
Q 73.691484 272.84325 73.691484 271.671375 
Q 73.691484 270.505125 73.187109 269.822625 
Q 72.684609 269.140125 71.822109 269.140125 
z
M 71.822109 268.227 
Q 73.228359 268.227 74.030859 269.142 
Q 74.835234 270.055125 74.835234 271.671375 
Q 74.835234 273.282 74.030859 274.20075 
Q 73.228359 275.117625 71.822109 275.117625 
Q 70.410234 275.117625 69.609609 274.20075 
Q 68.810859 273.282 68.810859 271.671375 
Q 68.810859 270.055125 69.609609 269.142 
Q 70.410234 268.227 71.822109 268.227 
z
M 81.730781 269.6445 
Q 82.135781 268.917 82.698281 268.572 
Q 83.260781 268.227 84.022031 268.227 
Q 85.047656 268.227 85.604531 268.945125 
Q 86.161406 269.661375 86.161406 270.985125 
L 86.161406 274.947 
L 85.077656 274.947 
L 85.077656 271.02075 
Q 85.077656 270.077625 84.742031 269.622 
Q 84.408281 269.1645 83.723906 269.1645 
Q 82.885781 269.1645 82.398281 269.721375 
Q 81.912656 270.276375 81.912656 271.23825 
L 81.912656 274.947 
L 80.828906 274.947 
L 80.828906 271.02075 
Q 80.828906 270.072 80.495156 269.61825 
Q 80.161406 269.1645 79.463906 269.1645 
Q 78.637031 269.1645 78.149531 269.72325 
Q 77.663906 270.282 77.663906 271.23825 
L 77.663906 274.947 
L 76.580156 274.947 
L 76.580156 268.3845 
L 77.663906 268.3845 
L 77.663906 269.4045 
Q 78.033281 268.80075 78.548906 268.513875 
Q 79.064531 268.227 79.773281 268.227 
Q 80.489531 268.227 80.990156 268.59075 
Q 81.490781 268.952625 81.730781 269.6445 
z
M 93.297188 273.951375 
L 97.427813 273.951375 
L 97.427813 274.947 
L 91.874063 274.947 
L 91.874063 273.951375 
Q 92.547188 273.253875 93.709688 272.080125 
Q 94.874063 270.9045 95.172188 270.56325 
Q 95.740313 269.92575 95.965313 269.48325 
Q 96.192188 269.04075 96.192188 268.61325 
Q 96.192188 267.91575 95.702813 267.477 
Q 95.213438 267.036375 94.427813 267.036375 
Q 93.870938 267.036375 93.252188 267.2295 
Q 92.635313 267.422625 91.932188 267.816375 
L 91.932188 266.620125 
Q 92.646563 266.33325 93.267188 266.187 
Q 93.889688 266.04075 94.405313 266.04075 
Q 95.764688 266.04075 96.572813 266.721375 
Q 97.380938 267.400125 97.380938 268.536375 
Q 97.380938 269.076375 97.178438 269.560125 
Q 96.977812 270.042 96.443438 270.69825 
Q 96.297188 270.868875 95.511563 271.68075 
Q 94.727812 272.492625 93.297188 273.951375 
z
M 102.443203 266.97825 
Q 101.530078 266.97825 101.068828 267.87825 
Q 100.609453 268.776375 100.609453 270.582 
Q 100.609453 272.380125 101.068828 273.280125 
Q 101.530078 274.180125 102.443203 274.180125 
Q 103.363828 274.180125 103.823203 273.280125 
Q 104.284453 272.380125 104.284453 270.582 
Q 104.284453 268.776375 103.823203 267.87825 
Q 103.363828 266.97825 102.443203 266.97825 
z
M 102.443203 266.04075 
Q 103.915078 266.04075 104.691328 267.205125 
Q 105.467578 268.367625 105.467578 270.582 
Q 105.467578 272.79075 104.691328 273.955125 
Q 103.915078 275.117625 102.443203 275.117625 
Q 100.973203 275.117625 100.196953 273.955125 
Q 99.420703 272.79075 99.420703 270.582 
Q 99.420703 268.367625 100.196953 267.205125 
Q 100.973203 266.04075 102.443203 266.04075 
z
M 107.752969 273.951375 
L 109.686094 273.951375 
L 109.686094 267.276375 
L 107.582344 267.69825 
L 107.582344 266.620125 
L 109.674844 266.19825 
L 110.857969 266.19825 
L 110.857969 273.951375 
L 112.791094 273.951375 
L 112.791094 274.947 
L 107.752969 274.947 
L 107.752969 273.951375 
z
M 115.387734 273.951375 
L 117.320859 273.951375 
L 117.320859 267.276375 
L 115.217109 267.69825 
L 115.217109 266.620125 
L 117.309609 266.19825 
L 118.492734 266.19825 
L 118.492734 273.951375 
L 120.425859 273.951375 
L 120.425859 274.947 
L 115.387734 274.947 
L 115.387734 273.951375 
z
M 127.545703 266.52075 
L 127.545703 268.3845 
L 129.765703 268.3845 
L 129.765703 269.222625 
L 127.545703 269.222625 
L 127.545703 272.785125 
Q 127.545703 273.587625 127.765078 273.816375 
Q 127.984453 274.045125 128.659453 274.045125 
L 129.765703 274.045125 
L 129.765703 274.947 
L 128.659453 274.947 
Q 127.410703 274.947 126.936328 274.482 
Q 126.461953 274.015125 126.461953 272.785125 
L 126.461953 269.222625 
L 125.670703 269.222625 
L 125.670703 268.3845 
L 126.461953 268.3845 
L 126.461953 266.52075 
L 127.545703 266.52075 
z
M 133.726406 269.140125 
Q 132.860156 269.140125 132.355781 269.817 
Q 131.851406 270.493875 131.851406 271.671375 
Q 131.851406 272.848875 132.352031 273.52575 
Q 132.854531 274.202625 133.726406 274.202625 
Q 134.588906 274.202625 135.091406 273.523875 
Q 135.595781 272.84325 135.595781 271.671375 
Q 135.595781 270.505125 135.091406 269.822625 
Q 134.588906 269.140125 133.726406 269.140125 
z
M 133.726406 268.227 
Q 135.132656 268.227 135.935156 269.142 
Q 136.739531 270.055125 136.739531 271.671375 
Q 136.739531 273.282 135.935156 274.20075 
Q 135.132656 275.117625 133.726406 275.117625 
Q 132.314531 275.117625 131.513906 274.20075 
Q 130.715156 273.282 130.715156 271.671375 
Q 130.715156 270.055125 131.513906 269.142 
Q 132.314531 268.227 133.726406 268.227 
z
" style="fill: #ffffff"/>
    <path d="M 60.8325 287.38875 
L 64.963125 287.38875 
L 64.963125 288.384375 
L 59.409375 288.384375 
L 59.409375 287.38875 
Q 60.0825 286.69125 61.245 285.5175 
Q 62.409375 284.341875 62.7075 284.000625 
Q 63.275625 283.363125 63.500625 282.920625 
Q 63.7275 282.478125 63.7275 282.050625 
Q 63.7275 281.353125 63.238125 280.914375 
Q 62.74875 280.47375 61.963125 280.47375 
Q 61.40625 280.47375 60.7875 280.666875 
Q 60.170625 280.86 59.4675 281.25375 
L 59.4675 280.0575 
Q 60.181875 279.770625 60.8025 279.624375 
Q 61.425 279.478125 61.940625 279.478125 
Q 63.3 279.478125 64.108125 280.15875 
Q 64.91625 280.8375 64.91625 281.97375 
Q 64.91625 282.51375 64.71375 282.9975 
Q 64.513125 283.479375 63.97875 284.135625 
Q 63.8325 284.30625 63.046875 285.118125 
Q 62.263125 285.93 60.8325 287.38875 
z
M 69.978516 280.415625 
Q 69.065391 280.415625 68.604141 281.315625 
Q 68.144766 282.21375 68.144766 284.019375 
Q 68.144766 285.8175 68.604141 286.7175 
Q 69.065391 287.6175 69.978516 287.6175 
Q 70.899141 287.6175 71.358516 286.7175 
Q 71.819766 285.8175 71.819766 284.019375 
Q 71.819766 282.21375 71.358516 281.315625 
Q 70.899141 280.415625 69.978516 280.415625 
z
M 69.978516 279.478125 
Q 71.450391 279.478125 72.226641 280.6425 
Q 73.002891 281.805 73.002891 284.019375 
Q 73.002891 286.228125 72.226641 287.3925 
Q 71.450391 288.555 69.978516 288.555 
Q 68.508516 288.555 67.732266 287.3925 
Q 66.956016 286.228125 66.956016 284.019375 
Q 66.956016 281.805 67.732266 280.6425 
Q 68.508516 279.478125 69.978516 279.478125 
z
M 76.102031 287.38875 
L 80.232656 287.38875 
L 80.232656 288.384375 
L 74.678906 288.384375 
L 74.678906 287.38875 
Q 75.352031 286.69125 76.514531 285.5175 
Q 77.678906 284.341875 77.977031 284.000625 
Q 78.545156 283.363125 78.770156 282.920625 
Q 78.997031 282.478125 78.997031 282.050625 
Q 78.997031 281.353125 78.507656 280.914375 
Q 78.018281 280.47375 77.232656 280.47375 
Q 76.675781 280.47375 76.057031 280.666875 
Q 75.440156 280.86 74.737031 281.25375 
L 74.737031 280.0575 
Q 75.451406 279.770625 76.072031 279.624375 
Q 76.694531 279.478125 77.210156 279.478125 
Q 78.569531 279.478125 79.377656 280.15875 
Q 80.185781 280.8375 80.185781 281.97375 
Q 80.185781 282.51375 79.983281 282.9975 
Q 79.782656 283.479375 79.248281 284.135625 
Q 79.102031 284.30625 78.316406 285.118125 
Q 77.532656 285.93 76.102031 287.38875 
z
M 82.923047 287.38875 
L 84.856172 287.38875 
L 84.856172 280.71375 
L 82.752422 281.135625 
L 82.752422 280.0575 
L 84.844922 279.635625 
L 86.028047 279.635625 
L 86.028047 287.38875 
L 87.961172 287.38875 
L 87.961172 288.384375 
L 82.923047 288.384375 
L 82.923047 287.38875 
z
" style="fill: #ffffff; stroke: #000000; stroke-width: 2"/>
    <path d="M 60.8325 287.38875 
L 64.963125 287.38875 
L 64.963125 288.384375 
L 59.409375 288.384375 
L 59.409375 287.38875 
Q 60.0825 286.69125 61.245 285.5175 
Q 62.409375 284.341875 62.7075 284.000625 
Q 63.275625 283.363125 63.500625 282.920625 
Q 63.7275 282.478125 63.7275 282.050625 
Q 63.7275 281.353125 63.238125 280.914375 
Q 62.74875 280.47375 61.963125 280.47375 
Q 61.40625 280.47375 60.7875 280.666875 
Q 60.170625 280.86 59.4675 281.25375 
L 59.4675 280.0575 
Q 60.181875 279.770625 60.8025 279.624375 
Q 61.425 279.478125 61.940625 279.478125 
Q 63.3 279.478125 64.108125 280.15875 
Q 64.91625 280.8375 64.91625 281.97375 
Q 64.91625 282.51375 64.71375 282.9975 
Q 64.513125 283.479375 63.97875 284.135625 
Q 63.8325 284.30625 63.046875 285.118125 
Q 62.263125 285.93 60.8325 287.38875 
z
M 69.978516 280.415625 
Q 69.065391 280.415625 68.604141 281.315625 
Q 68.144766 282.21375 68.144766 284.019375 
Q 68.144766 285.8175 68.604141 286.7175 
Q 69.065391 287.6175 69.978516 287.6175 
Q 70.899141 287.6175 71.358516 286.7175 
Q 71.819766 285.8175 71.819766 284.019375 
Q 71.819766 282.21375 71.358516 281.315625 
Q 70.899141 280.415625 69.978516 280.415625 
z
M 69.978516 279.478125 
Q 71.450391 279.478125 72.226641 280.6425 
Q 73.002891 281.805 73.002891 284.019375 
Q 73.002891 286.228125 72.226641 287.3925 
Q 71.450391 288.555 69.978516 288.555 
Q 68.508516 288.555 67.732266 287.3925 
Q 66.956016 286.228125 66.956016 284.019375 
Q 66.956016 281.805 67.732266 280.6425 
Q 68.508516 279.478125 69.978516 279.478125 
z
M 76.102031 287.38875 
L 80.232656 287.38875 
L 80.232656 288.384375 
L 74.678906 288.384375 
L 74.678906 287.38875 
Q 75.352031 286.69125 76.514531 285.5175 
Q 77.678906 284.341875 77.977031 284.000625 
Q 78.545156 283.363125 78.770156 282.920625 
Q 78.997031 282.478125 78.997031 282.050625 
Q 78.997031 281.353125 78.507656 280.914375 
Q 78.018281 280.47375 77.232656 280.47375 
Q 76.675781 280.47375 76.057031 280.666875 
Q 75.440156 280.86 74.737031 281.25375 
L 74.737031 280.0575 
Q 75.451406 279.770625 76.072031 279.624375 
Q 76.694531 279.478125 77.210156 279.478125 
Q 78.569531 279.478125 79.377656 280.15875 
Q 80.185781 280.8375 80.185781 281.97375 
Q 80.185781 282.51375 79.983281 282.9975 
Q 79.782656 283.479375 79.248281 284.135625 
Q 79.102031 284.30625 78.316406 285.118125 
Q 77.532656 285.93 76.102031 287.38875 
z
M 82.923047 287.38875 
L 84.856172 287.38875 
L 84.856172 280.71375 
L 82.752422 281.135625 
L 82.752422 280.0575 
L 84.844922 279.635625 
L 86.028047 279.635625 
L 86.028047 287.38875 
L 87.961172 287.38875 
L 87.961172 288.384375 
L 82.923047 288.384375 
L 82.923047 287.38875 
z
" style="fill: #ffffff"/>
   </g>
  </g>
  <g id="axes_3">
   <g id="patch_4">
    <path d="M 104.982353 290.88 
L 129.6 290.88 
L 129.6 69.12 
L 104.982353 69.12 
L 104.982353 290.88 
z
" style="fill: none"/>
   </g>
  </g>
  <g id="axes_4">
   <g id="patch_5">
    <path d="M 18 512.64 
L 42.617647 512.64 
L 42.617647 290.88 
L 18 290.88 
L 18 512.64 
z
" style="fill: none"/>
   </g>
  </g>
  <g id="axes_5">
   <g id="patch_6">
    <path d="M 49.182353 512.64 
L 98.417647 512.64 
L 98.417647 290.88 
L 49.182353 290.88 
L 49.182353 512.64 
z
" style="fill: none"/>
   </g>
   <g id="patch_7">
    <path d="M 49.182353 502.56 
L 96.073109 502.56 
L 96.073109 477.36 
L 49.182353 477.36 
z
" clip-path="url(#pf2320e5567)" style="fill: #d73027"/>
   </g>
   <g id="patch_8">
    <path d="M 49.182353 477.36 
L 96.073109 477.36 
L 96.073109 452.16 
L 49.182353 452.16 
z
" clip-path="url(#pf2320e5567)" style="fill: #f46d43"/>
   </g>
   <g id="patch_9">
    <path d="M 49.182353 452.16 
L 96.073109 452.16 
L 96.073109 426.96 
L 49.182353 426.96 
z
" clip-path="url(#pf2320e5567)" style="fill: #fdae61"/>
   </g>
   <g id="patch_10">
    <path d="M 49.182353 426.96 
L 96.073109 426.96 
L 96.073109 401.76 
L 49.182353 401.76 
z
" clip-path="url(#pf2320e5567)" style="fill: #fee08b"/>
   </g>
   <g id="patch_11">
    <path d="M 49.182353 401.76 
L 96.073109 401.76 
L 96.073109 376.56 
L 49.182353 376.56 
z
" clip-path="url(#pf2320e5567)" style="fill: #d9ef8b"/>
   </g>
   <g id="patch_12">
    <path d="M 49.182353 376.56 
L 96.073109 376.56 
L 96.073109 351.36 
L 49.182353 351.36 
z
" clip-path="url(#pf2320e5567)" style="fill: #a6d96a"/>
   </g>
   <g id="patch_13">
    <path d="M 49.182353 351.36 
L 96.073109 351.36 
L 96.073109 326.16 
L 49.182353 326.16 
z
" clip-path="url(#pf2320e5567)" style="fill: #66bd63"/>
   </g>
   <g id="patch_14">
    <path d="M 49.182353 326.16 
L 96.073109 326.16 
L 96.073109 300.96 
L 49.182353 300.96 
z
" clip-path="url(#pf2320e5567)" style="fill: #1a9850"/>
   </g>
   <g id="text_2">
    <path d="M 55.985231 503.59125 
L 59.663981 503.59125 
L 59.663981 505.295625 
L 55.985231 505.295625 
L 55.985231 503.59125 
z
M 64.732575 501.0075 
L 62.261325 504.669375 
L 64.732575 504.669375 
L 64.732575 501.0075 
z
M 64.357575 499.149375 
L 66.866325 499.149375 
L 66.866325 504.669375 
L 68.1132 504.669375 
L 68.1132 506.304375 
L 66.866325 506.304375 
L 66.866325 507.898125 
L 64.732575 507.898125 
L 64.732575 506.304375 
L 60.855075 506.304375 
L 60.855075 504.37125 
L 64.357575 499.149375 
z
M 72.842184 503.983125 
Q 72.210309 503.983125 71.869059 504.33 
Q 71.529684 504.675 71.529684 505.32 
Q 71.529684 505.965 71.869059 506.308125 
Q 72.210309 506.649375 72.842184 506.649375 
Q 73.470309 506.649375 73.804059 506.308125 
Q 74.137809 505.965 74.137809 505.32 
Q 74.137809 504.669375 73.804059 504.32625 
Q 73.470309 503.983125 72.842184 503.983125 
z
M 71.195934 503.240625 
Q 70.399059 502.99875 69.994059 502.501875 
Q 69.590934 502.003125 69.590934 501.25875 
Q 69.590934 500.1525 70.415934 499.573125 
Q 71.242809 498.991875 72.842184 498.991875 
Q 74.430309 498.991875 75.255309 499.569375 
Q 76.082184 500.146875 76.082184 501.25875 
Q 76.082184 502.003125 75.675309 502.501875 
Q 75.268434 502.99875 74.471559 503.240625 
Q 75.362184 503.48625 75.815934 504.039375 
Q 76.269684 504.5925 76.269684 505.43625 
Q 76.269684 506.7375 75.405309 507.403125 
Q 74.540934 508.06875 72.842184 508.06875 
Q 71.137809 508.06875 70.267809 507.403125 
Q 69.397809 506.7375 69.397809 505.43625 
Q 69.397809 504.5925 69.851559 504.039375 
Q 70.305309 503.48625 71.195934 503.240625 
z
M 71.722809 501.4875 
Q 71.722809 502.00875 72.013434 502.29 
Q 72.304059 502.57125 72.842184 502.57125 
Q 73.369059 502.57125 73.655934 502.29 
Q 73.944684 502.00875 73.944684 501.4875 
Q 73.944684 500.96625 73.655934 500.68875 
Q 73.369059 500.409375 72.842184 500.409375 
Q 72.304059 500.409375 72.013434 500.690625 
Q 71.722809 500.971875 71.722809 501.4875 
z
M 78.238669 505.63125 
L 80.348044 505.63125 
L 80.348044 507.898125 
L 78.238669 507.898125 
L 78.238669 505.63125 
z
M 87.092887 503.514375 
Q 87.092887 501.87375 86.785387 501.204375 
Q 86.477887 500.533125 85.750387 500.533125 
Q 85.024762 500.533125 84.713512 501.204375 
Q 84.402262 501.87375 84.402262 503.514375 
Q 84.402262 505.17375 84.713512 505.854375 
Q 85.024762 506.533125 85.750387 506.533125 
Q 86.472262 506.533125 86.781637 505.854375 
Q 87.092887 505.17375 87.092887 503.514375 
z
M 89.348512 503.533125 
Q 89.348512 505.70625 88.411012 506.8875 
Q 87.473512 508.06875 85.750387 508.06875 
Q 84.021637 508.06875 83.084137 506.8875 
Q 82.146637 505.70625 82.146637 503.533125 
Q 82.146637 501.3525 83.084137 500.173125 
Q 84.021637 498.991875 85.750387 498.991875 
Q 87.473512 498.991875 88.411012 500.173125 
Q 89.348512 501.3525 89.348512 503.533125 
z
" style="stroke: #ffffff"/>
    <path d="M 55.985231 503.59125 
L 59.663981 503.59125 
L 59.663981 505.295625 
L 55.985231 505.295625 
L 55.985231 503.59125 
z
M 64.732575 501.0075 
L 62.261325 504.669375 
L 64.732575 504.669375 
L 64.732575 501.0075 
z
M 64.357575 499.149375 
L 66.866325 499.149375 
L 66.866325 504.669375 
L 68.1132 504.669375 
L 68.1132 506.304375 
L 66.866325 506.304375 
L 66.866325 507.898125 
L 64.732575 507.898125 
L 64.732575 506.304375 
L 60.855075 506.304375 
L 60.855075 504.37125 
L 64.357575 499.149375 
z
M 72.842184 503.983125 
Q 72.210309 503.983125 71.869059 504.33 
Q 71.529684 504.675 71.529684 505.32 
Q 71.529684 505.965 71.869059 506.308125 
Q 72.210309 506.649375 72.842184 506.649375 
Q 73.470309 506.649375 73.804059 506.308125 
Q 74.137809 505.965 74.137809 505.32 
Q 74.137809 504.669375 73.804059 504.32625 
Q 73.470309 503.983125 72.842184 503.983125 
z
M 71.195934 503.240625 
Q 70.399059 502.99875 69.994059 502.501875 
Q 69.590934 502.003125 69.590934 501.25875 
Q 69.590934 500.1525 70.415934 499.573125 
Q 71.242809 498.991875 72.842184 498.991875 
Q 74.430309 498.991875 75.255309 499.569375 
Q 76.082184 500.146875 76.082184 501.25875 
Q 76.082184 502.003125 75.675309 502.501875 
Q 75.268434 502.99875 74.471559 503.240625 
Q 75.362184 503.48625 75.815934 504.039375 
Q 76.269684 504.5925 76.269684 505.43625 
Q 76.269684 506.7375 75.405309 507.403125 
Q 74.540934 508.06875 72.842184 508.06875 
Q 71.137809 508.06875 70.267809 507.403125 
Q 69.397809 506.7375 69.397809 505.43625 
Q 69.397809 504.5925 69.851559 504.039375 
Q 70.305309 503.48625 71.195934 503.240625 
z
M 71.722809 501.4875 
Q 71.722809 502.00875 72.013434 502.29 
Q 72.304059 502.57125 72.842184 502.57125 
Q 73.369059 502.57125 73.655934 502.29 
Q 73.944684 502.00875 73.944684 501.4875 
Q 73.944684 500.96625 73.655934 500.68875 
Q 73.369059 500.409375 72.842184 500.409375 
Q 72.304059 500.409375 72.013434 500.690625 
Q 71.722809 500.971875 71.722809 501.4875 
z
M 78.238669 505.63125 
L 80.348044 505.63125 
L 80.348044 507.898125 
L 78.238669 507.898125 
L 78.238669 505.63125 
z
M 87.092887 503.514375 
Q 87.092887 501.87375 86.785387 501.204375 
Q 86.477887 500.533125 85.750387 500.533125 
Q 85.024762 500.533125 84.713512 501.204375 
Q 84.402262 501.87375 84.402262 503.514375 
Q 84.402262 505.17375 84.713512 505.854375 
Q 85.024762 506.533125 85.750387 506.533125 
Q 86.472262 506.533125 86.781637 505.854375 
Q 87.092887 505.17375 87.092887 503.514375 
z
M 89.348512 503.533125 
Q 89.348512 505.70625 88.411012 506.8875 
Q 87.473512 508.06875 85.750387 508.06875 
Q 84.021637 508.06875 83.084137 506.8875 
Q 82.146637 505.70625 82.146637 503.533125 
Q 82.146637 501.3525 83.084137 500.173125 
Q 84.021637 498.991875 85.750387 498.991875 
Q 87.473512 498.991875 88.411012 500.173125 
Q 89.348512 501.3525 89.348512 503.533125 
z
"/>
   </g>
   <g id="text_3">
    <path d="M 55.985231 478.39125 
L 59.663981 478.39125 
L 59.663981 480.095625 
L 55.985231 480.095625 
L 55.985231 478.39125 
z
M 61.117575 473.949375 
L 67.710075 473.949375 
L 67.710075 475.220625 
L 64.29945 482.698125 
L 62.10195 482.698125 
L 65.3307 475.60875 
L 61.117575 475.60875 
L 61.117575 473.949375 
z
M 69.889059 480.43125 
L 71.998434 480.43125 
L 71.998434 482.698125 
L 69.889059 482.698125 
L 69.889059 480.43125 
z
M 74.025778 473.949375 
L 80.618278 473.949375 
L 80.618278 475.220625 
L 77.207653 482.698125 
L 75.010153 482.698125 
L 78.238903 475.60875 
L 74.025778 475.60875 
L 74.025778 473.949375 
z
M 82.774762 482.505 
L 82.774762 480.886875 
Q 83.312887 481.14 83.804137 481.265625 
Q 84.297262 481.39125 84.777262 481.39125 
Q 85.786012 481.39125 86.348512 480.8325 
Q 86.911012 480.271875 87.010387 479.17125 
Q 86.612887 479.46375 86.161012 479.61 
Q 85.709137 479.75625 85.182262 479.75625 
Q 83.839762 479.75625 83.016637 478.974375 
Q 82.193512 478.1925 82.193512 476.915625 
Q 82.193512 475.501875 83.110387 474.6525 
Q 84.027262 473.803125 85.568512 473.803125 
Q 87.280387 473.803125 88.217887 474.958125 
Q 89.155387 476.11125 89.155387 478.220625 
Q 89.155387 480.39 88.058512 481.629375 
Q 86.963512 482.86875 85.052887 482.86875 
Q 84.437887 482.86875 83.875387 482.776875 
Q 83.312887 482.686875 82.774762 482.505 
z
M 85.557262 478.291875 
Q 86.149762 478.291875 86.447887 477.909375 
Q 86.746012 477.525 86.746012 476.75625 
Q 86.746012 475.995 86.447887 475.60875 
Q 86.149762 475.220625 85.557262 475.220625 
Q 84.964762 475.220625 84.666637 475.60875 
Q 84.368512 475.995 84.368512 476.75625 
Q 84.368512 477.525 84.666637 477.909375 
Q 84.964762 478.291875 85.557262 478.291875 
z
" style="stroke: #ffffff"/>
    <path d="M 55.985231 478.39125 
L 59.663981 478.39125 
L 59.663981 480.095625 
L 55.985231 480.095625 
L 55.985231 478.39125 
z
M 61.117575 473.949375 
L 67.710075 473.949375 
L 67.710075 475.220625 
L 64.29945 482.698125 
L 62.10195 482.698125 
L 65.3307 475.60875 
L 61.117575 475.60875 
L 61.117575 473.949375 
z
M 69.889059 480.43125 
L 71.998434 480.43125 
L 71.998434 482.698125 
L 69.889059 482.698125 
L 69.889059 480.43125 
z
M 74.025778 473.949375 
L 80.618278 473.949375 
L 80.618278 475.220625 
L 77.207653 482.698125 
L 75.010153 482.698125 
L 78.238903 475.60875 
L 74.025778 475.60875 
L 74.025778 473.949375 
z
M 82.774762 482.505 
L 82.774762 480.886875 
Q 83.312887 481.14 83.804137 481.265625 
Q 84.297262 481.39125 84.777262 481.39125 
Q 85.786012 481.39125 86.348512 480.8325 
Q 86.911012 480.271875 87.010387 479.17125 
Q 86.612887 479.46375 86.161012 479.61 
Q 85.709137 479.75625 85.182262 479.75625 
Q 83.839762 479.75625 83.016637 478.974375 
Q 82.193512 478.1925 82.193512 476.915625 
Q 82.193512 475.501875 83.110387 474.6525 
Q 84.027262 473.803125 85.568512 473.803125 
Q 87.280387 473.803125 88.217887 474.958125 
Q 89.155387 476.11125 89.155387 478.220625 
Q 89.155387 480.39 88.058512 481.629375 
Q 86.963512 482.86875 85.052887 482.86875 
Q 84.437887 482.86875 83.875387 482.776875 
Q 83.312887 482.686875 82.774762 482.505 
z
M 85.557262 478.291875 
Q 86.149762 478.291875 86.447887 477.909375 
Q 86.746012 477.525 86.746012 476.75625 
Q 86.746012 475.995 86.447887 475.60875 
Q 86.149762 475.220625 85.557262 475.220625 
Q 84.964762 475.220625 84.666637 475.60875 
Q 84.368512 475.995 84.368512 476.75625 
Q 84.368512 477.525 84.666637 477.909375 
Q 84.964762 478.291875 85.557262 478.291875 
z
"/>
   </g>
   <g id="text_4">
    <path d="M 55.985231 453.19125 
L 59.663981 453.19125 
L 59.663981 454.895625 
L 55.985231 454.895625 
L 55.985231 453.19125 
z
M 64.732575 450.6075 
L 62.261325 454.269375 
L 64.732575 454.269375 
L 64.732575 450.6075 
z
M 64.357575 448.749375 
L 66.866325 448.749375 
L 66.866325 454.269375 
L 68.1132 454.269375 
L 68.1132 455.904375 
L 66.866325 455.904375 
L 66.866325 457.498125 
L 64.732575 457.498125 
L 64.732575 455.904375 
L 60.855075 455.904375 
L 60.855075 453.97125 
L 64.357575 448.749375 
z
M 69.889059 455.23125 
L 71.998434 455.23125 
L 71.998434 457.498125 
L 69.889059 457.498125 
L 69.889059 455.23125 
z
M 74.025778 448.749375 
L 80.618278 448.749375 
L 80.618278 450.020625 
L 77.207653 457.498125 
L 75.010153 457.498125 
L 78.238903 450.40875 
L 74.025778 450.40875 
L 74.025778 448.749375 
z
M 85.030387 455.840625 
L 88.879762 455.840625 
L 88.879762 457.498125 
L 82.521637 457.498125 
L 82.521637 455.840625 
L 85.714762 453.020625 
Q 86.144137 452.634375 86.348512 452.265 
Q 86.552887 451.895625 86.552887 451.498125 
Q 86.552887 450.883125 86.140387 450.508125 
Q 85.727887 450.133125 85.041637 450.133125 
Q 84.514762 450.133125 83.886637 450.358125 
Q 83.260387 450.583125 82.546012 451.029375 
L 82.546012 449.1075 
Q 83.307262 448.85625 84.051637 448.725 
Q 84.796012 448.591875 85.510387 448.591875 
Q 87.081637 448.591875 87.951637 449.28375 
Q 88.821637 449.97375 88.821637 451.21125 
Q 88.821637 451.925625 88.452262 452.544375 
Q 88.082887 453.16125 86.899762 454.2 
L 85.030387 455.840625 
z
" style="stroke: #ffffff"/>
    <path d="M 55.985231 453.19125 
L 59.663981 453.19125 
L 59.663981 454.895625 
L 55.985231 454.895625 
L 55.985231 453.19125 
z
M 64.732575 450.6075 
L 62.261325 454.269375 
L 64.732575 454.269375 
L 64.732575 450.6075 
z
M 64.357575 448.749375 
L 66.866325 448.749375 
L 66.866325 454.269375 
L 68.1132 454.269375 
L 68.1132 455.904375 
L 66.866325 455.904375 
L 66.866325 457.498125 
L 64.732575 457.498125 
L 64.732575 455.904375 
L 60.855075 455.904375 
L 60.855075 453.97125 
L 64.357575 448.749375 
z
M 69.889059 455.23125 
L 71.998434 455.23125 
L 71.998434 457.498125 
L 69.889059 457.498125 
L 69.889059 455.23125 
z
M 74.025778 448.749375 
L 80.618278 448.749375 
L 80.618278 450.020625 
L 77.207653 457.498125 
L 75.010153 457.498125 
L 78.238903 450.40875 
L 74.025778 450.40875 
L 74.025778 448.749375 
z
M 85.030387 455.840625 
L 88.879762 455.840625 
L 88.879762 457.498125 
L 82.521637 457.498125 
L 82.521637 455.840625 
L 85.714762 453.020625 
Q 86.144137 452.634375 86.348512 452.265 
Q 86.552887 451.895625 86.552887 451.498125 
Q 86.552887 450.883125 86.140387 450.508125 
Q 85.727887 450.133125 85.041637 450.133125 
Q 84.514762 450.133125 83.886637 450.358125 
Q 83.260387 450.583125 82.546012 451.029375 
L 82.546012 449.1075 
Q 83.307262 448.85625 84.051637 448.725 
Q 84.796012 448.591875 85.510387 448.591875 
Q 87.081637 448.591875 87.951637 449.28375 
Q 88.821637 449.97375 88.821637 451.21125 
Q 88.821637 451.925625 88.452262 452.544375 
Q 88.082887 453.16125 86.899762 454.2 
L 85.030387 455.840625 
z
"/>
   </g>
   <g id="text_5">
    <path d="M 55.985231 427.99125 
L 59.663981 427.99125 
L 59.663981 429.695625 
L 55.985231 429.695625 
L 55.985231 427.99125 
z
M 63.772575 430.640625 
L 67.62195 430.640625 
L 67.62195 432.298125 
L 61.263825 432.298125 
L 61.263825 430.640625 
L 64.45695 427.820625 
Q 64.886325 427.434375 65.0907 427.065 
Q 65.295075 426.695625 65.295075 426.298125 
Q 65.295075 425.683125 64.882575 425.308125 
Q 64.470075 424.933125 63.783825 424.933125 
Q 63.25695 424.933125 62.628825 425.158125 
Q 62.002575 425.383125 61.2882 425.829375 
L 61.2882 423.9075 
Q 62.04945 423.65625 62.793825 423.525 
Q 63.5382 423.391875 64.252575 423.391875 
Q 65.823825 423.391875 66.693825 424.08375 
Q 67.563825 424.77375 67.563825 426.01125 
Q 67.563825 426.725625 67.19445 427.344375 
Q 66.825075 427.96125 65.64195 429 
L 63.772575 430.640625 
z
M 69.889059 430.03125 
L 71.998434 430.03125 
L 71.998434 432.298125 
L 69.889059 432.298125 
L 69.889059 430.03125 
z
M 77.640778 425.4075 
L 75.169528 429.069375 
L 77.640778 429.069375 
L 77.640778 425.4075 
z
M 77.265778 423.549375 
L 79.774528 423.549375 
L 79.774528 429.069375 
L 81.021403 429.069375 
L 81.021403 430.704375 
L 79.774528 430.704375 
L 79.774528 432.298125 
L 77.640778 432.298125 
L 77.640778 430.704375 
L 73.763278 430.704375 
L 73.763278 428.77125 
L 77.265778 423.549375 
z
M 85.915387 427.98 
Q 85.322887 427.98 85.026637 428.364375 
Q 84.730387 428.746875 84.730387 429.515625 
Q 84.730387 430.2825 85.026637 430.666875 
Q 85.322887 431.049375 85.915387 431.049375 
Q 86.511637 431.049375 86.807887 430.666875 
Q 87.104137 430.2825 87.104137 429.515625 
Q 87.104137 428.746875 86.807887 428.364375 
Q 86.511637 427.98 85.915387 427.98 
z
M 88.703512 423.778125 
L 88.703512 425.39625 
Q 88.146637 425.131875 87.653512 425.00625 
Q 87.162262 424.880625 86.693512 424.880625 
Q 85.686637 424.880625 85.124137 425.44125 
Q 84.561637 426 84.467887 427.100625 
Q 84.854137 426.81375 85.304137 426.67125 
Q 85.756012 426.526875 86.290387 426.526875 
Q 87.631012 426.526875 88.454137 427.3125 
Q 89.277262 428.09625 89.277262 429.3675 
Q 89.277262 430.77375 88.356637 431.62125 
Q 87.437887 432.46875 85.891012 432.46875 
Q 84.186637 432.46875 83.251012 431.3175 
Q 82.317262 430.164375 82.317262 428.049375 
Q 82.317262 425.881875 83.410387 424.6425 
Q 84.503512 423.403125 86.406637 423.403125 
Q 87.010387 423.403125 87.578512 423.496875 
Q 88.146637 423.590625 88.703512 423.778125 
z
" style="stroke: #ffffff"/>
    <path d="M 55.985231 427.99125 
L 59.663981 427.99125 
L 59.663981 429.695625 
L 55.985231 429.695625 
L 55.985231 427.99125 
z
M 63.772575 430.640625 
L 67.62195 430.640625 
L 67.62195 432.298125 
L 61.263825 432.298125 
L 61.263825 430.640625 
L 64.45695 427.820625 
Q 64.886325 427.434375 65.0907 427.065 
Q 65.295075 426.695625 65.295075 426.298125 
Q 65.295075 425.683125 64.882575 425.308125 
Q 64.470075 424.933125 63.783825 424.933125 
Q 63.25695 424.933125 62.628825 425.158125 
Q 62.002575 425.383125 61.2882 425.829375 
L 61.2882 423.9075 
Q 62.04945 423.65625 62.793825 423.525 
Q 63.5382 423.391875 64.252575 423.391875 
Q 65.823825 423.391875 66.693825 424.08375 
Q 67.563825 424.77375 67.563825 426.01125 
Q 67.563825 426.725625 67.19445 427.344375 
Q 66.825075 427.96125 65.64195 429 
L 63.772575 430.640625 
z
M 69.889059 430.03125 
L 71.998434 430.03125 
L 71.998434 432.298125 
L 69.889059 432.298125 
L 69.889059 430.03125 
z
M 77.640778 425.4075 
L 75.169528 429.069375 
L 77.640778 429.069375 
L 77.640778 425.4075 
z
M 77.265778 423.549375 
L 79.774528 423.549375 
L 79.774528 429.069375 
L 81.021403 429.069375 
L 81.021403 430.704375 
L 79.774528 430.704375 
L 79.774528 432.298125 
L 77.640778 432.298125 
L 77.640778 430.704375 
L 73.763278 430.704375 
L 73.763278 428.77125 
L 77.265778 423.549375 
z
M 85.915387 427.98 
Q 85.322887 427.98 85.026637 428.364375 
Q 84.730387 428.746875 84.730387 429.515625 
Q 84.730387 430.2825 85.026637 430.666875 
Q 85.322887 431.049375 85.915387 431.049375 
Q 86.511637 431.049375 86.807887 430.666875 
Q 87.104137 430.2825 87.104137 429.515625 
Q 87.104137 428.746875 86.807887 428.364375 
Q 86.511637 427.98 85.915387 427.98 
z
M 88.703512 423.778125 
L 88.703512 425.39625 
Q 88.146637 425.131875 87.653512 425.00625 
Q 87.162262 424.880625 86.693512 424.880625 
Q 85.686637 424.880625 85.124137 425.44125 
Q 84.561637 426 84.467887 427.100625 
Q 84.854137 426.81375 85.304137 426.67125 
Q 85.756012 426.526875 86.290387 426.526875 
Q 87.631012 426.526875 88.454137 427.3125 
Q 89.277262 428.09625 89.277262 429.3675 
Q 89.277262 430.77375 88.356637 431.62125 
Q 87.437887 432.46875 85.891012 432.46875 
Q 84.186637 432.46875 83.251012 431.3175 
Q 82.317262 430.164375 82.317262 428.049375 
Q 82.317262 425.881875 83.410387 424.6425 
Q 84.503512 423.403125 86.406637 423.403125 
Q 87.010387 423.403125 87.578512 423.496875 
Q 88.146637 423.590625 88.703512 423.778125 
z
"/>
   </g>
   <g id="text_6">
    <path d="M 60.159919 402.79125 
L 63.838669 402.79125 
L 63.838669 404.495625 
L 60.159919 404.495625 
L 60.159919 402.79125 
z
M 70.009762 402.714375 
Q 70.009762 401.07375 69.702262 400.404375 
Q 69.394762 399.733125 68.667262 399.733125 
Q 67.941637 399.733125 67.630387 400.404375 
Q 67.319137 401.07375 67.319137 402.714375 
Q 67.319137 404.37375 67.630387 405.054375 
Q 67.941637 405.733125 68.667262 405.733125 
Q 69.389137 405.733125 69.698512 405.054375 
Q 70.009762 404.37375 70.009762 402.714375 
z
M 72.265387 402.733125 
Q 72.265387 404.90625 71.327887 406.0875 
Q 70.390387 407.26875 68.667262 407.26875 
Q 66.938512 407.26875 66.001012 406.0875 
Q 65.063512 404.90625 65.063512 402.733125 
Q 65.063512 400.5525 66.001012 399.373125 
Q 66.938512 398.191875 68.667262 398.191875 
Q 70.390387 398.191875 71.327887 399.373125 
Q 72.265387 400.5525 72.265387 402.733125 
z
M 74.063747 404.83125 
L 76.173122 404.83125 
L 76.173122 407.098125 
L 74.063747 407.098125 
L 74.063747 404.83125 
z
M 80.855465 405.440625 
L 84.70484 405.440625 
L 84.70484 407.098125 
L 78.346715 407.098125 
L 78.346715 405.440625 
L 81.53984 402.620625 
Q 81.969215 402.234375 82.17359 401.865 
Q 82.377965 401.495625 82.377965 401.098125 
Q 82.377965 400.483125 81.965465 400.108125 
Q 81.552965 399.733125 80.866715 399.733125 
Q 80.33984 399.733125 79.711715 399.958125 
Q 79.085465 400.183125 78.37109 400.629375 
L 78.37109 398.7075 
Q 79.13234 398.45625 79.876715 398.325 
Q 80.62109 398.191875 81.335465 398.191875 
Q 82.906715 398.191875 83.776715 398.88375 
Q 84.646715 399.57375 84.646715 400.81125 
Q 84.646715 401.525625 84.27734 402.144375 
Q 83.907965 402.76125 82.72484 403.8 
L 80.855465 405.440625 
z
" style="stroke: #ffffff"/>
    <path d="M 60.159919 402.79125 
L 63.838669 402.79125 
L 63.838669 404.495625 
L 60.159919 404.495625 
L 60.159919 402.79125 
z
M 70.009762 402.714375 
Q 70.009762 401.07375 69.702262 400.404375 
Q 69.394762 399.733125 68.667262 399.733125 
Q 67.941637 399.733125 67.630387 400.404375 
Q 67.319137 401.07375 67.319137 402.714375 
Q 67.319137 404.37375 67.630387 405.054375 
Q 67.941637 405.733125 68.667262 405.733125 
Q 69.389137 405.733125 69.698512 405.054375 
Q 70.009762 404.37375 70.009762 402.714375 
z
M 72.265387 402.733125 
Q 72.265387 404.90625 71.327887 406.0875 
Q 70.390387 407.26875 68.667262 407.26875 
Q 66.938512 407.26875 66.001012 406.0875 
Q 65.063512 404.90625 65.063512 402.733125 
Q 65.063512 400.5525 66.001012 399.373125 
Q 66.938512 398.191875 68.667262 398.191875 
Q 70.390387 398.191875 71.327887 399.373125 
Q 72.265387 400.5525 72.265387 402.733125 
z
M 74.063747 404.83125 
L 76.173122 404.83125 
L 76.173122 407.098125 
L 74.063747 407.098125 
L 74.063747 404.83125 
z
M 80.855465 405.440625 
L 84.70484 405.440625 
L 84.70484 407.098125 
L 78.346715 407.098125 
L 78.346715 405.440625 
L 81.53984 402.620625 
Q 81.969215 402.234375 82.17359 401.865 
Q 82.377965 401.495625 82.377965 401.098125 
Q 82.377965 400.483125 81.965465 400.108125 
Q 81.552965 399.733125 80.866715 399.733125 
Q 80.33984 399.733125 79.711715 399.958125 
Q 79.085465 400.183125 78.37109 400.629375 
L 78.37109 398.7075 
Q 79.13234 398.45625 79.876715 398.325 
Q 80.62109 398.191875 81.335465 398.191875 
Q 82.906715 398.191875 83.776715 398.88375 
Q 84.646715 399.57375 84.646715 400.81125 
Q 84.646715 401.525625 84.27734 402.144375 
Q 83.907965 402.76125 82.72484 403.8 
L 80.855465 405.440625 
z
"/>
   </g>
   <g id="text_7">
    <path d="M 61.282106 380.240625 
L 65.131481 380.240625 
L 65.131481 381.898125 
L 58.773356 381.898125 
L 58.773356 380.240625 
L 61.966481 377.420625 
Q 62.395856 377.034375 62.600231 376.665 
Q 62.804606 376.295625 62.804606 375.898125 
Q 62.804606 375.283125 62.392106 374.908125 
Q 61.979606 374.533125 61.293356 374.533125 
Q 60.766481 374.533125 60.138356 374.758125 
Q 59.512106 374.983125 58.797731 375.429375 
L 58.797731 373.5075 
Q 59.558981 373.25625 60.303356 373.125 
Q 61.047731 372.991875 61.762106 372.991875 
Q 63.333356 372.991875 64.203356 373.68375 
Q 65.073356 374.37375 65.073356 375.61125 
Q 65.073356 376.325625 64.703981 376.944375 
Q 64.334606 377.56125 63.151481 378.6 
L 61.282106 380.240625 
z
M 67.39859 379.63125 
L 69.507965 379.63125 
L 69.507965 381.898125 
L 67.39859 381.898125 
L 67.39859 379.63125 
z
M 76.322184 377.180625 
Q 77.207184 377.409375 77.666559 377.975625 
Q 78.127809 378.54 78.127809 379.41375 
Q 78.127809 380.715 77.130309 381.391875 
Q 76.134684 382.06875 74.225934 382.06875 
Q 73.550934 382.06875 72.874059 381.96 
Q 72.197184 381.85125 71.535309 381.63375 
L 71.535309 379.89375 
Q 72.169059 380.210625 72.791559 380.371875 
Q 73.415934 380.533125 74.019684 380.533125 
Q 74.915934 380.533125 75.394059 380.22375 
Q 75.872184 379.9125 75.872184 379.33125 
Q 75.872184 378.733125 75.382809 378.425625 
Q 74.893434 378.118125 73.937184 378.118125 
L 73.035309 378.118125 
L 73.035309 376.665 
L 73.984059 376.665 
Q 74.835309 376.665 75.249684 376.39875 
Q 75.665934 376.1325 75.665934 375.586875 
Q 75.665934 375.084375 75.260934 374.80875 
Q 74.857809 374.533125 74.119059 374.533125 
Q 73.575309 374.533125 73.018434 374.656875 
Q 72.461559 374.77875 71.910309 375.01875 
L 71.910309 373.366875 
Q 72.577809 373.179375 73.234059 373.085625 
Q 73.890309 372.991875 74.524059 372.991875 
Q 76.228434 372.991875 77.074059 373.5525 
Q 77.921559 374.11125 77.921559 375.23625 
Q 77.921559 376.003125 77.516559 376.4925 
Q 77.113434 376.981875 76.322184 377.180625 
z
M 82.539919 380.240625 
L 86.389294 380.240625 
L 86.389294 381.898125 
L 80.031169 381.898125 
L 80.031169 380.240625 
L 83.224294 377.420625 
Q 83.653669 377.034375 83.858044 376.665 
Q 84.062419 376.295625 84.062419 375.898125 
Q 84.062419 375.283125 83.649919 374.908125 
Q 83.237419 374.533125 82.551169 374.533125 
Q 82.024294 374.533125 81.396169 374.758125 
Q 80.769919 374.983125 80.055544 375.429375 
L 80.055544 373.5075 
Q 80.816794 373.25625 81.561169 373.125 
Q 82.305544 372.991875 83.019919 372.991875 
Q 84.591169 372.991875 85.461169 373.68375 
Q 86.331169 374.37375 86.331169 375.61125 
Q 86.331169 376.325625 85.961794 376.944375 
Q 85.592419 377.56125 84.409294 378.6 
L 82.539919 380.240625 
z
" style="stroke: #ffffff"/>
    <path d="M 61.282106 380.240625 
L 65.131481 380.240625 
L 65.131481 381.898125 
L 58.773356 381.898125 
L 58.773356 380.240625 
L 61.966481 377.420625 
Q 62.395856 377.034375 62.600231 376.665 
Q 62.804606 376.295625 62.804606 375.898125 
Q 62.804606 375.283125 62.392106 374.908125 
Q 61.979606 374.533125 61.293356 374.533125 
Q 60.766481 374.533125 60.138356 374.758125 
Q 59.512106 374.983125 58.797731 375.429375 
L 58.797731 373.5075 
Q 59.558981 373.25625 60.303356 373.125 
Q 61.047731 372.991875 61.762106 372.991875 
Q 63.333356 372.991875 64.203356 373.68375 
Q 65.073356 374.37375 65.073356 375.61125 
Q 65.073356 376.325625 64.703981 376.944375 
Q 64.334606 377.56125 63.151481 378.6 
L 61.282106 380.240625 
z
M 67.39859 379.63125 
L 69.507965 379.63125 
L 69.507965 381.898125 
L 67.39859 381.898125 
L 67.39859 379.63125 
z
M 76.322184 377.180625 
Q 77.207184 377.409375 77.666559 377.975625 
Q 78.127809 378.54 78.127809 379.41375 
Q 78.127809 380.715 77.130309 381.391875 
Q 76.134684 382.06875 74.225934 382.06875 
Q 73.550934 382.06875 72.874059 381.96 
Q 72.197184 381.85125 71.535309 381.63375 
L 71.535309 379.89375 
Q 72.169059 380.210625 72.791559 380.371875 
Q 73.415934 380.533125 74.019684 380.533125 
Q 74.915934 380.533125 75.394059 380.22375 
Q 75.872184 379.9125 75.872184 379.33125 
Q 75.872184 378.733125 75.382809 378.425625 
Q 74.893434 378.118125 73.937184 378.118125 
L 73.035309 378.118125 
L 73.035309 376.665 
L 73.984059 376.665 
Q 74.835309 376.665 75.249684 376.39875 
Q 75.665934 376.1325 75.665934 375.586875 
Q 75.665934 375.084375 75.260934 374.80875 
Q 74.857809 374.533125 74.119059 374.533125 
Q 73.575309 374.533125 73.018434 374.656875 
Q 72.461559 374.77875 71.910309 375.01875 
L 71.910309 373.366875 
Q 72.577809 373.179375 73.234059 373.085625 
Q 73.890309 372.991875 74.524059 372.991875 
Q 76.228434 372.991875 77.074059 373.5525 
Q 77.921559 374.11125 77.921559 375.23625 
Q 77.921559 376.003125 77.516559 376.4925 
Q 77.113434 376.981875 76.322184 377.180625 
z
M 82.539919 380.240625 
L 86.389294 380.240625 
L 86.389294 381.898125 
L 80.031169 381.898125 
L 80.031169 380.240625 
L 83.224294 377.420625 
Q 83.653669 377.034375 83.858044 376.665 
Q 84.062419 376.295625 84.062419 375.898125 
Q 84.062419 375.283125 83.649919 374.908125 
Q 83.237419 374.533125 82.551169 374.533125 
Q 82.024294 374.533125 81.396169 374.758125 
Q 80.769919 374.983125 80.055544 375.429375 
L 80.055544 373.5075 
Q 80.816794 373.25625 81.561169 373.125 
Q 82.305544 372.991875 83.019919 372.991875 
Q 84.591169 372.991875 85.461169 373.68375 
Q 86.331169 374.37375 86.331169 375.61125 
Q 86.331169 376.325625 85.961794 376.944375 
Q 85.592419 377.56125 84.409294 378.6 
L 82.539919 380.240625 
z
"/>
   </g>
   <g id="text_8">
    <path d="M 59.095856 347.949375 
L 64.703981 347.949375 
L 64.703981 349.60875 
L 60.895856 349.60875 
L 60.895856 350.9625 
Q 61.152731 350.89125 61.413356 350.85375 
Q 61.673981 350.814375 61.955231 350.814375 
Q 63.554606 350.814375 64.445231 351.615 
Q 65.335856 352.415625 65.335856 353.844375 
Q 65.335856 355.261875 64.366481 356.06625 
Q 63.397106 356.86875 61.673981 356.86875 
Q 60.929606 356.86875 60.200231 356.724375 
Q 59.470856 356.58 58.750856 356.2875 
L 58.750856 354.511875 
Q 59.465231 354.9225 60.106481 355.12875 
Q 60.747731 355.333125 61.317731 355.333125 
Q 62.137106 355.333125 62.607731 354.931875 
Q 63.080231 354.530625 63.080231 353.844375 
Q 63.080231 353.1525 62.607731 352.755 
Q 62.137106 352.355625 61.317731 352.355625 
Q 60.830231 352.355625 60.278981 352.483125 
Q 59.729606 352.60875 59.095856 352.87125 
L 59.095856 347.949375 
z
M 67.39859 354.43125 
L 69.507965 354.43125 
L 69.507965 356.698125 
L 67.39859 356.698125 
L 67.39859 354.43125 
z
M 75.075309 352.38 
Q 74.482809 352.38 74.186559 352.764375 
Q 73.890309 353.146875 73.890309 353.915625 
Q 73.890309 354.6825 74.186559 355.066875 
Q 74.482809 355.449375 75.075309 355.449375 
Q 75.671559 355.449375 75.967809 355.066875 
Q 76.264059 354.6825 76.264059 353.915625 
Q 76.264059 353.146875 75.967809 352.764375 
Q 75.671559 352.38 75.075309 352.38 
z
M 77.863434 348.178125 
L 77.863434 349.79625 
Q 77.306559 349.531875 76.813434 349.40625 
Q 76.322184 349.280625 75.853434 349.280625 
Q 74.846559 349.280625 74.284059 349.84125 
Q 73.721559 350.4 73.627809 351.500625 
Q 74.014059 351.21375 74.464059 351.07125 
Q 74.915934 350.926875 75.450309 350.926875 
Q 76.790934 350.926875 77.614059 351.7125 
Q 78.437184 352.49625 78.437184 353.7675 
Q 78.437184 355.17375 77.516559 356.02125 
Q 76.597809 356.86875 75.050934 356.86875 
Q 73.346559 356.86875 72.410934 355.7175 
Q 71.477184 354.564375 71.477184 352.449375 
Q 71.477184 350.281875 72.570309 349.0425 
Q 73.663434 347.803125 75.566559 347.803125 
Q 76.170309 347.803125 76.738434 347.896875 
Q 77.306559 347.990625 77.863434 348.178125 
z
M 80.488669 355.14 
L 82.481794 355.14 
L 82.481794 349.485 
L 80.436169 349.906875 
L 80.436169 348.37125 
L 82.468669 347.949375 
L 84.613669 347.949375 
L 84.613669 355.14 
L 86.606794 355.14 
L 86.606794 356.698125 
L 80.488669 356.698125 
L 80.488669 355.14 
z
" style="stroke: #ffffff"/>
    <path d="M 59.095856 347.949375 
L 64.703981 347.949375 
L 64.703981 349.60875 
L 60.895856 349.60875 
L 60.895856 350.9625 
Q 61.152731 350.89125 61.413356 350.85375 
Q 61.673981 350.814375 61.955231 350.814375 
Q 63.554606 350.814375 64.445231 351.615 
Q 65.335856 352.415625 65.335856 353.844375 
Q 65.335856 355.261875 64.366481 356.06625 
Q 63.397106 356.86875 61.673981 356.86875 
Q 60.929606 356.86875 60.200231 356.724375 
Q 59.470856 356.58 58.750856 356.2875 
L 58.750856 354.511875 
Q 59.465231 354.9225 60.106481 355.12875 
Q 60.747731 355.333125 61.317731 355.333125 
Q 62.137106 355.333125 62.607731 354.931875 
Q 63.080231 354.530625 63.080231 353.844375 
Q 63.080231 353.1525 62.607731 352.755 
Q 62.137106 352.355625 61.317731 352.355625 
Q 60.830231 352.355625 60.278981 352.483125 
Q 59.729606 352.60875 59.095856 352.87125 
L 59.095856 347.949375 
z
M 67.39859 354.43125 
L 69.507965 354.43125 
L 69.507965 356.698125 
L 67.39859 356.698125 
L 67.39859 354.43125 
z
M 75.075309 352.38 
Q 74.482809 352.38 74.186559 352.764375 
Q 73.890309 353.146875 73.890309 353.915625 
Q 73.890309 354.6825 74.186559 355.066875 
Q 74.482809 355.449375 75.075309 355.449375 
Q 75.671559 355.449375 75.967809 355.066875 
Q 76.264059 354.6825 76.264059 353.915625 
Q 76.264059 353.146875 75.967809 352.764375 
Q 75.671559 352.38 75.075309 352.38 
z
M 77.863434 348.178125 
L 77.863434 349.79625 
Q 77.306559 349.531875 76.813434 349.40625 
Q 76.322184 349.280625 75.853434 349.280625 
Q 74.846559 349.280625 74.284059 349.84125 
Q 73.721559 350.4 73.627809 351.500625 
Q 74.014059 351.21375 74.464059 351.07125 
Q 74.915934 350.926875 75.450309 350.926875 
Q 76.790934 350.926875 77.614059 351.7125 
Q 78.437184 352.49625 78.437184 353.7675 
Q 78.437184 355.17375 77.516559 356.02125 
Q 76.597809 356.86875 75.050934 356.86875 
Q 73.346559 356.86875 72.410934 355.7175 
Q 71.477184 354.564375 71.477184 352.449375 
Q 71.477184 350.281875 72.570309 349.0425 
Q 73.663434 347.803125 75.566559 347.803125 
Q 76.170309 347.803125 76.738434 347.896875 
Q 77.306559 347.990625 77.863434 348.178125 
z
M 80.488669 355.14 
L 82.481794 355.14 
L 82.481794 349.485 
L 80.436169 349.906875 
L 80.436169 348.37125 
L 82.468669 347.949375 
L 84.613669 347.949375 
L 84.613669 355.14 
L 86.606794 355.14 
L 86.606794 356.698125 
L 80.488669 356.698125 
L 80.488669 355.14 
z
"/>
   </g>
   <g id="text_9">
    <path d="M 55.056169 329.94 
L 57.049294 329.94 
L 57.049294 324.285 
L 55.003669 324.706875 
L 55.003669 323.17125 
L 57.036169 322.749375 
L 59.181169 322.749375 
L 59.181169 329.94 
L 61.174294 329.94 
L 61.174294 331.498125 
L 55.056169 331.498125 
L 55.056169 329.94 
z
M 67.519528 327.114375 
Q 67.519528 325.47375 67.212028 324.804375 
Q 66.904528 324.133125 66.177028 324.133125 
Q 65.451403 324.133125 65.140153 324.804375 
Q 64.828903 325.47375 64.828903 327.114375 
Q 64.828903 328.77375 65.140153 329.454375 
Q 65.451403 330.133125 66.177028 330.133125 
Q 66.898903 330.133125 67.208278 329.454375 
Q 67.519528 328.77375 67.519528 327.114375 
z
M 69.775153 327.133125 
Q 69.775153 329.30625 68.837653 330.4875 
Q 67.900153 331.66875 66.177028 331.66875 
Q 64.448278 331.66875 63.510778 330.4875 
Q 62.573278 329.30625 62.573278 327.133125 
Q 62.573278 324.9525 63.510778 323.773125 
Q 64.448278 322.591875 66.177028 322.591875 
Q 67.900153 322.591875 68.837653 323.773125 
Q 69.775153 324.9525 69.775153 327.133125 
z
M 71.573512 329.23125 
L 73.682887 329.23125 
L 73.682887 331.498125 
L 71.573512 331.498125 
L 71.573512 329.23125 
z
M 79.085231 327.583125 
Q 78.453356 327.583125 78.112106 327.93 
Q 77.772731 328.275 77.772731 328.92 
Q 77.772731 329.565 78.112106 329.908125 
Q 78.453356 330.249375 79.085231 330.249375 
Q 79.713356 330.249375 80.047106 329.908125 
Q 80.380856 329.565 80.380856 328.92 
Q 80.380856 328.269375 80.047106 327.92625 
Q 79.713356 327.583125 79.085231 327.583125 
z
M 77.438981 326.840625 
Q 76.642106 326.59875 76.237106 326.101875 
Q 75.833981 325.603125 75.833981 324.85875 
Q 75.833981 323.7525 76.658981 323.173125 
Q 77.485856 322.591875 79.085231 322.591875 
Q 80.673356 322.591875 81.498356 323.169375 
Q 82.325231 323.746875 82.325231 324.85875 
Q 82.325231 325.603125 81.918356 326.101875 
Q 81.511481 326.59875 80.714606 326.840625 
Q 81.605231 327.08625 82.058981 327.639375 
Q 82.512731 328.1925 82.512731 329.03625 
Q 82.512731 330.3375 81.648356 331.003125 
Q 80.783981 331.66875 79.085231 331.66875 
Q 77.380856 331.66875 76.510856 331.003125 
Q 75.640856 330.3375 75.640856 329.03625 
Q 75.640856 328.1925 76.094606 327.639375 
Q 76.548356 327.08625 77.438981 326.840625 
z
M 77.965856 325.0875 
Q 77.965856 325.60875 78.256481 325.89 
Q 78.547106 326.17125 79.085231 326.17125 
Q 79.612106 326.17125 79.898981 325.89 
Q 80.187731 325.60875 80.187731 325.0875 
Q 80.187731 324.56625 79.898981 324.28875 
Q 79.612106 324.009375 79.085231 324.009375 
Q 78.547106 324.009375 78.256481 324.290625 
Q 77.965856 324.571875 77.965856 325.0875 
z
M 84.52859 322.749375 
L 90.136715 322.749375 
L 90.136715 324.40875 
L 86.32859 324.40875 
L 86.32859 325.7625 
Q 86.585465 325.69125 86.84609 325.65375 
Q 87.106715 325.614375 87.387965 325.614375 
Q 88.98734 325.614375 89.877965 326.415 
Q 90.76859 327.215625 90.76859 328.644375 
Q 90.76859 330.061875 89.799215 330.86625 
Q 88.82984 331.66875 87.106715 331.66875 
Q 86.36234 331.66875 85.632965 331.524375 
Q 84.90359 331.38 84.18359 331.0875 
L 84.18359 329.311875 
Q 84.897965 329.7225 85.539215 329.92875 
Q 86.180465 330.133125 86.750465 330.133125 
Q 87.56984 330.133125 88.040465 329.731875 
Q 88.512965 329.330625 88.512965 328.644375 
Q 88.512965 327.9525 88.040465 327.555 
Q 87.56984 327.155625 86.750465 327.155625 
Q 86.262965 327.155625 85.711715 327.283125 
Q 85.16234 327.40875 84.52859 327.67125 
L 84.52859 322.749375 
z
" style="stroke: #ffffff"/>
    <path d="M 55.056169 329.94 
L 57.049294 329.94 
L 57.049294 324.285 
L 55.003669 324.706875 
L 55.003669 323.17125 
L 57.036169 322.749375 
L 59.181169 322.749375 
L 59.181169 329.94 
L 61.174294 329.94 
L 61.174294 331.498125 
L 55.056169 331.498125 
L 55.056169 329.94 
z
M 67.519528 327.114375 
Q 67.519528 325.47375 67.212028 324.804375 
Q 66.904528 324.133125 66.177028 324.133125 
Q 65.451403 324.133125 65.140153 324.804375 
Q 64.828903 325.47375 64.828903 327.114375 
Q 64.828903 328.77375 65.140153 329.454375 
Q 65.451403 330.133125 66.177028 330.133125 
Q 66.898903 330.133125 67.208278 329.454375 
Q 67.519528 328.77375 67.519528 327.114375 
z
M 69.775153 327.133125 
Q 69.775153 329.30625 68.837653 330.4875 
Q 67.900153 331.66875 66.177028 331.66875 
Q 64.448278 331.66875 63.510778 330.4875 
Q 62.573278 329.30625 62.573278 327.133125 
Q 62.573278 324.9525 63.510778 323.773125 
Q 64.448278 322.591875 66.177028 322.591875 
Q 67.900153 322.591875 68.837653 323.773125 
Q 69.775153 324.9525 69.775153 327.133125 
z
M 71.573512 329.23125 
L 73.682887 329.23125 
L 73.682887 331.498125 
L 71.573512 331.498125 
L 71.573512 329.23125 
z
M 79.085231 327.583125 
Q 78.453356 327.583125 78.112106 327.93 
Q 77.772731 328.275 77.772731 328.92 
Q 77.772731 329.565 78.112106 329.908125 
Q 78.453356 330.249375 79.085231 330.249375 
Q 79.713356 330.249375 80.047106 329.908125 
Q 80.380856 329.565 80.380856 328.92 
Q 80.380856 328.269375 80.047106 327.92625 
Q 79.713356 327.583125 79.085231 327.583125 
z
M 77.438981 326.840625 
Q 76.642106 326.59875 76.237106 326.101875 
Q 75.833981 325.603125 75.833981 324.85875 
Q 75.833981 323.7525 76.658981 323.173125 
Q 77.485856 322.591875 79.085231 322.591875 
Q 80.673356 322.591875 81.498356 323.169375 
Q 82.325231 323.746875 82.325231 324.85875 
Q 82.325231 325.603125 81.918356 326.101875 
Q 81.511481 326.59875 80.714606 326.840625 
Q 81.605231 327.08625 82.058981 327.639375 
Q 82.512731 328.1925 82.512731 329.03625 
Q 82.512731 330.3375 81.648356 331.003125 
Q 80.783981 331.66875 79.085231 331.66875 
Q 77.380856 331.66875 76.510856 331.003125 
Q 75.640856 330.3375 75.640856 329.03625 
Q 75.640856 328.1925 76.094606 327.639375 
Q 76.548356 327.08625 77.438981 326.840625 
z
M 77.965856 325.0875 
Q 77.965856 325.60875 78.256481 325.89 
Q 78.547106 326.17125 79.085231 326.17125 
Q 79.612106 326.17125 79.898981 325.89 
Q 80.187731 325.60875 80.187731 325.0875 
Q 80.187731 324.56625 79.898981 324.28875 
Q 79.612106 324.009375 79.085231 324.009375 
Q 78.547106 324.009375 78.256481 324.290625 
Q 77.965856 324.571875 77.965856 325.0875 
z
M 84.52859 322.749375 
L 90.136715 322.749375 
L 90.136715 324.40875 
L 86.32859 324.40875 
L 86.32859 325.7625 
Q 86.585465 325.69125 86.84609 325.65375 
Q 87.106715 325.614375 87.387965 325.614375 
Q 88.98734 325.614375 89.877965 326.415 
Q 90.76859 327.215625 90.76859 328.644375 
Q 90.76859 330.061875 89.799215 330.86625 
Q 88.82984 331.66875 87.106715 331.66875 
Q 86.36234 331.66875 85.632965 331.524375 
Q 84.90359 331.38 84.18359 331.0875 
L 84.18359 329.311875 
Q 84.897965 329.7225 85.539215 329.92875 
Q 86.180465 330.133125 86.750465 330.133125 
Q 87.56984 330.133125 88.040465 329.731875 
Q 88.512965 329.330625 88.512965 328.644375 
Q 88.512965 327.9525 88.040465 327.555 
Q 87.56984 327.155625 86.750465 327.155625 
Q 86.262965 327.155625 85.711715 327.283125 
Q 85.16234 327.40875 84.52859 327.67125 
L 84.52859 322.749375 
z
"/>
   </g>
   <g id="text_10">
    <path d="M 50.881481 304.74 
L 52.874606 304.74 
L 52.874606 299.085 
L 50.828981 299.506875 
L 50.828981 297.97125 
L 52.861481 297.549375 
L 55.006481 297.549375 
L 55.006481 304.74 
L 56.999606 304.74 
L 56.999606 306.298125 
L 50.881481 306.298125 
L 50.881481 304.74 
z
M 59.23109 304.74 
L 61.224215 304.74 
L 61.224215 299.085 
L 59.17859 299.506875 
L 59.17859 297.97125 
L 61.21109 297.549375 
L 63.35609 297.549375 
L 63.35609 304.74 
L 65.349215 304.74 
L 65.349215 306.298125 
L 59.23109 306.298125 
L 59.23109 304.74 
z
M 67.376325 306.105 
L 67.376325 304.486875 
Q 67.91445 304.74 68.4057 304.865625 
Q 68.898825 304.99125 69.378825 304.99125 
Q 70.387575 304.99125 70.950075 304.4325 
Q 71.512575 303.871875 71.61195 302.77125 
Q 71.21445 303.06375 70.762575 303.21 
Q 70.3107 303.35625 69.783825 303.35625 
Q 68.441325 303.35625 67.6182 302.574375 
Q 66.795075 301.7925 66.795075 300.515625 
Q 66.795075 299.101875 67.71195 298.2525 
Q 68.628825 297.403125 70.170075 297.403125 
Q 71.88195 297.403125 72.81945 298.558125 
Q 73.75695 299.71125 73.75695 301.820625 
Q 73.75695 303.99 72.660075 305.229375 
Q 71.565075 306.46875 69.65445 306.46875 
Q 69.03945 306.46875 68.47695 306.376875 
Q 67.91445 306.286875 67.376325 306.105 
z
M 70.158825 301.891875 
Q 70.751325 301.891875 71.04945 301.509375 
Q 71.347575 301.125 71.347575 300.35625 
Q 71.347575 299.595 71.04945 299.20875 
Q 70.751325 298.820625 70.158825 298.820625 
Q 69.566325 298.820625 69.2682 299.20875 
Q 68.970075 299.595 68.970075 300.35625 
Q 68.970075 301.125 69.2682 301.509375 
Q 69.566325 301.891875 70.158825 301.891875 
z
M 75.748434 304.03125 
L 77.857809 304.03125 
L 77.857809 306.298125 
L 75.748434 306.298125 
L 75.748434 304.03125 
z
M 79.885153 297.549375 
L 86.477653 297.549375 
L 86.477653 298.820625 
L 83.067028 306.298125 
L 80.869528 306.298125 
L 84.098278 299.20875 
L 79.885153 299.20875 
L 79.885153 297.549375 
z
M 88.234762 297.549375 
L 94.827262 297.549375 
L 94.827262 298.820625 
L 91.416637 306.298125 
L 89.219137 306.298125 
L 92.447887 299.20875 
L 88.234762 299.20875 
L 88.234762 297.549375 
z
" style="stroke: #ffffff"/>
    <path d="M 50.881481 304.74 
L 52.874606 304.74 
L 52.874606 299.085 
L 50.828981 299.506875 
L 50.828981 297.97125 
L 52.861481 297.549375 
L 55.006481 297.549375 
L 55.006481 304.74 
L 56.999606 304.74 
L 56.999606 306.298125 
L 50.881481 306.298125 
L 50.881481 304.74 
z
M 59.23109 304.74 
L 61.224215 304.74 
L 61.224215 299.085 
L 59.17859 299.506875 
L 59.17859 297.97125 
L 61.21109 297.549375 
L 63.35609 297.549375 
L 63.35609 304.74 
L 65.349215 304.74 
L 65.349215 306.298125 
L 59.23109 306.298125 
L 59.23109 304.74 
z
M 67.376325 306.105 
L 67.376325 304.486875 
Q 67.91445 304.74 68.4057 304.865625 
Q 68.898825 304.99125 69.378825 304.99125 
Q 70.387575 304.99125 70.950075 304.4325 
Q 71.512575 303.871875 71.61195 302.77125 
Q 71.21445 303.06375 70.762575 303.21 
Q 70.3107 303.35625 69.783825 303.35625 
Q 68.441325 303.35625 67.6182 302.574375 
Q 66.795075 301.7925 66.795075 300.515625 
Q 66.795075 299.101875 67.71195 298.2525 
Q 68.628825 297.403125 70.170075 297.403125 
Q 71.88195 297.403125 72.81945 298.558125 
Q 73.75695 299.71125 73.75695 301.820625 
Q 73.75695 303.99 72.660075 305.229375 
Q 71.565075 306.46875 69.65445 306.46875 
Q 69.03945 306.46875 68.47695 306.376875 
Q 67.91445 306.286875 67.376325 306.105 
z
M 70.158825 301.891875 
Q 70.751325 301.891875 71.04945 301.509375 
Q 71.347575 301.125 71.347575 300.35625 
Q 71.347575 299.595 71.04945 299.20875 
Q 70.751325 298.820625 70.158825 298.820625 
Q 69.566325 298.820625 69.2682 299.20875 
Q 68.970075 299.595 68.970075 300.35625 
Q 68.970075 301.125 69.2682 301.509375 
Q 69.566325 301.891875 70.158825 301.891875 
z
M 75.748434 304.03125 
L 77.857809 304.03125 
L 77.857809 306.298125 
L 75.748434 306.298125 
L 75.748434 304.03125 
z
M 79.885153 297.549375 
L 86.477653 297.549375 
L 86.477653 298.820625 
L 83.067028 306.298125 
L 80.869528 306.298125 
L 84.098278 299.20875 
L 79.885153 299.20875 
L 79.885153 297.549375 
z
M 88.234762 297.549375 
L 94.827262 297.549375 
L 94.827262 298.820625 
L 91.416637 306.298125 
L 89.219137 306.298125 
L 92.447887 299.20875 
L 88.234762 299.20875 
L 88.234762 297.549375 
z
"/>
   </g>
  </g>
  <g id="axes_6">
   <g id="patch_15">
    <path d="M 104.982353 512.64 
L 129.6 512.64 
L 129.6 290.88 
L 104.982353 290.88 
L 104.982353 512.64 
z
" style="fill: none"/>
   </g>
  </g>
 </g>
 <defs>
  <clipPath id="pf2320e5567">
   <rect x="49.182353" y="290.88" width="49.235294" height="221.76"/>
  </clipPath>
 </defs>
</svg>
