<?xml version="1.0" encoding="utf-8" standalone="no"?>
<!DOCTYPE svg PUBLIC "-//W3C//DTD SVG 1.1//EN"
  "http://www.w3.org/Graphics/SVG/1.1/DTD/svg11.dtd">
<svg xmlns:xlink="http://www.w3.org/1999/xlink" width="144pt" height="576pt" viewBox="0 0 144 576" xmlns="http://www.w3.org/2000/svg" version="1.1">
 <metadata>
  <rdf:RDF xmlns:dc="http://purl.org/dc/elements/1.1/" xmlns:cc="http://creativecommons.org/ns#" xmlns:rdf="http://www.w3.org/1999/02/22-rdf-syntax-ns#">
   <cc:Work>
    <dc:type rdf:resource="http://purl.org/dc/dcmitype/StillImage"/>
    <dc:date>2023-08-03T00:52:13.651364</dc:date>
    <dc:format>image/svg+xml</dc:format>
    <dc:creator>
     <cc:Agent>
      <dc:title>Matplotlib v3.5.1, https://matplotlib.org/</dc:title>
     </cc:Agent>
    </dc:creator>
   </cc:Work>
  </rdf:RDF>
 </metadata>
 <defs>
  <style type="text/css">*{stroke-linejoin: round; stroke-linecap: butt}</style>
 </defs>
 <g id="figure_1">
  <g id="patch_1">
   <path d="M 0 576 
L 144 576 
L 144 0 
L 0 0 
L 0 576 
z
" style="fill: none"/>
  </g>
  <g id="axes_1">
   <g id="patch_2">
    <path d="M 18 290.88 
L 42.617647 290.88 
L 42.617647 69.12 
L 18 69.12 
L 18 290.88 
z
" style="fill: none"/>
   </g>
  </g>
  <g id="axes_2">
   <g id="patch_3">
    <path d="M 49.182353 290.88 
L 98.417647 290.88 
L 98.417647 69.12 
L 49.182353 69.12 
L 49.182353 290.88 
z
" style="fill: none"/>
   </g>
   <g id="text_1">
    <path d="M 21.0525 253.927125 
L 19.445625 258.280875 
L 22.663125 258.280875 
L 21.0525 253.927125 
z
M 20.383125 252.760875 
L 21.725625 252.760875 
L 25.059375 261.509625 
L 23.829375 261.509625 
L 23.0325 259.26525 
L 19.089375 259.26525 
L 18.2925 261.509625 
L 17.04375 261.509625 
L 20.383125 252.760875 
z
M 32.677734 253.435875 
L 32.677734 254.68275 
Q 32.079609 254.125875 31.402734 253.852125 
Q 30.725859 253.5765 29.964609 253.5765 
Q 28.464609 253.5765 27.667734 254.493375 
Q 26.870859 255.41025 26.870859 257.144625 
Q 26.870859 258.873375 27.667734 259.79025 
Q 28.464609 260.707125 29.964609 260.707125 
Q 30.725859 260.707125 31.402734 260.4315 
Q 32.079609 260.155875 32.677734 259.599 
L 32.677734 260.8365 
Q 32.057109 261.258375 31.361484 261.47025 
Q 30.667734 261.68025 29.895234 261.68025 
Q 27.907734 261.68025 26.763984 260.46525 
Q 25.622109 259.248375 25.622109 257.144625 
Q 25.622109 255.03525 26.763984 253.82025 
Q 27.907734 252.603375 29.895234 252.603375 
Q 30.678984 252.603375 31.372734 252.8115 
Q 32.068359 253.019625 32.677734 253.435875 
z
M 39.749766 253.04775 
L 39.749766 254.20275 
Q 39.076641 253.88025 38.478516 253.72275 
Q 37.880391 253.563375 37.323516 253.563375 
Q 36.357891 253.563375 35.832891 253.938375 
Q 35.307891 254.313375 35.307891 255.00525 
Q 35.307891 255.5865 35.656641 255.88275 
Q 36.005391 256.177125 36.978516 256.359 
L 37.692891 256.50525 
Q 39.016641 256.758375 39.646641 257.394 
Q 40.276641 258.029625 40.276641 259.094625 
Q 40.276641 260.36775 39.423516 261.024 
Q 38.572266 261.68025 36.926016 261.68025 
Q 36.305391 261.68025 35.604141 261.539625 
Q 34.904766 261.399 34.154766 261.123375 
L 34.154766 259.904625 
Q 34.874766 260.30775 35.566641 260.514 
Q 36.258516 260.718375 36.926016 260.718375 
Q 37.938516 260.718375 38.489766 260.320875 
Q 39.041016 259.9215 39.041016 259.18275 
Q 39.041016 258.539625 38.645391 258.175875 
Q 38.249766 257.812125 37.347891 257.63025 
L 36.626016 257.489625 
Q 35.302266 257.227125 34.709766 256.664625 
Q 34.119141 256.102125 34.119141 255.099 
Q 34.119141 253.938375 34.936641 253.270875 
Q 35.754141 252.603375 37.188516 252.603375 
Q 37.805391 252.603375 38.442891 252.715875 
Q 39.082266 252.8265 39.749766 253.04775 
z
M 42.240703 252.760875 
L 46.886953 252.760875 
L 46.886953 253.758375 
L 43.324453 253.758375 
L 43.324453 255.9015 
Q 43.581328 255.813375 43.838203 255.77025 
Q 44.096953 255.727125 44.355703 255.727125 
Q 45.820078 255.727125 46.675078 256.529625 
Q 47.531953 257.332125 47.531953 258.70275 
Q 47.531953 260.114625 46.652578 260.898375 
Q 45.773203 261.68025 44.173828 261.68025 
Q 43.622578 261.68025 43.050703 261.5865 
Q 42.480703 261.49275 41.871328 261.30525 
L 41.871328 260.114625 
Q 42.398203 260.4015 42.960703 260.542125 
Q 43.523203 260.68275 44.149453 260.68275 
Q 45.163828 260.68275 45.754453 260.15025 
Q 46.346953 259.61775 46.346953 258.70275 
Q 46.346953 257.789625 45.754453 257.257125 
Q 45.163828 256.72275 44.149453 256.72275 
Q 43.675078 256.72275 43.202578 256.82775 
Q 42.731953 256.93275 42.240703 257.155875 
L 42.240703 252.760875 
z
M 54.754922 253.734 
L 54.754922 257.020875 
L 56.243672 257.020875 
Q 57.070547 257.020875 57.520547 256.593375 
Q 57.972422 256.165875 57.972422 255.374625 
Q 57.972422 254.589 57.520547 254.1615 
Q 57.070547 253.734 56.243672 253.734 
L 54.754922 253.734 
z
M 53.571797 252.760875 
L 56.243672 252.760875 
Q 57.715547 252.760875 58.467422 253.4265 
Q 59.221172 254.092125 59.221172 255.374625 
Q 59.221172 256.67025 58.467422 257.332125 
Q 57.715547 257.994 56.243672 257.994 
L 54.754922 257.994 
L 54.754922 261.509625 
L 53.571797 261.509625 
L 53.571797 252.760875 
z
M 62.86875 255.70275 
Q 62.0025 255.70275 61.498125 256.379625 
Q 60.99375 257.0565 60.99375 258.234 
Q 60.99375 259.4115 61.494375 260.088375 
Q 61.996875 260.76525 62.86875 260.76525 
Q 63.73125 260.76525 64.23375 260.0865 
Q 64.738125 259.405875 64.738125 258.234 
Q 64.738125 257.06775 64.23375 256.38525 
Q 63.73125 255.70275 62.86875 255.70275 
z
M 62.86875 254.789625 
Q 64.275 254.789625 65.0775 255.704625 
Q 65.881875 256.61775 65.881875 258.234 
Q 65.881875 259.844625 65.0775 260.763375 
Q 64.275 261.68025 62.86875 261.68025 
Q 61.456875 261.68025 60.65625 260.763375 
Q 59.8575 259.844625 59.8575 258.234 
Q 59.8575 256.61775 60.65625 255.704625 
Q 61.456875 254.789625 62.86875 254.789625 
z
M 68.710547 260.52525 
L 68.710547 264.00525 
L 67.626797 264.00525 
L 67.626797 254.947125 
L 68.710547 254.947125 
L 68.710547 255.94275 
Q 69.051797 255.35775 69.569297 255.074625 
Q 70.088672 254.789625 70.808672 254.789625 
Q 72.004922 254.789625 72.751172 255.738375 
Q 73.499297 256.687125 73.499297 258.234 
Q 73.499297 259.780875 72.751172 260.7315 
Q 72.004922 261.68025 70.808672 261.68025 
Q 70.088672 261.68025 69.569297 261.39525 
Q 69.051797 261.11025 68.710547 260.52525 
z
M 72.379922 258.234 
Q 72.379922 257.04525 71.890547 256.368375 
Q 71.401172 255.6915 70.546172 255.6915 
Q 69.689297 255.6915 69.199922 256.368375 
Q 68.710547 257.04525 68.710547 258.234 
Q 68.710547 259.42275 69.199922 260.099625 
Q 69.689297 260.7765 70.546172 260.7765 
Q 71.401172 260.7765 71.890547 260.099625 
Q 72.379922 259.42275 72.379922 258.234 
z
M 75.174609 258.92025 
L 75.174609 254.947125 
L 76.252734 254.947125 
L 76.252734 258.879 
Q 76.252734 259.810875 76.614609 260.27775 
Q 76.978359 260.74275 77.705859 260.74275 
Q 78.577734 260.74275 79.083984 260.185875 
Q 79.592109 259.629 79.592109 258.667125 
L 79.592109 254.947125 
L 80.670234 254.947125 
L 80.670234 261.509625 
L 79.592109 261.509625 
L 79.592109 260.500875 
Q 79.200234 261.099 78.680859 261.389625 
Q 78.163359 261.68025 77.477109 261.68025 
Q 76.346484 261.68025 75.759609 260.977125 
Q 75.174609 260.274 75.174609 258.92025 
z
M 77.887734 254.789625 
L 77.887734 254.789625 
z
M 82.890703 252.3915 
L 83.968828 252.3915 
L 83.968828 261.509625 
L 82.890703 261.509625 
L 82.890703 252.3915 
z
M 89.207813 258.2115 
Q 87.900937 258.2115 87.396563 258.509625 
Q 86.892188 258.80775 86.892188 259.529625 
Q 86.892188 260.103375 87.270938 260.440875 
Q 87.649687 260.7765 88.298438 260.7765 
Q 89.196562 260.7765 89.738438 260.140875 
Q 90.280313 259.50525 90.280313 258.4515 
L 90.280313 258.2115 
L 89.207813 258.2115 
z
M 91.358438 257.76525 
L 91.358438 261.509625 
L 90.280313 261.509625 
L 90.280313 260.514 
Q 89.910938 261.11025 89.359688 261.39525 
Q 88.808437 261.68025 88.011562 261.68025 
Q 87.004688 261.68025 86.408438 261.114 
Q 85.814063 260.54775 85.814063 259.599 
Q 85.814063 258.49275 86.554688 257.93025 
Q 87.297188 257.36775 88.767188 257.36775 
L 90.280313 257.36775 
L 90.280313 257.260875 
Q 90.280313 256.5165 89.790938 256.109625 
Q 89.301563 255.70275 88.416562 255.70275 
Q 87.854062 255.70275 87.319688 255.83775 
Q 86.787188 255.97275 86.295938 256.24275 
L 86.295938 255.24525 
Q 86.886562 255.0165 87.443438 254.904 
Q 88.000313 254.789625 88.527187 254.789625 
Q 89.952188 254.789625 90.655313 255.528375 
Q 91.358438 256.26525 91.358438 257.76525 
z
M 94.645078 253.083375 
L 94.645078 254.947125 
L 96.865078 254.947125 
L 96.865078 255.78525 
L 94.645078 255.78525 
L 94.645078 259.34775 
Q 94.645078 260.15025 94.864453 260.379 
Q 95.083828 260.60775 95.758828 260.60775 
L 96.865078 260.60775 
L 96.865078 261.509625 
L 95.758828 261.509625 
Q 94.510078 261.509625 94.035703 261.044625 
Q 93.561328 260.57775 93.561328 259.34775 
L 93.561328 255.78525 
L 92.770078 255.78525 
L 92.770078 254.947125 
L 93.561328 254.947125 
L 93.561328 253.083375 
L 94.645078 253.083375 
z
M 98.283281 254.947125 
L 99.361406 254.947125 
L 99.361406 261.509625 
L 98.283281 261.509625 
L 98.283281 254.947125 
z
M 98.283281 252.3915 
L 99.361406 252.3915 
L 99.361406 253.758375 
L 98.283281 253.758375 
L 98.283281 252.3915 
z
M 104.159766 255.70275 
Q 103.293516 255.70275 102.789141 256.379625 
Q 102.284766 257.0565 102.284766 258.234 
Q 102.284766 259.4115 102.785391 260.088375 
Q 103.287891 260.76525 104.159766 260.76525 
Q 105.022266 260.76525 105.524766 260.0865 
Q 106.029141 259.405875 106.029141 258.234 
Q 106.029141 257.06775 105.524766 256.38525 
Q 105.022266 255.70275 104.159766 255.70275 
z
M 104.159766 254.789625 
Q 105.566016 254.789625 106.368516 255.704625 
Q 107.172891 256.61775 107.172891 258.234 
Q 107.172891 259.844625 106.368516 260.763375 
Q 105.566016 261.68025 104.159766 261.68025 
Q 102.747891 261.68025 101.947266 260.763375 
Q 101.148516 259.844625 101.148516 258.234 
Q 101.148516 256.61775 101.947266 255.704625 
Q 102.747891 254.789625 104.159766 254.789625 
z
M 114.415312 257.54775 
L 114.415312 261.509625 
L 113.337187 261.509625 
L 113.337187 257.583375 
Q 113.337187 256.6515 112.973438 256.19025 
Q 112.609688 255.727125 111.884062 255.727125 
Q 111.010312 255.727125 110.505938 256.284 
Q 110.001563 256.839 110.001563 257.800875 
L 110.001563 261.509625 
L 108.917812 261.509625 
L 108.917812 254.947125 
L 110.001563 254.947125 
L 110.001563 255.967125 
Q 110.389688 255.374625 110.912813 255.082125 
Q 111.437813 254.789625 112.124063 254.789625 
Q 113.254688 254.789625 113.834063 255.489 
Q 114.415312 256.188375 114.415312 257.54775 
z
M 127.972734 257.66025 
Q 127.462734 257.66025 127.172109 258.093375 
Q 126.883359 258.5265 126.883359 259.300875 
Q 126.883359 260.062125 127.172109 260.499 
Q 127.462734 260.935875 127.972734 260.935875 
Q 128.471484 260.935875 128.760234 260.499 
Q 129.050859 260.062125 129.050859 259.300875 
Q 129.050859 258.532125 128.760234 258.097125 
Q 128.471484 257.66025 127.972734 257.66025 
z
M 127.972734 256.915875 
Q 128.898984 256.915875 129.442734 257.560875 
Q 129.988359 258.204 129.988359 259.300875 
Q 129.988359 260.395875 129.440859 261.039 
Q 128.893359 261.68025 127.972734 261.68025 
Q 127.035234 261.68025 126.489609 261.039 
Q 125.945859 260.395875 125.945859 259.300875 
Q 125.945859 258.198375 126.493359 257.557125 
Q 127.040859 256.915875 127.972734 256.915875 
z
M 121.925859 253.34775 
Q 121.421484 253.34775 121.130859 253.784625 
Q 120.842109 254.219625 120.842109 254.98275 
Q 120.842109 255.75525 121.128984 256.19025 
Q 121.415859 256.623375 121.925859 256.623375 
Q 122.435859 256.623375 122.724609 256.19025 
Q 123.015234 255.75525 123.015234 254.98275 
Q 123.015234 254.227125 122.722734 253.788375 
Q 122.430234 253.34775 121.925859 253.34775 
z
M 127.217109 252.603375 
L 128.154609 252.603375 
L 122.681484 261.68025 
L 121.743984 261.68025 
L 127.217109 252.603375 
z
M 121.925859 252.603375 
Q 122.852109 252.603375 123.401484 253.244625 
Q 123.952734 253.885875 123.952734 254.98275 
Q 123.952734 256.089 123.405234 256.728375 
Q 122.857734 257.36775 121.925859 257.36775 
Q 120.993984 257.36775 120.452109 256.7265 
Q 119.910234 256.083375 119.910234 254.98275 
Q 119.910234 253.8915 120.453984 253.248375 
Q 120.999609 252.603375 121.925859 252.603375 
z
" style="fill: #ffffff; stroke: #000000; stroke-width: 2"/>
    <path d="M 21.0525 253.927125 
L 19.445625 258.280875 
L 22.663125 258.280875 
L 21.0525 253.927125 
z
M 20.383125 252.760875 
L 21.725625 252.760875 
L 25.059375 261.509625 
L 23.829375 261.509625 
L 23.0325 259.26525 
L 19.089375 259.26525 
L 18.2925 261.509625 
L 17.04375 261.509625 
L 20.383125 252.760875 
z
M 32.677734 253.435875 
L 32.677734 254.68275 
Q 32.079609 254.125875 31.402734 253.852125 
Q 30.725859 253.5765 29.964609 253.5765 
Q 28.464609 253.5765 27.667734 254.493375 
Q 26.870859 255.41025 26.870859 257.144625 
Q 26.870859 258.873375 27.667734 259.79025 
Q 28.464609 260.707125 29.964609 260.707125 
Q 30.725859 260.707125 31.402734 260.4315 
Q 32.079609 260.155875 32.677734 259.599 
L 32.677734 260.8365 
Q 32.057109 261.258375 31.361484 261.47025 
Q 30.667734 261.68025 29.895234 261.68025 
Q 27.907734 261.68025 26.763984 260.46525 
Q 25.622109 259.248375 25.622109 257.144625 
Q 25.622109 255.03525 26.763984 253.82025 
Q 27.907734 252.603375 29.895234 252.603375 
Q 30.678984 252.603375 31.372734 252.8115 
Q 32.068359 253.019625 32.677734 253.435875 
z
M 39.749766 253.04775 
L 39.749766 254.20275 
Q 39.076641 253.88025 38.478516 253.72275 
Q 37.880391 253.563375 37.323516 253.563375 
Q 36.357891 253.563375 35.832891 253.938375 
Q 35.307891 254.313375 35.307891 255.00525 
Q 35.307891 255.5865 35.656641 255.88275 
Q 36.005391 256.177125 36.978516 256.359 
L 37.692891 256.50525 
Q 39.016641 256.758375 39.646641 257.394 
Q 40.276641 258.029625 40.276641 259.094625 
Q 40.276641 260.36775 39.423516 261.024 
Q 38.572266 261.68025 36.926016 261.68025 
Q 36.305391 261.68025 35.604141 261.539625 
Q 34.904766 261.399 34.154766 261.123375 
L 34.154766 259.904625 
Q 34.874766 260.30775 35.566641 260.514 
Q 36.258516 260.718375 36.926016 260.718375 
Q 37.938516 260.718375 38.489766 260.320875 
Q 39.041016 259.9215 39.041016 259.18275 
Q 39.041016 258.539625 38.645391 258.175875 
Q 38.249766 257.812125 37.347891 257.63025 
L 36.626016 257.489625 
Q 35.302266 257.227125 34.709766 256.664625 
Q 34.119141 256.102125 34.119141 255.099 
Q 34.119141 253.938375 34.936641 253.270875 
Q 35.754141 252.603375 37.188516 252.603375 
Q 37.805391 252.603375 38.442891 252.715875 
Q 39.082266 252.8265 39.749766 253.04775 
z
M 42.240703 252.760875 
L 46.886953 252.760875 
L 46.886953 253.758375 
L 43.324453 253.758375 
L 43.324453 255.9015 
Q 43.581328 255.813375 43.838203 255.77025 
Q 44.096953 255.727125 44.355703 255.727125 
Q 45.820078 255.727125 46.675078 256.529625 
Q 47.531953 257.332125 47.531953 258.70275 
Q 47.531953 260.114625 46.652578 260.898375 
Q 45.773203 261.68025 44.173828 261.68025 
Q 43.622578 261.68025 43.050703 261.5865 
Q 42.480703 261.49275 41.871328 261.30525 
L 41.871328 260.114625 
Q 42.398203 260.4015 42.960703 260.542125 
Q 43.523203 260.68275 44.149453 260.68275 
Q 45.163828 260.68275 45.754453 260.15025 
Q 46.346953 259.61775 46.346953 258.70275 
Q 46.346953 257.789625 45.754453 257.257125 
Q 45.163828 256.72275 44.149453 256.72275 
Q 43.675078 256.72275 43.202578 256.82775 
Q 42.731953 256.93275 42.240703 257.155875 
L 42.240703 252.760875 
z
M 54.754922 253.734 
L 54.754922 257.020875 
L 56.243672 257.020875 
Q 57.070547 257.020875 57.520547 256.593375 
Q 57.972422 256.165875 57.972422 255.374625 
Q 57.972422 254.589 57.520547 254.1615 
Q 57.070547 253.734 56.243672 253.734 
L 54.754922 253.734 
z
M 53.571797 252.760875 
L 56.243672 252.760875 
Q 57.715547 252.760875 58.467422 253.4265 
Q 59.221172 254.092125 59.221172 255.374625 
Q 59.221172 256.67025 58.467422 257.332125 
Q 57.715547 257.994 56.243672 257.994 
L 54.754922 257.994 
L 54.754922 261.509625 
L 53.571797 261.509625 
L 53.571797 252.760875 
z
M 62.86875 255.70275 
Q 62.0025 255.70275 61.498125 256.379625 
Q 60.99375 257.0565 60.99375 258.234 
Q 60.99375 259.4115 61.494375 260.088375 
Q 61.996875 260.76525 62.86875 260.76525 
Q 63.73125 260.76525 64.23375 260.0865 
Q 64.738125 259.405875 64.738125 258.234 
Q 64.738125 257.06775 64.23375 256.38525 
Q 63.73125 255.70275 62.86875 255.70275 
z
M 62.86875 254.789625 
Q 64.275 254.789625 65.0775 255.704625 
Q 65.881875 256.61775 65.881875 258.234 
Q 65.881875 259.844625 65.0775 260.763375 
Q 64.275 261.68025 62.86875 261.68025 
Q 61.456875 261.68025 60.65625 260.763375 
Q 59.8575 259.844625 59.8575 258.234 
Q 59.8575 256.61775 60.65625 255.704625 
Q 61.456875 254.789625 62.86875 254.789625 
z
M 68.710547 260.52525 
L 68.710547 264.00525 
L 67.626797 264.00525 
L 67.626797 254.947125 
L 68.710547 254.947125 
L 68.710547 255.94275 
Q 69.051797 255.35775 69.569297 255.074625 
Q 70.088672 254.789625 70.808672 254.789625 
Q 72.004922 254.789625 72.751172 255.738375 
Q 73.499297 256.687125 73.499297 258.234 
Q 73.499297 259.780875 72.751172 260.7315 
Q 72.004922 261.68025 70.808672 261.68025 
Q 70.088672 261.68025 69.569297 261.39525 
Q 69.051797 261.11025 68.710547 260.52525 
z
M 72.379922 258.234 
Q 72.379922 257.04525 71.890547 256.368375 
Q 71.401172 255.6915 70.546172 255.6915 
Q 69.689297 255.6915 69.199922 256.368375 
Q 68.710547 257.04525 68.710547 258.234 
Q 68.710547 259.42275 69.199922 260.099625 
Q 69.689297 260.7765 70.546172 260.7765 
Q 71.401172 260.7765 71.890547 260.099625 
Q 72.379922 259.42275 72.379922 258.234 
z
M 75.174609 258.92025 
L 75.174609 254.947125 
L 76.252734 254.947125 
L 76.252734 258.879 
Q 76.252734 259.810875 76.614609 260.27775 
Q 76.978359 260.74275 77.705859 260.74275 
Q 78.577734 260.74275 79.083984 260.185875 
Q 79.592109 259.629 79.592109 258.667125 
L 79.592109 254.947125 
L 80.670234 254.947125 
L 80.670234 261.509625 
L 79.592109 261.509625 
L 79.592109 260.500875 
Q 79.200234 261.099 78.680859 261.389625 
Q 78.163359 261.68025 77.477109 261.68025 
Q 76.346484 261.68025 75.759609 260.977125 
Q 75.174609 260.274 75.174609 258.92025 
z
M 77.887734 254.789625 
L 77.887734 254.789625 
z
M 82.890703 252.3915 
L 83.968828 252.3915 
L 83.968828 261.509625 
L 82.890703 261.509625 
L 82.890703 252.3915 
z
M 89.207813 258.2115 
Q 87.900937 258.2115 87.396563 258.509625 
Q 86.892188 258.80775 86.892188 259.529625 
Q 86.892188 260.103375 87.270938 260.440875 
Q 87.649687 260.7765 88.298438 260.7765 
Q 89.196562 260.7765 89.738438 260.140875 
Q 90.280313 259.50525 90.280313 258.4515 
L 90.280313 258.2115 
L 89.207813 258.2115 
z
M 91.358438 257.76525 
L 91.358438 261.509625 
L 90.280313 261.509625 
L 90.280313 260.514 
Q 89.910938 261.11025 89.359688 261.39525 
Q 88.808437 261.68025 88.011562 261.68025 
Q 87.004688 261.68025 86.408438 261.114 
Q 85.814063 260.54775 85.814063 259.599 
Q 85.814063 258.49275 86.554688 257.93025 
Q 87.297188 257.36775 88.767188 257.36775 
L 90.280313 257.36775 
L 90.280313 257.260875 
Q 90.280313 256.5165 89.790938 256.109625 
Q 89.301563 255.70275 88.416562 255.70275 
Q 87.854062 255.70275 87.319688 255.83775 
Q 86.787188 255.97275 86.295938 256.24275 
L 86.295938 255.24525 
Q 86.886562 255.0165 87.443438 254.904 
Q 88.000313 254.789625 88.527187 254.789625 
Q 89.952188 254.789625 90.655313 255.528375 
Q 91.358438 256.26525 91.358438 257.76525 
z
M 94.645078 253.083375 
L 94.645078 254.947125 
L 96.865078 254.947125 
L 96.865078 255.78525 
L 94.645078 255.78525 
L 94.645078 259.34775 
Q 94.645078 260.15025 94.864453 260.379 
Q 95.083828 260.60775 95.758828 260.60775 
L 96.865078 260.60775 
L 96.865078 261.509625 
L 95.758828 261.509625 
Q 94.510078 261.509625 94.035703 261.044625 
Q 93.561328 260.57775 93.561328 259.34775 
L 93.561328 255.78525 
L 92.770078 255.78525 
L 92.770078 254.947125 
L 93.561328 254.947125 
L 93.561328 253.083375 
L 94.645078 253.083375 
z
M 98.283281 254.947125 
L 99.361406 254.947125 
L 99.361406 261.509625 
L 98.283281 261.509625 
L 98.283281 254.947125 
z
M 98.283281 252.3915 
L 99.361406 252.3915 
L 99.361406 253.758375 
L 98.283281 253.758375 
L 98.283281 252.3915 
z
M 104.159766 255.70275 
Q 103.293516 255.70275 102.789141 256.379625 
Q 102.284766 257.0565 102.284766 258.234 
Q 102.284766 259.4115 102.785391 260.088375 
Q 103.287891 260.76525 104.159766 260.76525 
Q 105.022266 260.76525 105.524766 260.0865 
Q 106.029141 259.405875 106.029141 258.234 
Q 106.029141 257.06775 105.524766 256.38525 
Q 105.022266 255.70275 104.159766 255.70275 
z
M 104.159766 254.789625 
Q 105.566016 254.789625 106.368516 255.704625 
Q 107.172891 256.61775 107.172891 258.234 
Q 107.172891 259.844625 106.368516 260.763375 
Q 105.566016 261.68025 104.159766 261.68025 
Q 102.747891 261.68025 101.947266 260.763375 
Q 101.148516 259.844625 101.148516 258.234 
Q 101.148516 256.61775 101.947266 255.704625 
Q 102.747891 254.789625 104.159766 254.789625 
z
M 114.415312 257.54775 
L 114.415312 261.509625 
L 113.337187 261.509625 
L 113.337187 257.583375 
Q 113.337187 256.6515 112.973438 256.19025 
Q 112.609688 255.727125 111.884062 255.727125 
Q 111.010312 255.727125 110.505938 256.284 
Q 110.001563 256.839 110.001563 257.800875 
L 110.001563 261.509625 
L 108.917812 261.509625 
L 108.917812 254.947125 
L 110.001563 254.947125 
L 110.001563 255.967125 
Q 110.389688 255.374625 110.912813 255.082125 
Q 111.437813 254.789625 112.124063 254.789625 
Q 113.254688 254.789625 113.834063 255.489 
Q 114.415312 256.188375 114.415312 257.54775 
z
M 127.972734 257.66025 
Q 127.462734 257.66025 127.172109 258.093375 
Q 126.883359 258.5265 126.883359 259.300875 
Q 126.883359 260.062125 127.172109 260.499 
Q 127.462734 260.935875 127.972734 260.935875 
Q 128.471484 260.935875 128.760234 260.499 
Q 129.050859 260.062125 129.050859 259.300875 
Q 129.050859 258.532125 128.760234 258.097125 
Q 128.471484 257.66025 127.972734 257.66025 
z
M 127.972734 256.915875 
Q 128.898984 256.915875 129.442734 257.560875 
Q 129.988359 258.204 129.988359 259.300875 
Q 129.988359 260.395875 129.440859 261.039 
Q 128.893359 261.68025 127.972734 261.68025 
Q 127.035234 261.68025 126.489609 261.039 
Q 125.945859 260.395875 125.945859 259.300875 
Q 125.945859 258.198375 126.493359 257.557125 
Q 127.040859 256.915875 127.972734 256.915875 
z
M 121.925859 253.34775 
Q 121.421484 253.34775 121.130859 253.784625 
Q 120.842109 254.219625 120.842109 254.98275 
Q 120.842109 255.75525 121.128984 256.19025 
Q 121.415859 256.623375 121.925859 256.623375 
Q 122.435859 256.623375 122.724609 256.19025 
Q 123.015234 255.75525 123.015234 254.98275 
Q 123.015234 254.227125 122.722734 253.788375 
Q 122.430234 253.34775 121.925859 253.34775 
z
M 127.217109 252.603375 
L 128.154609 252.603375 
L 122.681484 261.68025 
L 121.743984 261.68025 
L 127.217109 252.603375 
z
M 121.925859 252.603375 
Q 122.852109 252.603375 123.401484 253.244625 
Q 123.952734 253.885875 123.952734 254.98275 
Q 123.952734 256.089 123.405234 256.728375 
Q 122.857734 257.36775 121.925859 257.36775 
Q 120.993984 257.36775 120.452109 256.7265 
Q 119.910234 256.083375 119.910234 254.98275 
Q 119.910234 253.8915 120.453984 253.248375 
Q 120.999609 252.603375 121.925859 252.603375 
z
" style="fill: #ffffff"/>
    <path d="M 17.35125 273.69825 
L 17.35125 271.348875 
L 15.418125 271.348875 
L 15.418125 270.37575 
L 18.523125 270.37575 
L 18.523125 274.13325 
Q 17.83875 274.618875 17.011875 274.86825 
Q 16.186875 275.117625 15.249375 275.117625 
Q 13.198125 275.117625 12.039375 273.9195 
Q 10.8825 272.7195 10.8825 270.582 
Q 10.8825 268.437 12.039375 267.238875 
Q 13.198125 266.04075 15.249375 266.04075 
Q 16.104375 266.04075 16.875 266.252625 
Q 17.645625 266.462625 18.29625 266.87325 
L 18.29625 268.13325 
Q 17.64 267.576375 16.90125 267.295125 
Q 16.1625 267.013875 15.34875 267.013875 
Q 13.741875 267.013875 12.935625 267.910125 
Q 12.13125 268.806375 12.13125 270.582 
Q 12.13125 272.352 12.935625 273.24825 
Q 13.741875 274.1445 15.34875 274.1445 
Q 15.975 274.1445 16.46625 274.03575 
Q 16.959375 273.927 17.35125 273.69825 
z
M 24.441328 269.391375 
Q 24.259453 269.286375 24.045703 269.237625 
Q 23.831953 269.187 23.575078 269.187 
Q 22.660078 269.187 22.170703 269.781375 
Q 21.681328 270.37575 21.681328 271.4895 
L 21.681328 274.947 
L 20.597578 274.947 
L 20.597578 268.3845 
L 21.681328 268.3845 
L 21.681328 269.4045 
Q 22.022578 268.806375 22.566328 268.517625 
Q 23.111953 268.227 23.891953 268.227 
Q 24.002578 268.227 24.137578 268.242 
Q 24.272578 268.255125 24.435703 268.285125 
L 24.441328 269.391375 
z
M 27.844922 269.140125 
Q 26.978672 269.140125 26.474297 269.817 
Q 25.969922 270.493875 25.969922 271.671375 
Q 25.969922 272.848875 26.470547 273.52575 
Q 26.973047 274.202625 27.844922 274.202625 
Q 28.707422 274.202625 29.209922 273.523875 
Q 29.714297 272.84325 29.714297 271.671375 
Q 29.714297 270.505125 29.209922 269.822625 
Q 28.707422 269.140125 27.844922 269.140125 
z
M 27.844922 268.227 
Q 29.251172 268.227 30.053672 269.142 
Q 30.858047 270.055125 30.858047 271.671375 
Q 30.858047 273.282 30.053672 274.20075 
Q 29.251172 275.117625 27.844922 275.117625 
Q 26.433047 275.117625 25.632422 274.20075 
Q 24.833672 273.282 24.833672 271.671375 
Q 24.833672 270.055125 25.632422 269.142 
Q 26.433047 268.227 27.844922 268.227 
z
M 32.017969 268.3845 
L 33.096094 268.3845 
L 34.444219 273.505125 
L 35.784844 268.3845 
L 37.056094 268.3845 
L 38.404219 273.505125 
L 39.746719 268.3845 
L 40.824844 268.3845 
L 39.107344 274.947 
L 37.836094 274.947 
L 36.424219 269.567625 
L 35.006719 274.947 
L 33.733594 274.947 
L 32.017969 268.3845 
z
M 43.525547 266.52075 
L 43.525547 268.3845 
L 45.745547 268.3845 
L 45.745547 269.222625 
L 43.525547 269.222625 
L 43.525547 272.785125 
Q 43.525547 273.587625 43.744922 273.816375 
Q 43.964297 274.045125 44.639297 274.045125 
L 45.745547 274.045125 
L 45.745547 274.947 
L 44.639297 274.947 
Q 43.390547 274.947 42.916172 274.482 
Q 42.441797 274.015125 42.441797 272.785125 
L 42.441797 269.222625 
L 41.650547 269.222625 
L 41.650547 268.3845 
L 42.441797 268.3845 
L 42.441797 266.52075 
L 43.525547 266.52075 
z
M 52.62 270.985125 
L 52.62 274.947 
L 51.541875 274.947 
L 51.541875 271.02075 
Q 51.541875 270.088875 51.178125 269.627625 
Q 50.814375 269.1645 50.08875 269.1645 
Q 49.215 269.1645 48.710625 269.721375 
Q 48.20625 270.276375 48.20625 271.23825 
L 48.20625 274.947 
L 47.1225 274.947 
L 47.1225 265.828875 
L 48.20625 265.828875 
L 48.20625 269.4045 
Q 48.594375 268.812 49.1175 268.5195 
Q 49.6425 268.227 50.32875 268.227 
Q 51.459375 268.227 52.03875 268.926375 
Q 52.62 269.62575 52.62 270.985125 
z
M 58.630547 266.19825 
L 63.657422 266.19825 
L 63.657422 267.19575 
L 59.813672 267.19575 
L 59.813672 269.773875 
L 63.282422 269.773875 
L 63.282422 270.7695 
L 59.813672 270.7695 
L 59.813672 274.947 
L 58.630547 274.947 
L 58.630547 266.19825 
z
M 68.418516 269.391375 
Q 68.236641 269.286375 68.022891 269.237625 
Q 67.809141 269.187 67.552266 269.187 
Q 66.637266 269.187 66.147891 269.781375 
Q 65.658516 270.37575 65.658516 271.4895 
L 65.658516 274.947 
L 64.574766 274.947 
L 64.574766 268.3845 
L 65.658516 268.3845 
L 65.658516 269.4045 
Q 65.999766 268.806375 66.543516 268.517625 
Q 67.089141 268.227 67.869141 268.227 
Q 67.979766 268.227 68.114766 268.242 
Q 68.249766 268.255125 68.412891 268.285125 
L 68.418516 269.391375 
z
M 71.822109 269.140125 
Q 70.955859 269.140125 70.451484 269.817 
Q 69.947109 270.493875 69.947109 271.671375 
Q 69.947109 272.848875 70.447734 273.52575 
Q 70.950234 274.202625 71.822109 274.202625 
Q 72.684609 274.202625 73.187109 273.523875 
Q 73.691484 272.84325 73.691484 271.671375 
Q 73.691484 270.505125 73.187109 269.822625 
Q 72.684609 269.140125 71.822109 269.140125 
z
M 71.822109 268.227 
Q 73.228359 268.227 74.030859 269.142 
Q 74.835234 270.055125 74.835234 271.671375 
Q 74.835234 273.282 74.030859 274.20075 
Q 73.228359 275.117625 71.822109 275.117625 
Q 70.410234 275.117625 69.609609 274.20075 
Q 68.810859 273.282 68.810859 271.671375 
Q 68.810859 270.055125 69.609609 269.142 
Q 70.410234 268.227 71.822109 268.227 
z
M 81.730781 269.6445 
Q 82.135781 268.917 82.698281 268.572 
Q 83.260781 268.227 84.022031 268.227 
Q 85.047656 268.227 85.604531 268.945125 
Q 86.161406 269.661375 86.161406 270.985125 
L 86.161406 274.947 
L 85.077656 274.947 
L 85.077656 271.02075 
Q 85.077656 270.077625 84.742031 269.622 
Q 84.408281 269.1645 83.723906 269.1645 
Q 82.885781 269.1645 82.398281 269.721375 
Q 81.912656 270.276375 81.912656 271.23825 
L 81.912656 274.947 
L 80.828906 274.947 
L 80.828906 271.02075 
Q 80.828906 270.072 80.495156 269.61825 
Q 80.161406 269.1645 79.463906 269.1645 
Q 78.637031 269.1645 78.149531 269.72325 
Q 77.663906 270.282 77.663906 271.23825 
L 77.663906 274.947 
L 76.580156 274.947 
L 76.580156 268.3845 
L 77.663906 268.3845 
L 77.663906 269.4045 
Q 78.033281 268.80075 78.548906 268.513875 
Q 79.064531 268.227 79.773281 268.227 
Q 80.489531 268.227 80.990156 268.59075 
Q 81.490781 268.952625 81.730781 269.6445 
z
M 93.297188 273.951375 
L 97.427813 273.951375 
L 97.427813 274.947 
L 91.874063 274.947 
L 91.874063 273.951375 
Q 92.547188 273.253875 93.709688 272.080125 
Q 94.874063 270.9045 95.172188 270.56325 
Q 95.740313 269.92575 95.965313 269.48325 
Q 96.192188 269.04075 96.192188 268.61325 
Q 96.192188 267.91575 95.702813 267.477 
Q 95.213438 267.036375 94.427813 267.036375 
Q 93.870938 267.036375 93.252188 267.2295 
Q 92.635313 267.422625 91.932188 267.816375 
L 91.932188 266.620125 
Q 92.646563 266.33325 93.267188 266.187 
Q 93.889688 266.04075 94.405313 266.04075 
Q 95.764688 266.04075 96.572813 266.721375 
Q 97.380938 267.400125 97.380938 268.536375 
Q 97.380938 269.076375 97.178438 269.560125 
Q 96.977812 270.042 96.443438 270.69825 
Q 96.297188 270.868875 95.511563 271.68075 
Q 94.727812 272.492625 93.297188 273.951375 
z
M 102.443203 266.97825 
Q 101.530078 266.97825 101.068828 267.87825 
Q 100.609453 268.776375 100.609453 270.582 
Q 100.609453 272.380125 101.068828 273.280125 
Q 101.530078 274.180125 102.443203 274.180125 
Q 103.363828 274.180125 103.823203 273.280125 
Q 104.284453 272.380125 104.284453 270.582 
Q 104.284453 268.776375 103.823203 267.87825 
Q 103.363828 266.97825 102.443203 266.97825 
z
M 102.443203 266.04075 
Q 103.915078 266.04075 104.691328 267.205125 
Q 105.467578 268.367625 105.467578 270.582 
Q 105.467578 272.79075 104.691328 273.955125 
Q 103.915078 275.117625 102.443203 275.117625 
Q 100.973203 275.117625 100.196953 273.955125 
Q 99.420703 272.79075 99.420703 270.582 
Q 99.420703 268.367625 100.196953 267.205125 
Q 100.973203 266.04075 102.443203 266.04075 
z
M 107.752969 273.951375 
L 109.686094 273.951375 
L 109.686094 267.276375 
L 107.582344 267.69825 
L 107.582344 266.620125 
L 109.674844 266.19825 
L 110.857969 266.19825 
L 110.857969 273.951375 
L 112.791094 273.951375 
L 112.791094 274.947 
L 107.752969 274.947 
L 107.752969 273.951375 
z
M 115.387734 273.951375 
L 117.320859 273.951375 
L 117.320859 267.276375 
L 115.217109 267.69825 
L 115.217109 266.620125 
L 117.309609 266.19825 
L 118.492734 266.19825 
L 118.492734 273.951375 
L 120.425859 273.951375 
L 120.425859 274.947 
L 115.387734 274.947 
L 115.387734 273.951375 
z
M 127.545703 266.52075 
L 127.545703 268.3845 
L 129.765703 268.3845 
L 129.765703 269.222625 
L 127.545703 269.222625 
L 127.545703 272.785125 
Q 127.545703 273.587625 127.765078 273.816375 
Q 127.984453 274.045125 128.659453 274.045125 
L 129.765703 274.045125 
L 129.765703 274.947 
L 128.659453 274.947 
Q 127.410703 274.947 126.936328 274.482 
Q 126.461953 274.015125 126.461953 272.785125 
L 126.461953 269.222625 
L 125.670703 269.222625 
L 125.670703 268.3845 
L 126.461953 268.3845 
L 126.461953 266.52075 
L 127.545703 266.52075 
z
M 133.726406 269.140125 
Q 132.860156 269.140125 132.355781 269.817 
Q 131.851406 270.493875 131.851406 271.671375 
Q 131.851406 272.848875 132.352031 273.52575 
Q 132.854531 274.202625 133.726406 274.202625 
Q 134.588906 274.202625 135.091406 273.523875 
Q 135.595781 272.84325 135.595781 271.671375 
Q 135.595781 270.505125 135.091406 269.822625 
Q 134.588906 269.140125 133.726406 269.140125 
z
M 133.726406 268.227 
Q 135.132656 268.227 135.935156 269.142 
Q 136.739531 270.055125 136.739531 271.671375 
Q 136.739531 273.282 135.935156 274.20075 
Q 135.132656 275.117625 133.726406 275.117625 
Q 132.314531 275.117625 131.513906 274.20075 
Q 130.715156 273.282 130.715156 271.671375 
Q 130.715156 270.055125 131.513906 269.142 
Q 132.314531 268.227 133.726406 268.227 
z
" style="fill: #ffffff; stroke: #000000; stroke-width: 2"/>
    <path d="M 17.35125 273.69825 
L 17.35125 271.348875 
L 15.418125 271.348875 
L 15.418125 270.37575 
L 18.523125 270.37575 
L 18.523125 274.13325 
Q 17.83875 274.618875 17.011875 274.86825 
Q 16.186875 275.117625 15.249375 275.117625 
Q 13.198125 275.117625 12.039375 273.9195 
Q 10.8825 272.7195 10.8825 270.582 
Q 10.8825 268.437 12.039375 267.238875 
Q 13.198125 266.04075 15.249375 266.04075 
Q 16.104375 266.04075 16.875 266.252625 
Q 17.645625 266.462625 18.29625 266.87325 
L 18.29625 268.13325 
Q 17.64 267.576375 16.90125 267.295125 
Q 16.1625 267.013875 15.34875 267.013875 
Q 13.741875 267.013875 12.935625 267.910125 
Q 12.13125 268.806375 12.13125 270.582 
Q 12.13125 272.352 12.935625 273.24825 
Q 13.741875 274.1445 15.34875 274.1445 
Q 15.975 274.1445 16.46625 274.03575 
Q 16.959375 273.927 17.35125 273.69825 
z
M 24.441328 269.391375 
Q 24.259453 269.286375 24.045703 269.237625 
Q 23.831953 269.187 23.575078 269.187 
Q 22.660078 269.187 22.170703 269.781375 
Q 21.681328 270.37575 21.681328 271.4895 
L 21.681328 274.947 
L 20.597578 274.947 
L 20.597578 268.3845 
L 21.681328 268.3845 
L 21.681328 269.4045 
Q 22.022578 268.806375 22.566328 268.517625 
Q 23.111953 268.227 23.891953 268.227 
Q 24.002578 268.227 24.137578 268.242 
Q 24.272578 268.255125 24.435703 268.285125 
L 24.441328 269.391375 
z
M 27.844922 269.140125 
Q 26.978672 269.140125 26.474297 269.817 
Q 25.969922 270.493875 25.969922 271.671375 
Q 25.969922 272.848875 26.470547 273.52575 
Q 26.973047 274.202625 27.844922 274.202625 
Q 28.707422 274.202625 29.209922 273.523875 
Q 29.714297 272.84325 29.714297 271.671375 
Q 29.714297 270.505125 29.209922 269.822625 
Q 28.707422 269.140125 27.844922 269.140125 
z
M 27.844922 268.227 
Q 29.251172 268.227 30.053672 269.142 
Q 30.858047 270.055125 30.858047 271.671375 
Q 30.858047 273.282 30.053672 274.20075 
Q 29.251172 275.117625 27.844922 275.117625 
Q 26.433047 275.117625 25.632422 274.20075 
Q 24.833672 273.282 24.833672 271.671375 
Q 24.833672 270.055125 25.632422 269.142 
Q 26.433047 268.227 27.844922 268.227 
z
M 32.017969 268.3845 
L 33.096094 268.3845 
L 34.444219 273.505125 
L 35.784844 268.3845 
L 37.056094 268.3845 
L 38.404219 273.505125 
L 39.746719 268.3845 
L 40.824844 268.3845 
L 39.107344 274.947 
L 37.836094 274.947 
L 36.424219 269.567625 
L 35.006719 274.947 
L 33.733594 274.947 
L 32.017969 268.3845 
z
M 43.525547 266.52075 
L 43.525547 268.3845 
L 45.745547 268.3845 
L 45.745547 269.222625 
L 43.525547 269.222625 
L 43.525547 272.785125 
Q 43.525547 273.587625 43.744922 273.816375 
Q 43.964297 274.045125 44.639297 274.045125 
L 45.745547 274.045125 
L 45.745547 274.947 
L 44.639297 274.947 
Q 43.390547 274.947 42.916172 274.482 
Q 42.441797 274.015125 42.441797 272.785125 
L 42.441797 269.222625 
L 41.650547 269.222625 
L 41.650547 268.3845 
L 42.441797 268.3845 
L 42.441797 266.52075 
L 43.525547 266.52075 
z
M 52.62 270.985125 
L 52.62 274.947 
L 51.541875 274.947 
L 51.541875 271.02075 
Q 51.541875 270.088875 51.178125 269.627625 
Q 50.814375 269.1645 50.08875 269.1645 
Q 49.215 269.1645 48.710625 269.721375 
Q 48.20625 270.276375 48.20625 271.23825 
L 48.20625 274.947 
L 47.1225 274.947 
L 47.1225 265.828875 
L 48.20625 265.828875 
L 48.20625 269.4045 
Q 48.594375 268.812 49.1175 268.5195 
Q 49.6425 268.227 50.32875 268.227 
Q 51.459375 268.227 52.03875 268.926375 
Q 52.62 269.62575 52.62 270.985125 
z
M 58.630547 266.19825 
L 63.657422 266.19825 
L 63.657422 267.19575 
L 59.813672 267.19575 
L 59.813672 269.773875 
L 63.282422 269.773875 
L 63.282422 270.7695 
L 59.813672 270.7695 
L 59.813672 274.947 
L 58.630547 274.947 
L 58.630547 266.19825 
z
M 68.418516 269.391375 
Q 68.236641 269.286375 68.022891 269.237625 
Q 67.809141 269.187 67.552266 269.187 
Q 66.637266 269.187 66.147891 269.781375 
Q 65.658516 270.37575 65.658516 271.4895 
L 65.658516 274.947 
L 64.574766 274.947 
L 64.574766 268.3845 
L 65.658516 268.3845 
L 65.658516 269.4045 
Q 65.999766 268.806375 66.543516 268.517625 
Q 67.089141 268.227 67.869141 268.227 
Q 67.979766 268.227 68.114766 268.242 
Q 68.249766 268.255125 68.412891 268.285125 
L 68.418516 269.391375 
z
M 71.822109 269.140125 
Q 70.955859 269.140125 70.451484 269.817 
Q 69.947109 270.493875 69.947109 271.671375 
Q 69.947109 272.848875 70.447734 273.52575 
Q 70.950234 274.202625 71.822109 274.202625 
Q 72.684609 274.202625 73.187109 273.523875 
Q 73.691484 272.84325 73.691484 271.671375 
Q 73.691484 270.505125 73.187109 269.822625 
Q 72.684609 269.140125 71.822109 269.140125 
z
M 71.822109 268.227 
Q 73.228359 268.227 74.030859 269.142 
Q 74.835234 270.055125 74.835234 271.671375 
Q 74.835234 273.282 74.030859 274.20075 
Q 73.228359 275.117625 71.822109 275.117625 
Q 70.410234 275.117625 69.609609 274.20075 
Q 68.810859 273.282 68.810859 271.671375 
Q 68.810859 270.055125 69.609609 269.142 
Q 70.410234 268.227 71.822109 268.227 
z
M 81.730781 269.6445 
Q 82.135781 268.917 82.698281 268.572 
Q 83.260781 268.227 84.022031 268.227 
Q 85.047656 268.227 85.604531 268.945125 
Q 86.161406 269.661375 86.161406 270.985125 
L 86.161406 274.947 
L 85.077656 274.947 
L 85.077656 271.02075 
Q 85.077656 270.077625 84.742031 269.622 
Q 84.408281 269.1645 83.723906 269.1645 
Q 82.885781 269.1645 82.398281 269.721375 
Q 81.912656 270.276375 81.912656 271.23825 
L 81.912656 274.947 
L 80.828906 274.947 
L 80.828906 271.02075 
Q 80.828906 270.072 80.495156 269.61825 
Q 80.161406 269.1645 79.463906 269.1645 
Q 78.637031 269.1645 78.149531 269.72325 
Q 77.663906 270.282 77.663906 271.23825 
L 77.663906 274.947 
L 76.580156 274.947 
L 76.580156 268.3845 
L 77.663906 268.3845 
L 77.663906 269.4045 
Q 78.033281 268.80075 78.548906 268.513875 
Q 79.064531 268.227 79.773281 268.227 
Q 80.489531 268.227 80.990156 268.59075 
Q 81.490781 268.952625 81.730781 269.6445 
z
M 93.297188 273.951375 
L 97.427813 273.951375 
L 97.427813 274.947 
L 91.874063 274.947 
L 91.874063 273.951375 
Q 92.547188 273.253875 93.709688 272.080125 
Q 94.874063 270.9045 95.172188 270.56325 
Q 95.740313 269.92575 95.965313 269.48325 
Q 96.192188 269.04075 96.192188 268.61325 
Q 96.192188 267.91575 95.702813 267.477 
Q 95.213438 267.036375 94.427813 267.036375 
Q 93.870938 267.036375 93.252188 267.2295 
Q 92.635313 267.422625 91.932188 267.816375 
L 91.932188 266.620125 
Q 92.646563 266.33325 93.267188 266.187 
Q 93.889688 266.04075 94.405313 266.04075 
Q 95.764688 266.04075 96.572813 266.721375 
Q 97.380938 267.400125 97.380938 268.536375 
Q 97.380938 269.076375 97.178438 269.560125 
Q 96.977812 270.042 96.443438 270.69825 
Q 96.297188 270.868875 95.511563 271.68075 
Q 94.727812 272.492625 93.297188 273.951375 
z
M 102.443203 266.97825 
Q 101.530078 266.97825 101.068828 267.87825 
Q 100.609453 268.776375 100.609453 270.582 
Q 100.609453 272.380125 101.068828 273.280125 
Q 101.530078 274.180125 102.443203 274.180125 
Q 103.363828 274.180125 103.823203 273.280125 
Q 104.284453 272.380125 104.284453 270.582 
Q 104.284453 268.776375 103.823203 267.87825 
Q 103.363828 266.97825 102.443203 266.97825 
z
M 102.443203 266.04075 
Q 103.915078 266.04075 104.691328 267.205125 
Q 105.467578 268.367625 105.467578 270.582 
Q 105.467578 272.79075 104.691328 273.955125 
Q 103.915078 275.117625 102.443203 275.117625 
Q 100.973203 275.117625 100.196953 273.955125 
Q 99.420703 272.79075 99.420703 270.582 
Q 99.420703 268.367625 100.196953 267.205125 
Q 100.973203 266.04075 102.443203 266.04075 
z
M 107.752969 273.951375 
L 109.686094 273.951375 
L 109.686094 267.276375 
L 107.582344 267.69825 
L 107.582344 266.620125 
L 109.674844 266.19825 
L 110.857969 266.19825 
L 110.857969 273.951375 
L 112.791094 273.951375 
L 112.791094 274.947 
L 107.752969 274.947 
L 107.752969 273.951375 
z
M 115.387734 273.951375 
L 117.320859 273.951375 
L 117.320859 267.276375 
L 115.217109 267.69825 
L 115.217109 266.620125 
L 117.309609 266.19825 
L 118.492734 266.19825 
L 118.492734 273.951375 
L 120.425859 273.951375 
L 120.425859 274.947 
L 115.387734 274.947 
L 115.387734 273.951375 
z
M 127.545703 266.52075 
L 127.545703 268.3845 
L 129.765703 268.3845 
L 129.765703 269.222625 
L 127.545703 269.222625 
L 127.545703 272.785125 
Q 127.545703 273.587625 127.765078 273.816375 
Q 127.984453 274.045125 128.659453 274.045125 
L 129.765703 274.045125 
L 129.765703 274.947 
L 128.659453 274.947 
Q 127.410703 274.947 126.936328 274.482 
Q 126.461953 274.015125 126.461953 272.785125 
L 126.461953 269.222625 
L 125.670703 269.222625 
L 125.670703 268.3845 
L 126.461953 268.3845 
L 126.461953 266.52075 
L 127.545703 266.52075 
z
M 133.726406 269.140125 
Q 132.860156 269.140125 132.355781 269.817 
Q 131.851406 270.493875 131.851406 271.671375 
Q 131.851406 272.848875 132.352031 273.52575 
Q 132.854531 274.202625 133.726406 274.202625 
Q 134.588906 274.202625 135.091406 273.523875 
Q 135.595781 272.84325 135.595781 271.671375 
Q 135.595781 270.505125 135.091406 269.822625 
Q 134.588906 269.140125 133.726406 269.140125 
z
M 133.726406 268.227 
Q 135.132656 268.227 135.935156 269.142 
Q 136.739531 270.055125 136.739531 271.671375 
Q 136.739531 273.282 135.935156 274.20075 
Q 135.132656 275.117625 133.726406 275.117625 
Q 132.314531 275.117625 131.513906 274.20075 
Q 130.715156 273.282 130.715156 271.671375 
Q 130.715156 270.055125 131.513906 269.142 
Q 132.314531 268.227 133.726406 268.227 
z
" style="fill: #ffffff"/>
    <path d="M 60.8325 287.38875 
L 64.963125 287.38875 
L 64.963125 288.384375 
L 59.409375 288.384375 
L 59.409375 287.38875 
Q 60.0825 286.69125 61.245 285.5175 
Q 62.409375 284.341875 62.7075 284.000625 
Q 63.275625 283.363125 63.500625 282.920625 
Q 63.7275 282.478125 63.7275 282.050625 
Q 63.7275 281.353125 63.238125 280.914375 
Q 62.74875 280.47375 61.963125 280.47375 
Q 61.40625 280.47375 60.7875 280.666875 
Q 60.170625 280.86 59.4675 281.25375 
L 59.4675 280.0575 
Q 60.181875 279.770625 60.8025 279.624375 
Q 61.425 279.478125 61.940625 279.478125 
Q 63.3 279.478125 64.108125 280.15875 
Q 64.91625 280.8375 64.91625 281.97375 
Q 64.91625 282.51375 64.71375 282.9975 
Q 64.513125 283.479375 63.97875 284.135625 
Q 63.8325 284.30625 63.046875 285.118125 
Q 62.263125 285.93 60.8325 287.38875 
z
M 69.978516 280.415625 
Q 69.065391 280.415625 68.604141 281.315625 
Q 68.144766 282.21375 68.144766 284.019375 
Q 68.144766 285.8175 68.604141 286.7175 
Q 69.065391 287.6175 69.978516 287.6175 
Q 70.899141 287.6175 71.358516 286.7175 
Q 71.819766 285.8175 71.819766 284.019375 
Q 71.819766 282.21375 71.358516 281.315625 
Q 70.899141 280.415625 69.978516 280.415625 
z
M 69.978516 279.478125 
Q 71.450391 279.478125 72.226641 280.6425 
Q 73.002891 281.805 73.002891 284.019375 
Q 73.002891 286.228125 72.226641 287.3925 
Q 71.450391 288.555 69.978516 288.555 
Q 68.508516 288.555 67.732266 287.3925 
Q 66.956016 286.228125 66.956016 284.019375 
Q 66.956016 281.805 67.732266 280.6425 
Q 68.508516 279.478125 69.978516 279.478125 
z
M 76.102031 287.38875 
L 80.232656 287.38875 
L 80.232656 288.384375 
L 74.678906 288.384375 
L 74.678906 287.38875 
Q 75.352031 286.69125 76.514531 285.5175 
Q 77.678906 284.341875 77.977031 284.000625 
Q 78.545156 283.363125 78.770156 282.920625 
Q 78.997031 282.478125 78.997031 282.050625 
Q 78.997031 281.353125 78.507656 280.914375 
Q 78.018281 280.47375 77.232656 280.47375 
Q 76.675781 280.47375 76.057031 280.666875 
Q 75.440156 280.86 74.737031 281.25375 
L 74.737031 280.0575 
Q 75.451406 279.770625 76.072031 279.624375 
Q 76.694531 279.478125 77.210156 279.478125 
Q 78.569531 279.478125 79.377656 280.15875 
Q 80.185781 280.8375 80.185781 281.97375 
Q 80.185781 282.51375 79.983281 282.9975 
Q 79.782656 283.479375 79.248281 284.135625 
Q 79.102031 284.30625 78.316406 285.118125 
Q 77.532656 285.93 76.102031 287.38875 
z
M 82.923047 287.38875 
L 84.856172 287.38875 
L 84.856172 280.71375 
L 82.752422 281.135625 
L 82.752422 280.0575 
L 84.844922 279.635625 
L 86.028047 279.635625 
L 86.028047 287.38875 
L 87.961172 287.38875 
L 87.961172 288.384375 
L 82.923047 288.384375 
L 82.923047 287.38875 
z
" style="fill: #ffffff; stroke: #000000; stroke-width: 2"/>
    <path d="M 60.8325 287.38875 
L 64.963125 287.38875 
L 64.963125 288.384375 
L 59.409375 288.384375 
L 59.409375 287.38875 
Q 60.0825 286.69125 61.245 285.5175 
Q 62.409375 284.341875 62.7075 284.000625 
Q 63.275625 283.363125 63.500625 282.920625 
Q 63.7275 282.478125 63.7275 282.050625 
Q 63.7275 281.353125 63.238125 280.914375 
Q 62.74875 280.47375 61.963125 280.47375 
Q 61.40625 280.47375 60.7875 280.666875 
Q 60.170625 280.86 59.4675 281.25375 
L 59.4675 280.0575 
Q 60.181875 279.770625 60.8025 279.624375 
Q 61.425 279.478125 61.940625 279.478125 
Q 63.3 279.478125 64.108125 280.15875 
Q 64.91625 280.8375 64.91625 281.97375 
Q 64.91625 282.51375 64.71375 282.9975 
Q 64.513125 283.479375 63.97875 284.135625 
Q 63.8325 284.30625 63.046875 285.118125 
Q 62.263125 285.93 60.8325 287.38875 
z
M 69.978516 280.415625 
Q 69.065391 280.415625 68.604141 281.315625 
Q 68.144766 282.21375 68.144766 284.019375 
Q 68.144766 285.8175 68.604141 286.7175 
Q 69.065391 287.6175 69.978516 287.6175 
Q 70.899141 287.6175 71.358516 286.7175 
Q 71.819766 285.8175 71.819766 284.019375 
Q 71.819766 282.21375 71.358516 281.315625 
Q 70.899141 280.415625 69.978516 280.415625 
z
M 69.978516 279.478125 
Q 71.450391 279.478125 72.226641 280.6425 
Q 73.002891 281.805 73.002891 284.019375 
Q 73.002891 286.228125 72.226641 287.3925 
Q 71.450391 288.555 69.978516 288.555 
Q 68.508516 288.555 67.732266 287.3925 
Q 66.956016 286.228125 66.956016 284.019375 
Q 66.956016 281.805 67.732266 280.6425 
Q 68.508516 279.478125 69.978516 279.478125 
z
M 76.102031 287.38875 
L 80.232656 287.38875 
L 80.232656 288.384375 
L 74.678906 288.384375 
L 74.678906 287.38875 
Q 75.352031 286.69125 76.514531 285.5175 
Q 77.678906 284.341875 77.977031 284.000625 
Q 78.545156 283.363125 78.770156 282.920625 
Q 78.997031 282.478125 78.997031 282.050625 
Q 78.997031 281.353125 78.507656 280.914375 
Q 78.018281 280.47375 77.232656 280.47375 
Q 76.675781 280.47375 76.057031 280.666875 
Q 75.440156 280.86 74.737031 281.25375 
L 74.737031 280.0575 
Q 75.451406 279.770625 76.072031 279.624375 
Q 76.694531 279.478125 77.210156 279.478125 
Q 78.569531 279.478125 79.377656 280.15875 
Q 80.185781 280.8375 80.185781 281.97375 
Q 80.185781 282.51375 79.983281 282.9975 
Q 79.782656 283.479375 79.248281 284.135625 
Q 79.102031 284.30625 78.316406 285.118125 
Q 77.532656 285.93 76.102031 287.38875 
z
M 82.923047 287.38875 
L 84.856172 287.38875 
L 84.856172 280.71375 
L 82.752422 281.135625 
L 82.752422 280.0575 
L 84.844922 279.635625 
L 86.028047 279.635625 
L 86.028047 287.38875 
L 87.961172 287.38875 
L 87.961172 288.384375 
L 82.923047 288.384375 
L 82.923047 287.38875 
z
" style="fill: #ffffff"/>
   </g>
  </g>
  <g id="axes_3">
   <g id="patch_4">
    <path d="M 104.982353 290.88 
L 129.6 290.88 
L 129.6 69.12 
L 104.982353 69.12 
L 104.982353 290.88 
z
" style="fill: none"/>
   </g>
  </g>
  <g id="axes_4">
   <g id="patch_5">
    <path d="M 18 512.64 
L 42.617647 512.64 
L 42.617647 290.88 
L 18 290.88 
L 18 512.64 
z
" style="fill: none"/>
   </g>
  </g>
  <g id="axes_5">
   <g id="patch_6">
    <path d="M 49.182353 512.64 
L 98.417647 512.64 
L 98.417647 290.88 
L 49.182353 290.88 
L 49.182353 512.64 
z
" style="fill: none"/>
   </g>
   <g id="patch_7">
    <path d="M 49.182353 502.56 
L 96.073109 502.56 
L 96.073109 477.36 
L 49.182353 477.36 
z
" clip-path="url(#p95791bc539)" style="fill: #d73027"/>
   </g>
   <g id="patch_8">
    <path d="M 49.182353 477.36 
L 96.073109 477.36 
L 96.073109 452.16 
L 49.182353 452.16 
z
" clip-path="url(#p95791bc539)" style="fill: #f46d43"/>
   </g>
   <g id="patch_9">
    <path d="M 49.182353 452.16 
L 96.073109 452.16 
L 96.073109 426.96 
L 49.182353 426.96 
z
" clip-path="url(#p95791bc539)" style="fill: #fdae61"/>
   </g>
   <g id="patch_10">
    <path d="M 49.182353 426.96 
L 96.073109 426.96 
L 96.073109 401.76 
L 49.182353 401.76 
z
" clip-path="url(#p95791bc539)" style="fill: #fee08b"/>
   </g>
   <g id="patch_11">
    <path d="M 49.182353 401.76 
L 96.073109 401.76 
L 96.073109 376.56 
L 49.182353 376.56 
z
" clip-path="url(#p95791bc539)" style="fill: #d9ef8b"/>
   </g>
   <g id="patch_12">
    <path d="M 49.182353 376.56 
L 96.073109 376.56 
L 96.073109 351.36 
L 49.182353 351.36 
z
" clip-path="url(#p95791bc539)" style="fill: #a6d96a"/>
   </g>
   <g id="patch_13">
    <path d="M 49.182353 351.36 
L 96.073109 351.36 
L 96.073109 326.16 
L 49.182353 326.16 
z
" clip-path="url(#p95791bc539)" style="fill: #66bd63"/>
   </g>
   <g id="patch_14">
    <path d="M 49.182353 326.16 
L 96.073109 326.16 
L 96.073109 300.96 
L 49.182353 300.96 
z
" clip-path="url(#p95791bc539)" style="fill: #1a9850"/>
   </g>
   <g id="text_2">
    <path d="M 55.985231 503.59125 
L 59.663981 503.59125 
L 59.663981 505.295625 
L 55.985231 505.295625 
L 55.985231 503.59125 
z
M 63.772575 506.240625 
L 67.62195 506.240625 
L 67.62195 507.898125 
L 61.263825 507.898125 
L 61.263825 506.240625 
L 64.45695 503.420625 
Q 64.886325 503.034375 65.0907 502.665 
Q 65.295075 502.295625 65.295075 501.898125 
Q 65.295075 501.283125 64.882575 500.908125 
Q 64.470075 500.533125 63.783825 500.533125 
Q 63.25695 500.533125 62.628825 500.758125 
Q 62.002575 500.983125 61.2882 501.429375 
L 61.2882 499.5075 
Q 62.04945 499.25625 62.793825 499.125 
Q 63.5382 498.991875 64.252575 498.991875 
Q 65.823825 498.991875 66.693825 499.68375 
Q 67.563825 500.37375 67.563825 501.61125 
Q 67.563825 502.325625 67.19445 502.944375 
Q 66.825075 503.56125 65.64195 504.6 
L 63.772575 506.240625 
z
M 69.889059 505.63125 
L 71.998434 505.63125 
L 71.998434 507.898125 
L 69.889059 507.898125 
L 69.889059 505.63125 
z
M 77.640778 501.0075 
L 75.169528 504.669375 
L 77.640778 504.669375 
L 77.640778 501.0075 
z
M 77.265778 499.149375 
L 79.774528 499.149375 
L 79.774528 504.669375 
L 81.021403 504.669375 
L 81.021403 506.304375 
L 79.774528 506.304375 
L 79.774528 507.898125 
L 77.640778 507.898125 
L 77.640778 506.304375 
L 73.763278 506.304375 
L 73.763278 504.37125 
L 77.265778 499.149375 
z
M 82.844137 499.149375 
L 88.452262 499.149375 
L 88.452262 500.80875 
L 84.644137 500.80875 
L 84.644137 502.1625 
Q 84.901012 502.09125 85.161637 502.05375 
Q 85.422262 502.014375 85.703512 502.014375 
Q 87.302887 502.014375 88.193512 502.815 
Q 89.084137 503.615625 89.084137 505.044375 
Q 89.084137 506.461875 88.114762 507.26625 
Q 87.145387 508.06875 85.422262 508.06875 
Q 84.677887 508.06875 83.948512 507.924375 
Q 83.219137 507.78 82.499137 507.4875 
L 82.499137 505.711875 
Q 83.213512 506.1225 83.854762 506.32875 
Q 84.496012 506.533125 85.066012 506.533125 
Q 85.885387 506.533125 86.356012 506.131875 
Q 86.828512 505.730625 86.828512 505.044375 
Q 86.828512 504.3525 86.356012 503.955 
Q 85.885387 503.555625 85.066012 503.555625 
Q 84.578512 503.555625 84.027262 503.683125 
Q 83.477887 503.80875 82.844137 504.07125 
L 82.844137 499.149375 
z
" style="stroke: #ffffff"/>
    <path d="M 55.985231 503.59125 
L 59.663981 503.59125 
L 59.663981 505.295625 
L 55.985231 505.295625 
L 55.985231 503.59125 
z
M 63.772575 506.240625 
L 67.62195 506.240625 
L 67.62195 507.898125 
L 61.263825 507.898125 
L 61.263825 506.240625 
L 64.45695 503.420625 
Q 64.886325 503.034375 65.0907 502.665 
Q 65.295075 502.295625 65.295075 501.898125 
Q 65.295075 501.283125 64.882575 500.908125 
Q 64.470075 500.533125 63.783825 500.533125 
Q 63.25695 500.533125 62.628825 500.758125 
Q 62.002575 500.983125 61.2882 501.429375 
L 61.2882 499.5075 
Q 62.04945 499.25625 62.793825 499.125 
Q 63.5382 498.991875 64.252575 498.991875 
Q 65.823825 498.991875 66.693825 499.68375 
Q 67.563825 500.37375 67.563825 501.61125 
Q 67.563825 502.325625 67.19445 502.944375 
Q 66.825075 503.56125 65.64195 504.6 
L 63.772575 506.240625 
z
M 69.889059 505.63125 
L 71.998434 505.63125 
L 71.998434 507.898125 
L 69.889059 507.898125 
L 69.889059 505.63125 
z
M 77.640778 501.0075 
L 75.169528 504.669375 
L 77.640778 504.669375 
L 77.640778 501.0075 
z
M 77.265778 499.149375 
L 79.774528 499.149375 
L 79.774528 504.669375 
L 81.021403 504.669375 
L 81.021403 506.304375 
L 79.774528 506.304375 
L 79.774528 507.898125 
L 77.640778 507.898125 
L 77.640778 506.304375 
L 73.763278 506.304375 
L 73.763278 504.37125 
L 77.265778 499.149375 
z
M 82.844137 499.149375 
L 88.452262 499.149375 
L 88.452262 500.80875 
L 84.644137 500.80875 
L 84.644137 502.1625 
Q 84.901012 502.09125 85.161637 502.05375 
Q 85.422262 502.014375 85.703512 502.014375 
Q 87.302887 502.014375 88.193512 502.815 
Q 89.084137 503.615625 89.084137 505.044375 
Q 89.084137 506.461875 88.114762 507.26625 
Q 87.145387 508.06875 85.422262 508.06875 
Q 84.677887 508.06875 83.948512 507.924375 
Q 83.219137 507.78 82.499137 507.4875 
L 82.499137 505.711875 
Q 83.213512 506.1225 83.854762 506.32875 
Q 84.496012 506.533125 85.066012 506.533125 
Q 85.885387 506.533125 86.356012 506.131875 
Q 86.828512 505.730625 86.828512 505.044375 
Q 86.828512 504.3525 86.356012 503.955 
Q 85.885387 503.555625 85.066012 503.555625 
Q 84.578512 503.555625 84.027262 503.683125 
Q 83.477887 503.80875 82.844137 504.07125 
L 82.844137 499.149375 
z
"/>
   </g>
   <g id="text_3">
    <path d="M 61.282106 481.040625 
L 65.131481 481.040625 
L 65.131481 482.698125 
L 58.773356 482.698125 
L 58.773356 481.040625 
L 61.966481 478.220625 
Q 62.395856 477.834375 62.600231 477.465 
Q 62.804606 477.095625 62.804606 476.698125 
Q 62.804606 476.083125 62.392106 475.708125 
Q 61.979606 475.333125 61.293356 475.333125 
Q 60.766481 475.333125 60.138356 475.558125 
Q 59.512106 475.783125 58.797731 476.229375 
L 58.797731 474.3075 
Q 59.558981 474.05625 60.303356 473.925 
Q 61.047731 473.791875 61.762106 473.791875 
Q 63.333356 473.791875 64.203356 474.48375 
Q 65.073356 475.17375 65.073356 476.41125 
Q 65.073356 477.125625 64.703981 477.744375 
Q 64.334606 478.36125 63.151481 479.4 
L 61.282106 481.040625 
z
M 67.39859 480.43125 
L 69.507965 480.43125 
L 69.507965 482.698125 
L 67.39859 482.698125 
L 67.39859 480.43125 
z
M 74.190309 481.040625 
L 78.039684 481.040625 
L 78.039684 482.698125 
L 71.681559 482.698125 
L 71.681559 481.040625 
L 74.874684 478.220625 
Q 75.304059 477.834375 75.508434 477.465 
Q 75.712809 477.095625 75.712809 476.698125 
Q 75.712809 476.083125 75.300309 475.708125 
Q 74.887809 475.333125 74.201559 475.333125 
Q 73.674684 475.333125 73.046559 475.558125 
Q 72.420309 475.783125 71.705934 476.229375 
L 71.705934 474.3075 
Q 72.467184 474.05625 73.211559 473.925 
Q 73.955934 473.791875 74.670309 473.791875 
Q 76.241559 473.791875 77.111559 474.48375 
Q 77.981559 475.17375 77.981559 476.41125 
Q 77.981559 477.125625 77.612184 477.744375 
Q 77.242809 478.36125 76.059684 479.4 
L 74.190309 481.040625 
z
M 82.539919 481.040625 
L 86.389294 481.040625 
L 86.389294 482.698125 
L 80.031169 482.698125 
L 80.031169 481.040625 
L 83.224294 478.220625 
Q 83.653669 477.834375 83.858044 477.465 
Q 84.062419 477.095625 84.062419 476.698125 
Q 84.062419 476.083125 83.649919 475.708125 
Q 83.237419 475.333125 82.551169 475.333125 
Q 82.024294 475.333125 81.396169 475.558125 
Q 80.769919 475.783125 80.055544 476.229375 
L 80.055544 474.3075 
Q 80.816794 474.05625 81.561169 473.925 
Q 82.305544 473.791875 83.019919 473.791875 
Q 84.591169 473.791875 85.461169 474.48375 
Q 86.331169 475.17375 86.331169 476.41125 
Q 86.331169 477.125625 85.961794 477.744375 
Q 85.592419 478.36125 84.409294 479.4 
L 82.539919 481.040625 
z
" style="stroke: #ffffff"/>
    <path d="M 61.282106 481.040625 
L 65.131481 481.040625 
L 65.131481 482.698125 
L 58.773356 482.698125 
L 58.773356 481.040625 
L 61.966481 478.220625 
Q 62.395856 477.834375 62.600231 477.465 
Q 62.804606 477.095625 62.804606 476.698125 
Q 62.804606 476.083125 62.392106 475.708125 
Q 61.979606 475.333125 61.293356 475.333125 
Q 60.766481 475.333125 60.138356 475.558125 
Q 59.512106 475.783125 58.797731 476.229375 
L 58.797731 474.3075 
Q 59.558981 474.05625 60.303356 473.925 
Q 61.047731 473.791875 61.762106 473.791875 
Q 63.333356 473.791875 64.203356 474.48375 
Q 65.073356 475.17375 65.073356 476.41125 
Q 65.073356 477.125625 64.703981 477.744375 
Q 64.334606 478.36125 63.151481 479.4 
L 61.282106 481.040625 
z
M 67.39859 480.43125 
L 69.507965 480.43125 
L 69.507965 482.698125 
L 67.39859 482.698125 
L 67.39859 480.43125 
z
M 74.190309 481.040625 
L 78.039684 481.040625 
L 78.039684 482.698125 
L 71.681559 482.698125 
L 71.681559 481.040625 
L 74.874684 478.220625 
Q 75.304059 477.834375 75.508434 477.465 
Q 75.712809 477.095625 75.712809 476.698125 
Q 75.712809 476.083125 75.300309 475.708125 
Q 74.887809 475.333125 74.201559 475.333125 
Q 73.674684 475.333125 73.046559 475.558125 
Q 72.420309 475.783125 71.705934 476.229375 
L 71.705934 474.3075 
Q 72.467184 474.05625 73.211559 473.925 
Q 73.955934 473.791875 74.670309 473.791875 
Q 76.241559 473.791875 77.111559 474.48375 
Q 77.981559 475.17375 77.981559 476.41125 
Q 77.981559 477.125625 77.612184 477.744375 
Q 77.242809 478.36125 76.059684 479.4 
L 74.190309 481.040625 
z
M 82.539919 481.040625 
L 86.389294 481.040625 
L 86.389294 482.698125 
L 80.031169 482.698125 
L 80.031169 481.040625 
L 83.224294 478.220625 
Q 83.653669 477.834375 83.858044 477.465 
Q 84.062419 477.095625 84.062419 476.698125 
Q 84.062419 476.083125 83.649919 475.708125 
Q 83.237419 475.333125 82.551169 475.333125 
Q 82.024294 475.333125 81.396169 475.558125 
Q 80.769919 475.783125 80.055544 476.229375 
L 80.055544 474.3075 
Q 80.816794 474.05625 81.561169 473.925 
Q 82.305544 473.791875 83.019919 473.791875 
Q 84.591169 473.791875 85.461169 474.48375 
Q 86.331169 475.17375 86.331169 476.41125 
Q 86.331169 477.125625 85.961794 477.744375 
Q 85.592419 478.36125 84.409294 479.4 
L 82.539919 481.040625 
z
"/>
   </g>
   <g id="text_4">
    <path d="M 63.413981 452.780625 
Q 64.298981 453.009375 64.758356 453.575625 
Q 65.219606 454.14 65.219606 455.01375 
Q 65.219606 456.315 64.222106 456.991875 
Q 63.226481 457.66875 61.317731 457.66875 
Q 60.642731 457.66875 59.965856 457.56 
Q 59.288981 457.45125 58.627106 457.23375 
L 58.627106 455.49375 
Q 59.260856 455.810625 59.883356 455.971875 
Q 60.507731 456.133125 61.111481 456.133125 
Q 62.007731 456.133125 62.485856 455.82375 
Q 62.963981 455.5125 62.963981 454.93125 
Q 62.963981 454.333125 62.474606 454.025625 
Q 61.985231 453.718125 61.028981 453.718125 
L 60.127106 453.718125 
L 60.127106 452.265 
L 61.075856 452.265 
Q 61.927106 452.265 62.341481 451.99875 
Q 62.757731 451.7325 62.757731 451.186875 
Q 62.757731 450.684375 62.352731 450.40875 
Q 61.949606 450.133125 61.210856 450.133125 
Q 60.667106 450.133125 60.110231 450.256875 
Q 59.553356 450.37875 59.002106 450.61875 
L 59.002106 448.966875 
Q 59.669606 448.779375 60.325856 448.685625 
Q 60.982106 448.591875 61.615856 448.591875 
Q 63.320231 448.591875 64.165856 449.1525 
Q 65.013356 449.71125 65.013356 450.83625 
Q 65.013356 451.603125 64.608356 452.0925 
Q 64.205231 452.581875 63.413981 452.780625 
z
M 67.39859 455.23125 
L 69.507965 455.23125 
L 69.507965 457.498125 
L 67.39859 457.498125 
L 67.39859 455.23125 
z
M 75.075309 453.18 
Q 74.482809 453.18 74.186559 453.564375 
Q 73.890309 453.946875 73.890309 454.715625 
Q 73.890309 455.4825 74.186559 455.866875 
Q 74.482809 456.249375 75.075309 456.249375 
Q 75.671559 456.249375 75.967809 455.866875 
Q 76.264059 455.4825 76.264059 454.715625 
Q 76.264059 453.946875 75.967809 453.564375 
Q 75.671559 453.18 75.075309 453.18 
z
M 77.863434 448.978125 
L 77.863434 450.59625 
Q 77.306559 450.331875 76.813434 450.20625 
Q 76.322184 450.080625 75.853434 450.080625 
Q 74.846559 450.080625 74.284059 450.64125 
Q 73.721559 451.2 73.627809 452.300625 
Q 74.014059 452.01375 74.464059 451.87125 
Q 74.915934 451.726875 75.450309 451.726875 
Q 76.790934 451.726875 77.614059 452.5125 
Q 78.437184 453.29625 78.437184 454.5675 
Q 78.437184 455.97375 77.516559 456.82125 
Q 76.597809 457.66875 75.050934 457.66875 
Q 73.346559 457.66875 72.410934 456.5175 
Q 71.477184 455.364375 71.477184 453.249375 
Q 71.477184 451.081875 72.570309 449.8425 
Q 73.663434 448.603125 75.566559 448.603125 
Q 76.170309 448.603125 76.738434 448.696875 
Q 77.306559 448.790625 77.863434 448.978125 
z
M 82.539919 455.840625 
L 86.389294 455.840625 
L 86.389294 457.498125 
L 80.031169 457.498125 
L 80.031169 455.840625 
L 83.224294 453.020625 
Q 83.653669 452.634375 83.858044 452.265 
Q 84.062419 451.895625 84.062419 451.498125 
Q 84.062419 450.883125 83.649919 450.508125 
Q 83.237419 450.133125 82.551169 450.133125 
Q 82.024294 450.133125 81.396169 450.358125 
Q 80.769919 450.583125 80.055544 451.029375 
L 80.055544 449.1075 
Q 80.816794 448.85625 81.561169 448.725 
Q 82.305544 448.591875 83.019919 448.591875 
Q 84.591169 448.591875 85.461169 449.28375 
Q 86.331169 449.97375 86.331169 451.21125 
Q 86.331169 451.925625 85.961794 452.544375 
Q 85.592419 453.16125 84.409294 454.2 
L 82.539919 455.840625 
z
" style="stroke: #ffffff"/>
    <path d="M 63.413981 452.780625 
Q 64.298981 453.009375 64.758356 453.575625 
Q 65.219606 454.14 65.219606 455.01375 
Q 65.219606 456.315 64.222106 456.991875 
Q 63.226481 457.66875 61.317731 457.66875 
Q 60.642731 457.66875 59.965856 457.56 
Q 59.288981 457.45125 58.627106 457.23375 
L 58.627106 455.49375 
Q 59.260856 455.810625 59.883356 455.971875 
Q 60.507731 456.133125 61.111481 456.133125 
Q 62.007731 456.133125 62.485856 455.82375 
Q 62.963981 455.5125 62.963981 454.93125 
Q 62.963981 454.333125 62.474606 454.025625 
Q 61.985231 453.718125 61.028981 453.718125 
L 60.127106 453.718125 
L 60.127106 452.265 
L 61.075856 452.265 
Q 61.927106 452.265 62.341481 451.99875 
Q 62.757731 451.7325 62.757731 451.186875 
Q 62.757731 450.684375 62.352731 450.40875 
Q 61.949606 450.133125 61.210856 450.133125 
Q 60.667106 450.133125 60.110231 450.256875 
Q 59.553356 450.37875 59.002106 450.61875 
L 59.002106 448.966875 
Q 59.669606 448.779375 60.325856 448.685625 
Q 60.982106 448.591875 61.615856 448.591875 
Q 63.320231 448.591875 64.165856 449.1525 
Q 65.013356 449.71125 65.013356 450.83625 
Q 65.013356 451.603125 64.608356 452.0925 
Q 64.205231 452.581875 63.413981 452.780625 
z
M 67.39859 455.23125 
L 69.507965 455.23125 
L 69.507965 457.498125 
L 67.39859 457.498125 
L 67.39859 455.23125 
z
M 75.075309 453.18 
Q 74.482809 453.18 74.186559 453.564375 
Q 73.890309 453.946875 73.890309 454.715625 
Q 73.890309 455.4825 74.186559 455.866875 
Q 74.482809 456.249375 75.075309 456.249375 
Q 75.671559 456.249375 75.967809 455.866875 
Q 76.264059 455.4825 76.264059 454.715625 
Q 76.264059 453.946875 75.967809 453.564375 
Q 75.671559 453.18 75.075309 453.18 
z
M 77.863434 448.978125 
L 77.863434 450.59625 
Q 77.306559 450.331875 76.813434 450.20625 
Q 76.322184 450.080625 75.853434 450.080625 
Q 74.846559 450.080625 74.284059 450.64125 
Q 73.721559 451.2 73.627809 452.300625 
Q 74.014059 452.01375 74.464059 451.87125 
Q 74.915934 451.726875 75.450309 451.726875 
Q 76.790934 451.726875 77.614059 452.5125 
Q 78.437184 453.29625 78.437184 454.5675 
Q 78.437184 455.97375 77.516559 456.82125 
Q 76.597809 457.66875 75.050934 457.66875 
Q 73.346559 457.66875 72.410934 456.5175 
Q 71.477184 455.364375 71.477184 453.249375 
Q 71.477184 451.081875 72.570309 449.8425 
Q 73.663434 448.603125 75.566559 448.603125 
Q 76.170309 448.603125 76.738434 448.696875 
Q 77.306559 448.790625 77.863434 448.978125 
z
M 82.539919 455.840625 
L 86.389294 455.840625 
L 86.389294 457.498125 
L 80.031169 457.498125 
L 80.031169 455.840625 
L 83.224294 453.020625 
Q 83.653669 452.634375 83.858044 452.265 
Q 84.062419 451.895625 84.062419 451.498125 
Q 84.062419 450.883125 83.649919 450.508125 
Q 83.237419 450.133125 82.551169 450.133125 
Q 82.024294 450.133125 81.396169 450.358125 
Q 80.769919 450.583125 80.055544 451.029375 
L 80.055544 449.1075 
Q 80.816794 448.85625 81.561169 448.725 
Q 82.305544 448.591875 83.019919 448.591875 
Q 84.591169 448.591875 85.461169 449.28375 
Q 86.331169 449.97375 86.331169 451.21125 
Q 86.331169 451.925625 85.961794 452.544375 
Q 85.592419 453.16125 84.409294 454.2 
L 82.539919 455.840625 
z
"/>
   </g>
   <g id="text_5">
    <path d="M 62.242106 425.4075 
L 59.770856 429.069375 
L 62.242106 429.069375 
L 62.242106 425.4075 
z
M 61.867106 423.549375 
L 64.375856 423.549375 
L 64.375856 429.069375 
L 65.622731 429.069375 
L 65.622731 430.704375 
L 64.375856 430.704375 
L 64.375856 432.298125 
L 62.242106 432.298125 
L 62.242106 430.704375 
L 58.364606 430.704375 
L 58.364606 428.77125 
L 61.867106 423.549375 
z
M 67.39859 430.03125 
L 69.507965 430.03125 
L 69.507965 432.298125 
L 67.39859 432.298125 
L 67.39859 430.03125 
z
M 74.190309 430.640625 
L 78.039684 430.640625 
L 78.039684 432.298125 
L 71.681559 432.298125 
L 71.681559 430.640625 
L 74.874684 427.820625 
Q 75.304059 427.434375 75.508434 427.065 
Q 75.712809 426.695625 75.712809 426.298125 
Q 75.712809 425.683125 75.300309 425.308125 
Q 74.887809 424.933125 74.201559 424.933125 
Q 73.674684 424.933125 73.046559 425.158125 
Q 72.420309 425.383125 71.705934 425.829375 
L 71.705934 423.9075 
Q 72.467184 423.65625 73.211559 423.525 
Q 73.955934 423.391875 74.670309 423.391875 
Q 76.241559 423.391875 77.111559 424.08375 
Q 77.981559 424.77375 77.981559 426.01125 
Q 77.981559 426.725625 77.612184 427.344375 
Q 77.242809 427.96125 76.059684 429 
L 74.190309 430.640625 
z
M 83.424919 427.98 
Q 82.832419 427.98 82.536169 428.364375 
Q 82.239919 428.746875 82.239919 429.515625 
Q 82.239919 430.2825 82.536169 430.666875 
Q 82.832419 431.049375 83.424919 431.049375 
Q 84.021169 431.049375 84.317419 430.666875 
Q 84.613669 430.2825 84.613669 429.515625 
Q 84.613669 428.746875 84.317419 428.364375 
Q 84.021169 427.98 83.424919 427.98 
z
M 86.213044 423.778125 
L 86.213044 425.39625 
Q 85.656169 425.131875 85.163044 425.00625 
Q 84.671794 424.880625 84.203044 424.880625 
Q 83.196169 424.880625 82.633669 425.44125 
Q 82.071169 426 81.977419 427.100625 
Q 82.363669 426.81375 82.813669 426.67125 
Q 83.265544 426.526875 83.799919 426.526875 
Q 85.140544 426.526875 85.963669 427.3125 
Q 86.786794 428.09625 86.786794 429.3675 
Q 86.786794 430.77375 85.866169 431.62125 
Q 84.947419 432.46875 83.400544 432.46875 
Q 81.696169 432.46875 80.760544 431.3175 
Q 79.826794 430.164375 79.826794 428.049375 
Q 79.826794 425.881875 80.919919 424.6425 
Q 82.013044 423.403125 83.916169 423.403125 
Q 84.519919 423.403125 85.088044 423.496875 
Q 85.656169 423.590625 86.213044 423.778125 
z
" style="stroke: #ffffff"/>
    <path d="M 62.242106 425.4075 
L 59.770856 429.069375 
L 62.242106 429.069375 
L 62.242106 425.4075 
z
M 61.867106 423.549375 
L 64.375856 423.549375 
L 64.375856 429.069375 
L 65.622731 429.069375 
L 65.622731 430.704375 
L 64.375856 430.704375 
L 64.375856 432.298125 
L 62.242106 432.298125 
L 62.242106 430.704375 
L 58.364606 430.704375 
L 58.364606 428.77125 
L 61.867106 423.549375 
z
M 67.39859 430.03125 
L 69.507965 430.03125 
L 69.507965 432.298125 
L 67.39859 432.298125 
L 67.39859 430.03125 
z
M 74.190309 430.640625 
L 78.039684 430.640625 
L 78.039684 432.298125 
L 71.681559 432.298125 
L 71.681559 430.640625 
L 74.874684 427.820625 
Q 75.304059 427.434375 75.508434 427.065 
Q 75.712809 426.695625 75.712809 426.298125 
Q 75.712809 425.683125 75.300309 425.308125 
Q 74.887809 424.933125 74.201559 424.933125 
Q 73.674684 424.933125 73.046559 425.158125 
Q 72.420309 425.383125 71.705934 425.829375 
L 71.705934 423.9075 
Q 72.467184 423.65625 73.211559 423.525 
Q 73.955934 423.391875 74.670309 423.391875 
Q 76.241559 423.391875 77.111559 424.08375 
Q 77.981559 424.77375 77.981559 426.01125 
Q 77.981559 426.725625 77.612184 427.344375 
Q 77.242809 427.96125 76.059684 429 
L 74.190309 430.640625 
z
M 83.424919 427.98 
Q 82.832419 427.98 82.536169 428.364375 
Q 82.239919 428.746875 82.239919 429.515625 
Q 82.239919 430.2825 82.536169 430.666875 
Q 82.832419 431.049375 83.424919 431.049375 
Q 84.021169 431.049375 84.317419 430.666875 
Q 84.613669 430.2825 84.613669 429.515625 
Q 84.613669 428.746875 84.317419 428.364375 
Q 84.021169 427.98 83.424919 427.98 
z
M 86.213044 423.778125 
L 86.213044 425.39625 
Q 85.656169 425.131875 85.163044 425.00625 
Q 84.671794 424.880625 84.203044 424.880625 
Q 83.196169 424.880625 82.633669 425.44125 
Q 82.071169 426 81.977419 427.100625 
Q 82.363669 426.81375 82.813669 426.67125 
Q 83.265544 426.526875 83.799919 426.526875 
Q 85.140544 426.526875 85.963669 427.3125 
Q 86.786794 428.09625 86.786794 429.3675 
Q 86.786794 430.77375 85.866169 431.62125 
Q 84.947419 432.46875 83.400544 432.46875 
Q 81.696169 432.46875 80.760544 431.3175 
Q 79.826794 430.164375 79.826794 428.049375 
Q 79.826794 425.881875 80.919919 424.6425 
Q 82.013044 423.403125 83.916169 423.403125 
Q 84.519919 423.403125 85.088044 423.496875 
Q 85.656169 423.590625 86.213044 423.778125 
z
"/>
   </g>
   <g id="text_6">
    <path d="M 62.167106 402.78 
Q 61.574606 402.78 61.278356 403.164375 
Q 60.982106 403.546875 60.982106 404.315625 
Q 60.982106 405.0825 61.278356 405.466875 
Q 61.574606 405.849375 62.167106 405.849375 
Q 62.763356 405.849375 63.059606 405.466875 
Q 63.355856 405.0825 63.355856 404.315625 
Q 63.355856 403.546875 63.059606 403.164375 
Q 62.763356 402.78 62.167106 402.78 
z
M 64.955231 398.578125 
L 64.955231 400.19625 
Q 64.398356 399.931875 63.905231 399.80625 
Q 63.413981 399.680625 62.945231 399.680625 
Q 61.938356 399.680625 61.375856 400.24125 
Q 60.813356 400.8 60.719606 401.900625 
Q 61.105856 401.61375 61.555856 401.47125 
Q 62.007731 401.326875 62.542106 401.326875 
Q 63.882731 401.326875 64.705856 402.1125 
Q 65.528981 402.89625 65.528981 404.1675 
Q 65.528981 405.57375 64.608356 406.42125 
Q 63.689606 407.26875 62.142731 407.26875 
Q 60.438356 407.26875 59.502731 406.1175 
Q 58.568981 404.964375 58.568981 402.849375 
Q 58.568981 400.681875 59.662106 399.4425 
Q 60.755231 398.203125 62.658356 398.203125 
Q 63.262106 398.203125 63.830231 398.296875 
Q 64.398356 398.390625 64.955231 398.578125 
z
M 67.39859 404.83125 
L 69.507965 404.83125 
L 69.507965 407.098125 
L 67.39859 407.098125 
L 67.39859 404.83125 
z
M 74.190309 405.440625 
L 78.039684 405.440625 
L 78.039684 407.098125 
L 71.681559 407.098125 
L 71.681559 405.440625 
L 74.874684 402.620625 
Q 75.304059 402.234375 75.508434 401.865 
Q 75.712809 401.495625 75.712809 401.098125 
Q 75.712809 400.483125 75.300309 400.108125 
Q 74.887809 399.733125 74.201559 399.733125 
Q 73.674684 399.733125 73.046559 399.958125 
Q 72.420309 400.183125 71.705934 400.629375 
L 71.705934 398.7075 
Q 72.467184 398.45625 73.211559 398.325 
Q 73.955934 398.191875 74.670309 398.191875 
Q 76.241559 398.191875 77.111559 398.88375 
Q 77.981559 399.57375 77.981559 400.81125 
Q 77.981559 401.525625 77.612184 402.144375 
Q 77.242809 402.76125 76.059684 403.8 
L 74.190309 405.440625 
z
M 80.284294 406.905 
L 80.284294 405.286875 
Q 80.822419 405.54 81.313669 405.665625 
Q 81.806794 405.79125 82.286794 405.79125 
Q 83.295544 405.79125 83.858044 405.2325 
Q 84.420544 404.671875 84.519919 403.57125 
Q 84.122419 403.86375 83.670544 404.01 
Q 83.218669 404.15625 82.691794 404.15625 
Q 81.349294 404.15625 80.526169 403.374375 
Q 79.703044 402.5925 79.703044 401.315625 
Q 79.703044 399.901875 80.619919 399.0525 
Q 81.536794 398.203125 83.078044 398.203125 
Q 84.789919 398.203125 85.727419 399.358125 
Q 86.664919 400.51125 86.664919 402.620625 
Q 86.664919 404.79 85.568044 406.029375 
Q 84.473044 407.26875 82.562419 407.26875 
Q 81.947419 407.26875 81.384919 407.176875 
Q 80.822419 407.086875 80.284294 406.905 
z
M 83.066794 402.691875 
Q 83.659294 402.691875 83.957419 402.309375 
Q 84.255544 401.925 84.255544 401.15625 
Q 84.255544 400.395 83.957419 400.00875 
Q 83.659294 399.620625 83.066794 399.620625 
Q 82.474294 399.620625 82.176169 400.00875 
Q 81.878044 400.395 81.878044 401.15625 
Q 81.878044 401.925 82.176169 402.309375 
Q 82.474294 402.691875 83.066794 402.691875 
z
" style="stroke: #ffffff"/>
    <path d="M 62.167106 402.78 
Q 61.574606 402.78 61.278356 403.164375 
Q 60.982106 403.546875 60.982106 404.315625 
Q 60.982106 405.0825 61.278356 405.466875 
Q 61.574606 405.849375 62.167106 405.849375 
Q 62.763356 405.849375 63.059606 405.466875 
Q 63.355856 405.0825 63.355856 404.315625 
Q 63.355856 403.546875 63.059606 403.164375 
Q 62.763356 402.78 62.167106 402.78 
z
M 64.955231 398.578125 
L 64.955231 400.19625 
Q 64.398356 399.931875 63.905231 399.80625 
Q 63.413981 399.680625 62.945231 399.680625 
Q 61.938356 399.680625 61.375856 400.24125 
Q 60.813356 400.8 60.719606 401.900625 
Q 61.105856 401.61375 61.555856 401.47125 
Q 62.007731 401.326875 62.542106 401.326875 
Q 63.882731 401.326875 64.705856 402.1125 
Q 65.528981 402.89625 65.528981 404.1675 
Q 65.528981 405.57375 64.608356 406.42125 
Q 63.689606 407.26875 62.142731 407.26875 
Q 60.438356 407.26875 59.502731 406.1175 
Q 58.568981 404.964375 58.568981 402.849375 
Q 58.568981 400.681875 59.662106 399.4425 
Q 60.755231 398.203125 62.658356 398.203125 
Q 63.262106 398.203125 63.830231 398.296875 
Q 64.398356 398.390625 64.955231 398.578125 
z
M 67.39859 404.83125 
L 69.507965 404.83125 
L 69.507965 407.098125 
L 67.39859 407.098125 
L 67.39859 404.83125 
z
M 74.190309 405.440625 
L 78.039684 405.440625 
L 78.039684 407.098125 
L 71.681559 407.098125 
L 71.681559 405.440625 
L 74.874684 402.620625 
Q 75.304059 402.234375 75.508434 401.865 
Q 75.712809 401.495625 75.712809 401.098125 
Q 75.712809 400.483125 75.300309 400.108125 
Q 74.887809 399.733125 74.201559 399.733125 
Q 73.674684 399.733125 73.046559 399.958125 
Q 72.420309 400.183125 71.705934 400.629375 
L 71.705934 398.7075 
Q 72.467184 398.45625 73.211559 398.325 
Q 73.955934 398.191875 74.670309 398.191875 
Q 76.241559 398.191875 77.111559 398.88375 
Q 77.981559 399.57375 77.981559 400.81125 
Q 77.981559 401.525625 77.612184 402.144375 
Q 77.242809 402.76125 76.059684 403.8 
L 74.190309 405.440625 
z
M 80.284294 406.905 
L 80.284294 405.286875 
Q 80.822419 405.54 81.313669 405.665625 
Q 81.806794 405.79125 82.286794 405.79125 
Q 83.295544 405.79125 83.858044 405.2325 
Q 84.420544 404.671875 84.519919 403.57125 
Q 84.122419 403.86375 83.670544 404.01 
Q 83.218669 404.15625 82.691794 404.15625 
Q 81.349294 404.15625 80.526169 403.374375 
Q 79.703044 402.5925 79.703044 401.315625 
Q 79.703044 399.901875 80.619919 399.0525 
Q 81.536794 398.203125 83.078044 398.203125 
Q 84.789919 398.203125 85.727419 399.358125 
Q 86.664919 400.51125 86.664919 402.620625 
Q 86.664919 404.79 85.568044 406.029375 
Q 84.473044 407.26875 82.562419 407.26875 
Q 81.947419 407.26875 81.384919 407.176875 
Q 80.822419 407.086875 80.284294 406.905 
z
M 83.066794 402.691875 
Q 83.659294 402.691875 83.957419 402.309375 
Q 84.255544 401.925 84.255544 401.15625 
Q 84.255544 400.395 83.957419 400.00875 
Q 83.659294 399.620625 83.066794 399.620625 
Q 82.474294 399.620625 82.176169 400.00875 
Q 81.878044 400.395 81.878044 401.15625 
Q 81.878044 401.925 82.176169 402.309375 
Q 82.474294 402.691875 83.066794 402.691875 
z
"/>
   </g>
   <g id="text_7">
    <path d="M 62.002106 377.983125 
Q 61.370231 377.983125 61.028981 378.33 
Q 60.689606 378.675 60.689606 379.32 
Q 60.689606 379.965 61.028981 380.308125 
Q 61.370231 380.649375 62.002106 380.649375 
Q 62.630231 380.649375 62.963981 380.308125 
Q 63.297731 379.965 63.297731 379.32 
Q 63.297731 378.669375 62.963981 378.32625 
Q 62.630231 377.983125 62.002106 377.983125 
z
M 60.355856 377.240625 
Q 59.558981 376.99875 59.153981 376.501875 
Q 58.750856 376.003125 58.750856 375.25875 
Q 58.750856 374.1525 59.575856 373.573125 
Q 60.402731 372.991875 62.002106 372.991875 
Q 63.590231 372.991875 64.415231 373.569375 
Q 65.242106 374.146875 65.242106 375.25875 
Q 65.242106 376.003125 64.835231 376.501875 
Q 64.428356 376.99875 63.631481 377.240625 
Q 64.522106 377.48625 64.975856 378.039375 
Q 65.429606 378.5925 65.429606 379.43625 
Q 65.429606 380.7375 64.565231 381.403125 
Q 63.700856 382.06875 62.002106 382.06875 
Q 60.297731 382.06875 59.427731 381.403125 
Q 58.557731 380.7375 58.557731 379.43625 
Q 58.557731 378.5925 59.011481 378.039375 
Q 59.465231 377.48625 60.355856 377.240625 
z
M 60.882731 375.4875 
Q 60.882731 376.00875 61.173356 376.29 
Q 61.463981 376.57125 62.002106 376.57125 
Q 62.528981 376.57125 62.815856 376.29 
Q 63.104606 376.00875 63.104606 375.4875 
Q 63.104606 374.96625 62.815856 374.68875 
Q 62.528981 374.409375 62.002106 374.409375 
Q 61.463981 374.409375 61.173356 374.690625 
Q 60.882731 374.971875 60.882731 375.4875 
z
M 67.39859 379.63125 
L 69.507965 379.63125 
L 69.507965 381.898125 
L 67.39859 381.898125 
L 67.39859 379.63125 
z
M 76.252809 377.514375 
Q 76.252809 375.87375 75.945309 375.204375 
Q 75.637809 374.533125 74.910309 374.533125 
Q 74.184684 374.533125 73.873434 375.204375 
Q 73.562184 375.87375 73.562184 377.514375 
Q 73.562184 379.17375 73.873434 379.854375 
Q 74.184684 380.533125 74.910309 380.533125 
Q 75.632184 380.533125 75.941559 379.854375 
Q 76.252809 379.17375 76.252809 377.514375 
z
M 78.508434 377.533125 
Q 78.508434 379.70625 77.570934 380.8875 
Q 76.633434 382.06875 74.910309 382.06875 
Q 73.181559 382.06875 72.244059 380.8875 
Q 71.306559 379.70625 71.306559 377.533125 
Q 71.306559 375.3525 72.244059 374.173125 
Q 73.181559 372.991875 74.910309 372.991875 
Q 76.633434 372.991875 77.570934 374.173125 
Q 78.508434 375.3525 78.508434 377.533125 
z
M 82.539919 380.240625 
L 86.389294 380.240625 
L 86.389294 381.898125 
L 80.031169 381.898125 
L 80.031169 380.240625 
L 83.224294 377.420625 
Q 83.653669 377.034375 83.858044 376.665 
Q 84.062419 376.295625 84.062419 375.898125 
Q 84.062419 375.283125 83.649919 374.908125 
Q 83.237419 374.533125 82.551169 374.533125 
Q 82.024294 374.533125 81.396169 374.758125 
Q 80.769919 374.983125 80.055544 375.429375 
L 80.055544 373.5075 
Q 80.816794 373.25625 81.561169 373.125 
Q 82.305544 372.991875 83.019919 372.991875 
Q 84.591169 372.991875 85.461169 373.68375 
Q 86.331169 374.37375 86.331169 375.61125 
Q 86.331169 376.325625 85.961794 376.944375 
Q 85.592419 377.56125 84.409294 378.6 
L 82.539919 380.240625 
z
" style="stroke: #ffffff"/>
    <path d="M 62.002106 377.983125 
Q 61.370231 377.983125 61.028981 378.33 
Q 60.689606 378.675 60.689606 379.32 
Q 60.689606 379.965 61.028981 380.308125 
Q 61.370231 380.649375 62.002106 380.649375 
Q 62.630231 380.649375 62.963981 380.308125 
Q 63.297731 379.965 63.297731 379.32 
Q 63.297731 378.669375 62.963981 378.32625 
Q 62.630231 377.983125 62.002106 377.983125 
z
M 60.355856 377.240625 
Q 59.558981 376.99875 59.153981 376.501875 
Q 58.750856 376.003125 58.750856 375.25875 
Q 58.750856 374.1525 59.575856 373.573125 
Q 60.402731 372.991875 62.002106 372.991875 
Q 63.590231 372.991875 64.415231 373.569375 
Q 65.242106 374.146875 65.242106 375.25875 
Q 65.242106 376.003125 64.835231 376.501875 
Q 64.428356 376.99875 63.631481 377.240625 
Q 64.522106 377.48625 64.975856 378.039375 
Q 65.429606 378.5925 65.429606 379.43625 
Q 65.429606 380.7375 64.565231 381.403125 
Q 63.700856 382.06875 62.002106 382.06875 
Q 60.297731 382.06875 59.427731 381.403125 
Q 58.557731 380.7375 58.557731 379.43625 
Q 58.557731 378.5925 59.011481 378.039375 
Q 59.465231 377.48625 60.355856 377.240625 
z
M 60.882731 375.4875 
Q 60.882731 376.00875 61.173356 376.29 
Q 61.463981 376.57125 62.002106 376.57125 
Q 62.528981 376.57125 62.815856 376.29 
Q 63.104606 376.00875 63.104606 375.4875 
Q 63.104606 374.96625 62.815856 374.68875 
Q 62.528981 374.409375 62.002106 374.409375 
Q 61.463981 374.409375 61.173356 374.690625 
Q 60.882731 374.971875 60.882731 375.4875 
z
M 67.39859 379.63125 
L 69.507965 379.63125 
L 69.507965 381.898125 
L 67.39859 381.898125 
L 67.39859 379.63125 
z
M 76.252809 377.514375 
Q 76.252809 375.87375 75.945309 375.204375 
Q 75.637809 374.533125 74.910309 374.533125 
Q 74.184684 374.533125 73.873434 375.204375 
Q 73.562184 375.87375 73.562184 377.514375 
Q 73.562184 379.17375 73.873434 379.854375 
Q 74.184684 380.533125 74.910309 380.533125 
Q 75.632184 380.533125 75.941559 379.854375 
Q 76.252809 379.17375 76.252809 377.514375 
z
M 78.508434 377.533125 
Q 78.508434 379.70625 77.570934 380.8875 
Q 76.633434 382.06875 74.910309 382.06875 
Q 73.181559 382.06875 72.244059 380.8875 
Q 71.306559 379.70625 71.306559 377.533125 
Q 71.306559 375.3525 72.244059 374.173125 
Q 73.181559 372.991875 74.910309 372.991875 
Q 76.633434 372.991875 77.570934 374.173125 
Q 78.508434 375.3525 78.508434 377.533125 
z
M 82.539919 380.240625 
L 86.389294 380.240625 
L 86.389294 381.898125 
L 80.031169 381.898125 
L 80.031169 380.240625 
L 83.224294 377.420625 
Q 83.653669 377.034375 83.858044 376.665 
Q 84.062419 376.295625 84.062419 375.898125 
Q 84.062419 375.283125 83.649919 374.908125 
Q 83.237419 374.533125 82.551169 374.533125 
Q 82.024294 374.533125 81.396169 374.758125 
Q 80.769919 374.983125 80.055544 375.429375 
L 80.055544 373.5075 
Q 80.816794 373.25625 81.561169 373.125 
Q 82.305544 372.991875 83.019919 372.991875 
Q 84.591169 372.991875 85.461169 373.68375 
Q 86.331169 374.37375 86.331169 375.61125 
Q 86.331169 376.325625 85.961794 376.944375 
Q 85.592419 377.56125 84.409294 378.6 
L 82.539919 380.240625 
z
"/>
   </g>
   <g id="text_8">
    <path d="M 55.056169 355.14 
L 57.049294 355.14 
L 57.049294 349.485 
L 55.003669 349.906875 
L 55.003669 348.37125 
L 57.036169 347.949375 
L 59.181169 347.949375 
L 59.181169 355.14 
L 61.174294 355.14 
L 61.174294 356.698125 
L 55.056169 356.698125 
L 55.056169 355.14 
z
M 67.519528 352.314375 
Q 67.519528 350.67375 67.212028 350.004375 
Q 66.904528 349.333125 66.177028 349.333125 
Q 65.451403 349.333125 65.140153 350.004375 
Q 64.828903 350.67375 64.828903 352.314375 
Q 64.828903 353.97375 65.140153 354.654375 
Q 65.451403 355.333125 66.177028 355.333125 
Q 66.898903 355.333125 67.208278 354.654375 
Q 67.519528 353.97375 67.519528 352.314375 
z
M 69.775153 352.333125 
Q 69.775153 354.50625 68.837653 355.6875 
Q 67.900153 356.86875 66.177028 356.86875 
Q 64.448278 356.86875 63.510778 355.6875 
Q 62.573278 354.50625 62.573278 352.333125 
Q 62.573278 350.1525 63.510778 348.973125 
Q 64.448278 347.791875 66.177028 347.791875 
Q 67.900153 347.791875 68.837653 348.973125 
Q 69.775153 350.1525 69.775153 352.333125 
z
M 71.573512 354.43125 
L 73.682887 354.43125 
L 73.682887 356.698125 
L 71.573512 356.698125 
L 71.573512 354.43125 
z
M 79.325231 349.8075 
L 76.853981 353.469375 
L 79.325231 353.469375 
L 79.325231 349.8075 
z
M 78.950231 347.949375 
L 81.458981 347.949375 
L 81.458981 353.469375 
L 82.705856 353.469375 
L 82.705856 355.104375 
L 81.458981 355.104375 
L 81.458981 356.698125 
L 79.325231 356.698125 
L 79.325231 355.104375 
L 75.447731 355.104375 
L 75.447731 353.17125 
L 78.950231 347.949375 
z
M 87.67484 349.8075 
L 85.20359 353.469375 
L 87.67484 353.469375 
L 87.67484 349.8075 
z
M 87.29984 347.949375 
L 89.80859 347.949375 
L 89.80859 353.469375 
L 91.055465 353.469375 
L 91.055465 355.104375 
L 89.80859 355.104375 
L 89.80859 356.698125 
L 87.67484 356.698125 
L 87.67484 355.104375 
L 83.79734 355.104375 
L 83.79734 353.17125 
L 87.29984 347.949375 
z
" style="stroke: #ffffff"/>
    <path d="M 55.056169 355.14 
L 57.049294 355.14 
L 57.049294 349.485 
L 55.003669 349.906875 
L 55.003669 348.37125 
L 57.036169 347.949375 
L 59.181169 347.949375 
L 59.181169 355.14 
L 61.174294 355.14 
L 61.174294 356.698125 
L 55.056169 356.698125 
L 55.056169 355.14 
z
M 67.519528 352.314375 
Q 67.519528 350.67375 67.212028 350.004375 
Q 66.904528 349.333125 66.177028 349.333125 
Q 65.451403 349.333125 65.140153 350.004375 
Q 64.828903 350.67375 64.828903 352.314375 
Q 64.828903 353.97375 65.140153 354.654375 
Q 65.451403 355.333125 66.177028 355.333125 
Q 66.898903 355.333125 67.208278 354.654375 
Q 67.519528 353.97375 67.519528 352.314375 
z
M 69.775153 352.333125 
Q 69.775153 354.50625 68.837653 355.6875 
Q 67.900153 356.86875 66.177028 356.86875 
Q 64.448278 356.86875 63.510778 355.6875 
Q 62.573278 354.50625 62.573278 352.333125 
Q 62.573278 350.1525 63.510778 348.973125 
Q 64.448278 347.791875 66.177028 347.791875 
Q 67.900153 347.791875 68.837653 348.973125 
Q 69.775153 350.1525 69.775153 352.333125 
z
M 71.573512 354.43125 
L 73.682887 354.43125 
L 73.682887 356.698125 
L 71.573512 356.698125 
L 71.573512 354.43125 
z
M 79.325231 349.8075 
L 76.853981 353.469375 
L 79.325231 353.469375 
L 79.325231 349.8075 
z
M 78.950231 347.949375 
L 81.458981 347.949375 
L 81.458981 353.469375 
L 82.705856 353.469375 
L 82.705856 355.104375 
L 81.458981 355.104375 
L 81.458981 356.698125 
L 79.325231 356.698125 
L 79.325231 355.104375 
L 75.447731 355.104375 
L 75.447731 353.17125 
L 78.950231 347.949375 
z
M 87.67484 349.8075 
L 85.20359 353.469375 
L 87.67484 353.469375 
L 87.67484 349.8075 
z
M 87.29984 347.949375 
L 89.80859 347.949375 
L 89.80859 353.469375 
L 91.055465 353.469375 
L 91.055465 355.104375 
L 89.80859 355.104375 
L 89.80859 356.698125 
L 87.67484 356.698125 
L 87.67484 355.104375 
L 83.79734 355.104375 
L 83.79734 353.17125 
L 87.29984 347.949375 
z
"/>
   </g>
   <g id="text_9">
    <path d="M 55.056169 329.94 
L 57.049294 329.94 
L 57.049294 324.285 
L 55.003669 324.706875 
L 55.003669 323.17125 
L 57.036169 322.749375 
L 59.181169 322.749375 
L 59.181169 329.94 
L 61.174294 329.94 
L 61.174294 331.498125 
L 55.056169 331.498125 
L 55.056169 329.94 
z
M 66.417028 324.6075 
L 63.945778 328.269375 
L 66.417028 328.269375 
L 66.417028 324.6075 
z
M 66.042028 322.749375 
L 68.550778 322.749375 
L 68.550778 328.269375 
L 69.797653 328.269375 
L 69.797653 329.904375 
L 68.550778 329.904375 
L 68.550778 331.498125 
L 66.417028 331.498125 
L 66.417028 329.904375 
L 62.539528 329.904375 
L 62.539528 327.97125 
L 66.042028 322.749375 
z
M 71.573512 329.23125 
L 73.682887 329.23125 
L 73.682887 331.498125 
L 71.573512 331.498125 
L 71.573512 329.23125 
z
M 79.325231 324.6075 
L 76.853981 328.269375 
L 79.325231 328.269375 
L 79.325231 324.6075 
z
M 78.950231 322.749375 
L 81.458981 322.749375 
L 81.458981 328.269375 
L 82.705856 328.269375 
L 82.705856 329.904375 
L 81.458981 329.904375 
L 81.458981 331.498125 
L 79.325231 331.498125 
L 79.325231 329.904375 
L 75.447731 329.904375 
L 75.447731 327.97125 
L 78.950231 322.749375 
z
M 87.43484 327.583125 
Q 86.802965 327.583125 86.461715 327.93 
Q 86.12234 328.275 86.12234 328.92 
Q 86.12234 329.565 86.461715 329.908125 
Q 86.802965 330.249375 87.43484 330.249375 
Q 88.062965 330.249375 88.396715 329.908125 
Q 88.730465 329.565 88.730465 328.92 
Q 88.730465 328.269375 88.396715 327.92625 
Q 88.062965 327.583125 87.43484 327.583125 
z
M 85.78859 326.840625 
Q 84.991715 326.59875 84.586715 326.101875 
Q 84.18359 325.603125 84.18359 324.85875 
Q 84.18359 323.7525 85.00859 323.173125 
Q 85.835465 322.591875 87.43484 322.591875 
Q 89.022965 322.591875 89.847965 323.169375 
Q 90.67484 323.746875 90.67484 324.85875 
Q 90.67484 325.603125 90.267965 326.101875 
Q 89.86109 326.59875 89.064215 326.840625 
Q 89.95484 327.08625 90.40859 327.639375 
Q 90.86234 328.1925 90.86234 329.03625 
Q 90.86234 330.3375 89.997965 331.003125 
Q 89.13359 331.66875 87.43484 331.66875 
Q 85.730465 331.66875 84.860465 331.003125 
Q 83.990465 330.3375 83.990465 329.03625 
Q 83.990465 328.1925 84.444215 327.639375 
Q 84.897965 327.08625 85.78859 326.840625 
z
M 86.315465 325.0875 
Q 86.315465 325.60875 86.60609 325.89 
Q 86.896715 326.17125 87.43484 326.17125 
Q 87.961715 326.17125 88.24859 325.89 
Q 88.53734 325.60875 88.53734 325.0875 
Q 88.53734 324.56625 88.24859 324.28875 
Q 87.961715 324.009375 87.43484 324.009375 
Q 86.896715 324.009375 86.60609 324.290625 
Q 86.315465 324.571875 86.315465 325.0875 
z
" style="stroke: #ffffff"/>
    <path d="M 55.056169 329.94 
L 57.049294 329.94 
L 57.049294 324.285 
L 55.003669 324.706875 
L 55.003669 323.17125 
L 57.036169 322.749375 
L 59.181169 322.749375 
L 59.181169 329.94 
L 61.174294 329.94 
L 61.174294 331.498125 
L 55.056169 331.498125 
L 55.056169 329.94 
z
M 66.417028 324.6075 
L 63.945778 328.269375 
L 66.417028 328.269375 
L 66.417028 324.6075 
z
M 66.042028 322.749375 
L 68.550778 322.749375 
L 68.550778 328.269375 
L 69.797653 328.269375 
L 69.797653 329.904375 
L 68.550778 329.904375 
L 68.550778 331.498125 
L 66.417028 331.498125 
L 66.417028 329.904375 
L 62.539528 329.904375 
L 62.539528 327.97125 
L 66.042028 322.749375 
z
M 71.573512 329.23125 
L 73.682887 329.23125 
L 73.682887 331.498125 
L 71.573512 331.498125 
L 71.573512 329.23125 
z
M 79.325231 324.6075 
L 76.853981 328.269375 
L 79.325231 328.269375 
L 79.325231 324.6075 
z
M 78.950231 322.749375 
L 81.458981 322.749375 
L 81.458981 328.269375 
L 82.705856 328.269375 
L 82.705856 329.904375 
L 81.458981 329.904375 
L 81.458981 331.498125 
L 79.325231 331.498125 
L 79.325231 329.904375 
L 75.447731 329.904375 
L 75.447731 327.97125 
L 78.950231 322.749375 
z
M 87.43484 327.583125 
Q 86.802965 327.583125 86.461715 327.93 
Q 86.12234 328.275 86.12234 328.92 
Q 86.12234 329.565 86.461715 329.908125 
Q 86.802965 330.249375 87.43484 330.249375 
Q 88.062965 330.249375 88.396715 329.908125 
Q 88.730465 329.565 88.730465 328.92 
Q 88.730465 328.269375 88.396715 327.92625 
Q 88.062965 327.583125 87.43484 327.583125 
z
M 85.78859 326.840625 
Q 84.991715 326.59875 84.586715 326.101875 
Q 84.18359 325.603125 84.18359 324.85875 
Q 84.18359 323.7525 85.00859 323.173125 
Q 85.835465 322.591875 87.43484 322.591875 
Q 89.022965 322.591875 89.847965 323.169375 
Q 90.67484 323.746875 90.67484 324.85875 
Q 90.67484 325.603125 90.267965 326.101875 
Q 89.86109 326.59875 89.064215 326.840625 
Q 89.95484 327.08625 90.40859 327.639375 
Q 90.86234 328.1925 90.86234 329.03625 
Q 90.86234 330.3375 89.997965 331.003125 
Q 89.13359 331.66875 87.43484 331.66875 
Q 85.730465 331.66875 84.860465 331.003125 
Q 83.990465 330.3375 83.990465 329.03625 
Q 83.990465 328.1925 84.444215 327.639375 
Q 84.897965 327.08625 85.78859 326.840625 
z
M 86.315465 325.0875 
Q 86.315465 325.60875 86.60609 325.89 
Q 86.896715 326.17125 87.43484 326.17125 
Q 87.961715 326.17125 88.24859 325.89 
Q 88.53734 325.60875 88.53734 325.0875 
Q 88.53734 324.56625 88.24859 324.28875 
Q 87.961715 324.009375 87.43484 324.009375 
Q 86.896715 324.009375 86.60609 324.290625 
Q 86.315465 324.571875 86.315465 325.0875 
z
"/>
   </g>
   <g id="text_10">
    <path d="M 59.230856 304.74 
L 61.223981 304.74 
L 61.223981 299.085 
L 59.178356 299.506875 
L 59.178356 297.97125 
L 61.210856 297.549375 
L 63.355856 297.549375 
L 63.355856 304.74 
L 65.348981 304.74 
L 65.348981 306.298125 
L 59.230856 306.298125 
L 59.230856 304.74 
z
M 67.37609 306.105 
L 67.37609 304.486875 
Q 67.914215 304.74 68.405465 304.865625 
Q 68.89859 304.99125 69.37859 304.99125 
Q 70.38734 304.99125 70.94984 304.4325 
Q 71.51234 303.871875 71.611715 302.77125 
Q 71.214215 303.06375 70.76234 303.21 
Q 70.310465 303.35625 69.78359 303.35625 
Q 68.44109 303.35625 67.617965 302.574375 
Q 66.79484 301.7925 66.79484 300.515625 
Q 66.79484 299.101875 67.711715 298.2525 
Q 68.62859 297.403125 70.16984 297.403125 
Q 71.881715 297.403125 72.819215 298.558125 
Q 73.756715 299.71125 73.756715 301.820625 
Q 73.756715 303.99 72.65984 305.229375 
Q 71.56484 306.46875 69.654215 306.46875 
Q 69.039215 306.46875 68.476715 306.376875 
Q 67.914215 306.286875 67.37609 306.105 
z
M 70.15859 301.891875 
Q 70.75109 301.891875 71.049215 301.509375 
Q 71.34734 301.125 71.34734 300.35625 
Q 71.34734 299.595 71.049215 299.20875 
Q 70.75109 298.820625 70.15859 298.820625 
Q 69.56609 298.820625 69.267965 299.20875 
Q 68.96984 299.595 68.96984 300.35625 
Q 68.96984 301.125 69.267965 301.509375 
Q 69.56609 301.891875 70.15859 301.891875 
z
M 75.7482 304.03125 
L 77.857575 304.03125 
L 77.857575 306.298125 
L 75.7482 306.298125 
L 75.7482 304.03125 
z
M 84.602419 301.914375 
Q 84.602419 300.27375 84.294919 299.604375 
Q 83.987419 298.933125 83.259919 298.933125 
Q 82.534294 298.933125 82.223044 299.604375 
Q 81.911794 300.27375 81.911794 301.914375 
Q 81.911794 303.57375 82.223044 304.254375 
Q 82.534294 304.933125 83.259919 304.933125 
Q 83.981794 304.933125 84.291169 304.254375 
Q 84.602419 303.57375 84.602419 301.914375 
z
M 86.858044 301.933125 
Q 86.858044 304.10625 85.920544 305.2875 
Q 84.983044 306.46875 83.259919 306.46875 
Q 81.531169 306.46875 80.593669 305.2875 
Q 79.656169 304.10625 79.656169 301.933125 
Q 79.656169 299.7525 80.593669 298.573125 
Q 81.531169 297.391875 83.259919 297.391875 
Q 84.983044 297.391875 85.920544 298.573125 
Q 86.858044 299.7525 86.858044 301.933125 
z
" style="stroke: #ffffff"/>
    <path d="M 59.230856 304.74 
L 61.223981 304.74 
L 61.223981 299.085 
L 59.178356 299.506875 
L 59.178356 297.97125 
L 61.210856 297.549375 
L 63.355856 297.549375 
L 63.355856 304.74 
L 65.348981 304.74 
L 65.348981 306.298125 
L 59.230856 306.298125 
L 59.230856 304.74 
z
M 67.37609 306.105 
L 67.37609 304.486875 
Q 67.914215 304.74 68.405465 304.865625 
Q 68.89859 304.99125 69.37859 304.99125 
Q 70.38734 304.99125 70.94984 304.4325 
Q 71.51234 303.871875 71.611715 302.77125 
Q 71.214215 303.06375 70.76234 303.21 
Q 70.310465 303.35625 69.78359 303.35625 
Q 68.44109 303.35625 67.617965 302.574375 
Q 66.79484 301.7925 66.79484 300.515625 
Q 66.79484 299.101875 67.711715 298.2525 
Q 68.62859 297.403125 70.16984 297.403125 
Q 71.881715 297.403125 72.819215 298.558125 
Q 73.756715 299.71125 73.756715 301.820625 
Q 73.756715 303.99 72.65984 305.229375 
Q 71.56484 306.46875 69.654215 306.46875 
Q 69.039215 306.46875 68.476715 306.376875 
Q 67.914215 306.286875 67.37609 306.105 
z
M 70.15859 301.891875 
Q 70.75109 301.891875 71.049215 301.509375 
Q 71.34734 301.125 71.34734 300.35625 
Q 71.34734 299.595 71.049215 299.20875 
Q 70.75109 298.820625 70.15859 298.820625 
Q 69.56609 298.820625 69.267965 299.20875 
Q 68.96984 299.595 68.96984 300.35625 
Q 68.96984 301.125 69.267965 301.509375 
Q 69.56609 301.891875 70.15859 301.891875 
z
M 75.7482 304.03125 
L 77.857575 304.03125 
L 77.857575 306.298125 
L 75.7482 306.298125 
L 75.7482 304.03125 
z
M 84.602419 301.914375 
Q 84.602419 300.27375 84.294919 299.604375 
Q 83.987419 298.933125 83.259919 298.933125 
Q 82.534294 298.933125 82.223044 299.604375 
Q 81.911794 300.27375 81.911794 301.914375 
Q 81.911794 303.57375 82.223044 304.254375 
Q 82.534294 304.933125 83.259919 304.933125 
Q 83.981794 304.933125 84.291169 304.254375 
Q 84.602419 303.57375 84.602419 301.914375 
z
M 86.858044 301.933125 
Q 86.858044 304.10625 85.920544 305.2875 
Q 84.983044 306.46875 83.259919 306.46875 
Q 81.531169 306.46875 80.593669 305.2875 
Q 79.656169 304.10625 79.656169 301.933125 
Q 79.656169 299.7525 80.593669 298.573125 
Q 81.531169 297.391875 83.259919 297.391875 
Q 84.983044 297.391875 85.920544 298.573125 
Q 86.858044 299.7525 86.858044 301.933125 
z
"/>
   </g>
  </g>
  <g id="axes_6">
   <g id="patch_15">
    <path d="M 104.982353 512.64 
L 129.6 512.64 
L 129.6 290.88 
L 104.982353 290.88 
L 104.982353 512.64 
z
" style="fill: none"/>
   </g>
  </g>
 </g>
 <defs>
  <clipPath id="p95791bc539">
   <rect x="49.182353" y="290.88" width="49.235294" height="221.76"/>
  </clipPath>
 </defs>
</svg>
