<?xml version="1.0" encoding="utf-8" standalone="no"?>
<!DOCTYPE svg PUBLIC "-//W3C//DTD SVG 1.1//EN"
  "http://www.w3.org/Graphics/SVG/1.1/DTD/svg11.dtd">
<svg xmlns:xlink="http://www.w3.org/1999/xlink" width="144pt" height="576pt" viewBox="0 0 144 576" xmlns="http://www.w3.org/2000/svg" version="1.1">
 <metadata>
  <rdf:RDF xmlns:dc="http://purl.org/dc/elements/1.1/" xmlns:cc="http://creativecommons.org/ns#" xmlns:rdf="http://www.w3.org/1999/02/22-rdf-syntax-ns#">
   <cc:Work>
    <dc:type rdf:resource="http://purl.org/dc/dcmitype/StillImage"/>
    <dc:date>2023-08-03T01:10:03.673442</dc:date>
    <dc:format>image/svg+xml</dc:format>
    <dc:creator>
     <cc:Agent>
      <dc:title>Matplotlib v3.5.1, https://matplotlib.org/</dc:title>
     </cc:Agent>
    </dc:creator>
   </cc:Work>
  </rdf:RDF>
 </metadata>
 <defs>
  <style type="text/css">*{stroke-linejoin: round; stroke-linecap: butt}</style>
 </defs>
 <g id="figure_1">
  <g id="patch_1">
   <path d="M 0 576 
L 144 576 
L 144 0 
L 0 0 
L 0 576 
z
" style="fill: none"/>
  </g>
  <g id="axes_1">
   <g id="patch_2">
    <path d="M 18 290.88 
L 42.617647 290.88 
L 42.617647 69.12 
L 18 69.12 
L 18 290.88 
z
" style="fill: none"/>
   </g>
  </g>
  <g id="axes_2">
   <g id="patch_3">
    <path d="M 49.182353 290.88 
L 98.417647 290.88 
L 98.417647 69.12 
L 49.182353 69.12 
L 49.182353 290.88 
z
" style="fill: none"/>
   </g>
   <g id="text_1">
    <path d="M 21.0525 253.927125 
L 19.445625 258.280875 
L 22.663125 258.280875 
L 21.0525 253.927125 
z
M 20.383125 252.760875 
L 21.725625 252.760875 
L 25.059375 261.509625 
L 23.829375 261.509625 
L 23.0325 259.26525 
L 19.089375 259.26525 
L 18.2925 261.509625 
L 17.04375 261.509625 
L 20.383125 252.760875 
z
M 32.677734 253.435875 
L 32.677734 254.68275 
Q 32.079609 254.125875 31.402734 253.852125 
Q 30.725859 253.5765 29.964609 253.5765 
Q 28.464609 253.5765 27.667734 254.493375 
Q 26.870859 255.41025 26.870859 257.144625 
Q 26.870859 258.873375 27.667734 259.79025 
Q 28.464609 260.707125 29.964609 260.707125 
Q 30.725859 260.707125 31.402734 260.4315 
Q 32.079609 260.155875 32.677734 259.599 
L 32.677734 260.8365 
Q 32.057109 261.258375 31.361484 261.47025 
Q 30.667734 261.68025 29.895234 261.68025 
Q 27.907734 261.68025 26.763984 260.46525 
Q 25.622109 259.248375 25.622109 257.144625 
Q 25.622109 255.03525 26.763984 253.82025 
Q 27.907734 252.603375 29.895234 252.603375 
Q 30.678984 252.603375 31.372734 252.8115 
Q 32.068359 253.019625 32.677734 253.435875 
z
M 39.749766 253.04775 
L 39.749766 254.20275 
Q 39.076641 253.88025 38.478516 253.72275 
Q 37.880391 253.563375 37.323516 253.563375 
Q 36.357891 253.563375 35.832891 253.938375 
Q 35.307891 254.313375 35.307891 255.00525 
Q 35.307891 255.5865 35.656641 255.88275 
Q 36.005391 256.177125 36.978516 256.359 
L 37.692891 256.50525 
Q 39.016641 256.758375 39.646641 257.394 
Q 40.276641 258.029625 40.276641 259.094625 
Q 40.276641 260.36775 39.423516 261.024 
Q 38.572266 261.68025 36.926016 261.68025 
Q 36.305391 261.68025 35.604141 261.539625 
Q 34.904766 261.399 34.154766 261.123375 
L 34.154766 259.904625 
Q 34.874766 260.30775 35.566641 260.514 
Q 36.258516 260.718375 36.926016 260.718375 
Q 37.938516 260.718375 38.489766 260.320875 
Q 39.041016 259.9215 39.041016 259.18275 
Q 39.041016 258.539625 38.645391 258.175875 
Q 38.249766 257.812125 37.347891 257.63025 
L 36.626016 257.489625 
Q 35.302266 257.227125 34.709766 256.664625 
Q 34.119141 256.102125 34.119141 255.099 
Q 34.119141 253.938375 34.936641 253.270875 
Q 35.754141 252.603375 37.188516 252.603375 
Q 37.805391 252.603375 38.442891 252.715875 
Q 39.082266 252.8265 39.749766 253.04775 
z
M 42.240703 252.760875 
L 46.886953 252.760875 
L 46.886953 253.758375 
L 43.324453 253.758375 
L 43.324453 255.9015 
Q 43.581328 255.813375 43.838203 255.77025 
Q 44.096953 255.727125 44.355703 255.727125 
Q 45.820078 255.727125 46.675078 256.529625 
Q 47.531953 257.332125 47.531953 258.70275 
Q 47.531953 260.114625 46.652578 260.898375 
Q 45.773203 261.68025 44.173828 261.68025 
Q 43.622578 261.68025 43.050703 261.5865 
Q 42.480703 261.49275 41.871328 261.30525 
L 41.871328 260.114625 
Q 42.398203 260.4015 42.960703 260.542125 
Q 43.523203 260.68275 44.149453 260.68275 
Q 45.163828 260.68275 45.754453 260.15025 
Q 46.346953 259.61775 46.346953 258.70275 
Q 46.346953 257.789625 45.754453 257.257125 
Q 45.163828 256.72275 44.149453 256.72275 
Q 43.675078 256.72275 43.202578 256.82775 
Q 42.731953 256.93275 42.240703 257.155875 
L 42.240703 252.760875 
z
M 54.754922 253.734 
L 54.754922 257.020875 
L 56.243672 257.020875 
Q 57.070547 257.020875 57.520547 256.593375 
Q 57.972422 256.165875 57.972422 255.374625 
Q 57.972422 254.589 57.520547 254.1615 
Q 57.070547 253.734 56.243672 253.734 
L 54.754922 253.734 
z
M 53.571797 252.760875 
L 56.243672 252.760875 
Q 57.715547 252.760875 58.467422 253.4265 
Q 59.221172 254.092125 59.221172 255.374625 
Q 59.221172 256.67025 58.467422 257.332125 
Q 57.715547 257.994 56.243672 257.994 
L 54.754922 257.994 
L 54.754922 261.509625 
L 53.571797 261.509625 
L 53.571797 252.760875 
z
M 62.86875 255.70275 
Q 62.0025 255.70275 61.498125 256.379625 
Q 60.99375 257.0565 60.99375 258.234 
Q 60.99375 259.4115 61.494375 260.088375 
Q 61.996875 260.76525 62.86875 260.76525 
Q 63.73125 260.76525 64.23375 260.0865 
Q 64.738125 259.405875 64.738125 258.234 
Q 64.738125 257.06775 64.23375 256.38525 
Q 63.73125 255.70275 62.86875 255.70275 
z
M 62.86875 254.789625 
Q 64.275 254.789625 65.0775 255.704625 
Q 65.881875 256.61775 65.881875 258.234 
Q 65.881875 259.844625 65.0775 260.763375 
Q 64.275 261.68025 62.86875 261.68025 
Q 61.456875 261.68025 60.65625 260.763375 
Q 59.8575 259.844625 59.8575 258.234 
Q 59.8575 256.61775 60.65625 255.704625 
Q 61.456875 254.789625 62.86875 254.789625 
z
M 68.710547 260.52525 
L 68.710547 264.00525 
L 67.626797 264.00525 
L 67.626797 254.947125 
L 68.710547 254.947125 
L 68.710547 255.94275 
Q 69.051797 255.35775 69.569297 255.074625 
Q 70.088672 254.789625 70.808672 254.789625 
Q 72.004922 254.789625 72.751172 255.738375 
Q 73.499297 256.687125 73.499297 258.234 
Q 73.499297 259.780875 72.751172 260.7315 
Q 72.004922 261.68025 70.808672 261.68025 
Q 70.088672 261.68025 69.569297 261.39525 
Q 69.051797 261.11025 68.710547 260.52525 
z
M 72.379922 258.234 
Q 72.379922 257.04525 71.890547 256.368375 
Q 71.401172 255.6915 70.546172 255.6915 
Q 69.689297 255.6915 69.199922 256.368375 
Q 68.710547 257.04525 68.710547 258.234 
Q 68.710547 259.42275 69.199922 260.099625 
Q 69.689297 260.7765 70.546172 260.7765 
Q 71.401172 260.7765 71.890547 260.099625 
Q 72.379922 259.42275 72.379922 258.234 
z
M 75.174609 258.92025 
L 75.174609 254.947125 
L 76.252734 254.947125 
L 76.252734 258.879 
Q 76.252734 259.810875 76.614609 260.27775 
Q 76.978359 260.74275 77.705859 260.74275 
Q 78.577734 260.74275 79.083984 260.185875 
Q 79.592109 259.629 79.592109 258.667125 
L 79.592109 254.947125 
L 80.670234 254.947125 
L 80.670234 261.509625 
L 79.592109 261.509625 
L 79.592109 260.500875 
Q 79.200234 261.099 78.680859 261.389625 
Q 78.163359 261.68025 77.477109 261.68025 
Q 76.346484 261.68025 75.759609 260.977125 
Q 75.174609 260.274 75.174609 258.92025 
z
M 77.887734 254.789625 
L 77.887734 254.789625 
z
M 82.890703 252.3915 
L 83.968828 252.3915 
L 83.968828 261.509625 
L 82.890703 261.509625 
L 82.890703 252.3915 
z
M 89.207813 258.2115 
Q 87.900937 258.2115 87.396563 258.509625 
Q 86.892188 258.80775 86.892188 259.529625 
Q 86.892188 260.103375 87.270938 260.440875 
Q 87.649687 260.7765 88.298438 260.7765 
Q 89.196562 260.7765 89.738438 260.140875 
Q 90.280313 259.50525 90.280313 258.4515 
L 90.280313 258.2115 
L 89.207813 258.2115 
z
M 91.358438 257.76525 
L 91.358438 261.509625 
L 90.280313 261.509625 
L 90.280313 260.514 
Q 89.910938 261.11025 89.359688 261.39525 
Q 88.808437 261.68025 88.011562 261.68025 
Q 87.004688 261.68025 86.408438 261.114 
Q 85.814063 260.54775 85.814063 259.599 
Q 85.814063 258.49275 86.554688 257.93025 
Q 87.297188 257.36775 88.767188 257.36775 
L 90.280313 257.36775 
L 90.280313 257.260875 
Q 90.280313 256.5165 89.790938 256.109625 
Q 89.301563 255.70275 88.416562 255.70275 
Q 87.854062 255.70275 87.319688 255.83775 
Q 86.787188 255.97275 86.295938 256.24275 
L 86.295938 255.24525 
Q 86.886562 255.0165 87.443438 254.904 
Q 88.000313 254.789625 88.527187 254.789625 
Q 89.952188 254.789625 90.655313 255.528375 
Q 91.358438 256.26525 91.358438 257.76525 
z
M 94.645078 253.083375 
L 94.645078 254.947125 
L 96.865078 254.947125 
L 96.865078 255.78525 
L 94.645078 255.78525 
L 94.645078 259.34775 
Q 94.645078 260.15025 94.864453 260.379 
Q 95.083828 260.60775 95.758828 260.60775 
L 96.865078 260.60775 
L 96.865078 261.509625 
L 95.758828 261.509625 
Q 94.510078 261.509625 94.035703 261.044625 
Q 93.561328 260.57775 93.561328 259.34775 
L 93.561328 255.78525 
L 92.770078 255.78525 
L 92.770078 254.947125 
L 93.561328 254.947125 
L 93.561328 253.083375 
L 94.645078 253.083375 
z
M 98.283281 254.947125 
L 99.361406 254.947125 
L 99.361406 261.509625 
L 98.283281 261.509625 
L 98.283281 254.947125 
z
M 98.283281 252.3915 
L 99.361406 252.3915 
L 99.361406 253.758375 
L 98.283281 253.758375 
L 98.283281 252.3915 
z
M 104.159766 255.70275 
Q 103.293516 255.70275 102.789141 256.379625 
Q 102.284766 257.0565 102.284766 258.234 
Q 102.284766 259.4115 102.785391 260.088375 
Q 103.287891 260.76525 104.159766 260.76525 
Q 105.022266 260.76525 105.524766 260.0865 
Q 106.029141 259.405875 106.029141 258.234 
Q 106.029141 257.06775 105.524766 256.38525 
Q 105.022266 255.70275 104.159766 255.70275 
z
M 104.159766 254.789625 
Q 105.566016 254.789625 106.368516 255.704625 
Q 107.172891 256.61775 107.172891 258.234 
Q 107.172891 259.844625 106.368516 260.763375 
Q 105.566016 261.68025 104.159766 261.68025 
Q 102.747891 261.68025 101.947266 260.763375 
Q 101.148516 259.844625 101.148516 258.234 
Q 101.148516 256.61775 101.947266 255.704625 
Q 102.747891 254.789625 104.159766 254.789625 
z
M 114.415312 257.54775 
L 114.415312 261.509625 
L 113.337187 261.509625 
L 113.337187 257.583375 
Q 113.337187 256.6515 112.973438 256.19025 
Q 112.609688 255.727125 111.884062 255.727125 
Q 111.010312 255.727125 110.505938 256.284 
Q 110.001563 256.839 110.001563 257.800875 
L 110.001563 261.509625 
L 108.917812 261.509625 
L 108.917812 254.947125 
L 110.001563 254.947125 
L 110.001563 255.967125 
Q 110.389688 255.374625 110.912813 255.082125 
Q 111.437813 254.789625 112.124063 254.789625 
Q 113.254688 254.789625 113.834063 255.489 
Q 114.415312 256.188375 114.415312 257.54775 
z
M 127.972734 257.66025 
Q 127.462734 257.66025 127.172109 258.093375 
Q 126.883359 258.5265 126.883359 259.300875 
Q 126.883359 260.062125 127.172109 260.499 
Q 127.462734 260.935875 127.972734 260.935875 
Q 128.471484 260.935875 128.760234 260.499 
Q 129.050859 260.062125 129.050859 259.300875 
Q 129.050859 258.532125 128.760234 258.097125 
Q 128.471484 257.66025 127.972734 257.66025 
z
M 127.972734 256.915875 
Q 128.898984 256.915875 129.442734 257.560875 
Q 129.988359 258.204 129.988359 259.300875 
Q 129.988359 260.395875 129.440859 261.039 
Q 128.893359 261.68025 127.972734 261.68025 
Q 127.035234 261.68025 126.489609 261.039 
Q 125.945859 260.395875 125.945859 259.300875 
Q 125.945859 258.198375 126.493359 257.557125 
Q 127.040859 256.915875 127.972734 256.915875 
z
M 121.925859 253.34775 
Q 121.421484 253.34775 121.130859 253.784625 
Q 120.842109 254.219625 120.842109 254.98275 
Q 120.842109 255.75525 121.128984 256.19025 
Q 121.415859 256.623375 121.925859 256.623375 
Q 122.435859 256.623375 122.724609 256.19025 
Q 123.015234 255.75525 123.015234 254.98275 
Q 123.015234 254.227125 122.722734 253.788375 
Q 122.430234 253.34775 121.925859 253.34775 
z
M 127.217109 252.603375 
L 128.154609 252.603375 
L 122.681484 261.68025 
L 121.743984 261.68025 
L 127.217109 252.603375 
z
M 121.925859 252.603375 
Q 122.852109 252.603375 123.401484 253.244625 
Q 123.952734 253.885875 123.952734 254.98275 
Q 123.952734 256.089 123.405234 256.728375 
Q 122.857734 257.36775 121.925859 257.36775 
Q 120.993984 257.36775 120.452109 256.7265 
Q 119.910234 256.083375 119.910234 254.98275 
Q 119.910234 253.8915 120.453984 253.248375 
Q 120.999609 252.603375 121.925859 252.603375 
z
" style="fill: #ffffff; stroke: #000000; stroke-width: 2"/>
    <path d="M 21.0525 253.927125 
L 19.445625 258.280875 
L 22.663125 258.280875 
L 21.0525 253.927125 
z
M 20.383125 252.760875 
L 21.725625 252.760875 
L 25.059375 261.509625 
L 23.829375 261.509625 
L 23.0325 259.26525 
L 19.089375 259.26525 
L 18.2925 261.509625 
L 17.04375 261.509625 
L 20.383125 252.760875 
z
M 32.677734 253.435875 
L 32.677734 254.68275 
Q 32.079609 254.125875 31.402734 253.852125 
Q 30.725859 253.5765 29.964609 253.5765 
Q 28.464609 253.5765 27.667734 254.493375 
Q 26.870859 255.41025 26.870859 257.144625 
Q 26.870859 258.873375 27.667734 259.79025 
Q 28.464609 260.707125 29.964609 260.707125 
Q 30.725859 260.707125 31.402734 260.4315 
Q 32.079609 260.155875 32.677734 259.599 
L 32.677734 260.8365 
Q 32.057109 261.258375 31.361484 261.47025 
Q 30.667734 261.68025 29.895234 261.68025 
Q 27.907734 261.68025 26.763984 260.46525 
Q 25.622109 259.248375 25.622109 257.144625 
Q 25.622109 255.03525 26.763984 253.82025 
Q 27.907734 252.603375 29.895234 252.603375 
Q 30.678984 252.603375 31.372734 252.8115 
Q 32.068359 253.019625 32.677734 253.435875 
z
M 39.749766 253.04775 
L 39.749766 254.20275 
Q 39.076641 253.88025 38.478516 253.72275 
Q 37.880391 253.563375 37.323516 253.563375 
Q 36.357891 253.563375 35.832891 253.938375 
Q 35.307891 254.313375 35.307891 255.00525 
Q 35.307891 255.5865 35.656641 255.88275 
Q 36.005391 256.177125 36.978516 256.359 
L 37.692891 256.50525 
Q 39.016641 256.758375 39.646641 257.394 
Q 40.276641 258.029625 40.276641 259.094625 
Q 40.276641 260.36775 39.423516 261.024 
Q 38.572266 261.68025 36.926016 261.68025 
Q 36.305391 261.68025 35.604141 261.539625 
Q 34.904766 261.399 34.154766 261.123375 
L 34.154766 259.904625 
Q 34.874766 260.30775 35.566641 260.514 
Q 36.258516 260.718375 36.926016 260.718375 
Q 37.938516 260.718375 38.489766 260.320875 
Q 39.041016 259.9215 39.041016 259.18275 
Q 39.041016 258.539625 38.645391 258.175875 
Q 38.249766 257.812125 37.347891 257.63025 
L 36.626016 257.489625 
Q 35.302266 257.227125 34.709766 256.664625 
Q 34.119141 256.102125 34.119141 255.099 
Q 34.119141 253.938375 34.936641 253.270875 
Q 35.754141 252.603375 37.188516 252.603375 
Q 37.805391 252.603375 38.442891 252.715875 
Q 39.082266 252.8265 39.749766 253.04775 
z
M 42.240703 252.760875 
L 46.886953 252.760875 
L 46.886953 253.758375 
L 43.324453 253.758375 
L 43.324453 255.9015 
Q 43.581328 255.813375 43.838203 255.77025 
Q 44.096953 255.727125 44.355703 255.727125 
Q 45.820078 255.727125 46.675078 256.529625 
Q 47.531953 257.332125 47.531953 258.70275 
Q 47.531953 260.114625 46.652578 260.898375 
Q 45.773203 261.68025 44.173828 261.68025 
Q 43.622578 261.68025 43.050703 261.5865 
Q 42.480703 261.49275 41.871328 261.30525 
L 41.871328 260.114625 
Q 42.398203 260.4015 42.960703 260.542125 
Q 43.523203 260.68275 44.149453 260.68275 
Q 45.163828 260.68275 45.754453 260.15025 
Q 46.346953 259.61775 46.346953 258.70275 
Q 46.346953 257.789625 45.754453 257.257125 
Q 45.163828 256.72275 44.149453 256.72275 
Q 43.675078 256.72275 43.202578 256.82775 
Q 42.731953 256.93275 42.240703 257.155875 
L 42.240703 252.760875 
z
M 54.754922 253.734 
L 54.754922 257.020875 
L 56.243672 257.020875 
Q 57.070547 257.020875 57.520547 256.593375 
Q 57.972422 256.165875 57.972422 255.374625 
Q 57.972422 254.589 57.520547 254.1615 
Q 57.070547 253.734 56.243672 253.734 
L 54.754922 253.734 
z
M 53.571797 252.760875 
L 56.243672 252.760875 
Q 57.715547 252.760875 58.467422 253.4265 
Q 59.221172 254.092125 59.221172 255.374625 
Q 59.221172 256.67025 58.467422 257.332125 
Q 57.715547 257.994 56.243672 257.994 
L 54.754922 257.994 
L 54.754922 261.509625 
L 53.571797 261.509625 
L 53.571797 252.760875 
z
M 62.86875 255.70275 
Q 62.0025 255.70275 61.498125 256.379625 
Q 60.99375 257.0565 60.99375 258.234 
Q 60.99375 259.4115 61.494375 260.088375 
Q 61.996875 260.76525 62.86875 260.76525 
Q 63.73125 260.76525 64.23375 260.0865 
Q 64.738125 259.405875 64.738125 258.234 
Q 64.738125 257.06775 64.23375 256.38525 
Q 63.73125 255.70275 62.86875 255.70275 
z
M 62.86875 254.789625 
Q 64.275 254.789625 65.0775 255.704625 
Q 65.881875 256.61775 65.881875 258.234 
Q 65.881875 259.844625 65.0775 260.763375 
Q 64.275 261.68025 62.86875 261.68025 
Q 61.456875 261.68025 60.65625 260.763375 
Q 59.8575 259.844625 59.8575 258.234 
Q 59.8575 256.61775 60.65625 255.704625 
Q 61.456875 254.789625 62.86875 254.789625 
z
M 68.710547 260.52525 
L 68.710547 264.00525 
L 67.626797 264.00525 
L 67.626797 254.947125 
L 68.710547 254.947125 
L 68.710547 255.94275 
Q 69.051797 255.35775 69.569297 255.074625 
Q 70.088672 254.789625 70.808672 254.789625 
Q 72.004922 254.789625 72.751172 255.738375 
Q 73.499297 256.687125 73.499297 258.234 
Q 73.499297 259.780875 72.751172 260.7315 
Q 72.004922 261.68025 70.808672 261.68025 
Q 70.088672 261.68025 69.569297 261.39525 
Q 69.051797 261.11025 68.710547 260.52525 
z
M 72.379922 258.234 
Q 72.379922 257.04525 71.890547 256.368375 
Q 71.401172 255.6915 70.546172 255.6915 
Q 69.689297 255.6915 69.199922 256.368375 
Q 68.710547 257.04525 68.710547 258.234 
Q 68.710547 259.42275 69.199922 260.099625 
Q 69.689297 260.7765 70.546172 260.7765 
Q 71.401172 260.7765 71.890547 260.099625 
Q 72.379922 259.42275 72.379922 258.234 
z
M 75.174609 258.92025 
L 75.174609 254.947125 
L 76.252734 254.947125 
L 76.252734 258.879 
Q 76.252734 259.810875 76.614609 260.27775 
Q 76.978359 260.74275 77.705859 260.74275 
Q 78.577734 260.74275 79.083984 260.185875 
Q 79.592109 259.629 79.592109 258.667125 
L 79.592109 254.947125 
L 80.670234 254.947125 
L 80.670234 261.509625 
L 79.592109 261.509625 
L 79.592109 260.500875 
Q 79.200234 261.099 78.680859 261.389625 
Q 78.163359 261.68025 77.477109 261.68025 
Q 76.346484 261.68025 75.759609 260.977125 
Q 75.174609 260.274 75.174609 258.92025 
z
M 77.887734 254.789625 
L 77.887734 254.789625 
z
M 82.890703 252.3915 
L 83.968828 252.3915 
L 83.968828 261.509625 
L 82.890703 261.509625 
L 82.890703 252.3915 
z
M 89.207813 258.2115 
Q 87.900937 258.2115 87.396563 258.509625 
Q 86.892188 258.80775 86.892188 259.529625 
Q 86.892188 260.103375 87.270938 260.440875 
Q 87.649687 260.7765 88.298438 260.7765 
Q 89.196562 260.7765 89.738438 260.140875 
Q 90.280313 259.50525 90.280313 258.4515 
L 90.280313 258.2115 
L 89.207813 258.2115 
z
M 91.358438 257.76525 
L 91.358438 261.509625 
L 90.280313 261.509625 
L 90.280313 260.514 
Q 89.910938 261.11025 89.359688 261.39525 
Q 88.808437 261.68025 88.011562 261.68025 
Q 87.004688 261.68025 86.408438 261.114 
Q 85.814063 260.54775 85.814063 259.599 
Q 85.814063 258.49275 86.554688 257.93025 
Q 87.297188 257.36775 88.767188 257.36775 
L 90.280313 257.36775 
L 90.280313 257.260875 
Q 90.280313 256.5165 89.790938 256.109625 
Q 89.301563 255.70275 88.416562 255.70275 
Q 87.854062 255.70275 87.319688 255.83775 
Q 86.787188 255.97275 86.295938 256.24275 
L 86.295938 255.24525 
Q 86.886562 255.0165 87.443438 254.904 
Q 88.000313 254.789625 88.527187 254.789625 
Q 89.952188 254.789625 90.655313 255.528375 
Q 91.358438 256.26525 91.358438 257.76525 
z
M 94.645078 253.083375 
L 94.645078 254.947125 
L 96.865078 254.947125 
L 96.865078 255.78525 
L 94.645078 255.78525 
L 94.645078 259.34775 
Q 94.645078 260.15025 94.864453 260.379 
Q 95.083828 260.60775 95.758828 260.60775 
L 96.865078 260.60775 
L 96.865078 261.509625 
L 95.758828 261.509625 
Q 94.510078 261.509625 94.035703 261.044625 
Q 93.561328 260.57775 93.561328 259.34775 
L 93.561328 255.78525 
L 92.770078 255.78525 
L 92.770078 254.947125 
L 93.561328 254.947125 
L 93.561328 253.083375 
L 94.645078 253.083375 
z
M 98.283281 254.947125 
L 99.361406 254.947125 
L 99.361406 261.509625 
L 98.283281 261.509625 
L 98.283281 254.947125 
z
M 98.283281 252.3915 
L 99.361406 252.3915 
L 99.361406 253.758375 
L 98.283281 253.758375 
L 98.283281 252.3915 
z
M 104.159766 255.70275 
Q 103.293516 255.70275 102.789141 256.379625 
Q 102.284766 257.0565 102.284766 258.234 
Q 102.284766 259.4115 102.785391 260.088375 
Q 103.287891 260.76525 104.159766 260.76525 
Q 105.022266 260.76525 105.524766 260.0865 
Q 106.029141 259.405875 106.029141 258.234 
Q 106.029141 257.06775 105.524766 256.38525 
Q 105.022266 255.70275 104.159766 255.70275 
z
M 104.159766 254.789625 
Q 105.566016 254.789625 106.368516 255.704625 
Q 107.172891 256.61775 107.172891 258.234 
Q 107.172891 259.844625 106.368516 260.763375 
Q 105.566016 261.68025 104.159766 261.68025 
Q 102.747891 261.68025 101.947266 260.763375 
Q 101.148516 259.844625 101.148516 258.234 
Q 101.148516 256.61775 101.947266 255.704625 
Q 102.747891 254.789625 104.159766 254.789625 
z
M 114.415312 257.54775 
L 114.415312 261.509625 
L 113.337187 261.509625 
L 113.337187 257.583375 
Q 113.337187 256.6515 112.973438 256.19025 
Q 112.609688 255.727125 111.884062 255.727125 
Q 111.010312 255.727125 110.505938 256.284 
Q 110.001563 256.839 110.001563 257.800875 
L 110.001563 261.509625 
L 108.917812 261.509625 
L 108.917812 254.947125 
L 110.001563 254.947125 
L 110.001563 255.967125 
Q 110.389688 255.374625 110.912813 255.082125 
Q 111.437813 254.789625 112.124063 254.789625 
Q 113.254688 254.789625 113.834063 255.489 
Q 114.415312 256.188375 114.415312 257.54775 
z
M 127.972734 257.66025 
Q 127.462734 257.66025 127.172109 258.093375 
Q 126.883359 258.5265 126.883359 259.300875 
Q 126.883359 260.062125 127.172109 260.499 
Q 127.462734 260.935875 127.972734 260.935875 
Q 128.471484 260.935875 128.760234 260.499 
Q 129.050859 260.062125 129.050859 259.300875 
Q 129.050859 258.532125 128.760234 258.097125 
Q 128.471484 257.66025 127.972734 257.66025 
z
M 127.972734 256.915875 
Q 128.898984 256.915875 129.442734 257.560875 
Q 129.988359 258.204 129.988359 259.300875 
Q 129.988359 260.395875 129.440859 261.039 
Q 128.893359 261.68025 127.972734 261.68025 
Q 127.035234 261.68025 126.489609 261.039 
Q 125.945859 260.395875 125.945859 259.300875 
Q 125.945859 258.198375 126.493359 257.557125 
Q 127.040859 256.915875 127.972734 256.915875 
z
M 121.925859 253.34775 
Q 121.421484 253.34775 121.130859 253.784625 
Q 120.842109 254.219625 120.842109 254.98275 
Q 120.842109 255.75525 121.128984 256.19025 
Q 121.415859 256.623375 121.925859 256.623375 
Q 122.435859 256.623375 122.724609 256.19025 
Q 123.015234 255.75525 123.015234 254.98275 
Q 123.015234 254.227125 122.722734 253.788375 
Q 122.430234 253.34775 121.925859 253.34775 
z
M 127.217109 252.603375 
L 128.154609 252.603375 
L 122.681484 261.68025 
L 121.743984 261.68025 
L 127.217109 252.603375 
z
M 121.925859 252.603375 
Q 122.852109 252.603375 123.401484 253.244625 
Q 123.952734 253.885875 123.952734 254.98275 
Q 123.952734 256.089 123.405234 256.728375 
Q 122.857734 257.36775 121.925859 257.36775 
Q 120.993984 257.36775 120.452109 256.7265 
Q 119.910234 256.083375 119.910234 254.98275 
Q 119.910234 253.8915 120.453984 253.248375 
Q 120.999609 252.603375 121.925859 252.603375 
z
" style="fill: #ffffff"/>
    <path d="M 17.35125 273.69825 
L 17.35125 271.348875 
L 15.418125 271.348875 
L 15.418125 270.37575 
L 18.523125 270.37575 
L 18.523125 274.13325 
Q 17.83875 274.618875 17.011875 274.86825 
Q 16.186875 275.117625 15.249375 275.117625 
Q 13.198125 275.117625 12.039375 273.9195 
Q 10.8825 272.7195 10.8825 270.582 
Q 10.8825 268.437 12.039375 267.238875 
Q 13.198125 266.04075 15.249375 266.04075 
Q 16.104375 266.04075 16.875 266.252625 
Q 17.645625 266.462625 18.29625 266.87325 
L 18.29625 268.13325 
Q 17.64 267.576375 16.90125 267.295125 
Q 16.1625 267.013875 15.34875 267.013875 
Q 13.741875 267.013875 12.935625 267.910125 
Q 12.13125 268.806375 12.13125 270.582 
Q 12.13125 272.352 12.935625 273.24825 
Q 13.741875 274.1445 15.34875 274.1445 
Q 15.975 274.1445 16.46625 274.03575 
Q 16.959375 273.927 17.35125 273.69825 
z
M 24.441328 269.391375 
Q 24.259453 269.286375 24.045703 269.237625 
Q 23.831953 269.187 23.575078 269.187 
Q 22.660078 269.187 22.170703 269.781375 
Q 21.681328 270.37575 21.681328 271.4895 
L 21.681328 274.947 
L 20.597578 274.947 
L 20.597578 268.3845 
L 21.681328 268.3845 
L 21.681328 269.4045 
Q 22.022578 268.806375 22.566328 268.517625 
Q 23.111953 268.227 23.891953 268.227 
Q 24.002578 268.227 24.137578 268.242 
Q 24.272578 268.255125 24.435703 268.285125 
L 24.441328 269.391375 
z
M 27.844922 269.140125 
Q 26.978672 269.140125 26.474297 269.817 
Q 25.969922 270.493875 25.969922 271.671375 
Q 25.969922 272.848875 26.470547 273.52575 
Q 26.973047 274.202625 27.844922 274.202625 
Q 28.707422 274.202625 29.209922 273.523875 
Q 29.714297 272.84325 29.714297 271.671375 
Q 29.714297 270.505125 29.209922 269.822625 
Q 28.707422 269.140125 27.844922 269.140125 
z
M 27.844922 268.227 
Q 29.251172 268.227 30.053672 269.142 
Q 30.858047 270.055125 30.858047 271.671375 
Q 30.858047 273.282 30.053672 274.20075 
Q 29.251172 275.117625 27.844922 275.117625 
Q 26.433047 275.117625 25.632422 274.20075 
Q 24.833672 273.282 24.833672 271.671375 
Q 24.833672 270.055125 25.632422 269.142 
Q 26.433047 268.227 27.844922 268.227 
z
M 32.017969 268.3845 
L 33.096094 268.3845 
L 34.444219 273.505125 
L 35.784844 268.3845 
L 37.056094 268.3845 
L 38.404219 273.505125 
L 39.746719 268.3845 
L 40.824844 268.3845 
L 39.107344 274.947 
L 37.836094 274.947 
L 36.424219 269.567625 
L 35.006719 274.947 
L 33.733594 274.947 
L 32.017969 268.3845 
z
M 43.525547 266.52075 
L 43.525547 268.3845 
L 45.745547 268.3845 
L 45.745547 269.222625 
L 43.525547 269.222625 
L 43.525547 272.785125 
Q 43.525547 273.587625 43.744922 273.816375 
Q 43.964297 274.045125 44.639297 274.045125 
L 45.745547 274.045125 
L 45.745547 274.947 
L 44.639297 274.947 
Q 43.390547 274.947 42.916172 274.482 
Q 42.441797 274.015125 42.441797 272.785125 
L 42.441797 269.222625 
L 41.650547 269.222625 
L 41.650547 268.3845 
L 42.441797 268.3845 
L 42.441797 266.52075 
L 43.525547 266.52075 
z
M 52.62 270.985125 
L 52.62 274.947 
L 51.541875 274.947 
L 51.541875 271.02075 
Q 51.541875 270.088875 51.178125 269.627625 
Q 50.814375 269.1645 50.08875 269.1645 
Q 49.215 269.1645 48.710625 269.721375 
Q 48.20625 270.276375 48.20625 271.23825 
L 48.20625 274.947 
L 47.1225 274.947 
L 47.1225 265.828875 
L 48.20625 265.828875 
L 48.20625 269.4045 
Q 48.594375 268.812 49.1175 268.5195 
Q 49.6425 268.227 50.32875 268.227 
Q 51.459375 268.227 52.03875 268.926375 
Q 52.62 269.62575 52.62 270.985125 
z
M 58.630547 266.19825 
L 63.657422 266.19825 
L 63.657422 267.19575 
L 59.813672 267.19575 
L 59.813672 269.773875 
L 63.282422 269.773875 
L 63.282422 270.7695 
L 59.813672 270.7695 
L 59.813672 274.947 
L 58.630547 274.947 
L 58.630547 266.19825 
z
M 68.418516 269.391375 
Q 68.236641 269.286375 68.022891 269.237625 
Q 67.809141 269.187 67.552266 269.187 
Q 66.637266 269.187 66.147891 269.781375 
Q 65.658516 270.37575 65.658516 271.4895 
L 65.658516 274.947 
L 64.574766 274.947 
L 64.574766 268.3845 
L 65.658516 268.3845 
L 65.658516 269.4045 
Q 65.999766 268.806375 66.543516 268.517625 
Q 67.089141 268.227 67.869141 268.227 
Q 67.979766 268.227 68.114766 268.242 
Q 68.249766 268.255125 68.412891 268.285125 
L 68.418516 269.391375 
z
M 71.822109 269.140125 
Q 70.955859 269.140125 70.451484 269.817 
Q 69.947109 270.493875 69.947109 271.671375 
Q 69.947109 272.848875 70.447734 273.52575 
Q 70.950234 274.202625 71.822109 274.202625 
Q 72.684609 274.202625 73.187109 273.523875 
Q 73.691484 272.84325 73.691484 271.671375 
Q 73.691484 270.505125 73.187109 269.822625 
Q 72.684609 269.140125 71.822109 269.140125 
z
M 71.822109 268.227 
Q 73.228359 268.227 74.030859 269.142 
Q 74.835234 270.055125 74.835234 271.671375 
Q 74.835234 273.282 74.030859 274.20075 
Q 73.228359 275.117625 71.822109 275.117625 
Q 70.410234 275.117625 69.609609 274.20075 
Q 68.810859 273.282 68.810859 271.671375 
Q 68.810859 270.055125 69.609609 269.142 
Q 70.410234 268.227 71.822109 268.227 
z
M 81.730781 269.6445 
Q 82.135781 268.917 82.698281 268.572 
Q 83.260781 268.227 84.022031 268.227 
Q 85.047656 268.227 85.604531 268.945125 
Q 86.161406 269.661375 86.161406 270.985125 
L 86.161406 274.947 
L 85.077656 274.947 
L 85.077656 271.02075 
Q 85.077656 270.077625 84.742031 269.622 
Q 84.408281 269.1645 83.723906 269.1645 
Q 82.885781 269.1645 82.398281 269.721375 
Q 81.912656 270.276375 81.912656 271.23825 
L 81.912656 274.947 
L 80.828906 274.947 
L 80.828906 271.02075 
Q 80.828906 270.072 80.495156 269.61825 
Q 80.161406 269.1645 79.463906 269.1645 
Q 78.637031 269.1645 78.149531 269.72325 
Q 77.663906 270.282 77.663906 271.23825 
L 77.663906 274.947 
L 76.580156 274.947 
L 76.580156 268.3845 
L 77.663906 268.3845 
L 77.663906 269.4045 
Q 78.033281 268.80075 78.548906 268.513875 
Q 79.064531 268.227 79.773281 268.227 
Q 80.489531 268.227 80.990156 268.59075 
Q 81.490781 268.952625 81.730781 269.6445 
z
M 93.297188 273.951375 
L 97.427813 273.951375 
L 97.427813 274.947 
L 91.874063 274.947 
L 91.874063 273.951375 
Q 92.547188 273.253875 93.709688 272.080125 
Q 94.874063 270.9045 95.172188 270.56325 
Q 95.740313 269.92575 95.965313 269.48325 
Q 96.192188 269.04075 96.192188 268.61325 
Q 96.192188 267.91575 95.702813 267.477 
Q 95.213438 267.036375 94.427813 267.036375 
Q 93.870938 267.036375 93.252188 267.2295 
Q 92.635313 267.422625 91.932188 267.816375 
L 91.932188 266.620125 
Q 92.646563 266.33325 93.267188 266.187 
Q 93.889688 266.04075 94.405313 266.04075 
Q 95.764688 266.04075 96.572813 266.721375 
Q 97.380938 267.400125 97.380938 268.536375 
Q 97.380938 269.076375 97.178438 269.560125 
Q 96.977812 270.042 96.443438 270.69825 
Q 96.297188 270.868875 95.511563 271.68075 
Q 94.727812 272.492625 93.297188 273.951375 
z
M 102.443203 266.97825 
Q 101.530078 266.97825 101.068828 267.87825 
Q 100.609453 268.776375 100.609453 270.582 
Q 100.609453 272.380125 101.068828 273.280125 
Q 101.530078 274.180125 102.443203 274.180125 
Q 103.363828 274.180125 103.823203 273.280125 
Q 104.284453 272.380125 104.284453 270.582 
Q 104.284453 268.776375 103.823203 267.87825 
Q 103.363828 266.97825 102.443203 266.97825 
z
M 102.443203 266.04075 
Q 103.915078 266.04075 104.691328 267.205125 
Q 105.467578 268.367625 105.467578 270.582 
Q 105.467578 272.79075 104.691328 273.955125 
Q 103.915078 275.117625 102.443203 275.117625 
Q 100.973203 275.117625 100.196953 273.955125 
Q 99.420703 272.79075 99.420703 270.582 
Q 99.420703 268.367625 100.196953 267.205125 
Q 100.973203 266.04075 102.443203 266.04075 
z
M 107.752969 273.951375 
L 109.686094 273.951375 
L 109.686094 267.276375 
L 107.582344 267.69825 
L 107.582344 266.620125 
L 109.674844 266.19825 
L 110.857969 266.19825 
L 110.857969 273.951375 
L 112.791094 273.951375 
L 112.791094 274.947 
L 107.752969 274.947 
L 107.752969 273.951375 
z
M 117.860859 270.102 
Q 117.063984 270.102 116.597109 270.647625 
Q 116.132109 271.191375 116.132109 272.140125 
Q 116.132109 273.08325 116.597109 273.632625 
Q 117.063984 274.180125 117.860859 274.180125 
Q 118.657734 274.180125 119.122734 273.632625 
Q 119.587734 273.08325 119.587734 272.140125 
Q 119.587734 271.191375 119.122734 270.647625 
Q 118.657734 270.102 117.860859 270.102 
z
M 120.210234 266.391375 
L 120.210234 267.4695 
Q 119.763984 267.2595 119.310234 267.148875 
Q 118.856484 267.036375 118.410234 267.036375 
Q 117.238359 267.036375 116.619609 267.827625 
Q 116.002734 268.618875 115.914609 270.21825 
Q 116.259609 269.70825 116.780859 269.436375 
Q 117.303984 269.1645 117.930234 269.1645 
Q 119.248359 269.1645 120.013359 269.965125 
Q 120.778359 270.763875 120.778359 272.140125 
Q 120.778359 273.48825 119.981484 274.303875 
Q 119.184609 275.117625 117.860859 275.117625 
Q 116.342109 275.117625 115.539609 273.955125 
Q 114.737109 272.79075 114.737109 270.582 
Q 114.737109 268.50825 115.721484 267.2745 
Q 116.705859 266.04075 118.363359 266.04075 
Q 118.809609 266.04075 119.263359 266.128875 
Q 119.717109 266.217 120.210234 266.391375 
z
M 127.545703 266.52075 
L 127.545703 268.3845 
L 129.765703 268.3845 
L 129.765703 269.222625 
L 127.545703 269.222625 
L 127.545703 272.785125 
Q 127.545703 273.587625 127.765078 273.816375 
Q 127.984453 274.045125 128.659453 274.045125 
L 129.765703 274.045125 
L 129.765703 274.947 
L 128.659453 274.947 
Q 127.410703 274.947 126.936328 274.482 
Q 126.461953 274.015125 126.461953 272.785125 
L 126.461953 269.222625 
L 125.670703 269.222625 
L 125.670703 268.3845 
L 126.461953 268.3845 
L 126.461953 266.52075 
L 127.545703 266.52075 
z
M 133.726406 269.140125 
Q 132.860156 269.140125 132.355781 269.817 
Q 131.851406 270.493875 131.851406 271.671375 
Q 131.851406 272.848875 132.352031 273.52575 
Q 132.854531 274.202625 133.726406 274.202625 
Q 134.588906 274.202625 135.091406 273.523875 
Q 135.595781 272.84325 135.595781 271.671375 
Q 135.595781 270.505125 135.091406 269.822625 
Q 134.588906 269.140125 133.726406 269.140125 
z
M 133.726406 268.227 
Q 135.132656 268.227 135.935156 269.142 
Q 136.739531 270.055125 136.739531 271.671375 
Q 136.739531 273.282 135.935156 274.20075 
Q 135.132656 275.117625 133.726406 275.117625 
Q 132.314531 275.117625 131.513906 274.20075 
Q 130.715156 273.282 130.715156 271.671375 
Q 130.715156 270.055125 131.513906 269.142 
Q 132.314531 268.227 133.726406 268.227 
z
" style="fill: #ffffff; stroke: #000000; stroke-width: 2"/>
    <path d="M 17.35125 273.69825 
L 17.35125 271.348875 
L 15.418125 271.348875 
L 15.418125 270.37575 
L 18.523125 270.37575 
L 18.523125 274.13325 
Q 17.83875 274.618875 17.011875 274.86825 
Q 16.186875 275.117625 15.249375 275.117625 
Q 13.198125 275.117625 12.039375 273.9195 
Q 10.8825 272.7195 10.8825 270.582 
Q 10.8825 268.437 12.039375 267.238875 
Q 13.198125 266.04075 15.249375 266.04075 
Q 16.104375 266.04075 16.875 266.252625 
Q 17.645625 266.462625 18.29625 266.87325 
L 18.29625 268.13325 
Q 17.64 267.576375 16.90125 267.295125 
Q 16.1625 267.013875 15.34875 267.013875 
Q 13.741875 267.013875 12.935625 267.910125 
Q 12.13125 268.806375 12.13125 270.582 
Q 12.13125 272.352 12.935625 273.24825 
Q 13.741875 274.1445 15.34875 274.1445 
Q 15.975 274.1445 16.46625 274.03575 
Q 16.959375 273.927 17.35125 273.69825 
z
M 24.441328 269.391375 
Q 24.259453 269.286375 24.045703 269.237625 
Q 23.831953 269.187 23.575078 269.187 
Q 22.660078 269.187 22.170703 269.781375 
Q 21.681328 270.37575 21.681328 271.4895 
L 21.681328 274.947 
L 20.597578 274.947 
L 20.597578 268.3845 
L 21.681328 268.3845 
L 21.681328 269.4045 
Q 22.022578 268.806375 22.566328 268.517625 
Q 23.111953 268.227 23.891953 268.227 
Q 24.002578 268.227 24.137578 268.242 
Q 24.272578 268.255125 24.435703 268.285125 
L 24.441328 269.391375 
z
M 27.844922 269.140125 
Q 26.978672 269.140125 26.474297 269.817 
Q 25.969922 270.493875 25.969922 271.671375 
Q 25.969922 272.848875 26.470547 273.52575 
Q 26.973047 274.202625 27.844922 274.202625 
Q 28.707422 274.202625 29.209922 273.523875 
Q 29.714297 272.84325 29.714297 271.671375 
Q 29.714297 270.505125 29.209922 269.822625 
Q 28.707422 269.140125 27.844922 269.140125 
z
M 27.844922 268.227 
Q 29.251172 268.227 30.053672 269.142 
Q 30.858047 270.055125 30.858047 271.671375 
Q 30.858047 273.282 30.053672 274.20075 
Q 29.251172 275.117625 27.844922 275.117625 
Q 26.433047 275.117625 25.632422 274.20075 
Q 24.833672 273.282 24.833672 271.671375 
Q 24.833672 270.055125 25.632422 269.142 
Q 26.433047 268.227 27.844922 268.227 
z
M 32.017969 268.3845 
L 33.096094 268.3845 
L 34.444219 273.505125 
L 35.784844 268.3845 
L 37.056094 268.3845 
L 38.404219 273.505125 
L 39.746719 268.3845 
L 40.824844 268.3845 
L 39.107344 274.947 
L 37.836094 274.947 
L 36.424219 269.567625 
L 35.006719 274.947 
L 33.733594 274.947 
L 32.017969 268.3845 
z
M 43.525547 266.52075 
L 43.525547 268.3845 
L 45.745547 268.3845 
L 45.745547 269.222625 
L 43.525547 269.222625 
L 43.525547 272.785125 
Q 43.525547 273.587625 43.744922 273.816375 
Q 43.964297 274.045125 44.639297 274.045125 
L 45.745547 274.045125 
L 45.745547 274.947 
L 44.639297 274.947 
Q 43.390547 274.947 42.916172 274.482 
Q 42.441797 274.015125 42.441797 272.785125 
L 42.441797 269.222625 
L 41.650547 269.222625 
L 41.650547 268.3845 
L 42.441797 268.3845 
L 42.441797 266.52075 
L 43.525547 266.52075 
z
M 52.62 270.985125 
L 52.62 274.947 
L 51.541875 274.947 
L 51.541875 271.02075 
Q 51.541875 270.088875 51.178125 269.627625 
Q 50.814375 269.1645 50.08875 269.1645 
Q 49.215 269.1645 48.710625 269.721375 
Q 48.20625 270.276375 48.20625 271.23825 
L 48.20625 274.947 
L 47.1225 274.947 
L 47.1225 265.828875 
L 48.20625 265.828875 
L 48.20625 269.4045 
Q 48.594375 268.812 49.1175 268.5195 
Q 49.6425 268.227 50.32875 268.227 
Q 51.459375 268.227 52.03875 268.926375 
Q 52.62 269.62575 52.62 270.985125 
z
M 58.630547 266.19825 
L 63.657422 266.19825 
L 63.657422 267.19575 
L 59.813672 267.19575 
L 59.813672 269.773875 
L 63.282422 269.773875 
L 63.282422 270.7695 
L 59.813672 270.7695 
L 59.813672 274.947 
L 58.630547 274.947 
L 58.630547 266.19825 
z
M 68.418516 269.391375 
Q 68.236641 269.286375 68.022891 269.237625 
Q 67.809141 269.187 67.552266 269.187 
Q 66.637266 269.187 66.147891 269.781375 
Q 65.658516 270.37575 65.658516 271.4895 
L 65.658516 274.947 
L 64.574766 274.947 
L 64.574766 268.3845 
L 65.658516 268.3845 
L 65.658516 269.4045 
Q 65.999766 268.806375 66.543516 268.517625 
Q 67.089141 268.227 67.869141 268.227 
Q 67.979766 268.227 68.114766 268.242 
Q 68.249766 268.255125 68.412891 268.285125 
L 68.418516 269.391375 
z
M 71.822109 269.140125 
Q 70.955859 269.140125 70.451484 269.817 
Q 69.947109 270.493875 69.947109 271.671375 
Q 69.947109 272.848875 70.447734 273.52575 
Q 70.950234 274.202625 71.822109 274.202625 
Q 72.684609 274.202625 73.187109 273.523875 
Q 73.691484 272.84325 73.691484 271.671375 
Q 73.691484 270.505125 73.187109 269.822625 
Q 72.684609 269.140125 71.822109 269.140125 
z
M 71.822109 268.227 
Q 73.228359 268.227 74.030859 269.142 
Q 74.835234 270.055125 74.835234 271.671375 
Q 74.835234 273.282 74.030859 274.20075 
Q 73.228359 275.117625 71.822109 275.117625 
Q 70.410234 275.117625 69.609609 274.20075 
Q 68.810859 273.282 68.810859 271.671375 
Q 68.810859 270.055125 69.609609 269.142 
Q 70.410234 268.227 71.822109 268.227 
z
M 81.730781 269.6445 
Q 82.135781 268.917 82.698281 268.572 
Q 83.260781 268.227 84.022031 268.227 
Q 85.047656 268.227 85.604531 268.945125 
Q 86.161406 269.661375 86.161406 270.985125 
L 86.161406 274.947 
L 85.077656 274.947 
L 85.077656 271.02075 
Q 85.077656 270.077625 84.742031 269.622 
Q 84.408281 269.1645 83.723906 269.1645 
Q 82.885781 269.1645 82.398281 269.721375 
Q 81.912656 270.276375 81.912656 271.23825 
L 81.912656 274.947 
L 80.828906 274.947 
L 80.828906 271.02075 
Q 80.828906 270.072 80.495156 269.61825 
Q 80.161406 269.1645 79.463906 269.1645 
Q 78.637031 269.1645 78.149531 269.72325 
Q 77.663906 270.282 77.663906 271.23825 
L 77.663906 274.947 
L 76.580156 274.947 
L 76.580156 268.3845 
L 77.663906 268.3845 
L 77.663906 269.4045 
Q 78.033281 268.80075 78.548906 268.513875 
Q 79.064531 268.227 79.773281 268.227 
Q 80.489531 268.227 80.990156 268.59075 
Q 81.490781 268.952625 81.730781 269.6445 
z
M 93.297188 273.951375 
L 97.427813 273.951375 
L 97.427813 274.947 
L 91.874063 274.947 
L 91.874063 273.951375 
Q 92.547188 273.253875 93.709688 272.080125 
Q 94.874063 270.9045 95.172188 270.56325 
Q 95.740313 269.92575 95.965313 269.48325 
Q 96.192188 269.04075 96.192188 268.61325 
Q 96.192188 267.91575 95.702813 267.477 
Q 95.213438 267.036375 94.427813 267.036375 
Q 93.870938 267.036375 93.252188 267.2295 
Q 92.635313 267.422625 91.932188 267.816375 
L 91.932188 266.620125 
Q 92.646563 266.33325 93.267188 266.187 
Q 93.889688 266.04075 94.405313 266.04075 
Q 95.764688 266.04075 96.572813 266.721375 
Q 97.380938 267.400125 97.380938 268.536375 
Q 97.380938 269.076375 97.178438 269.560125 
Q 96.977812 270.042 96.443438 270.69825 
Q 96.297188 270.868875 95.511563 271.68075 
Q 94.727812 272.492625 93.297188 273.951375 
z
M 102.443203 266.97825 
Q 101.530078 266.97825 101.068828 267.87825 
Q 100.609453 268.776375 100.609453 270.582 
Q 100.609453 272.380125 101.068828 273.280125 
Q 101.530078 274.180125 102.443203 274.180125 
Q 103.363828 274.180125 103.823203 273.280125 
Q 104.284453 272.380125 104.284453 270.582 
Q 104.284453 268.776375 103.823203 267.87825 
Q 103.363828 266.97825 102.443203 266.97825 
z
M 102.443203 266.04075 
Q 103.915078 266.04075 104.691328 267.205125 
Q 105.467578 268.367625 105.467578 270.582 
Q 105.467578 272.79075 104.691328 273.955125 
Q 103.915078 275.117625 102.443203 275.117625 
Q 100.973203 275.117625 100.196953 273.955125 
Q 99.420703 272.79075 99.420703 270.582 
Q 99.420703 268.367625 100.196953 267.205125 
Q 100.973203 266.04075 102.443203 266.04075 
z
M 107.752969 273.951375 
L 109.686094 273.951375 
L 109.686094 267.276375 
L 107.582344 267.69825 
L 107.582344 266.620125 
L 109.674844 266.19825 
L 110.857969 266.19825 
L 110.857969 273.951375 
L 112.791094 273.951375 
L 112.791094 274.947 
L 107.752969 274.947 
L 107.752969 273.951375 
z
M 117.860859 270.102 
Q 117.063984 270.102 116.597109 270.647625 
Q 116.132109 271.191375 116.132109 272.140125 
Q 116.132109 273.08325 116.597109 273.632625 
Q 117.063984 274.180125 117.860859 274.180125 
Q 118.657734 274.180125 119.122734 273.632625 
Q 119.587734 273.08325 119.587734 272.140125 
Q 119.587734 271.191375 119.122734 270.647625 
Q 118.657734 270.102 117.860859 270.102 
z
M 120.210234 266.391375 
L 120.210234 267.4695 
Q 119.763984 267.2595 119.310234 267.148875 
Q 118.856484 267.036375 118.410234 267.036375 
Q 117.238359 267.036375 116.619609 267.827625 
Q 116.002734 268.618875 115.914609 270.21825 
Q 116.259609 269.70825 116.780859 269.436375 
Q 117.303984 269.1645 117.930234 269.1645 
Q 119.248359 269.1645 120.013359 269.965125 
Q 120.778359 270.763875 120.778359 272.140125 
Q 120.778359 273.48825 119.981484 274.303875 
Q 119.184609 275.117625 117.860859 275.117625 
Q 116.342109 275.117625 115.539609 273.955125 
Q 114.737109 272.79075 114.737109 270.582 
Q 114.737109 268.50825 115.721484 267.2745 
Q 116.705859 266.04075 118.363359 266.04075 
Q 118.809609 266.04075 119.263359 266.128875 
Q 119.717109 266.217 120.210234 266.391375 
z
M 127.545703 266.52075 
L 127.545703 268.3845 
L 129.765703 268.3845 
L 129.765703 269.222625 
L 127.545703 269.222625 
L 127.545703 272.785125 
Q 127.545703 273.587625 127.765078 273.816375 
Q 127.984453 274.045125 128.659453 274.045125 
L 129.765703 274.045125 
L 129.765703 274.947 
L 128.659453 274.947 
Q 127.410703 274.947 126.936328 274.482 
Q 126.461953 274.015125 126.461953 272.785125 
L 126.461953 269.222625 
L 125.670703 269.222625 
L 125.670703 268.3845 
L 126.461953 268.3845 
L 126.461953 266.52075 
L 127.545703 266.52075 
z
M 133.726406 269.140125 
Q 132.860156 269.140125 132.355781 269.817 
Q 131.851406 270.493875 131.851406 271.671375 
Q 131.851406 272.848875 132.352031 273.52575 
Q 132.854531 274.202625 133.726406 274.202625 
Q 134.588906 274.202625 135.091406 273.523875 
Q 135.595781 272.84325 135.595781 271.671375 
Q 135.595781 270.505125 135.091406 269.822625 
Q 134.588906 269.140125 133.726406 269.140125 
z
M 133.726406 268.227 
Q 135.132656 268.227 135.935156 269.142 
Q 136.739531 270.055125 136.739531 271.671375 
Q 136.739531 273.282 135.935156 274.20075 
Q 135.132656 275.117625 133.726406 275.117625 
Q 132.314531 275.117625 131.513906 274.20075 
Q 130.715156 273.282 130.715156 271.671375 
Q 130.715156 270.055125 131.513906 269.142 
Q 132.314531 268.227 133.726406 268.227 
z
" style="fill: #ffffff"/>
    <path d="M 60.8325 287.38875 
L 64.963125 287.38875 
L 64.963125 288.384375 
L 59.409375 288.384375 
L 59.409375 287.38875 
Q 60.0825 286.69125 61.245 285.5175 
Q 62.409375 284.341875 62.7075 284.000625 
Q 63.275625 283.363125 63.500625 282.920625 
Q 63.7275 282.478125 63.7275 282.050625 
Q 63.7275 281.353125 63.238125 280.914375 
Q 62.74875 280.47375 61.963125 280.47375 
Q 61.40625 280.47375 60.7875 280.666875 
Q 60.170625 280.86 59.4675 281.25375 
L 59.4675 280.0575 
Q 60.181875 279.770625 60.8025 279.624375 
Q 61.425 279.478125 61.940625 279.478125 
Q 63.3 279.478125 64.108125 280.15875 
Q 64.91625 280.8375 64.91625 281.97375 
Q 64.91625 282.51375 64.71375 282.9975 
Q 64.513125 283.479375 63.97875 284.135625 
Q 63.8325 284.30625 63.046875 285.118125 
Q 62.263125 285.93 60.8325 287.38875 
z
M 69.978516 280.415625 
Q 69.065391 280.415625 68.604141 281.315625 
Q 68.144766 282.21375 68.144766 284.019375 
Q 68.144766 285.8175 68.604141 286.7175 
Q 69.065391 287.6175 69.978516 287.6175 
Q 70.899141 287.6175 71.358516 286.7175 
Q 71.819766 285.8175 71.819766 284.019375 
Q 71.819766 282.21375 71.358516 281.315625 
Q 70.899141 280.415625 69.978516 280.415625 
z
M 69.978516 279.478125 
Q 71.450391 279.478125 72.226641 280.6425 
Q 73.002891 281.805 73.002891 284.019375 
Q 73.002891 286.228125 72.226641 287.3925 
Q 71.450391 288.555 69.978516 288.555 
Q 68.508516 288.555 67.732266 287.3925 
Q 66.956016 286.228125 66.956016 284.019375 
Q 66.956016 281.805 67.732266 280.6425 
Q 68.508516 279.478125 69.978516 279.478125 
z
M 76.102031 287.38875 
L 80.232656 287.38875 
L 80.232656 288.384375 
L 74.678906 288.384375 
L 74.678906 287.38875 
Q 75.352031 286.69125 76.514531 285.5175 
Q 77.678906 284.341875 77.977031 284.000625 
Q 78.545156 283.363125 78.770156 282.920625 
Q 78.997031 282.478125 78.997031 282.050625 
Q 78.997031 281.353125 78.507656 280.914375 
Q 78.018281 280.47375 77.232656 280.47375 
Q 76.675781 280.47375 76.057031 280.666875 
Q 75.440156 280.86 74.737031 281.25375 
L 74.737031 280.0575 
Q 75.451406 279.770625 76.072031 279.624375 
Q 76.694531 279.478125 77.210156 279.478125 
Q 78.569531 279.478125 79.377656 280.15875 
Q 80.185781 280.8375 80.185781 281.97375 
Q 80.185781 282.51375 79.983281 282.9975 
Q 79.782656 283.479375 79.248281 284.135625 
Q 79.102031 284.30625 78.316406 285.118125 
Q 77.532656 285.93 76.102031 287.38875 
z
M 82.923047 287.38875 
L 84.856172 287.38875 
L 84.856172 280.71375 
L 82.752422 281.135625 
L 82.752422 280.0575 
L 84.844922 279.635625 
L 86.028047 279.635625 
L 86.028047 287.38875 
L 87.961172 287.38875 
L 87.961172 288.384375 
L 82.923047 288.384375 
L 82.923047 287.38875 
z
" style="fill: #ffffff; stroke: #000000; stroke-width: 2"/>
    <path d="M 60.8325 287.38875 
L 64.963125 287.38875 
L 64.963125 288.384375 
L 59.409375 288.384375 
L 59.409375 287.38875 
Q 60.0825 286.69125 61.245 285.5175 
Q 62.409375 284.341875 62.7075 284.000625 
Q 63.275625 283.363125 63.500625 282.920625 
Q 63.7275 282.478125 63.7275 282.050625 
Q 63.7275 281.353125 63.238125 280.914375 
Q 62.74875 280.47375 61.963125 280.47375 
Q 61.40625 280.47375 60.7875 280.666875 
Q 60.170625 280.86 59.4675 281.25375 
L 59.4675 280.0575 
Q 60.181875 279.770625 60.8025 279.624375 
Q 61.425 279.478125 61.940625 279.478125 
Q 63.3 279.478125 64.108125 280.15875 
Q 64.91625 280.8375 64.91625 281.97375 
Q 64.91625 282.51375 64.71375 282.9975 
Q 64.513125 283.479375 63.97875 284.135625 
Q 63.8325 284.30625 63.046875 285.118125 
Q 62.263125 285.93 60.8325 287.38875 
z
M 69.978516 280.415625 
Q 69.065391 280.415625 68.604141 281.315625 
Q 68.144766 282.21375 68.144766 284.019375 
Q 68.144766 285.8175 68.604141 286.7175 
Q 69.065391 287.6175 69.978516 287.6175 
Q 70.899141 287.6175 71.358516 286.7175 
Q 71.819766 285.8175 71.819766 284.019375 
Q 71.819766 282.21375 71.358516 281.315625 
Q 70.899141 280.415625 69.978516 280.415625 
z
M 69.978516 279.478125 
Q 71.450391 279.478125 72.226641 280.6425 
Q 73.002891 281.805 73.002891 284.019375 
Q 73.002891 286.228125 72.226641 287.3925 
Q 71.450391 288.555 69.978516 288.555 
Q 68.508516 288.555 67.732266 287.3925 
Q 66.956016 286.228125 66.956016 284.019375 
Q 66.956016 281.805 67.732266 280.6425 
Q 68.508516 279.478125 69.978516 279.478125 
z
M 76.102031 287.38875 
L 80.232656 287.38875 
L 80.232656 288.384375 
L 74.678906 288.384375 
L 74.678906 287.38875 
Q 75.352031 286.69125 76.514531 285.5175 
Q 77.678906 284.341875 77.977031 284.000625 
Q 78.545156 283.363125 78.770156 282.920625 
Q 78.997031 282.478125 78.997031 282.050625 
Q 78.997031 281.353125 78.507656 280.914375 
Q 78.018281 280.47375 77.232656 280.47375 
Q 76.675781 280.47375 76.057031 280.666875 
Q 75.440156 280.86 74.737031 281.25375 
L 74.737031 280.0575 
Q 75.451406 279.770625 76.072031 279.624375 
Q 76.694531 279.478125 77.210156 279.478125 
Q 78.569531 279.478125 79.377656 280.15875 
Q 80.185781 280.8375 80.185781 281.97375 
Q 80.185781 282.51375 79.983281 282.9975 
Q 79.782656 283.479375 79.248281 284.135625 
Q 79.102031 284.30625 78.316406 285.118125 
Q 77.532656 285.93 76.102031 287.38875 
z
M 82.923047 287.38875 
L 84.856172 287.38875 
L 84.856172 280.71375 
L 82.752422 281.135625 
L 82.752422 280.0575 
L 84.844922 279.635625 
L 86.028047 279.635625 
L 86.028047 287.38875 
L 87.961172 287.38875 
L 87.961172 288.384375 
L 82.923047 288.384375 
L 82.923047 287.38875 
z
" style="fill: #ffffff"/>
   </g>
  </g>
  <g id="axes_3">
   <g id="patch_4">
    <path d="M 104.982353 290.88 
L 129.6 290.88 
L 129.6 69.12 
L 104.982353 69.12 
L 104.982353 290.88 
z
" style="fill: none"/>
   </g>
  </g>
  <g id="axes_4">
   <g id="patch_5">
    <path d="M 18 512.64 
L 42.617647 512.64 
L 42.617647 290.88 
L 18 290.88 
L 18 512.64 
z
" style="fill: none"/>
   </g>
  </g>
  <g id="axes_5">
   <g id="patch_6">
    <path d="M 49.182353 512.64 
L 98.417647 512.64 
L 98.417647 290.88 
L 49.182353 290.88 
L 49.182353 512.64 
z
" style="fill: none"/>
   </g>
   <g id="patch_7">
    <path d="M 49.182353 502.56 
L 96.073109 502.56 
L 96.073109 477.36 
L 49.182353 477.36 
z
" clip-path="url(#p4dc7bf4113)" style="fill: #d73027"/>
   </g>
   <g id="patch_8">
    <path d="M 49.182353 477.36 
L 96.073109 477.36 
L 96.073109 452.16 
L 49.182353 452.16 
z
" clip-path="url(#p4dc7bf4113)" style="fill: #f46d43"/>
   </g>
   <g id="patch_9">
    <path d="M 49.182353 452.16 
L 96.073109 452.16 
L 96.073109 426.96 
L 49.182353 426.96 
z
" clip-path="url(#p4dc7bf4113)" style="fill: #fdae61"/>
   </g>
   <g id="patch_10">
    <path d="M 49.182353 426.96 
L 96.073109 426.96 
L 96.073109 401.76 
L 49.182353 401.76 
z
" clip-path="url(#p4dc7bf4113)" style="fill: #fee08b"/>
   </g>
   <g id="patch_11">
    <path d="M 49.182353 401.76 
L 96.073109 401.76 
L 96.073109 376.56 
L 49.182353 376.56 
z
" clip-path="url(#p4dc7bf4113)" style="fill: #d9ef8b"/>
   </g>
   <g id="patch_12">
    <path d="M 49.182353 376.56 
L 96.073109 376.56 
L 96.073109 351.36 
L 49.182353 351.36 
z
" clip-path="url(#p4dc7bf4113)" style="fill: #a6d96a"/>
   </g>
   <g id="patch_13">
    <path d="M 49.182353 351.36 
L 96.073109 351.36 
L 96.073109 326.16 
L 49.182353 326.16 
z
" clip-path="url(#p4dc7bf4113)" style="fill: #66bd63"/>
   </g>
   <g id="patch_14">
    <path d="M 49.182353 326.16 
L 96.073109 326.16 
L 96.073109 300.96 
L 49.182353 300.96 
z
" clip-path="url(#p4dc7bf4113)" style="fill: #1a9850"/>
   </g>
   <g id="text_2">
    <path d="M 55.985231 503.59125 
L 59.663981 503.59125 
L 59.663981 505.295625 
L 55.985231 505.295625 
L 55.985231 503.59125 
z
M 63.772575 506.240625 
L 67.62195 506.240625 
L 67.62195 507.898125 
L 61.263825 507.898125 
L 61.263825 506.240625 
L 64.45695 503.420625 
Q 64.886325 503.034375 65.0907 502.665 
Q 65.295075 502.295625 65.295075 501.898125 
Q 65.295075 501.283125 64.882575 500.908125 
Q 64.470075 500.533125 63.783825 500.533125 
Q 63.25695 500.533125 62.628825 500.758125 
Q 62.002575 500.983125 61.2882 501.429375 
L 61.2882 499.5075 
Q 62.04945 499.25625 62.793825 499.125 
Q 63.5382 498.991875 64.252575 498.991875 
Q 65.823825 498.991875 66.693825 499.68375 
Q 67.563825 500.37375 67.563825 501.61125 
Q 67.563825 502.325625 67.19445 502.944375 
Q 66.825075 503.56125 65.64195 504.6 
L 63.772575 506.240625 
z
M 69.889059 505.63125 
L 71.998434 505.63125 
L 71.998434 507.898125 
L 69.889059 507.898125 
L 69.889059 505.63125 
z
M 77.640778 501.0075 
L 75.169528 504.669375 
L 77.640778 504.669375 
L 77.640778 501.0075 
z
M 77.265778 499.149375 
L 79.774528 499.149375 
L 79.774528 504.669375 
L 81.021403 504.669375 
L 81.021403 506.304375 
L 79.774528 506.304375 
L 79.774528 507.898125 
L 77.640778 507.898125 
L 77.640778 506.304375 
L 73.763278 506.304375 
L 73.763278 504.37125 
L 77.265778 499.149375 
z
M 85.990387 501.0075 
L 83.519137 504.669375 
L 85.990387 504.669375 
L 85.990387 501.0075 
z
M 85.615387 499.149375 
L 88.124137 499.149375 
L 88.124137 504.669375 
L 89.371012 504.669375 
L 89.371012 506.304375 
L 88.124137 506.304375 
L 88.124137 507.898125 
L 85.990387 507.898125 
L 85.990387 506.304375 
L 82.112887 506.304375 
L 82.112887 504.37125 
L 85.615387 499.149375 
z
" style="stroke: #ffffff"/>
    <path d="M 55.985231 503.59125 
L 59.663981 503.59125 
L 59.663981 505.295625 
L 55.985231 505.295625 
L 55.985231 503.59125 
z
M 63.772575 506.240625 
L 67.62195 506.240625 
L 67.62195 507.898125 
L 61.263825 507.898125 
L 61.263825 506.240625 
L 64.45695 503.420625 
Q 64.886325 503.034375 65.0907 502.665 
Q 65.295075 502.295625 65.295075 501.898125 
Q 65.295075 501.283125 64.882575 500.908125 
Q 64.470075 500.533125 63.783825 500.533125 
Q 63.25695 500.533125 62.628825 500.758125 
Q 62.002575 500.983125 61.2882 501.429375 
L 61.2882 499.5075 
Q 62.04945 499.25625 62.793825 499.125 
Q 63.5382 498.991875 64.252575 498.991875 
Q 65.823825 498.991875 66.693825 499.68375 
Q 67.563825 500.37375 67.563825 501.61125 
Q 67.563825 502.325625 67.19445 502.944375 
Q 66.825075 503.56125 65.64195 504.6 
L 63.772575 506.240625 
z
M 69.889059 505.63125 
L 71.998434 505.63125 
L 71.998434 507.898125 
L 69.889059 507.898125 
L 69.889059 505.63125 
z
M 77.640778 501.0075 
L 75.169528 504.669375 
L 77.640778 504.669375 
L 77.640778 501.0075 
z
M 77.265778 499.149375 
L 79.774528 499.149375 
L 79.774528 504.669375 
L 81.021403 504.669375 
L 81.021403 506.304375 
L 79.774528 506.304375 
L 79.774528 507.898125 
L 77.640778 507.898125 
L 77.640778 506.304375 
L 73.763278 506.304375 
L 73.763278 504.37125 
L 77.265778 499.149375 
z
M 85.990387 501.0075 
L 83.519137 504.669375 
L 85.990387 504.669375 
L 85.990387 501.0075 
z
M 85.615387 499.149375 
L 88.124137 499.149375 
L 88.124137 504.669375 
L 89.371012 504.669375 
L 89.371012 506.304375 
L 88.124137 506.304375 
L 88.124137 507.898125 
L 85.990387 507.898125 
L 85.990387 506.304375 
L 82.112887 506.304375 
L 82.112887 504.37125 
L 85.615387 499.149375 
z
"/>
   </g>
   <g id="text_3">
    <path d="M 63.344606 478.314375 
Q 63.344606 476.67375 63.037106 476.004375 
Q 62.729606 475.333125 62.002106 475.333125 
Q 61.276481 475.333125 60.965231 476.004375 
Q 60.653981 476.67375 60.653981 478.314375 
Q 60.653981 479.97375 60.965231 480.654375 
Q 61.276481 481.333125 62.002106 481.333125 
Q 62.723981 481.333125 63.033356 480.654375 
Q 63.344606 479.97375 63.344606 478.314375 
z
M 65.600231 478.333125 
Q 65.600231 480.50625 64.662731 481.6875 
Q 63.725231 482.86875 62.002106 482.86875 
Q 60.273356 482.86875 59.335856 481.6875 
Q 58.398356 480.50625 58.398356 478.333125 
Q 58.398356 476.1525 59.335856 474.973125 
Q 60.273356 473.791875 62.002106 473.791875 
Q 63.725231 473.791875 64.662731 474.973125 
Q 65.600231 476.1525 65.600231 478.333125 
z
M 67.39859 480.43125 
L 69.507965 480.43125 
L 69.507965 482.698125 
L 67.39859 482.698125 
L 67.39859 480.43125 
z
M 75.075309 478.38 
Q 74.482809 478.38 74.186559 478.764375 
Q 73.890309 479.146875 73.890309 479.915625 
Q 73.890309 480.6825 74.186559 481.066875 
Q 74.482809 481.449375 75.075309 481.449375 
Q 75.671559 481.449375 75.967809 481.066875 
Q 76.264059 480.6825 76.264059 479.915625 
Q 76.264059 479.146875 75.967809 478.764375 
Q 75.671559 478.38 75.075309 478.38 
z
M 77.863434 474.178125 
L 77.863434 475.79625 
Q 77.306559 475.531875 76.813434 475.40625 
Q 76.322184 475.280625 75.853434 475.280625 
Q 74.846559 475.280625 74.284059 475.84125 
Q 73.721559 476.4 73.627809 477.500625 
Q 74.014059 477.21375 74.464059 477.07125 
Q 74.915934 476.926875 75.450309 476.926875 
Q 76.790934 476.926875 77.614059 477.7125 
Q 78.437184 478.49625 78.437184 479.7675 
Q 78.437184 481.17375 77.516559 482.02125 
Q 76.597809 482.86875 75.050934 482.86875 
Q 73.346559 482.86875 72.410934 481.7175 
Q 71.477184 480.564375 71.477184 478.449375 
Q 71.477184 476.281875 72.570309 475.0425 
Q 73.663434 473.803125 75.566559 473.803125 
Q 76.170309 473.803125 76.738434 473.896875 
Q 77.306559 473.990625 77.863434 474.178125 
z
M 83.499919 475.8075 
L 81.028669 479.469375 
L 83.499919 479.469375 
L 83.499919 475.8075 
z
M 83.124919 473.949375 
L 85.633669 473.949375 
L 85.633669 479.469375 
L 86.880544 479.469375 
L 86.880544 481.104375 
L 85.633669 481.104375 
L 85.633669 482.698125 
L 83.499919 482.698125 
L 83.499919 481.104375 
L 79.622419 481.104375 
L 79.622419 479.17125 
L 83.124919 473.949375 
z
" style="stroke: #ffffff"/>
    <path d="M 63.344606 478.314375 
Q 63.344606 476.67375 63.037106 476.004375 
Q 62.729606 475.333125 62.002106 475.333125 
Q 61.276481 475.333125 60.965231 476.004375 
Q 60.653981 476.67375 60.653981 478.314375 
Q 60.653981 479.97375 60.965231 480.654375 
Q 61.276481 481.333125 62.002106 481.333125 
Q 62.723981 481.333125 63.033356 480.654375 
Q 63.344606 479.97375 63.344606 478.314375 
z
M 65.600231 478.333125 
Q 65.600231 480.50625 64.662731 481.6875 
Q 63.725231 482.86875 62.002106 482.86875 
Q 60.273356 482.86875 59.335856 481.6875 
Q 58.398356 480.50625 58.398356 478.333125 
Q 58.398356 476.1525 59.335856 474.973125 
Q 60.273356 473.791875 62.002106 473.791875 
Q 63.725231 473.791875 64.662731 474.973125 
Q 65.600231 476.1525 65.600231 478.333125 
z
M 67.39859 480.43125 
L 69.507965 480.43125 
L 69.507965 482.698125 
L 67.39859 482.698125 
L 67.39859 480.43125 
z
M 75.075309 478.38 
Q 74.482809 478.38 74.186559 478.764375 
Q 73.890309 479.146875 73.890309 479.915625 
Q 73.890309 480.6825 74.186559 481.066875 
Q 74.482809 481.449375 75.075309 481.449375 
Q 75.671559 481.449375 75.967809 481.066875 
Q 76.264059 480.6825 76.264059 479.915625 
Q 76.264059 479.146875 75.967809 478.764375 
Q 75.671559 478.38 75.075309 478.38 
z
M 77.863434 474.178125 
L 77.863434 475.79625 
Q 77.306559 475.531875 76.813434 475.40625 
Q 76.322184 475.280625 75.853434 475.280625 
Q 74.846559 475.280625 74.284059 475.84125 
Q 73.721559 476.4 73.627809 477.500625 
Q 74.014059 477.21375 74.464059 477.07125 
Q 74.915934 476.926875 75.450309 476.926875 
Q 76.790934 476.926875 77.614059 477.7125 
Q 78.437184 478.49625 78.437184 479.7675 
Q 78.437184 481.17375 77.516559 482.02125 
Q 76.597809 482.86875 75.050934 482.86875 
Q 73.346559 482.86875 72.410934 481.7175 
Q 71.477184 480.564375 71.477184 478.449375 
Q 71.477184 476.281875 72.570309 475.0425 
Q 73.663434 473.803125 75.566559 473.803125 
Q 76.170309 473.803125 76.738434 473.896875 
Q 77.306559 473.990625 77.863434 474.178125 
z
M 83.499919 475.8075 
L 81.028669 479.469375 
L 83.499919 479.469375 
L 83.499919 475.8075 
z
M 83.124919 473.949375 
L 85.633669 473.949375 
L 85.633669 479.469375 
L 86.880544 479.469375 
L 86.880544 481.104375 
L 85.633669 481.104375 
L 85.633669 482.698125 
L 83.499919 482.698125 
L 83.499919 481.104375 
L 79.622419 481.104375 
L 79.622419 479.17125 
L 83.124919 473.949375 
z
"/>
   </g>
   <g id="text_4">
    <path d="M 59.230856 455.94 
L 61.223981 455.94 
L 61.223981 450.285 
L 59.178356 450.706875 
L 59.178356 449.17125 
L 61.210856 448.749375 
L 63.355856 448.749375 
L 63.355856 455.94 
L 65.348981 455.94 
L 65.348981 457.498125 
L 59.230856 457.498125 
L 59.230856 455.94 
z
M 67.39859 455.23125 
L 69.507965 455.23125 
L 69.507965 457.498125 
L 67.39859 457.498125 
L 67.39859 455.23125 
z
M 72.004059 448.749375 
L 77.612184 448.749375 
L 77.612184 450.40875 
L 73.804059 450.40875 
L 73.804059 451.7625 
Q 74.060934 451.69125 74.321559 451.65375 
Q 74.582184 451.614375 74.863434 451.614375 
Q 76.462809 451.614375 77.353434 452.415 
Q 78.244059 453.215625 78.244059 454.644375 
Q 78.244059 456.061875 77.274684 456.86625 
Q 76.305309 457.66875 74.582184 457.66875 
Q 73.837809 457.66875 73.108434 457.524375 
Q 72.379059 457.38 71.659059 457.0875 
L 71.659059 455.311875 
Q 72.373434 455.7225 73.014684 455.92875 
Q 73.655934 456.133125 74.225934 456.133125 
Q 75.045309 456.133125 75.515934 455.731875 
Q 75.988434 455.330625 75.988434 454.644375 
Q 75.988434 453.9525 75.515934 453.555 
Q 75.045309 453.155625 74.225934 453.155625 
Q 73.738434 453.155625 73.187184 453.283125 
Q 72.637809 453.40875 72.004059 453.67125 
L 72.004059 448.749375 
z
M 83.424919 453.18 
Q 82.832419 453.18 82.536169 453.564375 
Q 82.239919 453.946875 82.239919 454.715625 
Q 82.239919 455.4825 82.536169 455.866875 
Q 82.832419 456.249375 83.424919 456.249375 
Q 84.021169 456.249375 84.317419 455.866875 
Q 84.613669 455.4825 84.613669 454.715625 
Q 84.613669 453.946875 84.317419 453.564375 
Q 84.021169 453.18 83.424919 453.18 
z
M 86.213044 448.978125 
L 86.213044 450.59625 
Q 85.656169 450.331875 85.163044 450.20625 
Q 84.671794 450.080625 84.203044 450.080625 
Q 83.196169 450.080625 82.633669 450.64125 
Q 82.071169 451.2 81.977419 452.300625 
Q 82.363669 452.01375 82.813669 451.87125 
Q 83.265544 451.726875 83.799919 451.726875 
Q 85.140544 451.726875 85.963669 452.5125 
Q 86.786794 453.29625 86.786794 454.5675 
Q 86.786794 455.97375 85.866169 456.82125 
Q 84.947419 457.66875 83.400544 457.66875 
Q 81.696169 457.66875 80.760544 456.5175 
Q 79.826794 455.364375 79.826794 453.249375 
Q 79.826794 451.081875 80.919919 449.8425 
Q 82.013044 448.603125 83.916169 448.603125 
Q 84.519919 448.603125 85.088044 448.696875 
Q 85.656169 448.790625 86.213044 448.978125 
z
" style="stroke: #ffffff"/>
    <path d="M 59.230856 455.94 
L 61.223981 455.94 
L 61.223981 450.285 
L 59.178356 450.706875 
L 59.178356 449.17125 
L 61.210856 448.749375 
L 63.355856 448.749375 
L 63.355856 455.94 
L 65.348981 455.94 
L 65.348981 457.498125 
L 59.230856 457.498125 
L 59.230856 455.94 
z
M 67.39859 455.23125 
L 69.507965 455.23125 
L 69.507965 457.498125 
L 67.39859 457.498125 
L 67.39859 455.23125 
z
M 72.004059 448.749375 
L 77.612184 448.749375 
L 77.612184 450.40875 
L 73.804059 450.40875 
L 73.804059 451.7625 
Q 74.060934 451.69125 74.321559 451.65375 
Q 74.582184 451.614375 74.863434 451.614375 
Q 76.462809 451.614375 77.353434 452.415 
Q 78.244059 453.215625 78.244059 454.644375 
Q 78.244059 456.061875 77.274684 456.86625 
Q 76.305309 457.66875 74.582184 457.66875 
Q 73.837809 457.66875 73.108434 457.524375 
Q 72.379059 457.38 71.659059 457.0875 
L 71.659059 455.311875 
Q 72.373434 455.7225 73.014684 455.92875 
Q 73.655934 456.133125 74.225934 456.133125 
Q 75.045309 456.133125 75.515934 455.731875 
Q 75.988434 455.330625 75.988434 454.644375 
Q 75.988434 453.9525 75.515934 453.555 
Q 75.045309 453.155625 74.225934 453.155625 
Q 73.738434 453.155625 73.187184 453.283125 
Q 72.637809 453.40875 72.004059 453.67125 
L 72.004059 448.749375 
z
M 83.424919 453.18 
Q 82.832419 453.18 82.536169 453.564375 
Q 82.239919 453.946875 82.239919 454.715625 
Q 82.239919 455.4825 82.536169 455.866875 
Q 82.832419 456.249375 83.424919 456.249375 
Q 84.021169 456.249375 84.317419 455.866875 
Q 84.613669 455.4825 84.613669 454.715625 
Q 84.613669 453.946875 84.317419 453.564375 
Q 84.021169 453.18 83.424919 453.18 
z
M 86.213044 448.978125 
L 86.213044 450.59625 
Q 85.656169 450.331875 85.163044 450.20625 
Q 84.671794 450.080625 84.203044 450.080625 
Q 83.196169 450.080625 82.633669 450.64125 
Q 82.071169 451.2 81.977419 452.300625 
Q 82.363669 452.01375 82.813669 451.87125 
Q 83.265544 451.726875 83.799919 451.726875 
Q 85.140544 451.726875 85.963669 452.5125 
Q 86.786794 453.29625 86.786794 454.5675 
Q 86.786794 455.97375 85.866169 456.82125 
Q 84.947419 457.66875 83.400544 457.66875 
Q 81.696169 457.66875 80.760544 456.5175 
Q 79.826794 455.364375 79.826794 453.249375 
Q 79.826794 451.081875 80.919919 449.8425 
Q 82.013044 448.603125 83.916169 448.603125 
Q 84.519919 448.603125 85.088044 448.696875 
Q 85.656169 448.790625 86.213044 448.978125 
z
"/>
   </g>
   <g id="text_5">
    <path d="M 61.282106 430.640625 
L 65.131481 430.640625 
L 65.131481 432.298125 
L 58.773356 432.298125 
L 58.773356 430.640625 
L 61.966481 427.820625 
Q 62.395856 427.434375 62.600231 427.065 
Q 62.804606 426.695625 62.804606 426.298125 
Q 62.804606 425.683125 62.392106 425.308125 
Q 61.979606 424.933125 61.293356 424.933125 
Q 60.766481 424.933125 60.138356 425.158125 
Q 59.512106 425.383125 58.797731 425.829375 
L 58.797731 423.9075 
Q 59.558981 423.65625 60.303356 423.525 
Q 61.047731 423.391875 61.762106 423.391875 
Q 63.333356 423.391875 64.203356 424.08375 
Q 65.073356 424.77375 65.073356 426.01125 
Q 65.073356 426.725625 64.703981 427.344375 
Q 64.334606 427.96125 63.151481 429 
L 61.282106 430.640625 
z
M 67.39859 430.03125 
L 69.507965 430.03125 
L 69.507965 432.298125 
L 67.39859 432.298125 
L 67.39859 430.03125 
z
M 72.139059 430.74 
L 74.132184 430.74 
L 74.132184 425.085 
L 72.086559 425.506875 
L 72.086559 423.97125 
L 74.119059 423.549375 
L 76.264059 423.549375 
L 76.264059 430.74 
L 78.257184 430.74 
L 78.257184 432.298125 
L 72.139059 432.298125 
L 72.139059 430.74 
z
M 80.488669 430.74 
L 82.481794 430.74 
L 82.481794 425.085 
L 80.436169 425.506875 
L 80.436169 423.97125 
L 82.468669 423.549375 
L 84.613669 423.549375 
L 84.613669 430.74 
L 86.606794 430.74 
L 86.606794 432.298125 
L 80.488669 432.298125 
L 80.488669 430.74 
z
" style="stroke: #ffffff"/>
    <path d="M 61.282106 430.640625 
L 65.131481 430.640625 
L 65.131481 432.298125 
L 58.773356 432.298125 
L 58.773356 430.640625 
L 61.966481 427.820625 
Q 62.395856 427.434375 62.600231 427.065 
Q 62.804606 426.695625 62.804606 426.298125 
Q 62.804606 425.683125 62.392106 425.308125 
Q 61.979606 424.933125 61.293356 424.933125 
Q 60.766481 424.933125 60.138356 425.158125 
Q 59.512106 425.383125 58.797731 425.829375 
L 58.797731 423.9075 
Q 59.558981 423.65625 60.303356 423.525 
Q 61.047731 423.391875 61.762106 423.391875 
Q 63.333356 423.391875 64.203356 424.08375 
Q 65.073356 424.77375 65.073356 426.01125 
Q 65.073356 426.725625 64.703981 427.344375 
Q 64.334606 427.96125 63.151481 429 
L 61.282106 430.640625 
z
M 67.39859 430.03125 
L 69.507965 430.03125 
L 69.507965 432.298125 
L 67.39859 432.298125 
L 67.39859 430.03125 
z
M 72.139059 430.74 
L 74.132184 430.74 
L 74.132184 425.085 
L 72.086559 425.506875 
L 72.086559 423.97125 
L 74.119059 423.549375 
L 76.264059 423.549375 
L 76.264059 430.74 
L 78.257184 430.74 
L 78.257184 432.298125 
L 72.139059 432.298125 
L 72.139059 430.74 
z
M 80.488669 430.74 
L 82.481794 430.74 
L 82.481794 425.085 
L 80.436169 425.506875 
L 80.436169 423.97125 
L 82.468669 423.549375 
L 84.613669 423.549375 
L 84.613669 430.74 
L 86.606794 430.74 
L 86.606794 432.298125 
L 80.488669 432.298125 
L 80.488669 430.74 
z
"/>
   </g>
   <g id="text_6">
    <path d="M 63.413981 402.380625 
Q 64.298981 402.609375 64.758356 403.175625 
Q 65.219606 403.74 65.219606 404.61375 
Q 65.219606 405.915 64.222106 406.591875 
Q 63.226481 407.26875 61.317731 407.26875 
Q 60.642731 407.26875 59.965856 407.16 
Q 59.288981 407.05125 58.627106 406.83375 
L 58.627106 405.09375 
Q 59.260856 405.410625 59.883356 405.571875 
Q 60.507731 405.733125 61.111481 405.733125 
Q 62.007731 405.733125 62.485856 405.42375 
Q 62.963981 405.1125 62.963981 404.53125 
Q 62.963981 403.933125 62.474606 403.625625 
Q 61.985231 403.318125 61.028981 403.318125 
L 60.127106 403.318125 
L 60.127106 401.865 
L 61.075856 401.865 
Q 61.927106 401.865 62.341481 401.59875 
Q 62.757731 401.3325 62.757731 400.786875 
Q 62.757731 400.284375 62.352731 400.00875 
Q 61.949606 399.733125 61.210856 399.733125 
Q 60.667106 399.733125 60.110231 399.856875 
Q 59.553356 399.97875 59.002106 400.21875 
L 59.002106 398.566875 
Q 59.669606 398.379375 60.325856 398.285625 
Q 60.982106 398.191875 61.615856 398.191875 
Q 63.320231 398.191875 64.165856 398.7525 
Q 65.013356 399.31125 65.013356 400.43625 
Q 65.013356 401.203125 64.608356 401.6925 
Q 64.205231 402.181875 63.413981 402.380625 
z
M 67.39859 404.83125 
L 69.507965 404.83125 
L 69.507965 407.098125 
L 67.39859 407.098125 
L 67.39859 404.83125 
z
M 74.190309 405.440625 
L 78.039684 405.440625 
L 78.039684 407.098125 
L 71.681559 407.098125 
L 71.681559 405.440625 
L 74.874684 402.620625 
Q 75.304059 402.234375 75.508434 401.865 
Q 75.712809 401.495625 75.712809 401.098125 
Q 75.712809 400.483125 75.300309 400.108125 
Q 74.887809 399.733125 74.201559 399.733125 
Q 73.674684 399.733125 73.046559 399.958125 
Q 72.420309 400.183125 71.705934 400.629375 
L 71.705934 398.7075 
Q 72.467184 398.45625 73.211559 398.325 
Q 73.955934 398.191875 74.670309 398.191875 
Q 76.241559 398.191875 77.111559 398.88375 
Q 77.981559 399.57375 77.981559 400.81125 
Q 77.981559 401.525625 77.612184 402.144375 
Q 77.242809 402.76125 76.059684 403.8 
L 74.190309 405.440625 
z
M 84.671794 402.380625 
Q 85.556794 402.609375 86.016169 403.175625 
Q 86.477419 403.74 86.477419 404.61375 
Q 86.477419 405.915 85.479919 406.591875 
Q 84.484294 407.26875 82.575544 407.26875 
Q 81.900544 407.26875 81.223669 407.16 
Q 80.546794 407.05125 79.884919 406.83375 
L 79.884919 405.09375 
Q 80.518669 405.410625 81.141169 405.571875 
Q 81.765544 405.733125 82.369294 405.733125 
Q 83.265544 405.733125 83.743669 405.42375 
Q 84.221794 405.1125 84.221794 404.53125 
Q 84.221794 403.933125 83.732419 403.625625 
Q 83.243044 403.318125 82.286794 403.318125 
L 81.384919 403.318125 
L 81.384919 401.865 
L 82.333669 401.865 
Q 83.184919 401.865 83.599294 401.59875 
Q 84.015544 401.3325 84.015544 400.786875 
Q 84.015544 400.284375 83.610544 400.00875 
Q 83.207419 399.733125 82.468669 399.733125 
Q 81.924919 399.733125 81.368044 399.856875 
Q 80.811169 399.97875 80.259919 400.21875 
L 80.259919 398.566875 
Q 80.927419 398.379375 81.583669 398.285625 
Q 82.239919 398.191875 82.873669 398.191875 
Q 84.578044 398.191875 85.423669 398.7525 
Q 86.271169 399.31125 86.271169 400.43625 
Q 86.271169 401.203125 85.866169 401.6925 
Q 85.463044 402.181875 84.671794 402.380625 
z
" style="stroke: #ffffff"/>
    <path d="M 63.413981 402.380625 
Q 64.298981 402.609375 64.758356 403.175625 
Q 65.219606 403.74 65.219606 404.61375 
Q 65.219606 405.915 64.222106 406.591875 
Q 63.226481 407.26875 61.317731 407.26875 
Q 60.642731 407.26875 59.965856 407.16 
Q 59.288981 407.05125 58.627106 406.83375 
L 58.627106 405.09375 
Q 59.260856 405.410625 59.883356 405.571875 
Q 60.507731 405.733125 61.111481 405.733125 
Q 62.007731 405.733125 62.485856 405.42375 
Q 62.963981 405.1125 62.963981 404.53125 
Q 62.963981 403.933125 62.474606 403.625625 
Q 61.985231 403.318125 61.028981 403.318125 
L 60.127106 403.318125 
L 60.127106 401.865 
L 61.075856 401.865 
Q 61.927106 401.865 62.341481 401.59875 
Q 62.757731 401.3325 62.757731 400.786875 
Q 62.757731 400.284375 62.352731 400.00875 
Q 61.949606 399.733125 61.210856 399.733125 
Q 60.667106 399.733125 60.110231 399.856875 
Q 59.553356 399.97875 59.002106 400.21875 
L 59.002106 398.566875 
Q 59.669606 398.379375 60.325856 398.285625 
Q 60.982106 398.191875 61.615856 398.191875 
Q 63.320231 398.191875 64.165856 398.7525 
Q 65.013356 399.31125 65.013356 400.43625 
Q 65.013356 401.203125 64.608356 401.6925 
Q 64.205231 402.181875 63.413981 402.380625 
z
M 67.39859 404.83125 
L 69.507965 404.83125 
L 69.507965 407.098125 
L 67.39859 407.098125 
L 67.39859 404.83125 
z
M 74.190309 405.440625 
L 78.039684 405.440625 
L 78.039684 407.098125 
L 71.681559 407.098125 
L 71.681559 405.440625 
L 74.874684 402.620625 
Q 75.304059 402.234375 75.508434 401.865 
Q 75.712809 401.495625 75.712809 401.098125 
Q 75.712809 400.483125 75.300309 400.108125 
Q 74.887809 399.733125 74.201559 399.733125 
Q 73.674684 399.733125 73.046559 399.958125 
Q 72.420309 400.183125 71.705934 400.629375 
L 71.705934 398.7075 
Q 72.467184 398.45625 73.211559 398.325 
Q 73.955934 398.191875 74.670309 398.191875 
Q 76.241559 398.191875 77.111559 398.88375 
Q 77.981559 399.57375 77.981559 400.81125 
Q 77.981559 401.525625 77.612184 402.144375 
Q 77.242809 402.76125 76.059684 403.8 
L 74.190309 405.440625 
z
M 84.671794 402.380625 
Q 85.556794 402.609375 86.016169 403.175625 
Q 86.477419 403.74 86.477419 404.61375 
Q 86.477419 405.915 85.479919 406.591875 
Q 84.484294 407.26875 82.575544 407.26875 
Q 81.900544 407.26875 81.223669 407.16 
Q 80.546794 407.05125 79.884919 406.83375 
L 79.884919 405.09375 
Q 80.518669 405.410625 81.141169 405.571875 
Q 81.765544 405.733125 82.369294 405.733125 
Q 83.265544 405.733125 83.743669 405.42375 
Q 84.221794 405.1125 84.221794 404.53125 
Q 84.221794 403.933125 83.732419 403.625625 
Q 83.243044 403.318125 82.286794 403.318125 
L 81.384919 403.318125 
L 81.384919 401.865 
L 82.333669 401.865 
Q 83.184919 401.865 83.599294 401.59875 
Q 84.015544 401.3325 84.015544 400.786875 
Q 84.015544 400.284375 83.610544 400.00875 
Q 83.207419 399.733125 82.468669 399.733125 
Q 81.924919 399.733125 81.368044 399.856875 
Q 80.811169 399.97875 80.259919 400.21875 
L 80.259919 398.566875 
Q 80.927419 398.379375 81.583669 398.285625 
Q 82.239919 398.191875 82.873669 398.191875 
Q 84.578044 398.191875 85.423669 398.7525 
Q 86.271169 399.31125 86.271169 400.43625 
Q 86.271169 401.203125 85.866169 401.6925 
Q 85.463044 402.181875 84.671794 402.380625 
z
"/>
   </g>
   <g id="text_7">
    <path d="M 63.413981 377.180625 
Q 64.298981 377.409375 64.758356 377.975625 
Q 65.219606 378.54 65.219606 379.41375 
Q 65.219606 380.715 64.222106 381.391875 
Q 63.226481 382.06875 61.317731 382.06875 
Q 60.642731 382.06875 59.965856 381.96 
Q 59.288981 381.85125 58.627106 381.63375 
L 58.627106 379.89375 
Q 59.260856 380.210625 59.883356 380.371875 
Q 60.507731 380.533125 61.111481 380.533125 
Q 62.007731 380.533125 62.485856 380.22375 
Q 62.963981 379.9125 62.963981 379.33125 
Q 62.963981 378.733125 62.474606 378.425625 
Q 61.985231 378.118125 61.028981 378.118125 
L 60.127106 378.118125 
L 60.127106 376.665 
L 61.075856 376.665 
Q 61.927106 376.665 62.341481 376.39875 
Q 62.757731 376.1325 62.757731 375.586875 
Q 62.757731 375.084375 62.352731 374.80875 
Q 61.949606 374.533125 61.210856 374.533125 
Q 60.667106 374.533125 60.110231 374.656875 
Q 59.553356 374.77875 59.002106 375.01875 
L 59.002106 373.366875 
Q 59.669606 373.179375 60.325856 373.085625 
Q 60.982106 372.991875 61.615856 372.991875 
Q 63.320231 372.991875 64.165856 373.5525 
Q 65.013356 374.11125 65.013356 375.23625 
Q 65.013356 376.003125 64.608356 376.4925 
Q 64.205231 376.981875 63.413981 377.180625 
z
M 67.39859 379.63125 
L 69.507965 379.63125 
L 69.507965 381.898125 
L 67.39859 381.898125 
L 67.39859 379.63125 
z
M 75.075309 377.58 
Q 74.482809 377.58 74.186559 377.964375 
Q 73.890309 378.346875 73.890309 379.115625 
Q 73.890309 379.8825 74.186559 380.266875 
Q 74.482809 380.649375 75.075309 380.649375 
Q 75.671559 380.649375 75.967809 380.266875 
Q 76.264059 379.8825 76.264059 379.115625 
Q 76.264059 378.346875 75.967809 377.964375 
Q 75.671559 377.58 75.075309 377.58 
z
M 77.863434 373.378125 
L 77.863434 374.99625 
Q 77.306559 374.731875 76.813434 374.60625 
Q 76.322184 374.480625 75.853434 374.480625 
Q 74.846559 374.480625 74.284059 375.04125 
Q 73.721559 375.6 73.627809 376.700625 
Q 74.014059 376.41375 74.464059 376.27125 
Q 74.915934 376.126875 75.450309 376.126875 
Q 76.790934 376.126875 77.614059 376.9125 
Q 78.437184 377.69625 78.437184 378.9675 
Q 78.437184 380.37375 77.516559 381.22125 
Q 76.597809 382.06875 75.050934 382.06875 
Q 73.346559 382.06875 72.410934 380.9175 
Q 71.477184 379.764375 71.477184 377.649375 
Q 71.477184 375.481875 72.570309 374.2425 
Q 73.663434 373.003125 75.566559 373.003125 
Q 76.170309 373.003125 76.738434 373.096875 
Q 77.306559 373.190625 77.863434 373.378125 
z
M 79.884919 373.149375 
L 86.477419 373.149375 
L 86.477419 374.420625 
L 83.066794 381.898125 
L 80.869294 381.898125 
L 84.098044 374.80875 
L 79.884919 374.80875 
L 79.884919 373.149375 
z
" style="stroke: #ffffff"/>
    <path d="M 63.413981 377.180625 
Q 64.298981 377.409375 64.758356 377.975625 
Q 65.219606 378.54 65.219606 379.41375 
Q 65.219606 380.715 64.222106 381.391875 
Q 63.226481 382.06875 61.317731 382.06875 
Q 60.642731 382.06875 59.965856 381.96 
Q 59.288981 381.85125 58.627106 381.63375 
L 58.627106 379.89375 
Q 59.260856 380.210625 59.883356 380.371875 
Q 60.507731 380.533125 61.111481 380.533125 
Q 62.007731 380.533125 62.485856 380.22375 
Q 62.963981 379.9125 62.963981 379.33125 
Q 62.963981 378.733125 62.474606 378.425625 
Q 61.985231 378.118125 61.028981 378.118125 
L 60.127106 378.118125 
L 60.127106 376.665 
L 61.075856 376.665 
Q 61.927106 376.665 62.341481 376.39875 
Q 62.757731 376.1325 62.757731 375.586875 
Q 62.757731 375.084375 62.352731 374.80875 
Q 61.949606 374.533125 61.210856 374.533125 
Q 60.667106 374.533125 60.110231 374.656875 
Q 59.553356 374.77875 59.002106 375.01875 
L 59.002106 373.366875 
Q 59.669606 373.179375 60.325856 373.085625 
Q 60.982106 372.991875 61.615856 372.991875 
Q 63.320231 372.991875 64.165856 373.5525 
Q 65.013356 374.11125 65.013356 375.23625 
Q 65.013356 376.003125 64.608356 376.4925 
Q 64.205231 376.981875 63.413981 377.180625 
z
M 67.39859 379.63125 
L 69.507965 379.63125 
L 69.507965 381.898125 
L 67.39859 381.898125 
L 67.39859 379.63125 
z
M 75.075309 377.58 
Q 74.482809 377.58 74.186559 377.964375 
Q 73.890309 378.346875 73.890309 379.115625 
Q 73.890309 379.8825 74.186559 380.266875 
Q 74.482809 380.649375 75.075309 380.649375 
Q 75.671559 380.649375 75.967809 380.266875 
Q 76.264059 379.8825 76.264059 379.115625 
Q 76.264059 378.346875 75.967809 377.964375 
Q 75.671559 377.58 75.075309 377.58 
z
M 77.863434 373.378125 
L 77.863434 374.99625 
Q 77.306559 374.731875 76.813434 374.60625 
Q 76.322184 374.480625 75.853434 374.480625 
Q 74.846559 374.480625 74.284059 375.04125 
Q 73.721559 375.6 73.627809 376.700625 
Q 74.014059 376.41375 74.464059 376.27125 
Q 74.915934 376.126875 75.450309 376.126875 
Q 76.790934 376.126875 77.614059 376.9125 
Q 78.437184 377.69625 78.437184 378.9675 
Q 78.437184 380.37375 77.516559 381.22125 
Q 76.597809 382.06875 75.050934 382.06875 
Q 73.346559 382.06875 72.410934 380.9175 
Q 71.477184 379.764375 71.477184 377.649375 
Q 71.477184 375.481875 72.570309 374.2425 
Q 73.663434 373.003125 75.566559 373.003125 
Q 76.170309 373.003125 76.738434 373.096875 
Q 77.306559 373.190625 77.863434 373.378125 
z
M 79.884919 373.149375 
L 86.477419 373.149375 
L 86.477419 374.420625 
L 83.066794 381.898125 
L 80.869294 381.898125 
L 84.098044 374.80875 
L 79.884919 374.80875 
L 79.884919 373.149375 
z
"/>
   </g>
   <g id="text_8">
    <path d="M 59.095856 347.949375 
L 64.703981 347.949375 
L 64.703981 349.60875 
L 60.895856 349.60875 
L 60.895856 350.9625 
Q 61.152731 350.89125 61.413356 350.85375 
Q 61.673981 350.814375 61.955231 350.814375 
Q 63.554606 350.814375 64.445231 351.615 
Q 65.335856 352.415625 65.335856 353.844375 
Q 65.335856 355.261875 64.366481 356.06625 
Q 63.397106 356.86875 61.673981 356.86875 
Q 60.929606 356.86875 60.200231 356.724375 
Q 59.470856 356.58 58.750856 356.2875 
L 58.750856 354.511875 
Q 59.465231 354.9225 60.106481 355.12875 
Q 60.747731 355.333125 61.317731 355.333125 
Q 62.137106 355.333125 62.607731 354.931875 
Q 63.080231 354.530625 63.080231 353.844375 
Q 63.080231 353.1525 62.607731 352.755 
Q 62.137106 352.355625 61.317731 352.355625 
Q 60.830231 352.355625 60.278981 352.483125 
Q 59.729606 352.60875 59.095856 352.87125 
L 59.095856 347.949375 
z
M 67.39859 354.43125 
L 69.507965 354.43125 
L 69.507965 356.698125 
L 67.39859 356.698125 
L 67.39859 354.43125 
z
M 76.252809 352.314375 
Q 76.252809 350.67375 75.945309 350.004375 
Q 75.637809 349.333125 74.910309 349.333125 
Q 74.184684 349.333125 73.873434 350.004375 
Q 73.562184 350.67375 73.562184 352.314375 
Q 73.562184 353.97375 73.873434 354.654375 
Q 74.184684 355.333125 74.910309 355.333125 
Q 75.632184 355.333125 75.941559 354.654375 
Q 76.252809 353.97375 76.252809 352.314375 
z
M 78.508434 352.333125 
Q 78.508434 354.50625 77.570934 355.6875 
Q 76.633434 356.86875 74.910309 356.86875 
Q 73.181559 356.86875 72.244059 355.6875 
Q 71.306559 354.50625 71.306559 352.333125 
Q 71.306559 350.1525 72.244059 348.973125 
Q 73.181559 347.791875 74.910309 347.791875 
Q 76.633434 347.791875 77.570934 348.973125 
Q 78.508434 350.1525 78.508434 352.333125 
z
M 80.353669 347.949375 
L 85.961794 347.949375 
L 85.961794 349.60875 
L 82.153669 349.60875 
L 82.153669 350.9625 
Q 82.410544 350.89125 82.671169 350.85375 
Q 82.931794 350.814375 83.213044 350.814375 
Q 84.812419 350.814375 85.703044 351.615 
Q 86.593669 352.415625 86.593669 353.844375 
Q 86.593669 355.261875 85.624294 356.06625 
Q 84.654919 356.86875 82.931794 356.86875 
Q 82.187419 356.86875 81.458044 356.724375 
Q 80.728669 356.58 80.008669 356.2875 
L 80.008669 354.511875 
Q 80.723044 354.9225 81.364294 355.12875 
Q 82.005544 355.333125 82.575544 355.333125 
Q 83.394919 355.333125 83.865544 354.931875 
Q 84.338044 354.530625 84.338044 353.844375 
Q 84.338044 353.1525 83.865544 352.755 
Q 83.394919 352.355625 82.575544 352.355625 
Q 82.088044 352.355625 81.536794 352.483125 
Q 80.987419 352.60875 80.353669 352.87125 
L 80.353669 347.949375 
z
" style="stroke: #ffffff"/>
    <path d="M 59.095856 347.949375 
L 64.703981 347.949375 
L 64.703981 349.60875 
L 60.895856 349.60875 
L 60.895856 350.9625 
Q 61.152731 350.89125 61.413356 350.85375 
Q 61.673981 350.814375 61.955231 350.814375 
Q 63.554606 350.814375 64.445231 351.615 
Q 65.335856 352.415625 65.335856 353.844375 
Q 65.335856 355.261875 64.366481 356.06625 
Q 63.397106 356.86875 61.673981 356.86875 
Q 60.929606 356.86875 60.200231 356.724375 
Q 59.470856 356.58 58.750856 356.2875 
L 58.750856 354.511875 
Q 59.465231 354.9225 60.106481 355.12875 
Q 60.747731 355.333125 61.317731 355.333125 
Q 62.137106 355.333125 62.607731 354.931875 
Q 63.080231 354.530625 63.080231 353.844375 
Q 63.080231 353.1525 62.607731 352.755 
Q 62.137106 352.355625 61.317731 352.355625 
Q 60.830231 352.355625 60.278981 352.483125 
Q 59.729606 352.60875 59.095856 352.87125 
L 59.095856 347.949375 
z
M 67.39859 354.43125 
L 69.507965 354.43125 
L 69.507965 356.698125 
L 67.39859 356.698125 
L 67.39859 354.43125 
z
M 76.252809 352.314375 
Q 76.252809 350.67375 75.945309 350.004375 
Q 75.637809 349.333125 74.910309 349.333125 
Q 74.184684 349.333125 73.873434 350.004375 
Q 73.562184 350.67375 73.562184 352.314375 
Q 73.562184 353.97375 73.873434 354.654375 
Q 74.184684 355.333125 74.910309 355.333125 
Q 75.632184 355.333125 75.941559 354.654375 
Q 76.252809 353.97375 76.252809 352.314375 
z
M 78.508434 352.333125 
Q 78.508434 354.50625 77.570934 355.6875 
Q 76.633434 356.86875 74.910309 356.86875 
Q 73.181559 356.86875 72.244059 355.6875 
Q 71.306559 354.50625 71.306559 352.333125 
Q 71.306559 350.1525 72.244059 348.973125 
Q 73.181559 347.791875 74.910309 347.791875 
Q 76.633434 347.791875 77.570934 348.973125 
Q 78.508434 350.1525 78.508434 352.333125 
z
M 80.353669 347.949375 
L 85.961794 347.949375 
L 85.961794 349.60875 
L 82.153669 349.60875 
L 82.153669 350.9625 
Q 82.410544 350.89125 82.671169 350.85375 
Q 82.931794 350.814375 83.213044 350.814375 
Q 84.812419 350.814375 85.703044 351.615 
Q 86.593669 352.415625 86.593669 353.844375 
Q 86.593669 355.261875 85.624294 356.06625 
Q 84.654919 356.86875 82.931794 356.86875 
Q 82.187419 356.86875 81.458044 356.724375 
Q 80.728669 356.58 80.008669 356.2875 
L 80.008669 354.511875 
Q 80.723044 354.9225 81.364294 355.12875 
Q 82.005544 355.333125 82.575544 355.333125 
Q 83.394919 355.333125 83.865544 354.931875 
Q 84.338044 354.530625 84.338044 353.844375 
Q 84.338044 353.1525 83.865544 352.755 
Q 83.394919 352.355625 82.575544 352.355625 
Q 82.088044 352.355625 81.536794 352.483125 
Q 80.987419 352.60875 80.353669 352.87125 
L 80.353669 347.949375 
z
"/>
   </g>
   <g id="text_9">
    <path d="M 66.341794 327.18 
Q 65.749294 327.18 65.453044 327.564375 
Q 65.156794 327.946875 65.156794 328.715625 
Q 65.156794 329.4825 65.453044 329.866875 
Q 65.749294 330.249375 66.341794 330.249375 
Q 66.938044 330.249375 67.234294 329.866875 
Q 67.530544 329.4825 67.530544 328.715625 
Q 67.530544 327.946875 67.234294 327.564375 
Q 66.938044 327.18 66.341794 327.18 
z
M 69.129919 322.978125 
L 69.129919 324.59625 
Q 68.573044 324.331875 68.079919 324.20625 
Q 67.588669 324.080625 67.119919 324.080625 
Q 66.113044 324.080625 65.550544 324.64125 
Q 64.988044 325.2 64.894294 326.300625 
Q 65.280544 326.01375 65.730544 325.87125 
Q 66.182419 325.726875 66.716794 325.726875 
Q 68.057419 325.726875 68.880544 326.5125 
Q 69.703669 327.29625 69.703669 328.5675 
Q 69.703669 329.97375 68.783044 330.82125 
Q 67.864294 331.66875 66.317419 331.66875 
Q 64.613044 331.66875 63.677419 330.5175 
Q 62.743669 329.364375 62.743669 327.249375 
Q 62.743669 325.081875 63.836794 323.8425 
Q 64.929919 322.603125 66.833044 322.603125 
Q 67.436794 322.603125 68.004919 322.696875 
Q 68.573044 322.790625 69.129919 322.978125 
z
M 71.573278 329.23125 
L 73.682653 329.23125 
L 73.682653 331.498125 
L 71.573278 331.498125 
L 71.573278 329.23125 
z
M 76.178747 322.749375 
L 81.786872 322.749375 
L 81.786872 324.40875 
L 77.978747 324.40875 
L 77.978747 325.7625 
Q 78.235622 325.69125 78.496247 325.65375 
Q 78.756872 325.614375 79.038122 325.614375 
Q 80.637497 325.614375 81.528122 326.415 
Q 82.418747 327.215625 82.418747 328.644375 
Q 82.418747 330.061875 81.449372 330.86625 
Q 80.479997 331.66875 78.756872 331.66875 
Q 78.012497 331.66875 77.283122 331.524375 
Q 76.553747 331.38 75.833747 331.0875 
L 75.833747 329.311875 
Q 76.548122 329.7225 77.189372 329.92875 
Q 77.830622 330.133125 78.400622 330.133125 
Q 79.219997 330.133125 79.690622 329.731875 
Q 80.163122 329.330625 80.163122 328.644375 
Q 80.163122 327.9525 79.690622 327.555 
Q 79.219997 327.155625 78.400622 327.155625 
Q 77.913122 327.155625 77.361872 327.283125 
Q 76.812497 327.40875 76.178747 327.67125 
L 76.178747 322.749375 
z
" style="stroke: #ffffff"/>
    <path d="M 66.341794 327.18 
Q 65.749294 327.18 65.453044 327.564375 
Q 65.156794 327.946875 65.156794 328.715625 
Q 65.156794 329.4825 65.453044 329.866875 
Q 65.749294 330.249375 66.341794 330.249375 
Q 66.938044 330.249375 67.234294 329.866875 
Q 67.530544 329.4825 67.530544 328.715625 
Q 67.530544 327.946875 67.234294 327.564375 
Q 66.938044 327.18 66.341794 327.18 
z
M 69.129919 322.978125 
L 69.129919 324.59625 
Q 68.573044 324.331875 68.079919 324.20625 
Q 67.588669 324.080625 67.119919 324.080625 
Q 66.113044 324.080625 65.550544 324.64125 
Q 64.988044 325.2 64.894294 326.300625 
Q 65.280544 326.01375 65.730544 325.87125 
Q 66.182419 325.726875 66.716794 325.726875 
Q 68.057419 325.726875 68.880544 326.5125 
Q 69.703669 327.29625 69.703669 328.5675 
Q 69.703669 329.97375 68.783044 330.82125 
Q 67.864294 331.66875 66.317419 331.66875 
Q 64.613044 331.66875 63.677419 330.5175 
Q 62.743669 329.364375 62.743669 327.249375 
Q 62.743669 325.081875 63.836794 323.8425 
Q 64.929919 322.603125 66.833044 322.603125 
Q 67.436794 322.603125 68.004919 322.696875 
Q 68.573044 322.790625 69.129919 322.978125 
z
M 71.573278 329.23125 
L 73.682653 329.23125 
L 73.682653 331.498125 
L 71.573278 331.498125 
L 71.573278 329.23125 
z
M 76.178747 322.749375 
L 81.786872 322.749375 
L 81.786872 324.40875 
L 77.978747 324.40875 
L 77.978747 325.7625 
Q 78.235622 325.69125 78.496247 325.65375 
Q 78.756872 325.614375 79.038122 325.614375 
Q 80.637497 325.614375 81.528122 326.415 
Q 82.418747 327.215625 82.418747 328.644375 
Q 82.418747 330.061875 81.449372 330.86625 
Q 80.479997 331.66875 78.756872 331.66875 
Q 78.012497 331.66875 77.283122 331.524375 
Q 76.553747 331.38 75.833747 331.0875 
L 75.833747 329.311875 
Q 76.548122 329.7225 77.189372 329.92875 
Q 77.830622 330.133125 78.400622 330.133125 
Q 79.219997 330.133125 79.690622 329.731875 
Q 80.163122 329.330625 80.163122 328.644375 
Q 80.163122 327.9525 79.690622 327.555 
Q 79.219997 327.155625 78.400622 327.155625 
Q 77.913122 327.155625 77.361872 327.283125 
Q 76.812497 327.40875 76.178747 327.67125 
L 76.178747 322.749375 
z
"/>
   </g>
   <g id="text_10">
    <path d="M 55.056169 304.74 
L 57.049294 304.74 
L 57.049294 299.085 
L 55.003669 299.506875 
L 55.003669 297.97125 
L 57.036169 297.549375 
L 59.181169 297.549375 
L 59.181169 304.74 
L 61.174294 304.74 
L 61.174294 306.298125 
L 55.056169 306.298125 
L 55.056169 304.74 
z
M 67.519528 301.914375 
Q 67.519528 300.27375 67.212028 299.604375 
Q 66.904528 298.933125 66.177028 298.933125 
Q 65.451403 298.933125 65.140153 299.604375 
Q 64.828903 300.27375 64.828903 301.914375 
Q 64.828903 303.57375 65.140153 304.254375 
Q 65.451403 304.933125 66.177028 304.933125 
Q 66.898903 304.933125 67.208278 304.254375 
Q 67.519528 303.57375 67.519528 301.914375 
z
M 69.775153 301.933125 
Q 69.775153 304.10625 68.837653 305.2875 
Q 67.900153 306.46875 66.177028 306.46875 
Q 64.448278 306.46875 63.510778 305.2875 
Q 62.573278 304.10625 62.573278 301.933125 
Q 62.573278 299.7525 63.510778 298.573125 
Q 64.448278 297.391875 66.177028 297.391875 
Q 67.900153 297.391875 68.837653 298.573125 
Q 69.775153 299.7525 69.775153 301.933125 
z
M 71.573512 304.03125 
L 73.682887 304.03125 
L 73.682887 306.298125 
L 71.573512 306.298125 
L 71.573512 304.03125 
z
M 75.710231 297.549375 
L 82.302731 297.549375 
L 82.302731 298.820625 
L 78.892106 306.298125 
L 76.694606 306.298125 
L 79.923356 299.20875 
L 75.710231 299.20875 
L 75.710231 297.549375 
z
M 84.05984 297.549375 
L 90.65234 297.549375 
L 90.65234 298.820625 
L 87.241715 306.298125 
L 85.044215 306.298125 
L 88.272965 299.20875 
L 84.05984 299.20875 
L 84.05984 297.549375 
z
" style="stroke: #ffffff"/>
    <path d="M 55.056169 304.74 
L 57.049294 304.74 
L 57.049294 299.085 
L 55.003669 299.506875 
L 55.003669 297.97125 
L 57.036169 297.549375 
L 59.181169 297.549375 
L 59.181169 304.74 
L 61.174294 304.74 
L 61.174294 306.298125 
L 55.056169 306.298125 
L 55.056169 304.74 
z
M 67.519528 301.914375 
Q 67.519528 300.27375 67.212028 299.604375 
Q 66.904528 298.933125 66.177028 298.933125 
Q 65.451403 298.933125 65.140153 299.604375 
Q 64.828903 300.27375 64.828903 301.914375 
Q 64.828903 303.57375 65.140153 304.254375 
Q 65.451403 304.933125 66.177028 304.933125 
Q 66.898903 304.933125 67.208278 304.254375 
Q 67.519528 303.57375 67.519528 301.914375 
z
M 69.775153 301.933125 
Q 69.775153 304.10625 68.837653 305.2875 
Q 67.900153 306.46875 66.177028 306.46875 
Q 64.448278 306.46875 63.510778 305.2875 
Q 62.573278 304.10625 62.573278 301.933125 
Q 62.573278 299.7525 63.510778 298.573125 
Q 64.448278 297.391875 66.177028 297.391875 
Q 67.900153 297.391875 68.837653 298.573125 
Q 69.775153 299.7525 69.775153 301.933125 
z
M 71.573512 304.03125 
L 73.682887 304.03125 
L 73.682887 306.298125 
L 71.573512 306.298125 
L 71.573512 304.03125 
z
M 75.710231 297.549375 
L 82.302731 297.549375 
L 82.302731 298.820625 
L 78.892106 306.298125 
L 76.694606 306.298125 
L 79.923356 299.20875 
L 75.710231 299.20875 
L 75.710231 297.549375 
z
M 84.05984 297.549375 
L 90.65234 297.549375 
L 90.65234 298.820625 
L 87.241715 306.298125 
L 85.044215 306.298125 
L 88.272965 299.20875 
L 84.05984 299.20875 
L 84.05984 297.549375 
z
"/>
   </g>
  </g>
  <g id="axes_6">
   <g id="patch_15">
    <path d="M 104.982353 512.64 
L 129.6 512.64 
L 129.6 290.88 
L 104.982353 290.88 
L 104.982353 512.64 
z
" style="fill: none"/>
   </g>
  </g>
 </g>
 <defs>
  <clipPath id="p4dc7bf4113">
   <rect x="49.182353" y="290.88" width="49.235294" height="221.76"/>
  </clipPath>
 </defs>
</svg>
