<?xml version="1.0" encoding="utf-8" standalone="no"?>
<!DOCTYPE svg PUBLIC "-//W3C//DTD SVG 1.1//EN"
  "http://www.w3.org/Graphics/SVG/1.1/DTD/svg11.dtd">
<svg xmlns:xlink="http://www.w3.org/1999/xlink" width="144pt" height="576pt" viewBox="0 0 144 576" xmlns="http://www.w3.org/2000/svg" version="1.1">
 <metadata>
  <rdf:RDF xmlns:dc="http://purl.org/dc/elements/1.1/" xmlns:cc="http://creativecommons.org/ns#" xmlns:rdf="http://www.w3.org/1999/02/22-rdf-syntax-ns#">
   <cc:Work>
    <dc:type rdf:resource="http://purl.org/dc/dcmitype/StillImage"/>
    <dc:date>2022-04-01T18:31:36.691404</dc:date>
    <dc:format>image/svg+xml</dc:format>
    <dc:creator>
     <cc:Agent>
      <dc:title>Matplotlib v3.5.1, https://matplotlib.org/</dc:title>
     </cc:Agent>
    </dc:creator>
   </cc:Work>
  </rdf:RDF>
 </metadata>
 <defs>
  <style type="text/css">*{stroke-linejoin: round; stroke-linecap: butt}</style>
 </defs>
 <g id="figure_1">
  <g id="patch_1">
   <path d="M 0 576 
L 144 576 
L 144 0 
L 0 0 
L 0 576 
z
" style="fill: none"/>
  </g>
  <g id="axes_1">
   <g id="patch_2">
    <path d="M 18 286.56 
L 42.617647 286.56 
L 42.617647 69.12 
L 18 69.12 
L 18 286.56 
z
" style="fill: none"/>
   </g>
  </g>
  <g id="axes_2">
   <g id="patch_3">
    <path d="M 49.182353 286.56 
L 98.417647 286.56 
L 98.417647 69.12 
L 49.182353 69.12 
L 49.182353 286.56 
z
" style="fill: none"/>
   </g>
   <g id="text_1">
    <path d="M 21.0525 249.607125 
L 19.445625 253.960875 
L 22.663125 253.960875 
L 21.0525 249.607125 
z
M 20.383125 248.440875 
L 21.725625 248.440875 
L 25.059375 257.189625 
L 23.829375 257.189625 
L 23.0325 254.94525 
L 19.089375 254.94525 
L 18.2925 257.189625 
L 17.04375 257.189625 
L 20.383125 248.440875 
z
M 32.677734 249.115875 
L 32.677734 250.36275 
Q 32.079609 249.805875 31.402734 249.532125 
Q 30.725859 249.2565 29.964609 249.2565 
Q 28.464609 249.2565 27.667734 250.173375 
Q 26.870859 251.09025 26.870859 252.824625 
Q 26.870859 254.553375 27.667734 255.47025 
Q 28.464609 256.387125 29.964609 256.387125 
Q 30.725859 256.387125 31.402734 256.1115 
Q 32.079609 255.835875 32.677734 255.279 
L 32.677734 256.5165 
Q 32.057109 256.938375 31.361484 257.15025 
Q 30.667734 257.36025 29.895234 257.36025 
Q 27.907734 257.36025 26.763984 256.14525 
Q 25.622109 254.928375 25.622109 252.824625 
Q 25.622109 250.71525 26.763984 249.50025 
Q 27.907734 248.283375 29.895234 248.283375 
Q 30.678984 248.283375 31.372734 248.4915 
Q 32.068359 248.699625 32.677734 249.115875 
z
M 39.749766 248.72775 
L 39.749766 249.88275 
Q 39.076641 249.56025 38.478516 249.40275 
Q 37.880391 249.243375 37.323516 249.243375 
Q 36.357891 249.243375 35.832891 249.618375 
Q 35.307891 249.993375 35.307891 250.68525 
Q 35.307891 251.2665 35.656641 251.56275 
Q 36.005391 251.857125 36.978516 252.039 
L 37.692891 252.18525 
Q 39.016641 252.438375 39.646641 253.074 
Q 40.276641 253.709625 40.276641 254.774625 
Q 40.276641 256.04775 39.423516 256.704 
Q 38.572266 257.36025 36.926016 257.36025 
Q 36.305391 257.36025 35.604141 257.219625 
Q 34.904766 257.079 34.154766 256.803375 
L 34.154766 255.584625 
Q 34.874766 255.98775 35.566641 256.194 
Q 36.258516 256.398375 36.926016 256.398375 
Q 37.938516 256.398375 38.489766 256.000875 
Q 39.041016 255.6015 39.041016 254.86275 
Q 39.041016 254.219625 38.645391 253.855875 
Q 38.249766 253.492125 37.347891 253.31025 
L 36.626016 253.169625 
Q 35.302266 252.907125 34.709766 252.344625 
Q 34.119141 251.782125 34.119141 250.779 
Q 34.119141 249.618375 34.936641 248.950875 
Q 35.754141 248.283375 37.188516 248.283375 
Q 37.805391 248.283375 38.442891 248.395875 
Q 39.082266 248.5065 39.749766 248.72775 
z
M 42.240703 248.440875 
L 46.886953 248.440875 
L 46.886953 249.438375 
L 43.324453 249.438375 
L 43.324453 251.5815 
Q 43.581328 251.493375 43.838203 251.45025 
Q 44.096953 251.407125 44.355703 251.407125 
Q 45.820078 251.407125 46.675078 252.209625 
Q 47.531953 253.012125 47.531953 254.38275 
Q 47.531953 255.794625 46.652578 256.578375 
Q 45.773203 257.36025 44.173828 257.36025 
Q 43.622578 257.36025 43.050703 257.2665 
Q 42.480703 257.17275 41.871328 256.98525 
L 41.871328 255.794625 
Q 42.398203 256.0815 42.960703 256.222125 
Q 43.523203 256.36275 44.149453 256.36275 
Q 45.163828 256.36275 45.754453 255.83025 
Q 46.346953 255.29775 46.346953 254.38275 
Q 46.346953 253.469625 45.754453 252.937125 
Q 45.163828 252.40275 44.149453 252.40275 
Q 43.675078 252.40275 43.202578 252.50775 
Q 42.731953 252.61275 42.240703 252.835875 
L 42.240703 248.440875 
z
M 54.754922 249.414 
L 54.754922 252.700875 
L 56.243672 252.700875 
Q 57.070547 252.700875 57.520547 252.273375 
Q 57.972422 251.845875 57.972422 251.054625 
Q 57.972422 250.269 57.520547 249.8415 
Q 57.070547 249.414 56.243672 249.414 
L 54.754922 249.414 
z
M 53.571797 248.440875 
L 56.243672 248.440875 
Q 57.715547 248.440875 58.467422 249.1065 
Q 59.221172 249.772125 59.221172 251.054625 
Q 59.221172 252.35025 58.467422 253.012125 
Q 57.715547 253.674 56.243672 253.674 
L 54.754922 253.674 
L 54.754922 257.189625 
L 53.571797 257.189625 
L 53.571797 248.440875 
z
M 62.86875 251.38275 
Q 62.0025 251.38275 61.498125 252.059625 
Q 60.99375 252.7365 60.99375 253.914 
Q 60.99375 255.0915 61.494375 255.768375 
Q 61.996875 256.44525 62.86875 256.44525 
Q 63.73125 256.44525 64.23375 255.7665 
Q 64.738125 255.085875 64.738125 253.914 
Q 64.738125 252.74775 64.23375 252.06525 
Q 63.73125 251.38275 62.86875 251.38275 
z
M 62.86875 250.469625 
Q 64.275 250.469625 65.0775 251.384625 
Q 65.881875 252.29775 65.881875 253.914 
Q 65.881875 255.524625 65.0775 256.443375 
Q 64.275 257.36025 62.86875 257.36025 
Q 61.456875 257.36025 60.65625 256.443375 
Q 59.8575 255.524625 59.8575 253.914 
Q 59.8575 252.29775 60.65625 251.384625 
Q 61.456875 250.469625 62.86875 250.469625 
z
M 68.710547 256.20525 
L 68.710547 259.68525 
L 67.626797 259.68525 
L 67.626797 250.627125 
L 68.710547 250.627125 
L 68.710547 251.62275 
Q 69.051797 251.03775 69.569297 250.754625 
Q 70.088672 250.469625 70.808672 250.469625 
Q 72.004922 250.469625 72.751172 251.418375 
Q 73.499297 252.367125 73.499297 253.914 
Q 73.499297 255.460875 72.751172 256.4115 
Q 72.004922 257.36025 70.808672 257.36025 
Q 70.088672 257.36025 69.569297 257.07525 
Q 69.051797 256.79025 68.710547 256.20525 
z
M 72.379922 253.914 
Q 72.379922 252.72525 71.890547 252.048375 
Q 71.401172 251.3715 70.546172 251.3715 
Q 69.689297 251.3715 69.199922 252.048375 
Q 68.710547 252.72525 68.710547 253.914 
Q 68.710547 255.10275 69.199922 255.779625 
Q 69.689297 256.4565 70.546172 256.4565 
Q 71.401172 256.4565 71.890547 255.779625 
Q 72.379922 255.10275 72.379922 253.914 
z
M 75.174609 254.60025 
L 75.174609 250.627125 
L 76.252734 250.627125 
L 76.252734 254.559 
Q 76.252734 255.490875 76.614609 255.95775 
Q 76.978359 256.42275 77.705859 256.42275 
Q 78.577734 256.42275 79.083984 255.865875 
Q 79.592109 255.309 79.592109 254.347125 
L 79.592109 250.627125 
L 80.670234 250.627125 
L 80.670234 257.189625 
L 79.592109 257.189625 
L 79.592109 256.180875 
Q 79.200234 256.779 78.680859 257.069625 
Q 78.163359 257.36025 77.477109 257.36025 
Q 76.346484 257.36025 75.759609 256.657125 
Q 75.174609 255.954 75.174609 254.60025 
z
M 77.887734 250.469625 
L 77.887734 250.469625 
z
M 82.890703 248.0715 
L 83.968828 248.0715 
L 83.968828 257.189625 
L 82.890703 257.189625 
L 82.890703 248.0715 
z
M 89.207813 253.8915 
Q 87.900937 253.8915 87.396563 254.189625 
Q 86.892188 254.48775 86.892188 255.209625 
Q 86.892188 255.783375 87.270938 256.120875 
Q 87.649687 256.4565 88.298438 256.4565 
Q 89.196562 256.4565 89.738438 255.820875 
Q 90.280313 255.18525 90.280313 254.1315 
L 90.280313 253.8915 
L 89.207813 253.8915 
z
M 91.358438 253.44525 
L 91.358438 257.189625 
L 90.280313 257.189625 
L 90.280313 256.194 
Q 89.910938 256.79025 89.359688 257.07525 
Q 88.808437 257.36025 88.011562 257.36025 
Q 87.004688 257.36025 86.408438 256.794 
Q 85.814063 256.22775 85.814063 255.279 
Q 85.814063 254.17275 86.554688 253.61025 
Q 87.297188 253.04775 88.767188 253.04775 
L 90.280313 253.04775 
L 90.280313 252.940875 
Q 90.280313 252.1965 89.790938 251.789625 
Q 89.301563 251.38275 88.416562 251.38275 
Q 87.854062 251.38275 87.319688 251.51775 
Q 86.787188 251.65275 86.295938 251.92275 
L 86.295938 250.92525 
Q 86.886562 250.6965 87.443438 250.584 
Q 88.000313 250.469625 88.527187 250.469625 
Q 89.952188 250.469625 90.655313 251.208375 
Q 91.358438 251.94525 91.358438 253.44525 
z
M 94.645078 248.763375 
L 94.645078 250.627125 
L 96.865078 250.627125 
L 96.865078 251.46525 
L 94.645078 251.46525 
L 94.645078 255.02775 
Q 94.645078 255.83025 94.864453 256.059 
Q 95.083828 256.28775 95.758828 256.28775 
L 96.865078 256.28775 
L 96.865078 257.189625 
L 95.758828 257.189625 
Q 94.510078 257.189625 94.035703 256.724625 
Q 93.561328 256.25775 93.561328 255.02775 
L 93.561328 251.46525 
L 92.770078 251.46525 
L 92.770078 250.627125 
L 93.561328 250.627125 
L 93.561328 248.763375 
L 94.645078 248.763375 
z
M 98.283281 250.627125 
L 99.361406 250.627125 
L 99.361406 257.189625 
L 98.283281 257.189625 
L 98.283281 250.627125 
z
M 98.283281 248.0715 
L 99.361406 248.0715 
L 99.361406 249.438375 
L 98.283281 249.438375 
L 98.283281 248.0715 
z
M 104.159766 251.38275 
Q 103.293516 251.38275 102.789141 252.059625 
Q 102.284766 252.7365 102.284766 253.914 
Q 102.284766 255.0915 102.785391 255.768375 
Q 103.287891 256.44525 104.159766 256.44525 
Q 105.022266 256.44525 105.524766 255.7665 
Q 106.029141 255.085875 106.029141 253.914 
Q 106.029141 252.74775 105.524766 252.06525 
Q 105.022266 251.38275 104.159766 251.38275 
z
M 104.159766 250.469625 
Q 105.566016 250.469625 106.368516 251.384625 
Q 107.172891 252.29775 107.172891 253.914 
Q 107.172891 255.524625 106.368516 256.443375 
Q 105.566016 257.36025 104.159766 257.36025 
Q 102.747891 257.36025 101.947266 256.443375 
Q 101.148516 255.524625 101.148516 253.914 
Q 101.148516 252.29775 101.947266 251.384625 
Q 102.747891 250.469625 104.159766 250.469625 
z
M 114.415312 253.22775 
L 114.415312 257.189625 
L 113.337187 257.189625 
L 113.337187 253.263375 
Q 113.337187 252.3315 112.973438 251.87025 
Q 112.609688 251.407125 111.884062 251.407125 
Q 111.010312 251.407125 110.505938 251.964 
Q 110.001563 252.519 110.001563 253.480875 
L 110.001563 257.189625 
L 108.917812 257.189625 
L 108.917812 250.627125 
L 110.001563 250.627125 
L 110.001563 251.647125 
Q 110.389688 251.054625 110.912813 250.762125 
Q 111.437813 250.469625 112.124063 250.469625 
Q 113.254688 250.469625 113.834063 251.169 
Q 114.415312 251.868375 114.415312 253.22775 
z
M 127.972734 253.34025 
Q 127.462734 253.34025 127.172109 253.773375 
Q 126.883359 254.2065 126.883359 254.980875 
Q 126.883359 255.742125 127.172109 256.179 
Q 127.462734 256.615875 127.972734 256.615875 
Q 128.471484 256.615875 128.760234 256.179 
Q 129.050859 255.742125 129.050859 254.980875 
Q 129.050859 254.212125 128.760234 253.777125 
Q 128.471484 253.34025 127.972734 253.34025 
z
M 127.972734 252.595875 
Q 128.898984 252.595875 129.442734 253.240875 
Q 129.988359 253.884 129.988359 254.980875 
Q 129.988359 256.075875 129.440859 256.719 
Q 128.893359 257.36025 127.972734 257.36025 
Q 127.035234 257.36025 126.489609 256.719 
Q 125.945859 256.075875 125.945859 254.980875 
Q 125.945859 253.878375 126.493359 253.237125 
Q 127.040859 252.595875 127.972734 252.595875 
z
M 121.925859 249.02775 
Q 121.421484 249.02775 121.130859 249.464625 
Q 120.842109 249.899625 120.842109 250.66275 
Q 120.842109 251.43525 121.128984 251.87025 
Q 121.415859 252.303375 121.925859 252.303375 
Q 122.435859 252.303375 122.724609 251.87025 
Q 123.015234 251.43525 123.015234 250.66275 
Q 123.015234 249.907125 122.722734 249.468375 
Q 122.430234 249.02775 121.925859 249.02775 
z
M 127.217109 248.283375 
L 128.154609 248.283375 
L 122.681484 257.36025 
L 121.743984 257.36025 
L 127.217109 248.283375 
z
M 121.925859 248.283375 
Q 122.852109 248.283375 123.401484 248.924625 
Q 123.952734 249.565875 123.952734 250.66275 
Q 123.952734 251.769 123.405234 252.408375 
Q 122.857734 253.04775 121.925859 253.04775 
Q 120.993984 253.04775 120.452109 252.4065 
Q 119.910234 251.763375 119.910234 250.66275 
Q 119.910234 249.5715 120.453984 248.928375 
Q 120.999609 248.283375 121.925859 248.283375 
z
" style="fill: #ffffff; stroke: #000000; stroke-width: 2"/>
    <path d="M 21.0525 249.607125 
L 19.445625 253.960875 
L 22.663125 253.960875 
L 21.0525 249.607125 
z
M 20.383125 248.440875 
L 21.725625 248.440875 
L 25.059375 257.189625 
L 23.829375 257.189625 
L 23.0325 254.94525 
L 19.089375 254.94525 
L 18.2925 257.189625 
L 17.04375 257.189625 
L 20.383125 248.440875 
z
M 32.677734 249.115875 
L 32.677734 250.36275 
Q 32.079609 249.805875 31.402734 249.532125 
Q 30.725859 249.2565 29.964609 249.2565 
Q 28.464609 249.2565 27.667734 250.173375 
Q 26.870859 251.09025 26.870859 252.824625 
Q 26.870859 254.553375 27.667734 255.47025 
Q 28.464609 256.387125 29.964609 256.387125 
Q 30.725859 256.387125 31.402734 256.1115 
Q 32.079609 255.835875 32.677734 255.279 
L 32.677734 256.5165 
Q 32.057109 256.938375 31.361484 257.15025 
Q 30.667734 257.36025 29.895234 257.36025 
Q 27.907734 257.36025 26.763984 256.14525 
Q 25.622109 254.928375 25.622109 252.824625 
Q 25.622109 250.71525 26.763984 249.50025 
Q 27.907734 248.283375 29.895234 248.283375 
Q 30.678984 248.283375 31.372734 248.4915 
Q 32.068359 248.699625 32.677734 249.115875 
z
M 39.749766 248.72775 
L 39.749766 249.88275 
Q 39.076641 249.56025 38.478516 249.40275 
Q 37.880391 249.243375 37.323516 249.243375 
Q 36.357891 249.243375 35.832891 249.618375 
Q 35.307891 249.993375 35.307891 250.68525 
Q 35.307891 251.2665 35.656641 251.56275 
Q 36.005391 251.857125 36.978516 252.039 
L 37.692891 252.18525 
Q 39.016641 252.438375 39.646641 253.074 
Q 40.276641 253.709625 40.276641 254.774625 
Q 40.276641 256.04775 39.423516 256.704 
Q 38.572266 257.36025 36.926016 257.36025 
Q 36.305391 257.36025 35.604141 257.219625 
Q 34.904766 257.079 34.154766 256.803375 
L 34.154766 255.584625 
Q 34.874766 255.98775 35.566641 256.194 
Q 36.258516 256.398375 36.926016 256.398375 
Q 37.938516 256.398375 38.489766 256.000875 
Q 39.041016 255.6015 39.041016 254.86275 
Q 39.041016 254.219625 38.645391 253.855875 
Q 38.249766 253.492125 37.347891 253.31025 
L 36.626016 253.169625 
Q 35.302266 252.907125 34.709766 252.344625 
Q 34.119141 251.782125 34.119141 250.779 
Q 34.119141 249.618375 34.936641 248.950875 
Q 35.754141 248.283375 37.188516 248.283375 
Q 37.805391 248.283375 38.442891 248.395875 
Q 39.082266 248.5065 39.749766 248.72775 
z
M 42.240703 248.440875 
L 46.886953 248.440875 
L 46.886953 249.438375 
L 43.324453 249.438375 
L 43.324453 251.5815 
Q 43.581328 251.493375 43.838203 251.45025 
Q 44.096953 251.407125 44.355703 251.407125 
Q 45.820078 251.407125 46.675078 252.209625 
Q 47.531953 253.012125 47.531953 254.38275 
Q 47.531953 255.794625 46.652578 256.578375 
Q 45.773203 257.36025 44.173828 257.36025 
Q 43.622578 257.36025 43.050703 257.2665 
Q 42.480703 257.17275 41.871328 256.98525 
L 41.871328 255.794625 
Q 42.398203 256.0815 42.960703 256.222125 
Q 43.523203 256.36275 44.149453 256.36275 
Q 45.163828 256.36275 45.754453 255.83025 
Q 46.346953 255.29775 46.346953 254.38275 
Q 46.346953 253.469625 45.754453 252.937125 
Q 45.163828 252.40275 44.149453 252.40275 
Q 43.675078 252.40275 43.202578 252.50775 
Q 42.731953 252.61275 42.240703 252.835875 
L 42.240703 248.440875 
z
M 54.754922 249.414 
L 54.754922 252.700875 
L 56.243672 252.700875 
Q 57.070547 252.700875 57.520547 252.273375 
Q 57.972422 251.845875 57.972422 251.054625 
Q 57.972422 250.269 57.520547 249.8415 
Q 57.070547 249.414 56.243672 249.414 
L 54.754922 249.414 
z
M 53.571797 248.440875 
L 56.243672 248.440875 
Q 57.715547 248.440875 58.467422 249.1065 
Q 59.221172 249.772125 59.221172 251.054625 
Q 59.221172 252.35025 58.467422 253.012125 
Q 57.715547 253.674 56.243672 253.674 
L 54.754922 253.674 
L 54.754922 257.189625 
L 53.571797 257.189625 
L 53.571797 248.440875 
z
M 62.86875 251.38275 
Q 62.0025 251.38275 61.498125 252.059625 
Q 60.99375 252.7365 60.99375 253.914 
Q 60.99375 255.0915 61.494375 255.768375 
Q 61.996875 256.44525 62.86875 256.44525 
Q 63.73125 256.44525 64.23375 255.7665 
Q 64.738125 255.085875 64.738125 253.914 
Q 64.738125 252.74775 64.23375 252.06525 
Q 63.73125 251.38275 62.86875 251.38275 
z
M 62.86875 250.469625 
Q 64.275 250.469625 65.0775 251.384625 
Q 65.881875 252.29775 65.881875 253.914 
Q 65.881875 255.524625 65.0775 256.443375 
Q 64.275 257.36025 62.86875 257.36025 
Q 61.456875 257.36025 60.65625 256.443375 
Q 59.8575 255.524625 59.8575 253.914 
Q 59.8575 252.29775 60.65625 251.384625 
Q 61.456875 250.469625 62.86875 250.469625 
z
M 68.710547 256.20525 
L 68.710547 259.68525 
L 67.626797 259.68525 
L 67.626797 250.627125 
L 68.710547 250.627125 
L 68.710547 251.62275 
Q 69.051797 251.03775 69.569297 250.754625 
Q 70.088672 250.469625 70.808672 250.469625 
Q 72.004922 250.469625 72.751172 251.418375 
Q 73.499297 252.367125 73.499297 253.914 
Q 73.499297 255.460875 72.751172 256.4115 
Q 72.004922 257.36025 70.808672 257.36025 
Q 70.088672 257.36025 69.569297 257.07525 
Q 69.051797 256.79025 68.710547 256.20525 
z
M 72.379922 253.914 
Q 72.379922 252.72525 71.890547 252.048375 
Q 71.401172 251.3715 70.546172 251.3715 
Q 69.689297 251.3715 69.199922 252.048375 
Q 68.710547 252.72525 68.710547 253.914 
Q 68.710547 255.10275 69.199922 255.779625 
Q 69.689297 256.4565 70.546172 256.4565 
Q 71.401172 256.4565 71.890547 255.779625 
Q 72.379922 255.10275 72.379922 253.914 
z
M 75.174609 254.60025 
L 75.174609 250.627125 
L 76.252734 250.627125 
L 76.252734 254.559 
Q 76.252734 255.490875 76.614609 255.95775 
Q 76.978359 256.42275 77.705859 256.42275 
Q 78.577734 256.42275 79.083984 255.865875 
Q 79.592109 255.309 79.592109 254.347125 
L 79.592109 250.627125 
L 80.670234 250.627125 
L 80.670234 257.189625 
L 79.592109 257.189625 
L 79.592109 256.180875 
Q 79.200234 256.779 78.680859 257.069625 
Q 78.163359 257.36025 77.477109 257.36025 
Q 76.346484 257.36025 75.759609 256.657125 
Q 75.174609 255.954 75.174609 254.60025 
z
M 77.887734 250.469625 
L 77.887734 250.469625 
z
M 82.890703 248.0715 
L 83.968828 248.0715 
L 83.968828 257.189625 
L 82.890703 257.189625 
L 82.890703 248.0715 
z
M 89.207813 253.8915 
Q 87.900937 253.8915 87.396563 254.189625 
Q 86.892188 254.48775 86.892188 255.209625 
Q 86.892188 255.783375 87.270938 256.120875 
Q 87.649687 256.4565 88.298438 256.4565 
Q 89.196562 256.4565 89.738438 255.820875 
Q 90.280313 255.18525 90.280313 254.1315 
L 90.280313 253.8915 
L 89.207813 253.8915 
z
M 91.358438 253.44525 
L 91.358438 257.189625 
L 90.280313 257.189625 
L 90.280313 256.194 
Q 89.910938 256.79025 89.359688 257.07525 
Q 88.808437 257.36025 88.011562 257.36025 
Q 87.004688 257.36025 86.408438 256.794 
Q 85.814063 256.22775 85.814063 255.279 
Q 85.814063 254.17275 86.554688 253.61025 
Q 87.297188 253.04775 88.767188 253.04775 
L 90.280313 253.04775 
L 90.280313 252.940875 
Q 90.280313 252.1965 89.790938 251.789625 
Q 89.301563 251.38275 88.416562 251.38275 
Q 87.854062 251.38275 87.319688 251.51775 
Q 86.787188 251.65275 86.295938 251.92275 
L 86.295938 250.92525 
Q 86.886562 250.6965 87.443438 250.584 
Q 88.000313 250.469625 88.527187 250.469625 
Q 89.952188 250.469625 90.655313 251.208375 
Q 91.358438 251.94525 91.358438 253.44525 
z
M 94.645078 248.763375 
L 94.645078 250.627125 
L 96.865078 250.627125 
L 96.865078 251.46525 
L 94.645078 251.46525 
L 94.645078 255.02775 
Q 94.645078 255.83025 94.864453 256.059 
Q 95.083828 256.28775 95.758828 256.28775 
L 96.865078 256.28775 
L 96.865078 257.189625 
L 95.758828 257.189625 
Q 94.510078 257.189625 94.035703 256.724625 
Q 93.561328 256.25775 93.561328 255.02775 
L 93.561328 251.46525 
L 92.770078 251.46525 
L 92.770078 250.627125 
L 93.561328 250.627125 
L 93.561328 248.763375 
L 94.645078 248.763375 
z
M 98.283281 250.627125 
L 99.361406 250.627125 
L 99.361406 257.189625 
L 98.283281 257.189625 
L 98.283281 250.627125 
z
M 98.283281 248.0715 
L 99.361406 248.0715 
L 99.361406 249.438375 
L 98.283281 249.438375 
L 98.283281 248.0715 
z
M 104.159766 251.38275 
Q 103.293516 251.38275 102.789141 252.059625 
Q 102.284766 252.7365 102.284766 253.914 
Q 102.284766 255.0915 102.785391 255.768375 
Q 103.287891 256.44525 104.159766 256.44525 
Q 105.022266 256.44525 105.524766 255.7665 
Q 106.029141 255.085875 106.029141 253.914 
Q 106.029141 252.74775 105.524766 252.06525 
Q 105.022266 251.38275 104.159766 251.38275 
z
M 104.159766 250.469625 
Q 105.566016 250.469625 106.368516 251.384625 
Q 107.172891 252.29775 107.172891 253.914 
Q 107.172891 255.524625 106.368516 256.443375 
Q 105.566016 257.36025 104.159766 257.36025 
Q 102.747891 257.36025 101.947266 256.443375 
Q 101.148516 255.524625 101.148516 253.914 
Q 101.148516 252.29775 101.947266 251.384625 
Q 102.747891 250.469625 104.159766 250.469625 
z
M 114.415312 253.22775 
L 114.415312 257.189625 
L 113.337187 257.189625 
L 113.337187 253.263375 
Q 113.337187 252.3315 112.973438 251.87025 
Q 112.609688 251.407125 111.884062 251.407125 
Q 111.010312 251.407125 110.505938 251.964 
Q 110.001563 252.519 110.001563 253.480875 
L 110.001563 257.189625 
L 108.917812 257.189625 
L 108.917812 250.627125 
L 110.001563 250.627125 
L 110.001563 251.647125 
Q 110.389688 251.054625 110.912813 250.762125 
Q 111.437813 250.469625 112.124063 250.469625 
Q 113.254688 250.469625 113.834063 251.169 
Q 114.415312 251.868375 114.415312 253.22775 
z
M 127.972734 253.34025 
Q 127.462734 253.34025 127.172109 253.773375 
Q 126.883359 254.2065 126.883359 254.980875 
Q 126.883359 255.742125 127.172109 256.179 
Q 127.462734 256.615875 127.972734 256.615875 
Q 128.471484 256.615875 128.760234 256.179 
Q 129.050859 255.742125 129.050859 254.980875 
Q 129.050859 254.212125 128.760234 253.777125 
Q 128.471484 253.34025 127.972734 253.34025 
z
M 127.972734 252.595875 
Q 128.898984 252.595875 129.442734 253.240875 
Q 129.988359 253.884 129.988359 254.980875 
Q 129.988359 256.075875 129.440859 256.719 
Q 128.893359 257.36025 127.972734 257.36025 
Q 127.035234 257.36025 126.489609 256.719 
Q 125.945859 256.075875 125.945859 254.980875 
Q 125.945859 253.878375 126.493359 253.237125 
Q 127.040859 252.595875 127.972734 252.595875 
z
M 121.925859 249.02775 
Q 121.421484 249.02775 121.130859 249.464625 
Q 120.842109 249.899625 120.842109 250.66275 
Q 120.842109 251.43525 121.128984 251.87025 
Q 121.415859 252.303375 121.925859 252.303375 
Q 122.435859 252.303375 122.724609 251.87025 
Q 123.015234 251.43525 123.015234 250.66275 
Q 123.015234 249.907125 122.722734 249.468375 
Q 122.430234 249.02775 121.925859 249.02775 
z
M 127.217109 248.283375 
L 128.154609 248.283375 
L 122.681484 257.36025 
L 121.743984 257.36025 
L 127.217109 248.283375 
z
M 121.925859 248.283375 
Q 122.852109 248.283375 123.401484 248.924625 
Q 123.952734 249.565875 123.952734 250.66275 
Q 123.952734 251.769 123.405234 252.408375 
Q 122.857734 253.04775 121.925859 253.04775 
Q 120.993984 253.04775 120.452109 252.4065 
Q 119.910234 251.763375 119.910234 250.66275 
Q 119.910234 249.5715 120.453984 248.928375 
Q 120.999609 248.283375 121.925859 248.283375 
z
" style="fill: #ffffff"/>
    <path d="M 17.35125 269.37825 
L 17.35125 267.028875 
L 15.418125 267.028875 
L 15.418125 266.05575 
L 18.523125 266.05575 
L 18.523125 269.81325 
Q 17.83875 270.298875 17.011875 270.54825 
Q 16.186875 270.797625 15.249375 270.797625 
Q 13.198125 270.797625 12.039375 269.5995 
Q 10.8825 268.3995 10.8825 266.262 
Q 10.8825 264.117 12.039375 262.918875 
Q 13.198125 261.72075 15.249375 261.72075 
Q 16.104375 261.72075 16.875 261.932625 
Q 17.645625 262.142625 18.29625 262.55325 
L 18.29625 263.81325 
Q 17.64 263.256375 16.90125 262.975125 
Q 16.1625 262.693875 15.34875 262.693875 
Q 13.741875 262.693875 12.935625 263.590125 
Q 12.13125 264.486375 12.13125 266.262 
Q 12.13125 268.032 12.935625 268.92825 
Q 13.741875 269.8245 15.34875 269.8245 
Q 15.975 269.8245 16.46625 269.71575 
Q 16.959375 269.607 17.35125 269.37825 
z
M 24.441328 265.071375 
Q 24.259453 264.966375 24.045703 264.917625 
Q 23.831953 264.867 23.575078 264.867 
Q 22.660078 264.867 22.170703 265.461375 
Q 21.681328 266.05575 21.681328 267.1695 
L 21.681328 270.627 
L 20.597578 270.627 
L 20.597578 264.0645 
L 21.681328 264.0645 
L 21.681328 265.0845 
Q 22.022578 264.486375 22.566328 264.197625 
Q 23.111953 263.907 23.891953 263.907 
Q 24.002578 263.907 24.137578 263.922 
Q 24.272578 263.935125 24.435703 263.965125 
L 24.441328 265.071375 
z
M 27.844922 264.820125 
Q 26.978672 264.820125 26.474297 265.497 
Q 25.969922 266.173875 25.969922 267.351375 
Q 25.969922 268.528875 26.470547 269.20575 
Q 26.973047 269.882625 27.844922 269.882625 
Q 28.707422 269.882625 29.209922 269.203875 
Q 29.714297 268.52325 29.714297 267.351375 
Q 29.714297 266.185125 29.209922 265.502625 
Q 28.707422 264.820125 27.844922 264.820125 
z
M 27.844922 263.907 
Q 29.251172 263.907 30.053672 264.822 
Q 30.858047 265.735125 30.858047 267.351375 
Q 30.858047 268.962 30.053672 269.88075 
Q 29.251172 270.797625 27.844922 270.797625 
Q 26.433047 270.797625 25.632422 269.88075 
Q 24.833672 268.962 24.833672 267.351375 
Q 24.833672 265.735125 25.632422 264.822 
Q 26.433047 263.907 27.844922 263.907 
z
M 32.017969 264.0645 
L 33.096094 264.0645 
L 34.444219 269.185125 
L 35.784844 264.0645 
L 37.056094 264.0645 
L 38.404219 269.185125 
L 39.746719 264.0645 
L 40.824844 264.0645 
L 39.107344 270.627 
L 37.836094 270.627 
L 36.424219 265.247625 
L 35.006719 270.627 
L 33.733594 270.627 
L 32.017969 264.0645 
z
M 43.525547 262.20075 
L 43.525547 264.0645 
L 45.745547 264.0645 
L 45.745547 264.902625 
L 43.525547 264.902625 
L 43.525547 268.465125 
Q 43.525547 269.267625 43.744922 269.496375 
Q 43.964297 269.725125 44.639297 269.725125 
L 45.745547 269.725125 
L 45.745547 270.627 
L 44.639297 270.627 
Q 43.390547 270.627 42.916172 270.162 
Q 42.441797 269.695125 42.441797 268.465125 
L 42.441797 264.902625 
L 41.650547 264.902625 
L 41.650547 264.0645 
L 42.441797 264.0645 
L 42.441797 262.20075 
L 43.525547 262.20075 
z
M 52.62 266.665125 
L 52.62 270.627 
L 51.541875 270.627 
L 51.541875 266.70075 
Q 51.541875 265.768875 51.178125 265.307625 
Q 50.814375 264.8445 50.08875 264.8445 
Q 49.215 264.8445 48.710625 265.401375 
Q 48.20625 265.956375 48.20625 266.91825 
L 48.20625 270.627 
L 47.1225 270.627 
L 47.1225 261.508875 
L 48.20625 261.508875 
L 48.20625 265.0845 
Q 48.594375 264.492 49.1175 264.1995 
Q 49.6425 263.907 50.32875 263.907 
Q 51.459375 263.907 52.03875 264.606375 
Q 52.62 265.30575 52.62 266.665125 
z
M 58.630547 261.87825 
L 63.657422 261.87825 
L 63.657422 262.87575 
L 59.813672 262.87575 
L 59.813672 265.453875 
L 63.282422 265.453875 
L 63.282422 266.4495 
L 59.813672 266.4495 
L 59.813672 270.627 
L 58.630547 270.627 
L 58.630547 261.87825 
z
M 68.418516 265.071375 
Q 68.236641 264.966375 68.022891 264.917625 
Q 67.809141 264.867 67.552266 264.867 
Q 66.637266 264.867 66.147891 265.461375 
Q 65.658516 266.05575 65.658516 267.1695 
L 65.658516 270.627 
L 64.574766 270.627 
L 64.574766 264.0645 
L 65.658516 264.0645 
L 65.658516 265.0845 
Q 65.999766 264.486375 66.543516 264.197625 
Q 67.089141 263.907 67.869141 263.907 
Q 67.979766 263.907 68.114766 263.922 
Q 68.249766 263.935125 68.412891 263.965125 
L 68.418516 265.071375 
z
M 71.822109 264.820125 
Q 70.955859 264.820125 70.451484 265.497 
Q 69.947109 266.173875 69.947109 267.351375 
Q 69.947109 268.528875 70.447734 269.20575 
Q 70.950234 269.882625 71.822109 269.882625 
Q 72.684609 269.882625 73.187109 269.203875 
Q 73.691484 268.52325 73.691484 267.351375 
Q 73.691484 266.185125 73.187109 265.502625 
Q 72.684609 264.820125 71.822109 264.820125 
z
M 71.822109 263.907 
Q 73.228359 263.907 74.030859 264.822 
Q 74.835234 265.735125 74.835234 267.351375 
Q 74.835234 268.962 74.030859 269.88075 
Q 73.228359 270.797625 71.822109 270.797625 
Q 70.410234 270.797625 69.609609 269.88075 
Q 68.810859 268.962 68.810859 267.351375 
Q 68.810859 265.735125 69.609609 264.822 
Q 70.410234 263.907 71.822109 263.907 
z
M 81.730781 265.3245 
Q 82.135781 264.597 82.698281 264.252 
Q 83.260781 263.907 84.022031 263.907 
Q 85.047656 263.907 85.604531 264.625125 
Q 86.161406 265.341375 86.161406 266.665125 
L 86.161406 270.627 
L 85.077656 270.627 
L 85.077656 266.70075 
Q 85.077656 265.757625 84.742031 265.302 
Q 84.408281 264.8445 83.723906 264.8445 
Q 82.885781 264.8445 82.398281 265.401375 
Q 81.912656 265.956375 81.912656 266.91825 
L 81.912656 270.627 
L 80.828906 270.627 
L 80.828906 266.70075 
Q 80.828906 265.752 80.495156 265.29825 
Q 80.161406 264.8445 79.463906 264.8445 
Q 78.637031 264.8445 78.149531 265.40325 
Q 77.663906 265.962 77.663906 266.91825 
L 77.663906 270.627 
L 76.580156 270.627 
L 76.580156 264.0645 
L 77.663906 264.0645 
L 77.663906 265.0845 
Q 78.033281 264.48075 78.548906 264.193875 
Q 79.064531 263.907 79.773281 263.907 
Q 80.489531 263.907 80.990156 264.27075 
Q 81.490781 264.632625 81.730781 265.3245 
z
M 93.297188 269.631375 
L 97.427813 269.631375 
L 97.427813 270.627 
L 91.874063 270.627 
L 91.874063 269.631375 
Q 92.547188 268.933875 93.709688 267.760125 
Q 94.874063 266.5845 95.172188 266.24325 
Q 95.740313 265.60575 95.965313 265.16325 
Q 96.192188 264.72075 96.192188 264.29325 
Q 96.192188 263.59575 95.702813 263.157 
Q 95.213438 262.716375 94.427813 262.716375 
Q 93.870938 262.716375 93.252188 262.9095 
Q 92.635313 263.102625 91.932188 263.496375 
L 91.932188 262.300125 
Q 92.646563 262.01325 93.267188 261.867 
Q 93.889688 261.72075 94.405313 261.72075 
Q 95.764688 261.72075 96.572813 262.401375 
Q 97.380938 263.080125 97.380938 264.216375 
Q 97.380938 264.756375 97.178438 265.240125 
Q 96.977812 265.722 96.443438 266.37825 
Q 96.297188 266.548875 95.511563 267.36075 
Q 94.727812 268.172625 93.297188 269.631375 
z
M 102.443203 262.65825 
Q 101.530078 262.65825 101.068828 263.55825 
Q 100.609453 264.456375 100.609453 266.262 
Q 100.609453 268.060125 101.068828 268.960125 
Q 101.530078 269.860125 102.443203 269.860125 
Q 103.363828 269.860125 103.823203 268.960125 
Q 104.284453 268.060125 104.284453 266.262 
Q 104.284453 264.456375 103.823203 263.55825 
Q 103.363828 262.65825 102.443203 262.65825 
z
M 102.443203 261.72075 
Q 103.915078 261.72075 104.691328 262.885125 
Q 105.467578 264.047625 105.467578 266.262 
Q 105.467578 268.47075 104.691328 269.635125 
Q 103.915078 270.797625 102.443203 270.797625 
Q 100.973203 270.797625 100.196953 269.635125 
Q 99.420703 268.47075 99.420703 266.262 
Q 99.420703 264.047625 100.196953 262.885125 
Q 100.973203 261.72075 102.443203 261.72075 
z
M 107.752969 269.631375 
L 109.686094 269.631375 
L 109.686094 262.956375 
L 107.582344 263.37825 
L 107.582344 262.300125 
L 109.674844 261.87825 
L 110.857969 261.87825 
L 110.857969 269.631375 
L 112.791094 269.631375 
L 112.791094 270.627 
L 107.752969 270.627 
L 107.752969 269.631375 
z
M 115.194609 261.87825 
L 119.840859 261.87825 
L 119.840859 262.87575 
L 116.278359 262.87575 
L 116.278359 265.018875 
Q 116.535234 264.93075 116.792109 264.887625 
Q 117.050859 264.8445 117.309609 264.8445 
Q 118.773984 264.8445 119.628984 265.647 
Q 120.485859 266.4495 120.485859 267.820125 
Q 120.485859 269.232 119.606484 270.01575 
Q 118.727109 270.797625 117.127734 270.797625 
Q 116.576484 270.797625 116.004609 270.703875 
Q 115.434609 270.610125 114.825234 270.422625 
L 114.825234 269.232 
Q 115.352109 269.518875 115.914609 269.6595 
Q 116.477109 269.800125 117.103359 269.800125 
Q 118.117734 269.800125 118.708359 269.267625 
Q 119.300859 268.735125 119.300859 267.820125 
Q 119.300859 266.907 118.708359 266.3745 
Q 118.117734 265.840125 117.103359 265.840125 
Q 116.628984 265.840125 116.156484 265.945125 
Q 115.685859 266.050125 115.194609 266.27325 
L 115.194609 261.87825 
z
M 127.545703 262.20075 
L 127.545703 264.0645 
L 129.765703 264.0645 
L 129.765703 264.902625 
L 127.545703 264.902625 
L 127.545703 268.465125 
Q 127.545703 269.267625 127.765078 269.496375 
Q 127.984453 269.725125 128.659453 269.725125 
L 129.765703 269.725125 
L 129.765703 270.627 
L 128.659453 270.627 
Q 127.410703 270.627 126.936328 270.162 
Q 126.461953 269.695125 126.461953 268.465125 
L 126.461953 264.902625 
L 125.670703 264.902625 
L 125.670703 264.0645 
L 126.461953 264.0645 
L 126.461953 262.20075 
L 127.545703 262.20075 
z
M 133.726406 264.820125 
Q 132.860156 264.820125 132.355781 265.497 
Q 131.851406 266.173875 131.851406 267.351375 
Q 131.851406 268.528875 132.352031 269.20575 
Q 132.854531 269.882625 133.726406 269.882625 
Q 134.588906 269.882625 135.091406 269.203875 
Q 135.595781 268.52325 135.595781 267.351375 
Q 135.595781 266.185125 135.091406 265.502625 
Q 134.588906 264.820125 133.726406 264.820125 
z
M 133.726406 263.907 
Q 135.132656 263.907 135.935156 264.822 
Q 136.739531 265.735125 136.739531 267.351375 
Q 136.739531 268.962 135.935156 269.88075 
Q 135.132656 270.797625 133.726406 270.797625 
Q 132.314531 270.797625 131.513906 269.88075 
Q 130.715156 268.962 130.715156 267.351375 
Q 130.715156 265.735125 131.513906 264.822 
Q 132.314531 263.907 133.726406 263.907 
z
" style="fill: #ffffff; stroke: #000000; stroke-width: 2"/>
    <path d="M 17.35125 269.37825 
L 17.35125 267.028875 
L 15.418125 267.028875 
L 15.418125 266.05575 
L 18.523125 266.05575 
L 18.523125 269.81325 
Q 17.83875 270.298875 17.011875 270.54825 
Q 16.186875 270.797625 15.249375 270.797625 
Q 13.198125 270.797625 12.039375 269.5995 
Q 10.8825 268.3995 10.8825 266.262 
Q 10.8825 264.117 12.039375 262.918875 
Q 13.198125 261.72075 15.249375 261.72075 
Q 16.104375 261.72075 16.875 261.932625 
Q 17.645625 262.142625 18.29625 262.55325 
L 18.29625 263.81325 
Q 17.64 263.256375 16.90125 262.975125 
Q 16.1625 262.693875 15.34875 262.693875 
Q 13.741875 262.693875 12.935625 263.590125 
Q 12.13125 264.486375 12.13125 266.262 
Q 12.13125 268.032 12.935625 268.92825 
Q 13.741875 269.8245 15.34875 269.8245 
Q 15.975 269.8245 16.46625 269.71575 
Q 16.959375 269.607 17.35125 269.37825 
z
M 24.441328 265.071375 
Q 24.259453 264.966375 24.045703 264.917625 
Q 23.831953 264.867 23.575078 264.867 
Q 22.660078 264.867 22.170703 265.461375 
Q 21.681328 266.05575 21.681328 267.1695 
L 21.681328 270.627 
L 20.597578 270.627 
L 20.597578 264.0645 
L 21.681328 264.0645 
L 21.681328 265.0845 
Q 22.022578 264.486375 22.566328 264.197625 
Q 23.111953 263.907 23.891953 263.907 
Q 24.002578 263.907 24.137578 263.922 
Q 24.272578 263.935125 24.435703 263.965125 
L 24.441328 265.071375 
z
M 27.844922 264.820125 
Q 26.978672 264.820125 26.474297 265.497 
Q 25.969922 266.173875 25.969922 267.351375 
Q 25.969922 268.528875 26.470547 269.20575 
Q 26.973047 269.882625 27.844922 269.882625 
Q 28.707422 269.882625 29.209922 269.203875 
Q 29.714297 268.52325 29.714297 267.351375 
Q 29.714297 266.185125 29.209922 265.502625 
Q 28.707422 264.820125 27.844922 264.820125 
z
M 27.844922 263.907 
Q 29.251172 263.907 30.053672 264.822 
Q 30.858047 265.735125 30.858047 267.351375 
Q 30.858047 268.962 30.053672 269.88075 
Q 29.251172 270.797625 27.844922 270.797625 
Q 26.433047 270.797625 25.632422 269.88075 
Q 24.833672 268.962 24.833672 267.351375 
Q 24.833672 265.735125 25.632422 264.822 
Q 26.433047 263.907 27.844922 263.907 
z
M 32.017969 264.0645 
L 33.096094 264.0645 
L 34.444219 269.185125 
L 35.784844 264.0645 
L 37.056094 264.0645 
L 38.404219 269.185125 
L 39.746719 264.0645 
L 40.824844 264.0645 
L 39.107344 270.627 
L 37.836094 270.627 
L 36.424219 265.247625 
L 35.006719 270.627 
L 33.733594 270.627 
L 32.017969 264.0645 
z
M 43.525547 262.20075 
L 43.525547 264.0645 
L 45.745547 264.0645 
L 45.745547 264.902625 
L 43.525547 264.902625 
L 43.525547 268.465125 
Q 43.525547 269.267625 43.744922 269.496375 
Q 43.964297 269.725125 44.639297 269.725125 
L 45.745547 269.725125 
L 45.745547 270.627 
L 44.639297 270.627 
Q 43.390547 270.627 42.916172 270.162 
Q 42.441797 269.695125 42.441797 268.465125 
L 42.441797 264.902625 
L 41.650547 264.902625 
L 41.650547 264.0645 
L 42.441797 264.0645 
L 42.441797 262.20075 
L 43.525547 262.20075 
z
M 52.62 266.665125 
L 52.62 270.627 
L 51.541875 270.627 
L 51.541875 266.70075 
Q 51.541875 265.768875 51.178125 265.307625 
Q 50.814375 264.8445 50.08875 264.8445 
Q 49.215 264.8445 48.710625 265.401375 
Q 48.20625 265.956375 48.20625 266.91825 
L 48.20625 270.627 
L 47.1225 270.627 
L 47.1225 261.508875 
L 48.20625 261.508875 
L 48.20625 265.0845 
Q 48.594375 264.492 49.1175 264.1995 
Q 49.6425 263.907 50.32875 263.907 
Q 51.459375 263.907 52.03875 264.606375 
Q 52.62 265.30575 52.62 266.665125 
z
M 58.630547 261.87825 
L 63.657422 261.87825 
L 63.657422 262.87575 
L 59.813672 262.87575 
L 59.813672 265.453875 
L 63.282422 265.453875 
L 63.282422 266.4495 
L 59.813672 266.4495 
L 59.813672 270.627 
L 58.630547 270.627 
L 58.630547 261.87825 
z
M 68.418516 265.071375 
Q 68.236641 264.966375 68.022891 264.917625 
Q 67.809141 264.867 67.552266 264.867 
Q 66.637266 264.867 66.147891 265.461375 
Q 65.658516 266.05575 65.658516 267.1695 
L 65.658516 270.627 
L 64.574766 270.627 
L 64.574766 264.0645 
L 65.658516 264.0645 
L 65.658516 265.0845 
Q 65.999766 264.486375 66.543516 264.197625 
Q 67.089141 263.907 67.869141 263.907 
Q 67.979766 263.907 68.114766 263.922 
Q 68.249766 263.935125 68.412891 263.965125 
L 68.418516 265.071375 
z
M 71.822109 264.820125 
Q 70.955859 264.820125 70.451484 265.497 
Q 69.947109 266.173875 69.947109 267.351375 
Q 69.947109 268.528875 70.447734 269.20575 
Q 70.950234 269.882625 71.822109 269.882625 
Q 72.684609 269.882625 73.187109 269.203875 
Q 73.691484 268.52325 73.691484 267.351375 
Q 73.691484 266.185125 73.187109 265.502625 
Q 72.684609 264.820125 71.822109 264.820125 
z
M 71.822109 263.907 
Q 73.228359 263.907 74.030859 264.822 
Q 74.835234 265.735125 74.835234 267.351375 
Q 74.835234 268.962 74.030859 269.88075 
Q 73.228359 270.797625 71.822109 270.797625 
Q 70.410234 270.797625 69.609609 269.88075 
Q 68.810859 268.962 68.810859 267.351375 
Q 68.810859 265.735125 69.609609 264.822 
Q 70.410234 263.907 71.822109 263.907 
z
M 81.730781 265.3245 
Q 82.135781 264.597 82.698281 264.252 
Q 83.260781 263.907 84.022031 263.907 
Q 85.047656 263.907 85.604531 264.625125 
Q 86.161406 265.341375 86.161406 266.665125 
L 86.161406 270.627 
L 85.077656 270.627 
L 85.077656 266.70075 
Q 85.077656 265.757625 84.742031 265.302 
Q 84.408281 264.8445 83.723906 264.8445 
Q 82.885781 264.8445 82.398281 265.401375 
Q 81.912656 265.956375 81.912656 266.91825 
L 81.912656 270.627 
L 80.828906 270.627 
L 80.828906 266.70075 
Q 80.828906 265.752 80.495156 265.29825 
Q 80.161406 264.8445 79.463906 264.8445 
Q 78.637031 264.8445 78.149531 265.40325 
Q 77.663906 265.962 77.663906 266.91825 
L 77.663906 270.627 
L 76.580156 270.627 
L 76.580156 264.0645 
L 77.663906 264.0645 
L 77.663906 265.0845 
Q 78.033281 264.48075 78.548906 264.193875 
Q 79.064531 263.907 79.773281 263.907 
Q 80.489531 263.907 80.990156 264.27075 
Q 81.490781 264.632625 81.730781 265.3245 
z
M 93.297188 269.631375 
L 97.427813 269.631375 
L 97.427813 270.627 
L 91.874063 270.627 
L 91.874063 269.631375 
Q 92.547188 268.933875 93.709688 267.760125 
Q 94.874063 266.5845 95.172188 266.24325 
Q 95.740313 265.60575 95.965313 265.16325 
Q 96.192188 264.72075 96.192188 264.29325 
Q 96.192188 263.59575 95.702813 263.157 
Q 95.213438 262.716375 94.427813 262.716375 
Q 93.870938 262.716375 93.252188 262.9095 
Q 92.635313 263.102625 91.932188 263.496375 
L 91.932188 262.300125 
Q 92.646563 262.01325 93.267188 261.867 
Q 93.889688 261.72075 94.405313 261.72075 
Q 95.764688 261.72075 96.572813 262.401375 
Q 97.380938 263.080125 97.380938 264.216375 
Q 97.380938 264.756375 97.178438 265.240125 
Q 96.977812 265.722 96.443438 266.37825 
Q 96.297188 266.548875 95.511563 267.36075 
Q 94.727812 268.172625 93.297188 269.631375 
z
M 102.443203 262.65825 
Q 101.530078 262.65825 101.068828 263.55825 
Q 100.609453 264.456375 100.609453 266.262 
Q 100.609453 268.060125 101.068828 268.960125 
Q 101.530078 269.860125 102.443203 269.860125 
Q 103.363828 269.860125 103.823203 268.960125 
Q 104.284453 268.060125 104.284453 266.262 
Q 104.284453 264.456375 103.823203 263.55825 
Q 103.363828 262.65825 102.443203 262.65825 
z
M 102.443203 261.72075 
Q 103.915078 261.72075 104.691328 262.885125 
Q 105.467578 264.047625 105.467578 266.262 
Q 105.467578 268.47075 104.691328 269.635125 
Q 103.915078 270.797625 102.443203 270.797625 
Q 100.973203 270.797625 100.196953 269.635125 
Q 99.420703 268.47075 99.420703 266.262 
Q 99.420703 264.047625 100.196953 262.885125 
Q 100.973203 261.72075 102.443203 261.72075 
z
M 107.752969 269.631375 
L 109.686094 269.631375 
L 109.686094 262.956375 
L 107.582344 263.37825 
L 107.582344 262.300125 
L 109.674844 261.87825 
L 110.857969 261.87825 
L 110.857969 269.631375 
L 112.791094 269.631375 
L 112.791094 270.627 
L 107.752969 270.627 
L 107.752969 269.631375 
z
M 115.194609 261.87825 
L 119.840859 261.87825 
L 119.840859 262.87575 
L 116.278359 262.87575 
L 116.278359 265.018875 
Q 116.535234 264.93075 116.792109 264.887625 
Q 117.050859 264.8445 117.309609 264.8445 
Q 118.773984 264.8445 119.628984 265.647 
Q 120.485859 266.4495 120.485859 267.820125 
Q 120.485859 269.232 119.606484 270.01575 
Q 118.727109 270.797625 117.127734 270.797625 
Q 116.576484 270.797625 116.004609 270.703875 
Q 115.434609 270.610125 114.825234 270.422625 
L 114.825234 269.232 
Q 115.352109 269.518875 115.914609 269.6595 
Q 116.477109 269.800125 117.103359 269.800125 
Q 118.117734 269.800125 118.708359 269.267625 
Q 119.300859 268.735125 119.300859 267.820125 
Q 119.300859 266.907 118.708359 266.3745 
Q 118.117734 265.840125 117.103359 265.840125 
Q 116.628984 265.840125 116.156484 265.945125 
Q 115.685859 266.050125 115.194609 266.27325 
L 115.194609 261.87825 
z
M 127.545703 262.20075 
L 127.545703 264.0645 
L 129.765703 264.0645 
L 129.765703 264.902625 
L 127.545703 264.902625 
L 127.545703 268.465125 
Q 127.545703 269.267625 127.765078 269.496375 
Q 127.984453 269.725125 128.659453 269.725125 
L 129.765703 269.725125 
L 129.765703 270.627 
L 128.659453 270.627 
Q 127.410703 270.627 126.936328 270.162 
Q 126.461953 269.695125 126.461953 268.465125 
L 126.461953 264.902625 
L 125.670703 264.902625 
L 125.670703 264.0645 
L 126.461953 264.0645 
L 126.461953 262.20075 
L 127.545703 262.20075 
z
M 133.726406 264.820125 
Q 132.860156 264.820125 132.355781 265.497 
Q 131.851406 266.173875 131.851406 267.351375 
Q 131.851406 268.528875 132.352031 269.20575 
Q 132.854531 269.882625 133.726406 269.882625 
Q 134.588906 269.882625 135.091406 269.203875 
Q 135.595781 268.52325 135.595781 267.351375 
Q 135.595781 266.185125 135.091406 265.502625 
Q 134.588906 264.820125 133.726406 264.820125 
z
M 133.726406 263.907 
Q 135.132656 263.907 135.935156 264.822 
Q 136.739531 265.735125 136.739531 267.351375 
Q 136.739531 268.962 135.935156 269.88075 
Q 135.132656 270.797625 133.726406 270.797625 
Q 132.314531 270.797625 131.513906 269.88075 
Q 130.715156 268.962 130.715156 267.351375 
Q 130.715156 265.735125 131.513906 264.822 
Q 132.314531 263.907 133.726406 263.907 
z
" style="fill: #ffffff"/>
    <path d="M 60.8325 283.06875 
L 64.963125 283.06875 
L 64.963125 284.064375 
L 59.409375 284.064375 
L 59.409375 283.06875 
Q 60.0825 282.37125 61.245 281.1975 
Q 62.409375 280.021875 62.7075 279.680625 
Q 63.275625 279.043125 63.500625 278.600625 
Q 63.7275 278.158125 63.7275 277.730625 
Q 63.7275 277.033125 63.238125 276.594375 
Q 62.74875 276.15375 61.963125 276.15375 
Q 61.40625 276.15375 60.7875 276.346875 
Q 60.170625 276.54 59.4675 276.93375 
L 59.4675 275.7375 
Q 60.181875 275.450625 60.8025 275.304375 
Q 61.425 275.158125 61.940625 275.158125 
Q 63.3 275.158125 64.108125 275.83875 
Q 64.91625 276.5175 64.91625 277.65375 
Q 64.91625 278.19375 64.71375 278.6775 
Q 64.513125 279.159375 63.97875 279.815625 
Q 63.8325 279.98625 63.046875 280.798125 
Q 62.263125 281.61 60.8325 283.06875 
z
M 69.978516 276.095625 
Q 69.065391 276.095625 68.604141 276.995625 
Q 68.144766 277.89375 68.144766 279.699375 
Q 68.144766 281.4975 68.604141 282.3975 
Q 69.065391 283.2975 69.978516 283.2975 
Q 70.899141 283.2975 71.358516 282.3975 
Q 71.819766 281.4975 71.819766 279.699375 
Q 71.819766 277.89375 71.358516 276.995625 
Q 70.899141 276.095625 69.978516 276.095625 
z
M 69.978516 275.158125 
Q 71.450391 275.158125 72.226641 276.3225 
Q 73.002891 277.485 73.002891 279.699375 
Q 73.002891 281.908125 72.226641 283.0725 
Q 71.450391 284.235 69.978516 284.235 
Q 68.508516 284.235 67.732266 283.0725 
Q 66.956016 281.908125 66.956016 279.699375 
Q 66.956016 277.485 67.732266 276.3225 
Q 68.508516 275.158125 69.978516 275.158125 
z
M 76.102031 283.06875 
L 80.232656 283.06875 
L 80.232656 284.064375 
L 74.678906 284.064375 
L 74.678906 283.06875 
Q 75.352031 282.37125 76.514531 281.1975 
Q 77.678906 280.021875 77.977031 279.680625 
Q 78.545156 279.043125 78.770156 278.600625 
Q 78.997031 278.158125 78.997031 277.730625 
Q 78.997031 277.033125 78.507656 276.594375 
Q 78.018281 276.15375 77.232656 276.15375 
Q 76.675781 276.15375 76.057031 276.346875 
Q 75.440156 276.54 74.737031 276.93375 
L 74.737031 275.7375 
Q 75.451406 275.450625 76.072031 275.304375 
Q 76.694531 275.158125 77.210156 275.158125 
Q 78.569531 275.158125 79.377656 275.83875 
Q 80.185781 276.5175 80.185781 277.65375 
Q 80.185781 278.19375 79.983281 278.6775 
Q 79.782656 279.159375 79.248281 279.815625 
Q 79.102031 279.98625 78.316406 280.798125 
Q 77.532656 281.61 76.102031 283.06875 
z
M 85.248047 276.095625 
Q 84.334922 276.095625 83.873672 276.995625 
Q 83.414297 277.89375 83.414297 279.699375 
Q 83.414297 281.4975 83.873672 282.3975 
Q 84.334922 283.2975 85.248047 283.2975 
Q 86.168672 283.2975 86.628047 282.3975 
Q 87.089297 281.4975 87.089297 279.699375 
Q 87.089297 277.89375 86.628047 276.995625 
Q 86.168672 276.095625 85.248047 276.095625 
z
M 85.248047 275.158125 
Q 86.719922 275.158125 87.496172 276.3225 
Q 88.272422 277.485 88.272422 279.699375 
Q 88.272422 281.908125 87.496172 283.0725 
Q 86.719922 284.235 85.248047 284.235 
Q 83.778047 284.235 83.001797 283.0725 
Q 82.225547 281.908125 82.225547 279.699375 
Q 82.225547 277.485 83.001797 276.3225 
Q 83.778047 275.158125 85.248047 275.158125 
z
" style="fill: #ffffff; stroke: #000000; stroke-width: 2"/>
    <path d="M 60.8325 283.06875 
L 64.963125 283.06875 
L 64.963125 284.064375 
L 59.409375 284.064375 
L 59.409375 283.06875 
Q 60.0825 282.37125 61.245 281.1975 
Q 62.409375 280.021875 62.7075 279.680625 
Q 63.275625 279.043125 63.500625 278.600625 
Q 63.7275 278.158125 63.7275 277.730625 
Q 63.7275 277.033125 63.238125 276.594375 
Q 62.74875 276.15375 61.963125 276.15375 
Q 61.40625 276.15375 60.7875 276.346875 
Q 60.170625 276.54 59.4675 276.93375 
L 59.4675 275.7375 
Q 60.181875 275.450625 60.8025 275.304375 
Q 61.425 275.158125 61.940625 275.158125 
Q 63.3 275.158125 64.108125 275.83875 
Q 64.91625 276.5175 64.91625 277.65375 
Q 64.91625 278.19375 64.71375 278.6775 
Q 64.513125 279.159375 63.97875 279.815625 
Q 63.8325 279.98625 63.046875 280.798125 
Q 62.263125 281.61 60.8325 283.06875 
z
M 69.978516 276.095625 
Q 69.065391 276.095625 68.604141 276.995625 
Q 68.144766 277.89375 68.144766 279.699375 
Q 68.144766 281.4975 68.604141 282.3975 
Q 69.065391 283.2975 69.978516 283.2975 
Q 70.899141 283.2975 71.358516 282.3975 
Q 71.819766 281.4975 71.819766 279.699375 
Q 71.819766 277.89375 71.358516 276.995625 
Q 70.899141 276.095625 69.978516 276.095625 
z
M 69.978516 275.158125 
Q 71.450391 275.158125 72.226641 276.3225 
Q 73.002891 277.485 73.002891 279.699375 
Q 73.002891 281.908125 72.226641 283.0725 
Q 71.450391 284.235 69.978516 284.235 
Q 68.508516 284.235 67.732266 283.0725 
Q 66.956016 281.908125 66.956016 279.699375 
Q 66.956016 277.485 67.732266 276.3225 
Q 68.508516 275.158125 69.978516 275.158125 
z
M 76.102031 283.06875 
L 80.232656 283.06875 
L 80.232656 284.064375 
L 74.678906 284.064375 
L 74.678906 283.06875 
Q 75.352031 282.37125 76.514531 281.1975 
Q 77.678906 280.021875 77.977031 279.680625 
Q 78.545156 279.043125 78.770156 278.600625 
Q 78.997031 278.158125 78.997031 277.730625 
Q 78.997031 277.033125 78.507656 276.594375 
Q 78.018281 276.15375 77.232656 276.15375 
Q 76.675781 276.15375 76.057031 276.346875 
Q 75.440156 276.54 74.737031 276.93375 
L 74.737031 275.7375 
Q 75.451406 275.450625 76.072031 275.304375 
Q 76.694531 275.158125 77.210156 275.158125 
Q 78.569531 275.158125 79.377656 275.83875 
Q 80.185781 276.5175 80.185781 277.65375 
Q 80.185781 278.19375 79.983281 278.6775 
Q 79.782656 279.159375 79.248281 279.815625 
Q 79.102031 279.98625 78.316406 280.798125 
Q 77.532656 281.61 76.102031 283.06875 
z
M 85.248047 276.095625 
Q 84.334922 276.095625 83.873672 276.995625 
Q 83.414297 277.89375 83.414297 279.699375 
Q 83.414297 281.4975 83.873672 282.3975 
Q 84.334922 283.2975 85.248047 283.2975 
Q 86.168672 283.2975 86.628047 282.3975 
Q 87.089297 281.4975 87.089297 279.699375 
Q 87.089297 277.89375 86.628047 276.995625 
Q 86.168672 276.095625 85.248047 276.095625 
z
M 85.248047 275.158125 
Q 86.719922 275.158125 87.496172 276.3225 
Q 88.272422 277.485 88.272422 279.699375 
Q 88.272422 281.908125 87.496172 283.0725 
Q 86.719922 284.235 85.248047 284.235 
Q 83.778047 284.235 83.001797 283.0725 
Q 82.225547 281.908125 82.225547 279.699375 
Q 82.225547 277.485 83.001797 276.3225 
Q 83.778047 275.158125 85.248047 275.158125 
z
" style="fill: #ffffff"/>
   </g>
  </g>
  <g id="axes_3">
   <g id="patch_4">
    <path d="M 104.982353 286.56 
L 129.6 286.56 
L 129.6 69.12 
L 104.982353 69.12 
L 104.982353 286.56 
z
" style="fill: none"/>
   </g>
  </g>
  <g id="axes_4">
   <g id="patch_5">
    <path d="M 18 504 
L 42.617647 504 
L 42.617647 286.56 
L 18 286.56 
L 18 504 
z
" style="fill: none"/>
   </g>
  </g>
  <g id="axes_5">
   <g id="patch_6">
    <path d="M 49.182353 504 
L 98.417647 504 
L 98.417647 286.56 
L 49.182353 286.56 
L 49.182353 504 
z
" style="fill: none"/>
   </g>
   <g id="patch_7">
    <path d="M 49.182353 494.116364 
L 96.073109 494.116364 
L 96.073109 469.407273 
L 49.182353 469.407273 
z
" clip-path="url(#p066b15aa08)" style="fill: #d73027"/>
   </g>
   <g id="patch_8">
    <path d="M 49.182353 469.407273 
L 96.073109 469.407273 
L 96.073109 444.698182 
L 49.182353 444.698182 
z
" clip-path="url(#p066b15aa08)" style="fill: #f46d43"/>
   </g>
   <g id="patch_9">
    <path d="M 49.182353 444.698182 
L 96.073109 444.698182 
L 96.073109 419.989091 
L 49.182353 419.989091 
z
" clip-path="url(#p066b15aa08)" style="fill: #fdae61"/>
   </g>
   <g id="patch_10">
    <path d="M 49.182353 419.989091 
L 96.073109 419.989091 
L 96.073109 395.28 
L 49.182353 395.28 
z
" clip-path="url(#p066b15aa08)" style="fill: #fee08b"/>
   </g>
   <g id="patch_11">
    <path d="M 49.182353 395.28 
L 96.073109 395.28 
L 96.073109 370.570909 
L 49.182353 370.570909 
z
" clip-path="url(#p066b15aa08)" style="fill: #d9ef8b"/>
   </g>
   <g id="patch_12">
    <path d="M 49.182353 370.570909 
L 96.073109 370.570909 
L 96.073109 345.861818 
L 49.182353 345.861818 
z
" clip-path="url(#p066b15aa08)" style="fill: #a6d96a"/>
   </g>
   <g id="patch_13">
    <path d="M 49.182353 345.861818 
L 96.073109 345.861818 
L 96.073109 321.152727 
L 49.182353 321.152727 
z
" clip-path="url(#p066b15aa08)" style="fill: #66bd63"/>
   </g>
   <g id="patch_14">
    <path d="M 49.182353 321.152727 
L 96.073109 321.152727 
L 96.073109 296.443636 
L 49.182353 296.443636 
z
" clip-path="url(#p066b15aa08)" style="fill: #1a9850"/>
   </g>
   <g id="text_2">
    <path d="M 55.985231 495.22125 
L 59.663981 495.22125 
L 59.663981 496.925625 
L 55.985231 496.925625 
L 55.985231 495.22125 
z
M 63.772575 497.870625 
L 67.62195 497.870625 
L 67.62195 499.528125 
L 61.263825 499.528125 
L 61.263825 497.870625 
L 64.45695 495.050625 
Q 64.886325 494.664375 65.0907 494.295 
Q 65.295075 493.925625 65.295075 493.528125 
Q 65.295075 492.913125 64.882575 492.538125 
Q 64.470075 492.163125 63.783825 492.163125 
Q 63.25695 492.163125 62.628825 492.388125 
Q 62.002575 492.613125 61.2882 493.059375 
L 61.2882 491.1375 
Q 62.04945 490.88625 62.793825 490.755 
Q 63.5382 490.621875 64.252575 490.621875 
Q 65.823825 490.621875 66.693825 491.31375 
Q 67.563825 492.00375 67.563825 493.24125 
Q 67.563825 493.955625 67.19445 494.574375 
Q 66.825075 495.19125 65.64195 496.23 
L 63.772575 497.870625 
z
M 69.889059 497.26125 
L 71.998434 497.26125 
L 71.998434 499.528125 
L 69.889059 499.528125 
L 69.889059 497.26125 
z
M 78.812653 494.810625 
Q 79.697653 495.039375 80.157028 495.605625 
Q 80.618278 496.17 80.618278 497.04375 
Q 80.618278 498.345 79.620778 499.021875 
Q 78.625153 499.69875 76.716403 499.69875 
Q 76.041403 499.69875 75.364528 499.59 
Q 74.687653 499.48125 74.025778 499.26375 
L 74.025778 497.52375 
Q 74.659528 497.840625 75.282028 498.001875 
Q 75.906403 498.163125 76.510153 498.163125 
Q 77.406403 498.163125 77.884528 497.85375 
Q 78.362653 497.5425 78.362653 496.96125 
Q 78.362653 496.363125 77.873278 496.055625 
Q 77.383903 495.748125 76.427653 495.748125 
L 75.525778 495.748125 
L 75.525778 494.295 
L 76.474528 494.295 
Q 77.325778 494.295 77.740153 494.02875 
Q 78.156403 493.7625 78.156403 493.216875 
Q 78.156403 492.714375 77.751403 492.43875 
Q 77.348278 492.163125 76.609528 492.163125 
Q 76.065778 492.163125 75.508903 492.286875 
Q 74.952028 492.40875 74.400778 492.64875 
L 74.400778 490.996875 
Q 75.068278 490.809375 75.724528 490.715625 
Q 76.380778 490.621875 77.014528 490.621875 
Q 78.718903 490.621875 79.564528 491.1825 
Q 80.412028 491.74125 80.412028 492.86625 
Q 80.412028 493.633125 80.007028 494.1225 
Q 79.603903 494.611875 78.812653 494.810625 
z
M 85.750387 495.613125 
Q 85.118512 495.613125 84.777262 495.96 
Q 84.437887 496.305 84.437887 496.95 
Q 84.437887 497.595 84.777262 497.938125 
Q 85.118512 498.279375 85.750387 498.279375 
Q 86.378512 498.279375 86.712262 497.938125 
Q 87.046012 497.595 87.046012 496.95 
Q 87.046012 496.299375 86.712262 495.95625 
Q 86.378512 495.613125 85.750387 495.613125 
z
M 84.104137 494.870625 
Q 83.307262 494.62875 82.902262 494.131875 
Q 82.499137 493.633125 82.499137 492.88875 
Q 82.499137 491.7825 83.324137 491.203125 
Q 84.151012 490.621875 85.750387 490.621875 
Q 87.338512 490.621875 88.163512 491.199375 
Q 88.990387 491.776875 88.990387 492.88875 
Q 88.990387 493.633125 88.583512 494.131875 
Q 88.176637 494.62875 87.379762 494.870625 
Q 88.270387 495.11625 88.724137 495.669375 
Q 89.177887 496.2225 89.177887 497.06625 
Q 89.177887 498.3675 88.313512 499.033125 
Q 87.449137 499.69875 85.750387 499.69875 
Q 84.046012 499.69875 83.176012 499.033125 
Q 82.306012 498.3675 82.306012 497.06625 
Q 82.306012 496.2225 82.759762 495.669375 
Q 83.213512 495.11625 84.104137 494.870625 
z
M 84.631012 493.1175 
Q 84.631012 493.63875 84.921637 493.92 
Q 85.212262 494.20125 85.750387 494.20125 
Q 86.277262 494.20125 86.564137 493.92 
Q 86.852887 493.63875 86.852887 493.1175 
Q 86.852887 492.59625 86.564137 492.31875 
Q 86.277262 492.039375 85.750387 492.039375 
Q 85.212262 492.039375 84.921637 492.320625 
Q 84.631012 492.601875 84.631012 493.1175 
z
" style="stroke: #ffffff"/>
    <path d="M 55.985231 495.22125 
L 59.663981 495.22125 
L 59.663981 496.925625 
L 55.985231 496.925625 
L 55.985231 495.22125 
z
M 63.772575 497.870625 
L 67.62195 497.870625 
L 67.62195 499.528125 
L 61.263825 499.528125 
L 61.263825 497.870625 
L 64.45695 495.050625 
Q 64.886325 494.664375 65.0907 494.295 
Q 65.295075 493.925625 65.295075 493.528125 
Q 65.295075 492.913125 64.882575 492.538125 
Q 64.470075 492.163125 63.783825 492.163125 
Q 63.25695 492.163125 62.628825 492.388125 
Q 62.002575 492.613125 61.2882 493.059375 
L 61.2882 491.1375 
Q 62.04945 490.88625 62.793825 490.755 
Q 63.5382 490.621875 64.252575 490.621875 
Q 65.823825 490.621875 66.693825 491.31375 
Q 67.563825 492.00375 67.563825 493.24125 
Q 67.563825 493.955625 67.19445 494.574375 
Q 66.825075 495.19125 65.64195 496.23 
L 63.772575 497.870625 
z
M 69.889059 497.26125 
L 71.998434 497.26125 
L 71.998434 499.528125 
L 69.889059 499.528125 
L 69.889059 497.26125 
z
M 78.812653 494.810625 
Q 79.697653 495.039375 80.157028 495.605625 
Q 80.618278 496.17 80.618278 497.04375 
Q 80.618278 498.345 79.620778 499.021875 
Q 78.625153 499.69875 76.716403 499.69875 
Q 76.041403 499.69875 75.364528 499.59 
Q 74.687653 499.48125 74.025778 499.26375 
L 74.025778 497.52375 
Q 74.659528 497.840625 75.282028 498.001875 
Q 75.906403 498.163125 76.510153 498.163125 
Q 77.406403 498.163125 77.884528 497.85375 
Q 78.362653 497.5425 78.362653 496.96125 
Q 78.362653 496.363125 77.873278 496.055625 
Q 77.383903 495.748125 76.427653 495.748125 
L 75.525778 495.748125 
L 75.525778 494.295 
L 76.474528 494.295 
Q 77.325778 494.295 77.740153 494.02875 
Q 78.156403 493.7625 78.156403 493.216875 
Q 78.156403 492.714375 77.751403 492.43875 
Q 77.348278 492.163125 76.609528 492.163125 
Q 76.065778 492.163125 75.508903 492.286875 
Q 74.952028 492.40875 74.400778 492.64875 
L 74.400778 490.996875 
Q 75.068278 490.809375 75.724528 490.715625 
Q 76.380778 490.621875 77.014528 490.621875 
Q 78.718903 490.621875 79.564528 491.1825 
Q 80.412028 491.74125 80.412028 492.86625 
Q 80.412028 493.633125 80.007028 494.1225 
Q 79.603903 494.611875 78.812653 494.810625 
z
M 85.750387 495.613125 
Q 85.118512 495.613125 84.777262 495.96 
Q 84.437887 496.305 84.437887 496.95 
Q 84.437887 497.595 84.777262 497.938125 
Q 85.118512 498.279375 85.750387 498.279375 
Q 86.378512 498.279375 86.712262 497.938125 
Q 87.046012 497.595 87.046012 496.95 
Q 87.046012 496.299375 86.712262 495.95625 
Q 86.378512 495.613125 85.750387 495.613125 
z
M 84.104137 494.870625 
Q 83.307262 494.62875 82.902262 494.131875 
Q 82.499137 493.633125 82.499137 492.88875 
Q 82.499137 491.7825 83.324137 491.203125 
Q 84.151012 490.621875 85.750387 490.621875 
Q 87.338512 490.621875 88.163512 491.199375 
Q 88.990387 491.776875 88.990387 492.88875 
Q 88.990387 493.633125 88.583512 494.131875 
Q 88.176637 494.62875 87.379762 494.870625 
Q 88.270387 495.11625 88.724137 495.669375 
Q 89.177887 496.2225 89.177887 497.06625 
Q 89.177887 498.3675 88.313512 499.033125 
Q 87.449137 499.69875 85.750387 499.69875 
Q 84.046012 499.69875 83.176012 499.033125 
Q 82.306012 498.3675 82.306012 497.06625 
Q 82.306012 496.2225 82.759762 495.669375 
Q 83.213512 495.11625 84.104137 494.870625 
z
M 84.631012 493.1175 
Q 84.631012 493.63875 84.921637 493.92 
Q 85.212262 494.20125 85.750387 494.20125 
Q 86.277262 494.20125 86.564137 493.92 
Q 86.852887 493.63875 86.852887 493.1175 
Q 86.852887 492.59625 86.564137 492.31875 
Q 86.277262 492.039375 85.750387 492.039375 
Q 85.212262 492.039375 84.921637 492.320625 
Q 84.631012 492.601875 84.631012 493.1175 
z
"/>
   </g>
   <g id="text_3">
    <path d="M 55.985231 470.512159 
L 59.663981 470.512159 
L 59.663981 472.216534 
L 55.985231 472.216534 
L 55.985231 470.512159 
z
M 65.835075 470.435284 
Q 65.835075 468.794659 65.527575 468.125284 
Q 65.220075 467.454034 64.492575 467.454034 
Q 63.76695 467.454034 63.4557 468.125284 
Q 63.14445 468.794659 63.14445 470.435284 
Q 63.14445 472.094659 63.4557 472.775284 
Q 63.76695 473.454034 64.492575 473.454034 
Q 65.21445 473.454034 65.523825 472.775284 
Q 65.835075 472.094659 65.835075 470.435284 
z
M 68.0907 470.454034 
Q 68.0907 472.627159 67.1532 473.808409 
Q 66.2157 474.989659 64.492575 474.989659 
Q 62.763825 474.989659 61.826325 473.808409 
Q 60.888825 472.627159 60.888825 470.454034 
Q 60.888825 468.273409 61.826325 467.094034 
Q 62.763825 465.912784 64.492575 465.912784 
Q 66.2157 465.912784 67.1532 467.094034 
Q 68.0907 468.273409 68.0907 470.454034 
z
M 69.889059 472.552159 
L 71.998434 472.552159 
L 71.998434 474.819034 
L 69.889059 474.819034 
L 69.889059 472.552159 
z
M 74.629528 473.260909 
L 76.622653 473.260909 
L 76.622653 467.605909 
L 74.577028 468.027784 
L 74.577028 466.492159 
L 76.609528 466.070284 
L 78.754528 466.070284 
L 78.754528 473.260909 
L 80.747653 473.260909 
L 80.747653 474.819034 
L 74.629528 474.819034 
L 74.629528 473.260909 
z
M 87.162262 470.101534 
Q 88.047262 470.330284 88.506637 470.896534 
Q 88.967887 471.460909 88.967887 472.334659 
Q 88.967887 473.635909 87.970387 474.312784 
Q 86.974762 474.989659 85.066012 474.989659 
Q 84.391012 474.989659 83.714137 474.880909 
Q 83.037262 474.772159 82.375387 474.554659 
L 82.375387 472.814659 
Q 83.009137 473.131534 83.631637 473.292784 
Q 84.256012 473.454034 84.859762 473.454034 
Q 85.756012 473.454034 86.234137 473.144659 
Q 86.712262 472.833409 86.712262 472.252159 
Q 86.712262 471.654034 86.222887 471.346534 
Q 85.733512 471.039034 84.777262 471.039034 
L 83.875387 471.039034 
L 83.875387 469.585909 
L 84.824137 469.585909 
Q 85.675387 469.585909 86.089762 469.319659 
Q 86.506012 469.053409 86.506012 468.507784 
Q 86.506012 468.005284 86.101012 467.729659 
Q 85.697887 467.454034 84.959137 467.454034 
Q 84.415387 467.454034 83.858512 467.577784 
Q 83.301637 467.699659 82.750387 467.939659 
L 82.750387 466.287784 
Q 83.417887 466.100284 84.074137 466.006534 
Q 84.730387 465.912784 85.364137 465.912784 
Q 87.068512 465.912784 87.914137 466.473409 
Q 88.761637 467.032159 88.761637 468.157159 
Q 88.761637 468.924034 88.356637 469.413409 
Q 87.953512 469.902784 87.162262 470.101534 
z
" style="stroke: #ffffff"/>
    <path d="M 55.985231 470.512159 
L 59.663981 470.512159 
L 59.663981 472.216534 
L 55.985231 472.216534 
L 55.985231 470.512159 
z
M 65.835075 470.435284 
Q 65.835075 468.794659 65.527575 468.125284 
Q 65.220075 467.454034 64.492575 467.454034 
Q 63.76695 467.454034 63.4557 468.125284 
Q 63.14445 468.794659 63.14445 470.435284 
Q 63.14445 472.094659 63.4557 472.775284 
Q 63.76695 473.454034 64.492575 473.454034 
Q 65.21445 473.454034 65.523825 472.775284 
Q 65.835075 472.094659 65.835075 470.435284 
z
M 68.0907 470.454034 
Q 68.0907 472.627159 67.1532 473.808409 
Q 66.2157 474.989659 64.492575 474.989659 
Q 62.763825 474.989659 61.826325 473.808409 
Q 60.888825 472.627159 60.888825 470.454034 
Q 60.888825 468.273409 61.826325 467.094034 
Q 62.763825 465.912784 64.492575 465.912784 
Q 66.2157 465.912784 67.1532 467.094034 
Q 68.0907 468.273409 68.0907 470.454034 
z
M 69.889059 472.552159 
L 71.998434 472.552159 
L 71.998434 474.819034 
L 69.889059 474.819034 
L 69.889059 472.552159 
z
M 74.629528 473.260909 
L 76.622653 473.260909 
L 76.622653 467.605909 
L 74.577028 468.027784 
L 74.577028 466.492159 
L 76.609528 466.070284 
L 78.754528 466.070284 
L 78.754528 473.260909 
L 80.747653 473.260909 
L 80.747653 474.819034 
L 74.629528 474.819034 
L 74.629528 473.260909 
z
M 87.162262 470.101534 
Q 88.047262 470.330284 88.506637 470.896534 
Q 88.967887 471.460909 88.967887 472.334659 
Q 88.967887 473.635909 87.970387 474.312784 
Q 86.974762 474.989659 85.066012 474.989659 
Q 84.391012 474.989659 83.714137 474.880909 
Q 83.037262 474.772159 82.375387 474.554659 
L 82.375387 472.814659 
Q 83.009137 473.131534 83.631637 473.292784 
Q 84.256012 473.454034 84.859762 473.454034 
Q 85.756012 473.454034 86.234137 473.144659 
Q 86.712262 472.833409 86.712262 472.252159 
Q 86.712262 471.654034 86.222887 471.346534 
Q 85.733512 471.039034 84.777262 471.039034 
L 83.875387 471.039034 
L 83.875387 469.585909 
L 84.824137 469.585909 
Q 85.675387 469.585909 86.089762 469.319659 
Q 86.506012 469.053409 86.506012 468.507784 
Q 86.506012 468.005284 86.101012 467.729659 
Q 85.697887 467.454034 84.959137 467.454034 
Q 84.415387 467.454034 83.858512 467.577784 
Q 83.301637 467.699659 82.750387 467.939659 
L 82.750387 466.287784 
Q 83.417887 466.100284 84.074137 466.006534 
Q 84.730387 465.912784 85.364137 465.912784 
Q 87.068512 465.912784 87.914137 466.473409 
Q 88.761637 467.032159 88.761637 468.157159 
Q 88.761637 468.924034 88.356637 469.413409 
Q 87.953512 469.902784 87.162262 470.101534 
z
"/>
   </g>
   <g id="text_4">
    <path d="M 63.344606 445.726193 
Q 63.344606 444.085568 63.037106 443.416193 
Q 62.729606 442.744943 62.002106 442.744943 
Q 61.276481 442.744943 60.965231 443.416193 
Q 60.653981 444.085568 60.653981 445.726193 
Q 60.653981 447.385568 60.965231 448.066193 
Q 61.276481 448.744943 62.002106 448.744943 
Q 62.723981 448.744943 63.033356 448.066193 
Q 63.344606 447.385568 63.344606 445.726193 
z
M 65.600231 445.744943 
Q 65.600231 447.918068 64.662731 449.099318 
Q 63.725231 450.280568 62.002106 450.280568 
Q 60.273356 450.280568 59.335856 449.099318 
Q 58.398356 447.918068 58.398356 445.744943 
Q 58.398356 443.564318 59.335856 442.384943 
Q 60.273356 441.203693 62.002106 441.203693 
Q 63.725231 441.203693 64.662731 442.384943 
Q 65.600231 443.564318 65.600231 445.744943 
z
M 67.39859 447.843068 
L 69.507965 447.843068 
L 69.507965 450.109943 
L 67.39859 450.109943 
L 67.39859 447.843068 
z
M 71.535309 441.361193 
L 78.127809 441.361193 
L 78.127809 442.632443 
L 74.717184 450.109943 
L 72.519684 450.109943 
L 75.748434 443.020568 
L 71.535309 443.020568 
L 71.535309 441.361193 
z
M 80.488669 448.551818 
L 82.481794 448.551818 
L 82.481794 442.896818 
L 80.436169 443.318693 
L 80.436169 441.783068 
L 82.468669 441.361193 
L 84.613669 441.361193 
L 84.613669 448.551818 
L 86.606794 448.551818 
L 86.606794 450.109943 
L 80.488669 450.109943 
L 80.488669 448.551818 
z
" style="stroke: #ffffff"/>
    <path d="M 63.344606 445.726193 
Q 63.344606 444.085568 63.037106 443.416193 
Q 62.729606 442.744943 62.002106 442.744943 
Q 61.276481 442.744943 60.965231 443.416193 
Q 60.653981 444.085568 60.653981 445.726193 
Q 60.653981 447.385568 60.965231 448.066193 
Q 61.276481 448.744943 62.002106 448.744943 
Q 62.723981 448.744943 63.033356 448.066193 
Q 63.344606 447.385568 63.344606 445.726193 
z
M 65.600231 445.744943 
Q 65.600231 447.918068 64.662731 449.099318 
Q 63.725231 450.280568 62.002106 450.280568 
Q 60.273356 450.280568 59.335856 449.099318 
Q 58.398356 447.918068 58.398356 445.744943 
Q 58.398356 443.564318 59.335856 442.384943 
Q 60.273356 441.203693 62.002106 441.203693 
Q 63.725231 441.203693 64.662731 442.384943 
Q 65.600231 443.564318 65.600231 445.744943 
z
M 67.39859 447.843068 
L 69.507965 447.843068 
L 69.507965 450.109943 
L 67.39859 450.109943 
L 67.39859 447.843068 
z
M 71.535309 441.361193 
L 78.127809 441.361193 
L 78.127809 442.632443 
L 74.717184 450.109943 
L 72.519684 450.109943 
L 75.748434 443.020568 
L 71.535309 443.020568 
L 71.535309 441.361193 
z
M 80.488669 448.551818 
L 82.481794 448.551818 
L 82.481794 442.896818 
L 80.436169 443.318693 
L 80.436169 441.783068 
L 82.468669 441.361193 
L 84.613669 441.361193 
L 84.613669 448.551818 
L 86.606794 448.551818 
L 86.606794 450.109943 
L 80.488669 450.109943 
L 80.488669 448.551818 
z
"/>
   </g>
   <g id="text_5">
    <path d="M 59.230856 423.842727 
L 61.223981 423.842727 
L 61.223981 418.187727 
L 59.178356 418.609602 
L 59.178356 417.073977 
L 61.210856 416.652102 
L 63.355856 416.652102 
L 63.355856 423.842727 
L 65.348981 423.842727 
L 65.348981 425.400852 
L 59.230856 425.400852 
L 59.230856 423.842727 
z
M 67.39859 423.133977 
L 69.507965 423.133977 
L 69.507965 425.400852 
L 67.39859 425.400852 
L 67.39859 423.133977 
z
M 74.190309 423.743352 
L 78.039684 423.743352 
L 78.039684 425.400852 
L 71.681559 425.400852 
L 71.681559 423.743352 
L 74.874684 420.923352 
Q 75.304059 420.537102 75.508434 420.167727 
Q 75.712809 419.798352 75.712809 419.400852 
Q 75.712809 418.785852 75.300309 418.410852 
Q 74.887809 418.035852 74.201559 418.035852 
Q 73.674684 418.035852 73.046559 418.260852 
Q 72.420309 418.485852 71.705934 418.932102 
L 71.705934 417.010227 
Q 72.467184 416.758977 73.211559 416.627727 
Q 73.955934 416.494602 74.670309 416.494602 
Q 76.241559 416.494602 77.111559 417.186477 
Q 77.981559 417.876477 77.981559 419.113977 
Q 77.981559 419.828352 77.612184 420.447102 
Q 77.242809 421.063977 76.059684 422.102727 
L 74.190309 423.743352 
z
M 83.424919 421.082727 
Q 82.832419 421.082727 82.536169 421.467102 
Q 82.239919 421.849602 82.239919 422.618352 
Q 82.239919 423.385227 82.536169 423.769602 
Q 82.832419 424.152102 83.424919 424.152102 
Q 84.021169 424.152102 84.317419 423.769602 
Q 84.613669 423.385227 84.613669 422.618352 
Q 84.613669 421.849602 84.317419 421.467102 
Q 84.021169 421.082727 83.424919 421.082727 
z
M 86.213044 416.880852 
L 86.213044 418.498977 
Q 85.656169 418.234602 85.163044 418.108977 
Q 84.671794 417.983352 84.203044 417.983352 
Q 83.196169 417.983352 82.633669 418.543977 
Q 82.071169 419.102727 81.977419 420.203352 
Q 82.363669 419.916477 82.813669 419.773977 
Q 83.265544 419.629602 83.799919 419.629602 
Q 85.140544 419.629602 85.963669 420.415227 
Q 86.786794 421.198977 86.786794 422.470227 
Q 86.786794 423.876477 85.866169 424.723977 
Q 84.947419 425.571477 83.400544 425.571477 
Q 81.696169 425.571477 80.760544 424.420227 
Q 79.826794 423.267102 79.826794 421.152102 
Q 79.826794 418.984602 80.919919 417.745227 
Q 82.013044 416.505852 83.916169 416.505852 
Q 84.519919 416.505852 85.088044 416.599602 
Q 85.656169 416.693352 86.213044 416.880852 
z
" style="stroke: #ffffff"/>
    <path d="M 59.230856 423.842727 
L 61.223981 423.842727 
L 61.223981 418.187727 
L 59.178356 418.609602 
L 59.178356 417.073977 
L 61.210856 416.652102 
L 63.355856 416.652102 
L 63.355856 423.842727 
L 65.348981 423.842727 
L 65.348981 425.400852 
L 59.230856 425.400852 
L 59.230856 423.842727 
z
M 67.39859 423.133977 
L 69.507965 423.133977 
L 69.507965 425.400852 
L 67.39859 425.400852 
L 67.39859 423.133977 
z
M 74.190309 423.743352 
L 78.039684 423.743352 
L 78.039684 425.400852 
L 71.681559 425.400852 
L 71.681559 423.743352 
L 74.874684 420.923352 
Q 75.304059 420.537102 75.508434 420.167727 
Q 75.712809 419.798352 75.712809 419.400852 
Q 75.712809 418.785852 75.300309 418.410852 
Q 74.887809 418.035852 74.201559 418.035852 
Q 73.674684 418.035852 73.046559 418.260852 
Q 72.420309 418.485852 71.705934 418.932102 
L 71.705934 417.010227 
Q 72.467184 416.758977 73.211559 416.627727 
Q 73.955934 416.494602 74.670309 416.494602 
Q 76.241559 416.494602 77.111559 417.186477 
Q 77.981559 417.876477 77.981559 419.113977 
Q 77.981559 419.828352 77.612184 420.447102 
Q 77.242809 421.063977 76.059684 422.102727 
L 74.190309 423.743352 
z
M 83.424919 421.082727 
Q 82.832419 421.082727 82.536169 421.467102 
Q 82.239919 421.849602 82.239919 422.618352 
Q 82.239919 423.385227 82.536169 423.769602 
Q 82.832419 424.152102 83.424919 424.152102 
Q 84.021169 424.152102 84.317419 423.769602 
Q 84.613669 423.385227 84.613669 422.618352 
Q 84.613669 421.849602 84.317419 421.467102 
Q 84.021169 421.082727 83.424919 421.082727 
z
M 86.213044 416.880852 
L 86.213044 418.498977 
Q 85.656169 418.234602 85.163044 418.108977 
Q 84.671794 417.983352 84.203044 417.983352 
Q 83.196169 417.983352 82.633669 418.543977 
Q 82.071169 419.102727 81.977419 420.203352 
Q 82.363669 419.916477 82.813669 419.773977 
Q 83.265544 419.629602 83.799919 419.629602 
Q 85.140544 419.629602 85.963669 420.415227 
Q 86.786794 421.198977 86.786794 422.470227 
Q 86.786794 423.876477 85.866169 424.723977 
Q 84.947419 425.571477 83.400544 425.571477 
Q 81.696169 425.571477 80.760544 424.420227 
Q 79.826794 423.267102 79.826794 421.152102 
Q 79.826794 418.984602 80.919919 417.745227 
Q 82.013044 416.505852 83.916169 416.505852 
Q 84.519919 416.505852 85.088044 416.599602 
Q 85.656169 416.693352 86.213044 416.880852 
z
"/>
   </g>
   <g id="text_6">
    <path d="M 59.230856 399.133636 
L 61.223981 399.133636 
L 61.223981 393.478636 
L 59.178356 393.900511 
L 59.178356 392.364886 
L 61.210856 391.943011 
L 63.355856 391.943011 
L 63.355856 399.133636 
L 65.348981 399.133636 
L 65.348981 400.691761 
L 59.230856 400.691761 
L 59.230856 399.133636 
z
M 67.39859 398.424886 
L 69.507965 398.424886 
L 69.507965 400.691761 
L 67.39859 400.691761 
L 67.39859 398.424886 
z
M 71.934684 400.498636 
L 71.934684 398.880511 
Q 72.472809 399.133636 72.964059 399.259261 
Q 73.457184 399.384886 73.937184 399.384886 
Q 74.945934 399.384886 75.508434 398.826136 
Q 76.070934 398.265511 76.170309 397.164886 
Q 75.772809 397.457386 75.320934 397.603636 
Q 74.869059 397.749886 74.342184 397.749886 
Q 72.999684 397.749886 72.176559 396.968011 
Q 71.353434 396.186136 71.353434 394.909261 
Q 71.353434 393.495511 72.270309 392.646136 
Q 73.187184 391.796761 74.728434 391.796761 
Q 76.440309 391.796761 77.377809 392.951761 
Q 78.315309 394.104886 78.315309 396.214261 
Q 78.315309 398.383636 77.218434 399.623011 
Q 76.123434 400.862386 74.212809 400.862386 
Q 73.597809 400.862386 73.035309 400.770511 
Q 72.472809 400.680511 71.934684 400.498636 
z
M 74.717184 396.285511 
Q 75.309684 396.285511 75.607809 395.903011 
Q 75.905934 395.518636 75.905934 394.749886 
Q 75.905934 393.988636 75.607809 393.602386 
Q 75.309684 393.214261 74.717184 393.214261 
Q 74.124684 393.214261 73.826559 393.602386 
Q 73.528434 393.988636 73.528434 394.749886 
Q 73.528434 395.518636 73.826559 395.903011 
Q 74.124684 396.285511 74.717184 396.285511 
z
M 80.353669 391.943011 
L 85.961794 391.943011 
L 85.961794 393.602386 
L 82.153669 393.602386 
L 82.153669 394.956136 
Q 82.410544 394.884886 82.671169 394.847386 
Q 82.931794 394.808011 83.213044 394.808011 
Q 84.812419 394.808011 85.703044 395.608636 
Q 86.593669 396.409261 86.593669 397.838011 
Q 86.593669 399.255511 85.624294 400.059886 
Q 84.654919 400.862386 82.931794 400.862386 
Q 82.187419 400.862386 81.458044 400.718011 
Q 80.728669 400.573636 80.008669 400.281136 
L 80.008669 398.505511 
Q 80.723044 398.916136 81.364294 399.122386 
Q 82.005544 399.326761 82.575544 399.326761 
Q 83.394919 399.326761 83.865544 398.925511 
Q 84.338044 398.524261 84.338044 397.838011 
Q 84.338044 397.146136 83.865544 396.748636 
Q 83.394919 396.349261 82.575544 396.349261 
Q 82.088044 396.349261 81.536794 396.476761 
Q 80.987419 396.602386 80.353669 396.864886 
L 80.353669 391.943011 
z
" style="stroke: #ffffff"/>
    <path d="M 59.230856 399.133636 
L 61.223981 399.133636 
L 61.223981 393.478636 
L 59.178356 393.900511 
L 59.178356 392.364886 
L 61.210856 391.943011 
L 63.355856 391.943011 
L 63.355856 399.133636 
L 65.348981 399.133636 
L 65.348981 400.691761 
L 59.230856 400.691761 
L 59.230856 399.133636 
z
M 67.39859 398.424886 
L 69.507965 398.424886 
L 69.507965 400.691761 
L 67.39859 400.691761 
L 67.39859 398.424886 
z
M 71.934684 400.498636 
L 71.934684 398.880511 
Q 72.472809 399.133636 72.964059 399.259261 
Q 73.457184 399.384886 73.937184 399.384886 
Q 74.945934 399.384886 75.508434 398.826136 
Q 76.070934 398.265511 76.170309 397.164886 
Q 75.772809 397.457386 75.320934 397.603636 
Q 74.869059 397.749886 74.342184 397.749886 
Q 72.999684 397.749886 72.176559 396.968011 
Q 71.353434 396.186136 71.353434 394.909261 
Q 71.353434 393.495511 72.270309 392.646136 
Q 73.187184 391.796761 74.728434 391.796761 
Q 76.440309 391.796761 77.377809 392.951761 
Q 78.315309 394.104886 78.315309 396.214261 
Q 78.315309 398.383636 77.218434 399.623011 
Q 76.123434 400.862386 74.212809 400.862386 
Q 73.597809 400.862386 73.035309 400.770511 
Q 72.472809 400.680511 71.934684 400.498636 
z
M 74.717184 396.285511 
Q 75.309684 396.285511 75.607809 395.903011 
Q 75.905934 395.518636 75.905934 394.749886 
Q 75.905934 393.988636 75.607809 393.602386 
Q 75.309684 393.214261 74.717184 393.214261 
Q 74.124684 393.214261 73.826559 393.602386 
Q 73.528434 393.988636 73.528434 394.749886 
Q 73.528434 395.518636 73.826559 395.903011 
Q 74.124684 396.285511 74.717184 396.285511 
z
M 80.353669 391.943011 
L 85.961794 391.943011 
L 85.961794 393.602386 
L 82.153669 393.602386 
L 82.153669 394.956136 
Q 82.410544 394.884886 82.671169 394.847386 
Q 82.931794 394.808011 83.213044 394.808011 
Q 84.812419 394.808011 85.703044 395.608636 
Q 86.593669 396.409261 86.593669 397.838011 
Q 86.593669 399.255511 85.624294 400.059886 
Q 84.654919 400.862386 82.931794 400.862386 
Q 82.187419 400.862386 81.458044 400.718011 
Q 80.728669 400.573636 80.008669 400.281136 
L 80.008669 398.505511 
Q 80.723044 398.916136 81.364294 399.122386 
Q 82.005544 399.326761 82.575544 399.326761 
Q 83.394919 399.326761 83.865544 398.925511 
Q 84.338044 398.524261 84.338044 397.838011 
Q 84.338044 397.146136 83.865544 396.748636 
Q 83.394919 396.349261 82.575544 396.349261 
Q 82.088044 396.349261 81.536794 396.476761 
Q 80.987419 396.602386 80.353669 396.864886 
L 80.353669 391.943011 
z
"/>
   </g>
   <g id="text_7">
    <path d="M 63.413981 371.26517 
Q 64.298981 371.49392 64.758356 372.06017 
Q 65.219606 372.624545 65.219606 373.498295 
Q 65.219606 374.799545 64.222106 375.47642 
Q 63.226481 376.153295 61.317731 376.153295 
Q 60.642731 376.153295 59.965856 376.044545 
Q 59.288981 375.935795 58.627106 375.718295 
L 58.627106 373.978295 
Q 59.260856 374.29517 59.883356 374.45642 
Q 60.507731 374.61767 61.111481 374.61767 
Q 62.007731 374.61767 62.485856 374.308295 
Q 62.963981 373.997045 62.963981 373.415795 
Q 62.963981 372.81767 62.474606 372.51017 
Q 61.985231 372.20267 61.028981 372.20267 
L 60.127106 372.20267 
L 60.127106 370.749545 
L 61.075856 370.749545 
Q 61.927106 370.749545 62.341481 370.483295 
Q 62.757731 370.217045 62.757731 369.67142 
Q 62.757731 369.16892 62.352731 368.893295 
Q 61.949606 368.61767 61.210856 368.61767 
Q 60.667106 368.61767 60.110231 368.74142 
Q 59.553356 368.863295 59.002106 369.103295 
L 59.002106 367.45142 
Q 59.669606 367.26392 60.325856 367.17017 
Q 60.982106 367.07642 61.615856 367.07642 
Q 63.320231 367.07642 64.165856 367.637045 
Q 65.013356 368.195795 65.013356 369.320795 
Q 65.013356 370.08767 64.608356 370.577045 
Q 64.205231 371.06642 63.413981 371.26517 
z
M 67.39859 373.715795 
L 69.507965 373.715795 
L 69.507965 375.98267 
L 67.39859 375.98267 
L 67.39859 373.715795 
z
M 72.139059 374.424545 
L 74.132184 374.424545 
L 74.132184 368.769545 
L 72.086559 369.19142 
L 72.086559 367.655795 
L 74.119059 367.23392 
L 76.264059 367.23392 
L 76.264059 374.424545 
L 78.257184 374.424545 
L 78.257184 375.98267 
L 72.139059 375.98267 
L 72.139059 374.424545 
z
M 84.671794 371.26517 
Q 85.556794 371.49392 86.016169 372.06017 
Q 86.477419 372.624545 86.477419 373.498295 
Q 86.477419 374.799545 85.479919 375.47642 
Q 84.484294 376.153295 82.575544 376.153295 
Q 81.900544 376.153295 81.223669 376.044545 
Q 80.546794 375.935795 79.884919 375.718295 
L 79.884919 373.978295 
Q 80.518669 374.29517 81.141169 374.45642 
Q 81.765544 374.61767 82.369294 374.61767 
Q 83.265544 374.61767 83.743669 374.308295 
Q 84.221794 373.997045 84.221794 373.415795 
Q 84.221794 372.81767 83.732419 372.51017 
Q 83.243044 372.20267 82.286794 372.20267 
L 81.384919 372.20267 
L 81.384919 370.749545 
L 82.333669 370.749545 
Q 83.184919 370.749545 83.599294 370.483295 
Q 84.015544 370.217045 84.015544 369.67142 
Q 84.015544 369.16892 83.610544 368.893295 
Q 83.207419 368.61767 82.468669 368.61767 
Q 81.924919 368.61767 81.368044 368.74142 
Q 80.811169 368.863295 80.259919 369.103295 
L 80.259919 367.45142 
Q 80.927419 367.26392 81.583669 367.17017 
Q 82.239919 367.07642 82.873669 367.07642 
Q 84.578044 367.07642 85.423669 367.637045 
Q 86.271169 368.195795 86.271169 369.320795 
Q 86.271169 370.08767 85.866169 370.577045 
Q 85.463044 371.06642 84.671794 371.26517 
z
" style="stroke: #ffffff"/>
    <path d="M 63.413981 371.26517 
Q 64.298981 371.49392 64.758356 372.06017 
Q 65.219606 372.624545 65.219606 373.498295 
Q 65.219606 374.799545 64.222106 375.47642 
Q 63.226481 376.153295 61.317731 376.153295 
Q 60.642731 376.153295 59.965856 376.044545 
Q 59.288981 375.935795 58.627106 375.718295 
L 58.627106 373.978295 
Q 59.260856 374.29517 59.883356 374.45642 
Q 60.507731 374.61767 61.111481 374.61767 
Q 62.007731 374.61767 62.485856 374.308295 
Q 62.963981 373.997045 62.963981 373.415795 
Q 62.963981 372.81767 62.474606 372.51017 
Q 61.985231 372.20267 61.028981 372.20267 
L 60.127106 372.20267 
L 60.127106 370.749545 
L 61.075856 370.749545 
Q 61.927106 370.749545 62.341481 370.483295 
Q 62.757731 370.217045 62.757731 369.67142 
Q 62.757731 369.16892 62.352731 368.893295 
Q 61.949606 368.61767 61.210856 368.61767 
Q 60.667106 368.61767 60.110231 368.74142 
Q 59.553356 368.863295 59.002106 369.103295 
L 59.002106 367.45142 
Q 59.669606 367.26392 60.325856 367.17017 
Q 60.982106 367.07642 61.615856 367.07642 
Q 63.320231 367.07642 64.165856 367.637045 
Q 65.013356 368.195795 65.013356 369.320795 
Q 65.013356 370.08767 64.608356 370.577045 
Q 64.205231 371.06642 63.413981 371.26517 
z
M 67.39859 373.715795 
L 69.507965 373.715795 
L 69.507965 375.98267 
L 67.39859 375.98267 
L 67.39859 373.715795 
z
M 72.139059 374.424545 
L 74.132184 374.424545 
L 74.132184 368.769545 
L 72.086559 369.19142 
L 72.086559 367.655795 
L 74.119059 367.23392 
L 76.264059 367.23392 
L 76.264059 374.424545 
L 78.257184 374.424545 
L 78.257184 375.98267 
L 72.139059 375.98267 
L 72.139059 374.424545 
z
M 84.671794 371.26517 
Q 85.556794 371.49392 86.016169 372.06017 
Q 86.477419 372.624545 86.477419 373.498295 
Q 86.477419 374.799545 85.479919 375.47642 
Q 84.484294 376.153295 82.575544 376.153295 
Q 81.900544 376.153295 81.223669 376.044545 
Q 80.546794 375.935795 79.884919 375.718295 
L 79.884919 373.978295 
Q 80.518669 374.29517 81.141169 374.45642 
Q 81.765544 374.61767 82.369294 374.61767 
Q 83.265544 374.61767 83.743669 374.308295 
Q 84.221794 373.997045 84.221794 373.415795 
Q 84.221794 372.81767 83.732419 372.51017 
Q 83.243044 372.20267 82.286794 372.20267 
L 81.384919 372.20267 
L 81.384919 370.749545 
L 82.333669 370.749545 
Q 83.184919 370.749545 83.599294 370.483295 
Q 84.015544 370.217045 84.015544 369.67142 
Q 84.015544 369.16892 83.610544 368.893295 
Q 83.207419 368.61767 82.468669 368.61767 
Q 81.924919 368.61767 81.368044 368.74142 
Q 80.811169 368.863295 80.259919 369.103295 
L 80.259919 367.45142 
Q 80.927419 367.26392 81.583669 367.17017 
Q 82.239919 367.07642 82.873669 367.07642 
Q 84.578044 367.07642 85.423669 367.637045 
Q 86.271169 368.195795 86.271169 369.320795 
Q 86.271169 370.08767 85.866169 370.577045 
Q 85.463044 371.06642 84.671794 371.26517 
z
"/>
   </g>
   <g id="text_8">
    <path d="M 59.095856 342.52483 
L 64.703981 342.52483 
L 64.703981 344.184205 
L 60.895856 344.184205 
L 60.895856 345.537955 
Q 61.152731 345.466705 61.413356 345.429205 
Q 61.673981 345.38983 61.955231 345.38983 
Q 63.554606 345.38983 64.445231 346.190455 
Q 65.335856 346.99108 65.335856 348.41983 
Q 65.335856 349.83733 64.366481 350.641705 
Q 63.397106 351.444205 61.673981 351.444205 
Q 60.929606 351.444205 60.200231 351.29983 
Q 59.470856 351.155455 58.750856 350.862955 
L 58.750856 349.08733 
Q 59.465231 349.497955 60.106481 349.704205 
Q 60.747731 349.90858 61.317731 349.90858 
Q 62.137106 349.90858 62.607731 349.50733 
Q 63.080231 349.10608 63.080231 348.41983 
Q 63.080231 347.727955 62.607731 347.330455 
Q 62.137106 346.93108 61.317731 346.93108 
Q 60.830231 346.93108 60.278981 347.05858 
Q 59.729606 347.184205 59.095856 347.446705 
L 59.095856 342.52483 
z
M 67.39859 349.006705 
L 69.507965 349.006705 
L 69.507965 351.27358 
L 67.39859 351.27358 
L 67.39859 349.006705 
z
M 74.190309 349.61608 
L 78.039684 349.61608 
L 78.039684 351.27358 
L 71.681559 351.27358 
L 71.681559 349.61608 
L 74.874684 346.79608 
Q 75.304059 346.40983 75.508434 346.040455 
Q 75.712809 345.67108 75.712809 345.27358 
Q 75.712809 344.65858 75.300309 344.28358 
Q 74.887809 343.90858 74.201559 343.90858 
Q 73.674684 343.90858 73.046559 344.13358 
Q 72.420309 344.35858 71.705934 344.80483 
L 71.705934 342.882955 
Q 72.467184 342.631705 73.211559 342.500455 
Q 73.955934 342.36733 74.670309 342.36733 
Q 76.241559 342.36733 77.111559 343.059205 
Q 77.981559 343.749205 77.981559 344.986705 
Q 77.981559 345.70108 77.612184 346.31983 
Q 77.242809 346.936705 76.059684 347.975455 
L 74.190309 349.61608 
z
M 83.499919 344.382955 
L 81.028669 348.04483 
L 83.499919 348.04483 
L 83.499919 344.382955 
z
M 83.124919 342.52483 
L 85.633669 342.52483 
L 85.633669 348.04483 
L 86.880544 348.04483 
L 86.880544 349.67983 
L 85.633669 349.67983 
L 85.633669 351.27358 
L 83.499919 351.27358 
L 83.499919 349.67983 
L 79.622419 349.67983 
L 79.622419 347.746705 
L 83.124919 342.52483 
z
" style="stroke: #ffffff"/>
    <path d="M 59.095856 342.52483 
L 64.703981 342.52483 
L 64.703981 344.184205 
L 60.895856 344.184205 
L 60.895856 345.537955 
Q 61.152731 345.466705 61.413356 345.429205 
Q 61.673981 345.38983 61.955231 345.38983 
Q 63.554606 345.38983 64.445231 346.190455 
Q 65.335856 346.99108 65.335856 348.41983 
Q 65.335856 349.83733 64.366481 350.641705 
Q 63.397106 351.444205 61.673981 351.444205 
Q 60.929606 351.444205 60.200231 351.29983 
Q 59.470856 351.155455 58.750856 350.862955 
L 58.750856 349.08733 
Q 59.465231 349.497955 60.106481 349.704205 
Q 60.747731 349.90858 61.317731 349.90858 
Q 62.137106 349.90858 62.607731 349.50733 
Q 63.080231 349.10608 63.080231 348.41983 
Q 63.080231 347.727955 62.607731 347.330455 
Q 62.137106 346.93108 61.317731 346.93108 
Q 60.830231 346.93108 60.278981 347.05858 
Q 59.729606 347.184205 59.095856 347.446705 
L 59.095856 342.52483 
z
M 67.39859 349.006705 
L 69.507965 349.006705 
L 69.507965 351.27358 
L 67.39859 351.27358 
L 67.39859 349.006705 
z
M 74.190309 349.61608 
L 78.039684 349.61608 
L 78.039684 351.27358 
L 71.681559 351.27358 
L 71.681559 349.61608 
L 74.874684 346.79608 
Q 75.304059 346.40983 75.508434 346.040455 
Q 75.712809 345.67108 75.712809 345.27358 
Q 75.712809 344.65858 75.300309 344.28358 
Q 74.887809 343.90858 74.201559 343.90858 
Q 73.674684 343.90858 73.046559 344.13358 
Q 72.420309 344.35858 71.705934 344.80483 
L 71.705934 342.882955 
Q 72.467184 342.631705 73.211559 342.500455 
Q 73.955934 342.36733 74.670309 342.36733 
Q 76.241559 342.36733 77.111559 343.059205 
Q 77.981559 343.749205 77.981559 344.986705 
Q 77.981559 345.70108 77.612184 346.31983 
Q 77.242809 346.936705 76.059684 347.975455 
L 74.190309 349.61608 
z
M 83.499919 344.382955 
L 81.028669 348.04483 
L 83.499919 348.04483 
L 83.499919 344.382955 
z
M 83.124919 342.52483 
L 85.633669 342.52483 
L 85.633669 348.04483 
L 86.880544 348.04483 
L 86.880544 349.67983 
L 85.633669 349.67983 
L 85.633669 351.27358 
L 83.499919 351.27358 
L 83.499919 349.67983 
L 79.622419 349.67983 
L 79.622419 347.746705 
L 83.124919 342.52483 
z
"/>
   </g>
   <g id="text_9">
    <path d="M 58.627106 317.815739 
L 65.219606 317.815739 
L 65.219606 319.086989 
L 61.808981 326.564489 
L 59.611481 326.564489 
L 62.840231 319.475114 
L 58.627106 319.475114 
L 58.627106 317.815739 
z
M 67.39859 324.297614 
L 69.507965 324.297614 
L 69.507965 326.564489 
L 67.39859 326.564489 
L 67.39859 324.297614 
z
M 74.910309 322.649489 
Q 74.278434 322.649489 73.937184 322.996364 
Q 73.597809 323.341364 73.597809 323.986364 
Q 73.597809 324.631364 73.937184 324.974489 
Q 74.278434 325.315739 74.910309 325.315739 
Q 75.538434 325.315739 75.872184 324.974489 
Q 76.205934 324.631364 76.205934 323.986364 
Q 76.205934 323.335739 75.872184 322.992614 
Q 75.538434 322.649489 74.910309 322.649489 
z
M 73.264059 321.906989 
Q 72.467184 321.665114 72.062184 321.168239 
Q 71.659059 320.669489 71.659059 319.925114 
Q 71.659059 318.818864 72.484059 318.239489 
Q 73.310934 317.658239 74.910309 317.658239 
Q 76.498434 317.658239 77.323434 318.235739 
Q 78.150309 318.813239 78.150309 319.925114 
Q 78.150309 320.669489 77.743434 321.168239 
Q 77.336559 321.665114 76.539684 321.906989 
Q 77.430309 322.152614 77.884059 322.705739 
Q 78.337809 323.258864 78.337809 324.102614 
Q 78.337809 325.403864 77.473434 326.069489 
Q 76.609059 326.735114 74.910309 326.735114 
Q 73.205934 326.735114 72.335934 326.069489 
Q 71.465934 325.403864 71.465934 324.102614 
Q 71.465934 323.258864 71.919684 322.705739 
Q 72.373434 322.152614 73.264059 321.906989 
z
M 73.790934 320.153864 
Q 73.790934 320.675114 74.081559 320.956364 
Q 74.372184 321.237614 74.910309 321.237614 
Q 75.437184 321.237614 75.724059 320.956364 
Q 76.012809 320.675114 76.012809 320.153864 
Q 76.012809 319.632614 75.724059 319.355114 
Q 75.437184 319.075739 74.910309 319.075739 
Q 74.372184 319.075739 74.081559 319.356989 
Q 73.790934 319.638239 73.790934 320.153864 
z
M 80.353669 317.815739 
L 85.961794 317.815739 
L 85.961794 319.475114 
L 82.153669 319.475114 
L 82.153669 320.828864 
Q 82.410544 320.757614 82.671169 320.720114 
Q 82.931794 320.680739 83.213044 320.680739 
Q 84.812419 320.680739 85.703044 321.481364 
Q 86.593669 322.281989 86.593669 323.710739 
Q 86.593669 325.128239 85.624294 325.932614 
Q 84.654919 326.735114 82.931794 326.735114 
Q 82.187419 326.735114 81.458044 326.590739 
Q 80.728669 326.446364 80.008669 326.153864 
L 80.008669 324.378239 
Q 80.723044 324.788864 81.364294 324.995114 
Q 82.005544 325.199489 82.575544 325.199489 
Q 83.394919 325.199489 83.865544 324.798239 
Q 84.338044 324.396989 84.338044 323.710739 
Q 84.338044 323.018864 83.865544 322.621364 
Q 83.394919 322.221989 82.575544 322.221989 
Q 82.088044 322.221989 81.536794 322.349489 
Q 80.987419 322.475114 80.353669 322.737614 
L 80.353669 317.815739 
z
" style="stroke: #ffffff"/>
    <path d="M 58.627106 317.815739 
L 65.219606 317.815739 
L 65.219606 319.086989 
L 61.808981 326.564489 
L 59.611481 326.564489 
L 62.840231 319.475114 
L 58.627106 319.475114 
L 58.627106 317.815739 
z
M 67.39859 324.297614 
L 69.507965 324.297614 
L 69.507965 326.564489 
L 67.39859 326.564489 
L 67.39859 324.297614 
z
M 74.910309 322.649489 
Q 74.278434 322.649489 73.937184 322.996364 
Q 73.597809 323.341364 73.597809 323.986364 
Q 73.597809 324.631364 73.937184 324.974489 
Q 74.278434 325.315739 74.910309 325.315739 
Q 75.538434 325.315739 75.872184 324.974489 
Q 76.205934 324.631364 76.205934 323.986364 
Q 76.205934 323.335739 75.872184 322.992614 
Q 75.538434 322.649489 74.910309 322.649489 
z
M 73.264059 321.906989 
Q 72.467184 321.665114 72.062184 321.168239 
Q 71.659059 320.669489 71.659059 319.925114 
Q 71.659059 318.818864 72.484059 318.239489 
Q 73.310934 317.658239 74.910309 317.658239 
Q 76.498434 317.658239 77.323434 318.235739 
Q 78.150309 318.813239 78.150309 319.925114 
Q 78.150309 320.669489 77.743434 321.168239 
Q 77.336559 321.665114 76.539684 321.906989 
Q 77.430309 322.152614 77.884059 322.705739 
Q 78.337809 323.258864 78.337809 324.102614 
Q 78.337809 325.403864 77.473434 326.069489 
Q 76.609059 326.735114 74.910309 326.735114 
Q 73.205934 326.735114 72.335934 326.069489 
Q 71.465934 325.403864 71.465934 324.102614 
Q 71.465934 323.258864 71.919684 322.705739 
Q 72.373434 322.152614 73.264059 321.906989 
z
M 73.790934 320.153864 
Q 73.790934 320.675114 74.081559 320.956364 
Q 74.372184 321.237614 74.910309 321.237614 
Q 75.437184 321.237614 75.724059 320.956364 
Q 76.012809 320.675114 76.012809 320.153864 
Q 76.012809 319.632614 75.724059 319.355114 
Q 75.437184 319.075739 74.910309 319.075739 
Q 74.372184 319.075739 74.081559 319.356989 
Q 73.790934 319.638239 73.790934 320.153864 
z
M 80.353669 317.815739 
L 85.961794 317.815739 
L 85.961794 319.475114 
L 82.153669 319.475114 
L 82.153669 320.828864 
Q 82.410544 320.757614 82.671169 320.720114 
Q 82.931794 320.680739 83.213044 320.680739 
Q 84.812419 320.680739 85.703044 321.481364 
Q 86.593669 322.281989 86.593669 323.710739 
Q 86.593669 325.128239 85.624294 325.932614 
Q 84.654919 326.735114 82.931794 326.735114 
Q 82.187419 326.735114 81.458044 326.590739 
Q 80.728669 326.446364 80.008669 326.153864 
L 80.008669 324.378239 
Q 80.723044 324.788864 81.364294 324.995114 
Q 82.005544 325.199489 82.575544 325.199489 
Q 83.394919 325.199489 83.865544 324.798239 
Q 84.338044 324.396989 84.338044 323.710739 
Q 84.338044 323.018864 83.865544 322.621364 
Q 83.394919 322.221989 82.575544 322.221989 
Q 82.088044 322.221989 81.536794 322.349489 
Q 80.987419 322.475114 80.353669 322.737614 
L 80.353669 317.815739 
z
"/>
   </g>
   <g id="text_10">
    <path d="M 62.002106 297.940398 
Q 61.370231 297.940398 61.028981 298.287273 
Q 60.689606 298.632273 60.689606 299.277273 
Q 60.689606 299.922273 61.028981 300.265398 
Q 61.370231 300.606648 62.002106 300.606648 
Q 62.630231 300.606648 62.963981 300.265398 
Q 63.297731 299.922273 63.297731 299.277273 
Q 63.297731 298.626648 62.963981 298.283523 
Q 62.630231 297.940398 62.002106 297.940398 
z
M 60.355856 297.197898 
Q 59.558981 296.956023 59.153981 296.459148 
Q 58.750856 295.960398 58.750856 295.216023 
Q 58.750856 294.109773 59.575856 293.530398 
Q 60.402731 292.949148 62.002106 292.949148 
Q 63.590231 292.949148 64.415231 293.526648 
Q 65.242106 294.104148 65.242106 295.216023 
Q 65.242106 295.960398 64.835231 296.459148 
Q 64.428356 296.956023 63.631481 297.197898 
Q 64.522106 297.443523 64.975856 297.996648 
Q 65.429606 298.549773 65.429606 299.393523 
Q 65.429606 300.694773 64.565231 301.360398 
Q 63.700856 302.026023 62.002106 302.026023 
Q 60.297731 302.026023 59.427731 301.360398 
Q 58.557731 300.694773 58.557731 299.393523 
Q 58.557731 298.549773 59.011481 297.996648 
Q 59.465231 297.443523 60.355856 297.197898 
z
M 60.882731 295.444773 
Q 60.882731 295.966023 61.173356 296.247273 
Q 61.463981 296.528523 62.002106 296.528523 
Q 62.528981 296.528523 62.815856 296.247273 
Q 63.104606 295.966023 63.104606 295.444773 
Q 63.104606 294.923523 62.815856 294.646023 
Q 62.528981 294.366648 62.002106 294.366648 
Q 61.463981 294.366648 61.173356 294.647898 
Q 60.882731 294.929148 60.882731 295.444773 
z
M 67.39859 299.588523 
L 69.507965 299.588523 
L 69.507965 301.855398 
L 67.39859 301.855398 
L 67.39859 299.588523 
z
M 72.004059 293.106648 
L 77.612184 293.106648 
L 77.612184 294.766023 
L 73.804059 294.766023 
L 73.804059 296.119773 
Q 74.060934 296.048523 74.321559 296.011023 
Q 74.582184 295.971648 74.863434 295.971648 
Q 76.462809 295.971648 77.353434 296.772273 
Q 78.244059 297.572898 78.244059 299.001648 
Q 78.244059 300.419148 77.274684 301.223523 
Q 76.305309 302.026023 74.582184 302.026023 
Q 73.837809 302.026023 73.108434 301.881648 
Q 72.379059 301.737273 71.659059 301.444773 
L 71.659059 299.669148 
Q 72.373434 300.079773 73.014684 300.286023 
Q 73.655934 300.490398 74.225934 300.490398 
Q 75.045309 300.490398 75.515934 300.089148 
Q 75.988434 299.687898 75.988434 299.001648 
Q 75.988434 298.309773 75.515934 297.912273 
Q 75.045309 297.512898 74.225934 297.512898 
Q 73.738434 297.512898 73.187184 297.640398 
Q 72.637809 297.766023 72.004059 298.028523 
L 72.004059 293.106648 
z
M 83.499919 294.964773 
L 81.028669 298.626648 
L 83.499919 298.626648 
L 83.499919 294.964773 
z
M 83.124919 293.106648 
L 85.633669 293.106648 
L 85.633669 298.626648 
L 86.880544 298.626648 
L 86.880544 300.261648 
L 85.633669 300.261648 
L 85.633669 301.855398 
L 83.499919 301.855398 
L 83.499919 300.261648 
L 79.622419 300.261648 
L 79.622419 298.328523 
L 83.124919 293.106648 
z
" style="stroke: #ffffff"/>
    <path d="M 62.002106 297.940398 
Q 61.370231 297.940398 61.028981 298.287273 
Q 60.689606 298.632273 60.689606 299.277273 
Q 60.689606 299.922273 61.028981 300.265398 
Q 61.370231 300.606648 62.002106 300.606648 
Q 62.630231 300.606648 62.963981 300.265398 
Q 63.297731 299.922273 63.297731 299.277273 
Q 63.297731 298.626648 62.963981 298.283523 
Q 62.630231 297.940398 62.002106 297.940398 
z
M 60.355856 297.197898 
Q 59.558981 296.956023 59.153981 296.459148 
Q 58.750856 295.960398 58.750856 295.216023 
Q 58.750856 294.109773 59.575856 293.530398 
Q 60.402731 292.949148 62.002106 292.949148 
Q 63.590231 292.949148 64.415231 293.526648 
Q 65.242106 294.104148 65.242106 295.216023 
Q 65.242106 295.960398 64.835231 296.459148 
Q 64.428356 296.956023 63.631481 297.197898 
Q 64.522106 297.443523 64.975856 297.996648 
Q 65.429606 298.549773 65.429606 299.393523 
Q 65.429606 300.694773 64.565231 301.360398 
Q 63.700856 302.026023 62.002106 302.026023 
Q 60.297731 302.026023 59.427731 301.360398 
Q 58.557731 300.694773 58.557731 299.393523 
Q 58.557731 298.549773 59.011481 297.996648 
Q 59.465231 297.443523 60.355856 297.197898 
z
M 60.882731 295.444773 
Q 60.882731 295.966023 61.173356 296.247273 
Q 61.463981 296.528523 62.002106 296.528523 
Q 62.528981 296.528523 62.815856 296.247273 
Q 63.104606 295.966023 63.104606 295.444773 
Q 63.104606 294.923523 62.815856 294.646023 
Q 62.528981 294.366648 62.002106 294.366648 
Q 61.463981 294.366648 61.173356 294.647898 
Q 60.882731 294.929148 60.882731 295.444773 
z
M 67.39859 299.588523 
L 69.507965 299.588523 
L 69.507965 301.855398 
L 67.39859 301.855398 
L 67.39859 299.588523 
z
M 72.004059 293.106648 
L 77.612184 293.106648 
L 77.612184 294.766023 
L 73.804059 294.766023 
L 73.804059 296.119773 
Q 74.060934 296.048523 74.321559 296.011023 
Q 74.582184 295.971648 74.863434 295.971648 
Q 76.462809 295.971648 77.353434 296.772273 
Q 78.244059 297.572898 78.244059 299.001648 
Q 78.244059 300.419148 77.274684 301.223523 
Q 76.305309 302.026023 74.582184 302.026023 
Q 73.837809 302.026023 73.108434 301.881648 
Q 72.379059 301.737273 71.659059 301.444773 
L 71.659059 299.669148 
Q 72.373434 300.079773 73.014684 300.286023 
Q 73.655934 300.490398 74.225934 300.490398 
Q 75.045309 300.490398 75.515934 300.089148 
Q 75.988434 299.687898 75.988434 299.001648 
Q 75.988434 298.309773 75.515934 297.912273 
Q 75.045309 297.512898 74.225934 297.512898 
Q 73.738434 297.512898 73.187184 297.640398 
Q 72.637809 297.766023 72.004059 298.028523 
L 72.004059 293.106648 
z
M 83.499919 294.964773 
L 81.028669 298.626648 
L 83.499919 298.626648 
L 83.499919 294.964773 
z
M 83.124919 293.106648 
L 85.633669 293.106648 
L 85.633669 298.626648 
L 86.880544 298.626648 
L 86.880544 300.261648 
L 85.633669 300.261648 
L 85.633669 301.855398 
L 83.499919 301.855398 
L 83.499919 300.261648 
L 79.622419 300.261648 
L 79.622419 298.328523 
L 83.124919 293.106648 
z
"/>
   </g>
  </g>
  <g id="axes_6">
   <g id="patch_15">
    <path d="M 104.982353 504 
L 129.6 504 
L 129.6 286.56 
L 104.982353 286.56 
L 104.982353 504 
z
" style="fill: none"/>
   </g>
  </g>
 </g>
 <defs>
  <clipPath id="p066b15aa08">
   <rect x="49.182353" y="286.56" width="49.235294" height="217.44"/>
  </clipPath>
 </defs>
</svg>
